<svg width="540" height="450" viewBox="0 0 540 450" fill="none" xmlns="http://www.w3.org/2000/svg">
<path opacity="0.3" d="M494.55 378.27C503.1 366.48 500.31 349.38 494.37 335.79C487.89 321.03 478.26 306.81 477.9 290.79C477.54 273.42 488.25 257.85 495.09 241.74C501.93 225.63 503.82 204.39 489.87 193.32C474.57 181.26 450.9 189 432.45 181.89C416.34 175.68 407.16 159.03 403.47 142.74C399.87 126.45 400.32 109.53 396.54 93.33C392.76 77.13 383.13 60.57 366.75 54.9C350.46 49.23 332.46 55.71 317.43 63.99C302.49 72.27 288.09 82.62 270.99 85.5C247.77 89.37 224.91 78.66 201.87 73.98C164.79 66.42 123.21 76.14 97.1998 102.51C78.5698 121.41 69.2098 146.7 61.8298 171.72C52.2137 204.353 45.3793 237.743 41.3998 271.53C38.6998 294.39 37.4398 318.51 47.5198 339.48C56.5198 358.29 74.8798 372.69 95.6698 378.27H494.55Z" fill="#86E9DC"/>
<path d="M165.69 121.95H129.6C129.42 121.95 129.24 121.77 129.24 121.59C129.24 121.41 129.42 121.23 129.6 121.23H165.69C165.87 121.23 166.05 121.41 166.05 121.59C166.05 121.77 165.87 121.95 165.69 121.95ZM165.69 139.77H129.6C129.42 139.77 129.24 139.59 129.24 139.41C129.24 139.23 129.42 139.05 129.6 139.05H165.69C165.87 139.05 166.05 139.23 166.05 139.41C166.05 139.59 165.87 139.77 165.69 139.77ZM159.12 130.86H108.09C107.91 130.86 107.73 130.68 107.73 130.5C107.73 130.32 107.91 130.14 108.09 130.14H159.12C159.3 130.14 159.48 130.32 159.48 130.5C159.48 130.68 159.3 130.86 159.12 130.86Z" fill="#25E498"/>
<path d="M136.979 121.95C136.799 121.95 136.619 121.77 136.619 121.59V114.03C136.619 113.85 136.799 113.67 136.979 113.67C137.159 113.67 137.339 113.85 137.339 114.03V121.59C137.339 121.77 137.249 121.95 136.979 121.95ZM149.669 130.86C149.489 130.86 149.309 130.68 149.309 130.5V121.59C149.309 121.41 149.489 121.23 149.669 121.23C149.849 121.23 150.029 121.41 150.029 121.59V130.5C150.029 130.68 149.849 130.86 149.669 130.86ZM140.039 139.5C139.859 139.5 139.679 139.32 139.679 139.14V130.5C139.679 130.32 139.859 130.14 140.039 130.14C140.219 130.14 140.399 130.32 140.399 130.5V139.14C140.399 139.32 140.219 139.5 140.039 139.5ZM180.179 270.36H144.089C143.909 270.36 143.729 270.18 143.729 270C143.729 269.82 143.909 269.64 144.089 269.64H180.179C180.359 269.64 180.539 269.82 180.539 270C180.539 270.18 180.359 270.36 180.179 270.36ZM180.179 288.27H144.089C143.909 288.27 143.729 288.09 143.729 287.91C143.729 287.73 143.909 287.55 144.089 287.55H180.179C180.359 287.55 180.539 287.73 180.539 287.91C180.539 288.09 180.359 288.27 180.179 288.27ZM173.609 279.36H122.579C122.399 279.36 122.219 279.18 122.219 279C122.219 278.82 122.399 278.64 122.579 278.64H173.609C173.789 278.64 173.969 278.82 173.969 279C173.969 279.18 173.789 279.36 173.609 279.36Z" fill="#25E498"/>
<path d="M151.469 270.36C151.289 270.36 151.109 270.18 151.109 270V262.44C151.109 262.26 151.289 262.08 151.469 262.08C151.649 262.08 151.829 262.26 151.829 262.44V270C151.829 270.27 151.739 270.36 151.469 270.36ZM164.159 279.36C163.979 279.36 163.799 279.18 163.799 279V270.09C163.799 269.91 163.979 269.73 164.159 269.73C164.339 269.73 164.519 269.91 164.519 270.09V279C164.519 279.18 164.339 279.36 164.159 279.36ZM154.529 288C154.349 288 154.169 287.82 154.169 287.64V279C154.169 278.82 154.349 278.64 154.529 278.64C154.709 278.64 154.889 278.82 154.889 279V287.64C154.889 287.82 154.709 288 154.529 288Z" fill="#25E498"/>
<path d="M203.668 257.31C201.328 256.68 199.078 255.87 196.828 255.06L197.188 254.25C199.438 255.15 201.688 255.87 203.938 256.5L203.668 257.31ZM190.168 252C188.008 250.92 185.938 249.66 183.958 248.31L184.408 247.59C186.388 248.94 188.458 250.11 190.618 251.19L190.168 252ZM178.108 244.08C176.218 242.55 174.418 240.93 172.708 239.31L173.338 238.68C175.048 240.3 176.848 241.92 178.648 243.45L178.108 244.08ZM167.758 234C166.228 232.2 164.698 230.22 163.348 228.24L164.068 227.7C165.418 229.68 166.858 231.57 168.388 233.37L167.758 234ZM159.568 222.12C158.398 219.96 157.318 217.8 156.418 215.64L157.228 215.28C158.128 217.44 159.208 219.6 160.378 221.67L159.568 222.12ZM153.898 208.8C153.178 206.46 152.548 204.12 152.098 201.78L152.998 201.6C153.448 204.03 154.078 206.37 154.708 208.53L153.898 208.8ZM151.108 194.58C150.748 190.71 150.838 187.56 150.838 187.38H151.738C151.738 187.74 151.648 190.44 152.008 194.49L151.108 194.58ZM152.098 180.18L151.198 180.09C151.468 177.75 151.828 175.32 152.278 172.98L153.178 173.16C152.728 175.5 152.368 177.84 152.098 180.18ZM154.978 166.23L154.078 165.96C154.798 163.62 155.608 161.37 156.508 159.12L157.318 159.48C156.508 161.64 155.698 163.89 154.978 166.23ZM160.378 153L159.568 152.55C160.648 150.39 161.908 148.32 163.258 146.34L163.978 146.79C162.718 148.77 161.458 150.84 160.378 153ZM168.208 141.03L167.488 140.49C169.018 138.6 170.638 136.8 172.348 135.09L172.978 135.72C171.358 137.43 169.738 139.23 168.208 141.03ZM394.018 135.09C391.678 135.09 389.248 135 386.818 134.91V134.01C389.248 134.1 391.678 134.19 394.018 134.19V135.09ZM401.218 134.91V134.01C403.648 133.92 406.078 133.74 408.418 133.47L408.508 134.37C406.078 134.64 403.648 134.82 401.218 134.91ZM379.528 134.37C377.188 134.19 374.758 133.92 372.328 133.56L372.418 132.66C374.848 132.93 377.278 133.2 379.528 133.38V134.37ZM415.528 133.47L415.348 132.57C416.248 132.39 417.148 132.3 418.138 132.12C419.578 131.85 421.018 131.58 422.458 131.22L422.638 132.12C421.198 132.48 419.758 132.75 418.318 133.02C417.418 133.11 416.518 133.29 415.528 133.47ZM365.218 132.66C362.878 132.3 360.538 131.85 358.108 131.49L358.288 130.59C360.718 131.04 363.058 131.4 365.398 131.76L365.218 132.66ZM178.288 130.95L177.748 130.23C179.548 128.7 181.528 127.26 183.508 125.91L184.048 126.63C182.068 127.98 180.088 129.42 178.288 130.95ZM429.658 130.14L429.388 129.24C431.638 128.52 433.978 127.71 436.138 126.9L436.498 127.71C434.248 128.61 431.908 129.42 429.658 130.14ZM351.088 130.05C348.838 129.6 346.498 129.06 344.068 128.52L344.248 127.62C346.678 128.16 349.018 128.7 351.268 129.15L351.088 130.05ZM336.958 126.9C334.618 126.36 332.278 125.73 329.938 125.19L330.118 124.29C332.458 124.83 334.798 125.46 337.138 126L336.958 126.9ZM443.068 124.83L442.708 124.02C444.868 122.94 447.028 121.86 449.008 120.69L449.458 121.5C447.388 122.67 445.228 123.84 443.068 124.83ZM323.008 123.39L315.988 121.59L316.168 120.69L323.188 122.49L323.008 123.39ZM190.078 122.85L189.628 122.04C191.698 120.87 193.858 119.79 196.108 118.8L196.468 119.61C194.308 120.6 192.148 121.68 190.078 122.85ZM309.058 119.79C306.718 119.16 304.378 118.62 302.038 118.08L302.218 117.18C304.558 117.72 306.898 118.35 309.238 118.89L309.058 119.79ZM455.578 117.63L455.038 116.91C456.748 115.74 458.368 114.48 459.988 113.22L460.528 113.94C458.998 115.11 457.288 116.37 455.578 117.63ZM203.128 116.82L202.858 116.01C205.108 115.2 207.358 114.39 209.698 113.76L209.968 114.66C207.628 115.29 205.288 116.01 203.128 116.82ZM295.108 116.46C292.678 115.92 290.338 115.38 288.088 114.93L288.268 114.03C290.518 114.48 292.858 115.02 295.288 115.56L295.108 116.46ZM280.978 113.49C278.548 113.04 276.208 112.59 273.868 112.23L274.048 111.33C276.298 111.69 278.728 112.14 281.158 112.59L280.978 113.49ZM216.808 112.77L216.628 111.87C218.968 111.33 221.308 110.88 223.738 110.52L223.918 111.42C221.488 111.78 219.148 112.23 216.808 112.77ZM266.848 111.24C264.418 110.97 261.988 110.7 259.738 110.43L259.828 109.53C262.168 109.71 264.598 109.98 267.028 110.34L266.848 111.24ZM231.028 110.52L230.938 109.62C233.278 109.35 235.708 109.17 238.138 109.08L238.228 109.98C235.708 110.07 233.368 110.25 231.028 110.52ZM252.538 109.98C252.088 109.98 251.638 109.98 251.098 109.89C249.208 109.8 247.228 109.8 245.338 109.8V108.9C247.228 108.9 249.208 108.9 251.098 108.99C251.548 108.99 252.088 108.99 252.538 109.08V109.98Z" fill="black"/>
<path d="M353.068 89.0101V360.09C353.068 370.08 344.968 378.27 334.888 378.27H203.758C193.678 378.27 185.578 370.08 185.578 360.09V89.0101C185.578 78.9301 193.768 70.8301 203.758 70.8301H334.798C344.878 70.8301 353.068 79.0201 353.068 89.0101Z" fill="#060405"/>
<path d="M353.068 95.22V349.29H185.578V95.22H353.068Z" fill="white"/>
<path d="M325.349 154.71H214.379C211.769 154.71 209.699 152.64 209.699 150.03V124.38C209.699 121.77 211.769 119.7 214.379 119.7H325.439C328.049 119.7 330.119 121.77 330.119 124.38V150.03C330.029 152.64 327.959 154.71 325.349 154.71Z" fill="#1AC1C1"/>
<path d="M247.95 129.78C247.05 129.33 245.88 129.06 244.44 129.06H239.49C239.13 129.06 238.77 129.15 238.59 129.42C238.32 129.69 238.23 129.96 238.23 130.32V143.46C238.23 143.82 238.32 144.18 238.59 144.36C238.86 144.63 239.13 144.72 239.49 144.72C239.85 144.72 240.21 144.63 240.39 144.36C240.66 144.09 240.75 143.82 240.75 143.46V139.23H244.35C245.79 139.23 246.96 138.96 247.86 138.51C248.76 138.06 249.48 137.34 249.84 136.62C250.2 135.9 250.47 135 250.47 134.1C250.47 133.2 250.29 132.39 249.84 131.58C249.57 130.95 248.85 130.23 247.95 129.78ZM247.86 134.19C247.86 134.91 247.59 135.54 247.05 135.99C246.51 136.53 245.52 136.71 244.17 136.71H240.75V131.58H244.17C245.52 131.58 246.51 131.85 247.05 132.3C247.68 132.84 247.86 133.47 247.86 134.19ZM264.15 142.11H257.49V130.23C257.49 129.87 257.4 129.51 257.13 129.33C256.59 128.79 255.78 128.79 255.24 129.33C254.97 129.6 254.88 129.87 254.88 130.23V143.1C254.88 143.55 255.06 144 255.42 144.27C255.78 144.54 256.14 144.81 256.59 144.81H264.24C264.6 144.81 264.96 144.72 265.14 144.45C265.41 144.18 265.5 143.91 265.5 143.55C265.5 143.19 265.41 142.83 265.14 142.65C264.87 142.29 264.51 142.11 264.15 142.11ZM276.93 130.05C276.75 129.78 276.57 129.51 276.3 129.24C276.03 129.06 275.67 128.88 275.31 128.88H275.13C274.77 128.88 274.41 128.97 274.14 129.24C273.87 129.42 273.69 129.69 273.51 130.05L268.02 143.01C267.93 143.19 267.93 143.37 267.93 143.55C267.93 143.91 268.02 144.18 268.29 144.45C268.74 144.9 269.46 144.99 270 144.63C270.18 144.45 270.36 144.27 270.54 144L271.89 140.85H278.73L280.08 144C280.17 144.27 280.35 144.45 280.62 144.54C280.8 144.72 281.07 144.72 281.34 144.72C281.7 144.72 282.06 144.63 282.24 144.36C282.51 144.09 282.6 143.82 282.6 143.46C282.6 143.28 282.6 143.1 282.51 142.92L276.93 130.05ZM277.65 138.42H272.88L275.31 132.66L277.65 138.42ZM300.6 129.33C300.06 128.79 299.25 128.79 298.71 129.33C298.44 129.6 298.35 129.87 298.35 130.23V140.76L290.7 129.69C290.34 129.15 289.8 128.88 289.26 128.88H288.9C288.45 128.88 288 129.06 287.64 129.42C287.28 129.78 287.1 130.14 287.1 130.68V143.55C287.1 143.91 287.19 144.27 287.46 144.45C288 144.99 288.81 144.99 289.35 144.45C289.62 144.18 289.71 143.91 289.71 143.55V133.02L297.45 144.18C297.63 144.36 297.81 144.54 298.08 144.72C298.35 144.81 298.62 144.9 298.89 144.9H299.16C299.61 144.9 300.06 144.72 300.42 144.36C300.78 144 300.96 143.64 300.96 143.1V130.23C300.96 129.87 300.87 129.6 300.6 129.33Z" fill="white"/>
<path d="M231.03 212.4H204.48C202.05 212.4 200.07 210.42 200.07 207.99V181.44C200.07 179.01 202.05 177.03 204.48 177.03H231.03C233.46 177.03 235.44 179.01 235.44 181.44V207.99C235.53 210.42 233.55 212.4 231.03 212.4Z" fill="#FFC2C2"/>
<path d="M243.18 179.91H320.85V185.49H243.18V179.91ZM243.18 192.78H338.58V195.57H243.18V192.78ZM243.18 199.53H338.58V202.32H243.18V199.53ZM243.18 206.28H282.06V209.07H243.18V206.28ZM288.54 206.28H294.84V209.07H288.54V206.28ZM306.9 206.28H310.95V209.07H306.9V206.28Z" fill="#FFC2C2"/>
<path d="M212.852 202.23L208.712 198.09C207.992 197.37 207.992 196.11 208.712 195.39C209.432 194.67 210.692 194.67 211.412 195.39L214.202 198.18L225.002 187.38C225.722 186.66 226.982 186.66 227.702 187.38C228.422 188.1 228.422 189.36 227.702 190.08L215.462 202.32C214.832 202.95 213.572 202.95 212.852 202.23Z" fill="white"/>
<path d="M231.03 263.43H204.48C202.05 263.43 200.07 261.45 200.07 259.02V232.47C200.07 230.04 202.05 228.06 204.48 228.06H231.03C233.46 228.06 235.44 230.04 235.44 232.47V259.02C235.53 261.54 233.55 263.43 231.03 263.43Z" fill="#F81F8B"/>
<path d="M243.18 230.94H320.85V236.52H243.18V230.94ZM243.18 243.9H338.58V246.69H243.18V243.9ZM243.18 250.65H338.58V253.44H243.18V250.65ZM243.18 257.31H282.06V260.1H243.18V257.31ZM288.54 257.31H294.84V260.1H288.54V257.31ZM306.9 257.31H310.95V260.1H306.9V257.31Z" fill="#FFC2C2"/>
<path d="M212.852 253.26L208.712 249.12C207.992 248.4 207.992 247.14 208.712 246.42C209.432 245.7 210.692 245.7 211.412 246.42L214.202 249.21L225.002 238.41C225.722 237.69 226.982 237.69 227.702 238.41C228.422 239.13 228.422 240.39 227.702 241.11L215.462 253.35C214.832 253.98 213.572 253.98 212.852 253.26Z" fill="white"/>
<path d="M231.03 314.55H204.48C202.05 314.55 200.07 312.57 200.07 310.14V283.59C200.07 281.16 202.05 279.18 204.48 279.18H231.03C233.46 279.18 235.44 281.16 235.44 283.59V310.14C235.53 312.57 233.55 314.55 231.03 314.55Z" fill="#FFC2C2"/>
<path d="M243.18 281.97H320.85V287.55H243.18V281.97ZM243.18 294.93H338.58V297.72H243.18V294.93ZM243.18 301.68H338.58V304.47H243.18V301.68ZM243.18 308.43H282.06V311.22H243.18V308.43ZM288.54 308.43H294.84V311.22H288.54V308.43ZM306.9 308.43H310.95V311.22H306.9V308.43Z" fill="#FFC2C2"/>
<path d="M212.852 304.29L208.712 300.15C207.992 299.43 207.992 298.17 208.712 297.45C209.432 296.73 210.692 296.73 211.412 297.45L214.202 300.24L225.002 289.44C225.722 288.72 226.982 288.72 227.702 289.44C228.422 290.16 228.422 291.42 227.702 292.14L215.462 304.38C214.832 305.1 213.572 305.1 212.852 304.29Z" fill="white"/>
<path d="M362.97 280.71C362.43 280.71 362.07 280.35 362.07 279.81C362.07 275.85 359.46 272.61 356.22 272.61C355.68 272.61 355.32 272.25 355.32 271.71C355.32 271.17 355.68 270.81 356.22 270.81C360.45 270.81 363.87 274.86 363.87 279.81C363.87 280.26 363.51 280.71 362.97 280.71ZM391.32 280.71C390.78 280.71 390.42 280.35 390.42 279.81C390.42 275.85 387.81 272.61 384.57 272.61C384.03 272.61 383.67 272.25 383.67 271.71C383.67 271.17 384.03 270.81 384.57 270.81C388.8 270.81 392.22 274.86 392.22 279.81C392.22 280.26 391.77 280.71 391.32 280.71ZM419.58 280.71C419.04 280.71 418.68 280.35 418.68 279.81C418.68 275.85 416.07 272.61 412.83 272.61C412.29 272.61 411.93 272.25 411.93 271.71C411.93 271.17 412.29 270.81 412.83 270.81C417.06 270.81 420.48 274.86 420.48 279.81C420.48 280.26 420.12 280.71 419.58 280.71ZM447.93 280.71C447.39 280.71 447.03 280.35 447.03 279.81C447.03 275.85 444.42 272.61 441.18 272.61C440.64 272.61 440.28 272.25 440.28 271.71C440.28 271.17 440.64 270.81 441.18 270.81C445.41 270.81 448.83 274.86 448.83 279.81C448.83 280.26 448.38 280.71 447.93 280.71Z" fill="#060405"/>
<path opacity="0.05" d="M352.438 276.03V360.63C352.438 370.35 344.608 378.18 334.888 378.18H330.658C329.938 377.28 329.488 376.02 329.488 374.76V281.61C329.488 278.55 332.008 276.12 334.978 276.12H352.438V276.03Z" fill="black"/>
<path d="M462.241 283.59V372.96C462.241 375.93 459.901 378.27 456.931 378.27H337.591C334.621 378.27 332.281 375.93 332.281 372.96V283.59C332.281 280.62 334.621 278.28 337.591 278.28H457.021C459.901 278.28 462.241 280.62 462.241 283.59Z" fill="#F97444"/>
<path d="M459.09 295.74V283.5C459.09 282.33 458.1 281.34 456.93 281.34H337.59C336.42 281.34 335.43 282.33 335.43 283.5V295.74H459.09Z" fill="white"/>
<path d="M356.221 291.24C358.06 291.24 359.551 289.749 359.551 287.91C359.551 286.071 358.06 284.58 356.221 284.58C354.382 284.58 352.891 286.071 352.891 287.91C352.891 289.749 354.382 291.24 356.221 291.24Z" fill="#FFCCCC"/>
<path d="M384.119 291.24C385.958 291.24 387.449 289.749 387.449 287.91C387.449 286.071 385.958 284.58 384.119 284.58C382.28 284.58 380.789 286.071 380.789 287.91C380.789 289.749 382.28 291.24 384.119 291.24Z" fill="#FFCCCC"/>
<path d="M412.021 291.24C413.86 291.24 415.351 289.749 415.351 287.91C415.351 286.071 413.86 284.58 412.021 284.58C410.182 284.58 408.691 286.071 408.691 287.91C408.691 289.749 410.182 291.24 412.021 291.24Z" fill="#FFCCCC"/>
<path d="M439.92 291.24C441.759 291.24 443.25 289.749 443.25 287.91C443.25 286.071 441.759 284.58 439.92 284.58C438.081 284.58 436.59 286.071 436.59 287.91C436.59 289.749 438.081 291.24 439.92 291.24Z" fill="#FFCCCC"/>
<path d="M356.22 288.81C351.99 288.81 348.57 284.76 348.57 279.81C348.57 274.86 351.99 270.81 356.22 270.81C356.76 270.81 357.12 271.17 357.12 271.71C357.12 272.25 356.76 272.61 356.22 272.61C352.98 272.61 350.37 275.85 350.37 279.81C350.37 283.77 352.98 287.01 356.22 287.01C356.76 287.01 357.12 287.37 357.12 287.91C357.12 288.45 356.67 288.81 356.22 288.81ZM384.48 288.81C380.25 288.81 376.83 284.76 376.83 279.81C376.83 274.86 380.25 270.81 384.48 270.81C385.02 270.81 385.38 271.17 385.38 271.71C385.38 272.25 385.02 272.61 384.48 272.61C381.24 272.61 378.63 275.85 378.63 279.81C378.63 283.77 381.24 287.01 384.48 287.01C385.02 287.01 385.38 287.37 385.38 287.91C385.38 288.45 385.02 288.81 384.48 288.81ZM412.83 288.81C408.6 288.81 405.18 284.76 405.18 279.81C405.18 274.86 408.6 270.81 412.83 270.81C413.37 270.81 413.73 271.17 413.73 271.71C413.73 272.25 413.37 272.61 412.83 272.61C409.59 272.61 406.98 275.85 406.98 279.81C406.98 283.77 409.59 287.01 412.83 287.01C413.37 287.01 413.73 287.37 413.73 287.91C413.73 288.45 413.28 288.81 412.83 288.81ZM441.09 288.81C436.86 288.81 433.44 284.76 433.44 279.81C433.44 274.86 436.86 270.81 441.09 270.81C441.63 270.81 441.99 271.17 441.99 271.71C441.99 272.25 441.63 272.61 441.09 272.61C437.85 272.61 435.24 275.85 435.24 279.81C435.24 283.77 437.85 287.01 441.09 287.01C441.63 287.01 441.99 287.37 441.99 287.91C441.99 288.45 441.63 288.81 441.09 288.81Z" fill="#060405"/>
<path d="M366.571 307.44H382.411V323.28H366.571V307.44ZM389.341 307.44H405.181V323.28H389.341V307.44ZM412.111 307.44H427.951V323.28H412.111V307.44ZM434.881 307.44H450.721V323.28H434.881V307.44ZM343.801 329.04H359.641V344.88H343.801V329.04ZM366.571 329.04H382.411V344.88H366.571V329.04ZM389.341 329.04H405.181V344.88H389.341V329.04ZM412.111 329.04H427.951V344.88H412.111V329.04ZM434.881 329.04H450.721V344.88H434.881V329.04ZM343.801 350.64H359.641V366.48H343.801V350.64ZM366.571 350.64H382.411V366.48H366.571V350.64ZM389.341 350.64H405.181V366.48H389.341V350.64Z" fill="white"/>
<path d="M394.56 341.28L392.13 338.85C391.68 338.4 391.68 337.68 392.13 337.23C392.58 336.78 393.3 336.78 393.75 337.23L395.37 338.85L401.58 332.64C402.03 332.19 402.75 332.19 403.2 332.64C403.65 333.09 403.65 333.81 403.2 334.26L396.18 341.28C395.64 341.73 394.92 341.73 394.56 341.28Z" fill="#060405"/>
<path d="M136.712 383.58V380.61H118.982C118.712 386.37 118.262 397.17 118.172 397.17H146.972C148.052 387.72 136.712 383.58 136.712 383.58Z" fill="#FE6021"/>
<path d="M146.612 393.03C146.972 394.29 147.152 395.64 146.972 397.17H118.172C118.262 397.17 118.352 395.46 118.442 393.03H146.612Z" fill="#060405"/>
<path d="M72.54 383.58V380.61H54.81C54.54 386.37 54.09 397.17 54 397.17H82.8C83.79 387.72 72.54 383.58 72.54 383.58Z" fill="#FE6021"/>
<path d="M82.44 393.03C82.8 394.29 82.98 395.64 82.8 397.17H54C54.09 397.17 54.18 395.46 54.27 393.03H82.44ZM138.69 382.59L128.97 241.74L94.32 248.49L117.99 382.59C117.9 384.03 138.69 384.03 138.69 382.59Z" fill="#060405"/>
<path d="M74.79 383.67L110.97 243.72L74.7 245.43L54 383.67C54 385.02 74.79 385.02 74.79 383.67Z" fill="#060405"/>
<path d="M70.1984 180.54C74.1584 173.97 110.518 170.01 120.418 178.02C127.798 184.05 131.128 257.31 131.128 257.31C131.668 264.6 68.3984 265.05 67.8584 257.85C67.8584 257.76 66.1484 187.29 70.1984 180.54Z" fill="#9F28EE"/>
<path d="M190.531 188.91C190.531 188.91 164.251 222.48 154.531 224.01C147.691 225.09 127.891 210.6 127.891 210.6L139.771 193.14L153.811 200.97L184.051 182.34C183.961 182.07 182.701 173.52 184.501 173.61C186.391 173.7 187.381 177.66 187.381 177.66C187.381 177.66 195.211 166.05 197.461 167.04C199.711 168.03 192.061 178.2 192.061 178.2C192.061 178.2 196.471 180.99 197.011 184.14C197.641 187.29 190.531 188.91 190.531 188.91Z" fill="white"/>
<path d="M153.722 224.46C146.162 224.46 128.342 211.5 127.622 210.96C127.442 210.78 127.352 210.51 127.532 210.33L139.412 192.87C139.502 192.69 139.772 192.6 140.042 192.69L153.902 200.43L183.692 182.07C183.512 180.63 182.702 174.87 183.872 173.52C184.142 173.16 184.502 173.16 184.682 173.16C186.212 173.25 187.292 175.41 187.742 176.67C190.082 173.25 195.662 165.69 197.822 166.68C198.182 166.86 198.362 167.13 198.452 167.49C198.992 169.65 194.222 176.4 192.872 178.2C194.042 179.01 197.192 181.35 197.642 184.14C198.182 187.47 191.972 189.09 190.892 189.27C188.822 191.88 164.252 222.84 154.712 224.37C154.352 224.46 154.082 224.46 153.722 224.46ZM128.522 210.42C131.132 212.31 147.062 223.56 153.722 223.56C153.992 223.56 154.262 223.56 154.442 223.47C163.892 222.03 189.902 188.91 190.172 188.55C190.262 188.46 190.352 188.37 190.442 188.37C192.332 187.92 197.102 186.39 196.652 184.23C196.202 181.35 191.972 178.65 191.882 178.65C191.792 178.56 191.702 178.47 191.702 178.38C191.702 178.29 191.702 178.11 191.792 178.02C194.222 174.87 197.912 169.2 197.552 167.67C197.552 167.58 197.462 167.49 197.462 167.49C196.292 166.95 191.612 172.53 187.922 177.93C187.832 178.11 187.652 178.11 187.472 178.11C187.292 178.11 187.202 177.93 187.112 177.75C186.842 176.76 185.852 174.06 184.592 173.97L184.502 174.06C183.692 175.05 184.322 181.17 184.592 182.16V182.25C184.592 182.43 184.502 182.52 184.412 182.61C152.282 202.23 154.172 201.51 153.722 201.24L140.042 193.59L128.522 210.42Z" fill="#060405"/>
<path d="M113.488 174.87C113.488 174.87 121.678 177.21 129.598 181.8C136.168 185.58 146.518 195.03 146.518 195.03C146.608 199.17 134.098 216.9 132.568 216.09L115.918 204.57L113.488 174.87Z" fill="#9F28EE"/>
<path d="M127.89 213.66C127.62 213.66 127.44 213.48 127.44 213.3L125.82 199.35C125.82 199.08 126 198.9 126.18 198.81C126.45 198.81 126.63 198.99 126.72 199.17L128.34 213.12C128.34 213.39 128.16 213.57 127.89 213.66Z" fill="#060405"/>
<path d="M98.9119 167.67C98.9119 167.67 100.892 171.63 103.232 175.14C104.942 177.75 101.702 182.79 98.8219 184.32C94.0519 186.84 84.7819 175.59 84.7819 175.59L84.4219 150.84L98.9119 167.67Z" fill="white"/>
<path d="M84.3289 175.77L84.2389 175.68L83.8789 149.49L99.3589 167.49C99.3589 167.49 101.429 171.45 103.589 174.87C104.129 175.77 104.309 176.94 103.949 178.38C103.319 180.9 101.159 183.6 98.9989 184.68C94.7689 186.84 87.2989 179.37 84.3289 175.77ZM85.1389 175.32C87.7489 178.47 94.9489 185.67 98.5489 183.87C100.439 182.88 102.419 180.36 103.049 178.11C103.229 177.3 103.409 176.22 102.869 175.32C100.799 172.08 98.8189 168.39 98.6389 167.94L84.8689 152.01L85.1389 175.32Z" fill="#060405"/>
<path d="M84.8716 147.51C85.1416 147.87 87.3916 170.91 101.252 169.29C115.112 167.67 111.512 139.05 105.302 132.75C99.0916 126.36 86.4916 132.12 86.4916 132.12L82.3516 142.11L84.8716 147.51Z" fill="white"/>
<path d="M99.9884 169.83C92.4284 169.83 86.9384 162.27 84.5984 148.32C84.5084 147.96 84.5084 147.78 84.5084 147.69L81.8984 142.11L86.2184 131.76L86.3984 131.67C86.9384 131.4 99.4484 125.91 105.748 132.39C110.338 137.16 113.308 152.64 109.888 162.09C108.268 166.59 105.298 169.29 101.338 169.74C100.888 169.74 100.438 169.83 99.9884 169.83ZM85.3184 147.24C85.4084 147.33 85.4084 147.51 85.4984 148.14C87.9284 162.54 93.3284 169.65 101.248 168.84C104.848 168.39 107.458 166.05 108.988 161.82C112.228 152.82 109.348 137.52 105.028 133.02C99.5384 127.35 88.2884 131.76 86.8484 132.39L82.7984 142.02L85.3184 147.24Z" fill="#060405"/>
<path d="M96.5385 149.043C97.0848 149.022 97.5045 148.401 97.4759 147.656C97.4472 146.911 96.981 146.324 96.4346 146.345C95.8882 146.366 95.4686 146.987 95.4972 147.732C95.5259 148.477 95.9921 149.064 96.5385 149.043Z" fill="#060405"/>
<path d="M105.628 148.956C106.175 148.935 106.594 148.314 106.566 147.569C106.537 146.824 106.071 146.237 105.524 146.258C104.978 146.279 104.558 146.9 104.587 147.645C104.616 148.39 105.082 148.977 105.628 148.956Z" fill="#060405"/>
<path d="M101.069 156.42L100.529 155.7C100.889 155.43 101.249 155.34 101.609 155.34H101.789C102.059 155.34 102.239 155.16 102.329 155.07C102.329 154.89 102.149 154.71 101.969 154.53C100.529 153.09 99.8992 150.84 100.439 148.86L101.339 149.04C100.979 150.75 101.429 152.64 102.689 153.81C102.959 154.17 103.409 154.62 103.319 155.16C103.229 155.7 102.779 156.06 102.059 156.15H101.789C101.429 156.24 101.249 156.33 101.069 156.42ZM99.5392 163.53C99.0892 163.53 98.6392 163.44 98.2792 163.26C97.5592 162.9 96.9292 162.27 96.5692 161.55L97.3792 161.19C97.5592 161.73 98.0092 162.18 98.5492 162.45C99.0892 162.72 99.7192 162.72 100.259 162.45L100.619 163.26C100.259 163.44 99.8992 163.53 99.5392 163.53ZM113.309 136.53C112.769 136.89 112.139 137.16 111.419 137.43C105.929 139.23 91.1692 135.81 90.7192 137.97C90.2692 140.04 89.3692 152.37 88.4692 150.84C86.6692 147.96 86.0392 143.19 85.9492 151.47C86.0392 154.53 85.1392 159.21 85.1392 159.21C77.2192 159.03 69.6592 140.4 77.3992 139.14C77.3992 139.14 75.0592 135.45 76.4992 132.21C77.9392 128.88 88.3792 110.7 108.359 124.65C108.719 124.2 112.319 119.97 113.759 122.94C115.109 125.73 117.359 134.01 113.309 136.53Z" fill="#060405"/>
<path d="M88.9214 257.04C89.2814 257.13 94.5014 258.84 96.2114 255.69C97.9214 252.45 86.9414 254.79 86.9414 254.79" fill="white"/>
<path d="M92.3381 258.03C90.8081 258.03 89.3681 257.58 88.8281 257.49C88.5581 257.4 88.4681 257.13 88.5581 256.95C88.6481 256.68 88.9181 256.59 89.0981 256.68C89.9981 256.95 94.4081 258.21 95.8481 255.51C96.0281 255.06 95.9381 254.97 95.9381 254.88C95.2181 253.98 90.3581 254.52 87.1181 255.24C86.8481 255.33 86.6681 255.15 86.5781 254.88C86.4881 254.61 86.6681 254.43 86.9381 254.34C88.3781 254.07 95.3981 252.63 96.6581 254.34C96.8381 254.61 97.0181 255.15 96.6581 255.87C95.6681 257.58 93.9581 258.03 92.3381 258.03Z" fill="#060405"/>
<path d="M80.3867 288.096L69.3509 273.536L118.483 236.297L129.519 250.857L80.3867 288.096Z" fill="#1AC1C1"/>
<path d="M118.531 236.25L129.601 250.83L133.921 239.94L136.171 234.36L130.231 235.08L118.531 236.25Z" fill="#FFC2C2"/>
<path d="M130.23 235.08L133.92 239.94L136.17 234.36L130.23 235.08Z" fill="#060405"/>
<path d="M77.3008 290.401L66.2649 275.841L69.3491 273.503L80.385 288.063L77.3008 290.401Z" fill="#060405"/>
<path d="M61.021 286.29L65.881 292.68C67.591 294.93 70.831 295.38 73.081 293.67L77.401 290.43L66.421 275.94L62.101 279.18C59.761 280.8 59.311 284.04 61.021 286.29Z" fill="#F81F8B"/>
<path opacity="0.05" d="M77.1602 283.778L126.292 246.539L129.554 250.842L80.422 288.081L77.1602 283.778Z" fill="black"/>
<path opacity="0.1" d="M69.3242 273.54L118.472 236.321L121.732 240.626L72.5842 277.845L69.3242 273.54Z" fill="white"/>
<path d="M86.9408 254.7L65.7008 222.48L72.0908 212.67L56.7008 196.11C56.7008 196.11 40.3208 213.48 40.7708 220.77C41.4908 231.75 78.9308 260.28 78.9308 260.28C78.9308 260.28 82.8008 278.1 94.1408 272.7C105.211 267.48 89.6408 257.49 88.9208 257.04" fill="white"/>
<path d="M86.6719 273.33C81.1819 270.63 78.9319 261.9 78.5719 260.55C75.7819 258.39 41.0419 231.66 40.3219 220.77C39.8719 213.3 55.7119 196.47 56.3419 195.75C56.4319 195.66 56.5219 195.57 56.7019 195.57C56.7919 195.57 56.9719 195.66 57.0619 195.75L72.4519 212.22C72.6319 212.4 72.6319 212.58 72.5419 212.76L66.3319 222.39L87.3019 254.43C87.4819 254.61 87.3919 254.88 87.2119 255.06C87.0319 255.24 86.7619 255.15 86.5819 254.97L65.3419 222.66C65.2519 222.48 65.2519 222.3 65.3419 222.21L71.5519 212.67L56.7019 196.74C54.3619 199.26 40.7719 214.29 41.2219 220.77C41.9419 231.39 78.8419 259.65 79.2019 259.92C79.2919 260.01 79.3819 260.1 79.3819 260.19C79.3819 260.28 81.5419 269.82 87.0319 272.52C89.1019 273.51 91.4419 273.42 93.9619 272.25C96.3019 271.17 97.5619 269.73 97.6519 268.11C97.9219 264.24 91.8919 259.38 88.7419 257.4C88.5619 257.31 88.4719 256.95 88.5619 256.77C88.6519 256.59 89.0119 256.5 89.1919 256.59C90.1819 257.22 98.8219 262.89 98.5519 268.11C98.4619 270.09 97.0219 271.8 94.3219 273.06C91.8019 274.32 89.1919 274.59 86.6719 273.33Z" fill="#060405"/>
<path d="M73.979 177.75C73.979 177.75 65.249 180.81 60.479 185.67C56.699 189.45 50.579 198.09 50.579 198.09C49.049 199.53 68.219 218.7 70.379 216.45C70.379 216.45 79.469 204.57 80.549 197.64C81.809 188.82 73.979 177.75 73.979 177.75Z" fill="#9F28EE"/>
<path d="M69.8386 217.08H69.4786C65.5186 216.45 52.4686 204.12 50.3986 199.8C50.3086 199.62 50.3986 199.35 50.5786 199.17C50.8486 199.08 51.0286 199.17 51.2086 199.35C53.2786 203.76 66.2386 215.55 69.6586 216.09H70.0186C70.1086 216 79.0186 204.3 80.0086 197.55C80.0086 197.28 80.2786 197.1 80.5486 197.19C80.8186 197.19 80.9986 197.46 80.9086 197.73C79.9186 204.66 71.0986 216.18 70.6486 216.72C70.5586 216.9 70.1986 217.08 69.8386 217.08ZM415.979 179.46C407.879 182.07 399.509 180.72 392.849 176.49L396.989 170.91C396.899 170.82 394.919 169.38 395.009 169.47L390.869 175.14C386.639 171.9 383.219 167.31 381.509 161.82C376.919 147.42 384.839 132.03 399.239 127.35C413.639 122.76 429.119 130.68 433.709 145.08C438.389 159.39 430.379 174.87 415.979 179.46Z" fill="#060405"/>
<path d="M379.711 186.75L381.331 188.01L395.641 168.75L394.021 167.49L379.711 186.75Z" fill="#060405"/>
<path d="M413.729 160.11C413.189 160.83 412.559 161.46 411.569 161.91C410.669 162.36 409.589 162.63 408.419 162.72V164.61C408.419 164.88 408.329 165.06 408.239 165.15C408.059 165.33 407.879 165.33 407.609 165.33C407.339 165.33 407.159 165.24 407.069 165.15C406.889 164.97 406.889 164.79 406.889 164.61V162.72C404.999 162.63 403.289 162.18 401.579 161.46C401.399 161.37 401.219 161.19 401.039 161.01C400.859 160.83 400.859 160.56 400.859 160.38C400.859 160.11 400.949 159.84 401.129 159.57C401.309 159.39 401.579 159.21 401.939 159.21C402.119 159.21 402.299 159.21 402.479 159.3C403.919 159.93 405.359 160.29 406.889 160.38V154.35C405.719 154.08 404.729 153.72 403.919 153.36C403.109 153 402.389 152.46 401.849 151.83C401.309 151.2 401.039 150.3 401.039 149.31C401.039 148.41 401.219 147.6 401.669 146.79C402.119 145.98 402.749 145.35 403.649 144.9C404.549 144.36 405.629 144.09 406.799 144V142.2C406.799 141.93 406.889 141.75 406.979 141.66C407.159 141.48 407.339 141.39 407.519 141.39C407.789 141.39 407.969 141.48 408.059 141.66C408.239 141.84 408.329 142.02 408.329 142.2V144C410.039 144.09 411.569 144.36 412.919 144.9C413.369 145.08 413.639 145.44 413.639 145.98C413.639 146.25 413.549 146.52 413.369 146.7C413.189 146.97 412.919 147.06 412.649 147.06C412.559 147.06 412.379 147.06 412.199 146.97C411.029 146.52 409.769 146.34 408.419 146.25V152.46C409.679 152.73 410.759 153.09 411.569 153.45C412.379 153.81 413.099 154.35 413.639 154.98C414.179 155.7 414.449 156.6 414.449 157.68C414.449 158.58 414.269 159.39 413.729 160.11ZM404.279 150.93C404.819 151.38 405.719 151.74 406.889 152.01V146.25C405.809 146.43 404.999 146.7 404.369 147.24C403.739 147.78 403.469 148.41 403.469 149.22C403.379 149.94 403.649 150.48 404.279 150.93ZM412.109 157.5C412.109 156.78 411.839 156.33 411.209 155.88C410.579 155.43 409.679 155.16 408.419 154.8V160.38C410.849 160.29 412.109 159.3 412.109 157.5Z" fill="white"/>
<path d="M121.588 98.7301C127.348 100.62 133.378 99.6301 138.148 96.5701L135.178 92.6101C135.268 92.5201 136.708 91.5301 136.618 91.5301L139.588 95.5801C142.648 93.2401 145.078 90.0001 146.338 86.0401C149.668 75.6901 143.908 64.6201 133.648 61.3801C123.298 58.0501 112.228 63.8101 108.988 74.0701C105.568 84.3301 111.328 95.4001 121.588 98.7301Z" fill="#060405"/>
<path d="M147.782 103.86L146.522 104.85L136.262 91.0801L137.522 90.0901L147.782 103.86Z" fill="#060405"/>
<path d="M123.209 85.2301L119.789 81.8101C119.159 81.1801 119.159 80.1901 119.789 79.5601C120.419 78.9301 121.409 78.9301 122.039 79.5601L124.289 81.8101L133.109 72.9901C133.739 72.3601 134.729 72.3601 135.359 72.9901C135.989 73.6201 135.989 74.6101 135.359 75.2401L125.459 85.1401C124.829 85.8601 123.839 85.8601 123.209 85.2301Z" fill="white"/>
<path d="M470.251 126.99L484.921 77.8501L456.121 96.4801L461.251 104.4L473.221 93.4201L464.581 111.96L470.251 126.99Z" fill="#FFCCCC"/>
<path d="M461.25 104.4L467.82 105.03L473.22 93.4199L461.25 104.4Z" fill="#060405"/>
<path d="M431.909 231.48H395.819C395.639 231.48 395.459 231.3 395.459 231.12C395.459 230.94 395.639 230.76 395.819 230.76H431.909C432.089 230.76 432.269 230.94 432.269 231.12C432.269 231.3 432.089 231.48 431.909 231.48ZM431.909 249.3H395.819C395.639 249.3 395.459 249.12 395.459 248.94C395.459 248.76 395.639 248.58 395.819 248.58H431.909C432.089 248.58 432.269 248.76 432.269 248.94C432.269 249.12 432.089 249.3 431.909 249.3ZM425.339 240.39H374.309C374.129 240.39 373.949 240.21 373.949 240.03C373.949 239.85 374.129 239.67 374.309 239.67H425.339C425.519 239.67 425.699 239.85 425.699 240.03C425.699 240.21 425.519 240.39 425.339 240.39Z" fill="#25E498"/>
<path d="M403.289 231.48C403.109 231.48 402.929 231.3 402.929 231.12V223.56C402.929 223.38 403.109 223.2 403.289 223.2C403.469 223.2 403.649 223.38 403.649 223.56V231.12C403.559 231.3 403.469 231.48 403.289 231.48ZM415.979 240.39C415.799 240.39 415.619 240.21 415.619 240.03V231.12C415.619 230.94 415.799 230.76 415.979 230.76C416.159 230.76 416.339 230.94 416.339 231.12V240.03C416.249 240.21 416.159 240.39 415.979 240.39ZM406.259 249.03C406.079 249.03 405.899 248.85 405.899 248.67V240.03C405.899 239.85 406.079 239.67 406.259 239.67C406.439 239.67 406.619 239.85 406.619 240.03V248.67C406.619 248.85 406.439 249.03 406.259 249.03ZM416.519 83.8799H380.429C380.249 83.8799 380.069 83.6999 380.069 83.5199C380.069 83.3399 380.249 83.1599 380.429 83.1599H416.519C416.699 83.1599 416.879 83.3399 416.879 83.5199C416.879 83.6999 416.699 83.8799 416.519 83.8799ZM416.519 101.79H380.429C380.249 101.79 380.069 101.61 380.069 101.43C380.069 101.25 380.249 101.07 380.429 101.07H416.519C416.699 101.07 416.879 101.25 416.879 101.43C416.879 101.61 416.699 101.79 416.519 101.79ZM409.949 92.8799H358.919C358.739 92.8799 358.559 92.6999 358.559 92.5199C358.559 92.3399 358.739 92.1599 358.919 92.1599H409.949C410.129 92.1599 410.309 92.3399 410.309 92.5199C410.309 92.6999 410.129 92.8799 409.949 92.8799Z" fill="#25E498"/>
<path d="M387.899 83.8801C387.719 83.8801 387.539 83.7001 387.539 83.5201V75.9601C387.539 75.7801 387.719 75.6001 387.899 75.6001C388.079 75.6001 388.259 75.7801 388.259 75.9601V83.5201C388.169 83.7901 388.079 83.8801 387.899 83.8801ZM400.589 92.8801C400.409 92.8801 400.229 92.7001 400.229 92.5201V83.6101C400.229 83.4301 400.409 83.2501 400.589 83.2501C400.769 83.2501 400.949 83.4301 400.949 83.6101V92.5201C400.859 92.7001 400.769 92.8801 400.589 92.8801ZM390.869 101.52C390.689 101.52 390.509 101.34 390.509 101.16V92.5201C390.509 92.3401 390.689 92.1601 390.869 92.1601C391.049 92.1601 391.229 92.3401 391.229 92.5201V101.16C391.229 101.34 391.049 101.52 390.869 101.52Z" fill="#25E498"/>
<rect width="83" height="29.7" transform="translate(228.051 122.4)" fill="#1AC1C1"/>
<path d="M239.189 144.25V131.159H241.956V136.56H247.575V131.159H250.336V144.25H247.575V138.842H241.956V144.25H239.189ZM255.386 131.159V144.25H252.618V131.159H255.386ZM257.663 144.25V131.159H262.828C263.817 131.159 264.66 131.336 265.359 131.69C266.062 132.039 266.597 132.536 266.964 133.179C267.334 133.818 267.52 134.57 267.52 135.435C267.52 136.305 267.332 137.053 266.957 137.679C266.582 138.301 266.039 138.778 265.327 139.111C264.62 139.443 263.763 139.609 262.758 139.609H259.3V137.385H262.31C262.839 137.385 263.278 137.312 263.627 137.168C263.976 137.023 264.236 136.805 264.407 136.516C264.581 136.226 264.669 135.866 264.669 135.435C264.669 135.001 264.581 134.634 264.407 134.336C264.236 134.038 263.974 133.812 263.621 133.658C263.271 133.501 262.83 133.422 262.297 133.422H260.431V144.25H257.663ZM264.733 138.293L267.986 144.25H264.931L261.748 138.293H264.733ZM272.243 131.159V144.25H269.476V131.159H272.243ZM285.47 131.159V144.25H283.08L277.384 136.011H277.288V144.25H274.521V131.159H276.95L282.6 139.392H282.715V131.159H285.47ZM296.437 135.391C296.348 135.08 296.222 134.805 296.06 134.566C295.898 134.323 295.7 134.119 295.466 133.952C295.236 133.782 294.971 133.652 294.673 133.562C294.379 133.473 294.053 133.428 293.695 133.428C293.026 133.428 292.438 133.594 291.931 133.927C291.428 134.259 291.036 134.743 290.755 135.378C290.474 136.009 290.333 136.78 290.333 137.692C290.333 138.604 290.471 139.379 290.748 140.018C291.025 140.658 291.417 141.146 291.925 141.482C292.432 141.815 293.03 141.981 293.721 141.981C294.347 141.981 294.882 141.87 295.325 141.648C295.773 141.423 296.113 141.105 296.348 140.696C296.586 140.287 296.706 139.803 296.706 139.245L297.268 139.328H293.893V137.244H299.371V138.893C299.371 140.044 299.128 141.033 298.643 141.859C298.157 142.682 297.488 143.317 296.635 143.764C295.783 144.207 294.807 144.429 293.708 144.429C292.481 144.429 291.403 144.158 290.474 143.617C289.545 143.072 288.82 142.298 288.3 141.297C287.785 140.291 287.527 139.098 287.527 137.717C287.527 136.656 287.68 135.71 287.987 134.879C288.298 134.044 288.733 133.337 289.291 132.757C289.849 132.178 290.499 131.737 291.241 131.434C291.982 131.131 292.785 130.98 293.65 130.98C294.392 130.98 295.082 131.089 295.721 131.306C296.361 131.519 296.927 131.822 297.422 132.214C297.92 132.606 298.327 133.072 298.643 133.614C298.958 134.151 299.16 134.743 299.25 135.391H296.437Z" fill="white"/>
</svg>
