<svg width="540" height="450" viewBox="0 0 540 450" fill="none" xmlns="http://www.w3.org/2000/svg">
<path opacity="0.3" d="M461.878 394.65C478.618 394.65 492.478 380.52 492.478 362.97V362.61C492.388 346.05 486.628 330.21 480.418 315C474.208 299.79 467.368 284.58 465.028 268.2C460.618 237.33 472.498 206.82 480.688 176.76C488.878 146.7 492.748 111.6 474.838 86.67C461.608 68.13 438.838 59.31 416.788 58.59C394.738 57.78 373.138 64.08 351.988 70.74C330.928 77.4 309.598 84.6 287.548 85.68C252.538 87.39 218.698 73.8 184.138 67.68C149.578 61.56 109.348 65.16 86.8483 93.33C72.0883 111.78 68.0383 137.07 67.7683 161.1C67.4983 185.13 92.6983 223.38 89.5483 247.14C85.5883 277.2 49.9483 290.88 43.1083 320.4C39.5983 335.52 38.1583 352.08 40.4083 367.56C42.7483 383.22 55.5283 394.83 70.6483 394.83H461.878V394.65Z" fill="#86E9DC"/>
<path d="M336.512 345.51H304.202C304.022 345.51 303.842 345.33 303.842 345.15C303.842 344.97 304.022 344.79 304.202 344.79H336.512C336.692 344.79 336.872 344.97 336.872 345.15C336.872 345.33 336.692 345.51 336.512 345.51ZM336.512 361.53H304.202C304.022 361.53 303.842 361.35 303.842 361.17C303.842 360.99 304.022 360.81 304.202 360.81H336.512C336.692 360.81 336.872 360.99 336.872 361.17C336.872 361.35 336.692 361.53 336.512 361.53ZM330.662 353.52H285.032C284.852 353.52 284.672 353.34 284.672 353.16C284.672 352.98 284.852 352.8 285.032 352.8H330.662C330.842 352.8 331.022 352.98 331.022 353.16C331.022 353.34 330.842 353.52 330.662 353.52Z" fill="#25E498"/>
<path d="M310.861 345.51C310.681 345.51 310.501 345.33 310.501 345.15V338.4C310.501 338.22 310.681 338.04 310.861 338.04C311.041 338.04 311.221 338.22 311.221 338.4V345.24C311.221 345.33 311.041 345.51 310.861 345.51ZM322.201 353.52C322.021 353.52 321.841 353.34 321.841 353.16V345.15C321.841 344.97 322.021 344.79 322.201 344.79C322.381 344.79 322.561 344.97 322.561 345.15V353.16C322.561 353.34 322.381 353.52 322.201 353.52ZM313.561 361.26C313.381 361.26 313.201 361.08 313.201 360.9V353.16C313.201 352.98 313.381 352.8 313.561 352.8C313.741 352.8 313.921 352.98 313.921 353.16V360.9C313.921 361.08 313.741 361.26 313.561 361.26ZM166.231 135.63H133.921C133.741 135.63 133.561 135.45 133.561 135.27C133.561 135.09 133.741 134.91 133.921 134.91H166.231C166.411 134.91 166.591 135.09 166.591 135.27C166.591 135.45 166.411 135.63 166.231 135.63ZM166.231 151.65H133.921C133.741 151.65 133.561 151.47 133.561 151.29C133.561 151.11 133.741 150.93 133.921 150.93H166.231C166.411 150.93 166.591 151.11 166.591 151.29C166.591 151.47 166.411 151.65 166.231 151.65ZM160.381 143.64H114.751C114.571 143.64 114.391 143.46 114.391 143.28C114.391 143.1 114.571 142.92 114.751 142.92H160.381C160.561 142.92 160.741 143.1 160.741 143.28C160.741 143.46 160.561 143.64 160.381 143.64Z" fill="#25E498"/>
<path d="M140.669 135.63C140.489 135.63 140.309 135.45 140.309 135.27V128.43C140.309 128.25 140.489 128.07 140.669 128.07C140.849 128.07 141.029 128.25 141.029 128.43V135.27C140.939 135.45 140.849 135.63 140.669 135.63ZM152.009 143.64C151.829 143.64 151.649 143.46 151.649 143.28V135.27C151.649 135.09 151.829 134.91 152.009 134.91C152.189 134.91 152.369 135.09 152.369 135.27V143.28C152.279 143.46 152.189 143.64 152.009 143.64ZM143.369 151.38C143.189 151.38 143.009 151.2 143.009 151.02V143.28C143.009 143.1 143.189 142.92 143.369 142.92C143.549 142.92 143.729 143.1 143.729 143.28V151.02C143.639 151.2 143.549 151.38 143.369 151.38ZM414.539 81H382.229C382.049 81 381.869 80.82 381.869 80.64C381.869 80.46 382.049 80.28 382.229 80.28H414.539C414.719 80.28 414.899 80.46 414.899 80.64C414.899 80.82 414.719 81 414.539 81ZM414.539 96.93H382.229C382.049 96.93 381.869 96.75 381.869 96.57C381.869 96.39 382.049 96.21 382.229 96.21H414.539C414.719 96.21 414.899 96.39 414.899 96.57C414.899 96.75 414.719 96.93 414.539 96.93ZM408.689 89.01H363.059C362.879 89.01 362.699 88.83 362.699 88.65C362.699 88.47 362.879 88.29 363.059 88.29H408.689C408.869 88.29 409.049 88.47 409.049 88.65C409.049 88.83 408.869 89.01 408.689 89.01Z" fill="#25E498"/>
<path d="M388.891 80.9999C388.711 80.9999 388.531 80.8199 388.531 80.6399V73.7999C388.531 73.6199 388.711 73.4399 388.891 73.4399C389.071 73.4399 389.251 73.6199 389.251 73.7999V80.6399C389.251 80.8199 389.071 80.9999 388.891 80.9999ZM400.231 89.0099C400.051 89.0099 399.871 88.8299 399.871 88.6499V80.6399C399.871 80.4599 400.051 80.2799 400.231 80.2799C400.411 80.2799 400.591 80.4599 400.591 80.6399V88.6499C400.591 88.8299 400.411 89.0099 400.231 89.0099ZM391.591 96.7499C391.411 96.7499 391.231 96.5699 391.231 96.3899V88.6499C391.231 88.4699 391.411 88.2899 391.591 88.2899C391.771 88.2899 391.951 88.4699 391.951 88.6499V96.3899C391.951 96.5699 391.771 96.7499 391.591 96.7499Z" fill="#25E498"/>
<path d="M342.99 90.72V206.01C342.99 212.85 337.5 218.34 330.66 218.34H167.76C160.92 218.34 155.43 212.85 155.43 206.01V90.72H342.99Z" fill="white"/>
<path d="M149.039 88.9199H349.379V92.5199H149.039V88.9199Z" fill="#060405"/>
<path d="M247.859 67.5901H250.559V90.7201H247.859V67.5901Z" fill="#060405"/>
<path d="M249.211 68.94C245.431 68.94 242.371 65.88 242.371 62.1C242.371 58.32 245.431 55.26 249.211 55.26C252.991 55.26 256.051 58.32 256.051 62.1C256.051 65.88 252.991 68.94 249.211 68.94ZM249.211 58.05C246.961 58.05 245.071 59.85 245.071 62.19C245.071 64.53 246.871 66.33 249.211 66.33C251.551 66.33 253.351 64.53 253.351 62.19C253.351 59.85 251.461 58.05 249.211 58.05Z" fill="#060405"/>
<path d="M247.43 393.176L269.405 295.169L270.283 295.366L248.308 393.372L247.43 393.176Z" fill="#060405"/>
<path d="M306.898 295.424L307.777 295.227L329.784 393.226L328.906 393.423L306.898 295.424Z" fill="#060405"/>
<path d="M265.68 313.2H311.49V314.1H265.68V313.2Z" fill="#060405"/>
<path d="M409.195 393.178L426.783 295.204L427.669 295.363L410.081 393.337L409.195 393.178Z" fill="#060405"/>
<path d="M449.227 295.337L450.112 295.179L467.681 393.156L466.795 393.315L449.227 295.337Z" fill="#060405"/>
<path d="M417.961 312.75H463.771V314.55H417.961V312.75Z" fill="#060405"/>
<path d="M242.191 291.24H315.541V297.81H242.191V291.24Z" fill="white"/>
<path d="M315.988 298.26H241.738V290.79H315.988V298.26ZM242.638 297.36H315.088V291.69H242.638V297.36Z" fill="#060405"/>
<path d="M315.539 291.24H467.459V297.81H315.539V291.24Z" fill="#060405"/>
<path d="M467.91 298.26H315.09V290.79H467.91V298.26ZM315.99 297.36H467.01V291.69H315.99V297.36Z" fill="#060405"/>
<path d="M390.689 382.05V379.44H405.359C405.539 384.12 405.899 393.3 406.079 393.3H382.229C381.329 385.47 390.689 382.05 390.689 382.05Z" fill="#F81F8B"/>
<path d="M382.501 389.88C382.231 390.87 382.051 392.04 382.141 393.3H405.991C405.991 393.3 405.901 391.86 405.721 389.88H382.501Z" fill="#060405"/>
<path d="M410.94 393.66H371.97C368.64 393.66 366.3 390.42 367.38 387.27L381.51 343.89H430.74L415.62 390.33C414.9 392.31 413.01 393.66 410.94 393.66ZM382.14 344.79L368.19 387.54C367.38 390.06 369.27 392.76 371.97 392.76H410.94C412.65 392.76 414.18 391.68 414.72 390.06L429.48 344.79H382.14Z" fill="#060405"/>
<path d="M473.851 393.66H434.881C432.811 393.66 430.921 392.31 430.291 390.33L415.171 343.89H464.401L478.531 387.27C479.521 390.42 477.181 393.66 473.851 393.66ZM416.431 344.79L431.191 390.06C431.731 391.68 433.261 392.76 434.971 392.76H473.941C476.641 392.76 478.531 390.15 477.721 387.54L463.771 344.79H416.431ZM406.081 329.94C406.081 329.94 406.531 379.8 406.531 380.16C406.531 382.14 389.611 382.14 389.611 380.16L377.191 329.22L406.081 329.94Z" fill="#060405"/>
<path d="M346.862 382.05V379.44H361.532C361.712 384.12 362.072 393.3 362.252 393.3H338.402C337.592 385.47 346.862 382.05 346.862 382.05Z" fill="#F81F8B"/>
<path d="M338.669 389.88C338.399 390.87 338.219 392.04 338.309 393.3H362.159C362.159 393.3 362.069 391.86 361.889 389.88H338.669ZM437.849 304.2H400.679C400.679 304.2 364.049 308.7 354.509 315.81C343.259 324.27 344.069 381.42 344.069 381.42L363.329 381.15L371.339 338.76H415.709C425.069 338.58 436.859 332.82 439.199 323.73L437.849 304.2Z" fill="#060405"/>
<path d="M418.861 228.78C417.421 224.46 416.071 212.22 415.171 210.69C414.091 208.89 409.141 212.85 406.081 207.9C403.021 202.95 407.881 172.71 413.371 171.72C418.861 170.64 434.971 178.29 434.971 178.65C434.971 178.92 431.731 209.97 435.421 219.87L418.861 228.78Z" fill="white"/>
<path d="M418.411 228.87C417.691 226.62 416.971 222.39 416.341 218.61C415.801 215.19 415.171 211.59 414.721 210.96C414.451 210.51 413.731 210.6 412.561 210.78C410.581 211.05 407.701 211.5 405.631 208.17C403.021 203.94 405.811 184.05 409.501 175.68C410.671 172.98 411.931 171.54 413.191 171.27C418.771 170.19 434.341 177.48 435.151 178.2C435.241 178.29 435.331 178.47 435.331 178.56V178.92C434.611 186.3 432.631 211.05 435.781 219.6C435.871 219.78 435.781 220.05 435.601 220.14L419.131 229.14C418.771 229.23 418.501 229.14 418.411 228.87ZM415.531 210.42C415.981 211.14 416.521 213.93 417.241 218.43C417.781 221.85 418.501 225.81 419.131 228.06L434.791 219.51C431.731 210.51 433.711 186.12 434.431 178.83V178.74C432.631 177.66 418.411 171.09 413.371 172.08C412.471 172.26 411.391 173.61 410.311 175.95C406.441 184.68 404.101 203.85 406.351 207.63C408.061 210.42 410.491 210.15 412.381 209.88C413.641 209.7 414.901 209.52 415.531 210.42Z" fill="#060405"/>
<path d="M433.802 210.6C433.802 210.6 428.582 214.2 422.822 205.92C417.152 197.64 425.612 177.12 423.092 177.84C420.572 178.56 406.082 180.36 405.092 177.03C404.102 173.7 407.432 172.44 407.432 172.44C407.432 172.44 399.512 166.59 408.422 161.28C417.332 155.97 441.542 164.88 443.162 174.51C444.692 184.23 433.532 206.82 433.802 210.6Z" fill="#060405"/>
<path d="M412.742 186.57C412.472 187.47 411.752 188.01 411.122 187.83C410.492 187.65 410.132 186.75 410.402 185.94C410.672 185.04 411.392 184.5 412.022 184.68C412.652 184.86 412.922 185.76 412.742 186.57ZM408.512 200.97L408.962 200.16C410.132 200.79 411.572 200.88 412.742 200.34L413.102 201.15C411.572 201.78 409.862 201.69 408.512 200.97Z" fill="#060405"/>
<path d="M451.711 221.04C448.381 216.72 443.881 215.19 437.131 216.18C417.871 219.06 403.291 234.9 401.311 254.25C399.241 274.23 402.481 299.61 404.101 304.2C404.551 305.55 453.241 317.97 458.821 309.33C462.691 303.12 456.841 227.61 451.711 221.04Z" fill="#F81F8B"/>
<path d="M374.67 338.67C374.49 343.62 378.36 347.67 383.31 347.67H461.61C469.8 347.67 477.09 342.27 479.52 334.44L499.86 264.87C501.3 260.19 497.79 255.51 492.93 255.51H467.46C456.03 255.51 446.31 263.61 444.15 274.86L435.24 321.93C433.53 331.11 425.52 337.86 416.16 338.04L374.67 338.67Z" fill="white"/>
<path d="M461.611 348.12H383.311C378.181 348.12 374.04 343.8 374.22 338.67V338.22L416.161 337.59C425.251 337.41 433.171 330.84 434.791 321.84L443.701 274.77C445.861 263.34 455.851 255.06 467.461 255.06H492.931C495.361 255.06 497.61 256.23 499.14 258.21C500.58 260.19 501.031 262.71 500.311 265.05L479.971 334.62C477.451 342.72 470.071 348.12 461.611 348.12ZM375.12 339.12C375.12 343.53 378.811 347.22 383.311 347.22H461.611C469.711 347.22 476.731 342 479.071 334.26L499.411 264.69C500.041 262.62 499.681 260.46 498.331 258.66C497.071 256.95 495.09 255.96 492.84 255.96H467.371C456.211 255.96 446.581 263.97 444.511 274.95L435.601 322.02C433.801 331.38 425.611 338.31 416.07 338.49L375.12 339.12Z" fill="#060405"/>
<path d="M328.05 284.67H265.41C263.79 284.67 262.26 283.68 261.63 282.15L246.96 245.97C245.97 243.54 247.77 240.93 250.29 240.93H310.86C312.3 240.93 313.65 241.83 314.28 243.18L329.94 281.79C330.57 283.14 329.49 284.67 328.05 284.67Z" fill="white"/>
<path d="M250.52 246.135L251.354 245.798L264.119 277.332L263.285 277.67L250.52 246.135Z" fill="#060405"/>
<path d="M269.189 280.71L254.699 244.89H311.039L325.529 280.71H269.189Z" fill="#FFCCCC"/>
<path d="M366.12 290.97H307.8C306.81 290.97 305.91 290.16 305.91 289.08V286.56C305.91 285.57 306.72 284.67 307.8 284.67H366.12C367.11 284.67 368.01 285.48 368.01 286.56V289.08C368.01 290.16 367.2 290.97 366.12 290.97Z" fill="white"/>
<path d="M348.389 284.67C348.389 285.3 348.119 285.75 347.759 286.2C347.399 286.56 346.859 286.83 346.229 286.83H335.699C334.529 286.83 333.539 285.84 333.539 284.67H348.389Z" fill="#FFCCCC"/>
<path d="M366.121 291.42H307.801C306.541 291.42 305.461 290.34 305.461 289.08V286.56C305.461 285.3 306.541 284.22 307.801 284.22H366.121C367.381 284.22 368.461 285.3 368.461 286.56V289.08C368.461 290.34 367.381 291.42 366.121 291.42ZM307.801 285.12C306.991 285.12 306.361 285.75 306.361 286.56V289.08C306.361 289.89 306.991 290.52 307.801 290.52H366.121C366.931 290.52 367.561 289.89 367.561 289.08V286.56C367.561 285.75 366.931 285.12 366.121 285.12H307.801Z" fill="#060405"/>
<path d="M310.141 290.97H264.601C263.611 290.97 262.711 290.16 262.711 289.08V286.56C262.711 285.57 263.521 284.67 264.601 284.67H310.231C311.221 284.67 312.121 285.48 312.121 286.56V289.08C312.031 290.16 311.221 290.97 310.141 290.97Z" fill="#FFC2C2"/>
<path d="M328.049 285.12H265.409C263.519 285.12 261.899 284.04 261.179 282.33L246.599 246.06C246.059 244.8 246.239 243.36 246.959 242.19C247.679 241.02 249.029 240.39 250.379 240.39H310.949C312.659 240.39 314.099 241.38 314.729 242.91L330.389 281.52C330.749 282.33 330.659 283.14 330.119 283.86C329.669 284.67 328.859 285.12 328.049 285.12ZM250.379 241.38C249.299 241.38 248.309 241.92 247.769 242.82C247.139 243.72 247.049 244.8 247.499 245.79L262.169 281.97C262.709 283.32 264.059 284.22 265.499 284.22H328.139C328.679 284.22 329.219 283.95 329.489 283.5C329.759 283.05 329.849 282.51 329.669 281.97L314.009 243.36C313.469 242.19 312.389 241.38 311.039 241.38H250.379Z" fill="#060405"/>
<path d="M310.142 291.42H264.602C263.342 291.42 262.262 290.34 262.262 289.08V286.56C262.262 285.3 263.342 284.22 264.602 284.22H310.232C311.492 284.22 312.572 285.3 312.572 286.56V289.08C312.482 290.34 311.492 291.42 310.142 291.42ZM264.602 285.12C263.792 285.12 263.162 285.75 263.162 286.56V289.08C263.162 289.89 263.792 290.52 264.602 290.52H310.232C311.042 290.52 311.672 289.89 311.672 289.08V286.56C311.672 285.75 311.042 285.12 310.232 285.12H264.602Z" fill="#060405"/>
<path d="M411.839 269.19L400.139 284.85C396.809 288.72 392.039 290.97 386.909 290.97H330.929C326.969 278.28 342.539 280.44 343.259 280.71C343.079 280.62 341.459 279.72 341.099 276.93C340.649 273.96 349.649 279.81 349.649 279.81L383.849 270.54L397.709 251.19L411.839 269.19Z" fill="white"/>
<path d="M386.908 291.42H330.658L330.568 291.06C329.398 287.28 329.758 284.4 331.738 282.51C334.438 279.81 339.478 279.81 341.998 280.08C341.458 279.45 341.008 278.46 340.738 277.02C340.648 276.3 341.008 276.03 341.188 275.85C342.718 274.86 347.938 278.1 349.828 279.27L383.668 270.09L397.798 250.38L412.468 269.19L400.498 285.12C397.078 289.08 392.218 291.42 386.908 291.42ZM331.288 290.52H386.908C391.858 290.52 396.538 288.36 399.778 284.58L411.208 269.28L397.708 252L384.208 270.9L349.648 280.26L349.468 280.17C346.228 278.1 342.358 276.12 341.638 276.57C341.548 276.57 341.638 276.84 341.638 276.84C341.998 279.36 343.438 280.26 343.528 280.26L343.168 281.07C342.538 280.89 335.428 279.99 332.278 283.14C330.748 284.76 330.388 287.28 331.288 290.52Z" fill="#060405"/>
<path d="M431.102 249.75C427.412 254.79 419.222 263.97 411.482 272.43C410.042 273.51 393.752 252.18 395.192 251.1C401.402 241.56 410.222 230.22 414.452 227.34C424.172 220.68 437.852 240.48 431.102 249.75Z" fill="#F81F8B"/>
<path d="M72.5396 381.87L87.8396 293.04L100.8 381.87H112.59L117 264.33H59.0396C57.0596 268.65 59.0396 364.23 60.8396 382.05L72.5396 381.87Z" fill="#060405"/>
<path d="M73.0808 383.94V381.87H60.8408C60.6608 385.83 60.3908 393.3 60.3008 393.3H80.2808C80.9108 386.73 73.0808 383.94 73.0808 383.94Z" fill="#FE6021"/>
<path d="M79.9208 390.42C80.1908 391.32 80.2808 392.22 80.1908 393.3H60.3008C60.3008 393.3 60.3908 392.13 60.4808 390.42H79.9208Z" fill="#060405"/>
<path d="M113.132 383.94V381.87H100.802C100.622 385.83 100.352 393.3 100.262 393.3H120.242C120.872 386.73 113.132 383.94 113.132 383.94Z" fill="#FE6021"/>
<path d="M119.972 390.42C120.242 391.32 120.332 392.22 120.242 393.3H100.262C100.262 393.3 100.352 392.13 100.442 390.42H119.972Z" fill="#060405"/>
<path d="M121.049 208.35C122.039 209.07 133.019 238.95 123.119 243C114.479 246.6 106.559 217.35 106.559 217.35L114.659 207.81L121.049 208.35Z" fill="white"/>
<path d="M119.52 243.18C112.23 239.58 106.38 218.34 106.11 217.44L106.02 217.17L114.39 207.27L121.14 207.9L121.23 207.99C122.22 208.71 128.61 226.17 127.44 236.34C126.99 240.12 125.55 242.46 123.21 243.45C122.04 243.9 120.78 243.81 119.52 243.18ZM107.1 217.44C107.73 219.78 113.4 239.13 119.97 242.37C121.05 242.91 122.04 242.91 123.03 242.55C124.74 241.83 125.82 240.3 126.36 237.87C128.52 228.6 121.86 210.42 120.87 208.71L114.93 208.17L107.1 217.44Z" fill="#060405"/>
<path d="M111.059 187.56C111.959 188.01 122.219 199.98 123.299 209.79C124.019 211.77 106.199 218.34 105.479 216.45L101.789 203.4L111.059 187.56Z" fill="#FE6021"/>
<path d="M56.43 270.72C54.27 255.24 50.13 198.63 58.95 184.32C63.18 180 72.63 176.4 77.67 175.68C82.98 174.96 94.23 177.03 98.28 178.74C103.41 180.81 111.78 186.3 113.31 191.52C115.83 200.25 118.98 261.36 118.98 269.37C100.71 276.03 79.65 276.03 56.43 270.72Z" fill="#FE6021"/>
<path d="M109.53 231.12L99.4495 229.5C98.1895 229.32 97.4695 227.88 98.0095 226.71L108.99 208.17C109.35 207.45 110.16 207 111.06 207.18L121.14 208.8C122.4 208.98 123.12 210.42 122.58 211.59L111.6 230.13C111.24 230.85 110.43 231.3 109.53 231.12Z" fill="#060405"/>
<path d="M92.0711 234.72C92.0711 234.72 46.5311 249.48 40.7711 237.15C37.8911 230.85 45.1811 212.4 45.1811 212.4L63.0011 214.29L61.6511 220.77L93.6011 225.54C93.6011 225.54 97.8311 218.88 98.9111 219.33C99.9911 219.78 99.0011 222.48 99.0011 222.48C99.0011 222.48 108.091 216.63 108.361 224.28C108.541 231.93 100.531 232.74 92.0711 234.72Z" fill="white"/>
<path d="M54.0017 242.55C47.4317 242.55 42.0317 241.2 40.3217 237.42C37.3517 231.03 44.4617 213.12 44.7317 212.4L44.8217 212.04L63.4517 214.02L62.1017 220.5L93.2416 225.18C95.2216 222.12 97.7417 218.61 98.9117 218.97C99.1817 219.06 99.4516 219.24 99.5416 219.6C99.8116 220.14 99.7216 220.95 99.5416 221.67C101.162 220.77 104.492 219.33 106.652 220.41C107.822 221.04 108.542 222.39 108.542 224.37C108.812 232.47 99.9916 233.37 91.9816 235.17C90.6316 235.62 69.0317 242.55 54.0017 242.55ZM45.4517 212.94C44.5517 215.37 38.5217 231.39 41.1317 236.97C46.6217 248.76 91.4417 234.36 91.8917 234.27C99.9916 232.47 108.002 231.66 107.732 224.37C107.642 222.75 107.192 221.67 106.292 221.22C104.222 220.14 100.352 222.12 99.0916 222.93L97.9217 223.65L98.3717 222.39C98.6417 221.67 98.9116 220.41 98.7316 219.96C98.7316 219.87 98.6417 219.87 98.6417 219.87C98.0117 219.96 95.6717 223.11 93.8717 225.9L93.6917 226.17L61.0217 221.22L62.3717 214.74L45.4517 212.94Z" fill="#060405"/>
<path d="M60.2994 182.97C60.2994 182.97 67.7694 185.94 67.6794 196.29C67.5894 207 64.3494 217.71 64.3494 217.71C63.1794 219.6 42.0294 216.09 42.2994 214.2C42.3894 214.02 47.7894 191.61 60.2994 182.97Z" fill="#FE6021"/>
<path d="M61.4695 218.79C56.3395 218.79 46.7095 216.99 43.6495 215.82C42.7495 215.46 41.7595 215.01 41.8495 214.29L42.7495 214.47V214.38C43.1995 215.19 50.1295 216.9 57.2395 217.71C61.9195 218.25 63.6295 217.98 63.9895 217.71C64.2595 216.63 67.2295 206.46 67.3195 196.47H68.2195C68.0395 207 64.7995 217.8 64.7995 217.89L64.7095 217.98C64.4395 218.52 63.1795 218.79 61.4695 218.79Z" fill="#060405"/>
<path d="M121.139 244.08C114.659 244.17 114.209 235.08 113.939 231.21C112.589 227.97 114.839 226.26 114.839 226.26C114.839 226.26 113.489 220.41 115.289 218.43C117.179 216.45 120.599 218.52 122.399 221.67C123.029 222.75 121.679 225.72 121.499 228.15C122.939 229.41 126.539 230.4 127.439 233.37C129.599 240.03 124.199 244.08 121.139 244.08Z" fill="white"/>
<path d="M121.051 244.53C114.481 244.53 113.851 235.8 113.581 231.57V231.3C112.411 228.51 113.851 226.71 114.481 226.08C114.211 224.91 113.311 220.05 115.111 218.07C117.361 215.73 121.231 218.34 122.941 221.4C123.391 222.21 123.121 223.56 122.671 225.18C122.491 226.08 122.221 227.07 122.131 227.97C122.581 228.33 123.121 228.6 123.661 228.96C125.281 229.86 127.351 231.03 127.981 233.28C129.151 236.97 127.981 239.67 126.811 241.29C125.371 243.27 123.031 244.62 121.141 244.62C121.141 244.53 121.051 244.53 121.051 244.53ZM115.651 218.7C114.301 220.14 114.931 224.55 115.291 226.08L115.381 226.35L115.111 226.53C115.021 226.62 113.131 228.06 114.301 230.94V231.48C114.571 235.44 115.111 243.63 120.961 243.54C122.311 243.54 124.471 242.55 125.911 240.57C126.901 239.13 127.981 236.79 126.901 233.37C126.361 231.48 124.561 230.49 122.941 229.59C122.221 229.23 121.591 228.78 121.051 228.33L120.871 228.15V227.97C120.961 226.98 121.231 225.81 121.411 224.82C121.681 223.56 122.041 222.21 121.771 221.67C120.691 219.42 117.451 216.9 115.651 218.7Z" fill="#060405"/>
<path d="M112.305 214.968L114.026 201.306L114.919 201.419L113.198 215.081L112.305 214.968Z" fill="#060405"/>
<path d="M109.978 137.7C109.798 138.15 117.988 183.15 110.518 181.8C102.418 180.27 88.0184 175.14 87.8384 172.98C87.6584 170.73 97.4684 142.38 97.4684 142.38L102.598 134.28L109.978 137.7Z" fill="#060405"/>
<path d="M96.2089 165.6C96.2089 165.6 92.6989 173.43 93.5089 174.87C94.3189 176.22 107.819 188.28 99.8989 190.26C91.9789 192.24 79.3789 175.23 79.3789 175.23C79.3789 175.23 85.1389 163.08 86.3989 159.57C87.6589 156.06 96.2089 165.6 96.2089 165.6Z" fill="white"/>
<path d="M78.93 175.41L78.75 175.23L78.84 174.96C78.93 174.87 84.69 162.81 85.86 159.39C86.13 158.67 86.58 158.4 86.94 158.31C89.46 157.77 94.95 163.62 96.66 165.51C96.66 165.6 93.15 173.43 93.78 174.6C93.87 174.78 94.59 175.5 95.22 176.22C98.1 179.28 103.59 185.04 102.51 188.46C102.15 189.54 101.25 190.26 99.81 190.62C93.06 192.24 83.07 180.99 78.93 175.41ZM79.83 175.05C81.27 177.03 92.61 191.43 99.72 189.72C100.89 189.45 101.61 188.91 101.79 188.19C102.6 185.31 97.29 179.64 94.68 176.85C93.69 175.86 93.24 175.32 93.06 175.05C92.25 173.7 94.68 167.85 95.67 165.69C93.15 162.9 88.74 158.85 87.21 159.21C87.03 159.21 86.85 159.3 86.76 159.66C85.59 162.9 80.64 173.25 79.83 175.05Z" fill="#060405"/>
<path d="M99.7188 169.29C92.6987 173.97 81.7188 162.36 81.7188 162.36L83.2487 134.73L92.9688 127.71C92.9688 127.71 103.859 132.12 106.289 139.05C108.629 146.07 104.309 166.23 99.7188 169.29Z" fill="white"/>
<path d="M95.9394 170.91C89.2794 170.91 81.8094 163.08 81.4494 162.72L81.3594 162.54L82.8894 134.55L92.9694 127.26L93.2394 127.35C93.6894 127.53 104.399 131.94 106.829 138.96C109.259 146.07 104.849 166.5 100.169 169.65C98.7294 170.55 97.3794 170.91 95.9394 170.91ZM82.1694 162.18C83.4294 163.44 93.2394 173.07 99.4494 168.93C103.859 165.96 108.089 146.07 105.749 139.32C103.679 133.2 94.4994 128.97 92.9694 128.34L83.6994 135L82.1694 162.18Z" fill="#060405"/>
<path d="M67.8588 180.54C67.8588 180.54 80.9088 186.93 85.0488 182.61C89.1888 178.29 83.7888 139.68 88.1988 139.86C92.5188 140.04 112.229 144.36 111.779 138.33C111.329 132.3 111.779 128.97 104.849 124.92C97.9188 120.87 86.1288 127.26 84.5988 127.35C83.0688 127.44 74.4288 128.61 71.9088 135.45C69.2088 142.2 63.2688 175.59 67.8588 180.54Z" fill="#060405"/>
<path d="M93.9779 146.204C93.9872 145.259 93.471 144.489 92.8248 144.482C92.1786 144.476 91.6472 145.236 91.6379 146.181C91.6286 147.125 92.1449 147.896 92.7911 147.902C93.4373 147.909 93.9686 147.148 93.9779 146.204Z" fill="#060405"/>
<path d="M103.997 147.829C104.007 146.884 103.49 146.114 102.844 146.107C102.198 146.101 101.667 146.861 101.657 147.806C101.648 148.75 102.164 149.521 102.811 149.527C103.457 149.534 103.988 148.773 103.997 147.829Z" fill="#060405"/>
<path d="M97.5614 153.99C97.2914 153.81 97.1114 153.54 96.9314 153.36C96.7514 153.18 96.8414 152.91 97.0214 152.73C97.2014 152.55 97.4714 152.64 97.6514 152.82C97.7414 153 97.9214 153.18 98.0114 153.27C98.3714 153.45 98.3714 153 98.2814 152.64C97.9214 151.02 97.9214 149.31 98.3714 147.69C98.4614 147.42 98.6414 147.33 98.9114 147.33C99.1814 147.42 99.2714 147.6 99.2714 147.87C98.9114 149.4 98.9114 150.93 99.1814 152.46C99.2714 152.82 99.4514 153.63 98.8214 154.08C98.3714 154.26 97.9214 154.26 97.5614 153.99ZM91.7114 161.1C91.5314 160.92 91.6214 160.65 91.8014 160.47C91.9814 160.29 92.2514 160.38 92.4314 160.56C93.3314 161.64 95.6714 162.27 97.4714 161.82C97.7414 161.73 97.9214 161.91 98.0114 162.18C98.1014 162.45 97.9214 162.63 97.6514 162.72C95.6714 163.17 92.8814 162.54 91.7114 161.1Z" fill="#060405"/>
<path d="M202.319 132.75H178.829C177.119 126 177.119 118.89 178.829 112.14H202.319C200.609 118.89 200.609 126 202.319 132.75Z" fill="#F2923A"/>
<path d="M192.419 110.25C192.059 112.5 192.059 114.84 192.419 117.09C192.419 117.09 191.519 116.82 191.339 117C190.709 117.36 190.619 119.61 190.619 119.61C190.619 119.61 189.539 117.36 188.909 117C188.639 116.91 187.829 117.09 187.829 117.09C187.469 114.84 187.469 112.5 187.829 110.25C187.829 110.25 188.639 110.52 188.909 110.34C189.539 109.98 190.619 107.73 190.619 107.73C190.619 107.73 190.709 109.98 191.339 110.34C191.519 110.43 192.419 110.25 192.419 110.25Z" fill="#060405"/>
<path d="M260.37 192.24H236.88C235.17 185.49 235.17 178.38 236.88 171.63H260.37C258.57 178.38 258.57 185.49 260.37 192.24Z" fill="#F81F8B"/>
<path d="M250.38 169.65C250.02 171.9 250.02 174.24 250.38 176.49C250.38 176.49 249.48 176.22 249.3 176.4C248.67 176.76 248.58 179.01 248.58 179.01C248.58 179.01 247.5 176.76 246.87 176.4C246.6 176.31 245.79 176.49 245.79 176.49C245.43 174.24 245.43 171.9 245.79 169.65C245.79 169.65 246.6 169.92 246.87 169.74C247.5 169.38 248.58 167.13 248.58 167.13C248.58 167.13 248.67 169.38 249.3 169.74C249.57 169.92 250.38 169.65 250.38 169.65Z" fill="#060405"/>
<path d="M180.63 165.33H168.21C167.31 161.73 167.31 158.04 168.21 154.44H180.63C179.64 157.95 179.64 161.73 180.63 165.33Z" fill="#74D352"/>
<path d="M175.319 153.36C175.139 154.53 175.139 155.79 175.319 156.96C175.319 156.96 174.869 156.87 174.779 156.87C174.419 157.05 174.419 158.22 174.419 158.22C174.419 158.22 173.879 157.05 173.519 156.87C173.429 156.78 172.979 156.96 172.979 156.96C172.799 155.79 172.799 154.53 172.979 153.36C172.979 153.36 173.429 153.45 173.519 153.45C173.879 153.27 174.419 152.1 174.419 152.1C174.419 152.1 174.419 153.27 174.779 153.45C174.869 153.54 175.319 153.36 175.319 153.36Z" fill="#060405"/>
<path d="M257.49 129.06H245.07C244.17 125.46 244.17 121.77 245.07 118.17H257.49C256.59 121.77 256.59 125.55 257.49 129.06Z" fill="#FAF243"/>
<path d="M252.272 117.18C252.092 118.35 252.092 119.61 252.272 120.78C252.272 120.78 251.822 120.69 251.732 120.69C251.372 120.87 251.372 122.04 251.372 122.04C251.372 122.04 250.832 120.87 250.472 120.69C250.382 120.6 249.932 120.78 249.932 120.78C249.752 119.61 249.752 118.35 249.932 117.18C249.932 117.18 250.382 117.27 250.472 117.27C250.832 117.09 251.372 115.92 251.372 115.92C251.372 115.92 251.372 117.09 251.732 117.27C251.822 117.27 252.272 117.18 252.272 117.18Z" fill="#060405"/>
<path d="M201.331 200.34H177.841C176.131 193.59 176.131 186.48 177.841 179.73H201.331C199.621 186.48 199.621 193.59 201.331 200.34Z" fill="#15C298"/>
<path d="M191.43 177.75C191.07 180 191.07 182.34 191.43 184.59C191.43 184.59 190.53 184.32 190.35 184.5C189.72 184.86 189.63 187.11 189.63 187.11C189.63 187.11 188.55 184.86 187.92 184.5C187.65 184.41 186.84 184.59 186.84 184.59C186.48 182.34 186.48 180 186.84 177.75C186.84 177.75 187.65 178.02 187.92 177.84C188.55 177.48 189.63 175.23 189.63 175.23C189.63 175.23 189.72 177.48 190.35 177.84C190.53 178.02 191.43 177.75 191.43 177.75Z" fill="#060405"/>
<path d="M246.508 155.43C246.238 153.36 245.788 151.38 245.248 149.31L246.148 149.04C246.778 151.11 247.228 153.18 247.498 155.25L246.508 155.43ZM242.998 143.46C242.098 141.57 241.108 139.77 239.938 138.06L240.658 137.52C241.828 139.23 242.908 141.12 243.808 143.01L242.998 143.46ZM236.068 133.2C234.628 131.67 233.188 130.32 231.478 128.97L232.018 128.25C233.728 129.51 235.258 130.95 236.698 132.57L236.068 133.2ZM226.258 125.64C224.458 124.65 222.568 123.75 220.588 123.12L220.858 122.31C222.838 123.03 224.818 123.93 226.618 124.92L226.258 125.64ZM214.558 121.41C212.488 121.05 210.418 120.78 208.348 120.69V119.79C210.418 119.88 212.578 120.06 214.648 120.51L214.558 121.41ZM190.618 170.28L189.898 169.65C191.248 168.03 192.868 166.59 194.488 165.24L195.028 165.96C193.498 167.31 191.968 168.75 190.618 170.28ZM200.248 162.45L199.798 161.64C201.598 160.56 203.578 159.66 205.558 158.85L205.918 159.66C203.938 160.47 202.048 161.46 200.248 162.45ZM230.308 158.04C228.328 157.5 226.258 157.14 224.188 156.96L224.278 156.06C226.438 156.24 228.508 156.6 230.578 157.14L230.308 158.04ZM211.768 157.95L211.588 157.05C213.658 156.6 215.818 156.24 217.888 156.15L217.978 157.05C215.908 157.14 213.838 157.41 211.768 157.95Z" fill="black"/>
<path opacity="0.05" d="M342.992 106.56V164.25H280.532C277.922 164.25 275.852 162.18 275.852 159.57V111.24C275.852 108.63 277.922 106.56 280.532 106.56H342.992Z" fill="black"/>
<path d="M356.131 161.01H283.141C280.531 161.01 278.371 158.85 278.371 156.24V108C278.371 105.39 280.531 103.23 283.141 103.23H356.131C358.741 103.23 360.901 105.39 360.901 108V156.24C360.811 158.94 358.741 161.01 356.131 161.01Z" fill="#FA58E0"/>
<path d="M314.1 134.19C317.43 134.46 321.48 134.91 324.99 135.27C324.27 139.68 322.02 143.64 318.69 146.43L312.21 137.61C313.11 136.62 313.74 135.45 314.1 134.19ZM300.87 126.99L291.51 121.23C294.66 116.91 299.61 114.03 305.28 113.58V124.56C303.57 124.83 302.04 125.73 300.87 126.99ZM325.26 132.21V132.57C320.58 132.12 316.98 131.76 314.37 131.49C314.01 127.98 311.4 125.19 307.98 124.65V113.67C317.61 114.3 325.26 122.31 325.26 132.21ZM310.05 139.14L316.53 147.96C313.65 149.76 310.23 150.84 306.54 150.84C296.28 150.84 287.91 142.47 287.91 132.21C287.91 129.06 288.63 126.18 290.07 123.57L299.43 129.24C299.07 130.14 298.89 131.13 298.89 132.21C298.89 136.53 302.4 139.95 306.63 139.95C307.89 139.95 309.06 139.68 310.05 139.14ZM352.62 123.57H334.89C334.08 123.57 333.36 122.85 333.36 122.04V116.37C333.36 115.56 334.08 114.84 334.89 114.84H352.62C353.43 114.84 354.15 115.56 354.15 116.37V122.04C354.15 122.85 353.43 123.57 352.62 123.57ZM333.36 128.43H354.15V130.23H333.36V128.43ZM333.36 133.29H354.15V135.09H333.36V133.29ZM333.36 138.06H354.15V139.86H333.36V138.06ZM333.36 142.83H338.13V144.63H333.36V142.83ZM343.71 142.83H346.86V144.63H343.71V142.83Z" fill="white"/>
<path opacity="0.05" d="M342.988 173.34V206.01C342.988 212.85 337.498 218.34 330.658 218.34H279.898V176.22C279.898 174.6 281.248 173.25 282.868 173.25H342.988V173.34Z" fill="black"/>
<path d="M373.588 178.56V220.41C373.588 222.03 372.238 223.38 370.618 223.38H285.298C283.678 223.38 282.328 222.03 282.328 220.41V178.56C282.328 176.94 283.678 175.59 285.298 175.59H370.618C372.238 175.59 373.588 176.94 373.588 178.56Z" fill="#F6CC61"/>
<path d="M330.211 211.77C328.051 211.77 325.801 211.14 323.731 209.97C319.681 207.63 317.161 204.03 314.731 200.88C312.841 198.45 310.951 195.84 308.611 193.95C305.641 191.43 302.221 190.35 299.251 190.8C296.191 191.34 293.131 194.04 293.401 197.37C293.401 197.91 293.041 198.27 292.591 198.36C292.051 198.36 291.691 198 291.601 197.55C291.241 193.23 295.111 189.72 298.891 189.09C302.401 188.55 306.361 189.81 309.691 192.6C312.211 194.67 314.191 197.28 316.081 199.89C318.151 202.59 320.671 206.28 324.541 208.44C327.061 209.88 330.931 210.78 334.171 209.07C337.141 207.45 338.581 203.94 339.931 200.88C340.831 198.72 341.821 196.47 343.261 194.58C345.691 191.43 349.561 189.54 353.521 189.36C357.481 189.27 361.441 190.89 364.141 193.86C364.501 194.22 364.411 194.76 364.051 195.12C363.691 195.48 363.151 195.39 362.791 195.03C360.451 192.42 357.031 190.98 353.611 191.07C350.191 191.16 346.771 192.87 344.701 195.57C343.351 197.28 342.541 199.26 341.641 201.42C340.201 204.84 338.581 208.53 335.161 210.42C333.631 211.41 331.921 211.77 330.211 211.77Z" fill="white"/>
<path d="M297.268 194.22C299.306 194.22 300.958 192.568 300.958 190.53C300.958 188.492 299.306 186.84 297.268 186.84C295.23 186.84 293.578 188.492 293.578 190.53C293.578 192.568 295.23 194.22 297.268 194.22Z" fill="#FE6021"/>
<path d="M328.499 214.29C330.537 214.29 332.189 212.638 332.189 210.6C332.189 208.562 330.537 206.91 328.499 206.91C326.461 206.91 324.809 208.562 324.809 210.6C324.809 212.638 326.461 214.29 328.499 214.29Z" fill="#F81F8B"/>
<path d="M352.799 194.22C354.837 194.22 356.489 192.568 356.489 190.53C356.489 188.492 354.837 186.84 352.799 186.84C350.761 186.84 349.109 188.492 349.109 190.53C349.109 192.568 350.761 194.22 352.799 194.22Z" fill="#060405"/>
<path d="M412.829 273.06C411.479 273.06 410.039 272.34 408.419 270.81C402.479 265.41 397.709 258.57 394.469 251.19L395.279 250.83C398.339 258.12 403.109 264.78 408.959 270.09C410.849 271.8 412.379 272.43 413.729 271.89C414.629 271.53 415.259 270.54 415.799 269.82L428.219 251.64L428.939 252.18L416.519 270.36C415.889 271.26 415.169 272.34 413.999 272.79C413.729 272.97 413.279 273.06 412.829 273.06ZM457.199 107.28V131.85C457.199 134.1 455.399 135.99 453.059 135.99H411.389L402.029 141.12V135.99H401.129C398.879 135.99 396.989 134.19 396.989 131.85V107.28C396.989 105.03 398.789 103.14 401.129 103.14H452.969C455.399 103.14 457.199 104.94 457.199 107.28Z" fill="#060405"/>
<path d="M404.82 114.57C404.82 115.56 405.63 116.28 406.53 116.28H447.84C448.83 116.28 449.55 115.47 449.55 114.57C449.55 113.58 448.74 112.86 447.84 112.86H406.53C405.54 112.77 404.82 113.58 404.82 114.57ZM439.29 122.13C439.29 121.14 440.1 120.42 441 120.42H447.84C449.01 120.42 449.82 121.5 449.55 122.67C449.37 123.39 448.56 123.93 447.84 123.93H441.09C440.1 123.84 439.29 123.03 439.29 122.13ZM424.08 120.33H432.45C433.44 120.33 434.16 121.14 434.16 122.04C434.16 123.03 433.35 123.75 432.45 123.75H423.99C423 123.75 422.19 122.94 422.28 121.86C422.28 121.05 423.18 120.33 424.08 120.33Z" fill="white"/>
<path d="M75.6914 89.1901V110.52C75.6914 112.5 77.3114 114.12 79.2914 114.12H115.381L123.481 118.53V114.12H124.201C126.181 114.12 127.801 112.5 127.801 110.52V89.1901C127.801 87.2101 126.181 85.5901 124.201 85.5901H79.2014C77.3114 85.5901 75.6914 87.2101 75.6914 89.1901Z" fill="#060405"/>
<path d="M121.232 95.49C121.232 95.94 121.052 96.3 120.782 96.57C120.512 96.84 120.152 97.02 119.702 97.02H83.8819C83.0719 97.02 82.3519 96.3 82.3519 95.49C82.3519 95.04 82.5319 94.68 82.8019 94.41C83.0719 94.14 83.4319 93.96 83.8819 93.96H119.702C120.512 93.96 121.232 94.68 121.232 95.49ZM91.2619 102.06C91.2619 101.25 90.5419 100.53 89.7319 100.53H83.7919C83.3419 100.53 82.9819 100.71 82.7119 100.98C82.3519 101.34 82.1719 101.88 82.3519 102.51C82.5319 103.14 83.1619 103.59 83.8819 103.59H89.7319C90.6319 103.59 91.2619 102.87 91.2619 102.06ZM104.492 100.53H97.2919C96.4819 100.53 95.7619 101.25 95.7619 102.06C95.7619 102.87 96.4819 103.59 97.2919 103.59H104.672C105.122 103.59 105.482 103.41 105.752 103.14C106.022 102.87 106.202 102.42 106.202 101.97C106.022 101.16 105.302 100.53 104.492 100.53Z" fill="white"/>
<path d="M184.86 356.58C185.04 356.31 189.09 350.91 194.76 350.91C195.03 350.91 195.21 351.09 195.21 351.36C195.21 351.63 195.03 351.81 194.76 351.81C189.45 351.81 185.58 357.03 185.58 357.12C185.22 357.57 184.5 357.03 184.86 356.58Z" fill="#060405"/>
<path d="M180.628 356.31C181.708 355.14 183.058 354.15 184.318 353.07C187.018 350.73 189.088 347.67 190.348 344.34C190.978 342.72 191.338 341.01 190.978 339.39C190.618 337.77 189.358 336.15 187.648 335.97C186.028 335.7 184.498 336.78 182.968 337.59C181.528 338.4 179.548 338.94 178.288 337.86C177.478 337.14 177.208 336.06 177.028 334.98C176.038 329.94 175.048 324.99 174.058 319.95C173.608 317.61 172.888 314.91 170.638 314.1C168.838 313.38 166.768 314.28 165.238 315.45C161.998 317.97 160.108 322.02 160.198 326.16C160.288 330.21 162.448 334.26 165.778 336.6C166.768 337.32 167.938 337.95 168.748 338.94C169.558 339.93 169.738 341.55 168.838 342.36C167.668 343.44 165.868 342.72 164.338 343.08C162.448 343.62 161.638 345.96 162.178 347.85C162.718 349.74 164.428 351 166.138 351.9C167.848 352.8 169.738 353.34 171.448 354.33C174.958 356.31 177.478 360 178.378 363.87C178.378 363.87 178.558 358.47 180.628 356.31Z" fill="#008080"/>
<path d="M180.089 372.87C179.909 372.87 179.729 372.69 179.639 372.51C179.549 372.15 172.439 335.07 169.109 329.22C169.019 329.04 169.019 328.77 169.289 328.59C169.469 328.5 169.739 328.5 169.919 328.77C173.339 334.8 180.269 370.8 180.539 372.33C180.539 372.6 180.359 372.87 180.089 372.87Z" fill="#060405"/>
<path d="M176.042 355.14C176.042 354.87 176.762 347.58 182.072 344.43C182.252 344.34 182.522 344.34 182.702 344.61C182.792 344.79 182.792 345.06 182.522 345.24C177.662 348.12 176.942 355.14 176.942 355.23C176.942 355.86 176.042 355.77 176.042 355.14ZM175.142 350.82C175.142 350.73 172.982 345.6 168.122 345.6C167.852 345.6 167.672 345.42 167.672 345.15C167.672 344.88 167.852 344.7 168.122 344.7C173.612 344.7 175.862 350.28 176.042 350.46C176.132 351.09 175.322 351.36 175.142 350.82Z" fill="#060405"/>
<path d="M187.919 359.73C189.359 359.28 190.889 359.19 192.419 358.92C195.659 358.29 198.809 356.85 201.419 354.78C202.679 353.79 203.759 352.62 204.299 351.09C204.839 349.56 204.569 347.76 203.309 346.77C202.139 345.78 200.429 345.87 198.809 345.87C197.279 345.78 195.479 345.33 194.939 343.8C194.579 342.9 194.939 341.82 195.299 340.92C196.919 336.42 198.449 332.01 200.069 327.51C200.789 325.44 201.509 322.92 200.159 321.21C199.079 319.77 197.009 319.5 195.209 319.68C191.429 320.13 187.919 322.47 186.029 325.8C184.139 329.13 183.959 333.27 185.489 336.78C185.939 337.86 186.569 338.85 186.749 340.02C186.839 341.19 186.299 342.54 185.129 342.81C183.689 343.08 182.609 341.64 181.169 341.28C179.459 340.83 177.659 342.27 177.209 344.07C176.309 347.76 179.909 350.91 181.439 353.61C183.329 356.85 183.509 360.99 182.519 364.5C182.519 364.59 185.219 360.45 187.919 359.73Z" fill="#12A67C"/>
<path d="M179.64 372.69C179.37 372.6 179.28 372.33 179.37 372.15C179.46 371.79 191.43 338.85 191.61 332.55C191.61 332.28 191.79 332.1 192.06 332.1C192.33 332.1 192.51 332.28 192.51 332.55C192.42 339.03 180.72 371.07 180.27 372.42C180.09 372.69 179.82 372.78 179.64 372.69Z" fill="#060405"/>
<path d="M186.569 353.16C186.299 353.16 186.119 352.89 186.119 352.62C186.119 352.53 186.839 347.4 182.969 345.15C182.789 345.06 182.699 344.79 182.789 344.52C182.879 344.34 183.149 344.25 183.419 344.34C187.829 346.95 187.019 352.53 186.929 352.71C186.929 353.07 186.749 353.16 186.569 353.16Z" fill="#060405"/>
<path d="M187.022 393.3H174.512C173.792 393.3 173.072 392.76 172.982 392.04L167.942 370.26C167.762 369.36 168.482 368.46 169.472 368.46L192.242 368.55C193.232 368.55 193.952 369.45 193.772 370.35L188.552 392.13C188.462 392.76 187.832 393.3 187.022 393.3Z" fill="white"/>
<path d="M187.022 393.75H174.512C173.522 393.75 172.712 393.03 172.532 392.04L167.492 370.26C167.312 369 168.212 367.92 169.472 367.92L192.242 368.01C193.502 368.01 194.402 369.09 194.222 370.35L189.002 392.13C188.912 393.03 188.012 393.75 187.022 393.75ZM187.022 392.85C187.562 392.85 188.012 392.49 188.102 391.95L193.322 370.17C193.412 369.54 192.962 368.91 192.242 368.91L169.472 368.82C168.752 368.82 168.302 369.45 168.392 370.08L173.432 391.86C173.522 392.4 173.972 392.85 174.512 392.85H187.022Z" fill="#060405"/>
<path d="M174.149 282.15H141.839C141.659 282.15 141.479 281.97 141.479 281.79C141.479 281.61 141.659 281.43 141.839 281.43H174.149C174.329 281.43 174.509 281.61 174.509 281.79C174.509 281.97 174.329 282.15 174.149 282.15ZM174.149 298.17H141.839C141.659 298.17 141.479 297.99 141.479 297.81C141.479 297.63 141.659 297.45 141.839 297.45H174.149C174.329 297.45 174.509 297.63 174.509 297.81C174.509 297.99 174.329 298.17 174.149 298.17ZM168.299 290.16H122.669C122.489 290.16 122.309 289.98 122.309 289.8C122.309 289.62 122.489 289.44 122.669 289.44H168.299C168.479 289.44 168.659 289.62 168.659 289.8C168.659 289.98 168.479 290.16 168.299 290.16Z" fill="#25E498"/>
<path d="M148.501 282.15C148.321 282.15 148.141 281.97 148.141 281.79V274.95C148.141 274.77 148.321 274.59 148.501 274.59C148.681 274.59 148.861 274.77 148.861 274.95V281.79C148.861 281.97 148.681 282.15 148.501 282.15ZM159.841 290.16C159.661 290.16 159.481 289.98 159.481 289.8V281.79C159.481 281.61 159.661 281.43 159.841 281.43C160.021 281.43 160.201 281.61 160.201 281.79V289.8C160.201 289.98 160.021 290.16 159.841 290.16ZM151.201 297.9C151.021 297.9 150.841 297.72 150.841 297.54V289.8C150.841 289.62 151.021 289.44 151.201 289.44C151.381 289.44 151.561 289.62 151.561 289.8V297.54C151.561 297.72 151.381 297.9 151.201 297.9Z" fill="#25E498"/>
</svg>
