<svg width="540" height="450" viewBox="0 0 540 450" fill="none" xmlns="http://www.w3.org/2000/svg">
<path opacity="0.3" d="M337.409 99.6299C330.479 83.8799 323.729 65.7899 308.159 58.5899C291.959 51.1199 272.879 58.9499 258.389 69.2999C229.679 89.8199 216.809 109.53 168.119 96.57C153.179 92.61 138.779 86.9399 123.569 84.2399C108.359 81.5399 91.8891 82.2599 78.7491 90.3599C62.5491 100.35 61.2891 115.56 60.4791 132.75C59.5791 151.02 63.5391 169.83 68.2191 187.38C74.9691 212.49 90.3591 242.37 83.5191 268.92C78.4791 288.54 40.2291 309.15 39.5991 336.69C39.0591 358.47 48.9591 379.98 65.6091 395.19L422.189 395.91C451.439 382.14 478.529 360 492.929 330.3C497.789 320.31 501.389 309.33 500.129 298.26C498.869 287.19 491.849 276.3 481.319 273.24C476.009 271.71 469.979 272.07 465.209 269.1C460.799 266.31 458.459 260.91 458.009 255.6C457.559 250.29 458.729 245.07 459.719 239.85C464.309 217.44 467.549 194.67 469.529 171.9C470.249 163.26 470.789 154.44 468.989 145.98C467.189 137.52 462.599 129.33 455.219 124.92C442.709 117.45 426.689 122.85 413.549 129.06C399.869 135.54 382.499 144.54 368.279 135.18C354.329 126.18 344.249 115.02 337.409 99.6299Z" fill="#86E9DC"/>
<path d="M113.582 258.21H75.7819C75.6019 258.21 75.4219 258.03 75.4219 257.85C75.4219 257.67 75.6019 257.49 75.7819 257.49H113.582C113.762 257.49 113.942 257.67 113.942 257.85C113.942 258.03 113.852 258.21 113.582 258.21ZM113.582 276.93H75.7819C75.6019 276.93 75.4219 276.75 75.4219 276.57C75.4219 276.39 75.6019 276.21 75.7819 276.21H113.582C113.762 276.21 113.942 276.39 113.942 276.57C113.942 276.75 113.852 276.93 113.582 276.93ZM106.742 267.57H53.2819C53.1019 267.57 52.9219 267.39 52.9219 267.21C52.9219 267.03 53.1019 266.85 53.2819 266.85H106.742C106.922 266.85 107.102 267.03 107.102 267.21C107.102 267.39 106.922 267.57 106.742 267.57Z" fill="#25E498"/>
<path d="M83.61 258.21C83.43 258.21 83.25 258.03 83.25 257.85V249.93C83.25 249.75 83.43 249.57 83.61 249.57C83.79 249.57 83.97 249.75 83.97 249.93V257.85C83.97 258.03 83.79 258.21 83.61 258.21ZM96.93 267.57C96.75 267.57 96.57 267.39 96.57 267.21V257.85C96.57 257.67 96.75 257.49 96.93 257.49C97.11 257.49 97.29 257.67 97.29 257.85V267.21C97.2 267.39 97.11 267.57 96.93 267.57ZM86.76 276.66C86.58 276.66 86.4 276.48 86.4 276.3V267.21C86.4 267.03 86.58 266.85 86.76 266.85C86.94 266.85 87.12 267.03 87.12 267.21V276.3C87.12 276.48 86.94 276.66 86.76 276.66ZM386.82 263.88H349.02C348.84 263.88 348.66 263.7 348.66 263.52C348.66 263.34 348.84 263.16 349.02 263.16H386.82C387 263.16 387.18 263.34 387.18 263.52C387.18 263.7 387 263.88 386.82 263.88ZM386.82 282.6H349.02C348.84 282.6 348.66 282.42 348.66 282.24C348.66 282.06 348.84 281.88 349.02 281.88H386.82C387 281.88 387.18 282.06 387.18 282.24C387.18 282.42 387 282.6 386.82 282.6ZM379.98 273.24H326.52C326.34 273.24 326.16 273.06 326.16 272.88C326.16 272.7 326.34 272.52 326.52 272.52H379.98C380.16 272.52 380.34 272.7 380.34 272.88C380.34 273.06 380.16 273.24 379.98 273.24Z" fill="#25E498"/>
<path d="M356.758 263.88C356.578 263.88 356.398 263.7 356.398 263.52V255.6C356.398 255.42 356.578 255.24 356.758 255.24C356.938 255.24 357.118 255.42 357.118 255.6V263.52C357.118 263.7 356.938 263.88 356.758 263.88ZM370.078 273.24C369.898 273.24 369.718 273.06 369.718 272.88V263.52C369.718 263.34 369.898 263.16 370.078 263.16C370.258 263.16 370.438 263.34 370.438 263.52V272.88C370.438 273.06 370.258 273.24 370.078 273.24ZM359.998 282.33C359.818 282.33 359.638 282.15 359.638 281.97V272.88C359.638 272.7 359.818 272.52 359.998 272.52C360.178 272.52 360.358 272.7 360.358 272.88V281.97C360.268 282.15 360.178 282.33 359.998 282.33Z" fill="#25E498"/>
<path d="M176.039 289.17C174.329 288.54 172.709 287.91 170.999 287.19L171.359 286.38C172.979 287.01 174.689 287.73 176.399 288.36L176.039 289.17ZM166.049 285.12C164.429 284.4 162.719 283.68 161.099 282.87L161.459 282.06C163.079 282.78 164.699 283.59 166.409 284.31L166.049 285.12ZM156.239 280.53L151.379 278.1L151.829 277.29C153.449 278.1 155.069 278.91 156.599 279.72L156.239 280.53ZM146.609 275.49C145.079 274.59 143.459 273.69 141.929 272.79L142.379 271.98C143.909 272.88 145.529 273.78 147.059 274.68L146.609 275.49ZM137.339 270C135.809 269.1 134.279 268.11 132.749 267.12L133.199 266.4C134.729 267.39 136.259 268.38 137.789 269.28L137.339 270ZM128.249 264.15C126.809 263.16 125.279 262.08 123.839 261L124.379 260.28C125.819 261.36 127.349 262.35 128.789 263.34L128.249 264.15ZM119.519 257.85C118.079 256.77 116.639 255.69 115.199 254.52L115.739 253.8C117.179 254.88 118.529 256.05 119.969 257.13L119.519 257.85ZM110.969 251.1C109.619 249.93 108.179 248.76 106.829 247.59L107.459 246.87C108.809 248.04 110.159 249.21 111.599 250.38L110.969 251.1ZM102.869 243.99C101.519 242.82 100.259 241.56 98.9092 240.3L99.5392 239.67C100.799 240.93 102.149 242.1 103.499 243.36L102.869 243.99ZM95.0392 236.61C93.7792 235.35 92.5192 234.09 91.2592 232.74L91.8892 232.11C93.1492 233.37 94.4092 234.72 95.6692 235.98L95.0392 236.61ZM87.4792 228.78C86.3092 227.43 85.0492 226.08 83.8792 224.73L84.5992 224.1C85.7692 225.45 87.0292 226.8 88.1992 228.15L87.4792 228.78ZM80.3692 220.68C79.1992 219.33 78.0292 217.89 76.9492 216.54L77.6692 216C78.8392 217.44 79.9192 218.79 81.0892 220.14L80.3692 220.68ZM73.6192 212.22L70.3792 207.9L71.0992 207.36L74.3392 211.68L73.6192 212.22ZM67.2292 203.49C66.1492 201.96 65.1592 200.52 64.1692 198.99L64.8892 198.45C65.8792 199.89 66.8692 201.42 67.9492 202.86L67.2292 203.49ZM61.1992 194.49C60.3892 193.14 59.5792 191.88 58.7692 190.53L58.4092 189.9L59.2192 189.45L59.5792 190.08C60.3892 191.43 61.1992 192.69 62.0092 194.04L61.1992 194.49ZM55.6192 185.22C54.7192 183.6 53.8192 181.98 53.0092 180.45L53.8192 180C54.6292 181.53 55.5292 183.15 56.4292 184.77L55.6192 185.22ZM50.5792 175.59C49.7692 173.97 49.0492 172.26 48.3292 170.64L49.1392 170.28C49.8592 171.9 50.5792 173.52 51.3892 175.14L50.5792 175.59ZM46.3492 165.69C45.7192 163.98 45.0892 162.27 44.6392 160.56L45.5392 160.29C46.0792 162 46.6192 163.71 47.2492 165.42L46.3492 165.69ZM43.1992 155.25C42.7492 153.45 42.3892 151.65 42.1192 149.94L43.0192 149.76C43.2892 151.47 43.7392 153.27 44.0992 154.98L43.1992 155.25ZM41.3092 144.63C41.1292 142.83 41.0392 141.03 40.9492 139.23H41.8492C41.8492 141.03 42.0292 142.83 42.2092 144.54L41.3092 144.63ZM318.419 144V143.1C320.219 143.1 322.019 143.01 323.819 143.01V143.91C322.019 143.91 320.219 144 318.419 144ZM312.929 144C311.129 144 309.329 143.91 307.529 143.82V142.92C309.329 143.01 311.129 143.01 312.929 143.1V144ZM329.219 143.64L329.129 142.74C330.929 142.65 332.729 142.47 334.529 142.38L334.619 143.28C332.819 143.37 331.019 143.46 329.219 143.64ZM302.129 143.55C300.329 143.46 298.529 143.28 296.729 143.1L296.819 142.2C298.619 142.38 300.419 142.47 302.219 142.65L302.129 143.55ZM339.929 142.65L339.839 141.75C341.639 141.57 343.439 141.3 345.149 141.12L345.239 142.02C343.529 142.29 341.729 142.47 339.929 142.65ZM291.419 142.56C289.619 142.38 287.819 142.11 286.019 141.84L286.109 140.94C287.909 141.21 289.709 141.39 291.419 141.66V142.56ZM350.729 141.21L350.549 140.31C352.349 140.04 354.059 139.68 355.859 139.41L356.039 140.31C354.239 140.67 352.439 140.94 350.729 141.21ZM280.619 141.12C278.819 140.85 277.019 140.49 275.309 140.13L275.489 139.23C277.199 139.59 278.999 139.86 280.799 140.22L280.619 141.12ZM361.349 139.23L361.169 138.33C362.879 137.97 364.679 137.61 366.389 137.16L366.569 138.06C364.859 138.51 363.059 138.87 361.349 139.23ZM269.999 139.05C268.199 138.69 266.489 138.24 264.689 137.79L264.869 136.89C266.579 137.34 268.379 137.7 270.089 138.15L269.999 139.05ZM371.879 136.8L371.609 135.9C373.319 135.45 375.119 135 376.829 134.46L377.099 135.36C375.389 135.81 373.589 136.35 371.879 136.8ZM259.559 136.35C259.469 136.35 257.399 135.81 254.339 134.82L254.609 133.92C257.309 134.73 259.649 135.36 259.829 135.45L259.559 136.35ZM42.0292 133.83L41.1292 133.74C41.2192 131.94 41.3992 130.14 41.6692 128.34L42.5692 128.43C42.2992 130.23 42.1192 132.03 42.0292 133.83ZM382.229 133.74L381.959 132.84C383.669 132.3 385.379 131.76 387.089 131.13L387.359 131.94C385.739 132.66 383.939 133.2 382.229 133.74ZM249.209 133.29C247.499 132.75 245.789 132.12 244.079 131.58L244.349 130.77C246.059 131.4 247.769 131.94 249.479 132.48L249.209 133.29ZM392.489 130.32L392.219 129.51C393.929 128.88 395.639 128.25 397.259 127.62L397.619 128.43L392.489 130.32ZM238.949 129.69C237.239 129.06 235.529 128.43 233.909 127.8L234.269 126.99C235.979 127.62 237.599 128.25 239.309 128.88L238.949 129.69ZM402.569 126.27L402.209 125.46C403.829 124.74 405.539 124.02 407.159 123.3L407.519 124.11C405.899 124.92 404.189 125.64 402.569 126.27ZM228.869 125.82C227.159 125.19 225.539 124.47 223.829 123.75L224.189 122.94C225.899 123.66 227.519 124.29 229.229 125.01L228.869 125.82ZM43.5592 123.21L42.6592 123.03C43.1092 121.23 43.6492 119.52 44.1892 117.81L44.9992 118.08C44.4592 119.7 44.0092 121.41 43.5592 123.21ZM412.379 121.86L412.019 121.05L416.879 118.62L417.329 119.43C415.619 120.24 413.999 121.05 412.379 121.86ZM218.879 121.68C217.259 120.96 215.549 120.24 213.929 119.52L214.289 118.71C215.909 119.43 217.619 120.15 219.239 120.78L218.879 121.68ZM208.889 117.45C207.269 116.73 205.559 116.01 203.939 115.29L204.299 114.48C205.919 115.2 207.629 115.92 209.249 116.64L208.889 117.45ZM422.009 116.91L421.559 116.1C423.089 115.2 424.709 114.39 426.239 113.49L426.689 114.3C425.159 115.11 423.629 116.01 422.009 116.91ZM47.0692 113.13L46.2592 112.77C47.0692 111.15 47.9692 109.53 48.8692 108L49.5892 108.45C48.7792 109.89 47.8792 111.51 47.0692 113.13ZM198.989 113.13C197.369 112.41 195.659 111.69 194.039 110.97L194.399 110.16C196.019 110.88 197.729 111.6 199.349 112.32L198.989 113.13ZM431.369 111.51L430.919 110.7C432.449 109.8 433.979 108.81 435.509 107.82L435.959 108.54C434.429 109.62 432.899 110.52 431.369 111.51ZM189.089 108.81C187.469 108.09 185.759 107.37 184.139 106.65L184.499 105.84C186.119 106.56 187.829 107.28 189.449 108L189.089 108.81ZM440.459 105.66L439.919 104.94C441.359 103.95 442.889 102.87 444.329 101.88L444.869 102.6C443.429 103.59 441.989 104.58 440.459 105.66ZM179.189 104.58C177.569 103.86 175.859 103.23 174.239 102.51L174.599 101.7C176.309 102.33 177.929 103.05 179.639 103.77L179.189 104.58ZM52.8292 104.13L52.1092 103.59L52.2892 103.32C53.3692 102.06 54.5392 100.8 55.7992 99.6299L56.4292 100.26C55.1692 101.43 54.0892 102.6 53.0092 103.95L52.8292 104.13ZM169.199 100.62C167.489 99.9899 165.869 99.3599 164.159 98.7299L164.429 97.9199C166.139 98.5499 167.759 99.1799 169.469 99.8099L169.199 100.62ZM449.279 99.2699L448.739 98.5499C450.089 97.5599 451.439 96.4799 452.789 95.3999L453.329 96.1199C451.979 97.1999 450.629 98.2799 449.279 99.2699ZM159.119 96.8399C157.409 96.2099 155.699 95.6699 153.989 95.1299L154.259 94.3199C155.969 94.8599 157.679 95.4899 159.389 96.0299L159.119 96.8399ZM60.5692 96.7499L60.0292 96.0299C61.4692 94.9499 62.9992 93.9599 64.6192 93.0599L65.0692 93.8699C63.4492 94.7699 62.0092 95.7599 60.5692 96.7499ZM148.859 93.4199C147.149 92.8799 145.349 92.3399 143.729 91.8899L143.999 90.9899C145.709 91.4399 147.419 91.9799 149.219 92.5199L148.859 93.4199ZM69.8392 91.4399L69.4792 90.6299C71.0992 89.9099 72.8092 89.2799 74.5192 88.6499L74.7892 89.4599C73.0792 90.0899 71.3692 90.7199 69.8392 91.4399ZM138.509 90.5399C136.709 90.0899 134.999 89.6399 133.289 89.2799L133.469 88.3799C135.179 88.7399 136.979 89.1899 138.689 89.6399L138.509 90.5399ZM127.979 88.1999C126.179 87.8399 124.379 87.5699 122.669 87.2999L122.849 86.3999C124.559 86.6699 126.359 86.9399 128.159 87.2999L127.979 88.1999ZM79.9192 88.0199L79.7392 87.1199C81.4492 86.6699 83.2492 86.3099 85.0492 85.9499L85.2292 86.8499C83.4292 87.2099 81.6292 87.5699 79.9192 88.0199ZM117.359 86.4899L111.959 85.9499L112.049 85.0499L117.449 85.5899L117.359 86.4899ZM90.5392 86.1299L90.4492 85.2299C92.2492 85.0499 94.0492 84.8699 95.8492 84.7799L95.9392 85.6799C94.0492 85.7699 92.2492 85.9499 90.5392 86.1299ZM106.649 85.6799C104.939 85.5899 103.139 85.5899 101.429 85.5899H101.249V84.6899H101.429C103.139 84.6899 104.939 84.6899 106.649 84.7799V85.6799Z" fill="#060405"/>
<path d="M332.369 110.88V337.05C332.369 341.64 328.589 345.42 323.999 345.42H137.429C132.839 345.42 129.059 341.64 129.059 337.05V110.88C129.059 106.29 132.839 102.51 137.429 102.51H323.999C328.589 102.51 332.369 106.29 332.369 110.88Z" fill="#9F28EE"/>
<path d="M324.358 113.13V305.1C324.358 306.18 323.458 307.08 322.378 307.08H140.218C139.138 307.08 138.238 306.18 138.238 305.1V113.13C138.238 112.05 139.138 111.15 140.218 111.15H322.378C323.458 111.15 324.358 111.96 324.358 113.13Z" fill="white"/>
<path d="M270.358 306.99H234.088L233.278 292.05L230.848 306.99H189.358C188.818 299.07 188.548 291.78 188.638 287.19C188.818 279.81 190.708 272.34 193.678 264.69C195.208 260.82 196.918 256.86 198.898 252.9H262.528L266.398 262.17L266.578 264.33L270.358 306.99Z" fill="#060405"/>
<path d="M207.27 211.32C198.18 210.69 188.73 209.97 180.81 205.56C172.8 201.15 166.68 191.97 168.84 183.15C170.46 176.58 176.22 171.18 176.13 164.43C176.13 160.92 174.51 157.59 173.43 154.26C172.35 150.93 171.81 146.97 173.79 144.09C177.03 139.32 184.86 139.95 188.28 135.36C190.98 131.85 189.99 126.99 189.63 122.58C188.28 107.55 196.02 92.16 208.71 84.15C229.23 71.28 257.13 79.83 265.23 98.46C267.93 104.67 268.11 112.23 264.96 118.26C262.17 123.66 256.77 128.25 257.22 134.37C257.49 138.24 260.28 141.48 263.43 143.73C266.58 145.98 270.18 147.51 273.42 149.58C282.33 155.52 287.73 166.5 286.83 177.21C285.93 187.92 278.91 197.82 269.1 202.23C253.98 208.98 234.81 202.86 221.04 211.86C218.25 213.66 215.73 216.09 212.58 217.26C209.43 218.43 205.2 217.71 203.85 214.65L207.27 211.32Z" fill="black"/>
<path d="M265.281 200.963L265.281 200.964C264.413 205.395 264.147 214.921 264.789 225.884C265.425 236.761 266.959 249.114 269.713 259.409C268.691 260.352 266.829 261.208 264.242 261.944C261.505 262.723 258.04 263.346 254.102 263.822C246.228 264.775 236.515 265.135 227.056 265C217.598 264.865 208.413 264.236 201.597 263.217C198.185 262.706 195.389 262.102 193.455 261.421C192.484 261.08 191.761 260.73 191.288 260.383C190.811 260.033 190.678 259.754 190.672 259.561C190.717 257.886 191.016 255.511 191.437 252.566C191.575 251.603 191.726 250.579 191.885 249.503C192.21 247.294 192.569 244.86 192.917 242.256C193.954 234.506 194.903 225.206 194.632 215.626C194.371 205.65 193.52 195.336 192.754 186.061C192.462 182.52 192.183 179.131 191.953 175.97C191.537 170.239 191.286 165.265 191.417 161.476C191.483 159.581 191.643 158.002 191.92 156.783C192.201 155.545 192.583 154.761 193.026 154.362L193.026 154.362L193.029 154.359C193.975 153.497 195.645 152.65 197.923 151.87C200.187 151.095 203 150.402 206.183 149.822C212.549 148.66 220.361 147.954 228.154 147.92C235.95 147.886 243.702 148.526 249.957 150.046C253.085 150.806 255.821 151.782 257.996 152.992C260.173 154.204 261.757 155.632 262.63 157.284L262.631 157.286C265.893 163.369 269.585 179.085 265.281 200.963Z" fill="#F81F8B" stroke="#F81F8B"/>
<path d="M177.931 196.56C177.931 196.56 156.241 210.15 146.611 207.72C135.091 204.75 115.291 152.91 115.291 152.91C115.291 152.91 96.5711 145.98 103.051 130.41C109.531 114.84 121.861 137.07 121.861 137.07C121.861 137.07 121.321 131.04 124.021 130.41C126.721 129.78 126.361 141.48 126.361 141.48L155.251 179.1L169.201 171.63L177.931 196.56Z" fill="white"/>
<path d="M149.221 208.44C148.231 208.44 147.331 208.35 146.521 208.17C135.091 205.29 116.461 157.23 114.931 153.27C113.491 152.73 105.391 149.22 102.331 142.2C100.711 138.51 100.801 134.55 102.601 130.23C104.131 126.54 106.201 124.56 108.631 124.47C113.761 124.2 119.251 132.03 121.321 135.36C121.411 133.38 121.861 130.5 123.841 129.96C124.291 129.87 124.651 129.96 125.011 130.23C126.901 131.76 126.811 139.86 126.721 141.39L155.251 178.56L168.841 171.27C168.931 171.18 169.111 171.18 169.201 171.27L169.471 171.54L178.291 196.47C178.381 196.65 178.291 196.92 178.111 197.01C177.301 197.46 159.661 208.44 149.221 208.44ZM108.991 125.28H108.721C106.651 125.37 104.851 127.17 103.411 130.5C101.701 134.55 101.611 138.33 103.141 141.75C106.291 148.95 115.291 152.37 115.381 152.37L115.651 152.64C115.831 153.18 135.451 204.3 146.611 207.18C155.341 209.43 174.601 197.91 177.301 196.29L168.841 172.17L155.431 179.46C155.251 179.55 154.981 179.55 154.891 179.37L126.001 141.75C125.911 141.66 125.911 141.57 125.911 141.48C126.001 137.97 125.731 131.94 124.471 130.95C124.381 130.86 124.201 130.86 124.111 130.86C122.221 131.31 122.131 135.45 122.311 136.98C122.311 137.16 122.221 137.43 121.951 137.43C121.771 137.52 121.501 137.43 121.411 137.25C121.411 137.16 114.751 125.28 108.991 125.28Z" fill="#060405"/>
<path d="M194.975 153.124L194.978 153.123C195.073 153.098 195.2 153.104 195.385 153.211C195.578 153.322 195.808 153.528 196.066 153.853C196.582 154.503 197.133 155.524 197.687 156.846C198.793 159.479 199.865 163.184 200.705 167.155C201.545 171.123 202.148 175.334 202.323 178.976C202.411 180.798 202.392 182.467 202.244 183.888C202.096 185.316 201.822 186.457 201.423 187.244L201.423 187.244C200.446 189.178 198.399 191.088 195.803 192.876C193.22 194.655 190.148 196.276 187.191 197.648C184.237 199.019 181.409 200.136 179.319 200.91C178.275 201.298 177.415 201.599 176.818 201.803C176.519 201.905 176.285 201.983 176.127 202.035C176.106 202.042 176.087 202.049 176.068 202.055C176.057 202.042 176.044 202.027 176.03 202.011C175.89 201.846 175.703 201.568 175.472 201.173C175.014 200.39 174.431 199.23 173.769 197.803C172.446 194.956 170.827 191.096 169.293 187.197C167.76 183.298 166.315 179.371 165.339 176.388C164.85 174.894 164.483 173.649 164.28 172.767C164.177 172.322 164.122 171.991 164.108 171.775C164.107 171.75 164.106 171.727 164.106 171.707C164.15 171.678 164.202 171.643 164.261 171.602C164.435 171.483 164.687 171.307 165.006 171.083C165.22 170.933 165.463 170.761 165.735 170.57C166.279 170.186 166.935 169.724 167.685 169.199C169.931 167.625 173.007 165.496 176.348 163.295C179.69 161.093 183.294 158.822 186.597 156.963C189.912 155.096 192.883 153.669 194.975 153.124ZM175.887 202.114C175.887 202.114 175.887 202.114 175.887 202.114C175.888 202.116 175.897 202.146 176.039 202.59L175.887 202.114Z" fill="#F81F8B" stroke="#F81F8B"/>
<path d="M241.019 137.43C241.019 137.43 239.669 144.63 241.739 148.5C241.739 148.5 244.709 163.26 240.929 164.88C234.899 167.49 220.949 147.87 220.949 147.87L221.579 127.71L241.019 137.43Z" fill="white"/>
<path d="M239.76 165.6C233.1 165.6 221.13 148.95 220.59 148.14C220.5 148.05 220.5 147.96 220.5 147.87L221.13 127.71C221.13 127.53 221.22 127.44 221.31 127.35C221.4 127.26 221.58 127.26 221.76 127.35L241.2 137.07C241.38 137.16 241.47 137.34 241.47 137.52C241.47 137.61 240.12 144.63 242.19 148.32C242.19 148.32 242.19 148.41 242.28 148.41C242.55 149.94 245.16 163.62 241.2 165.33C240.66 165.51 240.21 165.6 239.76 165.6ZM221.4 147.78C225.27 153.27 236.07 166.5 240.75 164.52C243.54 163.35 242.1 152.73 241.29 148.68C239.4 145.08 240.21 139.14 240.48 137.7L221.94 128.43L221.4 147.78Z" fill="#060405"/>
<path d="M242.638 138.78C236.248 141.3 226.708 139.59 217.438 127.53C217.438 127.53 209.788 127.8 207.988 121.86C206.188 116.01 215.008 117 215.008 117C215.008 117 209.878 92.9699 229.678 89.9999C252.538 86.4899 258.748 132.3 242.638 138.78Z" fill="white"/>
<path d="M237.238 140.22C230.578 140.22 223.378 135.9 217.168 127.89C215.818 127.89 209.158 127.44 207.448 121.95C206.998 120.42 207.178 119.16 207.898 118.26C209.428 116.46 212.938 116.46 214.288 116.46C213.838 113.94 212.488 103.77 217.528 96.4801C220.228 92.6101 224.188 90.2701 229.498 89.4601C240.838 87.7501 247.768 97.8301 250.468 107.82C253.798 120.06 251.728 135.54 242.728 139.14C241.018 139.86 239.128 140.22 237.238 140.22ZM217.438 126.99C217.618 126.99 217.708 127.08 217.798 127.17C225.538 137.25 234.718 141.39 242.458 138.33C251.098 134.91 252.898 119.97 249.658 108.09C247.048 98.4601 240.388 88.7401 229.678 90.3601C224.638 91.0801 220.858 93.3301 218.338 96.9301C212.938 104.76 215.368 116.64 215.368 116.73C215.368 116.91 215.368 117 215.278 117.09C215.188 117.18 215.008 117.27 214.918 117.27C214.828 117.27 210.238 116.73 208.708 118.71C208.168 119.43 207.988 120.33 208.438 121.59C210.058 127.17 217.348 126.99 217.438 126.99Z" fill="#060405"/>
<path d="M215.101 117.18C215.731 117.9 216.901 117.81 217.711 117.36C218.521 116.82 218.971 115.92 219.241 115.02C219.871 112.41 218.881 109.62 218.971 106.92C219.061 102.96 221.941 99.27 225.631 98.1C233.641 95.49 241.291 103.41 251.191 96.57C252.631 95.58 253.981 94.23 254.161 92.52C250.111 87.93 245.431 85.05 234.271 85.14C228.511 85.23 222.571 86.22 217.531 89.01C212.491 91.8 208.351 96.66 207.361 102.33C207.001 104.31 207.091 106.38 207.901 108.27C208.531 109.8 209.611 111.06 210.691 112.23C211.951 113.94 213.481 115.65 215.101 117.18Z" fill="black"/>
<path d="M191.34 182.65L192.238 182.588L193.119 195.427L192.222 195.489L191.34 182.65Z" fill="black"/>
<path d="M230.054 114.462C230.941 114.339 231.494 113.043 231.29 111.565C231.086 110.088 230.202 108.99 229.316 109.112C228.429 109.235 227.876 110.531 228.08 112.009C228.284 113.486 229.168 114.584 230.054 114.462Z" fill="black"/>
<path d="M244.722 112.392C245.609 112.27 246.162 110.973 245.958 109.496C245.754 108.019 244.87 106.92 243.984 107.043C243.097 107.165 242.544 108.462 242.748 109.939C242.952 111.416 243.836 112.514 244.722 112.392Z" fill="black"/>
<path d="M236.789 119.97C236.609 119.79 236.699 119.52 236.879 119.34C237.329 118.98 237.869 118.62 238.229 118.17C239.219 117 238.679 116.28 237.959 115.11C236.789 113.4 236.069 111.33 235.619 109.35C235.619 109.08 235.709 108.9 235.979 108.81C236.249 108.72 236.429 108.9 236.519 109.17C237.599 115.02 241.199 116.01 238.859 118.8C238.409 119.34 237.869 119.7 237.329 120.06C237.239 120.15 236.969 120.15 236.789 119.97ZM232.469 127.89C232.289 127.71 232.199 127.44 232.379 127.26C232.559 127.08 232.829 126.99 233.009 127.17C235.169 128.88 238.409 128.7 238.859 127.8C238.949 127.53 239.219 127.44 239.489 127.53C239.759 127.62 239.849 127.89 239.759 128.16C239.489 128.79 238.859 129.24 237.869 129.33C235.979 129.6 233.999 129.06 232.469 127.89Z" fill="black"/>
<path d="M316.35 153.54C316.35 153.54 319.32 142.65 322.92 150.3C326.52 157.95 321.12 162.72 321.12 162.72C321.12 162.72 310.59 210.06 297.27 213.93C295.29 214.47 293.31 214.65 291.42 214.47C280.71 213.39 259.02 192.69 259.02 192.69L275.67 169.47L296.28 186.75L311.22 159.57" fill="white"/>
<path d="M293.131 215.01C292.591 215.01 291.961 215.01 291.421 214.92C280.621 213.84 259.651 193.86 258.751 192.96C258.571 192.78 258.571 192.51 258.661 192.33L275.311 169.11C275.401 169.02 275.491 168.93 275.581 168.93C275.671 168.93 275.851 168.93 275.941 169.02L296.191 185.94L310.861 159.21L310.951 159.12C311.131 158.94 311.401 158.94 311.581 159.12C311.761 159.3 311.761 159.48 311.581 159.66L296.641 186.84L296.371 187.11C296.191 187.11 296.101 187.11 296.011 187.02L275.761 170.1L259.651 192.6C262.261 195.03 281.701 213.03 291.511 214.02C293.401 214.2 295.291 214.11 297.181 213.57C310.141 209.79 320.581 163.17 320.671 162.63C320.671 162.54 320.761 162.45 320.851 162.36C321.031 162.18 325.891 157.68 322.561 150.39C321.751 148.68 320.941 147.87 320.221 147.87C318.871 147.96 317.431 151.38 316.891 153.45C316.891 153.54 316.891 153.54 316.801 153.63C316.621 153.81 316.351 153.9 316.171 153.72C315.991 153.54 315.901 153.36 316.081 153.18C317.701 147.24 320.851 144.45 323.461 150.03C326.881 157.23 322.471 162.09 321.661 162.9C320.941 166.23 310.771 210.51 297.541 214.38C296.011 214.83 294.571 215.01 293.131 215.01Z" fill="#060405"/>
<path d="M301.77 130.05L291.42 135.36C285.3 139.41 290.43 149.67 296.91 146.88L307.62 142.29L301.77 130.05Z" fill="white"/>
<path d="M291.061 135L301.501 129.6C301.591 129.51 301.771 129.51 301.861 129.6C301.951 129.6 302.041 129.69 302.131 129.87C308.161 142.74 308.071 142.2 307.981 142.56C307.981 142.65 307.891 142.74 307.711 142.83L297.001 147.42C290.071 150.39 284.581 139.32 291.061 135ZM301.501 130.68L291.511 135.81C285.931 139.5 290.611 149.13 296.641 146.52L306.901 142.11L301.501 130.68Z" fill="#060405"/>
<path d="M327.688 160.2L322.828 163.35C322.198 163.8 321.298 163.62 320.848 162.9C319.588 161.01 325.258 169.65 308.878 144.81C308.428 144.18 308.608 143.28 309.328 142.83L314.188 139.68C314.908 139.23 315.808 139.41 316.258 140.04C332.458 164.52 327.148 156.51 328.228 158.13C328.588 158.85 328.408 159.75 327.688 160.2Z" fill="#FFD964"/>
<path d="M365.039 139.41C364.139 139.77 362.969 139.59 361.619 138.69C357.389 136.35 351.179 128.52 345.239 118.17C345.239 118.17 345.239 118.08 345.149 118.08C342.359 113.22 341.909 112.05 340.019 108.18C340.019 108.18 340.019 108.09 339.929 108.09C334.349 96.2099 331.379 85.4099 331.559 79.6499C331.829 78.5699 332.099 77.4899 332.279 76.4099V76.3199C332.549 75.8699 332.909 75.5999 333.359 75.4199C337.769 73.5299 348.299 86.3099 357.029 104.04C365.939 121.68 369.449 137.52 365.039 139.41Z" fill="#060405"/>
<path d="M361.44 139.14C357.12 136.8 350.82 128.88 344.97 118.53C343.53 115.83 342.18 113.49 341.01 111.06C341.01 110.97 330.84 90.8101 331.29 79.6501L331.56 78.5701C331.74 77.7601 331.92 77.0401 332.1 76.3201V76.1401L332.19 76.0501C332.55 75.5101 333 75.1501 333.45 74.9701C338.67 72.7201 349.83 87.8401 357.66 103.86C365.04 118.71 368.91 132.75 367.02 137.97C366.66 138.96 366.12 139.59 365.4 139.95C363.96 140.4 362.61 139.86 361.44 139.14ZM361.89 138.33C369.9 143.46 367.11 124.92 356.76 104.22C347.49 85.3201 337.32 74.2501 333.72 75.7801C333.45 75.8701 333.18 76.0501 332.91 76.4101C332.73 77.2201 332.55 78.0301 332.37 78.7501L332.1 79.7401C331.83 85.5001 334.98 96.3001 340.38 107.73C341.37 109.71 341.73 110.61 341.73 110.52C345.33 117.99 354.78 134.37 361.89 138.33ZM330.57 162.09L324.81 165.87C324 166.41 322.92 166.14 322.38 165.33C320.94 163.08 327.69 173.34 308.07 143.73C307.53 142.92 307.8 141.84 308.61 141.39L314.37 137.61C315.18 137.07 316.26 137.34 316.8 138.06C336.15 167.22 329.85 157.77 331.11 159.66C331.65 160.47 331.38 161.55 330.57 162.09Z" fill="#060405"/>
<path d="M349.381 120.06L347.311 121.32C342.991 113.58 342.181 111.78 339.211 105.75C339.121 105.66 339.121 105.57 339.121 105.57L340.381 104.76C344.611 102.24 350.011 103.68 352.531 107.91C355.051 112.14 353.611 117.63 349.381 120.06Z" fill="white"/>
<path d="M346.952 121.5C344.972 117.99 342.812 114.12 340.832 110.07C340.742 109.98 338.762 105.93 338.762 105.75C338.582 105.57 338.672 105.21 338.942 105.12L340.202 104.31C344.702 101.7 350.282 103.14 352.982 107.55C355.592 112.05 354.062 117.81 349.652 120.33L347.582 121.59C347.312 121.86 347.042 121.77 346.952 121.5ZM339.752 105.75C341.372 108.99 342.182 111.24 347.492 120.69L349.202 119.7C353.252 117.36 354.602 112.14 352.172 108.09C349.742 104.04 344.702 102.78 340.652 105.12L339.752 105.75Z" fill="#060405"/>
<path d="M328.32 157.5C325.98 159.03 322.2 157.5 319.95 154.08C317.7 150.66 317.88 146.61 320.22 145.08C322.74 143.55 330.75 155.88 328.32 157.5Z" fill="white"/>
<path d="M326.248 158.49C323.998 158.49 321.388 156.96 319.678 154.26C317.698 151.11 317.158 146.52 320.128 144.63C322.198 143.28 325.888 148.68 326.608 149.76C327.328 150.84 330.748 156.42 328.678 157.77C327.868 158.31 327.058 158.49 326.248 158.49ZM320.758 145.35C320.218 145.35 318.958 146.61 318.868 148.86C318.778 150.48 319.318 152.19 320.398 153.81C322.468 157.05 325.978 158.49 328.138 157.14C328.858 156.69 328.048 153.9 325.798 150.39C323.728 147.24 321.658 145.35 320.758 145.35Z" fill="#060405"/>
<path d="M311.309 159.57C311.309 159.57 311.309 148.95 314.459 150.03C317.609 151.11 316.349 157.14 316.349 157.14" fill="white"/>
<path d="M311.312 160.02C311.042 160.02 310.862 159.84 310.862 159.57C310.862 158.76 310.952 151.38 313.112 149.76C313.562 149.4 314.102 149.4 314.642 149.58C318.152 150.75 316.892 156.96 316.802 157.23C316.712 157.5 316.532 157.59 316.262 157.59C315.992 157.5 315.902 157.32 315.902 157.05C315.902 156.96 317.072 151.38 314.282 150.48C314.012 150.39 313.832 150.39 313.562 150.57C312.032 151.65 311.672 157.5 311.672 159.57C311.762 159.75 311.582 160.02 311.312 160.02ZM313.292 120.42L296.642 129.24C289.262 134.55 297.902 149.4 305.732 146.16L321.482 138.42L313.292 120.42Z" fill="#060405"/>
<path d="M361.62 138.69C354.33 137.43 336.33 135.09 321.57 138.42C319.41 138.33 316.89 136.17 315 133.29C312.03 128.97 310.41 122.85 313.29 119.52C313.29 119.52 326.61 98.5501 331.74 79.5601C331.47 85.7701 334.98 97.7401 341.37 110.7C345.06 118.35 354.33 134.73 361.62 138.69Z" fill="white"/>
<path d="M361.528 139.14C336.688 134.73 321.838 138.87 321.478 138.87C319.318 138.78 316.708 136.8 314.548 133.56C311.578 129.15 309.778 122.85 312.928 119.25C313.018 119.07 326.248 98.1901 331.288 79.4701C331.378 79.2901 331.558 79.1101 331.828 79.1101C332.098 79.1101 332.188 79.3801 332.188 79.5601C331.468 94.8601 351.358 132.39 361.888 138.24C362.338 138.6 362.068 139.23 361.528 139.14ZM331.378 82.5301C325.888 100.62 313.828 119.61 313.738 119.79C311.038 122.94 312.568 128.88 315.448 133.11C317.428 135.99 319.768 137.88 321.658 137.97C335.788 134.73 352.618 136.8 359.818 137.88C349.288 129.78 332.998 99.2701 331.378 82.5301Z" fill="#060405"/>
<mask id="path-38-inside-1_199_20" fill="white">
<path d="M255.781 151.29C255.781 151.29 271.081 156.96 281.161 171.99C283.141 175.77 273.511 201.78 262.261 202.68L244.531 192.42"/>
</mask>
<path d="M255.781 151.29C255.781 151.29 271.081 156.96 281.161 171.99C283.141 175.77 273.511 201.78 262.261 202.68L244.531 192.42" fill="#F81F8B"/>
<path d="M281.161 171.99L282.047 171.526L282.022 171.478L281.992 171.433L281.161 171.99ZM262.261 202.68L261.76 203.546L262.03 203.702L262.341 203.677L262.261 202.68ZM255.781 151.29C255.434 152.228 255.434 152.228 255.433 152.228C255.433 152.228 255.433 152.228 255.433 152.228C255.433 152.228 255.434 152.228 255.434 152.228C255.435 152.228 255.437 152.229 255.44 152.23C255.446 152.232 255.455 152.236 255.468 152.241C255.494 152.251 255.535 152.266 255.588 152.288C255.696 152.33 255.859 152.396 256.07 152.485C256.494 152.663 257.116 152.936 257.896 153.312C259.456 154.063 261.645 155.221 264.147 156.843C269.155 160.089 275.387 165.176 280.331 172.547L281.992 171.433C276.855 163.774 270.397 158.511 265.235 155.165C262.652 153.49 260.387 152.292 258.763 151.51C257.951 151.119 257.299 150.832 256.846 150.641C256.62 150.546 256.444 150.475 256.323 150.427C256.262 150.403 256.215 150.385 256.183 150.373C256.166 150.366 256.154 150.362 256.145 150.358C256.14 150.357 256.137 150.355 256.134 150.354C256.133 150.354 256.131 150.353 256.131 150.353C256.13 150.353 256.13 150.353 256.13 150.353C256.129 150.352 256.129 150.352 255.781 151.29ZM280.275 172.454C280.313 172.527 280.373 172.703 280.403 173.036C280.431 173.358 280.427 173.769 280.383 174.268C280.294 175.267 280.051 176.536 279.66 177.994C278.878 180.907 277.534 184.478 275.779 187.966C274.022 191.458 271.876 194.822 269.508 197.354C267.124 199.904 264.629 201.487 262.181 201.683L262.341 203.677C265.518 203.423 268.446 201.417 270.969 198.72C273.51 196.003 275.757 192.46 277.566 188.865C279.377 185.265 280.772 181.568 281.591 178.512C282 176.987 282.272 175.597 282.375 174.446C282.426 173.87 282.437 173.334 282.395 172.859C282.354 172.395 282.256 171.926 282.047 171.526L280.275 172.454ZM262.762 201.815L245.032 191.555L244.03 193.286L261.76 203.546L262.762 201.815Z" fill="#F81F8B" mask="url(#path-38-inside-1_199_20)"/>
<path d="M264.96 201.96C264.51 196.38 264.69 190.8 265.5 185.31L266.4 185.4C265.59 190.8 265.41 196.38 265.86 201.87L264.96 201.96Z" fill="black"/>
<path d="M153.27 338.49C159.732 338.49 164.97 333.252 164.97 326.79C164.97 320.328 159.732 315.09 153.27 315.09C146.809 315.09 141.57 320.328 141.57 326.79C141.57 333.252 146.809 338.49 153.27 338.49Z" fill="white"/>
<path d="M172.891 318.87H297.451V322.92H172.891V318.87ZM172.891 328.32H218.521V332.37H172.891V328.32ZM222.391 328.32H237.151V332.37H222.391V328.32ZM246.511 328.32H256.501V332.37H246.511V328.32ZM408.421 332.01H489.241V395.19H408.421V332.01Z" fill="white"/>
<path d="M489.689 395.73H407.969V331.65H489.689V395.73ZM408.869 394.83H488.789V332.55H408.869V394.83Z" fill="#060405"/>
<path d="M414.809 254.52C413.909 255.15 403.739 281.16 412.289 284.94C419.849 288.27 427.319 262.71 427.319 262.71L420.389 254.16L414.809 254.52Z" fill="white"/>
<path d="M412.109 285.39C410.039 284.49 408.869 282.33 408.509 279C407.609 270.09 413.639 254.79 414.539 254.16L414.629 254.07L420.569 253.71L427.859 262.62L427.769 262.89C427.499 263.7 422.009 282.24 415.529 285.3C414.359 285.75 413.279 285.84 412.109 285.39ZM414.989 254.97C413.999 256.5 407.789 272.25 409.679 280.53C410.129 282.6 411.119 283.95 412.469 284.58C413.279 284.94 414.179 284.94 415.079 284.49C420.839 281.79 426.149 265.05 426.779 262.89L420.119 254.7L414.989 254.97Z" fill="#060405"/>
<path d="M423.991 236.52C423.181 236.88 413.911 247.23 412.831 255.87C412.201 257.58 427.681 263.7 428.401 261.99L431.821 250.56L423.991 236.52Z" fill="#F97444"/>
<path d="M372.69 377.1V374.31H388.26C388.44 379.35 388.89 389.07 388.98 389.07H363.6C362.7 380.7 372.69 377.1 372.69 377.1Z" fill="#F97444"/>
<path d="M363.959 385.47C363.599 386.55 363.509 387.81 363.599 389.07H388.979C388.889 389.07 388.799 387.54 388.709 385.47H363.959ZM371.519 374.31C374.759 355.05 383.219 310.05 388.979 306.81C400.409 300.33 437.849 306.18 437.849 306.18L448.289 319.95L433.259 332.1H402.479L389.069 374.31C389.069 377.01 371.519 377.01 371.519 374.31Z" fill="#060405"/>
<path d="M420.391 306.81C421.201 303.39 423.361 279.72 423.541 275.13C423.901 266.31 419.401 248.04 421.921 239.85C423.361 235.26 430.831 230.67 435.331 228.87C438.931 227.43 448.921 225.81 453.511 226.53C458.011 227.25 466.201 230.58 469.801 234.45C475.741 244.62 471.241 288 467.461 306.72H420.391V306.81Z" fill="#F97444"/>
<path d="M424.441 274.86L433.351 273.6C434.521 273.42 435.151 272.25 434.611 271.17L425.341 254.7C424.981 254.07 424.351 253.62 423.541 253.8L414.631 255.06C413.461 255.24 412.831 256.41 413.371 257.49L422.731 273.96C423.001 274.5 423.721 274.95 424.441 274.86Z" fill="#060405"/>
<path d="M439.831 278.28C439.831 278.28 479.611 292.05 484.831 281.43C487.531 275.94 481.411 259.65 481.411 259.65L465.751 261L466.831 266.76L438.661 270.36C438.661 270.36 435.061 264.42 434.071 264.78C433.081 265.05 433.981 267.57 433.981 267.57C433.981 267.57 426.061 262.26 425.701 269.01C425.341 275.49 432.361 276.39 439.831 278.28Z" fill="white"/>
<path d="M473.85 285.84C460.62 285.84 441 279.09 439.65 278.64C438.93 278.46 438.12 278.28 437.4 278.1C431.01 276.57 424.89 275.13 425.25 268.74C425.34 266.94 425.97 265.77 427.05 265.23C428.94 264.33 431.82 265.59 433.26 266.4C433.17 265.86 433.08 265.14 433.35 264.69C433.44 264.42 433.71 264.24 433.98 264.15C434.88 263.88 436.5 265.77 438.93 269.73L466.289 266.22L465.21 260.46L481.68 259.11L481.77 259.47C482.04 260.1 487.889 276.03 485.189 281.61C483.659 284.76 479.34 285.84 473.85 285.84ZM428.669 265.86C428.219 265.86 427.86 265.95 427.5 266.13C426.69 266.49 426.24 267.48 426.24 268.83C425.97 274.5 431.099 275.67 437.67 277.29C438.389 277.47 439.199 277.65 439.919 277.83C440.279 278.01 479.34 291.42 484.38 281.16C486.72 276.39 481.86 262.35 481.05 260.01L466.2 261.27L467.28 266.94L438.39 270.72L438.21 270.45C436.68 267.93 434.7 265.23 434.16 265.05V265.14C433.98 265.5 434.16 266.58 434.43 267.3L434.88 268.56L433.8 267.84C432.81 267.21 430.469 265.86 428.669 265.86Z" fill="#060405"/>
<path d="M468.091 233.46C468.091 233.46 461.971 235.98 461.881 245.07C461.791 254.52 464.401 263.97 464.401 263.97C465.391 265.59 484.111 262.89 483.841 261.27C483.841 261 478.981 241.2 468.091 233.46Z" fill="#F97444"/>
<path d="M467.461 264.87C465.661 264.87 464.31 264.69 464.04 264.15L463.95 264.06C463.95 263.97 461.25 254.43 461.43 244.98H462.33C462.24 253.71 464.58 262.62 464.85 263.7C466.47 264.87 482.58 262.53 483.48 261.18V261.27L484.38 261.18C484.47 261.81 483.571 262.26 482.761 262.53C480.061 263.52 472.141 264.87 467.461 264.87Z" fill="#060405"/>
<path d="M399.782 377.1V374.31H415.352C415.532 379.35 415.982 389.07 416.072 389.07H390.692C389.882 380.7 399.782 377.1 399.782 377.1Z" fill="#F97444"/>
<path d="M391.139 385.47C390.779 386.55 390.689 387.81 390.779 389.07H416.159C416.069 389.07 415.979 387.54 415.889 385.47H391.139ZM467.459 306.81C467.729 307.17 466.379 315.27 464.399 322.2C462.779 327.96 457.559 332.01 451.529 332.01H432.269L416.429 376.11C416.249 377.55 398.429 375.84 398.699 374.49C398.699 374.49 409.049 311.04 413.009 307.53C424.349 297.54 467.459 306.81 467.459 306.81Z" fill="#060405"/>
<path d="M414.09 286.02C419.76 286.2 420.3 278.28 420.66 274.77C421.92 271.98 419.94 270.45 419.94 270.45C419.94 270.45 421.29 265.32 419.67 263.61C418.05 261.81 414.99 263.61 413.37 266.31C412.83 267.3 413.91 269.82 414 271.98C412.65 273.06 409.5 273.87 408.69 276.48C406.71 282.24 411.39 285.93 414.09 286.02Z" fill="white"/>
<path d="M413.999 286.47C412.289 286.38 410.219 285.12 409.049 283.41C408.059 281.97 407.069 279.63 408.149 276.3C408.779 274.32 410.579 273.33 412.109 272.52C412.649 272.25 413.099 271.98 413.459 271.71C413.369 270.9 413.189 270.09 413.009 269.28C412.739 267.84 412.469 266.67 412.829 265.95C413.999 263.97 415.979 262.53 417.599 262.35C418.499 262.26 419.309 262.53 419.849 263.16C421.379 264.87 420.569 269.01 420.299 270.18C420.839 270.72 422.009 272.34 420.929 274.77V275.04C420.569 280.53 419.399 286.65 413.999 286.47ZM420.119 275.04L420.209 274.59C421.289 272.16 419.669 270.81 419.669 270.72L419.399 270.54L419.489 270.27C419.849 268.92 420.479 265.14 419.309 263.79C418.949 263.34 418.409 263.16 417.779 263.25C416.429 263.34 414.719 264.69 413.639 266.4C413.369 266.85 413.639 268.02 413.909 269.1C414.089 270 414.359 270.99 414.359 271.89V272.07L414.179 272.25C413.729 272.61 413.099 272.97 412.469 273.33C411.119 274.05 409.499 274.95 408.959 276.57C407.969 279.54 408.869 281.61 409.679 282.87C410.939 284.67 412.739 285.48 413.909 285.57C418.769 285.66 419.669 279.72 420.119 275.04Z" fill="#060405"/>
<path d="M420.184 248.583L421.079 248.489L422.351 260.572L421.456 260.667L420.184 248.583Z" fill="#060405"/>
<path d="M422.549 192.33C422.729 192.78 413.909 231.93 420.479 231.03C427.589 230.04 440.459 225.99 440.729 224.1C440.999 222.12 433.439 196.83 433.439 196.83L429.209 189.54L422.549 192.33Z" fill="#060405"/>
<path d="M434.968 218.07C434.968 218.07 438.658 224.73 438.118 225.9C437.578 227.16 426.599 238.77 433.799 239.85C440.999 240.93 450.539 225.09 450.539 225.09C450.539 225.09 444.509 214.92 443.159 211.95C441.899 208.98 434.968 218.07 434.968 218.07Z" fill="white"/>
<path d="M434.43 240.39C434.16 240.39 433.89 240.39 433.71 240.3C432.36 240.12 431.46 239.49 431.1 238.59C429.93 235.71 434.25 230.22 436.59 227.25C437.13 226.53 437.67 225.9 437.76 225.72C438.03 225.09 436.41 221.31 434.7 218.25L434.52 217.98L434.7 217.71C435.6 216.54 440.28 210.51 442.53 210.78C442.89 210.78 443.34 210.96 443.61 211.68C444.87 214.65 450.9 224.73 450.9 224.82L451.08 225.09L450.9 225.36C450.54 225.99 441.72 240.39 434.43 240.39ZM435.51 218.16C436.5 220.05 439.11 224.91 438.48 226.17C438.39 226.44 437.94 226.89 437.22 227.88C435.15 230.49 430.92 235.89 431.91 238.32C432.18 238.95 432.81 239.31 433.8 239.49C440.1 240.39 448.74 227.07 450 225.18C449.1 223.56 443.97 215.01 442.8 212.22C442.71 211.95 442.53 211.86 442.44 211.86C441 211.68 437.58 215.55 435.51 218.16Z" fill="#060405"/>
<path d="M430.382 220.41C436.322 224.82 446.402 215.01 446.402 215.01L446.132 190.71L437.852 184.23C437.852 184.23 428.132 187.74 425.792 193.68C423.452 199.71 426.512 217.53 430.382 220.41Z" fill="white"/>
<path d="M433.978 222.03C432.628 222.03 431.278 221.67 430.108 220.77C426.058 217.8 422.908 199.71 425.338 193.5C427.768 187.38 437.308 183.87 437.668 183.78L437.938 183.69L446.578 190.44L446.848 215.1L446.668 215.19C446.398 215.64 439.828 222.03 433.978 222.03ZM437.848 184.68C436.408 185.22 428.308 188.55 426.238 193.86C423.988 199.71 426.958 217.26 430.648 220.05C435.868 223.92 444.778 215.91 445.948 214.83L445.678 190.98L437.848 184.68Z" fill="#060405"/>
<path d="M458.01 231.39C458.01 231.39 446.31 236.52 442.89 232.56C439.47 228.6 445.5 194.85 441.72 194.85C437.94 194.85 420.48 197.91 421.11 192.6C421.74 187.29 421.38 184.41 427.68 181.08C433.98 177.75 444.06 183.78 445.41 183.96C446.76 184.05 454.32 185.4 456.3 191.52C458.28 197.64 462.15 227.25 458.01 231.39Z" fill="#060405"/>
<path d="M438.477 200.408C438.504 199.563 438.042 198.863 437.446 198.844C436.85 198.825 436.345 199.494 436.318 200.339C436.291 201.183 436.753 201.884 437.349 201.902C437.945 201.921 438.45 201.252 438.477 200.408Z" fill="#060405"/>
<path d="M429.575 201.513C429.602 200.668 429.14 199.968 428.544 199.949C427.948 199.93 427.443 200.6 427.416 201.444C427.389 202.289 427.85 202.989 428.447 203.008C429.043 203.027 429.548 202.357 429.575 201.513Z" fill="#060405"/>
<path d="M432.362 207.27C432.182 207.27 432.002 207.18 431.822 207.09C431.282 206.64 431.462 205.92 431.552 205.56C431.912 204.3 431.912 202.86 431.642 201.51C431.552 201.24 431.732 201.06 432.002 200.97C432.272 200.88 432.452 201.06 432.542 201.33C432.812 202.77 432.722 204.3 432.362 205.74C432.272 206.19 432.362 206.28 432.362 206.28H432.542C432.632 206.19 432.812 206.1 432.902 205.92C433.082 205.74 433.352 205.74 433.532 205.83C433.712 206.01 433.712 206.28 433.622 206.46C433.442 206.64 433.262 206.82 432.992 207C432.722 207.18 432.542 207.27 432.362 207.27ZM434.072 214.92C433.532 214.92 432.992 214.83 432.452 214.74C432.182 214.65 432.092 214.38 432.182 214.2C432.272 213.93 432.542 213.84 432.722 213.93C434.252 214.38 436.322 213.93 437.132 213.03C437.312 212.85 437.582 212.85 437.762 213.03C437.942 213.21 437.942 213.48 437.762 213.66C437.042 214.38 435.512 214.92 434.072 214.92Z" fill="#060405"/>
<path d="M63.9903 355.86C60.1203 357.21 53.2803 357.75 49.0503 348.66C44.8203 339.57 49.8603 323.73 42.5703 316.62C42.5703 316.62 51.1203 316.89 58.8603 324.36C66.6903 331.92 76.5003 351.45 63.9903 355.86Z" fill="#008080"/>
<path d="M73.7999 346.77C68.4899 346.14 60.21 342.81 60.57 329.85C60.66 327.06 61.3799 324.18 62.4599 321.12C62.5499 320.94 62.6399 320.67 62.7299 320.49C66.7799 309.78 74.88 298.26 71.37 288.72C71.64 288.9 81.2699 294.12 85.9499 307.17C91.1699 322.47 89.9099 348.75 73.7999 346.77Z" fill="#12A67C"/>
<path d="M73.6211 326.61H74.5211V369.9H73.6211V326.61Z" fill="#060405"/>
<path d="M106.831 316.62C98.9114 324.27 105.481 341.46 98.8214 351.36C94.6814 357.57 88.9214 357.03 85.4114 355.86C76.4114 352.71 79.0214 341.73 84.0614 333C84.1514 332.82 84.2414 332.64 84.4214 332.46C86.3114 329.31 88.4714 326.43 90.5414 324.45C98.1914 316.89 106.831 316.62 106.831 316.62Z" fill="#008080"/>
<path d="M76.8789 371.491L91.5486 341.697L92.356 342.094L77.6863 371.889L76.8789 371.491Z" fill="#060405"/>
<path d="M56.9688 342.129L57.7761 341.731L72.4495 371.524L71.6421 371.921L56.9688 342.129Z" fill="#060405"/>
<path d="M82.3497 395.28H68.9397C68.1297 395.28 67.4097 394.65 67.3197 393.93L61.9197 370.62C61.7397 369.63 62.5497 368.73 63.5397 368.73L87.9297 368.82C88.9197 368.82 89.7297 369.72 89.5497 370.71L83.9697 394.02C83.8797 394.65 83.1597 395.28 82.3497 395.28Z" fill="white"/>
<path d="M82.3504 395.73H68.9404C67.9504 395.73 67.0504 395.01 66.8704 393.93L61.4704 370.62C61.2904 369.27 62.2804 368.19 63.5404 368.19L87.9304 368.28C89.1904 368.28 90.1804 369.45 90.0004 370.71L84.4204 394.02C84.3304 395.01 83.4304 395.73 82.3504 395.73ZM82.3504 394.83C82.9804 394.83 83.4304 394.38 83.5204 393.84L89.1004 370.53C89.1904 369.81 88.6504 369.18 87.9304 369.18L63.5404 369C62.8204 369 62.1904 369.63 62.3704 370.44L67.7704 393.75C67.8604 394.38 68.4004 394.83 68.9404 394.83H82.3504Z" fill="#060405"/>
<path d="M102.421 329.76V330.48L99.2711 332.1L99.0011 331.56L102.421 329.76ZM99.1811 350.82C99.0911 351 98.9111 351.18 98.8211 351.36L97.4711 349.74L97.9211 349.38L99.1811 350.82ZM86.1311 307.8L81.2711 312.03L80.8211 311.58L85.8611 307.17C85.8611 307.17 86.1311 307.71 86.1311 307.8ZM66.2411 323.73L65.7911 324.18L62.3711 321.12C62.4611 320.94 62.5511 320.67 62.6411 320.49L66.2411 323.73ZM87.5711 334.8C87.4811 334.98 87.4811 335.25 87.3911 335.43C86.7611 334.98 85.7711 334.26 84.0611 333C84.1511 332.82 84.2411 332.64 84.4211 332.46C85.5011 333.27 86.7611 334.17 87.5711 334.8Z" fill="white"/>
<path d="M403.202 187.47V214.02C403.202 215.19 402.212 216.18 401.042 216.18H393.212C392.042 216.18 391.052 217.17 391.052 218.34C391.052 220.05 389.162 221.04 387.722 220.14L382.142 216.54C381.782 216.36 381.422 216.18 380.972 216.18H358.832C357.662 216.18 356.672 215.19 356.672 214.02V187.47C356.672 186.3 357.662 185.31 358.832 185.31H401.132C402.212 185.31 403.202 186.3 403.202 187.47Z" fill="#FA58E0"/>
<path d="M395.279 196.83H364.499C363.509 196.83 362.699 196.02 362.699 195.03C362.699 194.04 363.509 193.23 364.499 193.23H395.279C396.269 193.23 397.079 194.04 397.079 195.03C397.079 196.02 396.269 196.83 395.279 196.83ZM375.569 201.06H364.679C363.779 201.06 362.879 201.69 362.789 202.68C362.699 203.76 363.509 204.66 364.589 204.66H375.659C376.649 204.66 377.459 203.85 377.459 202.86C377.369 201.87 376.559 201.06 375.569 201.06ZM386.999 201.06H384.299C383.309 201.06 382.499 201.87 382.499 202.86C382.499 203.85 383.309 204.66 384.299 204.66H387.089C388.169 204.66 388.979 203.76 388.889 202.68C388.799 201.78 387.899 201.06 386.999 201.06Z" fill="white"/>
<path d="M78.9293 106.92C86.9393 109.44 95.2193 108.09 101.789 103.95L97.6493 98.46L98.6393 97.74L99.6293 97.02L103.769 102.6C107.999 99.36 111.329 94.86 113.039 89.37C117.629 75.15 109.709 59.85 95.4893 55.35C81.2693 50.76 65.9693 58.68 61.4693 72.9C56.8793 87.12 64.7093 102.33 78.9293 106.92Z" fill="#060405"/>
<path d="M99.7189 77.58C99.7189 85.86 87.2989 92.88 87.2989 92.88C87.2989 92.88 74.8789 85.86 74.8789 77.58C74.8789 72.99 78.5689 69.3 83.1589 69.3C84.6889 69.3 86.1289 69.66 87.2989 70.38C88.5589 69.66 89.9089 69.3 91.4389 69.3C95.9389 69.3 99.7189 72.99 99.7189 77.58Z" fill="white"/>
<path d="M114.84 114.12L113.31 115.38L99.0898 96.2999L100.71 95.1299L114.84 114.12Z" fill="#060405"/>
<path d="M439.291 124.38L474.841 76.77L436.141 85.59L438.571 96.3L456.031 89.1L439.201 105.75L439.291 124.38Z" fill="#6193F6"/>
<path d="M438.57 96.3001L445.5 99.5401L456.03 89.1001L438.57 96.3001Z" fill="#060405"/>
<path d="M311.762 69.1199H280.982C280.802 69.1199 280.622 68.9399 280.622 68.7599C280.622 68.5799 280.802 68.3999 280.982 68.3999H311.762C311.942 68.3999 312.122 68.5799 312.122 68.7599C312.122 68.9399 311.942 69.1199 311.762 69.1199ZM311.762 84.4199H280.982C280.802 84.4199 280.622 84.2399 280.622 84.0599C280.622 83.8799 280.802 83.6999 280.982 83.6999H311.762C311.942 83.6999 312.122 83.8799 312.122 84.0599C312.122 84.2399 311.942 84.4199 311.762 84.4199ZM306.182 76.7699H262.712C262.532 76.7699 262.352 76.5899 262.352 76.4099C262.352 76.2299 262.532 76.0499 262.712 76.0499H306.182C306.362 76.0499 306.542 76.2299 306.542 76.4099C306.542 76.5899 306.362 76.7699 306.182 76.7699Z" fill="#25E498"/>
<path d="M287.372 69.1199C287.192 69.1199 287.012 68.9399 287.012 68.7599V62.2799C287.012 62.0999 287.192 61.9199 287.372 61.9199C287.552 61.9199 287.732 62.0999 287.732 62.2799V68.7599C287.642 68.9399 287.552 69.1199 287.372 69.1199ZM298.172 76.7699C297.992 76.7699 297.812 76.5899 297.812 76.4099V68.7599C297.812 68.5799 297.992 68.3999 298.172 68.3999C298.352 68.3999 298.532 68.5799 298.532 68.7599V76.4099C298.442 76.5899 298.352 76.7699 298.172 76.7699ZM289.892 84.1499C289.712 84.1499 289.532 83.9699 289.532 83.7899V76.4099C289.532 76.2299 289.712 76.0499 289.892 76.0499C290.072 76.0499 290.252 76.2299 290.252 76.4099V83.7899C290.252 83.9699 290.072 84.1499 289.892 84.1499Z" fill="#25E498"/>
</svg>
