<svg width="540" height="450" viewBox="0 0 540 450" fill="none" xmlns="http://www.w3.org/2000/svg">
<path d="M167.039 361.89H157.589C157.049 361.89 156.509 361.44 156.419 360.9L152.639 344.52C152.549 343.8 153.089 343.17 153.809 343.17H170.999C171.719 343.17 172.259 343.8 172.169 344.52L168.209 360.9C168.119 361.44 167.669 361.89 167.039 361.89Z" fill="white"/>
<path d="M167.039 362.34H157.589C156.779 362.34 156.149 361.8 155.969 360.99L152.189 344.61C152.009 343.53 152.819 342.72 153.809 342.72H170.999C171.989 342.72 172.709 343.62 172.619 344.61L168.659 361.08C168.479 361.71 167.849 362.34 167.039 362.34ZM153.809 343.53C153.359 343.53 152.999 343.89 153.089 344.34L156.869 360.72C156.959 361.08 157.229 361.35 157.589 361.35H167.039C167.399 361.35 167.669 361.08 167.759 360.72L171.719 344.25C171.809 343.89 171.449 343.44 170.999 343.44L153.809 343.53Z" fill="#060405"/>
<path opacity="0.3" d="M489.961 361.44C519.301 295.92 477.001 262.53 468.001 238.14C459.091 213.75 522.991 65.7 359.821 54.54C282.871 49.32 277.831 80.01 244.981 73.98C217.621 68.94 178.831 41.04 154.711 54.09C130.591 67.14 113.311 92.79 116.191 118.71C118.621 140.4 134.101 160.47 130.951 182.07C127.891 203.22 108.001 218.34 89.1006 230.31C70.2006 242.28 49.3206 254.88 42.0306 275.13C34.8306 295.02 43.2006 317.43 57.6906 333.45C68.1306 344.97 81.3606 353.79 95.2206 361.8L489.961 361.44Z" fill="#86E9DC"/>
<path d="M173.161 123.3H135.001C134.821 123.3 134.641 123.12 134.641 122.94C134.641 122.76 134.821 122.58 135.001 122.58H173.161C173.341 122.58 173.521 122.76 173.521 122.94C173.521 123.12 173.341 123.3 173.161 123.3ZM173.161 142.2H135.001C134.821 142.2 134.641 142.02 134.641 141.84C134.641 141.66 134.821 141.48 135.001 141.48H173.161C173.341 141.48 173.521 141.66 173.521 141.84C173.521 142.02 173.341 142.2 173.161 142.2ZM166.231 132.75H112.231C112.051 132.75 111.871 132.57 111.871 132.39C111.871 132.21 112.051 132.03 112.231 132.03H166.231C166.411 132.03 166.591 132.21 166.591 132.39C166.591 132.57 166.411 132.75 166.231 132.75Z" fill="#25E498"/>
<path d="M142.829 123.3C142.649 123.3 142.469 123.12 142.469 122.94V114.93C142.469 114.75 142.649 114.57 142.829 114.57C143.009 114.57 143.189 114.75 143.189 114.93V122.94C143.189 123.12 143.009 123.3 142.829 123.3ZM156.239 132.75C156.059 132.75 155.879 132.57 155.879 132.39V122.94C155.879 122.76 156.059 122.58 156.239 122.58C156.419 122.58 156.599 122.76 156.599 122.94V132.39C156.599 132.57 156.419 132.75 156.239 132.75ZM146.069 141.84C145.889 141.84 145.709 141.66 145.709 141.48V132.3C145.709 132.12 145.889 131.94 146.069 131.94C146.249 131.94 146.429 132.12 146.429 132.3V141.48C146.339 141.75 146.249 141.84 146.069 141.84ZM396.719 75.06H358.559C358.379 75.06 358.199 74.88 358.199 74.7C358.199 74.52 358.379 74.34 358.559 74.34H396.719C396.899 74.34 397.079 74.52 397.079 74.7C397.079 74.88 396.899 75.06 396.719 75.06ZM396.719 93.96H358.559C358.379 93.96 358.199 93.78 358.199 93.6C358.199 93.42 358.379 93.24 358.559 93.24H396.719C396.899 93.24 397.079 93.42 397.079 93.6C397.079 93.78 396.899 93.96 396.719 93.96ZM389.789 84.51H335.789C335.609 84.51 335.429 84.33 335.429 84.15C335.429 83.97 335.609 83.79 335.789 83.79H389.789C389.969 83.79 390.149 83.97 390.149 84.15C390.149 84.33 389.969 84.51 389.789 84.51Z" fill="#25E498"/>
<path d="M366.388 75.06C366.208 75.06 366.028 74.88 366.028 74.7V66.6C366.028 66.42 366.208 66.24 366.388 66.24C366.568 66.24 366.748 66.42 366.748 66.6V74.7C366.748 74.88 366.568 75.06 366.388 75.06ZM379.798 84.51C379.618 84.51 379.438 84.33 379.438 84.15V74.7C379.438 74.52 379.618 74.34 379.798 74.34C379.978 74.34 380.158 74.52 380.158 74.7V84.15C380.158 84.33 379.978 84.51 379.798 84.51ZM369.628 93.6C369.448 93.6 369.268 93.42 369.268 93.24V84.15C369.268 83.97 369.448 83.79 369.628 83.79C369.808 83.79 369.988 83.97 369.988 84.15V93.33C369.988 93.51 369.808 93.6 369.628 93.6ZM201.868 256.14H163.708C163.528 256.14 163.348 255.96 163.348 255.78C163.348 255.6 163.528 255.42 163.708 255.42H201.868C202.048 255.42 202.228 255.6 202.228 255.78C202.228 255.96 202.048 256.14 201.868 256.14ZM201.868 275.04H163.708C163.528 275.04 163.348 274.86 163.348 274.68C163.348 274.5 163.528 274.32 163.708 274.32H201.868C202.048 274.32 202.228 274.5 202.228 274.68C202.228 274.86 202.048 275.04 201.868 275.04ZM194.938 265.59H140.938C140.758 265.59 140.578 265.41 140.578 265.23C140.578 265.05 140.758 264.87 140.938 264.87H194.938C195.118 264.87 195.298 265.05 195.298 265.23C195.298 265.41 195.118 265.59 194.938 265.59Z" fill="#25E498"/>
<path d="M171.63 256.14C171.45 256.14 171.27 255.96 171.27 255.78V247.77C171.27 247.59 171.45 247.41 171.63 247.41C171.81 247.41 171.99 247.59 171.99 247.77V255.78C171.9 255.96 171.81 256.14 171.63 256.14ZM185.04 265.59C184.86 265.59 184.68 265.41 184.68 265.23V255.78C184.68 255.6 184.86 255.42 185.04 255.42C185.22 255.42 185.4 255.6 185.4 255.78V265.23C185.31 265.41 185.22 265.59 185.04 265.59ZM174.78 274.68C174.6 274.68 174.42 274.5 174.42 274.32V265.14C174.42 264.96 174.6 264.78 174.78 264.78C174.96 264.78 175.14 264.96 175.14 265.14V274.32C175.14 274.59 174.96 274.68 174.78 274.68ZM410.67 218.88H372.51C372.33 218.88 372.15 218.7 372.15 218.52C372.15 218.34 372.33 218.16 372.51 218.16H410.67C410.85 218.16 411.03 218.34 411.03 218.52C411.03 218.7 410.85 218.88 410.67 218.88ZM410.67 237.87H372.51C372.33 237.87 372.15 237.69 372.15 237.51C372.15 237.33 372.33 237.15 372.51 237.15H410.67C410.85 237.15 411.03 237.33 411.03 237.51C411.03 237.69 410.85 237.87 410.67 237.87ZM403.74 228.33H349.74C349.56 228.33 349.38 228.15 349.38 227.97C349.38 227.79 349.56 227.61 349.74 227.61H403.74C403.92 227.61 404.1 227.79 404.1 227.97C404.1 228.15 403.92 228.33 403.74 228.33Z" fill="#25E498"/>
<path d="M380.34 218.88C380.16 218.88 379.98 218.7 379.98 218.52V210.51C379.98 210.33 380.16 210.15 380.34 210.15C380.52 210.15 380.7 210.33 380.7 210.51V218.52C380.7 218.79 380.52 218.88 380.34 218.88ZM393.75 228.33C393.57 228.33 393.39 228.15 393.39 227.97V218.52C393.39 218.34 393.57 218.16 393.75 218.16C393.93 218.16 394.11 218.34 394.11 218.52V227.97C394.11 228.24 393.93 228.33 393.75 228.33ZM383.58 237.51C383.4 237.51 383.22 237.33 383.22 237.15V227.97C383.22 227.79 383.4 227.61 383.58 227.61C383.76 227.61 383.94 227.79 383.94 227.97V237.15C383.85 237.33 383.76 237.51 383.58 237.51Z" fill="#25E498"/>
<path d="M334.17 363.6H208.98C199.35 363.6 191.52 355.77 191.52 346.14V95.58C191.52 85.95 199.35 78.12 208.98 78.12H334.17C343.8 78.12 351.63 85.95 351.63 95.58V346.23C351.63 355.77 343.8 363.6 334.17 363.6Z" fill="#060405"/>
<path d="M191.52 102.87H351.54V338.85H191.52V102.87Z" fill="white"/>
<path d="M221.94 232.74C231.334 232.74 238.95 225.124 238.95 215.73C238.95 206.336 231.334 198.72 221.94 198.72C212.545 198.72 204.93 206.336 204.93 215.73C204.93 225.124 212.545 232.74 221.94 232.74Z" fill="#FE6021"/>
<path d="M222.299 214.74C224.287 214.74 225.899 213.128 225.899 211.14C225.899 209.152 224.287 207.54 222.299 207.54C220.311 207.54 218.699 209.152 218.699 211.14C218.699 213.128 220.311 214.74 222.299 214.74Z" fill="white"/>
<path d="M214.831 223.74H229.051C229.501 223.74 229.771 223.38 229.681 222.93C228.691 219.6 225.631 217.08 221.941 217.08C218.251 217.08 215.101 219.6 214.201 222.93C214.111 223.29 214.381 223.74 214.831 223.74Z" fill="white"/>
<path d="M338.131 203.67V225.9C338.131 226.89 337.321 227.7 336.331 227.7H252.451C251.461 227.7 250.651 226.89 250.651 225.9V220.59C250.651 219.96 250.381 219.42 249.841 219.15L245.521 216.27C244.441 215.55 244.441 214.02 245.521 213.3L249.841 210.42C250.291 210.06 250.651 209.52 250.651 208.98V203.67C250.651 202.68 251.461 201.87 252.451 201.87H336.331C337.321 201.87 338.131 202.68 338.131 203.67Z" fill="#FED8DF"/>
<path d="M320.491 209.34H331.291V212.94H320.491V209.34ZM262.891 209.34H316.081V212.94H262.891V209.34ZM262.891 216.54H276.211V220.14H262.891V216.54ZM279.901 216.54H287.011V220.14H279.901V216.54Z" fill="white"/>
<path d="M321.209 277.74C330.604 277.74 338.219 270.124 338.219 260.73C338.219 251.336 330.604 243.72 321.209 243.72C311.815 243.72 304.199 251.336 304.199 260.73C304.199 270.124 311.815 277.74 321.209 277.74Z" fill="#1AC1C1"/>
<path d="M320.85 259.74C322.838 259.74 324.45 258.128 324.45 256.14C324.45 254.152 322.838 252.54 320.85 252.54C318.862 252.54 317.25 254.152 317.25 256.14C317.25 258.128 318.862 259.74 320.85 259.74Z" fill="white"/>
<path d="M328.32 268.74H314.1C313.65 268.74 313.38 268.38 313.47 267.93C314.46 264.6 317.52 262.08 321.21 262.08C324.9 262.08 328.05 264.6 328.95 267.93C329.04 268.29 328.68 268.74 328.32 268.74Z" fill="white"/>
<path d="M205.02 248.67V270.9C205.02 271.89 205.83 272.7 206.82 272.7H290.7C291.69 272.7 292.5 271.89 292.5 270.9V265.59C292.5 264.96 292.77 264.42 293.31 264.15L297.63 261.27C298.71 260.55 298.71 259.02 297.63 258.3L293.31 255.42C292.86 255.06 292.5 254.52 292.5 253.98V248.67C292.5 247.68 291.69 246.87 290.7 246.87H206.82C205.74 246.87 205.02 247.68 205.02 248.67Z" fill="#FED8DF"/>
<path d="M216.18 254.34H230.31V257.94H216.18V254.34ZM241.83 254.34H284.58V257.94H241.83V254.34ZM260.37 261.63H263.79V265.23H260.37V261.63ZM278.37 261.63H284.49V265.23H278.37V261.63ZM269.1 261.63H274.68V265.23H269.1V261.63Z" fill="white"/>
<path d="M221.94 322.74C231.334 322.74 238.95 315.124 238.95 305.73C238.95 296.336 231.334 288.72 221.94 288.72C212.545 288.72 204.93 296.336 204.93 305.73C204.93 315.124 212.545 322.74 221.94 322.74Z" fill="#FE6021"/>
<path d="M222.299 304.74C224.287 304.74 225.899 303.128 225.899 301.14C225.899 299.152 224.287 297.54 222.299 297.54C220.311 297.54 218.699 299.152 218.699 301.14C218.699 303.128 220.311 304.74 222.299 304.74Z" fill="white"/>
<path d="M214.831 313.74H229.051C229.501 313.74 229.771 313.38 229.681 312.93C228.691 309.6 225.631 307.08 221.941 307.08C218.251 307.08 215.101 309.6 214.201 312.93C214.111 313.29 214.381 313.74 214.831 313.74Z" fill="white"/>
<path d="M338.131 293.67V315.9C338.131 316.89 337.321 317.7 336.331 317.7H252.451C251.461 317.7 250.651 316.89 250.651 315.9V310.59C250.651 309.96 250.381 309.42 249.841 309.15L245.521 306.27C244.441 305.55 244.441 304.02 245.521 303.3L249.841 300.42C250.291 300.06 250.651 299.52 250.651 298.98V293.67C250.651 292.68 251.461 291.87 252.451 291.87H336.331C337.321 291.87 338.131 292.68 338.131 293.67Z" fill="#FED8DF"/>
<path d="M257.309 299.34H302.039V302.94H257.309V299.34ZM321.659 299.34H325.709V302.94H321.659V299.34ZM307.709 299.34H315.179V302.94H307.709V299.34ZM257.309 306.63H272.609V310.23H257.309V306.63ZM276.839 306.63H281.519V310.23H276.839V306.63Z" fill="white"/>
<path opacity="0.05" d="M257.759 122.67V182.43C257.759 184.86 255.779 186.75 253.439 186.75H191.609V118.26H253.439C255.779 118.35 257.759 120.33 257.759 122.67Z" fill="black"/>
<path d="M251.908 185.49H169.648C167.218 185.49 165.328 183.6 165.328 181.17V121.32C165.328 118.89 167.218 117 169.648 117H251.908C254.338 117 256.228 118.89 256.228 121.32V181.17C256.228 183.6 254.338 185.49 251.908 185.49Z" fill="#FCF0CF"/>
<path opacity="0.05" d="M351.538 118.8V187.29H273.058C270.628 187.29 268.738 185.31 268.738 182.97V123.21C268.738 120.78 270.718 118.89 273.058 118.89H351.538V118.8Z" fill="black"/>
<path d="M362.969 185.49H274.949C272.519 185.49 270.629 183.6 270.629 181.17V121.32C270.629 118.89 272.519 117 274.949 117H362.969C365.399 117 367.289 118.89 367.289 121.32V181.17C367.289 183.6 365.399 185.49 362.969 185.49Z" fill="#12A67C"/>
<path d="M231.481 156.42C230.941 158.49 230.131 160.47 229.051 162.27L232.111 167.58L227.071 172.62L221.761 169.56C219.961 170.64 217.981 171.45 215.911 171.99L214.291 177.84H207.181L205.561 171.99C203.491 171.45 201.511 170.64 199.711 169.56L194.401 172.62L189.361 167.58L192.421 162.27C191.341 160.47 190.531 158.49 189.991 156.42L184.141 154.8V147.69L189.991 146.07C190.531 144 191.341 142.02 192.421 140.22L189.361 134.91L194.401 129.87L199.711 132.93C201.511 131.85 203.491 131.04 205.561 130.5L207.181 124.65H214.291L215.911 130.5C217.981 131.04 219.961 131.85 221.761 132.93L227.071 129.87L232.111 134.91L229.051 140.22C230.131 142.02 230.941 144 231.481 146.07L237.331 147.69V154.8L231.481 156.42Z" fill="#F6CC61"/>
<path d="M210.78 164.07C217.838 164.07 223.56 158.348 223.56 151.29C223.56 144.232 217.838 138.51 210.78 138.51C203.722 138.51 198 144.232 198 151.29C198 158.348 203.722 164.07 210.78 164.07Z" fill="#FCF0CF"/>
<path d="M299.969 171.81C311.302 171.81 320.489 162.623 320.489 151.29C320.489 139.957 311.302 130.77 299.969 130.77C288.636 130.77 279.449 139.957 279.449 151.29C279.449 162.623 288.636 171.81 299.969 171.81Z" fill="#FED8DF"/>
<path d="M304.019 141.84C304.019 141.84 306.719 149.94 306.809 151.56C306.809 155.25 302.939 153.99 302.939 153.99L299.429 153.81L297.539 152.73L296.459 150.75C296.459 150.75 295.919 146.61 296.099 146.43C296.279 146.34 297.359 141.21 297.449 141.12C297.539 141.03 299.879 140.76 300.149 140.85C300.329 140.85 304.019 141.84 304.019 141.84Z" fill="white"/>
<path d="M309.15 166.32C309.15 166.32 306.09 157.59 299.97 157.95C293.85 158.31 292.32 166.32 292.32 166.32C292.32 166.32 300.06 170.82 309.15 166.32Z" fill="#F81F8B"/>
<path d="M300.781 154.44C300.871 154.62 302.041 159.57 300.961 160.29C300.421 160.65 299.341 160.65 298.531 160.56C297.811 160.47 297.181 159.93 297.001 159.21L296.641 154.53H300.781V154.44Z" fill="white"/>
<path d="M298.35 144.27C298.35 144.27 297.9 151.74 299.97 152.19C302.04 152.64 302.85 150.39 304.29 150.84C305.73 151.29 306.81 151.47 306.81 151.47C306.81 151.47 307.44 154.89 304.83 155.79C302.22 156.69 297.54 155.97 296.64 154.62C295.74 153.27 293.49 137.79 297.9 136.62C302.4 135.45 299.79 138.33 299.79 138.33C299.79 138.33 303.66 135 304.11 136.35C304.56 137.7 303.57 138.78 303.57 138.78C303.57 138.78 307.89 138.51 305.46 141.21C303.12 143.91 298.98 142.65 298.35 144.27Z" fill="#060405"/>
<path d="M303.208 149.58C302.938 149.58 302.848 149.4 302.848 149.22C302.848 149.04 303.028 148.86 303.208 148.86V148.59C303.208 148.5 303.118 148.41 302.938 148.14C302.668 147.6 302.488 146.97 302.578 146.34C302.578 146.16 302.758 145.98 302.938 145.98C303.118 145.98 303.298 146.16 303.298 146.34C303.298 146.79 303.388 147.33 303.568 147.69C303.658 147.87 303.748 148.05 303.838 148.14C303.928 148.41 303.928 148.68 303.838 148.86C303.748 149.4 303.478 149.58 303.208 149.58Z" fill="#060405"/>
<path d="M301.125 146.86C301.323 146.836 301.453 146.576 301.417 146.28C301.381 145.984 301.191 145.763 300.994 145.788C300.797 145.812 300.666 146.071 300.702 146.367C300.739 146.663 300.928 146.884 301.125 146.86Z" fill="#181659"/>
<path d="M304.367 146.236C304.614 146.206 304.784 145.942 304.748 145.646C304.712 145.35 304.482 145.134 304.236 145.164C303.989 145.195 303.818 145.459 303.855 145.755C303.891 146.051 304.12 146.267 304.367 146.236Z" fill="#181659"/>
<path d="M302.848 153.72C302.668 153.72 302.578 153.45 302.578 153.27C302.578 153.09 302.848 153 303.028 153C303.658 153.09 304.288 152.91 304.738 152.55C304.918 152.46 305.098 152.46 305.278 152.55C305.368 152.73 305.368 152.91 305.278 153.09C304.558 153.63 303.658 153.9 302.848 153.72ZM357.928 146.07H330.298C329.398 146.07 328.678 145.35 328.678 144.45V136.08C328.678 135.18 329.398 134.46 330.298 134.46H357.838C358.738 134.46 359.458 135.18 359.458 136.08V144.45C359.548 145.35 358.828 146.07 357.928 146.07ZM328.678 150.48H359.548V153.09H328.678V150.48ZM328.678 156.6H359.548V159.21H328.678V156.6ZM328.678 162.81H342.988V165.42H328.678V162.81Z" fill="white"/>
<path d="M69.1194 386.91L82.3494 292.59L98.6394 386.91H110.969L115.559 259.74H54.8994C54.2694 261.18 52.1094 277.11 52.1094 292.05C52.1994 324.36 55.5294 374.4 56.6994 387.18L69.1194 386.91Z" fill="#060405"/>
<path d="M69.6602 388.98V386.82H56.7902C56.6102 390.96 56.2502 398.79 56.1602 398.79H77.0402C77.7602 392.04 69.6602 388.98 69.6602 388.98Z" fill="#FE6021"/>
<path d="M76.77 395.91C77.04 396.81 77.13 397.8 77.04 398.88H56.25C56.25 398.88 56.34 397.62 56.43 395.91H76.77Z" fill="#060405"/>
<path d="M111.422 388.98V386.82H98.6417C98.4617 390.96 98.1017 398.79 98.0117 398.79H118.892C119.612 392.04 111.422 388.98 111.422 388.98Z" fill="#FE6021"/>
<path d="M118.622 395.91C118.892 396.81 118.982 397.8 118.892 398.88H98.0117C98.0117 398.88 98.1017 397.62 98.1917 395.91H118.622Z" fill="#060405"/>
<path d="M164.161 172.98C163.351 175.68 159.571 177.21 159.571 177.21L138.241 207.81C135.631 211.68 130.951 213.48 126.361 212.4L102.691 206.64L116.281 187.29C116.281 187.29 127.621 192.78 127.711 192.33C127.801 191.88 151.831 168.57 151.831 168.57C151.831 168.57 149.401 161.55 151.291 161.19C153.181 160.83 154.621 163.53 154.621 163.53C154.621 163.53 160.921 153.72 162.181 154.98C163.441 156.24 158.851 166.05 158.851 166.05C158.851 166.05 164.971 170.28 164.161 172.98Z" fill="white"/>
<path d="M128.969 213.21C128.069 213.21 127.169 213.12 126.269 212.85L101.969 206.91L116.099 186.66L116.459 186.84C121.139 189.09 126.449 191.52 127.529 191.79C128.429 190.71 132.569 186.57 151.289 168.39C150.839 167.13 149.489 162.72 150.389 161.28C150.569 160.92 150.839 160.74 151.199 160.74C152.819 160.47 153.989 161.82 154.619 162.72C156.059 160.47 160.109 154.62 161.819 154.44C162.089 154.44 162.359 154.53 162.539 154.71C163.889 156.06 160.739 163.26 159.479 165.96C160.829 166.95 165.419 170.46 164.609 173.07C163.799 175.68 160.559 177.21 159.929 177.57L138.599 208.08C136.439 211.32 132.749 213.21 128.969 213.21ZM103.499 206.37L126.449 211.95C130.769 213.03 135.359 211.23 137.789 207.54L159.209 176.85L159.299 176.76C159.299 176.76 162.899 175.23 163.619 172.8C164.249 170.91 160.109 167.49 158.579 166.41L158.309 166.23L158.489 165.87C160.919 160.74 162.449 155.88 161.909 155.34C161.189 155.34 158.039 159.21 155.069 163.8L154.619 164.43L154.259 163.71C154.259 163.71 152.999 161.37 151.469 161.55C151.379 161.55 151.379 161.55 151.289 161.73C150.749 162.72 151.649 166.32 152.369 168.39L152.459 168.66L152.279 168.84C143.099 177.75 129.239 191.16 128.249 192.42V192.51L128.069 192.6C127.799 192.69 127.439 192.96 116.549 187.74L103.499 206.37ZM127.529 191.97C127.439 192.06 127.349 192.15 127.349 192.24C127.349 192.24 127.349 192.15 127.529 191.97Z" fill="#060405"/>
<path d="M103.949 177.48C103.949 177.48 121.319 183.33 123.479 185.76C122.669 195.57 118.979 202.95 113.579 208.89" fill="#FE6021"/>
<path d="M117.901 269.82C117.901 276.03 52.651 275.13 51.301 268.74C51.301 268.74 52.111 246.78 50.491 225.72H44.191C44.101 220.05 44.101 207.81 44.731 203.31C46.081 192.96 48.961 190.44 51.481 186.75C52.561 185.22 59.941 179.37 64.621 177.66C68.491 176.22 76.591 174.6 80.731 174.42C86.491 174.24 108.001 174.42 112.681 183.33C119.881 197.28 117.901 269.82 117.901 269.82Z" fill="#FE6021"/>
<path d="M108.18 247.77C108.18 247.77 111.87 241.56 114.84 243.54C117.72 245.43 113.4 248.58 113.22 248.67" fill="white"/>
<path d="M113.67 249.03L112.95 248.4L113.04 248.31C115.11 246.69 115.38 245.61 115.38 245.16C115.38 244.71 115.11 244.35 114.57 243.99C114.12 243.72 113.67 243.63 113.13 243.72C110.88 244.26 108.54 248.04 108.54 248.04L107.73 247.59C107.82 247.41 110.25 243.45 112.86 242.82C113.67 242.64 114.39 242.82 115.02 243.18C115.74 243.72 116.19 244.35 116.19 245.07C116.37 246.24 115.47 247.59 113.67 249.03Z" fill="#060405"/>
<path d="M135.72 274.05H110.25C108.36 274.05 107.01 272.25 107.55 270.45L117.09 233.91C117.45 232.65 118.53 231.84 119.79 231.84H145.26C147.15 231.84 148.5 233.64 147.96 235.44L138.42 271.98C138.15 273.15 137.07 274.05 135.72 274.05Z" fill="white"/>
<path d="M135.718 274.5H110.248C108.088 274.5 106.468 272.43 107.098 270.36L116.548 233.82C116.908 232.38 118.258 231.39 119.698 231.39H145.168C147.328 231.39 148.948 233.46 148.318 235.53L138.868 272.07C138.508 273.51 137.248 274.5 135.718 274.5ZM119.788 232.29C118.708 232.29 117.808 233.01 117.448 234.09L107.998 270.54C107.548 272.07 108.718 273.51 110.338 273.51H135.808C136.888 273.51 137.788 272.79 138.148 271.71L147.598 235.17C148.048 233.64 146.878 232.2 145.258 232.2H119.788V232.29Z" fill="#060405"/>
<path d="M113.399 248.67C113.849 248.67 128.159 247.41 127.799 257.04C127.529 263.88 107.549 260.01 107.549 260.01C107.549 260.01 52.649 264.42 45.269 256.14C42.569 253.17 44.189 221.31 44.189 221.31L67.949 221.49V238.86L108.359 247.77" fill="white"/>
<path d="M77.9382 261.63C63.5382 261.63 48.5982 260.55 44.9082 256.41C42.2082 253.35 43.5582 224.46 43.7382 221.22V220.77L68.3982 220.95V238.5L108.448 247.32L108.268 248.22L67.4982 239.22V221.94L44.6382 221.76C44.0082 234.54 43.7382 253.8 45.6282 255.87C52.7382 263.88 106.918 259.65 107.548 259.56H107.728C107.908 259.56 122.218 262.35 126.358 259.02C127.078 258.48 127.348 257.85 127.438 257.04C127.528 254.97 126.898 253.35 125.638 252.09C122.578 249.03 116.278 249.03 113.668 249.12H113.488V248.22H113.668C116.368 248.04 122.938 248.13 126.268 251.46C127.708 252.9 128.428 254.79 128.338 257.13C128.248 258.21 127.798 259.11 126.898 259.83C122.488 263.34 108.718 260.82 107.548 260.55C105.928 260.64 92.2482 261.63 77.9382 261.63Z" fill="#060405"/>
<path d="M69.7511 228.24C70.1111 220.77 68.3111 205.38 66.4211 200.25C62.4611 189.54 51.3911 186.93 51.3911 186.93C51.3911 186.93 45.0911 193.41 43.6511 203.76C43.0211 208.26 42.1211 221.13 42.1211 226.8C49.1411 228.78 59.4911 229.95 69.7511 228.24Z" fill="#FE6021"/>
<path d="M59.3113 229.5C53.2813 229.5 47.2513 228.69 42.0312 227.25L42.3012 226.35C50.4913 228.69 60.5712 229.23 69.3912 227.79C69.7512 220.32 67.9513 205.38 66.0613 200.34L66.8713 200.07C68.7613 205.29 70.6513 220.86 70.2013 228.24V228.6L69.8412 228.69C66.5112 229.23 62.9113 229.5 59.3113 229.5Z" fill="#060405"/>
<path d="M86.6697 163.53C86.6697 163.53 88.6497 171.36 90.9897 174.87C92.6997 177.48 89.4597 182.52 86.5797 184.05C81.8097 186.57 72.5397 175.32 72.5397 175.32L72.1797 146.52L86.6697 163.53Z" fill="white"/>
<path d="M72.0906 175.68L72.0006 175.5V175.32L71.6406 145.35L87.1206 163.35V163.44C87.1206 163.53 89.1906 171.27 91.3506 174.69C91.8906 175.59 92.0706 176.76 91.7106 178.2C91.0806 180.72 88.9206 183.42 86.7606 184.5C82.5306 186.75 75.1506 179.28 72.0906 175.68ZM72.9006 175.14C75.5106 178.29 82.7106 185.58 86.3106 183.69C88.2006 182.7 90.1806 180.18 90.8106 177.93C90.9906 177.12 91.1706 176.04 90.6306 175.14C88.4706 171.81 86.5806 164.7 86.3106 163.71L72.6306 147.78L72.9006 175.14Z" fill="#060405"/>
<path d="M72.6295 143.37C72.8995 143.73 75.1495 166.77 89.0095 165.24C102.87 163.71 99.2695 135 93.0595 128.61C86.8495 122.22 74.1595 127.98 74.1595 127.98L70.0195 137.97L72.6295 143.37Z" fill="white"/>
<path d="M87.7502 165.69C80.1902 165.69 74.7002 158.13 72.3602 144.18C72.2702 143.82 72.2702 143.64 72.2702 143.55L69.6602 137.97L73.9802 127.62L74.1602 127.53C74.7002 127.26 87.2102 121.77 93.5102 128.25C98.1002 133.02 101.07 148.59 97.7402 158.04C96.1202 162.63 93.1502 165.24 89.1902 165.69H87.7502ZM73.0802 143.1C73.1702 143.19 73.1702 143.37 73.2602 144C75.6902 158.4 81.0902 165.6 89.0102 164.7C92.6102 164.25 95.3102 161.91 96.7502 157.68C99.9902 148.68 97.1102 133.38 92.7902 128.88C87.2102 123.21 76.0502 127.62 74.6102 128.25L70.6502 137.88L73.0802 143.1Z" fill="#060405"/>
<path d="M84.2963 144.904C84.8426 144.883 85.2623 144.262 85.2337 143.517C85.205 142.772 84.7388 142.185 84.1924 142.206C83.6461 142.227 83.2264 142.848 83.255 143.593C83.2837 144.338 83.7499 144.925 84.2963 144.904Z" fill="#060405"/>
<path d="M93.476 144.814C94.0223 144.793 94.442 144.172 94.4134 143.427C94.3847 142.682 93.9185 142.095 93.3721 142.116C92.8257 142.137 92.4061 142.758 92.4347 143.503C92.4634 144.248 92.9296 144.835 93.476 144.814Z" fill="#060405"/>
<path d="M88.9181 152.28L88.3781 151.56C88.7381 151.29 89.1881 151.2 89.7281 151.2C89.9981 151.2 90.1781 151.02 90.2681 150.93C90.2681 150.75 90.0881 150.57 89.9081 150.39C88.4681 148.95 87.8381 146.7 88.3781 144.72L89.2781 144.9C88.9181 146.61 89.3681 148.5 90.6281 149.76C90.8981 150.12 91.3481 150.57 91.2581 151.11C91.1681 151.65 90.7181 152.01 89.9981 152.1C89.2781 152.19 89.0081 152.19 88.9181 152.28ZM86.0381 159.12C85.3181 158.76 84.6881 158.13 84.3281 157.41L85.1381 157.05C85.3181 157.59 85.7681 158.04 86.3081 158.31C86.8481 158.58 87.4781 158.58 88.0181 158.31L88.3781 159.12C87.6581 159.48 86.8481 159.48 86.0381 159.12Z" fill="#060405"/>
<path d="M101.069 132.39C100.529 132.75 99.8995 133.02 99.1795 133.29C93.6895 135.09 78.9295 131.67 78.4795 133.83C78.0295 135.9 77.1295 148.32 76.2295 146.79C74.4295 143.91 73.7995 139.14 73.6195 147.42C73.7095 150.48 72.7195 162.18 72.7195 162.18C72.1795 160.74 69.5695 157.77 67.6795 154.71C64.4395 149.22 66.3295 134.55 66.3295 134.55C66.3295 134.55 62.5495 131.31 64.0795 128.07C65.5195 124.74 89.2795 111.33 94.1395 111.87C98.8195 112.41 96.2095 119.97 96.0295 120.6C96.3895 120.15 99.9895 115.83 101.519 118.89C102.869 121.59 105.209 129.87 101.069 132.39Z" fill="#060405"/>
<path d="M115.141 192.483L116.038 192.412L117.061 205.332L116.164 205.403L115.141 192.483Z" fill="#060405"/>
<path d="M407.52 326.34H500.22V398.79H407.52V326.34Z" fill="white"/>
<path d="M500.67 399.33H407.07V325.98H500.67V399.33ZM407.97 398.43H499.77V326.88H407.97V398.43Z" fill="#060405"/>
<path d="M414.809 237.51C413.819 238.23 402.119 268.11 411.929 272.43C420.569 276.21 429.209 246.96 429.209 246.96L421.199 237.15L414.809 237.51Z" fill="white"/>
<path d="M413.549 273.15C412.919 273.15 412.379 273.06 411.839 272.79C409.499 271.8 408.149 269.28 407.789 265.5C406.799 255.24 413.639 237.78 414.629 237.06L414.719 236.97L421.469 236.52L429.749 246.69C427.769 253.44 422.009 269.64 415.619 272.61C414.899 272.97 414.269 273.15 413.549 273.15ZM415.079 237.96C413.999 239.58 406.889 257.76 408.869 267.21C409.409 269.64 410.489 271.26 412.199 271.98C413.189 272.43 414.179 272.34 415.259 271.89C421.919 268.74 428.039 249.3 428.759 247.05L421.109 237.6L415.079 237.96Z" fill="#060405"/>
<path d="M425.338 216.81C424.438 217.26 413.818 229.14 412.558 238.95C411.748 240.93 429.568 247.95 430.378 246.06L434.338 232.92L425.338 216.81Z" fill="#9F28EE"/>
<path d="M366.482 378V374.85H384.392C384.662 380.61 385.112 391.77 385.202 391.77H356.132C355.142 382.23 366.482 378 366.482 378Z" fill="#9F28EE"/>
<path d="M356.489 387.63C356.129 388.89 355.949 390.24 356.129 391.77H385.199C385.109 391.77 385.019 390.06 384.929 387.63H356.489ZM365.219 374.85C368.999 352.8 378.719 301.14 385.199 297.45C398.339 289.98 441.269 296.73 441.269 296.73L453.239 312.57L435.959 326.43H400.679L385.379 374.85C385.379 378 365.219 378 365.219 374.85Z" fill="#060405"/>
<path d="M421.289 297.45C422.189 293.49 424.619 266.4 424.889 261.18C425.339 251.1 420.119 230.13 422.999 220.77C424.619 215.55 433.169 210.24 438.389 208.17C442.529 206.55 453.959 204.66 459.269 205.56C464.399 206.37 473.759 210.15 477.989 214.65C484.829 226.35 479.609 276.03 475.289 297.54H421.289V297.45Z" fill="#9F28EE"/>
<path d="M425.972 260.73L436.232 259.29C437.582 259.11 438.302 257.67 437.762 256.5L427.052 237.6C426.692 236.88 425.882 236.43 425.072 236.52L414.812 237.96C413.462 238.14 412.742 239.58 413.282 240.75L423.992 259.65C424.262 260.46 425.072 260.82 425.972 260.73Z" fill="#060405"/>
<path d="M443.52 264.69C443.52 264.69 489.15 280.53 495.18 268.29C498.24 261.99 491.22 243.27 491.22 243.27L473.22 244.8L474.48 251.37L442.17 255.51C442.17 255.51 438.03 248.76 436.95 249.12C435.78 249.48 436.77 252.27 436.77 252.27C436.77 252.27 427.68 246.24 427.32 253.89C426.96 261.54 434.97 262.62 443.52 264.69Z" fill="white"/>
<path d="M482.578 273.42C467.458 273.42 444.868 265.68 443.338 265.14C442.438 264.96 441.628 264.69 440.818 264.51C433.438 262.8 426.508 261.09 426.958 253.89C427.048 251.91 427.768 250.56 429.028 249.93C431.188 248.85 434.608 250.38 436.228 251.28C436.048 250.56 436.048 249.75 436.318 249.21C436.498 248.94 436.678 248.76 436.948 248.58C438.118 248.22 440.638 251.73 442.528 254.97L474.028 250.92L472.768 244.35L491.578 242.82L491.668 243.18C491.938 243.99 498.688 262.17 495.628 268.56C493.828 272.07 488.788 273.42 482.578 273.42ZM430.738 250.47C430.198 250.47 429.748 250.56 429.388 250.74C428.488 251.19 427.948 252.27 427.858 253.89C427.498 260.37 433.438 261.81 441.088 263.61C441.898 263.79 442.798 264.06 443.698 264.24C444.148 264.42 488.968 279.81 494.818 268.02C497.518 262.44 491.848 246.15 490.948 243.72L473.848 245.16L475.108 251.73L442.078 256.05L441.898 255.78C440.098 252.81 437.758 249.66 437.128 249.57C437.128 249.57 437.038 249.57 437.038 249.66C436.768 250.11 437.038 251.37 437.308 252.18L437.758 253.44L436.678 252.72C436.588 252.63 433.258 250.47 430.738 250.47Z" fill="#060405"/>
<path d="M476.011 213.3C476.011 213.3 468.991 216.18 468.811 226.62C468.721 237.42 471.691 248.31 471.691 248.31C472.861 250.2 494.281 247.14 494.011 245.25C494.011 244.89 488.521 222.21 476.011 213.3Z" fill="#9F28EE"/>
<path d="M475.201 249.3C473.221 249.3 471.781 249.03 471.421 248.49L471.331 248.4C471.331 248.31 468.271 237.33 468.361 226.53H469.261C469.171 236.61 471.871 246.96 472.141 248.04C473.851 249.39 492.661 246.69 493.561 245.16V245.25L494.461 245.16C494.551 245.88 493.561 246.33 492.661 246.69C489.691 247.68 480.511 249.3 475.201 249.3Z" fill="#060405"/>
<path d="M397.618 378V374.85H415.528C415.798 380.61 416.248 391.77 416.338 391.77H387.268C386.278 382.23 397.618 378 397.618 378Z" fill="#9F28EE"/>
<path d="M387.63 387.63C387.27 388.89 387.09 390.24 387.27 391.77H416.34C416.25 391.77 416.16 390.06 416.07 387.63H387.63ZM475.29 297.45C475.65 297.9 474.03 307.17 471.87 315.09C470.07 321.75 464.04 326.34 457.11 326.34H434.97L416.79 376.92C416.52 378.54 396.18 376.65 396.45 375.03C396.45 375.03 408.33 302.31 412.92 298.26C425.79 286.74 475.29 297.45 475.29 297.45Z" fill="#060405"/>
<path d="M414 273.6C420.57 273.87 421.11 264.69 421.47 260.73C422.91 257.49 420.66 255.69 420.66 255.69C420.66 255.69 422.19 249.84 420.39 247.77C418.59 245.79 414.99 247.77 413.1 250.83C412.47 251.91 413.73 254.88 413.82 257.4C412.29 258.66 408.69 259.56 407.7 262.53C405.54 269.28 410.94 273.42 414 273.6Z" fill="white"/>
<path d="M414.272 274.05H414.002C412.022 273.96 409.772 272.52 408.332 270.54C407.162 268.92 406.082 266.22 407.342 262.53C408.062 260.28 410.132 259.2 411.842 258.3C412.472 257.94 413.012 257.67 413.462 257.4C413.372 256.5 413.192 255.51 413.012 254.61C412.652 252.99 412.382 251.64 412.832 250.83C414.182 248.58 416.432 246.87 418.232 246.69C419.222 246.6 420.122 246.96 420.752 247.59C422.552 249.57 421.472 254.43 421.202 255.6C421.742 256.23 423.182 258.03 421.922 260.82V261.09C421.562 265.32 420.752 274.05 414.272 274.05ZM414.002 273.15C419.852 273.33 420.662 265.05 421.022 261.09L421.112 260.55C422.372 257.67 420.482 256.14 420.392 256.05L420.122 255.87L420.212 255.6C420.662 254.07 421.382 249.66 420.032 248.13C419.582 247.59 418.952 247.41 418.232 247.5C416.612 247.68 414.722 249.21 413.462 251.19C413.192 251.73 413.462 252.99 413.732 254.34C413.912 255.33 414.182 256.5 414.272 257.49V257.67L414.092 257.85C413.552 258.3 412.922 258.66 412.202 259.02C410.582 259.92 408.782 260.82 408.152 262.8C407.072 266.22 408.062 268.65 409.052 270.09C410.492 272.07 412.652 273.06 414.002 273.15Z" fill="#060405"/>
<path d="M421.098 230.687L421.993 230.593L423.44 244.377L422.545 244.471L421.098 230.687Z" fill="#060405"/>
<path d="M421.648 169.02C421.918 169.47 417.688 215.37 425.068 213.3C432.988 211.05 447.028 204.57 447.028 202.41C447.028 200.07 434.608 172.53 434.608 172.53L428.668 164.88L421.648 169.02Z" fill="#060405"/>
<path d="M438.03 195.75C438.03 195.75 442.26 203.31 441.63 204.75C441 206.19 428.4 219.51 436.59 220.77C444.78 222.03 455.85 203.85 455.85 203.85C455.85 203.85 448.92 192.24 447.39 188.73C445.86 185.22 438.03 195.75 438.03 195.75Z" fill="white"/>
<path d="M436.498 221.13C434.968 220.86 433.978 220.23 433.528 219.24C431.818 215.01 440.638 205.65 441.088 204.57C441.448 203.85 439.468 199.53 437.578 195.93L437.398 195.66L437.578 195.39C438.208 194.58 443.608 187.47 446.308 187.47H446.488C446.848 187.47 447.388 187.74 447.658 188.46C449.188 191.88 456.028 203.4 456.028 203.49L456.208 203.76L456.028 204.03C452.608 209.97 443.518 222.21 436.498 221.13ZM438.568 195.75C439.738 197.82 442.708 203.49 441.988 204.93C441.268 206.55 429.298 219.15 436.678 220.32C444.058 221.4 454.048 205.92 455.308 203.85C454.318 202.14 448.378 192.15 447.028 188.91C446.848 188.55 446.668 188.55 446.578 188.46H446.488C444.688 188.46 440.818 192.78 438.568 195.75Z" fill="#060405"/>
<path d="M434.791 199.71C442.261 203.85 452.251 191.16 452.251 191.16L448.291 163.62L437.941 157.5C437.941 157.5 427.411 162.9 425.611 170.1C423.811 177.21 429.931 197.1 434.791 199.71Z" fill="white"/>
<path d="M438.032 201.06C436.862 201.06 435.692 200.79 434.522 200.16C429.482 197.37 423.272 177.39 425.072 170.01C426.872 162.72 437.222 157.32 437.672 157.14L437.852 157.05L448.652 163.44L452.702 191.43L452.612 191.61C452.252 191.88 444.962 201.06 438.032 201.06ZM434.972 199.35C441.542 203.04 450.632 192.42 451.712 191.07L447.752 163.89L437.762 157.95C436.232 158.76 427.412 163.8 425.882 170.1C424.262 177.12 430.292 196.74 434.972 199.35Z" fill="#060405"/>
<path d="M467.82 208.17C467.82 208.17 455.31 215.73 450.81 211.77C446.31 207.81 448.2 168.48 443.88 169.11C439.56 169.74 420.21 175.77 420.03 169.65C419.94 163.53 419.13 160.29 425.79 155.61C432.45 150.93 444.87 156.24 446.4 156.24C447.93 156.15 456.75 156.6 459.9 163.26C463.05 169.83 471.96 202.86 467.82 208.17Z" fill="#060405"/>
<path d="M439.904 177.648C440.547 177.584 440.993 176.77 440.9 175.83C440.807 174.891 440.21 174.181 439.567 174.244C438.924 174.308 438.478 175.122 438.571 176.062C438.665 177.001 439.261 177.711 439.904 177.648Z" fill="#060405"/>
<path d="M430.006 180.167C430.649 180.103 431.095 179.29 431.001 178.35C430.908 177.41 430.311 176.7 429.668 176.764C429.025 176.828 428.58 177.641 428.673 178.581C428.766 179.521 429.363 180.231 430.006 180.167Z" fill="#060405"/>
<path d="M433.891 182.7C434.071 181.17 433.891 179.55 433.441 178.11C433.351 177.84 433.531 177.66 433.711 177.57C433.981 177.48 434.161 177.66 434.251 177.84C434.791 179.46 434.971 181.17 434.791 182.79C434.701 183.33 434.791 183.51 434.881 183.51C434.881 183.51 435.061 183.51 435.151 183.42C435.241 183.33 435.421 183.15 435.511 182.97C435.601 182.79 435.961 182.7 436.141 182.79C436.321 182.88 436.411 183.24 436.321 183.42C436.141 183.6 435.961 183.96 435.691 184.14C434.881 184.77 433.711 184.41 433.891 182.7ZM436.231 192.87C435.961 192.87 435.781 192.6 435.871 192.33C435.871 192.06 436.141 191.88 436.411 191.97C438.211 192.24 440.551 191.52 441.361 190.26C441.541 190.08 441.811 189.99 441.991 190.17C442.171 190.35 442.261 190.62 442.081 190.8C441.091 192.33 438.391 193.23 436.231 192.87ZM399.421 95.49C409.861 98.82 415.621 109.98 412.291 120.51C411.031 124.47 408.601 127.8 405.541 130.23L402.481 126.09L401.761 126.63L404.731 130.68C399.781 134.1 393.391 135.27 387.271 133.38C376.831 130.05 371.071 118.89 374.401 108.36C377.821 97.92 388.981 92.16 399.421 95.49Z" fill="#060405"/>
<path d="M413.191 138.96L412.471 139.5L402.121 125.55L402.841 125.01L413.191 138.96Z" fill="#060405"/>
<path d="M403.022 112.41C403.022 118.89 393.392 124.29 393.392 124.29C393.392 124.29 383.762 118.89 383.762 112.41C383.762 108.9 386.642 106.02 390.152 106.02C391.322 106.02 392.402 106.29 393.392 106.92C394.292 106.38 395.462 106.02 396.632 106.02C400.142 105.93 403.022 108.81 403.022 112.41Z" fill="white"/>
<path d="M140.851 56.7C127.981 60.84 120.871 74.52 125.011 87.39C126.541 92.34 129.601 96.39 133.381 99.27L137.071 94.23L137.971 94.86L134.281 99.9C140.311 104.13 148.231 105.57 155.791 103.14C168.661 99 175.681 85.32 171.631 72.45C167.491 59.67 153.721 52.56 140.851 56.7Z" fill="#060405"/>
<path d="M123.93 110.16L124.83 110.79L137.61 93.69L136.71 92.97L123.93 110.16Z" fill="#060405"/>
<path d="M160.47 85.95C160.47 88.38 158.22 90.27 155.88 89.82C152.1 89.1 147.51 88.2 147.51 88.2H144.09L144 74.88L145.26 75.06C145.62 75.06 145.98 74.97 146.16 74.7C146.97 73.71 148.86 71.19 149.49 70.02C150.39 68.22 148.59 64.26 151.02 65.43C153.45 66.69 154.44 69.84 153.36 72.54C152.73 73.98 152.55 74.43 152.55 74.43L158.94 74.7C159.84 74.7 160.47 75.42 160.47 76.32V85.95ZM142.56 74.79L142.65 88.2H139.23C138.87 88.2 138.6 87.93 138.6 87.57L137.52 74.88C137.52 74.52 137.88 74.16 138.24 74.16L142.56 74.79Z" fill="white"/>
<path d="M154.171 334.08C151.381 335.07 146.611 335.43 143.731 329.04C140.761 322.65 144.271 311.49 139.141 306.54C139.141 306.54 145.171 306.72 150.661 312.03C156.151 317.34 162.901 331.02 154.171 334.08Z" fill="#008080"/>
<path d="M170.728 319.32C170.728 319.5 170.638 319.59 170.638 319.77C169.288 324.81 166.408 328.41 161.098 327.78C157.318 327.33 151.558 324.99 151.738 315.9C151.828 313.92 152.278 311.85 153.088 309.78C153.178 309.6 153.178 309.51 153.268 309.33C156.148 301.77 161.818 293.76 159.388 287.01C159.568 287.1 166.408 290.79 169.648 299.97C169.738 300.15 169.738 300.24 169.828 300.42C171.358 305.37 172.168 313.29 170.728 319.32Z" fill="#12A67C"/>
<path d="M160.738 313.56H161.638V343.98H160.738V313.56Z" fill="#060405"/>
<path d="M184.23 306.54C181.98 308.7 181.35 312.12 181.17 315.81V316.35C180.99 320.85 181.26 325.71 179.64 329.13C179.37 329.67 179.1 330.21 178.83 330.66C178.74 330.84 178.65 330.93 178.56 331.02C175.59 335.43 171.54 335.07 169.11 334.17C162.81 332.01 164.61 324.27 168.12 318.06C168.21 317.97 168.3 317.79 168.3 317.7C169.65 315.45 171.18 313.47 172.62 312.03C178.2 306.72 184.23 306.54 184.23 306.54Z" fill="#008080"/>
<path d="M163.098 345.094L173.434 324.101L174.241 324.499L163.905 345.492L163.098 345.094Z" fill="#060405"/>
<path d="M149.074 324.501L149.882 324.104L160.222 345.095L159.414 345.493L149.074 324.501Z" fill="#060405"/>
<path d="M181.17 315.81V316.35L178.92 317.52L178.74 317.16L181.17 315.81ZM178.83 330.57C178.74 330.75 178.65 330.84 178.56 330.93L177.57 329.76L177.93 329.49L178.83 330.57ZM155.7 311.49L155.43 311.85L153 309.69C153.09 309.51 153.09 309.42 153.18 309.24L155.7 311.49ZM170.73 319.32C170.73 319.5 170.64 319.59 170.64 319.77C170.19 319.5 169.47 318.96 168.3 318.06C168.39 317.97 168.48 317.79 168.48 317.7C169.29 318.24 170.1 318.87 170.73 319.32Z" fill="white"/>
</svg>
