<svg width="540" height="450" viewBox="0 0 540 450" fill="none" xmlns="http://www.w3.org/2000/svg">
<path opacity="0.3" d="M495.001 289.17C486.901 311.94 470.251 334.8 477.811 357.75C480.691 366.66 486.991 373.95 489.871 382.77C491.221 386.82 491.401 391.68 490.321 395.91H89.3705C76.8605 392.49 65.3405 385.29 56.7905 375.03C44.2805 360.09 38.5205 339.21 41.4905 319.59C45.7205 291.42 65.7905 269.37 81.5405 246.24C97.2905 223.11 109.531 191.88 96.5705 166.86C92.3405 158.67 85.7705 152.1 80.9105 144.27C69.5705 125.73 69.3005 100.17 80.4605 81.45C91.5305 62.73 113.401 51.66 134.191 54.27C158.311 57.33 177.661 76.23 200.071 86.13C228.151 98.55 260.281 96.3 289.891 88.74C319.501 81.18 347.761 68.58 377.281 60.57C385.921 58.23 394.831 56.25 403.651 57.6C412.471 58.95 421.201 64.17 424.801 72.81C434.611 96.3 401.851 121.95 411.211 145.53C416.521 159.03 432.271 162.99 445.141 168.57C466.381 177.84 484.021 196.02 493.201 218.25C502.471 240.48 503.101 266.49 495.001 289.17Z" fill="#86E9DC"/>
<path d="M479.699 228.06H441.899C441.719 228.06 441.539 227.88 441.539 227.7C441.539 227.52 441.719 227.34 441.899 227.34H479.699C479.879 227.34 480.059 227.52 480.059 227.7C480.059 227.88 479.879 228.06 479.699 228.06ZM479.699 246.78H441.899C441.719 246.78 441.539 246.6 441.539 246.42C441.539 246.24 441.719 246.06 441.899 246.06H479.699C479.879 246.06 480.059 246.24 480.059 246.42C480.059 246.6 479.879 246.78 479.699 246.78ZM472.769 237.42H419.219C419.039 237.42 418.859 237.24 418.859 237.06C418.859 236.88 419.039 236.7 419.219 236.7H472.769C472.949 236.7 473.129 236.88 473.129 237.06C473.129 237.24 472.949 237.42 472.769 237.42Z" fill="#DBF8F5"/>
<path d="M449.642 228.06C449.462 228.06 449.282 227.88 449.282 227.7V219.69C449.282 219.51 449.462 219.33 449.642 219.33C449.822 219.33 450.002 219.51 450.002 219.69V227.7C449.912 227.88 449.822 228.06 449.642 228.06ZM462.962 237.42C462.782 237.42 462.602 237.24 462.602 237.06V227.7C462.602 227.52 462.782 227.34 462.962 227.34C463.142 227.34 463.322 227.52 463.322 227.7V237.06C463.232 237.24 463.142 237.42 462.962 237.42ZM452.792 246.51C452.612 246.51 452.432 246.33 452.432 246.15V237.06C452.432 236.88 452.612 236.7 452.792 236.7C452.972 236.7 453.152 236.88 453.152 237.06V246.15C453.152 246.33 452.972 246.51 452.792 246.51ZM174.512 275.76H136.712C136.532 275.76 136.352 275.58 136.352 275.4C136.352 275.22 136.532 275.04 136.712 275.04H174.512C174.692 275.04 174.872 275.22 174.872 275.4C174.872 275.58 174.782 275.76 174.512 275.76ZM174.512 294.48H136.712C136.532 294.48 136.352 294.3 136.352 294.12C136.352 293.94 136.532 293.76 136.712 293.76H174.512C174.692 293.76 174.872 293.94 174.872 294.12C174.872 294.3 174.782 294.48 174.512 294.48ZM167.672 285.12H114.122C113.942 285.12 113.762 284.94 113.762 284.76C113.762 284.58 113.942 284.4 114.122 284.4H167.672C167.852 284.4 168.032 284.58 168.032 284.76C168.032 284.94 167.852 285.12 167.672 285.12Z" fill="#DBF8F5"/>
<path d="M144.54 275.76C144.36 275.76 144.18 275.58 144.18 275.4V267.39C144.18 267.21 144.36 267.03 144.54 267.03C144.72 267.03 144.9 267.21 144.9 267.39V275.4C144.81 275.58 144.72 275.76 144.54 275.76ZM157.77 285.12C157.59 285.12 157.41 284.94 157.41 284.76V275.4C157.41 275.22 157.59 275.04 157.77 275.04C157.95 275.04 158.13 275.22 158.13 275.4V284.76C158.13 284.94 157.95 285.12 157.77 285.12ZM147.69 294.21C147.51 294.21 147.33 294.03 147.33 293.85V284.76C147.33 284.58 147.51 284.4 147.69 284.4C147.87 284.4 148.05 284.58 148.05 284.76V293.85C148.05 294.03 147.87 294.21 147.69 294.21Z" fill="#DBF8F5"/>
<path d="M421.469 101.07V320.31C421.199 328.5 414.449 335.07 406.169 335.07H182.249C173.789 335.07 166.949 328.23 166.949 319.77V101.07H421.469Z" fill="white"/>
<path d="M338.398 282.33H414.178V286.11H338.398V282.33ZM338.398 291.51H349.648V295.29H338.398V291.51ZM358.108 291.51H365.398V295.29H358.108V291.51ZM369.178 291.51H378.538V295.29H369.178V291.51Z" fill="#FFC2C2"/>
<path opacity="0.05" d="M421.469 262.89V320.22C421.199 328.41 414.449 334.98 406.169 334.98H390.059V269.28C390.059 265.77 392.849 262.98 396.359 262.98H421.469V262.89Z" fill="black"/>
<path d="M203.491 252.81V305.55C203.491 309.06 200.611 311.94 197.101 311.94C193.591 311.94 190.711 309.06 190.711 305.55V252.81C190.711 249.3 193.591 246.42 197.101 246.42C200.611 246.42 203.491 249.3 203.491 252.81ZM223.471 259.29V305.64C223.471 309.15 220.591 312.03 217.081 312.03C213.571 312.03 210.691 309.15 210.691 305.64V259.29C210.691 255.78 213.571 252.9 217.081 252.9C220.591 252.9 223.471 255.78 223.471 259.29ZM243.361 241.2V305.64C243.361 309.15 240.481 312.03 236.971 312.03C233.461 312.03 230.581 309.15 230.581 305.64V241.2C230.581 237.69 233.461 234.81 236.971 234.81C240.481 234.81 243.361 237.69 243.361 241.2ZM263.251 260.64V305.55C263.251 309.06 260.371 311.94 256.861 311.94C253.351 311.94 250.471 309.06 250.471 305.55V260.64C250.471 257.13 253.351 254.25 256.861 254.25C260.371 254.25 263.251 257.22 263.251 260.64ZM283.231 234.81V305.55C283.231 309.06 280.351 311.94 276.841 311.94C273.331 311.94 270.451 309.06 270.451 305.55V234.81C270.451 231.3 273.331 228.42 276.841 228.42C280.351 228.42 283.231 231.3 283.231 234.81Z" fill="#C0F3ED"/>
<path d="M203.491 261.27V305.55C203.491 309.06 200.611 311.94 197.101 311.94C193.591 311.94 190.711 309.06 190.711 305.55V261.27C190.711 257.76 193.591 254.88 197.101 254.88C200.611 254.88 203.491 257.76 203.491 261.27Z" fill="#F81F8B"/>
<path d="M223.471 270.54V305.55C223.471 309.06 220.591 311.94 217.081 311.94C213.571 311.94 210.691 309.06 210.691 305.55V270.54C210.691 267.03 213.571 264.15 217.081 264.15C220.591 264.15 223.471 267.03 223.471 270.54Z" fill="#1AC1C1"/>
<path d="M243.358 259.29V305.64C243.358 309.15 240.478 312.03 236.968 312.03C233.458 312.03 230.578 309.15 230.578 305.64V259.29C230.578 255.78 233.458 252.9 236.968 252.9C240.478 252.9 243.358 255.78 243.358 259.29Z" fill="#F81F8B"/>
<path d="M263.249 273.42V305.55C263.249 309.06 260.369 311.94 256.859 311.94C253.349 311.94 250.469 309.06 250.469 305.55V273.42C250.469 269.91 253.349 267.03 256.859 267.03C260.369 267.03 263.249 269.91 263.249 273.42Z" fill="#1AC1C1"/>
<path d="M283.229 252.81V305.55C283.229 309.06 280.349 311.94 276.839 311.94C273.329 311.94 270.449 309.06 270.449 305.55V252.81C270.449 249.3 273.329 246.42 276.839 246.42C280.349 246.42 283.229 249.3 283.229 252.81Z" fill="#F81F8B"/>
<path d="M330.659 240.12V261.09C330.659 263.16 328.949 264.87 326.879 264.87H302.849C300.779 264.87 299.069 263.16 299.069 261.09V240.12C299.069 238.05 300.779 236.34 302.849 236.34H326.879C328.949 236.34 330.659 238.05 330.659 240.12ZM330.659 279.27V300.24C330.659 302.31 328.949 304.02 326.879 304.02H302.849C300.779 304.02 299.069 302.31 299.069 300.24V279.27C299.069 277.2 300.779 275.49 302.849 275.49H326.879C328.949 275.49 330.659 277.2 330.659 279.27ZM167.039 88.65V100.98H421.559V88.65C421.559 81.63 415.889 75.87 408.779 75.87H179.729C172.709 75.87 167.039 81.63 167.039 88.65Z" fill="#060405"/>
<path d="M181.081 94.68C183.218 94.68 184.951 92.9473 184.951 90.81C184.951 88.6727 183.218 86.94 181.081 86.94C178.944 86.94 177.211 88.6727 177.211 90.81C177.211 92.9473 178.944 94.68 181.081 94.68Z" fill="white"/>
<path d="M191.249 94.68C193.386 94.68 195.119 92.9473 195.119 90.81C195.119 88.6727 193.386 86.94 191.249 86.94C189.112 86.94 187.379 88.6727 187.379 90.81C187.379 92.9473 189.112 94.68 191.249 94.68Z" fill="white"/>
<path d="M201.421 94.68C203.558 94.68 205.291 92.9473 205.291 90.81C205.291 88.6727 203.558 86.94 201.421 86.94C199.283 86.94 197.551 88.6727 197.551 90.81C197.551 92.9473 199.283 94.68 201.421 94.68Z" fill="white"/>
<path d="M392.039 271.53C392.039 268.2 394.739 265.5 398.069 265.5H484.019C487.349 265.5 490.049 268.2 490.049 271.53V389.97C490.049 393.3 487.349 396 484.019 396H398.069C394.739 396 392.039 393.3 392.039 389.97V271.53Z" fill="#F97444"/>
<path opacity="0.1" d="M418.319 329.76H404.909C404.099 329.76 403.469 329.13 403.469 328.32V314.73C403.469 313.92 404.099 313.29 404.909 313.29H418.319C419.129 313.29 419.759 313.92 419.759 314.73V328.32C419.759 329.13 419.129 329.76 418.319 329.76ZM438.839 329.76H425.429C424.619 329.76 423.989 329.13 423.989 328.32V314.73C423.989 313.92 424.619 313.29 425.429 313.29H438.839C439.649 313.29 440.279 313.92 440.279 314.73V328.32C440.279 329.13 439.649 329.76 438.839 329.76ZM458.729 329.76H445.319C444.509 329.76 443.879 329.13 443.879 328.32V314.73C443.879 313.92 444.509 313.29 445.319 313.29H458.729C459.539 313.29 460.169 313.92 460.169 314.73V328.32C460.169 329.13 459.539 329.76 458.729 329.76ZM479.339 329.76H465.929C465.119 329.76 464.489 329.13 464.489 328.32V314.73C464.489 313.92 465.119 313.29 465.929 313.29H479.339C480.149 313.29 480.779 313.92 480.779 314.73V328.32C480.689 329.13 480.059 329.76 479.339 329.76ZM418.319 349.83H404.909C404.099 349.83 403.469 349.2 403.469 348.39V334.8C403.469 333.99 404.099 333.36 404.909 333.36H418.319C419.129 333.36 419.759 333.99 419.759 334.8V348.39C419.759 349.2 419.129 349.83 418.319 349.83ZM438.209 349.83H424.799C423.989 349.83 423.359 349.2 423.359 348.39V334.8C423.359 333.99 423.989 333.36 424.799 333.36H438.209C439.019 333.36 439.649 333.99 439.649 334.8V348.39C439.649 349.2 439.019 349.83 438.209 349.83ZM458.729 349.83H445.319C444.509 349.83 443.879 349.2 443.879 348.39V334.8C443.879 333.99 444.509 333.36 445.319 333.36H458.729C459.539 333.36 460.169 333.99 460.169 334.8V348.39C460.169 349.2 459.539 349.83 458.729 349.83ZM479.339 349.83H465.929C465.119 349.83 464.489 349.2 464.489 348.39V334.8C464.489 333.99 465.119 333.36 465.929 333.36H479.339C480.149 333.36 480.779 333.99 480.779 334.8V348.39C480.689 349.2 480.059 349.83 479.339 349.83ZM418.319 369.81H404.909C404.099 369.81 403.469 369.18 403.469 368.37V354.78C403.469 353.97 404.099 353.34 404.909 353.34H418.319C419.129 353.34 419.759 353.97 419.759 354.78V368.37C419.759 369.18 419.129 369.81 418.319 369.81ZM438.209 369.81H424.799C423.989 369.81 423.359 369.18 423.359 368.37V354.78C423.359 353.97 423.989 353.34 424.799 353.34H438.209C439.019 353.34 439.649 353.97 439.649 354.78V368.37C439.649 369.18 439.019 369.81 438.209 369.81ZM458.729 369.81H445.319C444.509 369.81 443.879 369.18 443.879 368.37V354.78C443.879 353.97 444.509 353.34 445.319 353.34H458.729C459.539 353.34 460.169 353.97 460.169 354.78V368.37C460.169 369.18 459.539 369.81 458.729 369.81ZM418.319 389.88H404.909C404.099 389.88 403.469 389.25 403.469 388.44V374.85C403.469 374.04 404.099 373.41 404.909 373.41H418.319C419.129 373.41 419.759 374.04 419.759 374.85V388.44C419.759 389.25 419.129 389.88 418.319 389.88ZM438.209 389.88H424.799C423.989 389.88 423.359 389.25 423.359 388.44V374.85C423.359 374.04 423.989 373.41 424.799 373.41H438.209C439.019 373.41 439.649 374.04 439.649 374.85V388.44C439.649 389.25 439.019 389.88 438.209 389.88ZM458.729 389.88H445.319C444.509 389.88 443.879 389.25 443.879 388.44V374.85C443.879 374.04 444.509 373.41 445.319 373.41H458.729C459.539 373.41 460.169 374.04 460.169 374.85V388.44C460.169 389.25 459.539 389.88 458.729 389.88ZM479.339 389.88H465.929C465.119 389.88 464.489 389.25 464.489 388.44V354.87C464.489 354.06 465.119 353.43 465.929 353.43H479.339C480.149 353.43 480.779 354.06 480.779 354.87V388.44C480.689 389.25 480.059 389.88 479.339 389.88ZM482.669 280.8V301.95C482.669 303.93 481.049 305.55 479.069 305.55H406.889C405.089 305.37 403.649 303.84 403.649 301.95V280.8C403.649 278.82 405.269 277.2 407.249 277.2H478.979C480.959 277.2 482.669 278.82 482.669 280.8Z" fill="black"/>
<path d="M401.578 278.64V299.79C401.578 301.77 403.198 303.39 405.178 303.39H477.448C477.808 303.3 478.168 303.21 478.438 303.12C479.698 302.58 480.598 301.32 480.598 299.79V278.64C480.598 276.66 478.978 275.04 476.998 275.04H405.268C404.998 275.04 404.728 275.04 404.458 275.13C402.838 275.49 401.578 276.93 401.578 278.64Z" fill="#FFC2C2"/>
<path d="M401.578 278.64V280.62C421.828 280.17 441.988 279.63 462.238 279.18C465.838 279.09 469.708 279.09 472.588 281.25C475.648 283.59 476.638 287.82 476.818 291.69C476.908 295.56 476.458 299.52 477.358 303.3V303.39C479.158 303.21 480.598 301.68 480.598 299.79V278.64C480.598 276.66 478.978 275.04 476.998 275.04H405.268C403.198 275.04 401.578 276.66 401.578 278.64Z" fill="#FFCCCC"/>
<path d="M480.512 281.61C480.602 281.61 480.602 281.7 480.512 281.61V281.61Z" fill="#00F2FE"/>
<path opacity="0.25" d="M461.698 275.04L443.428 303.39H450.448L468.808 275.04H461.698ZM450.718 275.04L432.358 303.39H428.848L447.208 275.04H450.718ZM440.008 275.04L421.648 303.39H404.728C404.368 303.3 404.008 303.21 403.738 303.12L421.828 275.04H440.008ZM480.598 278.64V284.76L468.538 303.39H459.448L477.718 275.13C479.428 275.49 480.598 276.93 480.598 278.64Z" fill="white"/>
<path d="M416.971 328.68H403.561C402.751 328.68 402.121 328.05 402.121 327.24V313.65C402.121 312.84 402.751 312.21 403.561 312.21H416.971C417.781 312.21 418.411 312.84 418.411 313.65V327.24C418.411 327.96 417.781 328.68 416.971 328.68ZM437.131 329.04H423.721C422.911 329.04 422.281 328.41 422.281 327.6V314.1C422.281 313.29 422.911 312.66 423.721 312.66H437.131C437.941 312.66 438.571 313.29 438.571 314.1V327.6C438.571 328.41 437.941 329.04 437.131 329.04ZM457.021 329.04H443.611C442.801 329.04 442.171 328.41 442.171 327.6V314.1C442.171 313.29 442.801 312.66 443.611 312.66H457.021C457.831 312.66 458.461 313.29 458.461 314.1V327.6C458.461 328.41 457.831 329.04 457.021 329.04Z" fill="white"/>
<path d="M477.991 328.68H464.581C463.771 328.68 463.141 328.05 463.141 327.24V313.65C463.141 312.84 463.771 312.21 464.581 312.21H477.991C478.801 312.21 479.431 312.84 479.431 313.65V327.24C479.341 327.96 478.711 328.68 477.991 328.68Z" fill="#F81F8B"/>
<path d="M416.971 348.66H403.561C402.751 348.66 402.121 348.03 402.121 347.22V333.63C402.121 332.82 402.751 332.19 403.561 332.19H416.971C417.781 332.19 418.411 332.82 418.411 333.63V347.22C418.411 348.03 417.781 348.66 416.971 348.66ZM436.501 349.11H423.091C422.281 349.11 421.651 348.48 421.651 347.67V334.08C421.651 333.27 422.281 332.64 423.091 332.64H436.501C437.311 332.64 437.941 333.27 437.941 334.08V347.67C437.851 348.48 437.221 349.11 436.501 349.11ZM457.021 349.11H443.611C442.801 349.11 442.171 348.48 442.171 347.67V334.08C442.171 333.27 442.801 332.64 443.611 332.64H457.021C457.831 332.64 458.461 333.27 458.461 334.08V347.67C458.461 348.48 457.831 349.11 457.021 349.11Z" fill="white"/>
<path d="M477.991 348.66H464.581C463.771 348.66 463.141 348.03 463.141 347.22V333.63C463.141 332.82 463.771 332.19 464.581 332.19H477.991C478.801 332.19 479.431 332.82 479.431 333.63V347.22C479.341 348.03 478.711 348.66 477.991 348.66Z" fill="#060405"/>
<path d="M416.971 368.73H403.561C402.751 368.73 402.121 368.1 402.121 367.29V353.7C402.121 352.89 402.751 352.26 403.561 352.26H416.971C417.781 352.26 418.411 352.89 418.411 353.7V367.29C418.411 368.1 417.781 368.73 416.971 368.73ZM436.501 369.09H423.091C422.281 369.09 421.651 368.46 421.651 367.65V354.06C421.651 353.25 422.281 352.62 423.091 352.62H436.501C437.311 352.62 437.941 353.25 437.941 354.06V367.65C437.851 368.46 437.221 369.09 436.501 369.09ZM457.021 369.09H443.611C442.801 369.09 442.171 368.46 442.171 367.65V354.06C442.171 353.25 442.801 352.62 443.611 352.62H457.021C457.831 352.62 458.461 353.25 458.461 354.06V367.65C458.461 368.46 457.831 369.09 457.021 369.09ZM416.971 388.71H403.561C402.751 388.71 402.121 388.08 402.121 387.27V373.68C402.121 372.87 402.751 372.24 403.561 372.24H416.971C417.781 372.24 418.411 372.87 418.411 373.68V387.27C418.411 388.08 417.781 388.71 416.971 388.71ZM436.501 389.16H423.091C422.281 389.16 421.651 388.53 421.651 387.72V374.13C421.651 373.32 422.281 372.69 423.091 372.69H436.501C437.311 372.69 437.941 373.32 437.941 374.13V387.72C437.851 388.53 437.221 389.16 436.501 389.16ZM457.021 389.16H443.611C442.801 389.16 442.171 388.53 442.171 387.72V374.13C442.171 373.32 442.801 372.69 443.611 372.69H457.021C457.831 372.69 458.461 373.32 458.461 374.13V387.72C458.461 388.53 457.831 389.16 457.021 389.16Z" fill="white"/>
<path d="M477.991 388.71H464.581C463.771 388.71 463.141 388.08 463.141 387.27V353.7C463.141 352.89 463.771 352.26 464.581 352.26H477.991C478.801 352.26 479.431 352.89 479.431 353.7V387.27C479.341 388.08 478.711 388.71 477.991 388.71Z" fill="#F81F8B"/>
<path d="M316.079 208.08H188.549C186.569 208.08 184.949 206.46 184.949 204.48V124.65C184.949 122.67 186.569 121.05 188.549 121.05H316.079C318.059 121.05 319.679 122.67 319.679 124.65V204.48C319.679 206.46 318.059 208.08 316.079 208.08Z" fill="#FA58E0"/>
<path d="M203.038 192.33L201.238 190.26L227.788 167.04L244.348 179.91L259.918 166.23L278.728 181.71L305.458 147.15L307.618 148.86L279.088 185.49L260.008 169.74L244.438 183.42L227.878 170.55L203.038 192.33Z" fill="white"/>
<path d="M306.089 152.82C308.276 152.82 310.049 151.047 310.049 148.86C310.049 146.673 308.276 144.9 306.089 144.9C303.902 144.9 302.129 146.673 302.129 148.86C302.129 151.047 303.902 152.82 306.089 152.82Z" fill="#060405"/>
<path d="M278.55 187.02C280.737 187.02 282.51 185.247 282.51 183.06C282.51 180.873 280.737 179.1 278.55 179.1C276.363 179.1 274.59 180.873 274.59 183.06C274.59 185.247 276.363 187.02 278.55 187.02Z" fill="#060405"/>
<path d="M259.921 172.08C262.108 172.08 263.881 170.307 263.881 168.12C263.881 165.933 262.108 164.16 259.921 164.16C257.734 164.16 255.961 165.933 255.961 168.12C255.961 170.307 257.734 172.08 259.921 172.08Z" fill="#060405"/>
<path d="M244.081 185.22C246.268 185.22 248.041 183.447 248.041 181.26C248.041 179.073 246.268 177.3 244.081 177.3C241.894 177.3 240.121 179.073 240.121 181.26C240.121 183.447 241.894 185.22 244.081 185.22Z" fill="#060405"/>
<path d="M228.062 172.62C230.249 172.62 232.022 170.847 232.022 168.66C232.022 166.473 230.249 164.7 228.062 164.7C225.875 164.7 224.102 166.473 224.102 168.66C224.102 170.847 225.875 172.62 228.062 172.62Z" fill="#060405"/>
<path d="M202.14 194.22C204.327 194.22 206.1 192.447 206.1 190.26C206.1 188.073 204.327 186.3 202.14 186.3C199.953 186.3 198.18 188.073 198.18 190.26C198.18 192.447 199.953 194.22 202.14 194.22Z" fill="#060405"/>
<path d="M194.941 134.64H221.581V137.43H194.941V134.64ZM225.091 134.64H237.511V137.43H225.091V134.64ZM194.941 139.86H208.981V142.65H194.941V139.86ZM213.301 139.86H237.511V142.65H213.301V139.86ZM194.941 145.08H203.221V147.87H194.941V145.08ZM206.461 145.08H216.091V147.87H206.461V145.08ZM319.411 255.78C319.051 256.32 318.511 256.77 317.791 257.13C317.071 257.49 316.261 257.67 315.361 257.67V259.11C315.361 259.29 315.271 259.38 315.181 259.56C315.091 259.65 314.911 259.74 314.731 259.74C314.551 259.74 314.461 259.65 314.281 259.56C314.191 259.47 314.101 259.29 314.101 259.11V257.67C312.661 257.58 311.401 257.31 310.141 256.77C309.961 256.68 309.871 256.59 309.781 256.41C309.691 256.23 309.601 256.14 309.601 255.96C309.601 255.78 309.691 255.51 309.871 255.42C310.051 255.24 310.231 255.15 310.411 255.15C310.501 255.15 310.681 255.15 310.771 255.24C311.851 255.69 312.931 255.96 314.101 256.05V251.55C313.201 251.28 312.481 251.1 311.851 250.74C311.221 250.47 310.771 250.11 310.321 249.57C309.871 249.03 309.691 248.4 309.691 247.68C309.691 246.96 309.871 246.33 310.231 245.79C310.591 245.25 311.041 244.71 311.761 244.35C312.391 243.99 313.201 243.72 314.191 243.63V242.28C314.191 242.1 314.281 242.01 314.371 241.83C314.461 241.74 314.641 241.65 314.821 241.65C315.001 241.65 315.181 241.74 315.271 241.83C315.361 241.92 315.451 242.1 315.451 242.28V243.63C316.711 243.72 317.881 243.9 318.871 244.26C319.231 244.35 319.411 244.62 319.411 245.07C319.411 245.25 319.321 245.43 319.231 245.61C319.051 245.79 318.871 245.88 318.691 245.88C318.601 245.88 318.511 245.88 318.331 245.79C317.431 245.43 316.441 245.34 315.451 245.25V249.93C316.441 250.11 317.161 250.38 317.791 250.65C318.421 250.92 318.961 251.28 319.321 251.82C319.771 252.36 319.951 252.99 319.951 253.89C319.951 254.52 319.771 255.15 319.411 255.78ZM312.211 248.76C312.661 249.03 313.291 249.3 314.191 249.57V245.25C313.381 245.34 312.751 245.61 312.301 245.97C311.851 246.33 311.581 246.87 311.581 247.41C311.581 248.04 311.761 248.49 312.211 248.76ZM318.151 253.71C318.151 253.17 317.881 252.81 317.431 252.54C316.981 252.27 316.261 252 315.361 251.73V255.96C317.251 255.87 318.151 255.06 318.151 253.71ZM319.411 294.93C319.051 295.47 318.511 295.92 317.791 296.28C317.071 296.64 316.261 296.82 315.361 296.82V298.26C315.361 298.44 315.271 298.53 315.181 298.71C315.091 298.8 314.911 298.89 314.731 298.89C314.551 298.89 314.461 298.8 314.281 298.71C314.191 298.62 314.101 298.44 314.101 298.26V296.82C312.661 296.73 311.401 296.46 310.141 295.92C309.961 295.83 309.871 295.74 309.781 295.56C309.691 295.38 309.601 295.29 309.601 295.11C309.601 294.93 309.691 294.66 309.871 294.57C310.051 294.39 310.231 294.3 310.411 294.3C310.501 294.3 310.681 294.3 310.771 294.39C311.851 294.84 312.931 295.11 314.101 295.2V290.7C313.201 290.43 312.481 290.25 311.851 289.89C311.221 289.62 310.771 289.26 310.321 288.72C309.871 288.18 309.691 287.55 309.691 286.83C309.691 286.11 309.871 285.48 310.231 284.94C310.591 284.4 311.041 283.86 311.761 283.5C312.391 283.14 313.201 282.87 314.191 282.78V281.43C314.191 281.25 314.281 281.16 314.371 280.98C314.461 280.89 314.641 280.8 314.821 280.8C315.001 280.8 315.181 280.89 315.271 280.98C315.361 281.07 315.451 281.25 315.451 281.43V282.78C316.711 282.87 317.881 283.05 318.871 283.41C319.231 283.5 319.411 283.77 319.411 284.22C319.411 284.4 319.321 284.58 319.231 284.76C319.051 284.94 318.871 285.03 318.691 285.03C318.601 285.03 318.511 285.03 318.331 284.94C317.431 284.58 316.441 284.49 315.451 284.4V289.08C316.441 289.26 317.161 289.53 317.791 289.8C318.421 290.07 318.961 290.43 319.321 290.97C319.771 291.51 319.951 292.14 319.951 293.04C319.951 293.76 319.771 294.39 319.411 294.93ZM312.211 288C312.661 288.27 313.291 288.54 314.191 288.81V284.49C313.381 284.58 312.751 284.85 312.301 285.21C311.851 285.57 311.581 286.11 311.581 286.65C311.581 287.19 311.761 287.64 312.211 288ZM318.151 292.95C318.151 292.41 317.881 292.05 317.431 291.78C316.981 291.51 316.261 291.24 315.361 290.97V295.2C317.251 295.02 318.151 294.3 318.151 292.95Z" fill="white"/>
<path opacity="0.05" d="M421.47 133.65V207.63L418.41 205.83C417.69 205.47 416.88 205.47 416.25 205.83C413.55 207.36 410.58 208.62 407.52 209.52C406.8 209.7 406.17 210.33 405.99 211.05L403.74 219.33C403.47 220.32 402.66 220.95 401.67 220.95H391.41C390.42 220.95 389.61 220.32 389.34 219.33L387.09 211.05C386.91 210.33 386.28 209.7 385.56 209.52C382.5 208.62 379.53 207.45 376.83 205.83C376.11 205.47 375.3 205.47 374.67 205.83L367.2 210.15C366.39 210.69 365.31 210.51 364.59 209.79L357.39 202.59C356.67 201.87 356.58 200.79 357.03 199.98L361.35 192.51C361.71 191.88 361.71 191.07 361.35 190.35C359.82 187.65 358.56 184.68 357.75 181.62C357.57 180.9 356.94 180.27 356.22 180.09L347.94 177.84C347.04 177.57 346.32 176.76 346.32 175.77V165.51C346.32 164.52 346.95 163.71 347.94 163.44L356.31 161.19C357.03 161.01 357.66 160.38 357.84 159.66C358.74 156.6 359.91 153.63 361.44 150.93C361.8 150.21 361.8 149.4 361.44 148.77L357.12 141.3C356.67 140.49 356.76 139.41 357.48 138.69L364.68 131.49C365.4 130.77 366.48 130.68 367.29 131.13L374.76 135.45C375.48 135.81 376.29 135.81 376.92 135.45C379.62 133.92 382.59 132.66 385.65 131.76C386.37 131.58 387 130.95 387.18 130.23L389.43 121.95C389.7 121.05 390.51 120.33 391.5 120.33H401.76C402.75 120.33 403.56 120.96 403.83 121.95L406.08 130.23C406.26 130.95 406.89 131.58 407.61 131.76C410.67 132.66 413.64 133.83 416.34 135.45C417.06 135.81 417.87 135.81 418.5 135.45L421.47 133.65Z" fill="black"/>
<path d="M436.682 178.65C435.782 181.71 434.612 184.68 433.082 187.38C432.722 188.01 432.722 188.91 433.082 189.54L437.402 197.01C437.852 197.82 437.762 198.9 437.042 199.62L429.842 206.82C429.122 207.54 428.042 207.63 427.232 207.18L419.762 202.86C419.132 202.5 418.232 202.5 417.602 202.86C414.902 204.39 411.932 205.65 408.872 206.55C408.152 206.73 407.522 207.36 407.342 208.08L405.092 216.36C404.822 217.26 404.012 217.98 403.022 217.98H392.762C391.772 217.98 390.962 217.35 390.692 216.36L388.442 208.08C388.262 207.36 387.632 206.73 386.912 206.55C383.852 205.65 380.882 204.48 378.182 202.86C377.462 202.5 376.652 202.5 376.022 202.86L368.552 207.18C367.742 207.63 366.662 207.54 365.942 206.82L358.742 199.62C358.022 198.9 357.932 197.82 358.382 197.01L362.702 189.54C363.062 188.91 363.062 188.01 362.702 187.38C361.172 184.68 359.912 181.71 359.102 178.65C358.922 177.93 358.292 177.3 357.572 177.12L349.292 174.87C348.392 174.6 347.672 173.79 347.672 172.8V162.54C347.672 161.55 348.302 160.74 349.292 160.47L357.572 158.22C358.292 158.04 358.922 157.41 359.102 156.69C360.002 153.63 361.172 150.66 362.702 147.96C363.062 147.33 363.062 146.43 362.702 145.8L358.382 138.33C357.932 137.52 358.022 136.44 358.742 135.72L365.942 128.52C366.662 127.8 367.742 127.71 368.552 128.16L376.022 132.48C376.652 132.84 377.552 132.84 378.182 132.48C380.882 130.95 383.852 129.69 386.912 128.79C387.632 128.61 388.262 127.98 388.442 127.26L390.692 118.98C390.962 118.08 391.772 117.36 392.762 117.36H403.022C404.012 117.36 404.822 117.99 405.092 118.98L407.342 127.26C407.522 127.98 408.152 128.61 408.872 128.79C411.932 129.69 414.902 130.86 417.602 132.48C418.322 132.84 419.132 132.84 419.762 132.48L427.232 128.16C428.042 127.71 429.122 127.8 429.842 128.52L437.042 135.72C437.762 136.44 437.852 137.52 437.402 138.33L433.082 145.8C432.722 146.43 432.722 147.33 433.082 147.96C434.612 150.66 435.872 153.63 436.682 156.69C436.862 157.41 437.492 158.04 438.212 158.22L446.492 160.47C447.392 160.74 448.112 161.55 448.112 162.54V172.8C448.112 173.79 447.482 174.6 446.492 174.87L438.212 177.12C437.492 177.3 436.952 177.84 436.682 178.65Z" fill="#F6CC61"/>
<path opacity="0.1" d="M397.8 194.04C412.363 194.04 424.17 182.234 424.17 167.67C424.17 153.106 412.363 141.3 397.8 141.3C383.236 141.3 371.43 153.106 371.43 167.67C371.43 182.234 383.236 194.04 397.8 194.04Z" fill="black"/>
<path d="M397.8 191.97C411.221 191.97 422.1 181.091 422.1 167.67C422.1 154.249 411.221 143.37 397.8 143.37C384.379 143.37 373.5 154.249 373.5 167.67C373.5 181.091 384.379 191.97 397.8 191.97Z" fill="white"/>
<path d="M404.639 175.32C404.099 176.13 403.289 176.85 402.299 177.3C401.309 177.84 400.049 178.11 398.699 178.2V180.27C398.699 180.54 398.609 180.72 398.429 180.9C398.249 181.08 398.069 181.17 397.799 181.17C397.529 181.17 397.349 181.08 397.169 180.9C396.989 180.72 396.899 180.54 396.899 180.27V178.2C394.829 178.02 392.849 177.57 390.959 176.85C390.689 176.76 390.509 176.58 390.329 176.4C390.149 176.22 390.059 175.95 390.059 175.68C390.059 175.32 390.149 175.05 390.419 174.78C390.599 174.51 390.959 174.42 391.319 174.42C391.499 174.42 391.679 174.42 391.859 174.51C393.479 175.23 395.099 175.59 396.809 175.68V168.93C395.459 168.57 394.379 168.21 393.479 167.76C392.579 167.31 391.769 166.77 391.229 166.05C390.599 165.33 390.329 164.34 390.329 163.17C390.329 162.18 390.599 161.19 391.049 160.38C391.589 159.48 392.309 158.85 393.299 158.22C394.289 157.68 395.459 157.32 396.899 157.23V155.16C396.899 154.89 396.989 154.71 397.169 154.53C397.349 154.35 397.529 154.26 397.799 154.26C398.069 154.26 398.249 154.35 398.429 154.53C398.609 154.71 398.699 154.89 398.699 155.16V157.14C400.589 157.23 402.299 157.5 403.829 158.13C404.369 158.31 404.639 158.76 404.639 159.3C404.639 159.57 404.549 159.93 404.279 160.11C404.099 160.38 403.739 160.47 403.469 160.47C403.379 160.47 403.199 160.47 403.019 160.38C401.669 159.93 400.229 159.66 398.699 159.57V166.5C400.139 166.86 401.309 167.22 402.209 167.58C403.109 167.94 403.919 168.57 404.549 169.29C405.179 170.1 405.449 171.09 405.449 172.35C405.449 173.52 405.179 174.42 404.639 175.32ZM394.019 164.97C394.649 165.42 395.639 165.87 396.899 166.14V159.66C395.729 159.84 394.829 160.2 394.109 160.74C393.389 161.28 393.029 162 393.029 162.9C393.029 163.8 393.389 164.43 394.019 164.97ZM402.839 172.26C402.839 171.54 402.479 170.91 401.759 170.46C401.039 170.01 400.049 169.65 398.699 169.29V175.59C401.489 175.41 402.839 174.33 402.839 172.26Z" fill="#060405"/>
<path d="M338.398 244.17H414.178V247.95H338.398V244.17ZM338.398 253.35H349.648V257.13H338.398V253.35ZM352.078 253.35H365.398V257.13H352.078V253.35ZM369.178 253.35H378.538V257.13H369.178V253.35Z" fill="#FFC2C2"/>
<path d="M166.949 89.55H129.149C128.969 89.55 128.789 89.37 128.789 89.19C128.789 89.01 128.969 88.83 129.149 88.83H166.949C167.129 88.83 167.309 89.01 167.309 89.19C167.309 89.37 167.129 89.55 166.949 89.55ZM166.949 108.36H129.149C128.969 108.36 128.789 108.18 128.789 108C128.789 107.82 128.969 107.64 129.149 107.64H166.949C167.129 107.64 167.309 107.82 167.309 108C167.309 108.18 167.129 108.36 166.949 108.36ZM160.019 99H106.469C106.289 99 106.109 98.82 106.109 98.64C106.109 98.46 106.289 98.28 106.469 98.28H160.019C160.199 98.28 160.379 98.46 160.379 98.64C160.379 98.82 160.289 99 160.019 99Z" fill="#DBF8F5"/>
<path d="M136.891 89.55C136.711 89.55 136.531 89.37 136.531 89.19V81.18C136.531 81 136.711 80.82 136.891 80.82C137.071 80.82 137.251 81 137.251 81.18V89.19C137.251 89.46 137.071 89.55 136.891 89.55ZM150.211 99C150.031 99 149.851 98.82 149.851 98.64V89.28C149.851 89.1 150.031 88.92 150.211 88.92C150.391 88.92 150.571 89.1 150.571 89.28V98.64C150.481 98.82 150.391 99 150.211 99ZM140.041 108C139.861 108 139.681 107.82 139.681 107.64V98.55C139.681 98.37 139.861 98.19 140.041 98.19C140.221 98.19 140.401 98.37 140.401 98.55V107.64C140.401 107.91 140.221 108 140.041 108Z" fill="#DBF8F5"/>
<path d="M137.79 380.25V377.28H119.97C119.7 383.04 119.25 394.02 119.16 394.02H148.23C149.22 384.39 137.79 380.25 137.79 380.25Z" fill="#9F28EE"/>
<path d="M147.78 389.79C148.14 391.05 148.32 392.4 148.14 393.93H119.07C119.16 393.93 119.25 392.22 119.34 389.79H147.78Z" fill="#060405"/>
<path d="M73.0792 380.25V377.28H55.2592C54.9892 383.04 54.5392 394.02 54.4492 394.02H83.5192C84.4192 384.39 73.0792 380.25 73.0792 380.25Z" fill="#9F28EE"/>
<path d="M83.0694 389.79C83.4294 391.05 83.6094 392.4 83.4294 393.93H54.3594C54.4494 393.93 54.5394 392.22 54.6294 389.79H83.0694ZM139.769 379.17L129.959 237.06L95.0394 243.9L118.799 379.17C118.799 380.7 139.769 380.7 139.769 379.17Z" fill="#060405"/>
<path d="M75.3294 380.34L111.869 239.22L75.3294 240.93L54.3594 380.34C54.3594 381.69 75.3294 381.69 75.3294 380.34Z" fill="#060405"/>
<path d="M70.7414 175.41C74.7014 168.75 111.421 164.79 121.321 172.8C128.791 178.83 132.121 252.81 132.121 252.81C132.661 260.1 68.9414 260.64 68.4014 253.35C68.4014 253.35 66.6914 182.34 70.7414 175.41Z" fill="#9F28EE"/>
<path d="M81.9018 271.8C72.5418 277.29 70.0218 263.34 70.0218 263.34C70.0218 263.34 36.9918 233.37 40.0518 217.44C41.4018 210.51 50.4018 200.7 50.4018 200.7L63.7218 217.53L58.5018 223.29L76.8618 255.78C76.8618 255.78 82.6218 253.89 84.2418 256.32C85.8618 258.66 81.1818 258.48 81.1818 258.48C81.1818 258.48 91.2618 266.31 81.9018 271.8Z" fill="white"/>
<path d="M77.8514 273.6C77.0414 273.6 76.2314 273.42 75.5114 273.06C71.3714 271.17 69.8414 264.69 69.6614 263.61C67.2314 261.36 36.6314 233.1 39.6914 217.44C41.0414 210.42 49.7714 200.88 50.1314 200.52C50.2214 200.43 50.3114 200.34 50.4914 200.34C50.5814 200.34 50.7614 200.43 50.8514 200.52L64.1714 217.35C64.3514 217.53 64.2614 217.8 64.1714 217.89L59.2214 223.38L77.2214 255.33C78.5714 254.97 83.1614 253.8 84.7814 256.14C85.3214 256.95 85.2314 257.58 85.0514 257.94C84.6014 258.66 83.4314 258.93 82.5314 259.02C83.9714 260.37 86.6714 263.34 86.4914 266.58C86.3114 268.74 84.9614 270.63 82.2614 272.25C80.6414 273.15 79.2014 273.6 77.8514 273.6ZM50.3114 201.51C48.6014 203.4 41.5814 211.68 40.4114 217.62C37.4414 233.1 69.9314 262.8 70.2914 263.07C70.3814 263.16 70.3814 263.25 70.4714 263.34C70.4714 263.43 71.8214 270.45 75.8714 272.34C77.5814 273.15 79.5614 272.88 81.7214 271.53C84.0614 270.09 85.3214 268.47 85.5014 266.58C85.7714 262.71 81.0914 259.02 81.0014 259.02C80.8214 258.93 80.8214 258.66 80.8214 258.48C80.9114 258.3 81.0914 258.12 81.2714 258.21C82.2614 258.21 83.8814 258.03 84.1514 257.58C84.2414 257.4 84.0614 257.04 83.9714 256.77C82.8014 255.06 78.6614 255.96 77.1314 256.41C76.9514 256.5 76.6814 256.41 76.5914 256.23L58.2314 223.74C58.1414 223.56 58.1414 223.38 58.3214 223.2L63.2714 217.71L50.3114 201.51Z" fill="#060405"/>
<path d="M75.8704 172.08C75.8704 172.08 66.6904 175.59 61.4704 180.9C57.3304 185.04 47.5204 200.16 47.5204 200.16C45.9004 201.69 62.6404 222.57 64.9804 220.14C64.9804 220.14 82.4404 201.69 83.5204 194.04C84.8704 184.41 75.8704 172.08 75.8704 172.08Z" fill="#9F28EE"/>
<path d="M64.4398 220.86H64.1698C60.4798 220.23 49.5898 206.73 47.4298 202.14C47.3398 201.96 47.4298 201.69 47.6098 201.51C47.8798 201.42 48.0598 201.51 48.2398 201.69C50.4898 206.46 61.1998 219.42 64.2598 219.96C64.5298 219.96 64.5298 219.96 64.6198 219.87C64.7998 219.69 81.9898 201.42 83.0698 194.04C83.0698 193.77 83.3398 193.59 83.6098 193.68C83.8798 193.68 84.0598 193.95 83.9698 194.22C82.8898 201.87 66.0598 219.78 65.3398 220.5C65.0698 220.68 64.7998 220.86 64.4398 220.86Z" fill="#060405"/>
<path d="M184.501 188.46C184.501 188.46 166.771 219.42 156.061 221.04C148.501 222.21 129.781 205.11 129.781 205.11L141.661 187.65L155.971 197.55L177.481 181.26C177.391 180.99 175.771 173.61 177.841 173.7C179.911 173.79 180.181 177.84 180.181 177.84C180.181 177.84 186.661 166.14 189.181 167.31C191.611 168.48 186.391 176.76 186.391 176.76C186.391 176.76 191.251 179.82 191.881 183.24C192.421 186.75 184.501 188.46 184.501 188.46Z" fill="white"/>
<path d="M155.338 221.49C147.238 221.49 130.228 206.1 129.508 205.38C129.328 205.2 129.328 205.02 129.418 204.75L141.298 187.29C141.388 187.2 141.478 187.11 141.568 187.11C141.658 187.11 141.838 187.11 141.928 187.2L155.968 196.92L176.938 180.99C176.668 179.73 175.768 174.96 176.848 173.61C177.118 173.34 177.388 173.16 177.748 173.16C179.368 173.25 179.998 175.14 180.358 176.4C182.428 172.8 186.928 165.69 189.268 166.77C189.718 166.95 189.988 167.31 190.078 167.76C190.708 169.92 187.828 174.96 186.839 176.49C188.008 177.3 191.608 180 192.148 183.06C192.778 186.66 186.028 188.37 184.678 188.73C183.058 191.43 166.498 219.69 155.968 221.4C155.878 221.49 155.608 221.49 155.338 221.49ZM130.408 205.02C132.748 207.09 148.138 220.59 155.338 220.59C155.608 220.59 155.878 220.59 156.058 220.5C166.408 218.88 184.048 188.46 184.228 188.1C184.318 188.01 184.408 187.92 184.498 187.92C186.568 187.47 191.878 185.76 191.428 183.24C190.888 180 186.208 177.03 186.208 177.03C186.118 176.94 186.028 176.85 186.028 176.76C186.028 176.67 186.028 176.49 186.118 176.4C187.198 174.69 189.988 169.74 189.448 168.03C189.358 167.76 189.179 167.67 189.089 167.58C187.828 166.95 183.688 172.53 180.718 177.93C180.628 178.11 180.448 178.2 180.268 178.11C180.088 178.11 179.908 177.93 179.908 177.75C179.818 176.76 179.278 174.06 177.928 173.97C177.838 173.97 177.838 173.97 177.748 174.06C177.028 174.96 177.658 179.28 178.108 180.9V180.99C178.108 181.17 178.018 181.26 177.928 181.35L156.418 197.64C156.238 197.73 156.058 197.73 155.878 197.64L141.928 188.01L130.408 205.02Z" fill="#060405"/>
<path d="M114.391 169.74C114.391 169.74 122.671 172.08 130.681 176.67C137.251 180.45 147.781 190.08 147.781 190.08C147.871 194.22 135.271 212.13 133.741 211.32L117.001 199.71L114.391 169.74Z" fill="#9F28EE"/>
<path d="M128.879 208.8C128.609 208.8 128.429 208.62 128.429 208.44L126.809 194.31C126.809 194.04 126.989 193.86 127.169 193.77C127.439 193.77 127.619 193.95 127.709 194.13L129.329 208.26C129.329 208.62 129.149 208.8 128.879 208.8Z" fill="#060405"/>
<path d="M102.329 158.58C102.329 158.58 102.239 165.24 106.289 168.57C107.729 171.72 103.769 183.87 85.9492 170.1C85.9492 170.1 87.2992 150.3 89.0092 146.7C90.7192 143.1 102.329 158.58 102.329 158.58Z" fill="white"/>
<path d="M99.8102 176.94C96.6602 176.94 92.1602 175.5 85.5902 170.46L85.4102 170.28V170.01C85.5002 169.2 86.7602 150.03 88.5602 146.43C88.8302 145.98 89.1902 145.71 89.6402 145.62H89.7302C93.0602 145.62 101.61 156.96 102.6 158.31L102.69 158.4V158.58C102.69 158.67 102.69 165.06 106.47 168.21L106.56 168.3V168.39C107.28 170.01 106.74 173.52 104.22 175.5C103.41 176.22 101.97 176.94 99.8102 176.94ZM86.4002 169.83C96.8402 177.84 101.79 176.4 103.86 174.78C106.11 172.98 106.38 170.01 105.93 168.84C102.15 165.69 101.88 159.84 101.88 158.76C98.2802 153.99 91.9802 146.61 89.9102 146.61H89.8202C89.7302 146.61 89.5502 146.7 89.4602 146.88C87.8402 150.12 86.4902 167.58 86.4002 169.83Z" fill="#060405"/>
<path d="M87.569 150.48C89.729 155.43 99.539 163.62 107.189 159.57C117.179 154.35 120.509 125.37 107.639 119.7C99.359 116.1 83.519 140.94 87.569 150.48Z" fill="white"/>
<path d="M102.779 161.1C101.339 161.1 99.8094 160.83 98.2794 160.29C93.1494 158.49 88.6494 153.99 87.2094 150.66C84.4194 144 90.6294 130.59 97.8294 123.39C101.609 119.61 105.209 118.17 107.819 119.34C113.039 121.59 116.189 127.89 116.459 136.53C116.729 145.44 113.669 156.69 107.369 160.02C106.019 160.74 104.399 161.1 102.779 161.1ZM88.0194 150.3C89.2794 153.36 93.6894 157.68 98.5494 159.48C101.609 160.56 104.579 160.47 107.009 159.21C112.139 156.51 115.919 146.61 115.649 136.53C115.379 128.25 112.409 122.31 107.549 120.15C105.209 119.16 102.059 120.51 98.5494 124.02C91.5294 130.86 85.3194 144.09 88.0194 150.3Z" fill="#060405"/>
<path d="M86.2191 126.45C86.2191 126.45 79.7391 119.61 72.7191 119.97C65.6991 120.33 65.0691 127.35 65.0691 127.35C65.0691 127.35 58.3191 122.31 53.7291 128.34C49.1391 134.37 57.3291 140.76 57.3291 140.76C57.3291 140.76 51.5691 144.18 53.1891 151.74C54.8091 159.3 65.3391 161.37 65.4291 150.57C65.4291 150.57 71.2791 153.54 74.6091 144.54C74.6091 144.54 81.3591 148.23 86.8491 142.11C92.4291 135.99 86.2191 126.45 86.2191 126.45Z" fill="#060405"/>
<path d="M88.11 151.56C88.11 151.56 88.83 138.33 96.66 135.63C104.4 133.02 106.38 128.07 106.38 124.47C106.02 126.09 115.29 130.77 116.01 138.96C116.01 138.96 121.14 130.5 114.39 120.6C109.8 113.76 103.41 114.21 103.41 114.21C103.41 114.21 95.13 106.02 84.42 118.62C75.51 129.42 85.41 149.04 88.11 151.56Z" fill="#060405"/>
<path d="M100.382 143.35C101.122 143.259 101.627 142.424 101.511 141.487C101.395 140.55 100.701 139.865 99.9608 139.956C99.2209 140.048 98.7153 140.882 98.8315 141.819C98.9477 142.757 99.6417 143.442 100.382 143.35Z" fill="#060405"/>
<path d="M109.921 141.823C110.661 141.731 111.166 140.897 111.05 139.96C110.934 139.023 110.24 138.337 109.5 138.429C108.76 138.521 108.254 139.355 108.371 140.292C108.487 141.23 109.181 141.915 109.921 141.823Z" fill="#060405"/>
<path d="M105.48 148.86L104.85 148.14C105.3 147.78 105.66 147.42 105.93 146.97C106.11 146.61 106.2 146.07 105.93 145.8C105.75 145.62 105.3 145.35 104.94 145.08C104.49 144.63 104.4 143.91 104.31 143.46L103.86 140.04L104.76 139.95L105.21 143.37C105.3 143.82 105.3 144.27 105.57 144.45C105.75 144.72 106.2 144.9 106.56 145.26C107.1 145.89 107.01 146.79 106.74 147.42C106.47 148.05 105.93 148.5 105.48 148.86ZM101.16 154.17L101.79 153.54C102.51 154.35 103.86 154.62 104.85 154.17L105.21 154.98C103.86 155.61 102.24 155.25 101.16 154.17Z" fill="#060405"/>
<path d="M84.0617 145.35C83.8817 145.35 83.7917 145.26 83.7017 145.17C79.2017 138.33 78.3917 129.51 81.6317 122.13C81.7217 121.86 81.9917 121.77 82.2617 121.86C82.5317 121.95 82.6217 122.22 82.5317 122.49C79.4717 129.6 80.1917 138.06 84.5117 144.72C84.6917 144.9 84.6017 145.17 84.4217 145.35C84.2417 145.26 84.1517 145.35 84.0617 145.35Z" fill="#FE6021"/>
<path d="M478.26 100.62H450.9C450.72 100.62 450.54 100.44 450.54 100.26C450.54 100.08 450.72 99.9 450.9 99.9H478.26C478.44 99.9 478.62 100.08 478.62 100.26C478.62 100.44 478.44 100.62 478.26 100.62ZM478.26 114.21H450.9C450.72 114.21 450.54 114.03 450.54 113.85C450.54 113.67 450.72 113.49 450.9 113.49H478.26C478.44 113.49 478.62 113.67 478.62 113.85C478.62 114.03 478.44 114.21 478.26 114.21ZM473.31 107.37H434.61C434.43 107.37 434.25 107.19 434.25 107.01C434.25 106.83 434.43 106.65 434.61 106.65H473.31C473.49 106.65 473.67 106.83 473.67 107.01C473.67 107.19 473.49 107.37 473.31 107.37Z" fill="#DBF8F5"/>
<path d="M456.481 100.62C456.301 100.62 456.121 100.44 456.121 100.26V94.5C456.121 94.32 456.301 94.14 456.481 94.14C456.661 94.14 456.841 94.32 456.841 94.5V100.26C456.841 100.44 456.751 100.62 456.481 100.62ZM466.111 107.37C465.931 107.37 465.751 107.19 465.751 107.01V100.26C465.751 100.08 465.931 99.9 466.111 99.9C466.291 99.9 466.471 100.08 466.471 100.26V107.01C466.471 107.28 466.291 107.37 466.111 107.37ZM458.821 113.94C458.641 113.94 458.461 113.76 458.461 113.58V107.1C458.461 106.92 458.641 106.74 458.821 106.74C459.001 106.74 459.181 106.92 459.181 107.1V113.67C459.181 113.85 459.001 113.94 458.821 113.94Z" fill="#DBF8F5"/>
</svg>
