<svg width="600" height="500" viewBox="0 0 600 500" fill="none" xmlns="http://www.w3.org/2000/svg">
<path opacity="0.3" d="M556.099 403.5C556.099 423.3 540.499 439.3 521.599 439.3H79.9995C62.8995 439.3 48.4995 426.2 45.8995 408.5C43.3995 391.1 44.9995 372.4 48.8995 355.3C56.5995 322.1 96.7995 306.6 101.299 272.7C104.799 245.8 76.3995 202.7 76.6995 175.6C76.9995 148.5 81.5995 119.9 98.1995 99.0999C123.599 67.3999 168.999 63.2999 207.999 70.1999C246.999 77.0999 285.199 92.4999 324.699 90.4999C349.599 89.2999 373.599 81.1999 397.399 73.6999C421.199 66.1999 445.699 59.0999 470.599 59.8999C495.499 60.6999 521.199 70.6999 536.099 91.5999C556.299 119.8 551.899 159.4 542.699 193.3C533.499 227.2 519.999 261.6 524.999 296.5C527.599 315 535.299 332.2 542.399 349.3C549.399 366.4 555.899 384.4 555.999 403.1C556.099 403.3 556.099 403.4 556.099 403.5Z" fill="#86E9DC"/>
<path d="M475.201 154.5H435.401C435.201 154.5 435.001 154.3 435.001 154.1C435.001 153.9 435.201 153.7 435.401 153.7H475.201C475.401 153.7 475.601 153.9 475.601 154.1C475.601 154.3 475.401 154.5 475.201 154.5ZM475.201 174.2H435.401C435.201 174.2 435.001 174 435.001 173.8C435.001 173.6 435.201 173.4 435.401 173.4H475.201C475.401 173.4 475.601 173.6 475.601 173.8C475.601 174 475.401 174.2 475.201 174.2ZM468.001 164.4H411.701C411.501 164.4 411.301 164.2 411.301 164C411.301 163.8 411.501 163.6 411.701 163.6H468.001C468.201 163.6 468.401 163.8 468.401 164C468.401 164.2 468.201 164.4 468.001 164.4Z" fill="#25E498"/>
<path d="M443.599 154.5C443.399 154.5 443.199 154.3 443.199 154.1V145.7C443.199 145.5 443.399 145.3 443.599 145.3C443.799 145.3 443.999 145.5 443.999 145.7V154.1C443.999 154.3 443.799 154.5 443.599 154.5ZM457.599 164.4C457.399 164.4 457.199 164.2 457.199 164V154.1C457.199 153.9 457.399 153.7 457.599 153.7C457.799 153.7 457.999 153.9 457.999 154.1V164C457.999 164.2 457.799 164.4 457.599 164.4ZM446.999 173.9C446.799 173.9 446.599 173.7 446.599 173.5V164C446.599 163.8 446.799 163.6 446.999 163.6C447.199 163.6 447.399 163.8 447.399 164V173.5C447.299 173.7 447.199 173.9 446.999 173.9Z" fill="#25E498"/>
<path d="M423 97.9001V317C423 317.7 422.9 318.5 422.8 319.2C421.8 324.4 417.2 328.3 411.7 328.3H204.8C198.6 328.3 193.5 323.2 193.5 317V97.9001C193.5 91.6001 198.6 86.6001 204.8 86.6001H411.7C417.9 86.6001 423 91.6001 423 97.9001Z" fill="white"/>
<path opacity="0.08" d="M296.202 130V184.7C296.202 187.1 294.202 189 291.902 189H193.602V125.6H291.902C294.202 125.7 296.202 127.6 296.202 130Z" fill="black"/>
<path d="M210.398 99.5C210.398 101.4 208.798 103 206.898 103C204.998 103 203.398 101.5 203.398 99.5C203.398 97.6 204.998 96 206.898 96C208.898 96.1 210.398 97.6 210.398 99.5ZM229.898 99.5C229.898 101.4 228.298 103 226.398 103C224.498 103 222.898 101.5 222.898 99.5C222.898 97.6 224.498 96 226.398 96C228.298 96 229.898 97.6 229.898 99.5ZM220.198 99.5C220.198 101.4 218.598 103 216.698 103C214.798 103 213.198 101.5 213.198 99.5C213.198 97.6 214.798 96 216.698 96C218.598 96.1 220.198 97.6 220.198 99.5Z" fill="white"/>
<path d="M541.998 439.3L515.198 374.4L513.398 375.1L539.898 439.3H541.998Z" fill="#060404"/>
<path d="M476.499 368.5H452.999C452.199 360.8 461.399 357.4 461.399 357.4V352.1H475.699C475.699 352.2 476.399 368.5 476.499 368.5Z" fill="#FE6021"/>
<path d="M453.299 365.2C452.999 366.2 452.799 367.3 452.999 368.6H476.499C476.499 368.6 476.399 367.2 476.299 365.2H453.299ZM495.599 248.4L493.499 257.1C493.499 257.1 451.499 276.5 445.099 288.4C436.899 303.7 461.299 354.2 461.299 354.2H475.699L474.299 306.5L506.499 282.7L527.499 381.8H541.799L543.199 248.4H495.599Z" fill="#060404"/>
<path d="M542.549 394.4H519.049C518.249 386.7 527.449 383.3 527.449 383.3V378H541.749C541.749 378 542.449 394.4 542.549 394.4Z" fill="#FE6021"/>
<path d="M519.4 392.4C519.1 393.4 518.9 394.5 519.1 395.8H542.6C542.6 395.8 542.5 394.4 542.4 392.4H519.4Z" fill="#060404"/>
<path d="M505.9 196.2C505.9 196.2 495.7 216.6 489.6 220.8C480.8 226.9 447.9 230.5 447.9 230.5L443.5 223.4L480.9 209.6L487.4 191.1L505.9 196.2Z" fill="white"/>
<path d="M447.701 231.1L442.801 223.2L480.501 209.3L487.101 190.6L506.701 195.9L506.401 196.4C506.001 197.2 496.001 217 489.901 221.2C481.101 227.3 449.301 230.9 448.001 231L447.701 231.1ZM444.201 223.7L448.101 230C451.501 229.6 481.101 226 489.301 220.4C494.601 216.7 503.501 199.8 505.201 196.5L487.701 191.8L481.301 210L444.201 223.7Z" fill="#060404"/>
<path d="M499.899 174.6C499.899 174.6 491.199 177.6 483.699 191.8L499.499 204.2L507.199 184.9L499.899 174.6Z" fill="#FE6021"/>
<path d="M498.999 175.4C508.499 166.3 544.299 169.8 550.299 174.8C556.299 179.8 545.599 252.6 545.599 252.6C545.599 255 493.2 255 493.2 252.6C493.1 252.6 489.599 184.4 498.999 175.4Z" fill="#FE6021"/>
<path d="M505.101 130.7C506.901 134.1 506.801 138.2 506.301 142.1C505.501 147.7 503.901 153.2 501.601 158.4C501.001 159.7 500.401 161.1 500.801 162.4C501.201 163.8 502.701 164.6 504.001 165.1C507.101 166.4 510.301 167.4 513.601 168.1C517.401 168.9 521.501 169.1 524.801 167.1C528.301 165 530.001 160.8 530.101 156.8C530.201 152.8 528.901 148.8 527.501 145C526.101 141.2 524.701 137.5 522.401 134.2C520.101 130.9 517.001 128 513.201 126.7C511.301 126 509.201 125.8 507.201 126.4C505.301 127 503.501 128.4 502.901 130.3" fill="#060404"/>
<path d="M518.602 159.9C518.602 159.9 521.802 168.2 521.002 169.6C520.202 171 505.502 182.8 513.702 185.2C521.902 187.6 535.702 170.6 535.702 170.6C535.702 170.6 530.302 157.8 529.202 154C528.102 150.3 518.602 159.9 518.602 159.9Z" fill="white"/>
<path d="M515.302 185.9C514.702 185.9 514.102 185.8 513.502 185.7C512.002 185.2 511.002 184.4 510.702 183.3C509.802 179.8 515.702 174.1 518.902 171C519.702 170.3 520.402 169.6 520.502 169.4C521.002 168.7 519.602 164 518.102 160.2L518.002 159.9L518.202 159.7C519.402 158.4 525.802 152.2 528.502 152.9C528.902 153 529.402 153.3 529.602 154.1C530.602 157.7 536.002 170.5 536.102 170.6L536.202 170.9L536.002 171.1C535.502 171.6 523.702 185.9 515.302 185.9ZM519.202 160C520.102 162.3 522.302 168.4 521.402 169.8C521.202 170.1 520.702 170.6 519.702 171.6C516.902 174.3 511.002 180 511.802 183C512.002 183.8 512.702 184.3 513.902 184.7C521.202 186.8 533.502 172.5 535.202 170.5C534.402 168.6 529.802 157.6 528.802 154.2C528.702 153.8 528.502 153.8 528.402 153.7C526.602 153.3 521.902 157.3 519.202 160Z" fill="#060404"/>
<path d="M531.201 154.9C529.201 158.9 520.001 164.8 514.901 162.3C509.801 159.8 506.701 139.1 509.501 132C512.301 124.9 523.801 120.9 523.801 120.9L533.501 128.6C533.501 128.6 534.201 149 531.201 154.9Z" fill="white"/>
<path d="M517.698 150.8C517.098 150.8 516.598 150.5 516.198 150C515.798 149.5 515.698 148.8 515.898 148C515.998 147.6 516.198 147.1 516.298 146.7L516.498 146.3C516.998 145 517.198 143.5 517.098 142.1C517.098 141.8 517.298 141.6 517.598 141.6C517.898 141.6 518.098 141.8 518.098 142.1C518.198 143.7 517.998 145.3 517.398 146.8C517.298 146.9 517.298 147.1 517.198 147.2C516.998 147.6 516.898 147.9 516.798 148.3C516.698 148.6 516.698 149.1 516.898 149.5C517.098 149.8 517.498 149.9 517.698 149.8C517.898 149.7 518.198 149.8 518.398 150C518.498 150.2 518.398 150.5 518.198 150.7C518.198 150.7 517.998 150.8 517.698 150.8ZM518.598 157C517.898 157 517.198 156.8 516.598 156.3C516.398 156.1 516.298 155.8 516.498 155.6C516.698 155.4 516.998 155.4 517.198 155.5C517.998 156.2 519.498 156.1 520.198 155.3C520.398 155.1 520.698 155.1 520.898 155.3C521.098 155.5 521.098 155.8 520.898 156C520.398 156.7 519.498 157 518.598 157ZM522.498 140.5C522.498 141.4 521.998 142.1 521.498 142.1C520.898 142.1 520.498 141.4 520.498 140.5C520.498 139.6 520.998 138.9 521.498 138.9C521.998 138.9 522.498 139.6 522.498 140.5ZM514.398 141.4C514.398 142.3 513.898 143 513.398 143C512.798 143 512.398 142.3 512.398 141.4C512.398 140.5 512.898 139.8 513.398 139.8C513.898 139.7 514.398 140.5 514.398 141.4Z" fill="#060404"/>
<path d="M517.598 163.4C516.498 163.4 515.498 163.2 514.598 162.8C509.198 160.1 505.998 139.2 508.898 131.9C511.798 124.7 523.098 120.7 523.498 120.5L523.798 120.4L533.898 128.4V128.6C533.898 129.4 534.498 149.2 531.498 155.1C529.998 158.4 522.998 163.4 517.598 163.4ZM523.698 121.5C521.998 122.1 512.398 126 509.898 132.2C506.998 139.4 510.598 159.6 515.098 161.8C519.898 164.1 528.898 158.3 530.798 154.6C533.498 149.2 533.098 131.1 533.098 128.8L523.698 121.5Z" fill="#060404"/>
<path d="M554.6 163.6C554.6 163.6 532.2 169.4 528.2 164.7C524.2 160 530.8 133.8 527.5 133.4C524.2 133 499.3 136.5 500 130.2C500.7 123.9 504.3 121.2 511.7 117.3C519.1 113.4 540.9 114.7 543.2 122C545.5 129.2 546.5 136.9 548.4 140C550.3 142.9 559.6 158.7 554.6 163.6ZM458.9 439.3L473.9 375L472 374.5L456.9 439.3H458.9ZM430.5 439.3L445.5 375L443.6 374.5L428.5 439.3H430.5ZM515.4 439.3L488.5 374.4L486.7 375.1L513.3 439.3H515.4Z" fill="#060404"/>
<path d="M433.801 368.5H459.401V375.5H433.801V368.5Z" fill="#060404"/>
<path d="M459.398 368.5H517.098V375.5H459.398V368.5Z" fill="#008080"/>
<path d="M463 395.8H490.9V402.8H463V395.8Z" fill="#060404"/>
<path d="M490.898 395.8H551.198V402.8H490.898V395.8Z" fill="#008080"/>
<path d="M401.102 190.1L423.102 206.7C425.602 208.6 426.202 212.2 424.202 214.8C422.202 217.4 418.602 217.8 416.102 215.9L394.102 199.3L401.102 190.1Z" fill="#060404"/>
<path opacity="0.1" d="M394.401 199.5L400.301 204C401.601 202.6 402.901 201.2 404.101 199.6C405.301 198 406.301 196.4 407.301 194.8L401.401 190.3C399.001 189.6 396.301 190.4 394.801 192.5C393.801 193.9 393.401 195.5 393.601 197.1C393.601 198 393.901 198.8 394.401 199.5Z" fill="black"/>
<path d="M331.9 197.5C352.4 213 381.5 208.9 397 188.5C412.5 168 408.4 138.9 387.9 123.4C367.4 107.9 338.3 112 322.8 132.5C307.4 152.9 311.4 182 331.9 197.5ZM333.7 195.1C314.6 180.6 310.8 153.4 325.2 134.3C339.7 115.2 366.9 111.4 386.1 125.8C405.3 140.3 409 167.5 394.6 186.7C380.1 205.7 352.9 209.5 333.7 195.1Z" fill="#FA58E0"/>
<path d="M410.799 218.1L464.999 257C469.699 260.5 476.399 259.6 479.899 254.9C483.399 250.2 482.499 243.6 477.799 240L423.699 201.1C418.999 197.6 412.299 198.5 408.799 203.2C406.999 205.5 406.399 208.4 406.699 211.1C407.099 213.7 408.499 216.3 410.799 218.1Z" fill="#060404"/>
<path d="M547.198 210.2C542.298 220.5 539.298 225.3 534.598 228C523.198 234.6 481.798 239.6 481.798 239.6C481.798 239.6 473.098 249.3 469.598 242.8C466.098 236.2 476.298 233.4 476.298 233.4C476.298 233.4 474.198 232.6 475.298 230.7C476.398 228.8 479.898 232.1 479.898 232.1C479.898 232.1 523.298 216.1 523.298 215.7C523.298 215.4 528.399 206.2 532.899 195.6L547.198 210.2Z" fill="white"/>
<path d="M473 245.5H472.5C471.1 245.3 470 244.5 469.2 243C468.3 241.3 468.2 239.7 468.8 238.2C470 235.4 473.5 233.9 475.2 233.2C475 233 474.7 232.7 474.6 232.3C474.4 231.7 474.5 231.1 474.9 230.4C475.2 229.9 475.6 229.7 476.1 229.6C477.5 229.4 479.4 230.9 480.1 231.5C496.6 225.4 521 216.4 523 215.3C523.6 214 528.3 205.3 532.6 195.4L532.9 194.7L547.8 210.1L547.7 210.4C543 220.3 539.9 225.5 534.9 228.4C523.8 234.9 485.5 239.6 482.1 240C481.2 241 476.8 245.5 473 245.5ZM476.4 230.6H476.3C476.1 230.6 475.9 230.7 475.8 230.9C475.6 231.3 475.5 231.7 475.6 232C475.8 232.5 476.3 232.8 476.5 232.9L477.9 233.4L476.5 233.8C476.4 233.8 471.1 235.3 469.8 238.5C469.3 239.7 469.4 241 470.1 242.5C470.7 243.7 471.6 244.4 472.7 244.5C476.4 244.9 481.5 239.3 481.5 239.2L481.6 239.1H481.8C482.2 239.1 523.3 234.1 534.4 227.6C539.1 224.8 542.1 219.8 546.6 210.3L533.2 196.4C528.8 206.3 524.3 214.7 523.9 215.7C523.8 216.1 522.5 216.8 501.9 224.4C491 228.5 480.2 232.4 480.2 232.4L479.9 232.5L479.7 232.3C478.8 231.7 477.3 230.6 476.4 230.6Z" fill="#060404"/>
<path d="M553.898 192.4C552.598 198.7 551.998 205.2 548.998 211.6C547.798 212.8 529.798 197.8 529.398 195.6C534.198 184.5 541.098 173.3 546.298 173C546.198 173 557.498 174.2 553.898 192.4Z" fill="#FE6021"/>
<path d="M531.501 199.1C528.901 196.3 528.801 195.8 528.801 195.7V195.6L528.901 195.5C530.801 191.1 532.901 187 534.901 183.6L535.801 184.1C533.801 187.4 531.801 191.4 529.901 195.7C530.101 196.1 531.201 197.3 532.301 198.5L531.501 199.1Z" fill="#060404"/>
<path d="M359.898 195.4C379.228 195.4 394.898 179.73 394.898 160.4C394.898 141.07 379.228 125.4 359.898 125.4C340.568 125.4 324.898 141.07 324.898 160.4C324.898 179.73 340.568 195.4 359.898 195.4Z" fill="#FA58E0"/>
<path d="M378.402 165C377.902 166.9 377.202 168.6 376.202 170.2L378.902 174.9L374.402 179.4L369.702 176.7C368.102 177.7 366.402 178.4 364.502 178.9L363.102 184.1H356.702L355.302 178.9C353.402 178.4 351.702 177.7 350.102 176.7L345.402 179.4L340.902 174.9L343.602 170.2C342.602 168.6 341.902 166.8 341.402 165L336.102 163.6V157.2L341.402 155.8C341.902 153.9 342.602 152.2 343.602 150.6L340.902 145.9L345.402 141.4L350.102 144.1C351.702 143.1 353.402 142.4 355.302 141.9L356.702 136.7H363.102L364.502 141.9C366.402 142.4 368.102 143.1 369.702 144.1L374.402 141.4L378.902 145.9L376.202 150.6C377.202 152.2 377.902 153.9 378.402 155.8L383.702 157.2V163.6L378.402 165Z" fill="white"/>
<path d="M359.898 171.9C366.25 171.9 371.398 166.751 371.398 160.4C371.398 154.049 366.25 148.9 359.898 148.9C353.547 148.9 348.398 154.049 348.398 160.4C348.398 166.751 353.547 171.9 359.898 171.9Z" fill="#FA58E0"/>
<path d="M293.4 126.3V181C293.4 183.4 291.4 185.3 289.1 185.3H151.3C148.9 185.3 147 183.4 147 181V126.3C147 123.9 148.9 122 151.3 122H289C291.4 122 293.4 123.9 293.4 126.3Z" fill="#12A67C"/>
<path d="M165.199 147H167.199V175.9H165.199V147ZM182.299 146.1H184.299V175.9H182.299V146.1ZM199.399 157.4H201.399V175.9H199.399V157.4ZM216.499 150.6H218.499V175.9H216.499V150.6ZM233.599 135.7H235.599V175.9H233.599V135.7ZM250.699 152.8H252.699V175.9H250.699V152.8ZM267.799 132.3H269.799V175.9H267.799V132.3Z" fill="white"/>
<path opacity="0.6" d="M277.598 175.1L157.398 175.9C157.398 175.9 163.198 154.5 178.798 152.4C194.398 150.3 191.498 166.7 205.898 165C221.798 163.3 220.598 142.8 229.998 140.6C237.398 138.8 243.898 158.3 250.198 158.6C256.498 158.8 258.198 150.7 261.898 141.9C266.998 129.7 277.598 129.7 277.598 129.7V175.1Z" fill="white"/>
<path d="M405.501 307.6H301.501C298.601 307.6 296.301 305.3 296.301 302.4V232.8C296.301 229.9 298.601 227.6 301.501 227.6H405.601C408.501 227.6 410.801 229.9 410.801 232.8V302.4C410.801 305.2 408.401 307.6 405.501 307.6Z" fill="#F6CC61"/>
<path d="M176.801 299.2V206.4C176.801 204 178.801 202 181.201 202H279.001C281.401 202 283.401 204 283.401 206.4V299.2C283.401 301.6 281.401 303.6 279.001 303.6H181.201C178.801 303.6 176.801 301.6 176.801 299.2Z" fill="#FFCCCC"/>
<path d="M400.902 274.3L383.802 284.4C382.202 285.3 380.202 284.9 379.102 283.4C375.902 279.1 371.802 275.7 367.002 273.5C366.002 273 364.902 272.6 363.902 272.2C360.602 271.1 357.102 270.4 353.502 270.4C343.402 270.4 333.902 275.3 327.902 283.4C326.802 284.9 324.802 285.3 323.202 284.4L306.102 274.3C304.302 273.3 303.802 270.9 305.002 269.2C315.902 253.3 334.102 243.5 353.502 243.5C372.902 243.5 391.102 253.2 402.002 269.2C403.202 270.9 402.602 273.3 400.902 274.3Z" fill="white"/>
<path d="M387.281 261.452L391.452 257.279L392.372 258.198L388.201 262.371L387.281 261.452Z" fill="#060404"/>
<path d="M314.59 258.224L315.509 257.304L319.682 261.475L318.763 262.395L314.59 258.224Z" fill="#060404"/>
<path d="M356.398 243.7H357.698V249H356.398V243.7Z" fill="#060404"/>
<path d="M322.999 284.8L305.899 274.7C303.899 273.5 303.299 270.9 304.599 268.9C315.699 252.7 333.899 243 353.499 243C373.099 243 391.399 252.7 402.399 268.9C403.699 270.9 403.099 273.5 401.099 274.7L383.999 284.8C382.199 285.9 379.899 285.4 378.699 283.7C372.799 275.7 363.399 271 353.499 271C343.599 271 334.199 275.8 328.299 283.7C327.099 285.4 324.799 285.9 322.999 284.8ZM353.499 244.1C334.299 244.1 316.299 253.6 305.399 269.5C304.399 271 304.799 273 306.399 273.9L323.499 284C324.899 284.8 326.599 284.4 327.499 283.2C333.599 275 343.299 270 353.499 270C363.699 270 373.399 274.9 379.499 283.1C380.399 284.4 382.199 284.7 383.499 283.9L400.599 273.8C402.099 272.9 402.599 270.9 401.599 269.4C390.699 253.6 372.699 244.1 353.499 244.1Z" fill="#060404"/>
<path d="M373.301 265.9C355.901 255.3 333.001 256.7 316.301 271.1C331.901 254.4 356.101 250.3 376.501 259.9L373.301 265.9Z" fill="#F97444"/>
<path opacity="0.1" d="M378.998 256.1L366.998 273.5C365.998 273 364.898 272.6 363.898 272.2L378.998 256.1Z" fill="black"/>
<path d="M351 287L380.2 256.1L356 291L351 287Z" fill="#060404"/>
<path d="M353.499 296.3C357.531 296.3 360.799 293.032 360.799 289C360.799 284.968 357.531 281.7 353.499 281.7C349.468 281.7 346.199 284.968 346.199 289C346.199 293.032 349.468 296.3 353.499 296.3Z" fill="#F97444"/>
<path d="M353.498 292.6C355.487 292.6 357.098 290.988 357.098 289C357.098 287.012 355.487 285.4 353.498 285.4C351.51 285.4 349.898 287.012 349.898 289C349.898 290.988 351.51 292.6 353.498 292.6Z" fill="white"/>
<path d="M193.898 227.2H206.498V256.9H193.898V227.2ZM193.898 259.8H206.498V263H193.898V259.8Z" fill="#F81F8B"/>
<path d="M213.801 219.8H226.401V256.9H213.801V219.8Z" fill="#F97444"/>
<path d="M213.801 259.8H226.401V263H213.801V259.8ZM233.801 241.3H246.401V257H233.801V241.3ZM233.801 259.8H246.401V263H233.801V259.8Z" fill="#F81F8B"/>
<path d="M253.699 213.1H266.299V256.9H253.699V213.1Z" fill="#F97444"/>
<path d="M253.698 259.8H266.298V263H253.698V259.8ZM191.398 271.2H239.498V274.6H191.398V271.2ZM247.298 271.2H268.798V274.6H247.298V271.2ZM191.398 278.2H211.098V281.6H191.398V278.2ZM220.798 278.2H268.798V281.6H220.798V278.2ZM201.098 285.1H239.998V288.5H201.098V285.1ZM245.998 285.1H259.098V288.5H245.998V285.1Z" fill="#F81F8B"/>
<path d="M75.2006 426.3L90.5006 317.3L109.401 426.3H123.601L128.901 279.2H58.8006C58.0006 280.9 55.5006 299.2 55.6006 316.6C55.7006 353.9 59.5006 411.8 61.0006 426.5L75.2006 426.3Z" fill="#060404"/>
<path d="M75.8008 428.8V426.3H61.0008C60.8008 431.1 60.4008 440.2 60.3008 440.2H84.4008C85.3008 432.2 75.8008 428.8 75.8008 428.8Z" fill="#9F28EE"/>
<path d="M84.1008 436.7C84.4008 437.7 84.6008 438.9 84.4008 440.1H60.3008C60.3008 440.1 60.4008 438.7 60.5008 436.7H84.1008Z" fill="#060404"/>
<path d="M124.199 428.8V426.3H109.399C109.199 431.1 108.799 440.2 108.699 440.2H132.799C133.599 432.2 124.199 428.8 124.199 428.8Z" fill="#9F28EE"/>
<path d="M132.499 436.7C132.799 437.7 132.999 438.9 132.799 440.1H108.699C108.699 440.1 108.799 438.7 108.899 436.7H132.499Z" fill="#060404"/>
<path d="M185.199 179C184.199 182.1 179.899 183.9 179.899 183.9L155.199 219.2C152.199 223.7 146.699 225.8 141.499 224.5L114.199 217.9L129.899 195.5C129.899 195.5 143.099 201.8 143.099 201.3C143.199 200.8 170.999 173.9 170.999 173.9C170.999 173.9 168.199 165.8 170.399 165.4C172.599 165 174.199 168.1 174.199 168.1C174.199 168.1 181.499 156.7 182.999 158.2C184.499 159.7 179.199 171 179.199 171C179.199 171 186.199 175.9 185.199 179Z" fill="white"/>
<path d="M144.498 225.5C143.498 225.5 142.398 225.4 141.398 225.1L113.398 218.3L129.698 195L130.098 195.2C134.498 197.3 141.598 200.6 142.898 200.9C143.898 199.7 148.598 194.9 170.498 173.8C169.998 172.4 168.398 167.3 169.498 165.6C169.698 165.2 169.998 165 170.398 164.9C172.198 164.6 173.598 166.2 174.298 167.2C175.998 164.6 180.598 157.8 182.598 157.6C182.898 157.6 183.198 157.7 183.398 157.9C184.898 159.4 181.298 167.8 179.798 170.9C181.398 172 186.698 176.1 185.698 179.2C184.698 182.2 180.998 184 180.198 184.4L155.598 219.6C153.098 223.3 148.898 225.5 144.498 225.5ZM114.998 217.6L141.598 224.1C146.598 225.3 151.898 223.3 154.798 219L179.598 183.5L179.698 183.4C179.698 183.4 183.798 181.6 184.698 178.8C185.398 176.6 180.698 172.7 178.798 171.4L178.498 171.2L178.698 170.8C181.198 165.5 183.398 159.3 182.598 158.6C181.798 158.5 178.098 163 174.598 168.4L174.098 169.1L173.698 168.3C173.698 168.3 172.198 165.5 170.398 165.8C170.298 165.8 170.298 165.8 170.198 166C169.498 167.1 170.598 171.3 171.398 173.7L171.498 174L171.298 174.2C160.598 184.5 144.698 200 143.498 201.4V201.5L143.298 201.6C142.998 201.7 142.498 202 129.998 196L114.998 217.6ZM142.798 201C142.698 201.1 142.598 201.2 142.598 201.3C142.598 201.2 142.598 201.1 142.798 201Z" fill="#060404"/>
<path d="M115.602 184.2C115.602 184.2 135.702 190.9 138.202 193.8C137.202 205.1 133.002 213.6 126.702 220.5" fill="#9F28EE"/>
<path d="M131.699 290.9C131.699 298.1 56.1989 297.1 54.6989 289.6C54.6989 289.6 55.5989 264.2 53.6989 239.9H46.3989C46.2989 233.3 46.2989 219.2 46.9989 214C48.5989 202 51.8989 199.1 54.8989 194.9C56.0989 193.1 64.6989 186.4 70.0989 184.4C74.4989 182.8 83.9989 180.8 88.6989 180.7C95.2989 180.5 120.199 180.7 125.599 191C133.999 207.1 131.699 290.9 131.699 290.9Z" fill="#9F28EE"/>
<path d="M120.398 265.5C120.398 265.5 124.698 258.3 128.098 260.6C131.398 262.8 126.398 266.4 126.198 266.6" fill="white"/>
<path d="M126.598 266.9L125.898 266.2L125.998 266.1C128.398 264.2 128.698 263 128.698 262.4C128.698 261.9 128.398 261.4 127.798 261C127.298 260.7 126.698 260.6 126.098 260.7C123.498 261.3 120.798 265.7 120.798 265.7L119.898 265.2C119.998 265 122.798 260.4 125.898 259.7C126.798 259.5 127.598 259.7 128.398 260.1C129.298 260.7 129.698 261.4 129.798 262.2C129.898 263.7 128.798 265.2 126.598 266.9Z" fill="#060404"/>
<path d="M152.3 295.8H122.8C120.6 295.8 119.1 293.8 119.6 291.7L130.6 249.5C131 248.1 132.3 247.1 133.8 247.1H163.3C165.5 247.1 167 249.1 166.5 251.2L155.5 293.4C155.1 294.8 153.8 295.8 152.3 295.8Z" fill="white"/>
<path d="M152.299 296.3H122.799C120.299 296.3 118.499 293.9 119.199 291.5L130.199 249.3C130.599 247.7 132.099 246.5 133.899 246.5H163.399C165.899 246.5 167.699 248.9 166.999 251.3L155.999 293.5C155.499 295.2 153.999 296.3 152.299 296.3ZM133.799 247.6C132.499 247.6 131.399 248.4 131.099 249.7L120.099 291.9C119.599 293.7 120.999 295.4 122.799 295.4H152.299C153.599 295.4 154.699 294.6 154.999 293.3L165.999 251.1C166.499 249.3 165.099 247.6 163.299 247.6H133.799Z" fill="#060404"/>
<path d="M126.5 266.5C127.1 266.5 143.6 265 143.1 276.2C142.7 284.1 119.6 279.6 119.6 279.6C119.6 279.6 56.1005 284.7 47.6005 275.1C44.5005 271.6 46.4005 234.8 46.4005 234.8L73.9005 235V255.1L120.6 265.4" fill="white"/>
<path d="M85.3995 281.5C68.7995 281.5 51.4995 280.3 47.1995 275.5C44.0995 272 45.5995 238.6 45.7995 234.8V234.3L74.2995 234.5V254.7L120.599 264.9L120.399 265.9L73.2995 255.5V235.5L46.7995 235.3C46.0995 250 45.7995 272.4 47.8995 274.8C55.3995 283.2 108.299 280 119.599 279.1C124.699 280.1 137.199 281.7 141.299 278.5C142.099 277.9 142.499 277.1 142.499 276.2C142.599 273.8 141.899 271.9 140.399 270.4C136.799 266.8 129.499 266.8 126.599 267H126.399V266H126.599C129.699 265.8 137.299 265.9 141.199 269.7C142.899 271.4 143.7 273.6 143.6 276.2C143.5 277.4 142.999 278.5 141.999 279.3C136.899 283.3 120.999 280.4 119.599 280.1C117.899 280.3 102 281.5 85.3995 281.5Z" fill="#060404"/>
<path d="M76.0001 242.9C76.5001 234.3 74.3001 216.5 72.1001 210.5C67.6001 198.1 54.7001 195.1 54.7001 195.1C54.7001 195.1 47.4001 202.6 45.8001 214.6C45.1001 219.8 44.0001 234.7 44.1001 241.3C52.1001 243.5 64.1001 244.9 76.0001 242.9Z" fill="#9F28EE"/>
<path d="M63.8984 244.4C56.9984 244.4 49.9984 243.5 43.8984 241.8L44.1984 240.8C53.5984 243.5 65.2984 244.1 75.4984 242.5C75.8984 233.9 73.7984 216.6 71.5984 210.7L72.4984 210.4C74.6984 216.5 76.8984 234.4 76.3984 243V243.4L75.9984 243.5C72.1984 244 68.0984 244.4 63.8984 244.4Z" fill="#060404"/>
<path d="M95.6008 168.1C95.6008 168.1 97.9008 177.2 100.601 181.2C102.601 184.3 98.9008 190.1 95.5008 191.8C90.0008 194.7 79.2008 181.7 79.2008 181.7L78.8008 148.4L95.6008 168.1Z" fill="white"/>
<path d="M78.6992 182L78.5992 181.9V181.7L78.1992 147.1L95.9992 167.9V168C95.9992 168.1 98.2992 177.1 100.899 181C101.599 182 101.699 183.4 101.299 185C100.599 187.8 98.0992 191 95.5992 192.3C90.7992 194.8 82.1992 186.2 78.6992 182ZM79.5992 181.5C82.5992 185.1 90.9992 193.6 95.0992 191.4C97.2992 190.2 99.5992 187.3 100.299 184.7C100.499 183.8 100.699 182.5 99.9992 181.5C97.4992 177.6 95.2992 169.4 94.9992 168.3L79.0992 149.8L79.5992 181.5Z" fill="#060404"/>
<path d="M79.3008 144.7C79.6008 145.1 82.2008 171.8 98.2008 170C114.201 168.2 110.101 135 102.901 127.7C95.7008 120.3 81.1008 126.9 81.1008 126.9L76.3008 138.5L79.3008 144.7Z" fill="white"/>
<path d="M96.8008 170.6C88.0008 170.6 81.7008 161.9 79.0008 145.7C78.9008 145.3 78.9008 145 78.9008 144.9L75.8008 138.4L80.8008 126.5L81.0008 126.4C81.6008 126.1 96.0008 119.8 103.401 127.3C108.801 132.8 112.101 150.8 108.201 161.7C106.301 167 102.901 170 98.4008 170.5C97.8008 170.5 97.3008 170.6 96.8008 170.6ZM79.8008 144.5C79.9008 144.6 79.9008 144.8 80.0008 145.6C82.8008 162.3 89.1008 170.6 98.2008 169.6C102.401 169.1 105.501 166.4 107.201 161.4C110.901 151 107.601 133.2 102.601 128.1C96.2008 121.5 83.2008 126.7 81.5008 127.4L76.9008 138.6L79.8008 144.5Z" fill="#060404"/>
<path d="M92.7653 146.505C93.3724 146.482 93.837 145.747 93.803 144.864C93.769 143.981 93.2493 143.284 92.6422 143.308C92.0351 143.331 91.5705 144.066 91.6045 144.949C91.6385 145.832 92.1582 146.529 92.7653 146.505Z" fill="#060404"/>
<path d="M103.367 146.506C103.974 146.482 104.439 145.748 104.405 144.865C104.371 143.982 103.851 143.285 103.244 143.308C102.637 143.331 102.172 144.066 102.206 144.949C102.24 145.832 102.76 146.529 103.367 146.506Z" fill="#060404"/>
<path d="M98.0984 155.1L97.4984 154.3C97.8984 154 98.3984 153.9 98.9984 153.8C99.2984 153.7 99.5984 153.6 99.5984 153.5C99.5984 153.3 99.3984 153 99.0984 152.8C97.4984 151.1 96.7984 148.5 97.2984 146.3L98.2984 146.5C97.7984 148.5 98.3984 150.6 99.7984 152.1C100.198 152.5 100.698 153 100.498 153.7C100.398 154.3 99.8984 154.7 99.0984 154.8C98.6984 154.9 98.2984 154.9 98.0984 155.1ZM94.7984 163C93.8984 162.6 93.1984 161.9 92.8984 161L93.7984 160.6C94.0984 161.2 94.5984 161.8 95.1984 162.1C95.7984 162.4 96.5984 162.4 97.1984 162.1L97.5984 163C96.6984 163.4 95.6984 163.4 94.7984 163Z" fill="#060404"/>
<path d="M112.201 132.1C111.501 132.5 110.801 132.9 110.001 133.1C103.701 135.2 86.6008 131.3 86.1008 133.7C85.6008 136.1 84.6008 150.4 83.5008 148.6C81.4008 145.3 80.7008 139.8 80.5008 149.3C80.6008 152.9 79.5008 166.4 79.5008 166.4C78.9008 164.7 75.8008 161.3 73.7008 157.7C69.9008 151.3 72.2008 134.4 72.2008 134.4C72.2008 134.4 67.9008 130.7 69.6008 126.9C71.3008 123.1 98.7009 107.5 104.301 108.1C109.701 108.7 106.701 117.4 106.501 118.1C106.901 117.5 111.101 112.6 112.801 116.1C114.301 119.5 117.001 129.2 112.201 132.1Z" fill="#060404"/>
<path d="M128.512 201.571L129.509 201.492L130.694 216.445L129.698 216.525L128.512 201.571Z" fill="#060404"/>
<path d="M244.8 393.6C245 393.3 250 386.6 257.1 386.6C257.8 386.6 257.8 387.6 257.1 387.6C250.5 387.6 245.7 394.1 245.6 394.2C245.2 394.7 244.4 394.2 244.8 393.6Z" fill="#060404"/>
<path d="M239.5 393.3C240.9 391.8 242.6 390.6 244.1 389.3C247.4 386.3 250 382.6 251.6 378.4C252.3 376.4 252.9 374.3 252.4 372.2C252 370.1 250.4 368.2 248.3 367.9C246.2 367.6 244.3 368.9 242.5 369.9C240.7 370.9 238.2 371.5 236.7 370.2C235.7 369.3 235.4 367.9 235.1 366.6C233.9 360.4 232.6 354.2 231.4 348C230.8 345.1 229.9 341.8 227.2 340.7C224.9 339.8 222.4 340.9 220.4 342.4C211.8 349.1 212.1 362.4 221 368.7C222.3 369.6 223.7 370.4 224.7 371.6C225.6 372.8 225.9 374.8 224.8 375.9C223.4 377.2 221.1 376.3 219.3 376.8C217 377.5 215.9 380.4 216.6 382.7C217.3 385 219.4 386.7 221.5 387.8C223.6 388.9 226 389.6 228.1 390.8C232.5 393.2 235.6 397.9 236.8 402.6C236.7 402.6 237 396 239.5 393.3Z" fill="#008080"/>
<path d="M238.799 413.8C238.599 413.8 238.399 413.6 238.299 413.4C238.199 412.9 229.399 366.8 225.199 359.5C224.899 358.9 225.699 358.4 226.099 359C230.399 366.5 238.999 411.3 239.399 413.2C239.399 413.5 239.099 413.8 238.799 413.8Z" fill="#060404"/>
<path d="M233.9 391.8C233.9 391.4 234.8 382.4 241.4 378.6C242 378.3 242.5 379.1 241.9 379.5C235.8 383.1 234.9 391.9 234.9 392C234.9 392.6 233.9 392.5 233.9 391.8ZM232.7 386.4C232.7 386.3 229.9 379.9 223.9 379.9C223.2 379.9 223.2 378.9 223.9 378.9C230.6 378.9 233.6 386 233.6 386C233.9 386.7 233 387 232.7 386.4Z" fill="#060404"/>
<path d="M248.598 397.5C252.598 396.3 258.298 396.9 265.398 391.3C266.898 390.1 268.398 388.6 268.998 386.8C269.598 384.9 269.298 382.6 267.798 381.4C266.298 380.2 264.198 380.3 262.198 380.2C260.298 380.1 257.998 379.5 257.398 377.7C256.798 376.1 257.098 376.1 263.798 357.4C264.698 354.8 265.598 351.7 263.898 349.5C262.498 347.7 259.898 347.3 257.698 347.6C247.598 348.9 241.498 359.6 245.598 368.9C246.198 370.2 246.998 371.5 247.098 373C247.298 374.4 246.498 376.1 245.098 376.4C243.398 376.8 241.898 375 240.198 374.5C237.198 373.7 232.598 377.6 236.698 384.3C237.898 386.2 239.398 387.9 240.498 389.8C242.798 393.8 243.098 399 241.798 403.4C241.898 403.6 245.298 398.4 248.598 397.5Z" fill="#12A67C"/>
<path d="M238.298 413.6C237.998 413.5 237.898 413.2 237.998 413C238.198 412.6 253.098 371.6 253.198 363.7C253.198 363 254.198 363.1 254.198 363.7C254.098 371.7 239.598 411.6 238.898 413.3C238.898 413.5 238.598 413.7 238.298 413.6Z" fill="#060404"/>
<path d="M246.901 389.3C246.601 389.3 246.401 389 246.401 388.7C246.401 388.6 247.301 382.2 242.501 379.3C241.901 379 242.401 378.1 243.001 378.4C248.401 381.6 247.401 388.5 247.401 388.8C247.401 389.1 247.101 389.3 246.901 389.3Z" fill="#060404"/>
<path d="M247.5 439.3H231.9C231 439.3 230.2 438.6 230 437.7L223.7 410.6C223.5 409.4 224.4 408.4 225.6 408.4L254 408.5C255.2 408.5 256.1 409.6 255.9 410.7L249.4 437.8C249.3 438.6 248.5 439.3 247.5 439.3Z" fill="white"/>
<path d="M247.499 439.8H231.899C230.699 439.8 229.699 438.9 229.499 437.8L223.199 410.7C222.899 409.1 224.099 407.8 225.599 407.9L253.999 408C255.499 408 256.599 409.3 256.399 410.8L249.899 437.9C249.699 438.9 248.699 439.8 247.499 439.8ZM247.499 438.8C248.199 438.8 248.799 438.3 248.899 437.6L255.399 410.5C255.499 409.7 254.899 408.9 253.999 408.9L225.599 408.8C224.699 408.8 224.099 409.6 224.199 410.4L230.499 437.5C230.599 438.2 231.199 438.7 231.899 438.7L247.499 438.8ZM475.099 114.2C468.699 116.2 462.099 115.2 456.799 111.8L460.099 107.4C459.999 107.3 458.499 106.2 458.599 106.2L455.299 110.7C451.899 108.1 449.299 104.5 447.899 100.1C444.299 88.7 450.499 76.5 461.899 72.9C473.299 69.3 485.499 75.5 489.099 86.9C492.699 98.3 486.499 110.5 475.099 114.2Z" fill="#060404"/>
<path d="M446.199 119.8L447.599 120.9L458.999 105.7L457.499 104.6L446.199 119.8Z" fill="#060404"/>
<path d="M455.801 100.3C455.301 99.7999 455.301 99.0999 455.801 98.5999L463.701 90.5999C464.101 90.1999 464.901 90.0999 465.301 90.4999L470.201 94.5999L477.201 86.7999C477.601 86.2999 478.401 86.2999 478.901 86.6999C479.401 87.0999 479.401 87.8999 479.001 88.3999L471.201 97.0999C470.801 97.5999 470.001 97.5999 469.501 97.1999L464.501 93.0999L457.401 100.3C457.101 100.8 456.301 100.8 455.801 100.3Z" fill="white"/>
<path d="M478.099 92.9001L472.699 87.5001C472.099 86.9001 472.399 85.8 473.299 85.6L480.099 84.2C480.899 84 481.599 84.7001 481.399 85.5001L479.999 92.3001C479.799 93.2001 478.799 93.5001 478.099 92.9001Z" fill="white"/>
<path d="M185.301 96.6999H145.501C145.301 96.6999 145.101 96.4999 145.101 96.2999C145.101 96.0999 145.301 95.8999 145.501 95.8999H185.301C185.501 95.8999 185.701 96.0999 185.701 96.2999C185.701 96.4999 185.501 96.6999 185.301 96.6999ZM185.301 116.4H145.501C145.301 116.4 145.101 116.2 145.101 116C145.101 115.8 145.301 115.6 145.501 115.6H185.301C185.501 115.6 185.701 115.8 185.701 116C185.701 116.2 185.501 116.4 185.301 116.4ZM178.001 106.6H121.701C121.501 106.6 121.301 106.4 121.301 106.2C121.301 106 121.501 105.8 121.701 105.8H178.001C178.201 105.8 178.401 106 178.401 106.2C178.401 106.4 178.301 106.6 178.001 106.6Z" fill="#25E498"/>
<path d="M153.701 96.7001C153.501 96.7001 153.301 96.5001 153.301 96.3001V88.0001C153.301 87.8001 153.501 87.6001 153.701 87.6001C153.901 87.6001 154.101 87.8001 154.101 88.0001V96.4001C154.001 96.5001 153.901 96.7001 153.701 96.7001ZM167.701 106.6C167.501 106.6 167.301 106.4 167.301 106.2V96.3001C167.301 96.1001 167.501 95.9001 167.701 95.9001C167.901 95.9001 168.101 96.1001 168.101 96.3001V106.2C168.001 106.4 167.901 106.6 167.701 106.6ZM157.001 116.1C156.801 116.1 156.601 115.9 156.601 115.7V106.2C156.601 106 156.801 105.8 157.001 105.8C157.201 105.8 157.401 106 157.401 106.2V115.7C157.401 115.9 157.201 116.1 157.001 116.1ZM204.701 349.1H165.001C164.801 349.1 164.601 348.9 164.601 348.7C164.601 348.5 164.801 348.3 165.001 348.3H204.801C205.001 348.3 205.201 348.5 205.201 348.7C205.201 348.9 205.001 349.1 204.701 349.1ZM204.701 368.8H165.001C164.801 368.8 164.601 368.6 164.601 368.4C164.601 368.2 164.801 368 165.001 368H204.801C205.001 368 205.201 368.2 205.201 368.4C205.201 368.6 205.001 368.8 204.701 368.8ZM197.501 358.9H141.201C141.001 358.9 140.801 358.7 140.801 358.5C140.801 358.3 141.001 358.1 141.201 358.1H197.501C197.701 358.1 197.901 358.3 197.901 358.5C197.901 358.7 197.701 358.9 197.501 358.9Z" fill="#25E498"/>
<path d="M173.099 349.1C172.899 349.1 172.699 348.9 172.699 348.7V340.3C172.699 340.1 172.899 339.9 173.099 339.9C173.299 339.9 173.499 340.1 173.499 340.3V348.7C173.499 348.9 173.399 349.1 173.099 349.1ZM187.099 358.9C186.899 358.9 186.699 358.7 186.699 358.5V348.6C186.699 348.4 186.899 348.2 187.099 348.2C187.299 348.2 187.499 348.4 187.499 348.6V358.5C187.499 358.8 187.299 358.9 187.099 358.9ZM176.499 368.5C176.299 368.5 176.099 368.3 176.099 368.1V358.6C176.099 358.4 176.299 358.2 176.499 358.2C176.699 358.2 176.899 358.4 176.899 358.6V368.1C176.899 368.3 176.699 368.5 176.499 368.5ZM350.699 365.8H310.899C310.699 365.8 310.499 365.6 310.499 365.4C310.499 365.2 310.699 365 310.899 365H350.699C350.899 365 351.099 365.2 351.099 365.4C351.099 365.6 350.899 365.8 350.699 365.8ZM350.699 385.5H310.899C310.699 385.5 310.499 385.3 310.499 385.1C310.499 384.9 310.699 384.7 310.899 384.7H350.699C350.899 384.7 351.099 384.9 351.099 385.1C351.099 385.3 350.899 385.5 350.699 385.5ZM343.399 375.7H287.099C286.899 375.7 286.699 375.5 286.699 375.3C286.699 375.1 286.899 374.9 287.099 374.9H343.399C343.599 374.9 343.799 375.1 343.799 375.3C343.799 375.5 343.599 375.7 343.399 375.7Z" fill="#25E498"/>
<path d="M319.099 365.8C318.899 365.8 318.699 365.6 318.699 365.4V357C318.699 356.8 318.899 356.6 319.099 356.6C319.299 356.6 319.499 356.8 319.499 357V365.4C319.399 365.7 319.299 365.8 319.099 365.8ZM333.099 375.7C332.899 375.7 332.699 375.5 332.699 375.3V365.4C332.699 365.2 332.899 365 333.099 365C333.299 365 333.499 365.2 333.499 365.4V375.3C333.399 375.5 333.299 375.7 333.099 375.7ZM322.399 385.2C322.199 385.2 321.999 385 321.999 384.8V375.3C321.999 375.1 322.199 374.9 322.399 374.9C322.599 374.9 322.799 375.1 322.799 375.3V384.8C322.799 385 322.599 385.2 322.399 385.2Z" fill="#25E498"/>
</svg>
