<svg width="600" height="500" viewBox="0 0 600 500" fill="none" xmlns="http://www.w3.org/2000/svg">
<path opacity="0.3" d="M536.4 437.3C537.5 432.7 537.4 427.4 535.9 422.9C532.8 413.2 525.9 405.2 522.7 395.5C514.5 370.3 532.7 345.2 541.5 320.2C550.3 295.3 549.6 266.8 539.6 242.4C529.6 218 510.4 198.1 487.2 187.9C473.2 181.8 456.1 177.4 450.2 162.6C440 136.7 475.7 108.5 465 82.8001C461.1 73.4001 451.5 67.6 441.9 66.2C432.3 64.7 422.5 66.9001 413.1 69.4001C380.9 78.2001 350.1 92.0001 317.8 100.3C285.5 108.6 250.5 111.1 219.9 97.5C195.4 86.6 174.4 65.9001 148 62.5001C125.3 59.6001 101.5 71.7001 89.3997 92.3001C77.2997 112.9 77.4997 140.8 89.8997 161.2C95.0997 169.8 102.3 177 106.9 186C121 213.4 107.7 247.7 90.4997 273.1C73.2997 298.5 51.3997 322.7 46.7997 353.5C43.5997 375 49.8997 397.9 63.4997 414.3C72.7997 425.5 85.3997 433.4 98.9997 437.2H536.4V437.3Z" fill="#86E9DC"/>
<path d="M276.198 195.1H234.898C234.698 195.1 234.498 194.9 234.498 194.7C234.498 194.5 234.698 194.3 234.898 194.3H276.198C276.398 194.3 276.598 194.5 276.598 194.7C276.598 194.9 276.398 195.1 276.198 195.1ZM276.198 215.5H234.898C234.698 215.5 234.498 215.3 234.498 215.1C234.498 214.9 234.698 214.7 234.898 214.7H276.198C276.398 214.7 276.598 214.9 276.598 215.1C276.598 215.3 276.398 215.5 276.198 215.5ZM268.698 205.3H210.298C210.098 205.3 209.898 205.1 209.898 204.9C209.898 204.7 210.098 204.5 210.298 204.5H268.698C268.898 204.5 269.098 204.7 269.098 204.9C269.098 205.1 268.898 205.3 268.698 205.3Z" fill="#25E498"/>
<path d="M243.4 195.1C243.2 195.1 243 194.9 243 194.7V186C243 185.8 243.2 185.6 243.4 185.6C243.6 185.6 243.8 185.8 243.8 186V194.7C243.8 194.9 243.6 195.1 243.4 195.1ZM257.9 205.3C257.7 205.3 257.5 205.1 257.5 204.9V194.7C257.5 194.5 257.7 194.3 257.9 194.3C258.1 194.3 258.3 194.5 258.3 194.7V204.9C258.3 205.1 258.1 205.3 257.9 205.3ZM246.9 215.2C246.7 215.2 246.5 215 246.5 214.8V204.9C246.5 204.7 246.7 204.5 246.9 204.5C247.1 204.5 247.3 204.7 247.3 204.9V214.8C247.2 215 247.1 215.2 246.9 215.2Z" fill="#25E498"/>
<path d="M404.898 181C398.598 196 387.898 208.6 374.598 217.5C364.398 224.3 357.998 235.4 357.998 247.6H299.398V247.5C299.398 235.4 293.098 224.2 282.998 217.5C273.298 211.1 265.098 202.8 258.898 193.1C252.098 182.6 247.698 170.4 246.398 157.3C246.098 154.4 245.898 151.5 245.898 148.5C245.898 99.6001 288.298 60.6001 338.198 66.2001C361.998 68.8001 382.998 81.9001 396.298 100.7C404.498 112.2 409.798 125.8 411.198 140.5C412.498 155 410.198 168.8 404.898 181Z" fill="white"/>
<path d="M358.498 248.2H298.898V247.7C298.898 235.8 292.898 224.8 282.698 218.1C272.898 211.7 264.798 203.4 258.498 193.5C251.498 182.6 247.198 170.5 245.898 157.5C245.598 154.5 245.398 151.5 245.398 148.6C245.398 124.9 255.498 102.3 273.198 86.5001C291.098 70.5001 314.198 63.1001 338.298 65.8001C361.598 68.4001 382.898 81.0001 396.698 100.5C405.098 112.4 410.298 126.2 411.698 140.5C412.998 154.5 410.898 168.6 405.398 181.2C399.098 196.1 388.598 208.8 374.898 218C364.598 224.8 358.498 235.9 358.498 247.7V248.2ZM299.798 247.2H357.398C357.598 235.2 363.798 224 374.198 217.2C387.698 208.2 398.098 195.6 404.298 180.9C409.698 168.5 411.798 154.6 410.498 140.7C409.198 126.6 403.998 112.9 395.698 101.1C381.998 81.9001 360.998 69.4001 337.998 66.8001C314.198 64.1001 291.398 71.4001 273.698 87.2001C256.198 102.8 246.198 125.2 246.198 148.6C246.198 151.5 246.398 154.4 246.698 157.4C247.998 170.2 252.198 182.2 259.198 193C265.398 202.7 273.498 210.9 283.098 217.3C293.498 224 299.698 235.2 299.798 247.2Z" fill="#060404"/>
<path d="M338.098 249.9C337.698 249.9 337.298 249.6 337.298 249.1V211.6C337.298 211.5 337.298 211.4 337.398 211.3L351.398 183.5C351.598 183.1 351.998 183 352.398 183.2C352.798 183.4 352.898 183.8 352.698 184.2L338.798 211.8V249.1C338.898 249.5 338.498 249.9 338.098 249.9ZM319.198 249.9C318.798 249.9 318.398 249.6 318.398 249.1V211.8L304.498 184.2C304.298 183.8 304.498 183.4 304.798 183.2C305.198 183 305.598 183.2 305.798 183.5L319.798 211.3C319.898 211.4 319.898 211.5 319.898 211.6V249.1C319.898 249.5 319.598 249.9 319.198 249.9Z" fill="#060404"/>
<path d="M362.499 252.3C362.499 255.3 359.999 257.8 356.999 257.8H300.799C297.699 257.8 295.199 255.3 295.199 252.3C295.199 249.2 297.699 246.7 300.799 246.7H356.999C359.999 246.8 362.499 249.2 362.499 252.3Z" fill="#F97444"/>
<path opacity="0.15" d="M362.498 252.3C362.498 255.3 359.998 257.8 356.998 257.8H300.898C297.798 257.8 295.398 255.3 295.398 252.3C295.398 251.9 295.398 251.6 295.498 251.3C295.998 253.9 298.198 255.8 300.998 255.8H356.998C359.698 255.8 361.898 253.9 362.398 251.3C362.498 251.6 362.498 252 362.498 252.3Z" fill="black"/>
<path d="M360.3 263.4C360.3 266.4 357.8 268.9 354.8 268.9H303.1C300 268.9 297.5 266.4 297.5 263.4C297.5 260.3 300 257.8 303.1 257.8H354.8C357.8 257.8 360.3 260.3 360.3 263.4Z" fill="#F97444"/>
<path opacity="0.15" d="M360.3 263.4C360.3 266.5 357.8 268.9 354.8 268.9H303C299.9 268.9 297.5 266.4 297.5 263.4C297.5 263 297.5 262.7 297.6 262.4C298.1 265 300.3 266.9 303.1 266.9H354.8C357.5 266.9 359.7 265 360.2 262.4C360.3 262.7 360.3 263 360.3 263.4Z" fill="black"/>
<path d="M358.099 274.5C358.099 277.5 355.599 280 352.599 280H305.299C302.199 280 299.699 277.5 299.699 274.5C299.699 271.4 302.199 268.9 305.299 268.9H352.599C355.599 269 358.099 271.4 358.099 274.5Z" fill="#F97444"/>
<path opacity="0.15" d="M358.099 274.5C358.099 277.5 355.599 280 352.599 280H305.299C302.199 280 299.699 277.5 299.699 274.5C299.699 274.1 299.699 273.8 299.799 273.5C300.299 276.1 302.499 278 305.299 278H352.599C355.299 278 357.499 276.1 357.999 273.5C358.099 273.8 358.099 274.2 358.099 274.5Z" fill="black"/>
<path d="M342.099 280C342.099 287.3 336.199 293.2 328.899 293.2C321.599 293.2 315.699 287.3 315.699 280H342.099Z" fill="#060404"/>
<path opacity="0.3" d="M300.701 160.8C311.415 160.8 320.101 152.114 320.101 141.4C320.101 130.686 311.415 122 300.701 122C289.986 122 281.301 130.686 281.301 141.4C281.301 152.114 289.986 160.8 300.701 160.8Z" fill="white"/>
<path d="M374.502 158.9C375.302 160.8 375.802 162.8 375.802 165C375.802 173.5 368.902 180.4 360.402 180.4H360.002C358.402 187.3 352.302 192.3 345.002 192.3C336.502 192.3 329.602 185.4 329.602 176.9V101.8C329.602 93.2999 336.502 86.3999 345.002 86.3999C353.502 86.3999 360.502 93.2999 360.502 101.8V102.1C361.502 101.9 362.402 101.8 363.402 101.8C373.302 101.8 381.302 109.8 381.302 119.7C381.302 122.2 380.802 124.5 379.902 126.7C384.702 129.9 387.802 135.4 387.802 141.6C387.702 149.8 382.102 156.8 374.502 158.9Z" fill="white"/>
<path d="M374.5 158.9C375.3 160.8 375.8 162.8 375.8 165C375.8 173.5 368.9 180.4 360.4 180.4H360C358.4 187.3 352.3 192.3 345 192.3C336.5 192.3 329.6 185.4 329.6 176.9V101.8C329.6 93.2999 336.5 86.3999 345 86.3999C353.5 86.3999 360.5 93.2999 360.5 101.8V102.1C361.5 101.9 362.4 101.8 363.4 101.8C373.3 101.8 381.3 109.8 381.3 119.7C381.3 122.2 380.8 124.5 379.9 126.7C384.7 129.9 387.8 135.4 387.8 141.6C387.7 149.8 382.1 156.8 374.5 158.9ZM284.3 158.9C283.5 160.8 283 162.8 283 165C283 173.5 289.9 180.4 298.4 180.4H298.8C300.4 187.3 306.5 192.3 313.8 192.3C322.3 192.3 329.2 185.4 329.2 176.9V101.8C329.2 93.2999 322.3 86.3999 313.8 86.3999C305.3 86.3999 298.3 93.2999 298.3 101.8V102.1C297.3 101.9 296.4 101.8 295.4 101.8C285.5 101.8 277.5 109.8 277.5 119.7C277.5 122.2 278 124.5 278.9 126.7C274.1 129.9 271 135.4 271 141.6C271.1 149.8 276.7 156.8 284.3 158.9Z" fill="white"/>
<path d="M374.5 158.9C375.3 160.8 375.8 162.8 375.8 165C375.8 173.5 368.9 180.4 360.4 180.4H360C358.4 187.3 352.3 192.3 345 192.3C336.5 192.3 329.6 185.4 329.6 176.9V101.8C329.6 93.2999 336.5 86.3999 345 86.3999C353.5 86.3999 360.5 93.2999 360.5 101.8V102.1C361.5 101.9 362.4 101.8 363.4 101.8C373.3 101.8 381.3 109.8 381.3 119.7C381.3 122.2 380.8 124.5 379.9 126.7C384.7 129.9 387.8 135.4 387.8 141.6C387.7 149.8 382.1 156.8 374.5 158.9ZM284.3 158.9C283.5 160.8 283 162.8 283 165C283 173.5 289.9 180.4 298.4 180.4H298.8C300.4 187.3 306.5 192.3 313.8 192.3C322.3 192.3 329.2 185.4 329.2 176.9V101.8C329.2 93.2999 322.3 86.3999 313.8 86.3999C305.3 86.3999 298.3 93.2999 298.3 101.8V102.1C297.3 101.9 296.4 101.8 295.4 101.8C285.5 101.8 277.5 109.8 277.5 119.7C277.5 122.2 278 124.5 278.9 126.7C274.1 129.9 271 135.4 271 141.6C271.1 149.8 276.7 156.8 284.3 158.9Z" fill="#FA58E0"/>
<path d="M344.902 193.1C344.502 193.1 344.102 192.8 344.102 192.3C344.102 191.8 344.402 191.5 344.902 191.5C353.002 191.5 359.602 184.9 359.602 176.8C359.602 168.7 353.002 162.1 344.902 162.1C344.502 162.1 344.102 161.8 344.102 161.3C344.102 160.8 344.402 160.5 344.902 160.5C353.802 160.5 361.102 167.8 361.102 176.7C361.102 185.6 353.802 193.1 344.902 193.1ZM354.802 114.4C354.602 114.4 354.402 114.3 354.202 114.1C353.902 113.8 354.002 113.3 354.302 113C357.602 110.2 359.602 106.1 359.602 101.7C359.602 101.3 359.902 100.9 360.402 100.9C360.902 100.9 361.202 101.2 361.202 101.7C361.202 106.5 359.102 111 355.402 114.1C355.102 114.3 354.902 114.4 354.802 114.4ZM379.702 127.6C379.602 127.6 379.402 127.6 379.302 127.5C376.302 125.5 372.702 124.5 369.102 124.7C368.702 124.7 368.302 124.4 368.302 124C368.302 123.6 368.602 123.2 369.002 123.2C372.902 123 376.902 124.1 380.102 126.3C380.402 126.5 380.502 127 380.302 127.3C380.202 127.4 379.902 127.6 379.702 127.6Z" fill="#060404"/>
<path d="M355.7 166.6C355.4 166.6 355.2 166.5 355 166.2C354.8 165.8 354.9 165.4 355.3 165.2C358.5 163.4 360.4 160 360.4 156.3C360.4 155.4 360.3 154.6 360.1 153.7C360 153.3 360.2 152.9 360.6 152.8C361 152.7 361.4 152.9 361.5 153.3C361.7 154.3 361.9 155.2 361.9 156.2C361.9 160.4 359.6 164.3 356 166.4C356 166.6 355.8 166.6 355.7 166.6ZM346.3 125.7C345.4 125.7 344.5 125.6 343.6 125.4C343.2 125.3 342.9 124.9 343 124.5C343.1 124.1 343.5 123.8 343.9 123.9C347.4 124.7 350.9 123.7 353.4 121.2C354 120.6 354.5 119.9 355 119.2C355.2 118.8 355.7 118.7 356 118.9C356.4 119.1 356.5 119.6 356.3 119.9C355.8 120.8 355.2 121.5 354.5 122.2C352.3 124.5 349.4 125.7 346.3 125.7ZM367.4 143.1C363.3 143.1 359.6 141 357.4 137.5C357.2 137.1 357.3 136.7 357.6 136.5C358 136.3 358.4 136.4 358.6 136.7C360.5 139.7 363.7 141.5 367.3 141.5C368.2 141.5 369 141.4 369.9 141.2C370.3 141.1 370.7 141.3 370.8 141.7C370.9 142.1 370.7 142.5 370.3 142.6C369.4 143 368.4 143.1 367.4 143.1Z" fill="#060404"/>
<path d="M341.702 150.8C337.002 150.8 332.602 149 329.302 145.6C329.002 145.3 329.002 144.8 329.302 144.5C329.602 144.2 330.102 144.2 330.402 144.5C333.402 147.5 337.502 149.2 341.802 149.2C350.702 149.2 357.902 142 357.902 133.1V132.7C357.902 132.3 358.202 131.9 358.602 131.9C359.002 131.9 359.302 132.2 359.302 132.6V133C359.302 142.9 351.402 150.8 341.702 150.8ZM345.602 132.8C345.202 132.8 344.802 132.5 344.802 132C344.802 123.5 337.902 116.6 329.402 116.6C329.002 116.6 328.602 116.3 328.602 115.8C328.602 115.3 328.902 115 329.402 115C338.702 115 346.302 122.6 346.302 131.9C346.302 132.5 346.002 132.8 345.602 132.8Z" fill="#060404"/>
<path d="M313.998 193C306.598 193 300.298 188.1 298.398 181.1C289.498 181 282.398 173.8 282.398 164.9C282.398 163 282.698 161.1 283.398 159.3C275.698 156.9 270.398 149.7 270.398 141.5C270.398 135.5 273.298 129.9 278.198 126.4C277.398 124.2 276.998 122 276.998 119.7C276.998 109.4 285.398 101 295.698 101C296.398 101 297.198 101 297.898 101.1C298.198 92.5 305.398 85.5 314.098 85.5C322.998 85.5 330.298 92.8 330.298 101.7V176.8C330.198 185.8 322.898 193 313.998 193ZM298.898 179.6C299.198 179.6 299.598 179.8 299.598 180.2C301.098 186.9 306.998 191.6 313.898 191.6C321.998 191.6 328.598 185 328.598 176.9V101.8C328.598 93.7 321.998 87.1 313.898 87.1C305.798 87.1 299.198 93.7 299.198 101.8V102.1C299.198 102.3 299.098 102.5 298.898 102.7C298.698 102.8 298.498 102.9 298.298 102.9C297.398 102.7 296.498 102.6 295.498 102.6C285.998 102.6 278.298 110.3 278.298 119.8C278.298 122.1 278.698 124.3 279.598 126.5C279.698 126.8 279.598 127.2 279.298 127.4C274.598 130.6 271.698 135.9 271.698 141.6C271.698 149.4 276.898 156.2 284.398 158.2C284.598 158.3 284.798 158.4 284.898 158.6C284.998 158.8 284.998 159 284.898 159.2C284.098 161 283.698 163 283.698 165C283.698 173.1 290.298 179.7 298.398 179.7H298.698C298.798 179.6 298.898 179.6 298.898 179.6Z" fill="#060404"/>
<path d="M344.802 193C335.902 193 328.602 185.7 328.602 176.8V101.7C328.602 92.8 335.902 85.5 344.802 85.5C353.502 85.5 360.702 92.4 361.002 101.1C361.702 101 362.502 101 363.202 101C373.502 101 381.902 109.4 381.902 119.7C381.902 122 381.502 124.2 380.702 126.4C385.602 129.9 388.502 135.5 388.502 141.5C388.502 149.7 383.202 156.8 375.502 159.3C376.202 161.1 376.502 163 376.502 164.9C376.502 173.8 369.302 181 360.502 181.1C358.602 188.2 352.202 193 344.802 193ZM344.802 87.1C336.702 87.1 330.102 93.7 330.102 101.8V176.9C330.102 185 336.702 191.6 344.802 191.6C351.702 191.6 357.602 186.9 359.102 180.2C359.202 179.8 359.602 179.5 360.002 179.6H360.302C368.402 179.6 375.002 173 375.002 164.9C375.002 162.9 374.602 161 373.802 159.1C373.702 158.9 373.702 158.7 373.802 158.5C373.902 158.3 374.102 158.2 374.302 158.1C381.802 156.1 387.002 149.3 387.002 141.5C387.002 135.8 384.202 130.5 379.402 127.3C379.102 127.1 379.002 126.7 379.102 126.4C380.002 124.2 380.402 122 380.402 119.7C380.402 110.2 372.702 102.5 363.202 102.5C362.302 102.5 361.302 102.6 360.402 102.8C359.902 102.9 359.502 102.5 359.502 102.1V101.8C359.602 93.7 353.002 87.1 344.802 87.1Z" fill="#060404"/>
<path d="M313.998 193C306.598 193 300.298 188.1 298.398 181.1C289.498 181 282.398 173.8 282.398 164.9C282.398 163 282.698 161.1 283.398 159.3C275.698 156.9 270.398 149.7 270.398 141.5C270.398 135.5 273.298 129.9 278.198 126.4C277.398 124.2 276.998 122 276.998 119.7C276.998 109.4 285.398 101 295.698 101C296.398 101 297.198 101 297.898 101.1C298.198 92.5 305.398 85.5 314.098 85.5C322.998 85.5 330.298 92.8 330.298 101.7V176.8C330.198 185.8 322.898 193 313.998 193ZM298.898 179.6C299.198 179.6 299.598 179.8 299.598 180.2C301.098 186.9 306.998 191.6 313.898 191.6C321.998 191.6 328.598 185 328.598 176.9V101.8C328.598 93.7 321.998 87.1 313.898 87.1C305.798 87.1 299.198 93.7 299.198 101.8V102.1C299.198 102.3 299.098 102.5 298.898 102.7C298.698 102.8 298.498 102.9 298.298 102.9C297.398 102.7 296.498 102.6 295.498 102.6C285.998 102.6 278.298 110.3 278.298 119.8C278.298 122.1 278.698 124.3 279.598 126.5C279.698 126.8 279.598 127.2 279.298 127.4C274.598 130.6 271.698 135.9 271.698 141.6C271.698 149.4 276.898 156.2 284.398 158.2C284.598 158.3 284.798 158.4 284.898 158.6C284.998 158.8 284.998 159 284.898 159.2C284.098 161 283.698 163 283.698 165C283.698 173.1 290.298 179.7 298.398 179.7H298.698C298.798 179.6 298.898 179.6 298.898 179.6Z" fill="#060404"/>
<path d="M313.999 193.1C305.099 193.1 297.799 185.8 297.799 176.9C297.799 168 305.099 160.7 313.999 160.7C314.399 160.7 314.799 161 314.799 161.5C314.799 162 314.499 162.3 313.999 162.3C305.899 162.3 299.299 168.9 299.299 177C299.299 185.1 305.899 191.7 313.999 191.7C314.399 191.7 314.799 192 314.799 192.5C314.799 193 314.399 193.1 313.999 193.1ZM303.999 114.4C303.799 114.4 303.699 114.3 303.499 114.2C299.799 111.1 297.699 106.6 297.699 101.8C297.699 101.4 297.999 101 298.499 101C298.999 101 299.299 101.3 299.299 101.8C299.299 106.2 301.199 110.3 304.599 113.1C304.899 113.4 304.999 113.8 304.699 114.2C304.499 114.3 304.299 114.4 303.999 114.4ZM279.099 127.6C278.899 127.6 278.599 127.5 278.499 127.3C278.299 127 278.399 126.5 278.699 126.3C281.799 124.3 285.299 123.2 288.999 123.2H289.799C290.199 123.2 290.499 123.6 290.499 124C290.499 124.4 290.099 124.8 289.699 124.7C286.099 124.5 282.499 125.5 279.499 127.5C279.399 127.5 279.299 127.6 279.099 127.6Z" fill="#060404"/>
<path d="M303.098 166.6C302.998 166.6 302.798 166.6 302.698 166.5C299.098 164.4 296.798 160.5 296.798 156.3C296.798 155.3 296.898 154.3 297.198 153.4C297.298 153 297.698 152.8 298.098 152.9C298.498 153 298.698 153.4 298.598 153.8C298.398 154.6 298.298 155.5 298.298 156.4C298.298 160 300.298 163.4 303.398 165.3C303.798 165.5 303.898 166 303.698 166.3C303.598 166.5 303.398 166.6 303.098 166.6ZM312.498 125.7C309.398 125.7 306.498 124.5 304.198 122.3C303.498 121.6 302.898 120.8 302.398 120C302.198 119.6 302.298 119.2 302.698 119C303.098 118.8 303.498 118.9 303.698 119.3C304.098 120 304.698 120.7 305.298 121.3C307.798 123.8 311.398 124.8 314.898 124C315.298 123.9 315.698 124.2 315.798 124.6C315.898 125 315.598 125.4 315.198 125.5C314.298 125.6 313.398 125.7 312.498 125.7ZM291.398 143.1C290.398 143.1 289.398 143 288.498 142.7C288.098 142.6 287.898 142.2 287.998 141.8C288.098 141.4 288.498 141.2 288.898 141.3C289.698 141.5 290.598 141.6 291.498 141.6C294.998 141.6 298.198 139.9 300.098 137C300.298 136.7 300.798 136.6 301.098 136.8C301.398 137 301.498 137.5 301.298 137.8C299.098 141.2 295.398 143.1 291.398 143.1Z" fill="#060404"/>
<path d="M317.1 150.8C307.4 150.8 299.5 142.9 299.5 133.2V132.8C299.5 132.4 299.9 132.1 300.3 132.1C300.7 132.1 301 132.5 301 132.9V133.3C301 142.2 308.2 149.4 317.1 149.4C321.4 149.4 325.4 147.7 328.5 144.7C328.8 144.4 329.3 144.4 329.6 144.7C329.9 145 329.9 145.5 329.6 145.8C326.2 149 321.8 150.8 317.1 150.8ZM313.3 132.8C312.9 132.8 312.5 132.5 312.5 132C312.5 122.7 320.1 115.1 329.4 115.1C329.8 115.1 330.2 115.4 330.2 115.9C330.2 116.4 329.9 116.7 329.4 116.7C320.9 116.7 314 123.6 314 132.1C314 132.5 313.7 132.8 313.3 132.8Z" fill="#060404"/>
<path opacity="0.1" d="M405.202 180.6C398.902 195.6 388.202 208.2 374.902 217.1C364.702 223.9 358.302 235 358.302 247.2H299.702V247.1C299.702 235 293.402 223.8 283.302 217.1C279.502 214.6 275.902 211.8 272.602 208.7C284.902 215 298.802 218.5 313.402 218.5C364.702 218.5 406.402 175.2 406.402 121.8C406.402 120.6 406.402 119.4 406.302 118.2C409.002 125.1 410.802 132.4 411.502 140.1C412.902 154.6 410.502 168.4 405.202 180.6Z" fill="#D44EEF"/>
<path d="M142.9 437.3C142.9 436.4 141.6 347.8 121.3 330.9C118.6 328.6 115.6 327.8 112.4 328.3C95.3 331.3 84.6 368.9 82.5 434.3C82.4 436.9 82.4 437.1 82.4 437.2L81.5 436.9L82 437.1L81.5 437C81.5 436.8 81.6 435.7 81.6 434.3C82.9 396.1 88.5 331.5 112.3 327.3C115.8 326.7 119 327.6 122 330.1C142.7 347.3 143.9 433.6 144 437.2L142.9 437.3Z" fill="#060404"/>
<path d="M164.401 358.3C102.601 397.1 44.2009 367.8 44.3009 306.1C44.4009 264.2 63.3009 240.6 77.4009 235.8C97.6009 228.9 115.601 253.9 117.501 263.7C119.501 273.5 133.601 329.1 151.801 337.1C170.101 345.1 167.201 350.2 164.401 358.3Z" fill="white"/>
<path d="M109.3 376.2C97.4998 376.2 86.3998 373.5 76.5998 368.2C55.5998 356.6 43.5998 333.9 43.6998 306.1C43.7998 262.5 63.6998 239.9 77.1998 235.3C83.7998 233.1 90.5998 233.9 97.4998 237.9C108.6 244.3 116.7 257.1 118 263.6C120.6 276.2 134.6 329 152 336.7C169.8 344.6 167.9 350 165.2 357.5L164.8 358.7L164.7 358.8C146.2 370.3 127 376.2 109.3 376.2ZM84.3998 235C82.0998 235 79.7998 235.4 77.4998 236.2C64.3998 240.7 44.7998 263 44.7998 306C44.7998 333.5 56.5998 355.8 77.1998 367.3C101.1 380.5 133.6 377 164 357.9L164.3 357C167 349.5 168.6 345 151.6 337.5C133.8 329.6 119.6 276.5 117 263.7C115.7 257.5 107.9 245 96.9998 238.7C92.7998 236.3 88.5998 235 84.3998 235Z" fill="#060404"/>
<path d="M220.6 400.9L219.1 398.6L205.5 407.6C208.2 412.1 213.4 420.7 213.3 420.8L235.5 406.2C231.3 398.4 220.6 400.9 220.6 400.9Z" fill="#9F28EE"/>
<path d="M233 403.2C233.9 404 234.7 404.9 235.4 406.2L213.2 420.8C213.2 420.8 212.5 419.4 211.3 417.5L233 403.2ZM219.5 398.1C221.2 400 207.1 409.6 205.4 407.6L151 352.2C151 352.2 112.3 357.2 94.6998 352.9C77.1998 348.6 82.9998 314 82.9998 314C82.9998 314 142 309.1 165.5 313.4C178.8 315.7 219.5 398.1 219.5 398.1Z" fill="#060404"/>
<path d="M210.001 227.7C209.601 230.1 203.901 232.8 203.901 232.8C203.901 232.8 182.701 271.6 168.701 274.4C160.201 276 141.801 260.8 141.801 260.8L157.401 239.4L167.401 247.6L194.601 222.5C194.601 222.5 188.401 216 191.601 214.6C194.801 213.2 196.501 217.1 196.501 217.1C196.501 217.1 202.901 200.8 205.801 202.3C208.701 203.8 203.301 214 203.301 214C203.301 214 210.401 225.2 210.001 227.7Z" fill="white"/>
<path d="M167.302 275C158.302 275 142.202 261.7 141.502 261.1L141.102 260.8L157.302 238.6L167.402 246.8L193.902 222.3C192.802 221.1 189.802 217.6 190.302 215.4C190.602 213.8 192.802 213.3 194.302 213.9C195.302 214.3 196.102 215.2 196.502 215.8C197.902 212.5 202.002 202.7 204.902 201.7C205.402 201.5 205.902 201.6 206.102 201.8C209.102 203.4 205.102 211.7 203.902 213.9C205.102 215.9 211.002 225.4 210.502 227.8C210.002 230.3 205.302 232.7 204.302 233.2C202.702 236.2 182.602 272.2 168.802 274.9C168.302 274.9 167.802 275 167.302 275ZM142.502 260.6C145.102 262.7 161.102 275.3 168.602 273.8C182.202 271.2 203.302 232.9 203.502 232.5L203.602 232.4L203.702 232.3C205.202 231.6 209.202 229.3 209.502 227.5C209.802 225.9 205.602 218.4 202.802 214.1L202.602 213.9L202.702 213.6C204.802 209.6 207.102 203.5 205.402 202.6C205.302 202.6 205.202 202.5 205.002 202.6C202.902 203.4 199.002 211.7 196.802 217.1L196.402 218.2L195.902 217.1C195.902 217.1 195.102 215.3 193.702 214.7C193.102 214.5 192.402 214.5 191.702 214.8C191.402 215 191.202 215.2 191.102 215.5C190.802 217 193.202 220.2 194.802 221.9L195.202 222.3L167.302 248.1L157.302 240L142.502 260.6Z" fill="#060404"/>
<path d="M166.502 242L151.502 265.1L136.102 239.4L143.202 226.2C148.802 228 158.702 236 166.502 242Z" fill="#9F28EE"/>
<path d="M148.399 230C139.799 219.8 101.999 221 95.2992 226.3L79.6992 321.3L150.399 310.8C150.499 310.9 154.099 235.7 148.399 230Z" fill="#9F28EE"/>
<path d="M171.1 424.8V422.1H154.8C154.6 427.4 154.2 437.4 154 437.4H180.6C181.5 428.6 171.1 424.8 171.1 424.8Z" fill="#9F28EE"/>
<path d="M180.198 433.5C180.498 434.6 180.698 435.9 180.598 437.3H153.998C153.998 437.3 154.098 435.7 154.298 433.5H180.198ZM173.798 424.3L172.698 344.8L137.398 340.7L153.298 424.7C153.398 425.8 173.798 425.5 173.798 424.3Z" fill="#060404"/>
<path d="M94.9141 436.922L138.347 311.319L139.764 311.809L96.3317 437.412L94.9141 436.922Z" fill="#060404"/>
<path d="M61.1992 305.1H173.799V315.2H61.1992V305.1Z" fill="white"/>
<path d="M173.801 305.1H282.201V315.2H173.801V305.1Z" fill="#060404"/>
<path d="M174.299 315.7H60.6992V304.6H174.299V315.7ZM61.6992 314.7H173.299V305.6H61.6992V314.7Z" fill="#060404"/>
<path d="M282.701 315.7H173.301V304.6H282.701V315.7ZM174.301 314.7H281.701V305.6H174.301V314.7Z" fill="#060404"/>
<path d="M245.802 301.2C245.802 303.2 244.202 304.8 242.202 304.8H181.602C182.602 304.8 183.502 304.4 184.202 303.7C184.902 303 185.302 302.1 185.302 301.1C185.302 299.1 183.702 297.5 181.702 297.5H242.302C244.202 297.6 245.802 299.2 245.802 301.2Z" fill="white"/>
<path d="M185.3 301.2C185.3 302.2 184.9 303.1 184.2 303.8C183.5 304.5 182.6 304.9 181.6 304.9H132.6C130.6 304.9 129 303.3 129 301.3C129 299.3 130.6 297.7 132.6 297.7H181.6C183.6 297.6 185.3 299.2 185.3 301.2Z" fill="white"/>
<path d="M181.6 305.3H132.6C130.3 305.3 128.5 303.4 128.5 301.2C128.5 299 130.3 297.1 132.6 297.1H181.6C183.9 297.1 185.7 299 185.7 301.2C185.7 302.3 185.3 303.4 184.5 304.1C183.8 304.9 182.7 305.3 181.6 305.3ZM132.7 298.1C131 298.1 129.6 299.5 129.6 301.2C129.6 302.9 131 304.3 132.7 304.3H181.7C182.5 304.3 183.3 304 183.9 303.4C184.5 302.8 184.8 302 184.8 301.2C184.8 299.5 183.4 298.1 181.7 298.1H132.7Z" fill="#060404"/>
<path d="M245.802 301.2C245.802 303.2 244.202 304.8 242.202 304.8H181.602C182.602 304.8 183.502 304.4 184.202 303.7C184.902 303 185.302 302.1 185.302 301.1C185.302 299.1 183.702 297.5 181.702 297.5H242.302C244.202 297.6 245.802 299.2 245.802 301.2Z" fill="#060404"/>
<path d="M242.202 305.3H181.602C181.302 305.3 181.102 305.1 181.102 304.8C181.102 304.5 181.302 304.3 181.602 304.3C182.402 304.3 183.202 304 183.802 303.4C184.402 302.8 184.702 302 184.702 301.2C184.702 299.5 183.302 298.1 181.602 298.1C181.302 298.1 181.102 297.9 181.102 297.6C181.102 297.3 181.302 297.1 181.602 297.1H242.202C244.502 297.1 246.302 299 246.302 301.2C246.302 303.5 244.502 305.3 242.202 305.3ZM184.302 304.3H242.202C244.002 304.3 245.302 302.9 245.302 301.2C245.302 299.5 243.902 298.1 242.202 298.1H184.302C185.202 298.9 185.702 300 185.702 301.2C185.702 302.3 185.302 303.4 184.502 304.1C184.502 304.2 184.402 304.3 184.302 304.3Z" fill="#060404"/>
<path d="M256.9 246.5H197.8C196.3 246.5 195 247.5 194.6 248.9L181.3 293.2C180.6 295.4 182.3 297.6 184.5 297.6H243.6C245.1 297.6 246.4 296.6 246.8 295.2L260.1 250.9C260.8 248.7 259.2 246.5 256.9 246.5Z" fill="white"/>
<path d="M243.6 298.1H184.5C183.3 298.1 182.1 297.5 181.4 296.5C180.7 295.5 180.4 294.2 180.8 293.1L194.1 248.8C194.6 247.1 196.1 246 197.8 246H256.9C258.1 246 259.3 246.6 260 247.6C260.7 248.6 261 249.9 260.6 251L247.3 295.3C246.8 296.9 245.3 298.1 243.6 298.1ZM197.8 247C196.5 247 195.4 247.8 195 249.1L181.7 293.4C181.4 294.3 181.6 295.2 182.1 296C182.7 296.7 183.5 297.2 184.4 297.2H243.5C244.8 297.2 245.9 296.4 246.3 295.1L259.6 250.8C259.9 249.9 259.7 249 259.2 248.2C258.6 247.5 257.8 247 256.9 247H197.8ZM179.3 301.2C179.3 301.8 178.9 302.2 178.3 302.2H170.8C170.2 302.2 169.8 301.7 169.8 301.2C169.8 300.6 170.2 300.2 170.8 300.2H178.3C178.8 300.2 179.3 300.6 179.3 301.2ZM167.7 301.2C167.7 301.8 167.2 302.2 166.7 302.2H161.5C160.9 302.2 160.5 301.7 160.5 301.2C160.5 300.6 161 300.2 161.5 300.2H166.7C167.3 300.2 167.7 300.6 167.7 301.2Z" fill="#060404"/>
<path d="M227.999 275.4C226.799 278.5 223.399 281 220.499 281.1C217.599 281.2 216.199 278.7 217.499 275.6C218.699 272.5 222.099 270 224.999 269.9C227.899 269.8 229.299 272.3 227.999 275.4Z" fill="#060404"/>
<path d="M153.399 305.2C149.599 305.4 138.299 305.2 138.299 305.2H77.5991C69.1991 305.2 62.9991 297.4 64.8991 289.2L71.7991 258.7L96.6991 263.2L91.4991 279.2L139.099 291.3C139.099 291.3 143.399 280.9 146.399 282.8C149.499 284.7 144.799 290.7 144.799 290.7C144.799 290.7 158.699 288.8 158.899 296.6C159.199 304.6 155.899 305 153.399 305.2Z" fill="white"/>
<path d="M147.802 305.8C143.402 305.8 138.402 305.7 138.302 305.7H77.6016C73.5016 305.7 69.6016 303.8 67.0016 300.6C64.4016 297.4 63.5016 293.2 64.4016 289.1L71.4016 258.2L97.4016 262.9L92.2016 278.9L138.802 290.8C139.502 289.1 142.302 283.1 144.902 282.3C145.502 282.1 146.102 282.2 146.602 282.5C147.302 282.9 147.702 283.5 147.802 284.3C148.202 286.3 146.702 288.9 145.802 290.3C148.302 290.1 154.202 289.9 157.402 292.6C158.702 293.7 159.302 295.1 159.402 296.8C159.602 304.4 156.602 305.6 153.402 305.7C152.102 305.7 150.002 305.8 147.802 305.8ZM72.1016 259.3L65.3016 289.3C64.4016 293 65.3016 296.9 67.7016 299.9C70.1016 302.9 73.7016 304.6 77.5016 304.6H138.202C138.302 304.6 149.502 304.8 153.202 304.6C155.302 304.5 158.502 304.3 158.302 296.7C158.302 295.3 157.702 294.1 156.702 293.2C153.102 290.1 144.902 291.2 144.802 291.2L143.602 291.4L144.302 290.4C145.102 289.3 147.102 286.2 146.802 284.3C146.702 283.8 146.502 283.4 146.002 283.2C145.702 283 145.402 283 145.102 283.1C143.002 283.8 140.302 289.4 139.402 291.5L139.202 291.9L90.7016 279.6L95.9016 263.6L72.1016 259.3Z" fill="#060404"/>
<path d="M105.002 236.2C104.502 230.9 102.402 226.6 97.3016 225.3C97.3016 225.3 84.4016 230.4 77.6016 241.9C70.1016 254.4 68.1016 262 68.1016 262L98.0016 267.5C98.0016 267.6 106.102 248.9 105.002 236.2Z" fill="#9F28EE"/>
<path d="M98.2992 268.1L67.9992 262.5L68.1992 261.5L97.6992 266.9C98.7992 264.3 105.199 248.5 104.599 237.1L105.599 237C106.299 249.6 98.4992 267.4 98.3992 267.6L98.2992 268.1ZM107.199 437.3C107.199 436.5 105.899 360.8 86.4992 344.3C83.4992 341.8 80.1992 340.8 76.6992 341.3C59.5992 343.9 48.9992 377.1 46.7992 434.7C46.6992 437.1 46.6992 437.2 46.5992 437.3L45.6992 436.9L46.1992 437.1L45.6992 437C45.6992 436.8 45.7992 435.9 45.7992 434.6C46.9992 401 52.6992 344 76.4992 340.3C80.2992 339.7 83.8992 340.8 87.0992 343.5C106.899 360.3 108.199 434.1 108.199 437.3H107.199Z" fill="#060404"/>
<path d="M230.539 311.775L231.957 311.285L275.376 436.893L273.958 437.383L230.539 311.775Z" fill="#060404"/>
<path d="M131.898 213.7C131.898 213.7 130.498 218.7 132.598 222.5C134.198 225.3 133.498 230.2 129.598 231.3C123.198 233 111.898 223 111.898 223L117.098 195L131.898 213.7Z" fill="white"/>
<path d="M128.1 232C121.5 232 112.1 223.8 111.7 223.4L111.5 223.2L117 193.8L132.6 213.6L132.5 213.8C132.5 213.8 131.2 218.7 133.2 222.2C134.2 224 134.3 226.6 133.5 228.5C132.8 230.1 131.6 231.2 129.9 231.7C129.2 231.9 128.7 232 128.1 232ZM112.5 222.8C114.1 224.1 123.9 232.3 129.5 230.8C131.2 230.3 132.1 229.1 132.5 228.2C133.2 226.5 133.1 224.3 132.2 222.8C130.3 219.3 131.1 215 131.4 213.9L117.5 196.2L112.5 222.8Z" fill="#060404"/>
<path d="M114.402 192.4C113.502 204.5 122.502 218.7 134.302 216.8C147.902 214.6 140.102 182.5 133.602 176.6C127.102 170.7 115.002 177.2 115.002 177.2L111.602 187.3L114.402 192.4Z" fill="white"/>
<path d="M132.1 217.5C128.4 217.5 124.9 216 121.8 213.2C116.5 208.3 113.3 200.1 113.9 192.6L111 187.4L114.6 176.9L114.8 176.8C115.3 176.5 127.3 170.3 133.9 176.3C140.8 182.5 148.5 215.1 134.4 217.3C133.6 217.4 132.9 217.5 132.1 217.5ZM112.1 187.2L114.9 192.3V192.4C114.3 199.6 117.4 207.6 122.5 212.3C124.9 214.5 128.9 217 134.2 216.2C147 214.1 139.7 182.7 133.2 176.9C127.4 171.7 116.9 176.7 115.4 177.4L112.1 187.2Z" fill="#060404"/>
<path d="M125.951 193.293C126.5 193.236 126.881 192.566 126.801 191.797C126.722 191.028 126.212 190.451 125.663 190.508C125.113 190.564 124.732 191.234 124.812 192.003C124.891 192.772 125.401 193.349 125.951 193.293Z" fill="#060404"/>
<path d="M134.947 192.594C135.496 192.537 135.877 191.868 135.797 191.099C135.718 190.33 135.208 189.752 134.659 189.809C134.109 189.866 133.729 190.535 133.808 191.304C133.888 192.074 134.397 192.651 134.947 192.594Z" fill="#060404"/>
<path d="M131.002 200.2L130.302 199.5C130.502 199.4 130.602 199.2 131.602 199C131.902 198.9 132.002 198.8 132.002 198.8C132.002 198.7 131.802 198.4 131.602 198.3C130.102 196.9 129.302 194.8 129.702 192.8L130.702 193C130.402 194.7 131.002 196.5 132.302 197.6C132.602 197.9 133.102 198.3 133.002 199C132.902 199.5 132.502 199.9 131.802 200.1C131.402 200 131.102 200.1 131.002 200.2ZM129.602 207.3C129.202 207.3 128.902 207.2 128.502 207.1C127.702 206.8 127.102 206.2 126.702 205.5L127.602 205.1C127.802 205.6 128.302 206 128.802 206.2C129.302 206.4 130.002 206.4 130.502 206.1L130.902 207C130.602 207.2 130.102 207.3 129.602 207.3ZM115.402 207.5C115.402 207.5 86.0018 186.3 103.502 178C103.502 178 100.702 168.9 106.102 165.8C111.502 162.7 113.202 164.8 113.202 164.8C113.202 164.8 124.702 154.9 134.602 163.1C134.602 163.1 139.802 159.2 143.502 166.9C147.302 174.6 136.902 181 136.902 181L134.902 177.6C134.902 177.6 127.902 182.1 118.102 181.5C118.102 181.5 122.202 189.2 118.102 192.2C114.002 195.2 116.402 203.8 116.402 203.8L115.402 207.5Z" fill="#060404"/>
<path d="M228.599 93.4999C227.699 96.2999 224.799 98.6999 221.799 98.5999H169.099C166.999 99.2999 164.399 98.1999 163.499 96.0999C162.599 94.0999 163.599 91.3999 165.499 90.3999C168.499 88.8999 172.699 90.7999 175.299 88.6999C177.899 86.4999 176.599 82.1999 177.599 78.8999C178.699 75.4999 182.699 73.5999 186.199 73.8999C189.799 74.1999 192.899 76.3999 195.499 78.8999C198.499 81.8999 201.099 85.8999 205.199 86.8999C208.599 87.7999 212.099 86.4999 215.499 85.4999C218.799 84.4999 222.699 83.7999 225.699 85.6999C228.199 87.2999 229.499 90.6999 228.599 93.4999ZM492.298 87.9999C491.298 91.1999 487.999 93.9999 484.599 93.7999H424.798C422.398 94.5999 419.498 93.2999 418.398 90.9999C417.398 88.6999 418.499 85.6999 420.699 84.4999C424.099 82.6999 428.898 84.9999 431.798 82.5999C434.798 80.0999 433.199 75.2999 434.499 71.4999C435.799 67.5999 440.198 65.4999 444.298 65.8999C448.398 66.2999 451.898 68.6999 454.798 71.5999C458.198 74.9999 461.098 79.4999 465.798 80.6999C469.598 81.6999 473.599 80.1999 477.499 79.0999C481.299 77.8999 485.699 77.0999 489.099 79.2999C491.899 80.9999 493.298 84.7999 492.298 87.9999Z" fill="#FFCCCC"/>
<path d="M518.898 424L501.698 324L487.098 424H473.898L468.898 291.8H534.098C536.298 296.7 534.098 404.2 532.098 424.3L518.898 424Z" fill="#060404"/>
<path d="M553.001 278.8C560.401 270.9 550.701 236.4 550.701 236.4L531.801 251.6L533.601 260.7" fill="white"/>
<path d="M553.001 279.3C552.901 279.3 552.801 279.3 552.701 279.2C552.501 279 552.501 278.7 552.701 278.5C559.201 271.5 551.801 242.3 550.501 237.3L532.401 251.8L534.101 260.6C534.201 260.9 534.001 261.1 533.701 261.2C533.401 261.3 533.201 261.1 533.101 260.8L531.301 251.7C531.301 251.5 531.301 251.3 531.501 251.2L550.401 236C550.501 235.9 550.701 235.9 550.901 235.9C551.101 236 551.201 236.1 551.201 236.2C551.601 237.6 560.901 271.1 553.401 279.1C553.201 279.3 553.101 279.3 553.001 279.3Z" fill="#060404"/>
<path d="M414.199 222.3L419.199 225.6C419.199 225.6 437.899 263.4 452.499 264.4C462.299 265.1 482.799 239.4 482.799 239.4L466.999 221.8L450.099 237.9L426.599 216.8C426.599 216.8 427.799 210.6 425.099 209.6C422.399 208.6 422.199 212.5 422.199 212.5L412.199 201.3C411.299 200.3 409.599 200.4 408.899 201.6C408.399 202.4 408.499 203.5 409.299 204.2L415.999 210.5L412.699 216C411.499 218.1 412.099 220.9 414.199 222.3Z" fill="white"/>
<path d="M452.898 264.9H452.498C437.998 263.9 420.298 228.7 418.898 225.9L413.998 222.7C411.698 221.2 410.998 218.1 412.398 215.7L415.498 210.6L409.098 204.6C408.198 203.8 407.998 202.4 408.698 201.3C409.098 200.6 409.898 200.2 410.698 200.1C411.498 200 412.298 200.3 412.898 201L422.198 211.4C422.398 210.7 422.698 209.8 423.398 209.3C423.998 208.9 424.698 208.8 425.598 209.1C428.398 210.1 427.698 215.3 427.498 216.5L450.498 237.1L467.098 221.3C467.198 221.2 467.298 221.1 467.498 221.2C467.598 221.2 467.798 221.3 467.898 221.4L483.698 239C483.898 239.2 483.898 239.5 483.698 239.6C482.398 240.8 462.998 264.9 452.898 264.9ZM410.798 201.1H410.698C410.198 201.1 409.798 201.4 409.498 201.8C409.098 202.4 409.198 203.3 409.798 203.8L416.498 210.1C416.698 210.3 416.698 210.5 416.598 210.7L413.298 216.2C412.098 218.1 412.698 220.6 414.598 221.8L419.598 225.1C419.698 225.1 419.698 225.2 419.798 225.3C419.998 225.7 438.498 262.8 452.698 263.9C461.498 264.5 479.898 242.4 482.398 239.4L467.298 222.5L450.798 238.2C450.598 238.4 450.298 238.4 450.098 238.2L426.598 217.1C426.498 217 426.398 216.8 426.398 216.6C426.698 215 427.098 210.7 425.198 210C424.698 209.8 424.298 209.8 423.898 210C423.198 210.5 422.998 211.9 422.998 212.4C422.998 212.6 422.898 212.8 422.698 212.9C422.498 213 422.298 212.9 422.198 212.8L412.198 201.6C411.698 201.3 411.198 201.1 410.798 201.1Z" fill="#060404"/>
<path d="M533.201 253.6C532.401 253.7 531.701 253.7 530.901 253.8L534.901 299.1C534.901 305.3 468.101 305.3 468.101 299.1L470.701 245.9V245.8C470.701 245.8 457.201 236.4 455.801 225.6C459.401 220 470.801 204.4 488.901 199.1C492.401 198.1 496.101 197.4 500.101 197.3C505.001 197.2 509.701 197.9 514.001 199.2C517.501 200.2 520.801 201.7 523.901 203.4C544.801 215 555.301 241.3 555.301 241.3C555.301 241.3 555.501 240.6 553.401 242.7C549.601 246.5 542.801 252.1 534.401 253.5C534.001 253.5 533.601 253.5 533.201 253.6Z" fill="#F81F8B"/>
<path d="M523.801 203.3C545.401 215.2 556.301 242.3 556.301 242.3C556.301 242.3 556.501 241.6 554.301 243.8C550.401 247.7 543.401 253.5 534.701 255C534.301 255.1 533.901 255.1 533.501 255.2C532.701 255.3 531.901 255.4 531.101 255.4" fill="#F81F8B"/>
<path d="M530.702 255.5L524.202 236C524.102 235.7 524.302 235.5 524.502 235.4C524.802 235.3 525.002 235.5 525.102 235.7L531.602 255.2C531.702 255.5 531.502 255.7 531.302 255.8C531.002 255.9 530.702 255.7 530.702 255.5ZM470.602 246.4C470.302 246.4 470.102 246.1 470.102 245.8L472.002 233.1C472.002 232.8 472.302 232.6 472.602 232.7C472.902 232.7 473.102 233 473.002 233.3L471.102 246C471.102 246.2 470.902 246.4 470.602 246.4Z" fill="#060404"/>
<path d="M509.602 198C509.602 198 504.302 206.8 490.302 210.6L489.602 198.9C489.602 198.9 490.902 193 491.402 188C491.802 183.1 503.002 172.5 503.802 171.8C504.602 171.1 504.202 179.3 506.002 186.9C507.002 191 507.602 195 509.602 198Z" fill="white"/>
<path d="M490.302 211.1C490.202 211.1 490.102 211.1 490.002 211C489.902 210.9 489.802 210.8 489.802 210.6L489.102 198.9V198.8C489.102 198.7 490.402 192.9 490.902 187.9C491.402 182.5 503.302 171.5 503.502 171.4C503.602 171.3 503.602 171.3 503.702 171.3H504.002C504.202 171.4 504.302 171.5 504.302 171.7C504.302 171.8 504.702 179.3 506.502 186.7C506.702 187.5 506.902 188.3 507.002 189C507.702 192.2 508.402 195.3 510.002 197.6C510.102 197.8 510.102 198 510.002 198.1C509.802 198.5 504.402 207.2 490.402 210.9L490.302 211.1ZM490.002 199L490.702 210C502.602 206.6 508.002 199.5 509.002 198C507.502 195.6 506.802 192.5 506.002 189.3C505.802 188.5 505.602 187.8 505.502 187C504.102 181.1 503.502 175.1 503.402 172.8C500.702 175.3 492.202 183.9 491.902 188C491.402 192.8 490.202 198.3 490.002 199Z" fill="#060404"/>
<path d="M504.299 174C504.299 174 504.699 192.8 489.799 194.4C472.699 196.2 479.299 161.6 479.299 161.6L490.499 152.9L503.699 155.8L509.699 164.7L504.299 174Z" fill="white"/>
<path d="M488.502 195C485.802 195 483.602 194.1 481.802 192.2C474.502 184.3 478.502 162.5 478.702 161.5C478.702 161.4 478.802 161.3 478.902 161.2L490.102 152.5C490.202 152.4 490.402 152.4 490.502 152.4L503.702 155.3C503.802 155.3 503.902 155.4 504.002 155.5L510.002 164.4C510.102 164.6 510.102 164.8 510.002 164.9L504.802 174.2C504.802 176 504.302 193.4 489.802 194.9C489.402 194.9 488.902 195 488.502 195ZM479.702 161.8C479.302 163.9 475.902 184.2 482.602 191.4C484.402 193.3 486.802 194.2 489.702 193.8C504.002 192.3 503.802 174.1 503.802 173.9C503.802 173.8 503.802 173.7 503.902 173.6L509.002 164.5L503.302 156L490.602 153.2L479.702 161.8Z" fill="#060404"/>
<path d="M515.602 168.7C519.202 172.4 513.502 185.9 506.002 186.9C504.202 179.3 503.502 171.8 503.502 171.8C503.502 171.8 501.202 167.5 501.102 167.4C501.002 167.4 497.802 165.5 498.402 162.8C499.002 160.1 497.702 160.7 495.502 160.9C492.102 161.3 475.302 168.9 472.302 162C465.702 147 488.802 145.4 497.802 147.2C506.802 149 509.002 151.5 513.602 156.1C515.302 157.9 512.102 165.1 515.602 168.7Z" fill="#060404"/>
<path d="M482.199 172.9C482.199 173.8 482.699 174.5 483.199 174.5C483.799 174.5 484.199 173.8 484.199 172.9C484.199 172 483.699 171.3 483.199 171.3C482.699 171.3 482.199 172 482.199 172.9ZM491.199 173.5C491.199 174.4 491.699 175.1 492.199 175.1C492.799 175.1 493.199 174.4 493.199 173.5C493.199 172.6 492.699 171.9 492.199 171.9C491.699 171.9 491.199 172.6 491.199 173.5ZM487.699 181.8L485.799 180C485.599 179.8 484.999 179.3 485.199 178.6C485.399 178 486.099 177.9 486.299 177.7C486.599 177.5 486.699 177 486.799 176.4L487.199 172.8C487.199 172.5 487.499 172.3 487.799 172.4C488.099 172.4 488.299 172.7 488.199 173L487.799 176.6C487.699 177.1 487.599 178.1 486.799 178.6C486.699 178.7 486.499 178.7 486.399 178.8C486.299 178.8 486.099 178.9 486.099 179C486.099 179 486.099 179.1 486.399 179.3L488.299 181.1C488.499 181.3 488.499 181.6 488.299 181.8C488.299 181.9 487.899 182 487.699 181.8ZM489.899 188C489.099 188 488.299 187.7 487.699 187.2C487.499 187 487.499 186.7 487.599 186.5C487.799 186.3 488.099 186.3 488.299 186.4C488.699 186.8 489.299 187 489.899 187C490.499 187 491.099 186.7 491.499 186.3C491.699 186.1 491.999 186.1 492.199 186.3C492.399 186.5 492.399 186.8 492.199 187C491.599 187.6 490.799 188 489.899 188ZM496.899 217.5C495.099 216.4 490.099 211.1 489.899 210.9C489.699 210.7 489.699 210.4 489.899 210.2C490.099 210 490.399 210 490.599 210.2C490.699 210.3 495.699 215.6 497.399 216.6C498.899 217.5 499.499 217.5 500.499 215.9L506.699 206.3C506.899 206.1 507.199 206 507.399 206.2C507.599 206.3 507.699 206.7 507.499 206.9L501.299 216.5C500.099 218.5 498.899 218.8 496.899 217.5Z" fill="#060404"/>
<path d="M484.799 213.3C482.899 213.3 481.699 212.1 482.799 209.7L485.499 204.2C485.599 204 485.899 203.8 486.199 204C486.399 204.1 486.599 204.4 486.399 204.7L483.699 210.2C482.899 211.8 483.399 212.2 484.599 212.4C485.599 212.6 488.499 211.2 489.999 210.3C490.199 210.2 490.499 210.2 490.699 210.5C490.799 210.7 490.799 211 490.499 211.2C490.099 211.3 486.699 213.3 484.799 213.3Z" fill="#060404"/>
<path d="M518.301 426.3V424H532.101C532.301 428.5 532.601 436.9 532.701 436.9H510.301C509.501 429.5 518.301 426.3 518.301 426.3Z" fill="#F81F8B"/>
<path d="M510.599 433.7C510.299 434.7 510.199 435.7 510.299 436.9H532.699C532.699 436.9 532.599 435.6 532.499 433.7H510.599Z" fill="#060404"/>
<path d="M473.301 426.3V424H487.101C487.301 428.5 487.601 436.9 487.701 436.9H465.301C464.501 429.5 473.301 426.3 473.301 426.3Z" fill="#F81F8B"/>
<path d="M465.598 433.7C465.298 434.7 465.198 435.7 465.298 436.9H487.698C487.698 436.9 487.598 435.6 487.498 433.7H465.598ZM469.798 281.7H486.598C488.498 281.7 489.898 279.9 489.498 278L482.598 249.7C482.298 248.4 481.098 247.4 479.698 247.4H462.898C460.998 247.4 459.598 249.2 459.998 251.1L466.898 279.4C467.298 280.8 468.498 281.7 469.798 281.7Z" fill="#060404"/>
<path d="M533.498 260.7L488.498 264C488.498 264 487.498 257.6 484.898 259.1C482.298 260.6 484.898 262.8 484.898 262.8C484.898 262.8 470.098 262.9 473.998 272.2C477.898 281.5 491.698 275.9 491.698 275.9C491.698 275.9 541.398 291.2 552.998 278.8" fill="white"/>
<path d="M535.502 284.2C517.702 284.2 494.302 277.3 491.802 276.5C490.202 277.1 477.402 281.6 473.602 272.5C472.602 270.2 472.702 268.2 473.802 266.6C475.902 263.4 481.602 262.6 483.902 262.5C483.602 262 483.302 261.4 483.302 260.7C483.402 259.9 483.802 259.3 484.702 258.8C485.502 258.4 486.102 258.5 486.502 258.7C488.002 259.4 488.802 262.4 489.002 263.6L533.602 260.3C533.902 260.3 534.102 260.5 534.102 260.8C534.102 261.1 533.902 261.3 533.602 261.3L488.602 264.6C488.302 264.6 488.102 264.4 488.102 264.2C487.902 262.7 487.102 260 486.102 259.5C485.902 259.4 485.702 259.4 485.302 259.6C484.702 259.9 484.402 260.3 484.402 260.7C484.302 261.4 485.102 262.2 485.402 262.5C485.602 262.6 485.602 262.9 485.502 263.1C485.402 263.3 485.202 263.4 485.002 263.4C484.902 263.4 477.002 263.5 474.602 267.1C473.702 268.4 473.702 270.1 474.502 272.1C478.102 280.8 491.402 275.5 491.602 275.5H491.902C492.402 275.7 541.502 290.5 552.602 278.5C552.802 278.3 553.102 278.3 553.302 278.5C553.502 278.7 553.502 279 553.302 279.2C549.902 282.9 543.202 284.2 535.502 284.2Z" fill="#060404"/>
<path d="M254.002 158.8H193.502C190.002 158.8 187.102 156 187.102 152.4V130.1C187.102 126.6 189.902 123.7 193.502 123.7H254.002C257.502 123.7 260.402 126.5 260.402 130.1V152.4C260.302 155.9 257.502 158.8 254.002 158.8Z" fill="#12A67C"/>
<path d="M204.498 150.4C209.524 150.4 213.598 146.326 213.598 141.3C213.598 136.274 209.524 132.2 204.498 132.2C199.473 132.2 195.398 136.274 195.398 141.3C195.398 146.326 199.473 150.4 204.498 150.4Z" fill="white"/>
<path d="M204.5 140.6C205.605 140.6 206.5 139.705 206.5 138.6C206.5 137.496 205.605 136.6 204.5 136.6C203.395 136.6 202.5 137.496 202.5 138.6C202.5 139.705 203.395 140.6 204.5 140.6Z" fill="#FE6021"/>
<path d="M209.799 146.2C209.399 143.6 207.199 141.7 204.499 141.7C201.799 141.7 199.599 143.7 199.199 146.2H209.799Z" fill="#FE6021"/>
<path d="M230.2 136C230.2 136.5 229.8 136.9 229.3 136.9H218.4C217.9 136.9 217.5 136.5 217.5 136C217.5 135.5 217.9 135.1 218.4 135.1H229.3C229.8 135.1 230.2 135.5 230.2 136ZM236 142.2C236 142.7 235.6 143.1 235.1 143.1H218.4C217.9 143.1 217.5 142.7 217.5 142.2C217.5 141.7 217.9 141.3 218.4 141.3H235.1C235.6 141.3 236 141.7 236 142.2ZM252 142.2C252 142.7 251.6 143.1 251.1 143.1H240.3C239.8 143.1 239.4 142.7 239.4 142.2C239.4 141.7 239.8 141.3 240.3 141.3H251.1C251.6 141.3 252 141.7 252 142.2ZM229.4 146.2C229.4 146.7 229 147.1 228.5 147.1H218.4C217.9 147.1 217.5 146.7 217.5 146.2C217.5 145.7 217.9 145.3 218.4 145.3H228.5C229 145.3 229.4 145.7 229.4 146.2ZM241.5 146.2C241.5 146.7 241.1 147.1 240.6 147.1H234.6C234.1 147.1 233.7 146.7 233.7 146.2C233.7 145.7 234.1 145.3 234.6 145.3H240.6C241.1 145.3 241.5 145.7 241.5 146.2Z" fill="white"/>
<path d="M193.302 177.7V189.3C193.302 190.9 192.002 192.3 190.302 192.3H164.002L158.902 196C158.202 196.5 157.202 196 157.202 195.1V192.2H156.602C155.002 192.2 153.602 190.9 153.602 189.2V177.6C153.602 176 154.902 174.6 156.602 174.6H190.302C192.002 174.8 193.302 176.1 193.302 177.7Z" fill="#F6CC61"/>
<path d="M162 179.8H177.2C177.5 179.8 177.7 179.6 177.7 179.3C177.7 179 177.5 178.8 177.2 178.8H162C161.7 178.8 161.5 179 161.5 179.3C161.5 179.6 161.7 179.8 162 179.8ZM181.1 179.8H188C188.3 179.8 188.5 179.6 188.5 179.3C188.5 179 188.3 178.8 188 178.8H181.1C180.8 178.8 180.6 179 180.6 179.3C180.6 179.6 180.8 179.8 181.1 179.8ZM162 184.1H168.4C168.7 184.1 168.9 183.9 168.9 183.6C168.9 183.3 168.7 183.1 168.4 183.1H162C161.7 183.1 161.5 183.3 161.5 183.6C161.5 183.9 161.7 184.1 162 184.1ZM172.2 184.6H188C188.3 184.6 188.5 184.4 188.5 184.1C188.5 183.8 188.3 183.6 188 183.6H172.2C171.9 183.6 171.7 183.8 171.7 184.1C171.7 184.4 172 184.6 172.2 184.6ZM183.3 188.3H188C188.3 188.3 188.5 188.1 188.5 187.8C188.5 187.5 188.3 187.3 188 187.3H183.3C183 187.3 182.8 187.5 182.8 187.8C182.8 188.1 183.1 188.3 183.3 188.3Z" fill="white"/>
<path d="M448.001 181.5H403.701C401.001 181.5 398.801 179.3 398.801 176.6V141.2C398.801 138.5 401.001 136.3 403.701 136.3H448.001C450.701 136.3 452.901 138.5 452.901 141.2V176.6C452.901 179.4 450.701 181.5 448.001 181.5Z" fill="#F6CC61"/>
<path d="M406 173.2H445.8V175.6H406V173.2ZM411.1 161.3H416.8V170.1H411.1V161.3ZM419.2 166.2H424.9V170.1H419.2V166.2ZM427.3 157.8H433V170.1H427.3V157.8ZM435.3 152.2H441V170.2H435.3V152.2ZM422.1 159.2L413.3 154.7C413.1 154.6 413 154.3 413.1 154.1C413.2 153.9 413.5 153.8 413.7 153.9L422.2 158.2L429.8 150.2L437.7 144.1C437.9 144 438.2 144 438.3 144.2C438.4 144.4 438.4 144.7 438.2 144.8L430.4 150.9L422.6 159.1C422.5 159.2 422.3 159.3 422.1 159.2Z" fill="white"/>
<path d="M413.702 157C415.138 157 416.302 155.836 416.302 154.4C416.302 152.964 415.138 151.8 413.702 151.8C412.266 151.8 411.102 152.964 411.102 154.4C411.102 155.836 412.266 157 413.702 157Z" fill="white"/>
<path d="M421.998 160.8C423.434 160.8 424.598 159.636 424.598 158.2C424.598 156.764 423.434 155.6 421.998 155.6C420.563 155.6 419.398 156.764 419.398 158.2C419.398 159.636 420.563 160.8 421.998 160.8Z" fill="white"/>
<path d="M429.901 153.6C431.337 153.6 432.501 152.436 432.501 151C432.501 149.564 431.337 148.4 429.901 148.4C428.465 148.4 427.301 149.564 427.301 151C427.301 152.436 428.465 153.6 429.901 153.6Z" fill="white"/>
<path d="M437.702 147.6C439.138 147.6 440.302 146.436 440.302 145C440.302 143.564 439.138 142.4 437.702 142.4C436.266 142.4 435.102 143.564 435.102 145C435.102 146.436 436.266 147.6 437.702 147.6Z" fill="white"/>
<path d="M375.999 412.8C375.799 410.3 376.399 407.7 377.599 405.5C378.099 404.6 378.999 403 379.899 402.5C380.799 402.1 382.899 403.6 383.799 404C383.799 402.3 383.799 400.8 384.199 399.2C386.599 397.8 388.499 396.1 390.099 393.9C391.699 396.8 392.899 399.9 393.699 403.1C394.099 404.8 394.399 406.5 393.999 408.2C393.599 409.8 392.599 411.2 391.499 412.3C390.299 413.4 388.899 414.3 387.599 415.2C385.199 416.7 381.599 414.8 379.099 413.5C377.899 412.9 377.199 412.8 375.999 412.8Z" fill="#12A67C"/>
<path d="M418.199 349.4C419.999 355.9 417.099 364.2 412.299 369.7C402.899 380.7 387.499 384.5 379.299 396.9C375.299 402.7 373.099 409.8 372.899 417C372.399 409.8 374.299 402.4 378.199 396.2C385.999 383.3 401.499 379.6 411.299 368.9C415.899 363.9 419.299 356.1 418.199 349.4Z" fill="#008080"/>
<path d="M418.201 349.4C418.201 349.4 425.201 364.4 416.701 375.6L414.101 374.8V377.5C414.101 377.5 409.001 380.3 401.201 379V378L404.801 375.7L408.101 373.4L412.101 368.7L415.001 364.7L417.001 361.5L418.601 354.5L418.201 349.4ZM424.201 401.7C424.201 401.7 420.301 404.4 413.601 403.3C406.901 402.2 393.301 388.2 382.301 392.3L386.301 388.4C386.301 388.4 402.401 379.5 413.501 383.2C424.601 386.9 424.201 401.7 424.201 401.7Z" fill="#12A67C"/>
<path opacity="0.1" d="M424.201 401.7C424.201 401.7 420.301 404.4 413.601 403.3C406.901 402.2 393.301 388.2 382.301 392.3C382.701 392 390.101 387.3 393.801 387.4C400.101 387.5 403.801 390.7 411.101 396.8C418.401 402.9 424.201 401.7 424.201 401.7Z" fill="black"/>
<path d="M378.102 379.3C378.102 379.3 400.102 380.3 406.002 360.7L398.202 358.9L406.502 354.2C406.502 354.2 407.202 340.9 410.602 336.4C410.502 336.5 363.902 342.1 378.102 379.3ZM369.702 411.6C370.102 408 369.902 404.3 369.402 400.7C367.602 388.9 361.602 380.1 350.102 376.8C353.202 377.7 353.202 377.6 354.002 378C355.802 378.8 355.202 378.3 357.702 379.8L358.902 380.5C359.502 381.1 363.602 383.5 366.802 390C368.402 393.3 369.402 396.9 369.802 400.6C370.302 404.3 370.202 408 369.702 411.6Z" fill="#12A67C"/>
<path d="M362.301 383.8C342.201 389.1 341.801 369.2 341.801 369.2C346.101 373.3 352.601 371.5 357.901 374.5C363.101 377.5 362.301 383.8 362.301 383.8ZM371.001 411.2C370.801 408 370.601 404.7 370.301 401.5C370.001 398.3 369.701 395.1 369.201 391.9C368.201 384.9 366.601 378.8 364.501 373.1C366.801 378.2 368.501 383.5 369.801 391.8C370.201 395 370.601 398.2 370.801 401.5C370.901 403.1 371.001 404.7 371.001 406.4V411.2Z" fill="#12A67C"/>
<path d="M365.499 376C362.599 369 344.299 360.3 339.899 355.8C335.499 351.2 336.799 344 336.799 344C340.899 348 350.499 348.4 361.499 355.9C372.499 363.4 365.499 376 365.499 376ZM366.999 406.7C366.999 406.7 367.399 390.9 358.799 388.9C350.199 386.9 346.399 388.9 346.399 388.9L346.699 391.4L343.599 389.1C343.599 389.1 337.199 390.9 334.699 390.4C334.699 390.4 336.099 395 343.799 396.8C351.499 398.6 361.799 399 366.999 406.7Z" fill="#12A67C"/>
<path d="M366.398 404.8C366.898 406 367.198 407.3 367.398 408.6C367.498 409.9 367.398 411.3 366.998 412.5L366.898 410.6L366.798 408.7L366.598 406.8C366.498 406.1 366.398 405.5 366.398 404.8Z" fill="#D44EEF"/>
<path opacity="0.1" d="M365.5 376C362.6 369 344.3 360.3 339.9 355.8C335.5 351.2 336.8 344 336.8 344C336.8 344 336.6 351.7 343.1 353.4C349.5 355.2 363.6 363.7 365.5 376Z" fill="black"/>
<path d="M373.501 411.2C373.101 404.7 373.601 398.2 374.601 391.7C377.901 371.7 387.301 354 404.301 343.1C394.201 350.6 386.401 359.2 380.701 373.2C378.201 379.1 376.501 385.4 375.201 391.8C374.601 395 374.101 398.2 373.801 401.4C373.601 404.7 373.501 408 373.501 411.2Z" fill="#008080"/>
<path d="M384.199 437.3H366.099C365.099 437.3 364.199 436.6 363.899 435.6L359.199 414.2H390.999L386.299 435.6C386.099 436.6 385.199 437.3 384.199 437.3Z" fill="white"/>
<path d="M386.602 434.3L386.302 435.6C386.102 436.6 385.202 437.3 384.102 437.3H366.002C365.002 437.3 364.102 436.6 363.802 435.6L359.102 414.3H362.202L363.402 419.7C365.302 428.3 372.902 434.4 381.602 434.4H386.602V434.3Z" fill="#25E498"/>
<path d="M384.202 437.8H366.102C364.802 437.8 363.702 436.9 363.402 435.7L358.602 413.7H391.602L386.802 435.7C386.602 437 385.402 437.8 384.202 437.8ZM359.902 414.8L364.402 435.5C364.602 436.3 365.302 436.8 366.102 436.8H384.202C385.002 436.8 385.702 436.2 385.902 435.5L390.402 414.8H359.902Z" fill="#060404"/>
<path d="M393.3 415.4H357C356.5 415.4 356.1 415.1 356 414.6L354.9 409.2C354.8 408.6 355.3 408 355.9 408H394.3C394.9 408 395.4 408.6 395.3 409.2L394.2 414.6C394.2 415 393.8 415.4 393.3 415.4Z" fill="white"/>
<path d="M393.301 415.9H357.001C356.301 415.9 355.601 415.4 355.501 414.7L354.401 409.3C354.201 408.4 354.901 407.5 355.901 407.5H394.301C395.301 407.5 396.001 408.4 395.801 409.3L394.701 414.7C394.601 415.4 394.001 415.9 393.301 415.9ZM356.001 408.5C355.701 408.5 355.401 408.8 355.501 409.1L356.601 414.5C356.601 414.7 356.901 414.9 357.101 414.9H393.301C393.501 414.9 393.801 414.7 393.801 414.5L394.901 409.1C395.001 408.8 394.701 408.5 394.401 408.5H356.001Z" fill="#060404"/>
<path d="M428.401 295.9H381.601C381.401 295.9 381.201 295.7 381.201 295.5C381.201 295.3 381.401 295.1 381.601 295.1H428.401C428.601 295.1 428.801 295.3 428.801 295.5C428.801 295.7 428.601 295.9 428.401 295.9ZM428.401 319.1H381.601C381.401 319.1 381.201 318.9 381.201 318.7C381.201 318.5 381.401 318.3 381.601 318.3H428.401C428.601 318.3 428.801 318.5 428.801 318.7C428.801 318.9 428.601 319.1 428.401 319.1ZM419.901 307.5H353.701C353.501 307.5 353.301 307.3 353.301 307.1C353.301 306.9 353.501 306.7 353.701 306.7H419.901C420.101 306.7 420.301 306.9 420.301 307.1C420.301 307.3 420.101 307.5 419.901 307.5Z" fill="#25E498"/>
<path d="M391.2 295.9C391 295.9 390.8 295.7 390.8 295.5V285.6C390.8 285.4 391 285.2 391.2 285.2C391.4 285.2 391.6 285.4 391.6 285.6V295.5C391.6 295.7 391.4 295.9 391.2 295.9ZM407.6 307.5C407.4 307.5 407.2 307.3 407.2 307.1V295.5C407.2 295.3 407.4 295.1 407.6 295.1C407.8 295.1 408 295.3 408 295.5V307.1C408 307.3 407.9 307.5 407.6 307.5ZM395.1 318.7C394.9 318.7 394.7 318.5 394.7 318.3V307.1C394.7 306.9 394.9 306.7 395.1 306.7C395.3 306.7 395.5 306.9 395.5 307.1V318.3C395.5 318.5 395.3 318.7 395.1 318.7ZM158.7 117.3H117.4C117.2 117.3 117 117.1 117 116.9C117 116.7 117.2 116.5 117.4 116.5H158.7C158.9 116.5 159.1 116.7 159.1 116.9C159.1 117.1 158.9 117.3 158.7 117.3ZM158.7 137.8H117.4C117.2 137.8 117 137.6 117 137.4C117 137.2 117.2 137 117.4 137H158.7C158.9 137 159.1 137.2 159.1 137.4C159.1 137.6 158.9 137.8 158.7 137.8ZM151.2 127.6H92.9C92.7 127.6 92.5 127.4 92.5 127.2C92.5 127 92.7 126.8 92.9 126.8H151.3C151.5 126.8 151.7 127 151.7 127.2C151.7 127.4 151.4 127.6 151.2 127.6Z" fill="#25E498"/>
<path d="M126.002 117.3C125.802 117.3 125.602 117.1 125.602 116.9V108.2C125.602 108 125.802 107.8 126.002 107.8C126.202 107.8 126.402 108 126.402 108.2V116.9C126.302 117.2 126.202 117.3 126.002 117.3ZM140.502 127.6C140.302 127.6 140.102 127.4 140.102 127.2V117C140.102 116.8 140.302 116.6 140.502 116.6C140.702 116.6 140.902 116.8 140.902 117V127.2C140.802 127.4 140.702 127.6 140.502 127.6ZM129.402 137.4C129.202 137.4 129.002 137.2 129.002 137V127.1C129.002 126.9 129.202 126.7 129.402 126.7C129.602 126.7 129.802 126.9 129.802 127.1V137C129.802 137.3 129.602 137.4 129.402 137.4Z" fill="#25E498"/>
</svg>
