<svg width="411" height="88" viewBox="0 0 411 88" fill="none" xmlns="http://www.w3.org/2000/svg">
<path fill-rule="evenodd" clip-rule="evenodd" d="M34.2299 5.39271C33.4958 5.51918 31.4537 5.87223 29.6918 6.17733C25.623 6.88186 17.7795 10.64 13.8335 13.7759C8.02154 18.3946 3.12999 26.1312 1.07289 33.9579C-0.263453 39.0445 -0.365961 47.9146 0.84705 53.5624C3.56458 66.2165 12.7316 76.2185 25.4431 80.3982C30.0426 81.9106 31.6955 82.1819 37.7003 82.4106C48.1822 82.8101 54.7043 81.5159 62.9685 77.3962C66.742 75.515 66.8691 75.3896 66.5594 73.8594C66.3822 72.9867 65.7736 71.8148 65.2066 71.2547C64.1873 70.2487 64.1259 70.2593 60.0139 72.1636C53.4331 75.2104 48.3974 76.2944 40.6367 76.3349C29.7014 76.3919 22.1938 73.7271 15.857 67.5392C9.74762 61.5741 6.80746 53.7421 6.85124 43.5505C6.88381 35.9029 8.41395 30.7388 12.3829 24.8823C15.7497 19.9138 18.9237 17.1821 24.3529 14.58C33.0997 10.3882 43.1983 10.3729 52.2158 14.5373C64.2135 20.0787 69.3656 37.1433 62.8478 49.751C59.8302 55.5875 54.03 58.0004 50.4102 54.9246C49.1064 53.8169 48.9163 53.2868 48.943 50.8408C48.9601 49.2947 50.1336 43.4493 51.5511 37.8515C53.3445 30.7699 53.9584 27.506 53.5703 27.1229C53.2633 26.8199 51.6088 26.2461 49.8944 25.8477C36.2529 22.6802 22.7779 30.2972 19.2899 43.1479C18.4165 46.3644 18.7993 53.7996 19.9493 55.9658C21.1949 58.3118 23.9871 60.8259 26.119 61.5204C28.5733 62.3198 34.5615 61.8634 36.9037 60.6983C37.9293 60.1883 39.784 58.804 41.0259 57.622C42.2677 56.4396 43.3489 55.5764 43.4284 55.7029C43.508 55.8299 44.0536 56.8601 44.6409 57.9925C46.1385 60.8801 48.5212 61.9936 53.2035 61.9936C64.1457 61.9936 72.1488 51.754 72.191 37.6993C72.2193 28.2211 69.4532 21.3913 63.0363 15.0954C58.5585 10.7022 53.6045 7.94207 47.5773 6.48296C43.949 5.60401 36.5209 4.9975 34.2299 5.39271ZM45.8902 31.7237C46.249 32.0267 41.6415 48.0811 40.563 50.2832C37.6933 56.145 29.8499 57.7743 27.0832 53.0834C26.3224 51.793 26.0357 50.3823 26.0667 48.0775C26.1751 39.9256 31.8765 32.982 39.7114 31.4607C41.6495 31.0845 45.3173 31.2405 45.8902 31.7237Z" fill="#2999FF"/>
<path fill-rule="evenodd" clip-rule="evenodd" d="M286.229 71.1377H295.305V0H286.229V71.1377ZM128.033 1.50865C125.448 3.19066 124.761 4.71143 124.933 8.36896C125.025 10.3292 128.418 13.1737 130.663 13.1737C134.487 13.1737 137.418 10.4172 137.418 6.81921C137.418 3.58218 134.369 0.533796 131.132 0.533796C130.251 0.533796 128.857 0.972216 128.033 1.50865ZM312.761 1.50865C310.176 3.19066 309.489 4.71143 309.661 8.36896C309.753 10.3292 313.145 13.1737 315.39 13.1737C319.215 13.1737 322.145 10.4172 322.145 6.81921C322.145 3.58218 319.097 0.533796 315.86 0.533796C314.979 0.533796 313.584 0.972216 312.761 1.50865ZM348.097 1.7816C340.882 4.32623 337.483 9.77748 337.483 18.8025V23.1856H329.474V25.4926C329.474 28.1811 330.168 28.9251 333.03 29.3051C334.157 29.4547 335.621 29.685 336.281 29.8167L337.483 30.056V71.1377H346.559V29.509H360.44V23.1856H345.866L346.188 18.6903C346.744 10.9109 349.643 7.90419 356.586 7.90419C360.345 7.90419 360.974 7.31401 360.974 3.78927C360.974 1.88489 360.836 1.68517 359.306 1.38323C356.516 0.832575 350.146 1.05863 348.097 1.7816ZM94.7523 21.6543C82.4241 23.1624 76.2475 36.1517 84.0429 44.1781C86.2036 46.4029 88.1747 47.3814 94.8271 49.5329C101.866 51.8093 103.998 52.918 105.257 54.9552C106.566 57.0741 106.582 58.7898 105.315 61.121C103.835 63.8453 100.571 65.3413 96.1068 65.3413C92.9147 65.3413 91.9846 65.0868 88.3157 63.2114C83.391 60.6937 82.3339 60.7811 80.4722 63.8622L79.1407 66.0659L80.8443 67.3442C87.5399 72.3692 98.551 73.5021 106.201 69.9532C115.072 65.8377 117.8 53.3407 111.053 47.7155C108.866 45.8912 105.648 44.4574 98.5643 42.1509C94.3503 40.7788 92.7892 39.9847 91.1544 38.3801C89.3029 36.5627 89.1165 36.1448 89.3979 34.4333C90.3194 28.8298 97.7929 26.6524 105.342 29.7877C110.563 31.9566 110.791 31.9603 112.38 29.9037C113.15 28.9072 113.78 27.8596 113.78 27.5751C113.78 26.6519 111.445 24.8666 108.445 23.4971C105.835 22.3056 104.567 22.0137 99.3652 21.4082C98.6311 21.3229 96.5553 21.4335 94.7523 21.6543ZM170.023 21.6412C166.929 22.225 164.038 23.7832 161.449 26.2625L159.242 28.3771L158.873 26.1766C158.236 22.3826 157.938 22.1317 154.071 22.1317H150.619V71.1377H159.695V34.8828L162.201 32.4446C167.728 27.0666 175.719 27.5087 178.401 33.3404C179.346 35.395 179.427 36.9558 179.438 53.3533L179.45 71.1377H189.06V53.9951C189.06 35.6195 189.195 34.5524 191.888 31.7058C196.874 26.4353 206.342 28.3834 208.222 35.0667C208.591 36.3793 208.809 43.4335 208.811 54.1437L208.814 71.1377H217.89V53.2326C217.89 36.2581 217.83 35.1457 216.727 31.8297C215.215 27.2837 211.871 23.7474 207.834 22.4242C204.214 21.237 198.552 21.2085 195.041 22.3594C191.882 23.3954 187.4 27.1029 186.386 29.519L185.707 31.1372L184.682 28.874C182.124 23.2236 176.457 20.4276 170.023 21.6412ZM250.992 21.893C247.803 22.7688 245.147 24.3186 241.951 27.1683L239.903 28.9947L239.522 26.4854C238.899 22.3852 238.617 22.1317 234.689 22.1317H231.237V88H240.314V66.8684L242.078 68.1968C251.991 75.66 266.862 71.7348 272.189 60.2489C274.353 55.5833 275.004 52.3115 275.002 46.1078C275 36.4499 272.711 29.7703 267.961 25.5553C263.711 21.7834 256.812 20.2948 250.992 21.893ZM126.594 71.1377H135.67V22.1317H126.594V71.1377ZM311.322 71.1377H320.398V22.1317H311.322V71.1377ZM362.042 22.3747C362.042 22.5897 380.184 63.5771 381.764 66.9322C382.323 68.121 381.912 69.2729 377.821 77.9559C375.309 83.2891 373.254 87.7307 373.254 87.8261C373.254 87.922 375.055 88 377.258 88C380.38 88 381.471 87.794 382.209 87.0652C383.095 86.1905 385.583 80.6407 403.871 38.7305L411 22.3952L406.942 22.2366C403.254 22.0927 402.788 22.1897 401.817 23.3031C401.23 23.9766 397.638 32.0278 393.836 41.1945L386.922 57.8618L386.036 55.41C384.131 50.1437 372.591 23.9244 371.795 23.0539C371.121 22.3156 370.064 22.1317 366.497 22.1317C364.047 22.1317 362.042 22.2408 362.042 22.3747ZM256.32 29.0247C261.337 30.1656 264.234 34.0939 265.421 41.3653C266.526 48.1402 265.233 55.4621 262.148 59.8874C258.003 65.8351 247.798 66.5412 242.316 61.2596L240.314 59.331V35.8044L242.658 33.4901C247.025 29.1807 251.12 27.8423 256.32 29.0247Z" fill="#2B2E32"/>
</svg>
