<svg xmlns="http://www.w3.org/2000/svg" xmlns:xlink="http://www.w3.org/1999/xlink" width="283.855" height="208.211" viewBox="0 0 283.855 208.211">
  <defs>
    <linearGradient id="linear-gradient" x1="0.492" y1="0.037" x2="0.509" y2="0.86" gradientUnits="objectBoundingBox">
      <stop offset="0" stop-color="#ffa5ff" stop-opacity="0"/>
      <stop offset="1" stop-color="#ffa5ff"/>
    </linearGradient>
    <linearGradient id="linear-gradient-2" x1="0.781" y1="-0.151" x2="0.189" y2="1.233" gradientUnits="objectBoundingBox">
      <stop offset="0" stop-color="#7039ca"/>
      <stop offset="1" stop-color="#dc259d"/>
    </linearGradient>
    <linearGradient id="linear-gradient-3" x1="0.468" y1="1.144" x2="0.504" y2="0.352" gradientUnits="objectBoundingBox">
      <stop offset="0" stop-color="#ffa5ff"/>
      <stop offset="1" stop-color="#ffa5ff" stop-opacity="0"/>
    </linearGradient>
    <linearGradient id="linear-gradient-4" x1="0.481" y1="-0.122" x2="0.505" y2="0.984" gradientUnits="objectBoundingBox">
      <stop offset="0" stop-color="#2fe3e6"/>
      <stop offset="1" stop-color="#2fe3e6" stop-opacity="0"/>
    </linearGradient>
    <linearGradient id="linear-gradient-5" x1="0.484" y1="0.01" x2="0.506" y2="1.03" xlink:href="#linear-gradient-4"/>
    <linearGradient id="linear-gradient-6" x1="0.497" y1="1.133" x2="0.504" y2="-0.063" xlink:href="#linear-gradient-4"/>
    <linearGradient id="linear-gradient-7" x1="0.498" y1="1.009" x2="0.504" y2="0.002" gradientUnits="objectBoundingBox">
      <stop offset="0" stop-color="#2fe3e6" stop-opacity="0"/>
      <stop offset="1" stop-color="#2fe3e6"/>
    </linearGradient>
    <linearGradient id="linear-gradient-8" x1="0.48" y1="1.075" x2="0.513" y2="0.119" xlink:href="#linear-gradient-2"/>
    <linearGradient id="linear-gradient-9" x1="0.482" y1="1.066" x2="0.547" y2="0.108" xlink:href="#linear-gradient-2"/>
  </defs>
  <g id="Group_14377" data-name="Group 14377" transform="translate(-139.372 -120.621)">
    <g id="Group_14359" data-name="Group 14359" transform="translate(265.174 197.964)">
      <rect id="Rectangle_20447" data-name="Rectangle 20447" width="146.966" height="91.991" transform="translate(158.053 101.998) rotate(180)" fill="#a6f3f4" opacity="0.27"/>
      <path id="Path_41705" data-name="Path 41705" d="M380.587,306.817H229.7V212H380.587Zm-149.975-1H379.675v-92.9H230.612Z" transform="translate(-229.7 -212)" fill="#5b4f78"/>
      <rect id="Rectangle_20448" data-name="Rectangle 20448" width="143.046" height="84.15" transform="translate(146.948 91.461) rotate(180)" fill="#1b0a43"/>
      <path id="Path_41706" data-name="Path 41706" d="M287.426,219.9H234v84.15h93.358A835.277,835.277,0,0,1,287.426,219.9Z" transform="translate(-230.08 -212.698)" fill="#1b0a43" opacity="0.29"/>
      <g id="Group_14357" data-name="Group 14357" transform="translate(47.682 27.169)">
        <path id="Path_41707" data-name="Path 41707" d="M282.365,243.623h0c.182,0,.273-.091.273-.182v-.912a.771.771,0,0,1,.182-.547c.182-.182.273-.182.547-.182h.182l.091.091v.365c0,.091,0,.091-.091.091h-.182c-.091,0-.091.091-.091.182v.821a.548.548,0,0,1-.091.365c0,.091-.091.182-.091.273l-.091.091h0l.091.091.091.091c0,.091,0,.091.091.182v1.094h.182l.091.091v.365c0,.091,0,.091-.091.091h-.182a1.3,1.3,0,0,1-.547-.182.67.67,0,0,1-.182-.547v-.82c0-.182-.091-.182-.274-.182h-.182l-.091-.091V243.9c0-.091,0-.091.091-.091.182-.182.182-.182.274-.182Z" transform="translate(-282 -241.8)" fill="#ec89ca"/>
      </g>
      <g id="Group_14358" data-name="Group 14358" transform="translate(46.679 77.221)">
        <path id="Path_41708" data-name="Path 41708" d="M281.721,300.447c0,.091,0,.091-.091.091a.089.089,0,0,1-.091.091h-.091a.335.335,0,0,1-.273-.091.318.318,0,0,1-.182-.091l-.091-.091a.282.282,0,0,1,.091-.182l1.459-3.1v-.182l.091-.091h.091a.335.335,0,0,1,.274.091q.274.137.273.274a.282.282,0,0,1-.091.182Z" transform="translate(-280.9 -296.709)" fill="#ec89ca"/>
        <path id="Path_41709" data-name="Path 41709" d="M285.585,298.8h.182a.089.089,0,0,0,.091.091v.365a.089.089,0,0,1-.091.091h-.091c-.182,0-.273.091-.273.182v.821a.771.771,0,0,1-.182.547.67.67,0,0,1-.547.182h-.182l-.091-.091v-.365c0-.091,0-.091.091-.091h.182v-.821a.822.822,0,0,1,.091-.456c0-.091.091-.182.091-.273l.091-.091a.089.089,0,0,1-.091-.091.318.318,0,0,1-.091-.182.548.548,0,0,1-.091-.365v-1h-.182l-.091-.091v-.365c0-.091,0-.091.091-.091h.182a1.3,1.3,0,0,1,.547.182.67.67,0,0,1,.182.547v.912c-.091.365,0,.456.182.456Z" transform="translate(-281.209 -296.7)" fill="#ec89ca"/>
      </g>
      <rect id="Rectangle_20449" data-name="Rectangle 20449" width="57.346" height="2.37" transform="translate(53.882 28.172)" fill="#ec89ca"/>
      <rect id="Rectangle_20450" data-name="Rectangle 20450" width="15.225" height="2.37" transform="translate(28.627 28.172)" fill="#2fe3e6"/>
      <rect id="Rectangle_20451" data-name="Rectangle 20451" width="57.346" height="2.37" transform="translate(53.882 51.42)" fill="#fff05f"/>
      <rect id="Rectangle_20452" data-name="Rectangle 20452" width="15.225" height="2.37" transform="translate(28.627 51.42)" fill="#2fe3e6"/>
      <rect id="Rectangle_20453" data-name="Rectangle 20453" width="47.864" height="2.37" transform="translate(63.272 59.352)" fill="#dc259d"/>
      <rect id="Rectangle_20454" data-name="Rectangle 20454" width="47.864" height="2.37" transform="translate(63.272 67.284)" fill="#ec89ca"/>
    </g>
    <g id="Group_14361" data-name="Group 14361" transform="translate(198.567 157.829)">
      <path id="Path_41710" data-name="Path 41710" d="M200.944,142H133.86a3.228,3.228,0,0,0-3.26,3.26V279.232a3.228,3.228,0,0,0,3.26,3.26h67.084a3.228,3.228,0,0,0,3.26-3.26V145.26A3.312,3.312,0,0,0,200.944,142Z" transform="translate(-130.6 -142)" fill="#1b0a43"/>
      <path id="Path_41711" data-name="Path 41711" d="M201.975,147.6H135.8a1.308,1.308,0,0,0-1.3,1.3V275.444a1.308,1.308,0,0,0,1.3,1.3h66.171a1.308,1.308,0,0,0,1.3-1.3V148.9A1.308,1.308,0,0,0,201.975,147.6Z" transform="translate(-131.957 -143.949)" fill="#2588f9"/>
      <g id="Group_14360" data-name="Group 14360" transform="translate(9.583 24.187)">
        <rect id="Rectangle_20455" data-name="Rectangle 20455" width="19.558" height="3.064" transform="translate(24.448)" fill="#fefefe"/>
        <rect id="Rectangle_20456" data-name="Rectangle 20456" width="30.25" height="1.108" transform="translate(24.448 6.911)" fill="#fefefe"/>
        <rect id="Rectangle_20457" data-name="Rectangle 20457" width="30.25" height="1.108" transform="translate(24.448 11.344)" fill="#fefefe"/>
        <rect id="Rectangle_20458" data-name="Rectangle 20458" width="26.338" height="1.108" transform="translate(24.448 15.712)" fill="#fefefe"/>
        <rect id="Rectangle_20459" data-name="Rectangle 20459" width="54.632" height="0.456" transform="translate(0 25.1)" fill="#fefefe"/>
      </g>
      <rect id="Rectangle_20460" data-name="Rectangle 20460" width="19.819" height="19.819" transform="translate(9.909 22.622)" opacity="0.57" fill="url(#linear-gradient)"/>
      <path id="Path_41712" data-name="Path 41712" d="M166.445,147.6H135.8a1.308,1.308,0,0,0-1.3,1.3V275.444a1.308,1.308,0,0,0,1.3,1.3h63.3Q181.5,212.5,166.445,147.6Z" transform="translate(-131.957 -143.949)" opacity="0.39" fill="url(#linear-gradient-2)"/>
      <path id="Path_41713" data-name="Path 41713" d="M200.1,153.556H213.86a.979.979,0,0,0,0-1.956H200.1a.979.979,0,0,0,0,1.956Z" transform="translate(-154.469 -145.341)" fill="#bca2e6"/>
      <path id="Path_41714" data-name="Path 41714" d="M227.017,153.567h0c.848.326,3.129.522,3.064-.848,0-.652-.652-.913-1.173-.978-.782-.065-2.608-.456-2.608.782A1.479,1.479,0,0,0,227.017,153.567Z" transform="translate(-163.91 -145.352)" fill="#bca2e6"/>
      <path id="Path_41715" data-name="Path 41715" d="M231.2,238.9a165.688,165.688,0,0,1,.2,17.993c-.065,1.239,1.891,1.239,1.956,0a165.688,165.688,0,0,0-.2-17.993c-.065-1.239-2.021-1.239-1.956,0Z" transform="translate(-165.614 -175.406)" fill="#bca2e6"/>
      <path id="Path_41716" data-name="Path 41716" d="M231.13,273.876c.065.913-.13,1.825-.13,2.738a1.06,1.06,0,0,0,.717,1.108.933.933,0,0,0,1.173-.652,7.179,7.179,0,0,0,.13-3.325,1.009,1.009,0,0,0-.522-.717A.913.913,0,0,0,231.13,273.876Z" transform="translate(-165.546 -187.56)" fill="#bca2e6"/>
    </g>
    <g id="Group_14364" data-name="Group 14364" transform="translate(282.928 147.268)">
      <path id="Path_41717" data-name="Path 41717" d="M309.214,133.2H268.86a3.228,3.228,0,0,0-3.26,3.26v27.446a1.077,1.077,0,0,0,1.76.848l6.063-4.89h35.791a3.228,3.228,0,0,0,3.26-3.26V136.46A3.228,3.228,0,0,0,309.214,133.2Z" transform="translate(-261.949 -128.376)" fill="url(#linear-gradient-3)"/>
      <g id="Group_14362" data-name="Group 14362" transform="translate(0 0)">
        <path id="Path_41718" data-name="Path 41718" d="M304.214,126.4H263.86a3.228,3.228,0,0,0-3.26,3.26v27.446a1.077,1.077,0,0,0,1.76.848l6.063-4.89h35.791a3.228,3.228,0,0,0,3.26-3.26V129.66A3.269,3.269,0,0,0,304.214,126.4Z" transform="translate(-260.209 -126.009)" fill="#fefefe"/>
        <path id="Path_41719" data-name="Path 41719" d="M261.5,158.332a2.317,2.317,0,0,1-.652-.13,1.5,1.5,0,0,1-.848-1.3V129.451a3.645,3.645,0,0,1,3.651-3.651h40.355a3.645,3.645,0,0,1,3.651,3.651V149.6a3.645,3.645,0,0,1-3.651,3.651H268.345l-6,4.824A1.2,1.2,0,0,1,261.5,158.332Zm2.151-31.749a2.894,2.894,0,0,0-2.868,2.869V156.9a.57.57,0,0,0,.391.587.7.7,0,0,0,.717-.065l6.063-4.89c.065-.065.13-.065.261-.065h35.791a2.894,2.894,0,0,0,2.869-2.869V129.451a2.894,2.894,0,0,0-2.869-2.869H263.651Z" transform="translate(-260 -125.8)" fill="#dc259d"/>
      </g>
      <g id="Group_14363" data-name="Group 14363" transform="translate(7.562 8.606)">
        <rect id="Rectangle_20461" data-name="Rectangle 20461" width="32.466" height="1.695" fill="#e248ad"/>
        <rect id="Rectangle_20462" data-name="Rectangle 20462" width="32.466" height="1.695" transform="translate(0 7.106)" fill="#e248ad"/>
      </g>
    </g>
    <g id="Group_14365" data-name="Group 14365" transform="translate(174.185 205.616)">
      <rect id="Rectangle_20463" data-name="Rectangle 20463" width="15.06" height="1.695" transform="translate(0 0)" fill="#8a5dd4"/>
      <rect id="Rectangle_20464" data-name="Rectangle 20464" width="15.06" height="1.695" transform="translate(0 5.802)" fill="#8a5dd4"/>
      <rect id="Rectangle_20465" data-name="Rectangle 20465" width="15.06" height="1.695" transform="translate(0 11.604)" fill="#8a5dd4"/>
    </g>
    <g id="Group_14366" data-name="Group 14366" transform="translate(361.355 162.784)">
      <path id="Path_41720" data-name="Path 41720" d="M391.057,163.551a10.766,10.766,0,0,1,7.171,2.738V163.16a13.56,13.56,0,1,1,27.12,0v12.778H380.3v-1.63A10.726,10.726,0,0,1,391.057,163.551Z" transform="translate(-380.3 -149.6)" opacity="0.77" fill="url(#linear-gradient-4)"/>
      <path id="Path_41721" data-name="Path 41721" d="M432.4,183.025H386.7v-1.956a11.074,11.074,0,0,1,11.083-11.083,10.957,10.957,0,0,1,6.845,2.412v-2.412a13.886,13.886,0,1,1,27.772,0v13.039Zm-45.049-.652h44.4V169.986a13.234,13.234,0,0,0-26.469,0v3.846l-.522-.522a10.433,10.433,0,0,0-17.407,7.758Z" transform="translate(-382.528 -151.862)" opacity="0.77" fill="url(#linear-gradient-5)"/>
    </g>
    <g id="Group_14367" data-name="Group 14367" transform="translate(139.372 294.41)">
      <path id="Path_41722" data-name="Path 41722" d="M86.32,367.864a12.7,12.7,0,0,0-8.475,3.26v-3.651a15.972,15.972,0,1,0-31.945,0v14.995H99.033v-1.956A12.758,12.758,0,0,0,86.32,367.864Z" transform="translate(-41.923 -351.5)" opacity="0.77" fill="url(#linear-gradient-6)"/>
      <path id="Path_41723" data-name="Path 41723" d="M93.519,387.419H39.8V372.1a16.331,16.331,0,0,1,32.662,0v3A12.983,12.983,0,0,1,93.585,385.2v2.217Zm-53.068-.652H92.933v-1.63a12.354,12.354,0,0,0-12.322-12.322A12.04,12.04,0,0,0,72.4,376.01l-.522.522V372.1a15.679,15.679,0,0,0-31.358,0v14.669Z" transform="translate(-39.8 -352.997)" opacity="0.77" fill="url(#linear-gradient-7)"/>
    </g>
    <g id="Group_14371" data-name="Group 14371" transform="translate(351.973 120.621)">
      <path id="Path_41731" data-name="Path 41731" d="M410.1,362.351,397.45,348.661a2.086,2.086,0,0,0-3,0L381.8,362.351a2.059,2.059,0,0,0,1.5,3.455h3.325v12.778a2.031,2.031,0,0,0,2.021,2.021h14.6a2.031,2.031,0,0,0,2.021-2.021V365.807H408.6A2.044,2.044,0,0,0,410.1,362.351Z" transform="translate(-381.248 -348.025)" fill="url(#linear-gradient-8)"/>
      <path id="Path_41732" data-name="Path 41732" d="M395.168,348.3a1.849,1.849,0,0,0-.717.522L381.8,362.512a2.059,2.059,0,0,0,1.5,3.455h3.325v12.778a2.031,2.031,0,0,0,2.021,2.021h7.236C395.364,369.944,395.168,359.122,395.168,348.3Z" transform="translate(-381.248 -348.121)" opacity="0.35" fill="url(#linear-gradient-9)"/>
      <path id="Path_41733" data-name="Path 41733" d="M406.345,355.432a3.537,3.537,0,0,0,1.369,1.7c.587.326,1.434.13,1.239-.717a4.638,4.638,0,0,0-1.369-1.956C406.736,353.8,405.953,354.389,406.345,355.432Z" transform="translate(-389.947 -350.167)" fill="#ef99d1"/>
      <path id="Path_41734" data-name="Path 41734" d="M411.182,361.49q2.151,2.445,4.5,4.694a.784.784,0,1,0,1.108-1.108q-2.347-2.249-4.5-4.694a.784.784,0,1,0-1.108,1.108Z" transform="translate(-391.59 -352.249)" fill="#ef99d1"/>
    </g>
  </g>
</svg>
