<svg width="540" height="450" viewBox="0 0 540 450" fill="none" xmlns="http://www.w3.org/2000/svg">
<path d="M264.149 396.45L285.749 350.28L254.699 364.41L258.659 372.96L271.979 363.96L260.819 380.88L264.149 396.45Z" fill="#F3D35F"/>
<path d="M258.66 372.96L264.96 374.49L271.98 363.96L258.66 372.96Z" fill="#060405"/>
<path opacity="0.3" d="M485.659 395.455C488.719 390.505 490.429 384.655 491.869 378.805C496.099 361.885 498.709 344.425 499.789 326.965C500.869 308.425 499.969 289.075 491.869 272.695C482.149 253.075 461.449 243.085 441.829 236.155C422.929 229.495 415.099 204.565 416.539 183.235C417.979 161.905 425.899 141.475 426.889 120.145C427.969 98.7248 419.059 73.9748 399.799 68.5748C385.939 64.7048 371.809 71.9048 358.309 77.2148C332.929 87.1148 305.299 89.9948 278.659 85.7648C253.819 81.7148 230.149 71.6348 206.029 63.8948C181.909 56.1548 156.259 50.6648 131.689 56.3348C107.029 61.9148 83.7186 80.9048 78.2286 107.275C73.4586 130.225 82.3686 154.165 80.2086 177.565C76.6086 215.455 44.7486 244.885 40.8786 282.775C37.9086 311.755 52.7586 340.285 73.2786 359.455C90.4686 375.565 111.259 386.095 132.409 395.365H485.659V395.455Z" fill="#86E9DC"/>
<path d="M169.47 150.48H136.71C136.53 150.48 136.35 150.3 136.35 150.12C136.35 149.94 136.53 149.76 136.71 149.76H169.47C169.65 149.76 169.83 149.94 169.83 150.12C169.83 150.3 169.65 150.48 169.47 150.48ZM169.47 166.77H136.71C136.53 166.77 136.35 166.59 136.35 166.41C136.35 166.23 136.53 166.05 136.71 166.05H169.47C169.65 166.05 169.83 166.23 169.83 166.41C169.83 166.59 169.65 166.77 169.47 166.77ZM163.53 158.58H117.18C117 158.58 116.82 158.4 116.82 158.22C116.82 158.04 117 157.86 117.18 157.86H163.53C163.71 157.86 163.89 158.04 163.89 158.22C163.89 158.4 163.71 158.58 163.53 158.58Z" fill="#25E498"/>
<path d="M143.462 150.48C143.282 150.48 143.102 150.3 143.102 150.12V143.19C143.102 143.01 143.282 142.83 143.462 142.83C143.642 142.83 143.822 143.01 143.822 143.19V150.12C143.732 150.3 143.642 150.48 143.462 150.48ZM154.982 158.58C154.802 158.58 154.622 158.4 154.622 158.22V150.12C154.622 149.94 154.802 149.76 154.982 149.76C155.162 149.76 155.342 149.94 155.342 150.12V158.22C155.252 158.49 155.162 158.58 154.982 158.58ZM146.162 166.5C145.982 166.5 145.802 166.32 145.802 166.14V158.31C145.802 158.13 145.982 157.95 146.162 157.95C146.342 157.95 146.522 158.13 146.522 158.31V166.14C146.522 166.32 146.342 166.5 146.162 166.5ZM412.292 169.65H379.532C379.352 169.65 379.172 169.47 379.172 169.29C379.172 169.11 379.352 168.93 379.532 168.93H412.292C412.472 168.93 412.652 169.11 412.652 169.29C412.652 169.47 412.472 169.65 412.292 169.65ZM412.292 185.85H379.532C379.352 185.85 379.172 185.67 379.172 185.49C379.172 185.31 379.352 185.13 379.532 185.13H412.292C412.472 185.13 412.652 185.31 412.652 185.49C412.652 185.67 412.472 185.85 412.292 185.85ZM406.352 177.75H360.002C359.822 177.75 359.642 177.57 359.642 177.39C359.642 177.21 359.822 177.03 360.002 177.03H406.352C406.532 177.03 406.712 177.21 406.712 177.39C406.712 177.57 406.532 177.75 406.352 177.75Z" fill="#25E498"/>
<path d="M386.282 169.65C386.102 169.65 385.922 169.47 385.922 169.29V162.36C385.922 162.18 386.102 162 386.282 162C386.462 162 386.642 162.18 386.642 162.36V169.29C386.552 169.47 386.462 169.65 386.282 169.65ZM397.802 177.75C397.622 177.75 397.442 177.57 397.442 177.39V169.29C397.442 169.11 397.622 168.93 397.802 168.93C397.982 168.93 398.162 169.11 398.162 169.29V177.39C398.072 177.57 397.982 177.75 397.802 177.75ZM388.982 185.58C388.802 185.58 388.622 185.4 388.622 185.22V177.39C388.622 177.21 388.802 177.03 388.982 177.03C389.162 177.03 389.342 177.21 389.342 177.39V185.22C389.342 185.4 389.162 185.58 388.982 185.58Z" fill="#25E498"/>
<path d="M196.02 167.13L190.35 164.43L190.71 163.62L196.38 166.32L196.02 167.13ZM184.59 161.73C182.52 160.74 180.72 159.75 178.92 158.94L179.37 158.13C181.08 159.03 182.97 159.93 184.95 160.92L184.59 161.73ZM173.43 155.88C171.54 154.8 169.65 153.72 167.94 152.73L168.39 151.92C170.1 153 171.9 153.99 173.79 155.07L173.43 155.88ZM162.63 149.31C160.83 148.05 159.12 146.79 157.5 145.53L158.04 144.81C159.57 146.07 161.28 147.33 163.08 148.5L162.63 149.31ZM152.73 141.3C151.2 139.77 149.67 138.24 148.41 136.71L149.13 136.17C150.39 137.7 151.83 139.23 153.45 140.76L152.73 141.3ZM144.63 131.58C143.46 129.78 142.47 127.89 141.66 126L142.47 125.64C143.28 127.53 144.27 129.33 145.35 131.13L144.63 131.58ZM139.59 119.97C139.05 117.9 138.6 115.83 138.24 113.76L139.14 113.58C139.5 115.56 139.86 117.63 140.49 119.7L139.59 119.97ZM385.65 116.64H382.77V115.74H389.07V116.64H385.65ZM376.47 116.37C374.4 116.28 372.33 116.1 370.17 115.83L370.26 114.93C372.33 115.11 374.49 115.29 376.56 115.47L376.47 116.37ZM395.46 116.37L395.37 115.47L401.58 114.93L401.67 115.83L395.46 116.37ZM363.87 115.2C361.8 114.93 359.73 114.57 357.66 114.3L357.84 113.4C359.91 113.76 361.98 114.03 364.05 114.3L363.87 115.2ZM407.97 114.84L407.79 113.94C409.86 113.58 411.93 113.22 414 112.77L414.18 113.67C412.11 114.12 410.04 114.48 407.97 114.84ZM351.45 113.13C349.47 112.77 347.31 112.32 345.24 111.78L345.42 110.88C347.49 111.33 349.56 111.78 351.54 112.23L351.45 113.13ZM420.3 112.23L420.03 111.33C422.01 110.79 424.08 110.16 426.06 109.62L426.33 110.52C424.35 111.06 422.37 111.69 420.3 112.23ZM339.12 110.25C337.14 109.71 335.07 109.17 333 108.63L333.27 107.73C335.34 108.27 337.32 108.81 339.39 109.35L339.12 110.25ZM432.36 108.36L432.09 107.55C434.07 106.83 436.05 106.02 437.94 105.21L438.3 106.02C436.32 106.92 434.34 107.64 432.36 108.36ZM137.61 107.46C137.61 106.74 137.52 106.02 137.52 105.3C137.52 103.86 137.61 102.51 137.7 101.07L138.6 101.16C138.51 102.51 138.42 103.86 138.42 105.3C138.42 106.02 138.42 106.74 138.51 107.46H137.61ZM326.97 106.92C324.99 106.29 322.92 105.66 320.94 105.03L321.21 104.13C323.19 104.76 325.17 105.39 327.24 106.02L326.97 106.92ZM443.97 103.5L443.61 102.69C445.5 101.79 447.39 100.8 449.19 99.9001L449.64 100.71C447.84 101.61 445.86 102.6 443.97 103.5ZM314.91 103.14C312.93 102.51 310.95 101.79 308.97 101.07L309.24 100.26C311.22 100.98 313.2 101.61 315.18 102.33L314.91 103.14ZM303.03 98.9101L297.09 96.7501L297.36 95.9401L303.3 98.1001L303.03 98.9101ZM455.13 97.5601L454.68 96.7501C456.48 95.6701 458.28 94.5901 459.99 93.4201L460.44 94.1401C458.73 95.3101 456.93 96.4801 455.13 97.5601ZM139.68 95.0401L138.78 94.8601C139.32 92.7901 139.95 90.7201 140.76 88.8301L141.57 89.1901C140.85 90.9901 140.13 92.9701 139.68 95.0401ZM291.15 94.6801L285.21 92.5201L285.48 91.7101L291.42 93.8701L291.15 94.6801ZM465.75 90.6301L465.21 89.9101C466.92 88.6501 468.54 87.3901 470.16 86.1301L470.7 86.8501C469.08 88.1101 467.46 89.3701 465.75 90.6301ZM279.36 90.4501L273.42 88.2901L273.69 87.4801L279.63 89.6401L279.36 90.4501ZM267.48 86.2201C265.5 85.5001 263.52 84.7801 261.54 84.1501L261.81 83.3401C263.79 84.0601 265.77 84.6901 267.75 85.4101L267.48 86.2201ZM144.54 83.6101L143.82 83.1601C144.99 81.3601 146.34 79.7401 147.78 78.2101L148.41 78.8401C146.97 80.2801 145.71 81.9001 144.54 83.6101ZM475.56 82.7101L474.93 81.9901C476.46 80.6401 478.08 79.2001 479.52 77.7601L480.15 78.3901C478.71 79.9201 477.18 81.3601 475.56 82.7101ZM255.6 82.0801C253.62 81.3601 251.64 80.7301 249.66 80.0101L249.93 79.2001C251.91 79.8301 253.89 80.5501 255.87 81.2701L255.6 82.0801ZM243.63 78.0301C241.65 77.4001 239.67 76.6801 237.6 76.0501L237.87 75.1501C239.85 75.7801 241.83 76.4101 243.9 77.1301L243.63 78.0301ZM153 74.7001L152.46 73.9801C154.17 72.7201 155.97 71.6401 157.86 70.6501L158.31 71.4601C156.42 72.3601 154.71 73.4401 153 74.7001ZM231.66 74.1601C229.68 73.5301 227.61 72.9001 225.63 72.2701L225.9 71.3701C227.88 72.0001 229.95 72.6301 231.93 73.2601L231.66 74.1601ZM484.74 73.8901L484.38 73.6201L484.11 73.2601L484.2 73.1701L484.83 73.8001L484.74 73.8901ZM219.6 70.5601C217.53 70.0201 215.55 69.4801 213.48 69.0301L213.66 68.1301C215.64 68.5801 217.71 69.1201 219.78 69.6601L219.6 70.5601ZM164.07 68.9401L163.8 68.1301C165.69 67.4101 167.76 66.8701 169.92 66.3301L170.1 67.2301C167.94 67.5901 165.96 68.2201 164.07 68.9401ZM207.36 67.6801L201.15 66.6001L201.24 65.7001C203.31 65.9701 205.38 66.3301 207.45 66.7801L207.36 67.6801ZM176.22 66.0601L176.13 65.1601C178.2 64.8901 180.27 64.7101 182.43 64.6201V65.5201C180.27 65.6101 178.2 65.7901 176.22 66.0601ZM194.94 65.8801C192.78 65.7001 190.71 65.5201 188.64 65.5201V64.6201C190.71 64.7101 192.78 64.8001 194.94 64.9801V65.8801Z" fill="black"/>
<path d="M377.821 94.23V304.83C377.821 305.46 377.731 306.09 377.641 306.72C376.741 311.22 372.781 314.64 368.011 314.64H168.841C163.441 314.64 159.031 310.23 159.031 304.83V94.23C159.031 88.83 163.441 84.42 168.841 84.42H368.011C373.501 84.33 377.821 88.83 377.821 94.23Z" fill="#E6D6F5"/>
<path opacity="0.08" d="M377.822 255.6V297.72H302.042C299.972 297.72 298.352 296.1 298.352 294.03V259.29C298.352 257.22 299.972 255.6 302.042 255.6H377.822Z" fill="black"/>
<path d="M368.012 84.3301C369.722 84.3301 371.882 84.4201 368.012 84.3301H168.842C165.242 84.3301 166.862 84.3301 168.842 84.3301H368.012Z" fill="#FFC2C2"/>
<path d="M173.702 95.5801C173.702 97.2901 172.352 98.6401 170.732 98.6401C169.022 98.6401 167.672 97.2901 167.672 95.5801C167.672 93.9601 169.022 92.6101 170.732 92.6101C172.352 92.6101 173.702 93.9601 173.702 95.5801ZM190.622 95.5801C190.622 97.2901 189.272 98.6401 187.562 98.6401C185.852 98.6401 184.592 97.2901 184.592 95.5801C184.592 93.9601 185.942 92.6101 187.562 92.6101C189.182 92.6101 190.622 93.9601 190.622 95.5801ZM182.162 95.5801C182.162 97.2901 180.812 98.6401 179.102 98.6401C177.482 98.6401 176.132 97.2901 176.132 95.5801C176.132 93.9601 177.482 92.6101 179.102 92.6101C180.812 92.6101 182.162 93.9601 182.162 95.5801Z" fill="white"/>
<path d="M262.26 234.18H181.26C179.37 234.18 177.84 232.65 177.84 230.76V181.35C177.84 179.46 179.37 177.93 181.26 177.93H262.26C264.15 177.93 265.68 179.46 265.68 181.35V230.76C265.68 232.65 264.15 234.18 262.26 234.18Z" fill="#FA58E0"/>
<path d="M245.88 221.49H197.55C196.38 221.49 195.75 220.14 196.47 219.15L207.09 206.82C207.63 206.19 208.62 206.19 209.16 206.82L214.38 212.94C214.92 213.66 216 213.57 216.54 212.85L228.24 196.92C228.78 196.2 229.95 196.2 230.49 196.92L246.96 219.24C247.68 220.23 247.05 221.49 245.88 221.49Z" fill="white"/>
<path d="M212.042 198C214.079 198 215.732 196.348 215.732 194.31C215.732 192.272 214.079 190.62 212.042 190.62C210.004 190.62 208.352 192.272 208.352 194.31C208.352 196.348 210.004 198 212.042 198Z" fill="white"/>
<path d="M357.659 198H278.459C277.739 198 277.109 197.37 277.109 196.65V184.5C277.109 183.78 277.739 183.15 278.459 183.15H357.659C358.379 183.15 359.009 183.78 359.009 184.5V196.65C359.009 197.37 358.379 198 357.659 198ZM277.109 203.67H359.009V207H277.109V203.67ZM319.859 210.96H359.009V214.29H319.859V210.96ZM277.109 210.96H306.899V214.29H277.109V210.96ZM277.109 218.34H337.049V221.67H277.109V218.34ZM346.319 218.34H359.009V221.67H346.319V218.34ZM302.129 225.72H310.859V229.05H302.129V225.72ZM277.109 225.72H297.449V229.05H277.109V225.72Z" fill="white"/>
<path d="M394.018 294.21H304.018C301.948 294.21 300.328 292.59 300.328 290.52V255.78C300.328 253.71 301.948 252.09 304.018 252.09H394.018C396.088 252.09 397.708 253.71 397.708 255.78V290.52C397.708 292.59 396.088 294.21 394.018 294.21Z" fill="#12A67C"/>
<path d="M336.691 262.71V283.68C336.691 285.3 335.431 286.56 333.811 286.56H310.681C309.061 286.56 307.801 285.3 307.801 283.68V262.71C307.801 261.09 309.061 259.83 310.681 259.83H333.811C335.341 259.83 336.691 261.09 336.691 262.71ZM342.721 264.78H388.891V267.75H342.721V264.78ZM342.721 271.71H388.891V274.68H342.721V271.71ZM342.721 278.55H371.701V281.52H342.721V278.55Z" fill="white"/>
<path d="M322.47 272.52C324.06 272.52 325.35 271.231 325.35 269.64C325.35 268.049 324.06 266.76 322.47 266.76C320.879 266.76 319.59 268.049 319.59 269.64C319.59 271.231 320.879 272.52 322.47 272.52Z" fill="#060405"/>
<path d="M316.532 279.63H327.872C328.232 279.63 328.502 279.36 328.412 279C327.692 276.3 325.172 274.32 322.292 274.32C319.322 274.32 316.892 276.3 316.082 279C315.992 279.27 316.172 279.63 316.532 279.63Z" fill="#060405"/>
<path d="M311.309 166.77H228.959C225.899 166.77 223.469 164.34 223.469 161.28V104.58C223.469 101.52 225.899 99.0901 228.959 99.0901H311.309C314.369 99.0901 316.799 101.52 316.799 104.58V161.28C316.799 164.25 314.369 166.77 311.309 166.77Z" fill="white"/>
<path d="M269.011 141.21V154.53C269.011 155.34 268.291 156.06 267.481 156.06H262.171C261.361 156.06 260.641 155.43 260.641 154.53V141.21H269.011Z" fill="#060405"/>
<path d="M275.49 115.65V141.21H257.85C250.83 141.21 245.07 135.45 245.07 128.43C245.07 124.92 246.51 121.68 248.85 119.43C251.19 117.09 254.34 115.65 257.85 115.65H275.49Z" fill="#1AC1C1"/>
<path opacity="0.3" d="M250.021 132.48C249.391 131.22 249.031 129.87 249.031 128.43C249.031 123.57 252.991 119.61 257.851 119.61H263.521C264.241 119.61 264.871 120.24 264.871 120.96C264.871 121.68 264.241 122.31 263.521 122.31H257.851C254.431 122.31 251.641 125.1 251.641 128.52C251.641 129.51 251.911 130.5 252.361 131.4C252.721 132.03 252.451 132.84 251.821 133.2C251.101 133.29 250.291 133.11 250.021 132.48Z" fill="white"/>
<path d="M290.428 108.72V148.05C290.428 148.77 289.618 149.22 288.988 148.86L275.488 141.21V115.65L288.988 107.91C289.708 107.55 290.428 108 290.428 108.72Z" fill="#F81F8B"/>
<path d="M296.37 129.42C295.83 132.3 293.31 134.37 290.52 134.37V122.4C290.88 122.4 291.24 122.4 291.51 122.49C294.75 123.03 296.91 126.18 296.37 129.42Z" fill="#060405"/>
<path d="M283.228 301.95H179.458C176.668 301.95 174.328 299.7 174.328 296.82V250.83C174.328 248.04 176.578 245.7 179.458 245.7H283.228C286.018 245.7 288.358 247.95 288.358 250.83V296.82C288.268 299.61 286.018 301.95 283.228 301.95Z" fill="white"/>
<path d="M192.509 276.03C198.97 276.03 204.209 270.792 204.209 264.33C204.209 257.868 198.97 252.63 192.509 252.63C186.047 252.63 180.809 257.868 180.809 264.33C180.809 270.792 186.047 276.03 192.509 276.03Z" fill="#060405"/>
<path d="M197.639 261.36H196.109L195.749 259.92H193.319V269.01H195.299V270.45H189.719V269.01H191.609V259.92H189.269L188.819 261.36H187.289L187.469 258.12H197.549L197.639 261.36Z" fill="white"/>
<path d="M238.229 263.79H210.779C210.149 263.79 209.699 263.34 209.699 262.71V259.56C209.699 258.93 210.149 258.48 210.779 258.48H238.229C238.859 258.48 239.309 258.93 239.309 259.56V262.71C239.309 263.25 238.859 263.79 238.229 263.79ZM209.699 268.65H281.249V270.9H209.699V268.65ZM209.699 274.32H281.249V276.57H209.699V274.32ZM180.809 280.08H242.459V282.33H180.809V280.08ZM245.159 280.08H281.249V282.33H245.159V280.08ZM180.809 285.84H263.699V288.09H180.809V285.84ZM270.809 285.84H281.249V288.09H270.809V285.84ZM225.089 291.6H240.029V293.85H225.089V291.6ZM243.809 291.6H250.019V293.85H243.809V291.6ZM180.809 291.6H216.989V293.85H180.809V291.6Z" fill="#25E498"/>
<path d="M413.19 381.06V378.18H430.56C430.83 383.76 431.19 394.38 431.37 394.38H403.2C402.21 385.11 413.19 381.06 413.19 381.06Z" fill="#F81F8B"/>
<path d="M403.47 390.33C403.11 391.59 402.93 392.85 403.11 394.38H431.28C431.19 394.38 431.1 392.67 431.01 390.33H403.47Z" fill="#060405"/>
<path d="M476.01 381.06V378.18H493.38C493.65 383.76 494.01 394.38 494.19 394.38H466.02C465.03 385.11 476.01 381.06 476.01 381.06Z" fill="#F81F8B"/>
<path d="M466.381 390.33C466.021 391.59 465.841 392.85 466.021 394.38H494.191C494.101 394.38 494.011 392.67 493.921 390.33H466.381ZM494.191 381.15C494.191 382.5 473.851 382.5 473.851 381.15L448.651 298.17L431.641 380.16C431.641 381.6 411.301 381.6 411.301 380.16L419.581 259.92H475.921L494.191 381.15Z" fill="#060405"/>
<path d="M423.628 209.97L428.758 241.02L415.888 275.85C415.888 275.85 415.798 290.88 407.338 290.16C399.688 289.53 404.368 278.64 404.368 278.64C404.368 278.64 402.478 281.61 401.398 279.09C400.318 276.57 407.608 273.24 407.608 273.24L411.838 233.73L412.378 217.8L423.628 209.97Z" fill="white"/>
<path d="M407.249 290.61C405.359 290.43 404.009 289.71 403.199 288.36C401.759 286.02 402.569 282.51 403.199 280.35C402.929 280.53 402.569 280.62 402.299 280.53C401.669 280.44 401.219 279.99 400.949 279.18C399.869 276.48 405.719 273.51 407.159 272.88L411.299 233.55L411.839 217.44L423.899 208.98L429.209 240.84L416.249 275.76C416.249 276.75 415.979 285.21 412.019 288.9C410.759 290.25 409.229 290.79 407.249 290.61ZM403.919 278.46L404.729 278.91C404.729 279 402.209 284.94 404.009 288C404.639 289.08 405.719 289.62 407.339 289.8C408.959 289.89 410.309 289.44 411.479 288.45C415.349 284.94 415.439 276.03 415.439 275.94V275.76L428.309 241.02L423.269 210.78L412.739 218.16L412.199 233.82L407.969 273.69L407.699 273.78C405.089 274.95 401.129 277.47 401.759 279C401.849 279.36 402.119 279.72 402.389 279.72C402.929 279.72 403.649 279 403.919 278.46Z" fill="#060405"/>
<path d="M431.371 180.36C431.371 180.36 417.961 184.41 413.821 197.1C412.741 200.52 408.691 220.95 408.691 220.95L434.251 222.21L431.371 180.36Z" fill="#F81F8B"/>
<path d="M478.35 182.25C474.48 175.77 431.46 174.69 424.08 184.86C416.43 195.39 418.05 265.41 418.05 265.41C417.51 272.52 480.42 272.88 480.96 265.77C480.96 265.77 482.31 188.91 478.35 182.25Z" fill="#F81F8B"/>
<path d="M454.77 267.21H439.74C439.29 267.21 438.93 266.94 438.75 266.58L427.68 243.9C427.32 243.18 427.86 242.28 428.67 242.28H443.7C444.15 242.28 444.51 242.55 444.69 242.91L455.76 265.59C456.12 266.4 455.58 267.21 454.77 267.21Z" fill="white"/>
<path d="M454.77 267.66H439.74C439.11 267.66 438.57 267.3 438.39 266.76L427.32 244.08C426.78 243.09 427.59 241.83 428.67 241.83H443.7C444.33 241.83 444.87 242.19 445.05 242.73L456.12 265.41C456.66 266.49 455.85 267.66 454.77 267.66ZM428.67 242.82C428.22 242.82 427.86 243.36 428.04 243.72L439.11 266.4C439.2 266.58 439.47 266.76 439.74 266.76H454.77C455.22 266.76 455.58 266.22 455.4 265.86L444.33 243.18C444.24 243 443.97 242.82 443.79 242.82H428.67Z" fill="#060405"/>
<path d="M500.041 227.79C499.501 236.34 459.091 255.24 459.091 255.24C459.091 255.24 449.821 268.83 442.081 262.26C434.341 255.69 449.101 252.09 449.101 252.09L447.121 247.95C447.211 245.52 453.331 248.85 453.331 248.85L479.071 226.08L473.131 215.73L493.201 206.55C493.201 206.55 500.401 222.48 500.041 227.79Z" fill="white"/>
<path d="M441.81 262.62C439.92 261 439.11 259.38 439.47 257.76C440.28 254.25 446.58 252.27 448.47 251.73L446.67 248.13C446.67 248.04 446.58 247.95 446.67 247.95C446.67 247.32 447.03 247.05 447.3 246.87C448.65 246.06 452.07 247.68 453.24 248.31L478.44 225.99L472.68 215.91C472.59 215.82 472.59 215.64 472.68 215.55C472.77 215.46 472.77 215.37 472.95 215.28L493.02 206.1C493.11 206.01 493.29 206.01 493.38 206.1C493.47 206.1 493.56 206.19 493.65 206.37C493.92 207 500.94 222.57 500.58 227.88C500.04 236.43 462.24 254.34 459.45 255.69C458.73 256.68 453.6 263.7 447.75 264.51C445.59 264.69 443.61 264.15 441.81 262.62ZM447.57 247.86L449.55 251.91C449.64 252 449.64 252.18 449.55 252.27L449.28 252.54C449.19 252.54 441.18 254.52 440.37 258.03C440.1 259.29 440.73 260.55 442.35 261.99C443.97 263.34 445.68 263.88 447.57 263.61C453.33 262.8 458.64 255.15 458.73 255.06L458.91 254.88C472.86 248.4 499.23 234.27 499.59 227.79C499.86 223.2 494.01 209.7 492.93 207.09L473.67 215.91L479.43 225.81C479.52 225.99 479.52 226.26 479.34 226.35L453.6 249.12C453.42 249.21 453.24 249.3 453.06 249.21C451.35 248.31 448.47 247.14 447.66 247.59C447.66 247.59 447.57 247.68 447.57 247.86Z" fill="#060405"/>
<path d="M475.828 180.45C476.368 180.81 481.678 182.88 485.998 189.45C489.058 194.22 495.448 207.54 495.448 207.54C497.338 209.79 477.448 224.82 475.198 221.94C475.198 221.94 466.288 208.08 465.928 200.61C465.478 191.07 475.828 180.45 475.828 180.45Z" fill="#F81F8B"/>
<path d="M476.19 222.66C475.65 222.66 475.2 222.48 475.02 222.21C474.66 221.58 466.02 208.08 465.66 200.61C465.66 200.34 465.84 200.16 466.11 200.16C466.38 200.16 466.56 200.34 466.56 200.61C466.92 207.9 475.65 221.58 475.74 221.76C475.83 221.85 476.01 221.85 476.37 221.85C480.24 221.58 492.21 213.21 494.73 208.98C494.82 208.8 495.09 208.71 495.36 208.8C495.54 208.89 495.63 209.16 495.54 209.43C492.84 213.93 480.51 222.48 476.46 222.75C476.28 222.66 476.28 222.66 476.19 222.66Z" fill="#060405"/>
<path d="M443.879 170.64C443.879 170.64 441.899 174.51 439.739 177.93C438.119 180.54 441.179 185.4 444.059 186.93C448.739 189.36 457.829 178.38 457.829 178.38L458.189 154.08L443.879 170.64Z" fill="white"/>
<path d="M443.789 187.29C441.719 186.21 439.649 183.51 438.929 181.08C438.569 179.73 438.659 178.56 439.289 177.66C440.639 175.5 442.439 172.35 443.519 170.37L458.549 152.91V177.57L458.459 177.66C455.579 181.35 448.019 189.45 443.789 187.29ZM444.239 170.91C443.969 171.36 442.079 174.96 440.099 178.2C439.559 179.01 439.649 180.09 439.919 180.9C440.459 183.06 442.439 185.58 444.329 186.57C447.839 188.37 455.129 180.63 457.829 177.3V155.34L444.239 170.91Z" fill="#060405"/>
<path d="M457.56 150.93C457.29 151.29 455.13 173.79 441.54 172.26C427.95 170.73 431.46 142.65 437.58 136.44C443.7 130.23 456.03 135.81 456.03 135.81L460.08 145.62L457.56 150.93Z" fill="white"/>
<path d="M442.801 172.8C442.351 172.8 441.901 172.8 441.451 172.71C437.581 172.26 434.701 169.65 433.081 165.24C429.751 156.06 432.631 140.76 437.131 136.17C443.341 129.78 455.581 135.18 456.031 135.45L456.211 135.54L460.441 145.62L457.831 151.11C457.831 151.2 457.741 151.47 457.741 151.74C455.581 165.33 450.271 172.8 442.801 172.8ZM445.681 134.01C442.891 134.01 440.011 134.73 437.941 136.8C433.711 141.21 430.921 156.15 434.071 164.97C435.601 169.11 438.121 171.45 441.631 171.81C449.371 172.71 454.591 165.69 457.021 151.56C457.111 150.93 457.111 150.75 457.201 150.66L459.631 145.53L455.761 136.08C454.771 135.81 450.271 134.01 445.681 134.01Z" fill="#060405"/>
<path d="M447.308 151.06C447.336 150.315 446.917 149.694 446.37 149.673C445.824 149.652 445.358 150.239 445.329 150.984C445.301 151.729 445.72 152.35 446.267 152.371C446.813 152.392 447.279 151.805 447.308 151.06Z" fill="#060405"/>
<path d="M438.32 151.014C438.348 150.269 437.929 149.648 437.382 149.627C436.836 149.606 436.37 150.193 436.341 150.938C436.312 151.683 436.732 152.304 437.278 152.325C437.825 152.346 438.291 151.759 438.32 151.014Z" fill="#060405"/>
<path d="M441.72 159.66C441.54 159.57 441.27 159.48 440.91 159.48C440.28 159.39 439.74 159.03 439.65 158.49C439.56 157.86 440.01 157.41 440.28 157.14C441.45 155.88 441.99 154.08 441.54 152.46L442.44 152.28C442.89 154.17 442.26 156.42 440.91 157.86C440.73 158.04 440.46 158.31 440.55 158.4C440.55 158.49 440.82 158.58 441 158.67C441.45 158.76 441.9 158.76 442.26 159.03L441.72 159.66ZM442.17 166.41L442.53 165.6C443.07 165.78 443.7 165.78 444.24 165.6C444.78 165.33 445.23 164.88 445.41 164.43L446.22 164.79C445.95 165.51 445.32 166.14 444.6 166.5C443.79 166.68 442.89 166.68 442.17 166.41ZM429.75 140.22C430.29 140.58 430.92 140.85 431.55 141.12C436.86 142.92 451.35 139.59 451.8 141.66C452.25 143.64 453.06 155.79 454.05 154.26C455.85 151.47 456.48 146.79 456.57 154.89C456.48 157.86 457.38 162.45 457.38 162.45C465.12 162.27 472.59 144.09 464.94 142.83C464.94 142.83 467.28 139.23 465.84 135.99C464.4 132.75 454.23 114.93 434.61 128.61C434.25 128.16 430.74 124.02 429.3 126.99C428.04 129.6 425.79 137.7 429.75 140.22ZM65.25 266.04C65.61 292.95 67.32 374.04 68.4 384.57H81.18L94.86 291.42L111.15 384.57L123.93 385.2L125.91 266.13H65.25V266.04Z" fill="#060405"/>
<path d="M123.84 386.64V384.48H111.06C110.88 388.62 110.61 396.36 110.43 396.36H131.13C131.94 389.61 123.84 386.64 123.84 386.64Z" fill="#9F28EE"/>
<path d="M130.95 393.48C131.22 394.38 131.31 395.37 131.22 396.45H110.52C110.52 396.45 110.61 395.19 110.7 393.48H130.95Z" fill="#060405"/>
<path d="M81.0895 386.64V384.48H68.3995C68.2195 388.62 67.9495 396.36 67.7695 396.36H88.4695C89.1895 389.61 81.0895 386.64 81.0895 386.64Z" fill="#9F28EE"/>
<path d="M88.1995 393.48C88.4695 394.38 88.5595 395.37 88.4695 396.45H67.7695C67.7695 396.45 67.8595 395.19 67.9495 393.48H88.1995Z" fill="#060405"/>
<path d="M119.43 218.88L145.62 228.42L183.33 207.54C183.33 207.54 188.37 208.98 191.16 206.01C193.95 203.04 189.45 198.72 189.45 198.72C189.45 198.72 197.64 192.42 197.1 190.35C196.47 188.28 185.58 196.47 185.58 196.47C185.58 196.47 186.21 193.59 185.22 192.6C184.23 191.61 181.89 197.46 181.89 197.46L144.9 206.01L133.47 196.47L119.43 218.88Z" fill="white"/>
<path d="M145.711 228.87L118.801 219.06L133.291 195.75L144.991 205.47L181.531 197.01C182.161 195.39 183.601 192.24 184.771 192.06C185.041 191.97 185.311 192.06 185.491 192.33C186.211 193.05 186.211 194.49 186.121 195.48C188.731 193.59 195.211 189 196.921 189.63C197.191 189.72 197.371 189.9 197.461 190.26C198.091 192.33 192.061 197.19 190.081 198.81C191.701 200.52 193.681 203.94 191.431 206.37C188.821 209.25 184.321 208.35 183.331 208.08L145.711 228.87ZM120.151 218.61L145.621 227.88L183.331 207L183.511 207.09C183.601 207.09 188.281 208.44 190.891 205.65C193.321 203.04 189.271 199.08 189.181 198.99L188.821 198.63L189.271 198.27C193.141 195.3 197.101 191.43 196.741 190.35C196.021 189.99 191.071 192.87 185.941 196.74L184.951 197.46L185.221 196.29C185.401 195.3 185.581 193.41 184.951 192.78C184.591 192.87 183.331 195.03 182.341 197.46L182.251 197.64L144.811 206.28L133.561 197.01L120.151 218.61Z" fill="#060405"/>
<path d="M63.8094 216.63C64.5294 216.72 65.2494 216.81 66.0594 216.81L62.5494 267.3C62.5494 273.24 126.449 273.24 126.449 267.3L124.019 216.45V216.36C124.019 216.36 136.889 207.36 138.329 197.01C134.819 191.61 124.019 176.67 106.739 171.63C103.409 170.64 99.8094 170.01 96.0294 169.92C91.3494 169.83 86.8494 170.46 82.7094 171.72C79.3794 172.71 76.2294 174.06 73.2594 175.77C53.2794 186.84 45.5394 205.29 45.5394 205.29C45.5394 205.29 45.3594 204.57 47.3394 206.64C50.9394 210.24 54.8094 215.19 62.8194 216.54C63.0894 216.54 63.4494 216.63 63.8094 216.63Z" fill="#9F28EE"/>
<path d="M124.021 216.99C123.841 216.99 123.661 216.9 123.571 216.63L118.711 197.82C118.621 197.55 118.801 197.37 119.071 197.28C119.341 197.19 119.521 197.37 119.611 197.64L124.471 216.45C124.561 216.72 124.381 216.9 124.111 216.99C124.111 216.9 124.021 216.99 124.021 216.99Z" fill="black"/>
<path d="M84.7812 245.34C84.7812 246.78 85.9513 247.95 87.3913 247.95H147.961C149.401 247.95 150.571 246.78 150.571 245.34C150.571 243.9 149.401 242.73 147.961 242.73H87.3913C85.9513 242.73 84.7812 243.9 84.7812 245.34Z" fill="#060405"/>
<path d="M113.848 242.73H151.288C153.268 242.73 154.978 241.38 155.518 239.49L163.168 210.33C163.888 207.63 161.818 204.84 158.938 204.84H121.498C119.518 204.84 117.808 206.19 117.358 208.08L109.708 237.24C108.898 240.12 110.968 242.73 113.848 242.73Z" fill="white"/>
<path d="M151.29 243.18H113.85C112.32 243.18 110.97 242.46 110.07 241.29C109.17 240.12 108.81 238.59 109.26 237.15L116.91 207.99C117.45 205.92 119.34 204.39 121.5 204.39H158.94C160.47 204.39 161.82 205.11 162.72 206.28C163.62 207.45 163.98 208.98 163.53 210.42L155.88 239.58C155.34 241.74 153.45 243.18 151.29 243.18ZM121.41 205.38C119.61 205.38 118.08 206.55 117.63 208.26L109.98 237.42C109.71 238.59 109.89 239.85 110.7 240.75C111.42 241.74 112.59 242.28 113.76 242.28H151.2C153 242.28 154.53 241.11 154.98 239.4L162.63 210.24C162.9 209.07 162.72 207.81 161.91 206.91C161.19 205.92 160.02 205.38 158.85 205.38H121.41Z" fill="#060405"/>
<path d="M147.78 238.68C147.51 240.03 147.42 241.47 147.78 242.73H151.29C153.27 242.73 154.98 241.38 155.52 239.49L163.17 210.33C163.89 207.63 161.82 204.84 158.94 204.84H146.52C149.49 206.46 152.1 208.53 153.54 211.5C155.61 215.82 154.71 220.86 152.91 225.36C151.2 229.86 148.77 234.09 147.78 238.68Z" fill="#FFC2C2"/>
<path d="M148.048 248.4H87.3881C85.6781 248.4 84.3281 247.05 84.3281 245.34C84.3281 243.63 85.6781 242.28 87.3881 242.28H147.958C149.668 242.28 151.018 243.63 151.018 245.34C151.018 247.05 149.758 248.4 148.048 248.4ZM87.3881 243.18C86.2181 243.18 85.2281 244.17 85.2281 245.34C85.2281 246.51 86.2181 247.5 87.3881 247.5H147.958C149.128 247.5 150.118 246.51 150.118 245.34C150.118 244.17 149.128 243.18 147.958 243.18H87.3881Z" fill="#060405"/>
<path d="M151.2 243.18H113.76C112.23 243.18 110.88 242.46 109.98 241.29C109.08 240.12 108.72 238.59 109.17 237.15L116.82 207.99C117.36 205.92 119.25 204.39 121.41 204.39H158.85C160.38 204.39 161.73 205.11 162.63 206.28C163.53 207.45 163.89 208.98 163.44 210.42L155.79 239.58C155.34 241.74 153.45 243.18 151.2 243.18ZM121.41 205.38C119.61 205.38 118.08 206.55 117.63 208.26L109.98 237.42C109.71 238.59 109.89 239.85 110.7 240.75C111.42 241.74 112.59 242.28 113.76 242.28H151.2C153 242.28 154.53 241.11 154.98 239.4L162.63 210.24C162.9 209.07 162.72 207.81 161.91 206.91C161.19 205.92 160.02 205.38 158.85 205.38H121.41Z" fill="#060405"/>
<path d="M134.638 224.28C134.458 225.9 135.718 227.25 137.338 227.25C139.048 227.25 140.488 225.9 140.578 224.28C140.758 222.57 139.498 221.22 137.878 221.22C136.258 221.31 134.818 222.66 134.638 224.28Z" fill="#FFC2C2"/>
<path d="M41.131 238.59C45.451 245.97 92.431 248.76 92.431 248.76C92.431 248.76 105.841 254.25 110.341 247.59C114.841 240.93 102.961 241.2 102.961 241.2C102.961 241.2 105.481 240.21 103.861 237.87C102.241 235.44 93.331 239.49 93.331 239.49L62.641 226.53L65.791 211.95L44.011 208.17C44.011 208.08 36.991 231.3 41.131 238.59Z" fill="white"/>
<path d="M102.692 251.28C97.9217 251.28 93.0617 249.39 92.3417 249.12C89.5517 248.94 45.0017 246.24 40.6817 238.77C36.4517 231.48 43.2917 208.89 43.5617 207.9L43.6517 207.54L66.2417 211.41L63.0917 226.17L93.3317 238.95C94.8617 238.23 102.512 235.08 104.222 237.6C104.762 238.41 104.942 239.22 104.762 239.94C104.672 240.3 104.492 240.57 104.312 240.75C106.382 240.84 110.342 241.38 111.512 243.54C112.142 244.71 111.872 246.15 110.792 247.86C108.992 250.47 105.842 251.28 102.692 251.28ZM41.4917 238.32C45.6317 245.43 91.9817 248.22 92.4317 248.22H92.6117C92.7017 248.31 105.752 253.53 109.982 247.23C110.882 245.88 111.152 244.71 110.702 243.9C109.622 241.83 104.762 241.56 102.962 241.56H100.442L102.782 240.66C102.782 240.66 103.682 240.3 103.862 239.58C104.042 239.13 103.862 238.59 103.412 237.96C102.422 236.43 96.7518 238.23 93.4217 239.76L93.2417 239.85L62.0117 226.62L65.1617 212.13L44.2817 208.53C43.4717 211.59 37.8017 231.84 41.4917 238.32Z" fill="#060405"/>
<path d="M73.1689 175.77C73.6189 187.38 71.3689 202.59 66.7789 218.7C66.0589 218.7 64.2589 218.34 63.5389 218.25C63.1789 218.16 62.8189 218.16 62.3689 218.07C50.0389 216.54 41.1289 209.88 41.1289 209.88C41.1289 209.88 45.4489 187.56 73.1689 175.77Z" fill="#9F28EE"/>
<path d="M66.1492 218.88H66.0592C65.7892 218.79 65.6992 218.61 65.6992 218.34L68.8492 205.74C68.9392 205.47 69.1192 205.38 69.3892 205.38C69.6592 205.47 69.7492 205.65 69.7492 205.92L66.5992 218.52C66.5092 218.79 66.3292 218.88 66.1492 218.88Z" fill="black"/>
<path d="M86.7617 170.73C86.7617 170.73 91.8017 179.19 105.212 182.79L105.932 171.63C105.932 171.63 104.672 166.05 104.222 161.19C103.772 156.51 93.0617 146.34 92.3417 145.71C91.6217 145.08 91.9817 152.91 90.2717 160.2C89.2817 163.98 88.6517 167.85 86.7617 170.73Z" fill="white"/>
<path d="M105.21 183.24H105.12C91.7095 179.64 86.5795 171.36 86.3995 171C86.3095 170.82 86.3095 170.64 86.3995 170.55C87.9295 168.3 88.5595 165.42 89.2795 162.36C89.4595 161.64 89.6395 160.83 89.8195 160.11C91.5295 153 91.8895 145.8 91.8895 145.71C91.8895 145.53 91.9795 145.35 92.1595 145.35C92.3395 145.26 92.4295 145.35 92.6095 145.44H92.6995C92.7895 145.53 104.22 156.06 104.67 161.19C105.12 165.96 106.38 171.54 106.38 171.63V171.72L105.66 182.88C105.66 182.97 105.57 183.15 105.48 183.24C105.39 183.15 105.3 183.24 105.21 183.24ZM87.2995 170.73C88.1995 172.08 93.4195 179.01 104.85 182.25L105.48 171.72C105.3 171.09 104.13 165.78 103.77 161.28C103.41 157.41 95.2195 149.04 92.6995 146.7C92.5195 148.86 91.9795 154.62 90.6295 160.29C90.4495 161.01 90.2695 161.73 90.0895 162.54C89.4595 165.51 88.8295 168.39 87.2995 170.73Z" fill="#060405"/>
<path d="M91.8017 147.78C91.8017 147.78 91.4417 165.78 105.752 167.31C122.132 169.02 115.832 135.9 115.832 135.9L105.122 127.53L92.5217 130.32L86.7617 138.78L91.8017 147.78Z" fill="white"/>
<path d="M106.92 167.76C106.47 167.76 106.11 167.76 105.66 167.67C91.7995 166.23 91.3495 149.49 91.3495 147.87L86.3995 139.05C86.3095 138.87 86.3095 138.69 86.3995 138.6L92.1595 130.14C92.2495 130.05 92.3395 129.96 92.4295 129.96L105.03 127.17C105.12 127.17 105.3 127.17 105.39 127.26L116.1 135.63C116.19 135.72 116.28 135.81 116.28 135.9C116.46 136.8 120.33 157.59 113.31 165.15C111.6 166.86 109.53 167.76 106.92 167.76ZM87.2995 138.78L92.1595 147.51C92.1595 147.6 92.2495 147.69 92.2495 147.78C92.2495 147.96 92.0695 165.33 105.75 166.77C108.63 167.04 110.88 166.32 112.59 164.43C118.98 157.5 115.65 138.06 115.29 136.08L104.85 127.98L92.6095 130.68L87.2995 138.78Z" fill="#060405"/>
<path d="M80.9985 142.65C77.4885 146.16 82.9785 159.12 90.1785 160.11C91.8885 152.82 92.6085 145.62 92.6085 145.62C92.6085 145.62 94.7685 141.48 94.8585 141.48C94.9485 141.48 98.0085 139.68 97.4685 137.07C96.9285 134.46 98.1885 135 100.259 135.27C103.589 135.63 119.519 142.92 122.399 136.35C128.699 121.95 106.649 120.42 98.0085 122.22C89.4585 123.93 87.2985 126.27 82.8885 130.77C81.2685 132.39 84.3285 139.23 80.9985 142.65Z" fill="#060405"/>
<path d="M112.948 146.7C112.948 147.51 112.498 148.23 111.958 148.23C111.418 148.23 110.968 147.51 110.968 146.7C110.968 145.8 111.418 145.17 111.958 145.17C112.498 145.17 112.948 145.89 112.948 146.7ZM104.308 147.24C104.308 148.05 103.858 148.77 103.318 148.77C102.778 148.77 102.328 148.05 102.328 147.24C102.328 146.34 102.778 145.71 103.318 145.71C103.858 145.71 104.308 146.43 104.308 147.24Z" fill="#060405"/>
<path d="M107.279 155.25C107.189 155.25 107.009 155.16 106.919 155.07C106.739 154.89 106.739 154.62 106.919 154.44L108.719 152.73C108.989 152.46 108.989 152.37 108.989 152.37C108.989 152.37 108.809 152.28 108.719 152.19C108.629 152.1 108.449 152.1 108.359 152.01C107.639 151.56 107.549 150.66 107.459 150.12L107.099 146.7C107.099 146.43 107.279 146.25 107.459 146.16C107.729 146.16 107.909 146.34 107.999 146.52L108.359 150.03C108.449 150.57 108.539 151.02 108.809 151.29C108.899 151.38 108.989 151.38 109.079 151.38C109.349 151.47 109.799 151.65 109.889 152.1C110.069 152.73 109.529 153.18 109.349 153.36L107.549 155.07C107.549 155.25 107.459 155.25 107.279 155.25ZM105.569 161.1H105.479C104.669 161.1 103.949 160.74 103.319 160.11C103.139 159.93 103.139 159.66 103.319 159.48C103.499 159.3 103.769 159.3 103.949 159.48C104.309 159.93 104.939 160.11 105.479 160.2C106.019 160.2 106.649 160.02 107.099 159.66C107.279 159.48 107.549 159.48 107.729 159.75C107.909 159.93 107.909 160.2 107.639 160.38C107.099 160.83 106.379 161.1 105.569 161.1ZM97.0187 190.08C96.8387 190.08 96.7487 190.08 96.5687 189.99C95.6687 189.81 95.1287 189.09 94.6787 188.37L88.7387 179.19C88.5587 179.01 88.6487 178.74 88.8287 178.56C89.0087 178.38 89.2787 178.47 89.4587 178.65L95.3987 187.83C95.7587 188.37 96.2087 189 96.7487 189.09C97.2887 189.18 97.8287 188.91 98.4587 188.55C100.079 187.56 104.849 182.43 104.939 182.43C105.119 182.25 105.389 182.25 105.569 182.43C105.749 182.61 105.749 182.88 105.569 183.06C105.389 183.24 100.619 188.37 98.9087 189.36C98.2787 189.72 97.6487 190.08 97.0187 190.08Z" fill="black"/>
<path d="M110.522 185.31C108.722 185.31 105.482 183.42 105.032 183.15C104.852 183.06 104.762 182.79 104.852 182.52C104.942 182.25 105.212 182.25 105.482 182.34C106.922 183.24 109.712 184.59 110.702 184.32C111.152 184.23 111.602 184.14 111.782 183.87C112.052 183.42 111.782 182.7 111.512 182.16L108.902 176.85C108.812 176.67 108.902 176.4 109.082 176.22C109.262 176.13 109.532 176.22 109.712 176.4L112.322 181.71C112.682 182.52 113.042 183.51 112.502 184.32C112.052 184.86 111.332 185.04 110.882 185.13C110.702 185.31 110.612 185.31 110.522 185.31Z" fill="black"/>
<path d="M116.101 81.9901C115.561 75.5101 110.341 70.3801 103.861 69.8401C96.1206 69.3001 89.6406 75.4201 89.6406 83.0701C89.6406 87.0301 91.4406 90.6301 94.2306 93.0601C96.3006 94.8601 97.7406 97.2901 98.4606 99.9001H107.461C108.181 97.2001 109.801 94.7701 111.871 92.7901C114.661 90.1801 116.371 86.3101 116.101 81.9901Z" fill="#F81F8B"/>
<path d="M105.118 100.35H104.218V86.58H102.238V85.68H104.218V84.69C104.218 83.61 105.028 82.8 106.108 82.8H107.008C108.088 82.8 108.898 83.61 108.898 84.69C108.898 85.77 108.088 86.58 107.008 86.58H105.118V100.35ZM105.118 85.68H107.008C107.548 85.68 107.998 85.23 107.998 84.69C107.998 84.15 107.548 83.7 107.008 83.7H106.108C105.568 83.7 105.118 84.15 105.118 84.69V85.68Z" fill="white"/>
<path d="M101.52 100.35H100.62V86.58H98.7298C97.6498 86.58 96.8398 85.77 96.8398 84.69C96.8398 83.61 97.6498 82.8 98.7298 82.8H99.6298C100.71 82.8 101.52 83.61 101.52 84.69V85.68H103.5V86.58H101.52V100.35ZM98.7298 83.7C98.1898 83.7 97.7398 84.15 97.7398 84.69C97.7398 85.23 98.1898 85.68 98.7298 85.68H100.62V84.69C100.62 84.15 100.17 83.7 99.6298 83.7H98.7298Z" fill="white"/>
<path d="M108.359 100.53V103.59C108.359 104.22 107.819 104.67 107.279 104.67H98.4589C97.8289 104.67 97.3789 104.13 97.3789 103.59V100.53C97.3789 99.8999 97.9189 99.45 98.4589 99.45H107.279C107.909 99.45 108.359 99.8999 108.359 100.53Z" fill="#060405"/>
<path d="M100.081 104.49C100.081 106.02 101.341 107.19 102.871 107.19C104.401 107.19 105.571 106.02 105.661 104.49H100.081ZM102.961 63.5401C102.511 63.5401 102.241 63.9001 102.241 64.2601V66.3301C102.241 66.7801 102.601 67.0501 102.961 67.0501C103.411 67.0501 103.681 66.6901 103.681 66.3301V64.2601C103.771 63.9001 103.411 63.5401 102.961 63.5401ZM90.0911 69.3001C89.8211 69.0301 89.2811 69.0301 89.0111 69.3001C88.7411 69.5701 88.7411 70.1101 89.0111 70.3801L90.4511 71.8201C90.7211 72.0901 91.2611 72.0901 91.5311 71.8201C91.8011 71.5501 91.8011 71.0101 91.5311 70.7401L90.0911 69.3001ZM116.911 69.3001C116.641 69.0301 116.101 69.0301 115.831 69.3001L114.391 70.7401C114.121 71.0101 114.121 71.5501 114.391 71.8201C114.661 72.0901 115.201 72.0901 115.471 71.8201L116.911 70.3801C117.271 70.1101 117.271 69.6601 116.911 69.3001ZM415.441 100.17C408.781 102.33 401.941 101.16 396.451 97.7401L399.871 93.1501L399.061 92.5201L398.251 91.8901L394.831 96.4801C391.321 93.7801 388.621 90.0001 387.181 85.5001C383.401 73.7101 389.881 61.0201 401.761 57.2401C413.551 53.4601 426.241 59.9401 430.021 71.8201C433.711 83.7001 427.231 96.3901 415.441 100.17Z" fill="#060405"/>
<path d="M389.789 100.62L391.139 101.52L398.699 91.3501L397.349 90.3601L389.789 100.62Z" fill="#060405"/>
<path d="M408.509 90.6301C401.939 90.6301 396.629 85.3201 396.629 78.7501C396.629 72.1801 401.939 66.8701 408.509 66.8701C415.079 66.8701 420.389 72.1801 420.389 78.7501C420.389 85.3201 415.079 90.6301 408.509 90.6301ZM408.509 68.8501C403.019 68.8501 398.609 73.2601 398.609 78.7501C398.609 84.2401 403.019 88.6501 408.509 88.6501C413.999 88.6501 418.409 84.2401 418.409 78.7501C418.409 73.2601 413.999 68.8501 408.509 68.8501Z" fill="white"/>
<path d="M408.509 81.45C410 81.45 411.209 80.2412 411.209 78.75C411.209 77.2589 410 76.05 408.509 76.05C407.017 76.05 405.809 77.2589 405.809 78.75C405.809 80.2412 407.017 81.45 408.509 81.45Z" fill="white"/>
<path d="M409.592 65.9701V70.2001C409.592 70.7401 409.142 71.1901 408.602 71.1901C408.062 71.1901 407.612 70.7401 407.612 70.2001V66.0601C407.612 65.5201 408.062 65.0701 408.602 65.0701C409.142 64.9801 409.592 65.4301 409.592 65.9701ZM409.592 87.3001V91.4401C409.592 91.9801 409.142 92.4301 408.602 92.4301C408.062 92.4301 407.612 91.9801 407.612 91.4401V87.3001C407.612 86.7601 408.062 86.3101 408.602 86.3101C409.142 86.3101 409.592 86.7601 409.592 87.3001ZM395.822 77.7601H399.962C400.502 77.7601 400.952 78.2101 400.952 78.7501C400.952 79.2901 400.502 79.7401 399.962 79.7401H395.822C395.282 79.7401 394.832 79.2901 394.832 78.7501C394.742 78.2101 395.192 77.7601 395.822 77.7601ZM417.152 77.7601H421.292C421.832 77.7601 422.282 78.2101 422.282 78.7501C422.282 79.2901 421.832 79.7401 421.292 79.7401H417.152C416.612 79.7401 416.162 79.2901 416.162 78.7501C416.072 78.2101 416.522 77.7601 417.152 77.7601Z" fill="white"/>
<path d="M174.419 364.95C174.239 364.77 174.149 364.5 174.329 364.32C174.509 364.14 177.749 359.73 182.339 359.73C182.609 359.73 182.789 359.91 182.789 360.18C182.789 360.45 182.609 360.63 182.339 360.63C178.199 360.63 175.049 364.77 175.049 364.86C174.869 365.04 174.599 365.04 174.419 364.95Z" fill="#060405"/>
<path d="M171.001 364.14C172.981 362.07 176.581 360.36 178.741 354.51C179.191 353.25 179.551 351.9 179.281 350.55C179.011 349.2 178.021 347.94 176.671 347.76C175.321 347.58 174.151 348.39 172.981 349.02C171.811 349.65 170.281 350.1 169.201 349.2C168.571 348.66 168.301 347.76 168.211 346.86C167.401 342.9 166.591 338.85 165.871 334.89C165.511 333 164.881 330.93 163.171 330.21C161.731 329.67 160.021 330.3 158.851 331.29C156.241 333.27 154.711 336.6 154.801 339.84C154.891 343.08 156.601 346.32 159.211 348.21C160.021 348.84 160.921 349.29 161.551 350.1C162.181 350.91 162.361 352.17 161.551 352.89C160.651 353.7 159.121 353.16 157.951 353.52C156.421 353.97 155.791 355.86 156.241 357.3C156.691 358.74 158.041 359.82 159.391 360.54C160.741 361.26 162.271 361.71 163.621 362.43C166.411 363.96 168.481 367.02 169.201 370.08C169.201 370.17 169.381 365.94 171.001 364.14Z" fill="#008080"/>
<path d="M170.55 377.46C170.37 377.46 170.19 377.28 170.1 377.1C170.01 376.83 164.34 347.13 161.64 342.45C161.55 342.27 161.55 342 161.82 341.82C162 341.73 162.27 341.73 162.45 342C165.24 346.86 170.73 375.66 171 376.92C171.09 377.28 170.82 377.46 170.55 377.46Z" fill="#060405"/>
<path d="M167.759 363.69C167.489 363.69 167.309 363.42 167.309 363.24C167.309 362.97 167.939 357.12 172.169 354.6C172.349 354.51 172.619 354.51 172.799 354.78C172.889 354.96 172.889 355.23 172.619 355.41C168.749 357.75 168.209 363.24 168.209 363.33C168.209 363.51 167.939 363.69 167.759 363.69ZM166.949 360.09C166.769 360.09 166.589 360 166.499 359.82C166.499 359.82 164.789 355.68 160.919 355.68C160.649 355.68 160.469 355.5 160.469 355.23C160.469 354.96 160.649 354.78 160.919 354.78C165.329 354.78 167.219 359.28 167.309 359.46C167.489 359.73 167.309 360.09 166.949 360.09Z" fill="#060405"/>
<path d="M176.851 366.84C178.021 366.48 179.281 366.39 180.451 366.21C183.061 365.67 185.581 364.59 187.651 362.88C188.641 362.07 189.541 361.17 189.991 359.91C190.441 358.74 190.171 357.21 189.181 356.49C188.191 355.68 186.841 355.77 185.581 355.77C184.321 355.68 182.881 355.32 182.521 354.15C182.251 353.43 182.521 352.62 182.791 351.81C184.051 348.21 185.311 344.7 186.571 341.1C187.201 339.48 187.741 337.41 186.661 336.06C185.761 334.89 184.141 334.71 182.701 334.89C179.641 335.25 176.851 337.14 175.411 339.84C173.971 342.54 173.701 345.87 174.961 348.66C175.321 349.56 175.861 350.37 175.951 351.27C176.041 352.17 175.591 353.34 174.691 353.52C173.611 353.79 172.621 352.62 171.541 352.26C170.191 351.9 168.661 353.07 168.391 354.51C168.031 355.95 168.571 357.39 169.381 358.65C170.101 359.91 171.091 360.99 171.811 362.25C173.341 364.86 173.521 368.19 172.621 370.98C172.531 370.8 174.781 367.47 176.851 366.84Z" fill="#12A67C"/>
<path d="M170.19 377.37C169.92 377.28 169.83 377.01 169.92 376.83C170.01 376.56 179.64 350.19 179.73 345.15C179.73 344.88 179.91 344.7 180.18 344.7C180.45 344.7 180.63 344.88 180.63 345.15C180.54 350.28 171.18 376.02 170.82 377.1C170.73 377.28 170.46 377.46 170.19 377.37Z" fill="#060405"/>
<path d="M175.681 361.71C175.411 361.71 175.231 361.44 175.321 361.17C175.321 361.17 175.861 357.03 172.891 355.23C172.711 355.14 172.621 354.87 172.711 354.6C172.801 354.42 173.071 354.33 173.341 354.42C176.851 356.58 176.221 361.08 176.221 361.26C176.221 361.62 175.951 361.8 175.681 361.71Z" fill="#060405"/>
<path d="M176.22 393.75H166.14C165.51 393.75 165.06 393.3 164.88 392.67L160.83 375.21C160.74 374.49 161.28 373.77 162.09 373.77L180.36 373.86C181.08 373.86 181.71 374.58 181.62 375.3L177.48 392.76C177.3 393.3 176.76 393.75 176.22 393.75Z" fill="white"/>
<path d="M176.218 394.2H166.138C165.328 394.2 164.608 393.57 164.518 392.76L160.468 375.3C160.288 374.13 161.188 373.23 162.088 373.32L180.358 373.41C181.438 373.41 182.158 374.31 181.978 375.39L177.838 392.85C177.748 393.66 177.028 394.2 176.218 394.2ZM176.218 393.3C176.578 393.3 176.938 393.03 177.028 392.67L181.168 375.21C181.258 374.76 180.898 374.31 180.358 374.31L162.088 374.22C161.638 374.22 161.278 374.67 161.278 375.12L165.328 392.58C165.418 393.03 165.688 393.3 166.138 393.3H176.218Z" fill="#060405"/>
<path d="M262.439 332.55H229.679C229.499 332.55 229.319 332.37 229.319 332.19C229.319 332.01 229.499 331.83 229.679 331.83H262.439C262.619 331.83 262.799 332.01 262.799 332.19C262.799 332.37 262.619 332.55 262.439 332.55ZM262.439 348.84H229.679C229.499 348.84 229.319 348.66 229.319 348.48C229.319 348.3 229.499 348.12 229.679 348.12H262.439C262.619 348.12 262.799 348.3 262.799 348.48C262.799 348.66 262.619 348.84 262.439 348.84ZM256.499 340.65H210.149C209.969 340.65 209.789 340.47 209.789 340.29C209.789 340.11 209.969 339.93 210.149 339.93H256.499C256.679 339.93 256.859 340.11 256.859 340.29C256.859 340.47 256.679 340.65 256.499 340.65Z" fill="#25E498"/>
<path d="M236.43 332.55C236.25 332.55 236.07 332.37 236.07 332.19V325.26C236.07 325.08 236.25 324.9 236.43 324.9C236.61 324.9 236.79 325.08 236.79 325.26V332.19C236.79 332.37 236.61 332.55 236.43 332.55ZM247.95 340.65C247.77 340.65 247.59 340.47 247.59 340.29V332.19C247.59 332.01 247.77 331.83 247.95 331.83C248.13 331.83 248.31 332.01 248.31 332.19V340.29C248.31 340.56 248.13 340.65 247.95 340.65ZM239.22 348.57C239.04 348.57 238.86 348.39 238.86 348.21V340.38C238.86 340.2 239.04 340.02 239.22 340.02C239.4 340.02 239.58 340.2 239.58 340.38V348.21C239.58 348.39 239.4 348.57 239.22 348.57ZM323.1 63.5401H290.34C290.16 63.5401 289.98 63.3601 289.98 63.1801C289.98 63.0001 290.16 62.8201 290.34 62.8201H323.1C323.28 62.8201 323.46 63.0001 323.46 63.1801C323.46 63.3601 323.28 63.5401 323.1 63.5401ZM323.1 79.7401H290.34C290.16 79.7401 289.98 79.5601 289.98 79.3801C289.98 79.2001 290.16 79.0201 290.34 79.0201H323.1C323.28 79.0201 323.46 79.2001 323.46 79.3801C323.46 79.5601 323.28 79.7401 323.1 79.7401ZM317.16 71.6401H270.81C270.63 71.6401 270.45 71.4601 270.45 71.2801C270.45 71.1001 270.63 70.9201 270.81 70.9201H317.16C317.34 70.9201 317.52 71.1001 317.52 71.2801C317.52 71.4601 317.34 71.6401 317.16 71.6401Z" fill="#25E498"/>
<path d="M297.09 63.5399C296.91 63.5399 296.73 63.3599 296.73 63.1799V56.2499C296.73 56.0699 296.91 55.8899 297.09 55.8899C297.27 55.8899 297.45 56.0699 297.45 56.2499V63.1799C297.45 63.3599 297.27 63.5399 297.09 63.5399ZM308.61 71.6399C308.43 71.6399 308.25 71.4599 308.25 71.2799V63.1799C308.25 62.9999 308.43 62.8199 308.61 62.8199C308.79 62.8199 308.97 62.9999 308.97 63.1799V71.2799C308.97 71.4599 308.79 71.6399 308.61 71.6399ZM299.88 79.4699C299.7 79.4699 299.52 79.2899 299.52 79.1099V71.2799C299.52 71.0999 299.7 70.9199 299.88 70.9199C300.06 70.9199 300.24 71.0999 300.24 71.2799V79.1099C300.15 79.2899 300.06 79.4699 299.88 79.4699Z" fill="#25E498"/>
</svg>
