<svg width="540" height="450" viewBox="0 0 540 450" fill="none" xmlns="http://www.w3.org/2000/svg">
<path opacity="0.3" d="M490.229 373.95C519.569 306.54 477.269 272.07 468.269 247.05C459.359 221.94 523.259 69.48 360.089 58.05C283.139 52.65 278.099 84.33 245.249 78.03C217.889 72.81 180.989 47.79 154.979 57.51C118.169 71.28 96.9287 97.29 99.8088 124.02C102.239 146.34 117.719 167.04 114.569 189.27C111.509 211.05 91.6188 226.62 72.7188 238.86C53.8188 251.19 49.5888 264.15 42.2988 285.03C35.0987 305.46 43.4688 328.59 58.0488 345.06C58.5888 345.69 59.1288 346.23 59.6688 346.86C76.0488 364.59 99.2688 374.31 123.389 374.22L490.229 373.95Z" fill="#86E9DC"/>
<path d="M350.279 82.44H317.429C317.249 82.44 317.069 82.26 317.069 82.08C317.069 81.9 317.249 81.72 317.429 81.72H350.279C350.459 81.72 350.639 81.9 350.639 82.08C350.639 82.26 350.459 82.44 350.279 82.44ZM350.279 98.64H317.429C317.249 98.64 317.069 98.46 317.069 98.28C317.069 98.1 317.249 97.92 317.429 97.92H350.279C350.459 97.92 350.639 98.1 350.639 98.28C350.639 98.46 350.459 98.64 350.279 98.64ZM344.339 90.54H297.899C297.719 90.54 297.539 90.36 297.539 90.18C297.539 90 297.719 89.82 297.899 89.82H344.339C344.519 89.82 344.699 90 344.699 90.18C344.699 90.36 344.519 90.54 344.339 90.54Z" fill="#25E498"/>
<path d="M324.36 82.35C324.18 82.35 324 82.17 324 81.99V75.06C324 74.88 324.18 74.7 324.36 74.7C324.54 74.7 324.72 74.88 324.72 75.06V81.99C324.72 82.17 324.63 82.35 324.36 82.35ZM335.97 90.45C335.79 90.45 335.61 90.27 335.61 90.09V81.99C335.61 81.8099 335.79 81.63 335.97 81.63C336.15 81.63 336.33 81.8099 336.33 81.99V90.09C336.24 90.27 336.15 90.45 335.97 90.45ZM327.15 98.28C326.97 98.28 326.79 98.1 326.79 97.92V90.09C326.79 89.91 326.97 89.73 327.15 89.73C327.33 89.73 327.51 89.91 327.51 90.09V97.92C327.51 98.19 327.33 98.28 327.15 98.28ZM423.18 303.75H390.33C390.15 303.75 389.97 303.57 389.97 303.39C389.97 303.21 390.15 303.03 390.33 303.03H423.18C423.36 303.03 423.54 303.21 423.54 303.39C423.54 303.57 423.36 303.75 423.18 303.75ZM423.18 320.04H390.33C390.15 320.04 389.97 319.86 389.97 319.68C389.97 319.5 390.15 319.32 390.33 319.32H423.18C423.36 319.32 423.54 319.5 423.54 319.68C423.54 319.86 423.36 320.04 423.18 320.04ZM417.24 311.85H370.8C370.62 311.85 370.44 311.67 370.44 311.49C370.44 311.31 370.62 311.13 370.8 311.13H417.24C417.42 311.13 417.6 311.31 417.6 311.49C417.6 311.67 417.42 311.85 417.24 311.85Z" fill="#25E498"/>
<path d="M396.899 303.84C396.719 303.84 396.539 303.66 396.539 303.48V296.55C396.539 296.37 396.719 296.19 396.899 296.19C397.079 296.19 397.259 296.37 397.259 296.55V303.48C397.259 303.66 397.079 303.84 396.899 303.84ZM408.509 311.94C408.329 311.94 408.149 311.76 408.149 311.58V303.48C408.149 303.3 408.329 303.12 408.509 303.12C408.689 303.12 408.869 303.3 408.869 303.48V311.58C408.779 311.76 408.689 311.94 408.509 311.94ZM399.689 319.86C399.509 319.86 399.329 319.68 399.329 319.5V311.67C399.329 311.49 399.509 311.31 399.689 311.31C399.869 311.31 400.049 311.49 400.049 311.67V319.5C400.049 319.68 399.869 319.86 399.689 319.86Z" fill="#25E498"/>
<path d="M406.531 156.24V149.67L401.131 148.23C400.681 146.34 399.871 144.54 398.881 142.92L401.671 138.06L396.991 133.38L392.131 136.17C390.511 135.18 388.711 134.46 386.821 133.92L385.381 128.52H378.901L377.461 133.92C375.571 134.37 373.771 135.18 372.151 136.17L367.291 133.38L362.611 138.06L365.401 142.92C364.411 144.54 363.691 146.34 363.151 148.23L357.751 149.67V156.24L363.151 157.68C363.601 159.57 364.411 161.37 365.401 162.99L362.611 167.85L367.291 172.53L372.151 169.74C373.771 170.73 375.571 171.54 377.461 171.99L378.901 177.39H385.471L386.911 171.99C388.801 171.54 390.601 170.73 392.221 169.74L397.081 172.53L401.761 167.85L398.971 162.99C399.961 161.37 400.681 159.57 401.221 157.68L406.531 156.24ZM382.141 164.7C375.661 164.7 370.351 159.39 370.351 152.91C370.351 146.43 375.661 141.12 382.141 141.12C388.621 141.12 393.931 146.43 393.931 152.91C393.931 159.48 388.621 164.7 382.141 164.7ZM183.421 248.94V242.37L178.021 240.93C177.571 239.04 176.761 237.24 175.771 235.62L178.561 230.76L173.881 226.08L169.021 228.87C167.401 227.88 165.601 227.16 163.711 226.62L162.271 221.22H155.701L154.261 226.62C152.371 227.07 150.571 227.88 148.951 228.87L144.091 226.08L139.411 230.76L142.201 235.62C141.211 237.24 140.491 239.04 139.951 240.93L134.551 242.37V248.94L139.951 250.38C140.401 252.27 141.211 254.07 142.201 255.69L139.411 260.55L144.091 265.23L148.951 262.44C150.571 263.43 152.371 264.24 154.261 264.69L155.701 270.09H162.271L163.711 264.69C165.601 264.24 167.401 263.43 169.021 262.44L173.881 265.23L178.561 260.55L175.771 255.69C176.761 254.07 177.481 252.27 178.021 250.38L183.421 248.94ZM159.031 257.4C152.551 257.4 147.241 252.09 147.241 245.61C147.241 239.13 152.551 233.82 159.031 233.82C165.511 233.82 170.821 239.13 170.821 245.61C170.821 252.18 165.601 257.4 159.031 257.4Z" fill="white"/>
<path d="M125.998 277.65H125.098V271.35H125.998V277.65ZM125.998 265.05H125.098V258.75H125.998V265.05ZM125.998 252.45H125.098V248.31C125.098 247.68 124.918 246.96 124.648 246.42L125.458 246.06C125.818 246.78 125.908 247.59 125.908 248.4V252.45H125.998ZM120.058 243.63H113.758V242.73H120.058V243.63ZM107.458 243.63H101.158V242.73H107.458V243.63ZM94.8581 243.63H94.4081C92.2481 243.63 90.2681 242.37 89.3681 240.39L90.1781 240.03C90.8981 241.65 92.6081 242.73 94.4081 242.73H94.8581V243.63ZM89.7281 233.91H88.8281V227.61H89.7281V233.91ZM89.7281 221.31H88.8281V215.01H89.7281V221.31ZM89.7281 208.71H88.8281V202.41H89.7281V208.71ZM89.7281 196.11H88.8281V189.81H89.7281V196.11ZM89.7281 183.51H88.8281V177.21H89.7281V183.51ZM89.7281 170.91H88.8281V164.61H89.7281V170.91ZM89.7281 158.31H88.8281V152.01H89.7281V158.31ZM89.7281 145.71H88.8281V139.41H89.7281V145.71ZM89.7281 133.11H88.8281V126.81H89.7281V133.11ZM89.7281 120.51H88.8281V114.21H89.7281V120.51ZM89.7281 107.91H88.8281V101.61H89.7281V107.91ZM89.7281 95.3101H88.8281V90.4501C88.8281 89.9101 88.8281 89.4601 88.9181 88.9201L89.8181 89.0101C89.8181 89.4601 89.7281 90.0001 89.7281 90.4501V95.3101ZM91.4381 83.2501L90.6281 82.8901C91.6181 80.9101 92.8781 79.2001 94.4981 77.7601L95.1281 78.3901C93.5981 79.7401 92.3381 81.3601 91.4381 83.2501ZM100.348 75.2401L100.078 74.4301C101.968 73.7101 104.038 73.3501 106.018 73.3501H106.378V74.2501H106.018C104.038 74.2501 102.148 74.5201 100.348 75.2401ZM408.778 74.2501H402.478V73.3501H408.778V74.2501ZM396.178 74.2501H389.878V73.3501H396.178V74.2501ZM383.578 74.2501H377.278V73.3501H383.578V74.2501ZM370.978 74.2501H364.678V73.3501H370.978V74.2501ZM358.378 74.2501H352.078V73.3501H358.378V74.2501ZM345.778 74.2501H339.478V73.3501H345.778V74.2501ZM333.178 74.2501H326.878V73.3501H333.178V74.2501ZM320.578 74.2501H314.278V73.3501H320.578V74.2501ZM307.978 74.2501H301.678V73.3501H307.978V74.2501ZM295.378 74.2501H289.078V73.3501H295.378V74.2501ZM282.778 74.2501H276.478V73.3501H282.778V74.2501ZM270.178 74.2501H263.878V73.3501H270.178V74.2501ZM257.578 74.2501H251.278V73.3501H257.578V74.2501ZM244.978 74.2501H238.678V73.3501H244.978V74.2501ZM232.378 74.2501H226.078V73.3501H232.378V74.2501ZM219.778 74.2501H213.478V73.3501H219.778V74.2501ZM207.178 74.2501H200.878V73.3501H207.178V74.2501ZM194.578 74.2501H188.278V73.3501H194.578V74.2501ZM181.978 74.2501H175.678V73.3501H181.978V74.2501ZM169.378 74.2501H163.078V73.3501H169.378V74.2501ZM156.778 74.2501H150.478V73.3501H156.778V74.2501ZM144.178 74.2501H137.878V73.3501H144.178V74.2501ZM131.578 74.2501H125.278V73.3501H131.578V74.2501ZM118.978 74.2501H112.678V73.3501H118.978V74.2501Z" fill="black"/>
<path d="M380.338 103.68V365.22C380.338 370.17 376.288 374.22 371.338 374.22H169.648C164.698 374.22 160.648 370.17 160.648 365.22V103.68C160.648 98.7299 164.608 94.6799 169.648 94.6799H371.338C376.378 94.6799 380.338 98.7299 380.338 103.68Z" fill="#4DD172"/>
<path d="M170.461 358.29V125.46C170.461 122.04 173.251 119.34 176.581 119.34H364.501C367.921 119.34 370.621 122.13 370.621 125.46V358.29C370.621 361.71 367.831 364.41 364.501 364.41H176.581C173.161 364.41 170.461 361.62 170.461 358.29ZM182.431 108.81C182.431 111.06 180.631 112.95 178.381 112.95C176.131 112.95 174.331 111.06 174.331 108.81C174.331 106.56 176.131 104.67 178.381 104.67C180.631 104.67 182.431 106.56 182.431 108.81ZM193.141 108.81C193.141 111.06 191.341 112.95 189.091 112.95C186.841 112.95 185.041 111.06 185.041 108.81C185.041 106.56 186.841 104.67 189.091 104.67C191.341 104.67 193.141 106.56 193.141 108.81ZM203.851 108.81C203.851 111.06 202.051 112.95 199.801 112.95C197.551 112.95 195.751 111.06 195.751 108.81C195.751 106.56 197.551 104.67 199.801 104.67C202.051 104.67 203.851 106.56 203.851 108.81Z" fill="white"/>
<path d="M326.698 166.14H214.288C212.038 166.14 210.238 164.34 210.238 162.09V139.23C210.238 136.98 212.038 135.18 214.288 135.18H326.698C328.948 135.18 330.748 136.98 330.748 139.23V162.09C330.748 164.25 328.948 166.14 326.698 166.14Z" fill="#060405"/>
<path d="M247.949 143.28H238.589C238.139 143.28 237.779 143.46 237.509 143.73C237.239 144 237.059 144.36 237.059 144.81C237.059 145.26 237.239 145.62 237.509 145.89C237.779 146.16 238.139 146.34 238.589 146.34H241.739V156.42C241.739 156.87 241.919 157.23 242.189 157.5C242.459 157.77 242.909 157.95 243.269 157.95C243.719 157.95 244.079 157.77 244.349 157.5C244.619 157.23 244.799 156.78 244.799 156.33V146.25H247.859C248.309 146.25 248.669 146.07 248.939 145.8C249.209 145.53 249.389 145.17 249.389 144.72C249.389 144.27 249.209 143.91 248.939 143.64C248.759 143.46 248.399 143.28 247.949 143.28ZM261.449 144.09C260.369 143.46 259.109 143.1 257.579 143.1C256.049 143.1 254.879 143.46 253.709 144.09C252.629 144.72 251.729 145.62 251.099 146.79C250.469 147.87 250.199 149.22 250.199 150.66C250.199 152.1 250.559 153.36 251.099 154.53C251.729 155.7 252.539 156.6 253.709 157.23C254.789 157.86 256.139 158.22 257.579 158.22C259.019 158.22 260.279 157.86 261.449 157.23C262.529 156.6 263.429 155.7 264.059 154.53C264.689 153.45 264.959 152.1 264.959 150.66C264.959 149.22 264.599 147.96 264.059 146.79C263.429 145.62 262.529 144.72 261.449 144.09ZM257.669 155.07C256.769 155.07 256.049 154.89 255.419 154.53C254.789 154.17 254.339 153.63 253.979 153C253.619 152.37 253.439 151.56 253.439 150.66C253.439 149.76 253.619 149.04 253.979 148.32C254.339 147.69 254.789 147.15 255.419 146.79C256.049 146.43 256.769 146.25 257.669 146.25C258.569 146.25 259.289 146.43 259.919 146.79C260.549 147.15 260.999 147.69 261.359 148.32C261.719 149.04 261.899 149.76 261.899 150.66C261.899 151.56 261.719 152.28 261.359 153C260.999 153.63 260.549 154.17 259.919 154.53C259.289 154.89 258.479 155.07 257.669 155.07ZM283.499 144.36C282.419 143.64 281.069 143.28 279.449 143.28H275.669C275.219 143.28 274.859 143.46 274.499 143.73C274.229 144 274.049 144.45 274.049 144.81V156.24C274.049 156.69 274.229 157.05 274.499 157.32C274.769 157.59 275.219 157.77 275.579 157.77H279.359C280.889 157.77 282.329 157.41 283.409 156.69C284.489 155.97 285.389 155.07 285.929 153.9C286.469 152.82 286.739 151.65 286.739 150.39C286.739 149.13 286.469 147.96 285.929 146.88C285.479 145.98 284.669 145.08 283.499 144.36ZM283.679 150.66C283.679 151.47 283.499 152.28 283.139 152.91C282.779 153.54 282.239 153.99 281.609 154.35C280.979 154.71 280.169 154.89 279.269 154.89H277.289V146.34H279.269C280.169 146.34 280.979 146.52 281.609 146.88C282.239 147.24 282.779 147.69 283.139 148.32C283.499 149.04 283.679 149.76 283.679 150.66ZM302.669 146.79C302.039 145.62 301.229 144.72 300.059 144.09C298.979 143.46 297.719 143.1 296.189 143.1C294.749 143.1 293.489 143.46 292.319 144.09C291.239 144.72 290.339 145.62 289.709 146.79C289.079 147.87 288.809 149.22 288.809 150.66C288.809 152.1 289.169 153.36 289.709 154.53C290.339 155.7 291.149 156.6 292.319 157.23C293.399 157.86 294.749 158.22 296.189 158.22C297.629 158.22 298.889 157.86 300.059 157.23C301.139 156.6 302.039 155.7 302.669 154.53C303.299 153.45 303.569 152.1 303.569 150.66C303.569 149.22 303.209 147.96 302.669 146.79ZM296.279 155.07C295.379 155.07 294.659 154.89 294.029 154.53C293.399 154.17 292.949 153.63 292.589 153C292.229 152.37 292.049 151.56 292.049 150.66C292.049 149.76 292.229 149.04 292.589 148.32C292.949 147.69 293.399 147.15 294.029 146.79C294.659 146.43 295.379 146.25 296.279 146.25C297.179 146.25 297.899 146.43 298.529 146.79C299.159 147.15 299.609 147.69 299.969 148.32C300.329 149.04 300.509 149.76 300.509 150.66C300.509 151.56 300.329 152.28 299.969 153C299.609 153.63 299.159 154.17 298.529 154.53C297.899 154.89 297.089 155.07 296.279 155.07Z" fill="white"/>
<path d="M201.958 218.52C211.005 218.52 218.338 211.186 218.338 202.14C218.338 193.094 211.005 185.76 201.958 185.76C192.912 185.76 185.578 193.094 185.578 202.14C185.578 211.186 192.912 218.52 201.958 218.52Z" fill="#FED7DE"/>
<path d="M198.001 208.89L194.401 205.29C193.861 204.75 193.861 203.94 194.401 203.4C194.941 202.86 195.751 202.86 196.291 203.4L198.901 206.01L208.351 196.56C208.891 196.02 209.701 196.02 210.241 196.56C210.781 197.1 210.781 197.91 210.241 198.45L199.801 208.89C199.441 209.43 198.541 209.43 198.001 208.89Z" fill="white"/>
<path d="M295.381 191.43V198.63C295.381 199.26 294.841 199.71 294.301 199.71H229.771C229.141 199.71 228.691 199.17 228.691 198.63V191.43C228.691 190.8 229.231 190.26 229.861 190.26H294.301C294.931 190.35 295.381 190.8 295.381 191.43ZM229.321 204.57H355.411V207.27H229.321V204.57ZM229.321 211.23H293.401V213.93H229.321V211.23ZM299.161 211.23H304.021V213.93H299.161V211.23ZM309.331 211.23H318.601V213.93H309.331V211.23Z" fill="#FED7DE"/>
<path d="M201.958 259.56C211.005 259.56 218.338 252.226 218.338 243.18C218.338 234.134 211.005 226.8 201.958 226.8C192.912 226.8 185.578 234.134 185.578 243.18C185.578 252.226 192.912 259.56 201.958 259.56Z" fill="#F81F8B"/>
<path d="M198.001 249.93L194.401 246.33C193.861 245.79 193.861 244.98 194.401 244.44C194.941 243.9 195.751 243.9 196.291 244.44L198.901 247.05L208.351 237.6C208.891 237.06 209.701 237.06 210.241 237.6C210.781 238.14 210.781 238.95 210.241 239.49L199.801 249.93C199.441 250.47 198.541 250.47 198.001 249.93Z" fill="white"/>
<path d="M295.381 232.47V239.67C295.381 240.3 294.841 240.75 294.301 240.75H229.771C229.141 240.75 228.691 240.21 228.691 239.67V232.47C228.691 231.84 229.231 231.3 229.861 231.3H294.301C294.931 231.39 295.381 231.84 295.381 232.47ZM229.321 245.61H355.411V248.31H229.321V245.61ZM229.321 252.27H293.401V254.97H229.321V252.27ZM299.161 252.27H304.021V254.97H299.161V252.27ZM309.331 252.27H318.601V254.97H309.331V252.27Z" fill="#FED7DE"/>
<path d="M201.958 300.6C211.005 300.6 218.338 293.266 218.338 284.22C218.338 275.174 211.005 267.84 201.958 267.84C192.912 267.84 185.578 275.174 185.578 284.22C185.578 293.266 192.912 300.6 201.958 300.6Z" fill="#FED7DE"/>
<path d="M198.001 290.97L194.401 287.37C193.861 286.83 193.861 286.02 194.401 285.48C194.941 284.94 195.751 284.94 196.291 285.48L198.901 288.09L208.351 278.64C208.891 278.1 209.701 278.1 210.241 278.64C210.781 279.18 210.781 279.99 210.241 280.53L199.801 290.97C199.441 291.51 198.541 291.51 198.001 290.97Z" fill="white"/>
<path d="M295.381 273.51V280.71C295.381 281.34 294.841 281.79 294.301 281.79H229.771C229.141 281.79 228.691 281.25 228.691 280.71V273.51C228.691 272.88 229.231 272.34 229.861 272.34H294.301C294.931 272.43 295.381 272.88 295.381 273.51ZM229.321 286.65H355.411V289.35H229.321V286.65ZM229.321 293.4H293.401V296.1H229.321V293.4ZM299.161 293.4H304.021V296.1H299.161V293.4ZM309.331 293.4H318.601V296.1H309.331V293.4Z" fill="#FED7DE"/>
<path d="M201.958 341.64C211.005 341.64 218.338 334.306 218.338 325.26C218.338 316.213 211.005 308.88 201.958 308.88C192.912 308.88 185.578 316.213 185.578 325.26C185.578 334.306 192.912 341.64 201.958 341.64Z" fill="#FED7DE"/>
<path d="M198.001 332.01L194.401 328.41C193.861 327.87 193.861 327.06 194.401 326.52C194.941 325.98 195.751 325.98 196.291 326.52L198.901 329.13L208.351 319.68C208.891 319.14 209.701 319.14 210.241 319.68C210.781 320.22 210.781 321.03 210.241 321.57L199.801 332.01C199.441 332.55 198.541 332.55 198.001 332.01Z" fill="white"/>
<path d="M295.381 314.55V321.75C295.381 322.38 294.841 322.83 294.301 322.83H229.771C229.141 322.83 228.691 322.29 228.691 321.75V314.55C228.691 313.92 229.231 313.38 229.861 313.38H294.301C294.931 313.47 295.381 313.92 295.381 314.55ZM229.321 327.69H355.411V330.39H229.321V327.69ZM229.321 334.44H293.401V337.14H229.321V334.44ZM299.161 334.44H304.021V337.14H299.161V334.44ZM309.331 334.44H318.601V337.14H309.331V334.44Z" fill="#FED7DE"/>
<path d="M466.469 383.04L450.899 292.68L437.669 383.04H425.699L421.199 263.52H480.149C482.129 267.93 480.149 365.13 478.349 383.31L466.469 383.04Z" fill="#060405"/>
<path d="M497.248 251.82C503.908 244.71 495.178 213.48 495.178 213.48L478.078 227.25L479.698 235.44" fill="white"/>
<path d="M496.979 251.55C502.829 245.25 496.169 218.79 494.909 214.29L478.619 227.43L480.149 235.35C480.239 235.62 480.059 235.8 479.789 235.89C479.519 235.98 479.339 235.8 479.249 235.53L477.629 227.34C477.629 227.16 477.629 226.98 477.809 226.89L494.909 213.12C494.999 213.03 495.179 213.03 495.359 213.03C495.539 213.12 495.629 213.21 495.629 213.3C495.989 214.56 504.359 244.89 497.609 252.09C497.159 252.54 496.529 251.91 496.979 251.55Z" fill="#060405"/>
<path d="M411.029 239.76L427.139 232.83L435.329 215.46L413.189 206.37C413.189 206.37 414.359 214.65 410.219 219.51C406.079 224.37 401.669 230.67 401.309 230.58C400.589 230.31 411.029 239.76 411.029 239.76Z" fill="white"/>
<path d="M411.03 240.21C410.94 240.21 410.85 240.21 410.76 240.12C400.59 230.94 400.68 230.76 400.95 230.4C401.04 230.31 401.13 230.22 401.22 230.22C402.03 229.5 406.17 223.74 409.86 219.33C413.82 214.65 412.74 206.64 412.74 206.55C412.74 206.37 412.74 206.19 412.92 206.1C413.01 206.01 413.19 206.01 413.37 206.01L435.51 215.1L435.78 215.37V215.73L427.59 233.1C427.5 233.19 427.5 233.28 427.32 233.28L411.21 240.21C411.12 240.12 411.03 240.21 411.03 240.21ZM401.94 230.67C403.11 231.93 407.88 236.34 411.12 239.22L426.78 232.47L434.7 215.64L413.73 207.09C413.91 209.25 414.09 215.73 410.58 219.87C406.98 223.92 403.02 229.5 401.94 230.67Z" fill="#060405"/>
<path d="M479.43 228.96C478.71 229.05 477.99 229.05 477.36 229.14L480.96 270.09C480.96 275.67 420.57 275.67 420.57 270.09L422.91 222.03V221.94C422.91 221.94 410.76 213.48 409.41 203.67C412.65 198.54 423 184.5 439.29 179.64C442.44 178.74 445.86 178.11 449.46 178.02C453.87 177.93 458.1 178.56 462.06 179.73C465.21 180.63 468.18 181.98 470.97 183.51C489.87 193.95 499.41 217.8 499.41 217.8C499.41 217.8 499.59 217.17 497.7 219.06C494.28 222.48 488.16 227.52 480.6 228.87C480.15 228.87 479.79 228.87 479.43 228.96Z" fill="#FE6021"/>
<path d="M470.879 183.51C490.409 194.31 500.219 218.79 500.219 218.79C500.219 218.79 500.399 218.16 498.419 220.14C494.909 223.65 488.519 228.87 480.779 230.22C480.419 230.31 480.059 230.31 479.699 230.4C478.979 230.49 478.259 230.58 477.539 230.58" fill="#FE6021"/>
<path d="M477.541 231.03C477.361 231.03 477.181 230.94 477.091 230.76L471.241 213.12C471.151 212.85 471.331 212.67 471.511 212.58C471.781 212.49 471.961 212.67 472.051 212.85L477.901 230.49C477.991 230.76 477.811 230.94 477.631 231.03H477.541ZM422.821 222.48C422.551 222.48 422.371 222.21 422.371 221.94L424.081 210.42C424.081 210.15 424.351 209.97 424.621 210.06C424.891 210.06 425.071 210.33 424.981 210.6L423.271 222.12C423.271 222.3 423.091 222.48 422.821 222.48Z" fill="black"/>
<path d="M458.012 178.74C458.012 178.74 453.242 186.75 440.552 190.17L439.922 179.55C439.922 179.55 441.182 174.24 441.542 169.65C441.902 165.24 452.072 155.61 452.702 154.98C453.332 154.35 453.062 161.82 454.682 168.66C455.672 172.35 456.212 176.04 458.012 178.74Z" fill="white"/>
<path d="M440.279 190.53C439.919 190.26 440.189 190.62 439.469 179.64V179.55C439.469 179.46 440.729 174.24 441.089 169.74C441.539 164.88 452.339 154.89 452.429 154.8C452.519 154.71 452.519 154.71 452.609 154.71H452.879C453.059 154.8 453.149 154.89 453.149 155.07C453.149 155.16 453.509 161.91 455.129 168.66C455.309 169.38 455.489 170.1 455.579 170.73C456.209 173.61 456.839 176.4 458.279 178.47C458.369 178.65 458.369 178.83 458.279 178.92C458.099 179.28 453.239 187.11 440.549 190.53C440.549 190.62 440.459 190.62 440.279 190.53ZM440.369 179.64L440.999 189.63C451.799 186.57 456.659 180.09 457.469 178.83C456.029 176.67 455.489 173.88 454.769 171C454.589 170.28 454.409 169.56 454.319 168.93C453.059 163.62 452.519 158.22 452.339 156.06C449.909 158.4 442.259 166.14 441.899 169.83C441.629 173.97 440.549 179.01 440.369 179.64Z" fill="#060405"/>
<path d="M453.241 157.05C453.241 157.05 453.601 174.06 440.101 175.5C424.621 177.12 430.561 145.8 430.561 145.8L440.641 137.88L452.521 140.49L457.921 148.5L453.241 157.05Z" fill="white"/>
<path d="M432.99 173.43C426.42 166.23 430.02 146.52 430.2 145.71C430.2 145.62 430.29 145.53 430.38 145.44L440.46 137.52C440.55 137.43 440.73 137.43 440.82 137.43L452.7 140.04C452.79 140.04 452.88 140.13 452.97 140.22L458.37 148.23C458.46 148.41 458.46 148.59 458.37 148.68L453.69 157.05C453.69 158.67 453.24 174.42 440.1 175.77C437.4 176.22 434.88 175.5 432.99 173.43ZM431.01 146.07C430.65 148.05 427.59 166.32 433.62 172.8C435.24 174.51 437.4 175.32 440.1 175.05C453.06 173.7 452.88 157.23 452.88 157.05C452.88 156.96 452.88 156.87 452.97 156.78L457.56 148.59L452.43 140.94L440.91 138.42L431.01 146.07Z" fill="#060405"/>
<path d="M463.499 152.19C466.739 155.52 461.609 167.76 454.769 168.66C453.149 161.82 452.429 154.98 452.429 154.98C452.429 154.98 450.359 151.11 450.269 151.02C450.179 151.02 447.299 149.31 447.839 146.88C448.379 144.45 447.209 144.9 445.229 145.17C442.079 145.53 426.959 152.37 424.259 146.16C418.319 132.57 439.199 131.13 447.299 132.75C455.399 134.37 457.469 136.62 461.609 140.85C463.229 142.47 460.259 149.04 463.499 152.19Z" fill="#060405"/>
<path d="M433.262 156.06C433.262 156.87 433.712 157.5 434.162 157.5C434.702 157.5 435.062 156.87 435.062 156.06C435.062 155.25 434.612 154.62 434.162 154.62C433.712 154.62 433.262 155.25 433.262 156.06ZM441.452 156.6C441.452 157.41 441.902 158.04 442.352 158.04C442.892 158.04 443.252 157.41 443.252 156.6C443.252 155.79 442.802 155.16 442.352 155.16C441.902 155.16 441.452 155.79 441.452 156.6Z" fill="#060405"/>
<path d="M438.302 164.07L436.592 162.45C436.412 162.27 435.872 161.82 436.052 161.19C436.232 160.65 436.862 160.56 437.042 160.38C437.312 160.2 437.402 159.75 437.492 159.21L437.852 155.97C437.852 155.7 438.122 155.52 438.392 155.61C438.662 155.61 438.842 155.88 438.752 156.15L438.392 159.39C438.302 159.84 438.212 160.74 437.492 161.19C437.402 161.28 436.862 161.46 436.862 161.55C436.862 161.55 436.862 161.64 437.132 161.82L438.842 163.44C439.022 163.62 439.022 163.89 438.842 164.07C438.752 164.25 438.482 164.25 438.302 164.07ZM438.302 168.93C438.122 168.75 438.122 168.48 438.212 168.3C438.392 168.12 438.662 168.12 438.842 168.21C439.652 168.93 440.912 168.93 441.722 168.12C441.902 167.94 442.172 167.94 442.352 168.12C442.532 168.3 442.532 168.57 442.352 168.75C441.272 169.92 439.472 170.01 438.302 168.93ZM446.582 196.38C444.962 195.39 440.462 190.62 440.282 190.44C440.102 190.26 440.102 189.99 440.282 189.81C440.462 189.63 440.732 189.63 440.912 189.81C441.002 189.9 445.502 194.67 447.032 195.57C448.472 196.38 448.922 196.29 449.822 194.94L455.492 186.21C455.672 186.03 455.942 185.94 456.122 186.12C456.302 186.3 456.392 186.57 456.212 186.75L450.542 195.48C449.462 197.19 448.472 197.55 446.582 196.38Z" fill="black"/>
<path d="M435.241 192.51C433.351 192.15 432.991 190.98 433.801 189.27L436.231 184.32C436.321 184.14 436.591 183.96 436.861 184.14C437.041 184.23 437.221 184.5 437.041 184.77L434.611 189.72C433.891 191.16 434.341 191.52 435.421 191.7C436.411 191.88 438.931 190.62 440.371 189.81C440.551 189.72 440.821 189.72 441.001 189.99C441.091 190.17 441.091 190.44 440.821 190.62C439.651 191.25 436.681 192.78 435.241 192.51Z" fill="black"/>
<path d="M465.93 385.11V383.04H478.44C478.62 387.09 478.89 394.74 478.98 394.74H458.73C458.01 387.99 465.93 385.11 465.93 385.11Z" fill="#FE6021"/>
<path d="M458.909 391.77C458.639 392.67 458.549 393.57 458.639 394.65H478.889C478.889 394.65 478.799 393.48 478.709 391.77H458.909Z" fill="#060405"/>
<path d="M425.25 385.11V383.04H437.76C437.94 387.09 438.21 394.74 438.3 394.74H418.05C417.33 387.99 425.25 385.11 425.25 385.11Z" fill="#FE6021"/>
<path d="M418.319 391.77C418.049 392.67 417.959 393.57 418.049 394.65H438.299C438.299 394.65 438.209 393.48 438.119 391.77H418.319Z" fill="#060405"/>
<path d="M361.426 206.911L383.38 186.115L453.69 260.341L431.736 281.137L361.426 206.911Z" fill="#1AC1C1"/>
<path d="M383.401 186.12L361.441 206.91L357.211 187.92L355.141 178.2L364.591 180.9L383.401 186.12Z" fill="#1AC1C1"/>
<path d="M364.591 180.9L357.211 187.92L355.141 178.2L364.591 180.9Z" fill="#060405"/>
<path d="M431.703 281.077L453.657 260.281L458.052 264.92L436.098 285.716L431.703 281.077Z" fill="#060405"/>
<path d="M466.291 281.07L451.801 294.84C449.731 296.82 446.491 296.73 444.511 294.66L436.051 285.75L458.011 264.96L466.471 273.87C468.451 275.85 468.361 279.18 466.291 281.07Z" fill="#F81F8B"/>
<path opacity="0.05" d="M361.438 206.854L367.906 200.726L438.216 274.952L431.748 281.08L361.438 206.854Z" fill="black"/>
<path opacity="0.1" d="M376.828 192.238L383.297 186.11L453.607 260.337L447.138 266.464L376.828 192.238Z" fill="white"/>
<path d="M479.698 235.44L436.588 239.67C436.588 239.67 435.688 233.82 433.348 235.26C431.008 236.61 433.348 238.59 433.348 238.59C433.348 238.59 420.028 238.68 423.538 247.14C427.048 255.51 439.558 250.47 439.558 250.47C439.558 250.47 486.898 263.07 497.338 251.91" fill="white"/>
<path d="M479.521 256.95C462.961 256.95 441.721 251.46 439.471 250.92C438.031 251.46 426.421 255.51 423.001 247.32C422.101 245.25 422.191 243.45 423.181 241.92C425.161 238.95 430.201 238.32 432.361 238.14C432.091 237.69 431.821 237.15 431.821 236.52C431.911 235.8 432.271 235.26 433.081 234.81C433.801 234.45 434.341 234.54 434.701 234.72C436.051 235.35 436.771 238.05 436.951 239.22L479.701 235.08C479.971 235.08 480.151 235.26 480.151 235.44C480.151 235.71 479.971 235.89 479.791 235.89L436.681 240.12C436.411 240.12 436.231 239.94 436.231 239.76C436.051 238.32 435.331 235.98 434.341 235.53C434.161 235.44 433.981 235.44 433.621 235.62C433.081 235.89 432.811 236.25 432.811 236.61C432.721 237.24 433.441 238.05 433.711 238.23C433.891 238.32 433.891 238.59 433.801 238.77C433.711 238.95 433.531 239.04 433.351 239.04C433.261 239.04 426.151 239.13 423.991 242.46C423.181 243.63 423.181 245.16 423.901 246.96C427.231 254.88 439.201 250.11 439.291 250.02H439.561C440.011 250.11 486.811 262.44 496.891 251.55C497.071 251.37 497.341 251.37 497.521 251.55C497.701 251.73 497.701 252 497.521 252.18C494.281 255.69 487.441 256.95 479.521 256.95Z" fill="#060405"/>
<path opacity="0.05" d="M182.788 344.16C182.788 355.23 179.458 365.58 173.698 374.13H169.648C164.698 374.13 160.648 370.08 160.648 365.13V300.6C174.058 310.41 182.788 326.25 182.788 344.16Z" fill="black"/>
<path d="M128.61 394.11C156.197 394.11 178.56 371.747 178.56 344.16C178.56 316.573 156.197 294.21 128.61 294.21C101.024 294.21 78.6602 316.573 78.6602 344.16C78.6602 371.747 101.024 394.11 128.61 394.11Z" fill="#F6CC61"/>
<path d="M128.611 383.58C150.382 383.58 168.031 365.931 168.031 344.16C168.031 322.389 150.382 304.74 128.611 304.74C106.84 304.74 89.1914 322.389 89.1914 344.16C89.1914 365.931 106.84 383.58 128.611 383.58Z" fill="white"/>
<path opacity="0.1" d="M157.861 370.53C150.661 378.54 140.221 383.58 128.611 383.58C106.831 383.58 89.1914 365.94 89.1914 344.16C89.1914 333.09 93.7814 323.01 101.161 315.9C94.8614 322.92 90.9914 332.1 90.9914 342.27C90.9914 364.05 108.631 381.69 130.411 381.69C141.121 381.69 150.751 377.46 157.861 370.53Z" fill="black"/>
<path d="M130.592 313.29C130.592 314.37 129.692 315.27 128.612 315.27C127.532 315.27 126.632 314.37 126.632 313.29C126.632 312.21 127.532 311.31 128.612 311.31C129.782 311.31 130.592 312.21 130.592 313.29ZM130.592 375.03C130.592 376.11 129.692 377.01 128.612 377.01C127.532 377.01 126.632 376.11 126.632 375.03C126.632 373.95 127.532 373.05 128.612 373.05C129.782 373.05 130.592 373.95 130.592 375.03ZM108.182 320.94C108.992 321.75 108.992 323.01 108.182 323.73C107.372 324.45 106.112 324.54 105.392 323.73C104.582 322.92 104.582 321.66 105.392 320.94C106.202 320.13 107.462 320.13 108.182 320.94ZM151.832 364.59C152.642 365.4 152.642 366.66 151.832 367.38C151.022 368.19 149.762 368.19 149.042 367.38C148.232 366.57 148.232 365.31 149.042 364.59C149.852 363.87 151.112 363.87 151.832 364.59ZM97.7417 342.18C98.8217 342.18 99.7217 343.08 99.7217 344.16C99.7217 345.24 98.8217 346.14 97.7417 346.14C96.6617 346.14 95.7617 345.24 95.7617 344.16C95.7617 343.08 96.6617 342.18 97.7417 342.18ZM159.482 342.18C160.562 342.18 161.462 343.08 161.462 344.16C161.462 345.24 160.562 346.14 159.482 346.14C158.402 346.14 157.502 345.24 157.502 344.16C157.502 343.08 158.402 342.18 159.482 342.18ZM105.392 364.59C106.202 363.78 107.462 363.78 108.182 364.59C108.902 365.4 108.992 366.66 108.182 367.38C107.372 368.19 106.112 368.19 105.392 367.38C104.582 366.66 104.582 365.4 105.392 364.59ZM149.042 320.94C149.852 320.13 151.112 320.13 151.832 320.94C152.642 321.75 152.642 323.01 151.832 323.73C151.022 324.54 149.762 324.54 149.042 323.73C148.322 322.92 148.232 321.75 149.042 320.94ZM139.772 356.85L127.262 344.25V321.93C127.262 321.21 127.892 320.58 128.612 320.58C129.332 320.58 129.962 321.21 129.962 321.93V343.17L141.662 355.05C142.202 355.59 142.202 356.4 141.662 356.94C141.212 357.39 140.312 357.39 139.772 356.85Z" fill="#060405"/>
<path d="M128.612 350.1C131.892 350.1 134.552 347.441 134.552 344.16C134.552 340.879 131.892 338.22 128.612 338.22C125.331 338.22 122.672 340.879 122.672 344.16C122.672 347.441 125.331 350.1 128.612 350.1Z" fill="#060405"/>
<path d="M128.611 347.22C130.301 347.22 131.671 345.85 131.671 344.16C131.671 342.47 130.301 341.1 128.611 341.1C126.921 341.1 125.551 342.47 125.551 344.16C125.551 345.85 126.921 347.22 128.611 347.22Z" fill="white"/>
<path d="M136.89 204.93H54.1805C51.4805 204.93 49.2305 202.68 49.2305 199.98V109.8C49.2305 107.1 51.4805 104.85 54.1805 104.85H136.89C139.59 104.85 141.84 107.1 141.84 109.8V199.98C141.84 202.77 139.59 204.93 136.89 204.93Z" fill="#FA58E0"/>
<path d="M133.562 142.2V114.12C133.562 113.67 133.202 113.22 132.662 113.22H58.4117C57.9617 113.22 57.5117 113.58 57.5117 114.12V142.2C57.5117 142.65 57.8717 143.1 58.4117 143.1H132.752C133.202 143.1 133.562 142.65 133.562 142.2ZM57.5117 154.17V195.75C57.5117 196.2 57.8717 196.65 58.4117 196.65H132.752C133.202 196.65 133.652 196.29 133.652 195.75V154.17C133.652 153.72 133.292 153.27 132.752 153.27H58.4117C57.8717 153.27 57.5117 153.72 57.5117 154.17Z" fill="white"/>
<path d="M63.1797 118.62H83.3397V120.15H63.1797V118.62ZM89.0997 118.62H129.51V120.15H89.0997V118.62ZM63.1797 122.85H101.34V124.38H63.1797V122.85ZM103.41 122.85H129.51V124.38H103.41V122.85ZM63.1797 127.17H78.7497V128.7H63.1797V127.17ZM82.4397 127.17H129.51V128.7H82.4397V127.17ZM63.1797 131.4H109.98V132.93H63.1797V131.4ZM114.48 131.4H129.51V132.93H114.48V131.4ZM63.1797 135.72H79.8297V137.25H63.1797V135.72ZM85.4097 135.72H92.5197V137.25H85.4097V135.72ZM95.5797 135.72H105.12V137.25H95.5797V135.72ZM63.1797 158.85H83.3397V161.28H63.1797V158.85ZM89.0997 158.85H129.51V161.28H89.0997V158.85ZM63.1797 165.51H101.34V167.94H63.1797V165.51ZM103.41 165.51H129.51V167.94H103.41V165.51ZM63.1797 172.26H78.7497V174.69H63.1797V172.26ZM82.4397 172.26H129.51V174.69H82.4397V172.26ZM63.1797 179.01H109.98V181.44H63.1797V179.01ZM114.48 179.01H129.51V181.44H114.48V179.01ZM63.1797 185.76H79.8297V188.19H63.1797V185.76ZM85.4097 185.76H92.5197V188.19H85.4097V185.76ZM95.5797 185.76H105.12V188.19H95.5797V185.76Z" fill="#86E9DC"/>
<path d="M435.961 113.85C429.931 115.74 423.631 114.75 418.681 111.6L421.831 107.46C421.741 107.37 420.301 106.29 420.391 106.38L417.241 110.61C414.001 108.18 411.571 104.76 410.221 100.62C406.801 89.8199 412.741 78.2999 423.541 74.7899C434.341 71.3699 445.861 77.3099 449.371 88.1099C452.701 98.8199 446.761 110.43 435.961 113.85Z" fill="#060405"/>
<path d="M423.99 100.44L420.57 97.0201C419.67 96.1201 419.67 94.7701 420.57 93.8701C421.47 92.9701 422.82 92.9701 423.72 93.8701L425.61 95.7601L433.98 87.3901C434.88 86.4901 436.23 86.4901 437.13 87.3901C438.03 88.2901 438.03 89.6401 437.13 90.5401L427.23 100.44C426.24 101.25 424.89 101.25 423.99 100.44Z" fill="white"/>
<path d="M408.781 119.34L409.951 120.24L420.661 105.84L419.491 104.94L408.781 119.34Z" fill="#060405"/>
<path d="M112.771 265.68H79.9213C79.7413 265.68 79.5613 265.5 79.5613 265.32C79.5613 265.14 79.7413 264.96 79.9213 264.96H112.771C112.951 264.96 113.131 265.14 113.131 265.32C113.131 265.5 112.951 265.68 112.771 265.68ZM112.771 281.97H79.9213C79.7413 281.97 79.5613 281.79 79.5613 281.61C79.5613 281.43 79.7413 281.25 79.9213 281.25H112.771C112.951 281.25 113.131 281.43 113.131 281.61C113.131 281.79 112.951 281.97 112.771 281.97ZM106.831 273.87H60.3913C60.2113 273.87 60.0312 273.69 60.0312 273.51C60.0312 273.33 60.2113 273.15 60.3913 273.15H106.831C107.011 273.15 107.191 273.33 107.191 273.51C107.191 273.69 107.011 273.87 106.831 273.87Z" fill="#25E498"/>
<path d="M86.7584 265.68C86.5784 265.68 86.3984 265.5 86.3984 265.32V258.39C86.3984 258.21 86.5784 258.03 86.7584 258.03C86.9384 258.03 87.1184 258.21 87.1184 258.39V265.32C87.0284 265.5 86.9384 265.68 86.7584 265.68ZM98.2784 273.87C98.0984 273.87 97.9184 273.69 97.9184 273.51V265.41C97.9184 265.23 98.0984 265.05 98.2784 265.05C98.4584 265.05 98.6384 265.23 98.6384 265.41V273.51C98.6384 273.69 98.4584 273.87 98.2784 273.87ZM89.4584 281.7C89.2784 281.7 89.0984 281.52 89.0984 281.34V273.51C89.0984 273.33 89.2784 273.15 89.4584 273.15C89.6384 273.15 89.8184 273.33 89.8184 273.51V281.34C89.8184 281.52 89.6384 281.7 89.4584 281.7Z" fill="#25E498"/>
<rect width="91" height="24" transform="translate(225 139)" fill="#060405"/>
<path d="M236.138 158V144.909H241.303C242.295 144.909 243.141 145.099 243.84 145.478C244.539 145.853 245.072 146.375 245.438 147.044C245.809 147.709 245.994 148.476 245.994 149.345C245.994 150.214 245.807 150.982 245.432 151.646C245.057 152.311 244.513 152.829 243.802 153.2C243.094 153.57 242.238 153.756 241.232 153.756H237.94V151.538H240.785C241.317 151.538 241.756 151.446 242.102 151.263C242.451 151.075 242.711 150.817 242.881 150.489C243.056 150.157 243.143 149.776 243.143 149.345C243.143 148.911 243.056 148.531 242.881 148.207C242.711 147.879 242.451 147.626 242.102 147.447C241.752 147.263 241.309 147.172 240.772 147.172H238.906V158H236.138ZM248.537 158H245.571L250.09 144.909H253.657L258.17 158H255.204L251.925 147.901H251.822L248.537 158ZM248.351 152.854H255.357V155.015H248.351V152.854ZM259.745 158V144.909H264.91C265.899 144.909 266.742 145.086 267.441 145.44C268.144 145.789 268.679 146.286 269.046 146.929C269.416 147.568 269.602 148.32 269.602 149.185C269.602 150.055 269.414 150.803 269.039 151.429C268.664 152.051 268.121 152.528 267.409 152.861C266.702 153.193 265.845 153.359 264.84 153.359H261.382V151.135H264.392C264.921 151.135 265.36 151.062 265.709 150.918C266.058 150.773 266.318 150.555 266.489 150.266C266.664 149.976 266.751 149.616 266.751 149.185C266.751 148.751 266.664 148.384 266.489 148.086C266.318 147.788 266.056 147.562 265.703 147.408C265.353 147.251 264.912 147.172 264.379 147.172H262.513V158H259.745ZM266.815 152.043L270.068 158H267.013L263.83 152.043H266.815ZM278.659 148.674C278.608 148.158 278.389 147.758 278.001 147.472C277.613 147.187 277.087 147.044 276.422 147.044C275.97 147.044 275.589 147.108 275.278 147.236C274.967 147.359 274.728 147.532 274.562 147.754C274.4 147.975 274.319 148.227 274.319 148.508C274.311 148.742 274.36 148.947 274.466 149.121C274.577 149.296 274.728 149.447 274.92 149.575C275.112 149.699 275.333 149.808 275.585 149.901C275.836 149.991 276.105 150.067 276.39 150.131L277.566 150.413C278.137 150.54 278.661 150.711 279.139 150.924C279.616 151.137 280.029 151.399 280.379 151.71C280.728 152.021 280.999 152.388 281.191 152.81C281.387 153.232 281.487 153.715 281.491 154.261C281.487 155.062 281.282 155.756 280.877 156.344C280.477 156.928 279.897 157.382 279.139 157.706C278.384 158.026 277.475 158.185 276.409 158.185C275.352 158.185 274.432 158.023 273.648 157.7C272.868 157.376 272.259 156.896 271.82 156.261C271.385 155.622 271.157 154.832 271.136 153.89H273.814C273.844 154.329 273.97 154.695 274.191 154.989C274.417 155.279 274.718 155.499 275.093 155.648C275.472 155.793 275.9 155.865 276.377 155.865C276.846 155.865 277.253 155.797 277.598 155.661C277.948 155.524 278.218 155.335 278.41 155.092C278.602 154.849 278.698 154.57 278.698 154.254C278.698 153.96 278.61 153.713 278.436 153.513C278.265 153.312 278.014 153.142 277.681 153.001C277.353 152.861 276.95 152.733 276.473 152.618L275.048 152.26C273.944 151.991 273.073 151.572 272.433 151.001C271.794 150.43 271.477 149.661 271.481 148.693C271.477 147.901 271.688 147.208 272.114 146.616C272.544 146.023 273.134 145.561 273.884 145.229C274.634 144.896 275.487 144.73 276.441 144.73C277.413 144.73 278.261 144.896 278.985 145.229C279.714 145.561 280.281 146.023 280.686 146.616C281.09 147.208 281.299 147.894 281.312 148.674H278.659ZM283.353 158V144.909H292.174V147.191H286.12V150.31H291.72V152.592H286.12V155.718H292.199V158H283.353ZM294.374 158V144.909H299.539C300.528 144.909 301.371 145.086 302.07 145.44C302.773 145.789 303.308 146.286 303.675 146.929C304.045 147.568 304.231 148.32 304.231 149.185C304.231 150.055 304.043 150.803 303.668 151.429C303.293 152.051 302.75 152.528 302.038 152.861C301.331 153.193 300.474 153.359 299.469 153.359H296.01V151.135H299.021C299.55 151.135 299.988 151.062 300.338 150.918C300.687 150.773 300.947 150.555 301.118 150.266C301.292 149.976 301.38 149.616 301.38 149.185C301.38 148.751 301.292 148.384 301.118 148.086C300.947 147.788 300.685 147.562 300.331 147.408C299.982 147.251 299.541 147.172 299.008 147.172H297.142V158H294.374ZM301.444 152.043L304.697 158H301.642L298.459 152.043H301.444Z" fill="white"/>
</svg>
