<svg width="540" height="450" viewBox="0 0 540 450" fill="none" xmlns="http://www.w3.org/2000/svg">
<path opacity="0.3" d="M490.231 248.85C484.021 233.64 472.591 213.66 456.481 206.1C430.471 193.86 404.911 179.55 384.481 158.85C361.891 135.9 342.181 110.07 317.611 89.2801C293.131 68.4901 262.171 52.8301 230.311 55.5301C208.261 57.4201 166.951 56.9701 137.431 56.2501C97.3808 55.3501 63.7208 86.4901 61.8308 126.54C58.8608 188.55 94.1408 233.82 85.0508 268.65C79.9208 288.27 41.3108 308.88 40.6808 336.42C40.1408 358.11 50.2208 379.71 66.9608 394.92L427.411 395.73C451.891 384.3 472.501 365.76 484.831 343.17C500.581 314.1 502.561 279.09 490.231 248.85Z" fill="#86E9DC"/>
<path d="M405.721 58.77V245.97C405.721 248.4 403.741 250.29 401.401 250.29H129.961C127.531 250.29 125.641 248.31 125.641 245.97V58.77C125.641 56.34 127.621 54.45 129.961 54.45H401.311C403.741 54.36 405.721 56.34 405.721 58.77Z" fill="#4DD172"/>
<path d="M134.551 239.67V64.9801C134.551 64.0801 135.271 63.3601 136.171 63.3601H395.101C396.001 63.3601 396.721 64.0801 396.721 64.9801V239.76C396.721 240.66 396.001 241.38 395.101 241.38H136.171C135.271 241.38 134.551 240.57 134.551 239.67Z" fill="white"/>
<path d="M312.122 154.17H388.892V164.97H312.122V154.17ZM315.362 170.55H385.832V172.62H315.362V170.55ZM315.362 176.85H385.832V178.92H315.362V176.85ZM315.362 183.15H385.832V185.22H315.362V183.15ZM315.362 189.36H385.832V191.43H315.362V189.36ZM315.362 195.66H385.832V197.73H315.362V195.66ZM315.362 201.96H385.832V204.03H315.362V201.96ZM315.362 208.26H385.832V210.33H315.362V208.26ZM315.362 214.47H385.832V216.54H315.362V214.47ZM290.342 157.23H149.582C147.242 157.23 145.262 155.34 145.262 152.91V80.0099C145.262 77.6699 147.152 75.6899 149.582 75.6899H290.342C292.682 75.6899 294.662 77.5799 294.662 80.0099V152.91C294.662 155.25 292.682 157.23 290.342 157.23Z" fill="#FFC2C2"/>
<path d="M186.93 100.08V89.1899C196.29 90.0899 204.12 95.5799 208.35 103.32C205.92 104.4 203.13 105.48 200.34 106.65C199.62 106.92 198.9 107.28 198.18 107.55C195.75 103.68 191.7 100.89 186.93 100.08Z" fill="#F81F8B"/>
<path d="M181.622 89.1899V100.17C174.152 101.43 168.212 107.64 167.762 115.56C167.222 124.11 173.342 131.58 181.622 132.93V143.91C166.952 142.47 155.972 129.78 156.872 114.93C157.682 101.16 168.302 90.4499 181.622 89.1899Z" fill="#FE6021"/>
<path d="M211.68 118.08C210.87 131.76 200.16 142.47 186.93 143.73V132.75C194.4 131.49 200.34 125.28 200.79 117.36C200.88 115.65 200.7 113.94 200.34 112.41C203.58 111.06 207 109.62 210.42 108.18C211.41 111.33 211.86 114.66 211.68 118.08Z" fill="#1AC1C1"/>
<path d="M233.909 103.86H224.639C223.829 103.86 223.109 103.14 223.109 102.33V93.06C223.109 92.25 223.829 91.53 224.639 91.53H233.909C234.719 91.53 235.439 92.25 235.439 93.06V102.33C235.439 103.23 234.809 103.86 233.909 103.86ZM240.659 93.87H284.669V96.39H240.659V93.87ZM240.659 99.09H264.779V101.61H240.659V99.09ZM233.909 122.67H224.639C223.829 122.67 223.109 121.95 223.109 121.14V111.87C223.109 111.06 223.829 110.34 224.639 110.34H233.909C234.719 110.34 235.439 111.06 235.439 111.87V121.14C235.439 121.95 234.809 122.67 233.909 122.67ZM240.659 112.59H284.669V115.11H240.659V112.59ZM240.659 117.9H264.779V120.42H240.659V117.9ZM233.909 141.39H224.639C223.829 141.39 223.109 140.67 223.109 139.86V130.59C223.109 129.78 223.829 129.06 224.639 129.06H233.909C234.719 129.06 235.439 129.78 235.439 130.59V139.86C235.439 140.67 234.809 141.39 233.909 141.39ZM240.659 131.31H284.669V133.83H240.659V131.31ZM240.659 136.62H264.779V139.14H240.659V136.62ZM313.649 196.38C313.649 196.38 315.899 190.35 316.259 185.22C316.259 185.22 306.539 184.86 304.739 181.17C303.119 178.02 309.149 150.21 314.999 150.3C320.849 150.39 332.999 170.46 332.999 170.46L327.869 186.3C327.869 186.3 327.419 193.41 330.839 196.83C334.259 200.25 321.479 199.98 321.479 199.98L313.649 196.38Z" fill="white"/>
<path d="M322.378 200.52H321.298L313.198 196.74L313.378 196.38C313.378 196.29 315.448 190.71 315.898 185.76C313.918 185.67 306.178 184.95 304.468 181.53C303.118 178.74 306.808 160.29 311.308 153.09C312.568 151.02 313.918 150.03 315.088 150.03C320.488 150.12 330.748 165.96 333.538 170.55L328.408 186.57C328.408 187.2 328.228 193.59 331.288 196.74C331.918 197.37 332.188 198 331.918 198.63C330.838 200.34 324.898 200.52 322.378 200.52ZM321.568 199.62C325.168 199.71 330.388 199.26 330.928 198.09C331.018 197.82 330.748 197.46 330.478 197.19C326.968 193.68 327.328 186.57 327.418 186.3V186.21L332.458 170.55C329.038 164.88 319.498 150.84 314.998 150.75C314.098 150.75 313.018 151.65 311.938 153.36C307.348 160.74 304.018 178.74 305.188 180.99C306.898 184.41 316.258 184.77 316.348 184.77H316.798V185.22C316.528 189.63 314.818 194.67 314.368 196.11L321.568 199.62ZM285.298 380.97C284.938 372.06 287.098 266.76 287.098 266.76L313.108 273.87L300.418 381.06H285.298V380.97Z" fill="#060405"/>
<path d="M314.192 383.49V380.97H329.402C329.582 385.92 330.032 395.19 330.122 395.19H305.462C304.562 387 314.192 383.49 314.192 383.49Z" fill="#FE6021"/>
<path d="M305.728 391.59C305.368 392.67 305.278 393.84 305.368 395.1H330.028C329.938 395.1 329.938 393.66 329.758 391.59H305.728Z" fill="#060405"/>
<path d="M285.301 383.49V380.97H300.511C300.691 385.92 301.141 395.19 301.231 395.19H276.571C275.671 387 285.301 383.49 285.301 383.49Z" fill="#FE6021"/>
<path d="M276.842 391.59C276.482 392.67 276.392 393.84 276.482 395.1H301.142C301.052 395.1 301.052 393.66 300.872 391.59H276.842ZM329.402 380.97H314.192C308.612 365.67 291.152 267.66 291.152 267.66C291.152 267.66 330.572 263.97 331.112 268.56C331.742 273.87 327.332 307.17 327.242 336.15C327.062 361.35 329.492 375.75 329.402 380.97Z" fill="#060405"/>
<path d="M302.399 200.25C306.269 196.47 328.679 191.88 341.459 201.69C353.339 210.87 334.619 271.62 334.619 271.62C334.529 276.66 284.309 275.58 284.399 270.63C284.399 270.63 289.349 212.94 302.399 200.25Z" fill="#FE6021"/>
<path d="M283.768 223.2C283.768 223.2 270.718 237.24 277.738 241.56C284.758 245.88 300.418 233.28 300.418 233.28L283.768 223.2Z" fill="white"/>
<path d="M281.341 242.91C278.371 242.91 275.671 241.47 275.311 238.5C274.501 232.56 283.141 223.29 283.501 222.84L283.771 222.57L301.231 233.19C296.281 237.15 287.641 242.91 281.341 242.91ZM283.861 223.74C282.421 225.36 275.491 233.37 276.121 238.32C276.301 239.49 276.841 240.39 277.921 241.11C283.951 244.8 296.821 235.35 299.521 233.28L283.861 223.74Z" fill="#060405"/>
<path d="M273.871 180.09C273.871 180.09 273.151 182.88 273.601 183.42C274.051 183.96 279.631 186.21 279.631 186.21L287.911 216.81L303.121 204.3L302.761 204.39L287.821 184.68C287.821 184.68 289.711 179.46 284.581 177.84C279.361 176.22 268.831 174.78 268.201 175.68C267.571 176.58 273.871 180.09 273.871 180.09Z" fill="white"/>
<path d="M287.638 217.62L279.268 186.57C277.468 185.85 273.778 184.32 273.328 183.78C272.878 183.24 273.148 181.53 273.418 180.36C271.798 179.46 268.018 177.3 267.748 176.13C267.658 175.86 267.748 175.68 267.838 175.5C268.738 174.15 280.258 176.04 284.758 177.48C286.378 178.02 287.548 178.92 288.178 180.18C289.078 181.98 288.628 183.96 288.448 184.68L303.028 203.94L304.828 203.58L287.638 217.62ZM268.648 175.95C269.368 177.12 274.408 179.82 274.498 179.82C274.498 179.91 273.778 182.61 274.048 183.15C274.318 183.42 277.288 184.77 279.898 185.76L280.078 185.85L288.178 216L302.308 204.39L287.368 184.68L287.458 184.41C287.458 184.41 288.268 182.25 287.368 180.36C286.828 179.28 285.928 178.56 284.488 178.11C279.178 176.58 270.088 175.5 268.648 175.95Z" fill="#060405"/>
<path d="M303.301 199.71C298.171 202.32 291.061 211.59 282.511 223.56C281.341 225.72 299.521 234.99 301.231 233.82L316.621 223.2" fill="#FE6021"/>
<path d="M299.79 234.09L299.97 233.19C300.78 233.37 300.96 233.28 300.96 233.28L311.85 225.81L312.39 226.53L301.5 234C301.05 234.36 300.33 234.27 299.79 234.09ZM331.02 187.47C331.02 187.47 321.39 184.05 322.74 176.4C324.09 168.75 328.23 165.06 326.79 163.17C325.35 161.28 323.37 162.45 322.56 164.52C321.75 166.59 321.3 170.1 321.3 170.1H318.6C318.6 170.1 319.41 160.11 321.93 159.12C321.93 159.12 303.03 156.51 310.41 141.57C312.93 136.35 331.47 137.07 336.6 140.94C341.64 144.81 344.43 149.85 345.42 155.61C346.32 161.37 333.54 172.35 332.91 177.12C332.01 183.51 331.02 187.47 331.02 187.47ZM75.2398 395.19L74.7898 395.01L74.3398 394.92C74.3398 394.83 74.4298 393.93 74.4298 392.85C75.4198 363.6 80.0098 314.01 99.4498 310.86C102.42 310.41 105.21 311.22 107.64 313.29C124.11 327.15 125.1 392.4 125.19 395.1H124.29C124.29 394.47 123.3 327.51 107.1 313.92C104.76 312.03 102.24 311.22 99.6298 311.67C85.7698 313.92 77.1298 342.81 75.4198 392.85C75.3298 395.01 75.2398 395.1 75.2398 395.19Z" fill="#060405"/>
<path d="M208.711 381.96V378.9H191.521C191.341 384.39 190.891 395.19 190.711 395.19H218.701C219.691 385.92 208.711 381.96 208.711 381.96Z" fill="#9F28EE"/>
<path d="M218.341 391.14C218.701 392.31 218.881 393.66 218.701 395.1H190.711C190.801 395.1 190.891 393.48 190.981 391.14H218.341Z" fill="#060405"/>
<path d="M162.721 228.51C162.721 228.51 166.231 232.38 166.501 234.9C166.771 237.42 162.271 238.32 162.271 238.32C162.271 238.32 143.911 278.64 129.511 281.52C122.401 282.96 105.301 264.51 105.301 264.51L126.991 255.69L130.231 258.75L155.431 232.47C155.431 232.47 152.371 224.28 155.431 224.91C158.491 225.54 157.861 229.05 157.861 229.05C157.861 229.05 163.801 217.89 166.951 219.51C170.101 221.22 162.721 228.51 162.721 228.51Z" fill="white"/>
<path d="M128.61 282.15C120.96 282.15 105.57 265.68 104.94 264.96C104.85 264.87 104.76 264.69 104.85 264.6C104.85 264.42 104.94 264.33 105.12 264.24L126.81 255.42C126.99 255.33 127.17 255.42 127.26 255.51L130.14 258.3L154.8 232.56C154.26 231.12 152.73 226.44 153.99 225.09C154.26 224.82 154.62 224.55 155.43 224.73C157.23 225.09 157.95 226.44 158.22 227.61C160.02 224.46 164.25 217.89 167.13 219.24C167.67 219.51 168.03 219.96 168.12 220.59C168.48 223.02 164.52 227.34 163.26 228.6C164.07 229.59 166.59 232.65 166.86 234.9C167.13 237.51 163.44 238.5 162.54 238.77C160.92 242.19 143.64 279.18 129.51 282.06C129.24 282.06 128.97 282.15 128.61 282.15ZM106.02 264.78C108.72 267.66 123.12 282.42 129.33 281.16C143.37 278.28 161.64 238.59 161.82 238.14C161.91 238.05 162 237.87 162.18 237.87C162.18 237.87 166.32 236.97 166.05 234.9C165.78 232.56 162.45 228.78 162.45 228.78C162.27 228.6 162.27 228.33 162.45 228.15C163.89 226.71 167.67 222.57 167.31 220.68C167.22 220.32 167.13 220.14 166.77 219.96C164.7 218.97 160.47 225.18 158.31 229.32C158.22 229.5 157.95 229.59 157.77 229.5C157.59 229.41 157.41 229.23 157.5 228.96C157.5 228.87 157.95 225.9 155.34 225.36C154.98 225.27 154.8 225.45 154.8 225.45C154.08 226.26 154.98 229.95 155.88 232.29C155.97 232.47 155.88 232.65 155.79 232.74L130.5 259.2C130.32 259.38 130.05 259.38 129.87 259.2L126.81 256.32L106.02 264.78Z" fill="#060405"/>
<path d="M114.84 235.98C115.74 236.25 126.9 246.06 129.42 255.33C130.41 257.04 114.39 266.13 113.4 264.42L107.91 252.45L114.84 235.98Z" fill="#9F28EE"/>
<path d="M124.021 341.19C74.7912 359.19 48.0612 322.29 46.6212 288.54C45.1812 254.52 54.9912 235.62 67.0512 234.54C77.6712 233.64 86.6712 248.85 88.2912 256.77C89.9112 264.69 101.341 309.87 116.101 316.35C131.041 322.92 124.021 341.19 124.021 341.19Z" fill="white"/>
<path d="M99.5414 346.32C89.3714 346.32 80.0114 343.62 72.0014 338.22C57.0614 328.23 47.1614 309.15 46.2614 288.54C44.7314 252.27 55.6214 235.08 67.1414 234.09C78.0314 233.19 87.2114 248.49 88.9214 256.68C90.9914 266.94 102.421 309.69 116.551 315.99C131.581 322.65 124.741 341.19 124.651 341.37L124.561 341.55L124.381 341.64C115.561 344.79 107.281 346.32 99.5414 346.32ZM68.0414 234.99H67.1414C56.4314 235.89 45.6314 252.99 47.1614 288.45C48.0614 308.79 57.7814 327.6 72.4514 337.41C86.4014 346.68 104.131 347.85 123.751 340.74C124.471 338.67 129.691 322.74 116.101 316.71C101.611 310.32 90.0914 267.12 88.0214 256.77C86.4014 249.21 78.0314 234.99 68.0414 234.99Z" fill="#060405"/>
<path d="M111.688 295.47C111.688 295.47 153.178 287.73 165.778 294.84C173.878 299.43 210.598 379.62 210.598 379.62C210.778 381.78 188.008 383.22 187.828 380.97L148.318 321.66L118.888 330.75L102.238 310.68L111.688 295.47Z" fill="#060405"/>
<path d="M80.9988 229.59C76.2288 231.03 67.7688 235.89 64.3488 240.66C56.8788 258.84 82.1688 321.39 82.1688 321.39L130.229 301.23C130.229 301.23 122.219 284.22 121.049 278.1C119.249 268.56 121.499 247.86 117.539 239.31C115.289 234.54 106.469 230.58 101.249 229.32C97.0188 228.33 85.9488 228.06 80.9988 229.59Z" fill="#9F28EE"/>
<path d="M120.149 284.22C119.699 283.59 109.529 287.01 109.529 287.01C109.529 287.01 74.5186 315.45 60.9286 306.54C52.2886 300.87 53.5486 270 53.5486 270L73.7086 267.03V286.2L107.819 278.46C107.819 278.46 108.899 273.24 111.329 273.87C113.759 274.59 112.679 276.66 112.679 276.66C112.679 276.66 121.859 276.3 123.749 281.25C126.359 287.73 120.869 285.3 120.149 284.22Z" fill="white"/>
<path d="M67.4992 308.7C64.8892 308.7 62.5492 308.16 60.6592 306.9C51.9292 301.14 53.0992 271.26 53.0992 270V269.64L74.1592 266.49V285.57L107.369 278.1C107.549 277.2 108.359 274.59 109.799 273.69C110.339 273.42 110.879 273.33 111.419 273.42C112.319 273.69 112.859 274.14 113.129 274.77C113.309 275.31 113.309 275.85 113.219 276.21C115.379 276.21 122.399 276.66 124.109 281.16C125.099 283.68 125.009 285.21 123.839 285.84C122.579 286.47 120.329 285.39 119.699 284.58C118.799 284.49 113.939 285.93 109.529 287.46C107.909 288.9 83.1592 308.7 67.4992 308.7ZM53.9992 270.36C53.9092 273.87 53.3692 300.96 61.1092 306.09C74.3392 314.73 108.809 286.92 109.169 286.65L109.349 286.56C119.879 282.96 120.329 283.59 120.509 283.95C120.869 284.49 122.759 285.48 123.569 285.03C124.199 284.67 124.109 283.41 123.389 281.52C121.589 276.93 112.769 277.2 112.679 277.2H111.959L112.319 276.48C112.319 276.48 112.679 275.76 112.409 275.13C112.229 274.77 111.869 274.5 111.239 274.32C110.969 274.23 110.609 274.32 110.339 274.41C109.169 275.13 108.449 277.65 108.269 278.55L108.179 278.82L73.2592 286.74V267.57L53.9992 270.36Z" fill="#060405"/>
<path d="M65.6086 239.13C65.6086 239.13 72.7186 240.93 74.1586 250.83C75.6886 261.09 74.2486 271.89 74.2486 271.89C73.3486 273.87 52.5586 273.69 52.5586 271.89C52.5586 271.62 54.8086 249.3 65.6086 239.13Z" fill="#9F28EE"/>
<path d="M63.7194 273.69C59.7594 273.69 55.8894 273.42 54.0894 273.06C53.0994 272.88 52.1094 272.52 52.1094 271.8H53.0094V271.71C53.5494 272.43 60.3894 273.06 67.2294 272.7C71.8194 272.52 73.5294 271.98 73.7994 271.71C73.9794 270.63 75.1494 260.46 73.7094 250.92L74.6094 250.83C76.1394 261.09 74.6994 271.89 74.6994 271.98V272.07C74.0694 273.33 68.8494 273.69 63.7194 273.69Z" fill="#060405"/>
<path d="M165.779 394.56C165.779 394.74 165.779 394.92 165.689 395.1H137.699V393.66C137.699 393.21 137.789 392.58 137.789 391.95V391.05C137.969 387.45 138.149 382.14 138.329 378.81H155.519V381.87C155.519 381.87 163.259 384.66 165.149 391.05C165.689 392.13 165.869 393.3 165.779 394.56Z" fill="#9F28EE"/>
<path d="M165.782 394.56C165.782 394.74 165.782 394.92 165.692 395.1H137.702V393.66C137.702 393.21 137.792 392.58 137.792 391.95V391.05H165.152C165.692 392.13 165.872 393.3 165.782 394.56ZM80.9118 318.33C80.8218 318.87 84.3318 329.49 93.1518 332.19C102.062 334.89 116.642 327.78 116.642 327.78L137.252 380.79C137.522 382.32 157.052 380.52 156.872 378.99C156.872 378.99 152.462 305.37 140.402 294.3C132.302 286.92 84.7818 306.18 80.9118 318.33Z" fill="#060405"/>
<path d="M49.2281 394.92L48.7781 394.74L48.3281 394.65C48.3281 394.56 48.4181 393.75 48.4181 392.85C49.4081 367.02 53.9981 323.28 73.3481 320.49C94.4081 317.43 98.8181 373.68 99.0881 394.83H98.1881C97.9181 374.76 93.5081 318.42 73.4381 321.3C59.5781 323.28 50.9381 348.66 49.2281 392.76V394.92Z" fill="#060405"/>
<path d="M119.309 248.509L120.208 248.48L120.634 261.793L119.734 261.822L119.309 248.509Z" fill="#060405"/>
<path d="M93.6905 239.13C89.1905 241.47 78.8405 230.58 78.8405 230.58L78.4805 203.58L92.1605 219.51C92.1605 219.51 93.6905 225.27 95.8505 228.6C97.3805 231.03 96.3905 237.69 93.6905 239.13Z" fill="white"/>
<path d="M92.2513 239.85C87.1213 239.85 78.8413 231.21 78.4813 230.85L78.3913 230.76L78.0312 202.32L92.6113 219.33C92.6113 219.42 94.1413 225.09 96.2113 228.24C97.1113 229.68 97.2913 232.56 96.5713 235.26C96.2113 236.52 95.4913 238.68 93.8713 239.49C93.3313 239.76 92.7913 239.85 92.2513 239.85ZM79.2013 230.4C82.1713 233.46 90.0013 240.48 93.4213 238.77C94.4113 238.23 95.2213 236.97 95.6713 235.08C96.3013 232.65 96.2113 230.04 95.4013 228.78C93.4213 225.63 91.8913 220.5 91.7113 219.69L78.9313 204.75L79.2013 230.4Z" fill="#060405"/>
<path d="M78.93 203.94C79.2 204.3 81.27 225.9 94.32 224.46C107.37 223.02 103.95 196.02 98.1 190.08C92.25 184.14 80.37 189.45 80.37 189.45L76.5 198.81L78.93 203.94Z" fill="white"/>
<path d="M93.1508 224.91C86.0408 224.91 80.9108 217.8 78.6608 204.66C78.5708 204.3 78.5708 204.12 78.5708 204.03L76.0508 198.72L80.1008 189L80.2808 188.91C80.8208 188.73 92.5208 183.51 98.4608 189.63C102.781 194.13 105.571 208.71 102.421 217.62C100.891 221.94 98.1008 224.37 94.4108 224.82C93.9608 224.91 93.5108 224.91 93.1508 224.91ZM79.3808 203.67C79.4708 203.76 79.4708 203.94 79.5608 204.57C81.8108 218.07 86.9408 224.82 94.3208 224.01C97.7408 223.65 100.171 221.4 101.611 217.44C104.581 208.98 101.971 194.58 97.9208 190.44C92.7008 185.13 82.2608 189.27 80.9108 189.81L77.1308 198.81L79.3808 203.67Z" fill="#060405"/>
<path d="M89.8713 205.387C90.368 205.368 90.749 204.789 90.7222 204.093C90.6954 203.398 90.2711 202.85 89.7744 202.869C89.2777 202.888 88.8967 203.467 88.9235 204.163C88.9502 204.858 89.3746 205.406 89.8713 205.387Z" fill="#060405"/>
<path d="M98.5119 205.296C99.0086 205.277 99.3896 204.698 99.3628 204.002C99.3361 203.307 98.9117 202.759 98.415 202.778C97.9183 202.797 97.5373 203.376 97.5641 204.072C97.5908 204.767 98.0152 205.315 98.5119 205.296Z" fill="#060405"/>
<path d="M94.2302 212.31L93.6902 211.59C94.0502 211.32 94.4102 211.32 94.7702 211.23H94.9502C95.2202 211.23 95.4002 211.05 95.4002 210.96C95.4002 210.87 95.2202 210.6 95.0402 210.42C93.6902 209.07 93.1502 206.91 93.6002 205.11L94.5002 205.29C94.1402 206.82 94.5902 208.62 95.7602 209.79C96.0302 210.06 96.4802 210.51 96.3902 211.14C96.3002 211.59 95.8502 211.95 95.2202 212.04H95.0402C94.5902 212.22 94.3202 212.22 94.2302 212.31ZM92.7002 219.06C92.2502 219.06 91.8902 218.97 91.5302 218.79C90.8102 218.52 90.2702 217.89 89.9102 217.17L90.7202 216.81C90.9002 217.35 91.3502 217.71 91.8002 217.98C92.3402 218.16 92.8802 218.25 93.4202 217.98L93.7802 218.79C93.4202 218.97 93.0602 219.06 92.7002 219.06Z" fill="#060405"/>
<path d="M105.658 193.68C105.118 194.04 104.578 194.31 103.858 194.49C98.7284 196.2 84.8684 193.05 84.4184 194.94C83.9684 196.92 83.1584 208.53 82.2584 207.09C80.5484 204.39 79.9184 199.89 79.8284 207.63C79.9184 210.51 79.0184 221.49 79.0184 221.49C78.5684 220.14 76.0484 217.35 74.3384 214.47C71.2784 209.25 73.0784 195.57 73.0784 195.57C73.0784 195.57 69.5684 192.6 70.9184 189.45C72.2684 186.3 94.4984 173.7 99.0884 174.24C103.408 174.69 101.068 181.8 100.888 182.43C101.248 181.98 104.578 178.02 106.018 180.81C107.368 183.51 109.528 191.25 105.658 193.68Z" fill="#060405"/>
<path d="M184.321 281.88C184.681 283.5 183.781 285.12 182.161 285.48L133.831 297.45C134.641 297.27 135.271 296.73 135.631 296.1C135.991 295.47 136.171 294.66 135.991 293.85C135.631 292.23 134.011 291.24 132.391 291.69L180.721 279.72C182.251 279.36 183.871 280.35 184.321 281.88Z" fill="white"/>
<path d="M135.989 293.85C136.169 294.66 136.079 295.47 135.629 296.1C135.269 296.73 134.549 297.27 133.829 297.45L94.7686 307.08C93.1486 307.44 91.5286 306.54 91.1686 304.92C90.8086 303.3 91.7086 301.68 93.3286 301.32L132.389 291.69C133.919 291.24 135.539 292.23 135.989 293.85Z" fill="white"/>
<path d="M90.7189 305.1C90.2689 303.3 91.3489 301.41 93.2389 300.96L132.299 291.33C133.199 291.15 134.099 291.24 134.909 291.69C135.719 292.14 136.259 292.95 136.439 293.85C136.619 294.75 136.529 295.65 136.079 296.46C135.629 297.27 134.819 297.81 133.919 297.99L94.8589 307.62C92.9689 308.07 91.1689 306.9 90.7189 305.1ZM133.109 292.05C132.929 292.05 132.659 292.05 132.479 292.14L93.4189 301.77C92.0689 302.13 91.2589 303.48 91.5289 304.83C91.8889 306.18 93.2389 306.99 94.5889 306.72L133.649 297.09C134.279 296.91 134.819 296.55 135.179 295.92C135.539 295.38 135.629 294.66 135.449 294.03C135.269 293.4 134.909 292.77 134.279 292.5C134.009 292.14 133.559 292.05 133.109 292.05Z" fill="#060405"/>
<path d="M184.321 281.88C184.681 283.5 183.781 285.12 182.161 285.48L133.831 297.45C134.641 297.27 135.271 296.73 135.631 296.1C135.991 295.47 136.171 294.66 135.991 293.85C135.631 292.23 134.011 291.24 132.391 291.69L180.721 279.72C182.251 279.36 183.871 280.35 184.321 281.88Z" fill="#060405"/>
<path d="M133.831 297.9C133.651 297.9 133.471 297.72 133.381 297.54C133.291 297.27 133.471 297.09 133.741 297C134.371 296.82 134.911 296.46 135.271 295.83C135.631 295.29 135.721 294.57 135.541 293.94C135.361 293.31 135.001 292.68 134.371 292.41C133.831 292.05 133.111 291.96 132.481 292.14C132.211 292.23 132.031 292.05 131.941 291.78C131.851 291.51 132.031 291.33 132.301 291.24L180.631 279.27C182.431 278.82 184.321 279.99 184.771 281.79C185.221 283.59 184.141 285.48 182.251 285.93L133.921 297.9H133.831ZM134.731 291.6C134.821 291.6 134.821 291.69 134.911 291.69C135.721 292.14 136.261 292.95 136.441 293.85C136.621 294.75 136.531 295.65 136.081 296.46L135.991 296.55L182.071 285.12C183.421 284.76 184.231 283.41 183.961 282.06C183.601 280.71 182.251 279.9 180.901 280.17L134.731 291.6Z" fill="#060405"/>
<path d="M182.338 236.07L135.178 247.77C134.008 248.04 133.108 249.12 133.018 250.38L131.128 288.36C131.038 290.25 132.748 291.69 134.548 291.24L181.708 279.54C182.878 279.27 183.778 278.19 183.868 276.93L185.758 238.95C185.848 237.06 184.138 235.62 182.338 236.07Z" fill="white"/>
<path d="M133.919 291.69C133.199 291.69 132.479 291.42 131.849 290.97C131.443 290.654 131.123 290.242 130.918 289.77C130.714 289.298 130.632 288.782 130.679 288.27L132.569 250.29C132.659 248.85 133.649 247.68 134.999 247.32L182.159 235.62C183.149 235.35 184.229 235.62 185.039 236.25C185.849 236.88 186.299 237.87 186.209 238.95L184.319 276.93C184.229 278.37 183.239 279.54 181.889 279.9L134.729 291.6C134.459 291.6 134.189 291.69 133.919 291.69ZM183.059 236.43C182.879 236.43 182.699 236.43 182.519 236.52L135.359 248.22C134.369 248.49 133.649 249.3 133.559 250.38L131.669 288.36C131.669 289.08 131.939 289.8 132.479 290.25C133.019 290.7 133.829 290.88 134.549 290.7L181.709 279C182.699 278.73 183.419 277.92 183.509 276.84L185.399 238.86C185.399 238.14 185.129 237.42 184.589 236.97C184.049 236.61 183.599 236.43 183.059 236.43ZM131.219 295.02C131.309 295.47 131.039 295.92 130.589 296.01L124.559 297.45C124.109 297.54 123.659 297.27 123.569 296.82C123.479 296.37 123.749 295.92 124.199 295.83L130.229 294.39C130.679 294.3 131.129 294.57 131.219 295.02ZM121.949 297.36C122.039 297.81 121.769 298.26 121.319 298.35L117.179 299.34C116.729 299.43 116.279 299.16 116.189 298.71C116.099 298.26 116.369 297.81 116.819 297.72L120.959 296.73C121.409 296.64 121.859 296.91 121.949 297.36Z" fill="#060405"/>
<path d="M164.969 264.87C164.609 267.57 162.359 270.27 160.109 270.9C157.769 271.53 156.239 269.82 156.599 267.12C156.959 264.42 159.209 261.72 161.459 261.09C163.799 260.46 165.419 262.17 164.969 264.87Z" fill="#060405"/>
<path d="M253.528 225H223.108C222.118 225 221.398 224.19 221.398 223.29V180.99C221.398 180 222.208 179.28 223.108 179.28H253.528C254.518 179.28 255.238 180.09 255.238 180.99V223.29C255.238 224.19 254.518 225 253.528 225Z" fill="#F6CC61"/>
<path d="M238.32 186.3C239.314 186.3 240.12 185.494 240.12 184.5C240.12 183.506 239.314 182.7 238.32 182.7C237.325 182.7 236.52 183.506 236.52 184.5C236.52 185.494 237.325 186.3 238.32 186.3Z" fill="white"/>
<path d="M249.66 195.93C249.66 196.56 249.12 197.01 248.49 197.01H236.34C235.71 197.01 235.17 196.47 235.17 195.93C235.17 195.3 235.71 194.76 236.34 194.76H248.49C249.21 194.76 249.66 195.3 249.66 195.93ZM249.66 200.97C249.66 201.6 249.12 202.05 248.49 202.05H228.42C227.79 202.05 227.25 201.51 227.25 200.97C227.25 200.34 227.79 199.8 228.42 199.8H248.49C249.21 199.8 249.66 200.34 249.66 200.97Z" fill="white"/>
<path d="M198.542 177.39V221.58H186.752C185.132 221.58 183.512 221.4 181.982 221.04C172.532 218.88 165.422 210.42 165.422 200.25V177.39H198.542Z" fill="#F6CC61"/>
<path d="M193.229 212.67C193.229 213.21 192.779 213.66 192.239 213.66H172.799C172.259 213.66 171.809 213.21 171.809 212.67C171.809 212.13 172.259 211.68 172.799 211.68H192.239C192.779 211.68 193.229 212.13 193.229 212.67ZM193.229 196.38C193.229 196.92 192.779 197.37 192.239 197.37H172.799C172.259 197.37 171.809 196.92 171.809 196.38C171.809 195.84 172.259 195.39 172.799 195.39H192.239C192.779 195.39 193.229 195.84 193.229 196.38ZM171.899 191.25C171.899 190.71 172.349 190.26 172.889 190.26H192.329C192.869 190.26 193.319 190.71 193.319 191.25C193.319 191.79 192.869 192.24 192.329 192.24H172.799C172.259 192.15 171.899 191.7 171.899 191.25Z" fill="white"/>
<path d="M181.982 221.04C172.532 218.88 165.422 210.42 165.422 200.25V198.45C170.912 207.09 182.342 207.63 182.342 207.63C178.562 213.57 181.982 221.04 181.982 221.04Z" fill="#E0AE2C"/>
<path d="M181.979 184.05C182.874 184.05 183.599 183.325 183.599 182.43C183.599 181.535 182.874 180.81 181.979 180.81C181.085 180.81 180.359 181.535 180.359 182.43C180.359 183.325 181.085 184.05 181.979 184.05Z" fill="white"/>
<path opacity="0.05" d="M405.722 75.3301V132.39H316.892C314.102 132.39 311.852 130.14 311.852 127.35V80.3701C311.852 77.5801 314.102 75.3301 316.892 75.3301H405.722Z" fill="black"/>
<path d="M458.999 73.26H421.469C421.289 73.26 421.109 73.08 421.109 72.9C421.109 72.72 421.289 72.54 421.469 72.54H458.999C459.179 72.54 459.359 72.72 459.359 72.9C459.359 73.08 459.179 73.26 458.999 73.26ZM458.999 91.8H421.469C421.289 91.8 421.109 91.62 421.109 91.44C421.109 91.26 421.289 91.08 421.469 91.08H458.999C459.179 91.08 459.359 91.26 459.359 91.44C459.359 91.62 459.179 91.8 458.999 91.8ZM452.249 82.53H399.149C398.969 82.53 398.789 82.35 398.789 82.17C398.789 81.99 398.969 81.81 399.149 81.81H452.249C452.429 81.81 452.609 81.99 452.609 82.17C452.609 82.35 452.429 82.53 452.249 82.53Z" fill="#25E498"/>
<path d="M429.212 73.2601C429.032 73.2601 428.852 73.0801 428.852 72.9001V64.9801C428.852 64.8001 429.032 64.6201 429.212 64.6201C429.392 64.6201 429.572 64.8001 429.572 64.9801V72.9001C429.572 73.0801 429.392 73.2601 429.212 73.2601ZM442.442 82.5301C442.262 82.5301 442.082 82.3501 442.082 82.1701V72.9001C442.082 72.7201 442.262 72.5401 442.442 72.5401C442.622 72.5401 442.802 72.7201 442.802 72.9001V82.1701C442.802 82.3501 442.622 82.5301 442.442 82.5301ZM432.362 91.5301C432.182 91.5301 432.002 91.3501 432.002 91.1701V82.1701C432.002 81.9901 432.182 81.8101 432.362 81.8101C432.542 81.8101 432.722 81.9901 432.722 82.1701V91.1701C432.722 91.3501 432.542 91.5301 432.362 91.5301Z" fill="#25E498"/>
<path d="M419.131 128.7H319.681C316.891 128.7 314.641 126.45 314.641 123.66V76.6799C314.641 73.8899 316.891 71.6399 319.681 71.6399H419.131C421.921 71.6399 424.171 73.8899 424.171 76.6799V123.66C424.171 126.45 421.921 128.7 419.131 128.7Z" fill="#F6CC61"/>
<path d="M414.628 273.6C414.628 273.6 410.398 290.43 402.028 287.19C389.428 282.33 403.108 272.43 403.108 272.43C403.108 272.43 399.868 273.06 398.338 270.36C397.168 268.38 405.988 268.29 405.988 268.29L422.728 230.76L423.628 212.13L440.728 209.25L441.808 233.55L414.628 273.6Z" fill="white"/>
<path d="M404.19 288C403.47 288 402.66 287.82 401.94 287.55C398.52 286.2 396.63 284.4 396.36 282.15C395.91 278.37 399.87 274.5 401.85 272.88C400.68 272.79 399.06 272.34 397.98 270.54C397.8 270.18 397.71 269.82 397.89 269.46C398.7 268.02 403.74 267.84 405.72 267.84L422.28 230.58L423.09 212.04C423.09 211.86 423.27 211.68 423.45 211.59L440.55 208.71C440.64 208.71 440.82 208.71 440.91 208.8C441 208.89 441.09 208.98 441.09 209.16L442.17 233.46C442.17 233.55 442.17 233.64 442.08 233.73L414.99 273.69C414.72 274.77 412.02 284.58 406.8 287.28C405.99 287.82 405.09 288 404.19 288ZM403.11 271.98C403.29 271.98 403.47 272.07 403.56 272.25C403.65 272.43 403.56 272.7 403.38 272.79C403.29 272.88 396.63 277.74 397.17 282.06C397.44 283.95 399.15 285.57 402.21 286.74C403.65 287.28 405.09 287.28 406.44 286.56C411.48 283.95 414.18 273.6 414.18 273.51C414.18 273.42 414.18 273.42 414.27 273.33L441.27 233.37L440.19 209.7L423.99 212.49L423.18 230.76V230.94L406.44 268.47C406.35 268.65 406.17 268.74 405.99 268.74C402.75 268.74 399.06 269.19 398.7 269.91V270.09C400.14 272.43 402.93 271.98 403.11 271.98Z" fill="#060405"/>
<path d="M441.362 192.15C432.992 194.94 422.462 206.37 419.762 220.05C425.972 225.36 433.982 233.37 439.832 227.88L444.962 203.76L441.362 192.15Z" fill="#F81F8B"/>
<path d="M434.52 261.72C434.52 261.72 418.59 308.52 418.14 324.81C417.69 341.55 430.74 383.49 430.74 383.49H443.43L441.18 325.62L451.8 300.15L454.23 383.49H466.92C466.92 383.49 481.5 294.93 482.94 283.5C483.75 277.2 481.14 267.39 478.71 261.63H434.52V261.72Z" fill="#060405"/>
<path d="M437.13 194.76C446.13 186.21 479.79 189.45 485.46 194.22C491.13 198.99 484.2 271.26 484.2 271.26C484.2 273.51 431.64 269.82 431.64 267.57C431.64 267.57 428.31 203.22 437.13 194.76Z" fill="#F81F8B"/>
<path d="M444.152 153.9C444.332 154.26 445.232 164.61 442.622 167.4C440.012 170.19 431.732 182.25 438.572 181.53C445.502 180.81 456.752 176.67 457.202 175.05C457.652 173.43 455.402 157.77 455.402 157.77L450.992 151.65L444.152 153.9Z" fill="#060405"/>
<path d="M455.67 180.09C455.67 180.09 458.73 187.92 457.92 189.27C457.11 190.53 443.25 201.69 450.99 203.94C458.73 206.19 471.69 190.17 471.69 190.17C471.69 190.17 466.56 178.11 465.57 174.6C464.58 171.09 455.67 180.09 455.67 180.09Z" fill="white"/>
<path d="M450.811 204.39C449.371 203.94 448.471 203.22 448.201 202.14C447.391 198.81 452.971 193.41 455.941 190.53L457.471 189C458.191 187.92 455.131 180.09 455.131 180C456.931 178.2 462.601 172.8 464.941 173.43C465.301 173.52 465.751 173.79 466.021 174.51C467.011 177.93 472.051 189.99 472.141 190.08L472.231 190.35L472.051 190.53C467.731 195.84 457.381 206.28 450.811 204.39ZM456.211 180.27C457.021 182.43 459.181 188.19 458.281 189.54C458.101 189.81 457.651 190.26 456.661 191.25C454.051 193.86 448.471 199.17 449.191 201.96C449.371 202.68 450.001 203.22 451.171 203.58C458.011 205.56 469.711 192.06 471.241 190.17C470.521 188.37 466.111 178.02 465.211 174.78C465.121 174.42 464.941 174.33 464.851 174.33C463.231 173.88 458.821 177.66 456.211 180.27Z" fill="#060405"/>
<path d="M467.549 175.41C467.549 175.41 456.929 184.77 452.159 182.43C447.389 180.09 444.419 160.56 447.029 153.9C449.639 147.24 460.529 143.46 460.529 143.46L469.709 150.75L467.549 175.41Z" fill="white"/>
<path d="M453.959 183.24C453.239 183.24 452.609 183.15 451.979 182.79C446.849 180.27 443.879 160.56 446.669 153.63C449.369 146.88 459.989 143.01 460.439 142.92L460.709 142.83L470.249 150.39L467.999 175.5L467.909 175.59C467.459 176.04 459.269 183.24 453.959 183.24ZM460.529 143.91C458.999 144.54 449.819 148.14 447.479 154.08C444.779 160.92 448.109 180 452.339 182.07C456.569 184.14 465.839 176.31 467.099 175.23L469.259 150.93L460.529 143.91Z" fill="#060405"/>
<path d="M489.599 183.6C489.599 183.6 468.449 189 464.669 184.59C460.889 180.18 466.019 174.24 465.839 171.27C465.659 168.21 459.899 168.48 463.859 164.52C467.909 160.56 467.999 158.85 467.459 157.77C466.919 156.69 467.909 149.58 464.849 149.13C461.699 148.77 465.569 154.44 461.339 154.44C457.109 154.44 441.089 158.58 441.809 152.64C442.529 146.7 442.169 143.55 449.189 139.86C456.209 136.17 460.709 141.3 462.149 141.39C463.589 141.57 476.729 137.43 478.889 144.27C481.049 151.11 482.039 158.31 483.749 161.19C485.549 164.16 494.279 179.01 489.599 183.6Z" fill="#060405"/>
<path d="M461.047 161.405C461.083 160.462 460.588 159.677 459.942 159.653C459.297 159.628 458.744 160.374 458.709 161.317C458.673 162.261 459.168 163.046 459.814 163.07C460.459 163.095 461.012 162.349 461.047 161.405Z" fill="#060405"/>
<path d="M451.172 162.565C451.208 161.621 450.713 160.836 450.067 160.812C449.422 160.788 448.869 161.533 448.834 162.477C448.798 163.42 449.293 164.205 449.939 164.23C450.584 164.254 451.137 163.509 451.172 162.565Z" fill="#060405"/>
<path d="M453.422 167.13C453.782 165.69 453.872 164.16 453.602 162.63C453.602 162.36 453.692 162.18 453.962 162.09C454.232 162.09 454.412 162.18 454.502 162.45C454.772 164.07 454.772 165.78 454.322 167.31C454.142 167.85 454.232 167.94 454.322 167.94H454.502C454.682 167.85 454.772 167.67 454.862 167.58C455.042 167.4 455.312 167.4 455.492 167.49C455.672 167.67 455.672 167.94 455.582 168.12C455.402 168.3 455.222 168.57 454.952 168.75C454.052 169.2 452.972 168.75 453.422 167.13ZM454.322 177.21C454.052 177.12 453.962 176.85 454.052 176.67C454.142 176.4 454.412 176.31 454.592 176.4C456.302 176.94 458.642 176.49 459.542 175.41C459.722 175.23 459.992 175.23 460.172 175.41C460.352 175.59 460.352 175.86 460.172 176.04C459.002 177.3 456.302 177.75 454.322 177.21Z" fill="#060405"/>
<path d="M454.14 385.65V383.49H466.83C467.01 387.63 467.28 395.28 467.46 395.28H446.85C446.04 388.62 454.14 385.65 454.14 385.65Z" fill="#F81F8B"/>
<path d="M447.03 392.4C446.76 393.3 446.67 394.29 446.76 395.37H467.37C467.37 395.37 467.28 394.11 467.19 392.4H447.03Z" fill="#060405"/>
<path d="M430.648 385.65V383.49H443.338C443.518 387.63 443.788 395.28 443.968 395.28H423.358C422.638 388.62 430.648 385.65 430.648 385.65Z" fill="#F81F8B"/>
<path d="M423.632 392.4C423.362 393.3 423.272 394.29 423.362 395.37H443.972C443.972 395.37 443.882 394.11 443.792 392.4H423.632Z" fill="#060405"/>
<path d="M468.002 264.6C468.002 264.6 464.762 264.87 464.042 262.8C463.322 260.82 469.622 261 469.622 261L484.022 235.44L480.062 218.61L496.532 216.9C496.532 216.9 501.212 235.17 499.862 240.03C497.432 248.4 476.462 266.04 476.462 266.04" fill="white"/>
<path d="M476.819 266.58L476.279 265.86C476.459 265.68 497.159 248.13 499.499 240.03C500.759 235.71 496.979 220.14 496.259 217.44L480.689 219.06L484.559 235.53L484.469 235.71L469.979 261.54H469.709C467.909 261.45 465.029 261.72 464.579 262.44C464.489 262.53 464.489 262.62 464.579 262.8C465.209 264.42 467.999 264.24 468.089 264.24L468.179 265.14C467.999 265.14 464.579 265.41 463.769 263.07C463.589 262.62 463.679 262.26 463.949 261.9C464.849 260.64 468.359 260.64 469.619 260.64L483.749 235.44L479.699 218.34L497.069 216.54L497.159 216.9C497.339 217.62 501.929 235.35 500.489 240.3C497.879 248.67 477.719 265.77 476.819 266.58Z" fill="#060405"/>
<path d="M465.21 289.62L442.44 272.52C441.72 271.98 441.54 270.9 442.08 270.09L453.06 255.51C453.6 254.79 454.68 254.61 455.49 255.15L478.26 272.25C478.98 272.79 479.16 273.87 478.62 274.68L467.64 289.26C467.01 290.07 465.93 290.16 465.21 289.62Z" fill="white"/>
<path d="M464.939 289.98L442.169 272.88C441.179 272.16 440.999 270.81 441.719 269.82L452.699 255.24C453.419 254.25 454.769 254.07 455.759 254.79L478.529 271.89C479.519 272.61 479.699 273.96 478.979 274.95L467.999 289.53C467.279 290.52 465.929 290.7 464.939 289.98ZM465.479 289.26C466.019 289.71 466.829 289.53 467.279 288.99L478.259 274.41C478.709 273.87 478.529 273.06 477.989 272.61L455.219 255.51C454.679 255.06 453.869 255.24 453.419 255.78L442.439 270.36C441.989 270.9 442.169 271.71 442.709 272.16L465.479 289.26Z" fill="#060405"/>
<path d="M498.78 220.86C498.96 223.11 478.8 225.81 478.53 223.56C478.53 223.56 477.45 206.73 480.15 198.54C480.87 196.29 483.03 194.22 484.11 193.86V193.41C484.11 193.41 491.85 196.38 493.92 201.6C497.43 210.15 498.78 220.86 498.78 220.86Z" fill="#F81F8B"/>
<path d="M482.401 224.82C480.691 224.82 479.341 224.64 478.711 224.28C478.261 224.01 478.171 223.74 478.171 223.56C478.171 223.47 477.541 214.02 478.351 205.92L479.251 206.01C478.441 214.02 479.071 223.38 479.071 223.47C479.791 224.64 493.201 223.47 497.611 221.4L497.971 222.21C495.001 223.56 487.261 224.82 482.401 224.82Z" fill="#060405"/>
<path d="M476.551 266.22C476.551 266.22 472.231 278.01 465.301 274.77C458.371 271.53 468.541 264.33 468.541 264.33" fill="white"/>
<path d="M467.728 275.76C466.918 275.76 466.018 275.58 465.208 275.13C463.588 274.41 462.688 273.33 462.508 271.98C462.148 268.29 468.088 264.06 468.358 263.88L468.898 264.6C468.808 264.6 463.138 268.74 463.408 271.89C463.498 272.88 464.218 273.69 465.568 274.32C466.918 274.95 468.268 275.04 469.618 274.41C473.668 272.7 476.188 266.04 476.188 265.95L476.998 266.22C476.908 266.49 474.388 273.33 469.978 275.22C469.168 275.58 468.448 275.76 467.728 275.76ZM431.728 228.78L430.828 228.6C431.188 226.98 431.548 222.39 431.998 217.89C432.448 213.12 432.808 208.71 433.168 207L434.068 207.18C433.708 208.8 433.348 213.39 432.898 217.89C432.448 222.66 432.088 227.16 431.728 228.78Z" fill="#060405"/>
<path d="M416.068 88.5601V117.63H324.898V116.91L340.378 102.51L352.708 112.14L367.468 97.7401L375.028 105.39L386.368 95.1301L398.428 109.08L406.528 99.0001L416.068 88.5601Z" fill="white"/>
<path d="M416.072 118.26H322.742C322.472 118.26 322.292 117.99 322.292 117.63C322.292 117.27 322.472 117 322.742 117H415.622V82.7999C415.622 82.4399 415.802 82.1699 416.072 82.1699C416.342 82.1699 416.522 82.4399 416.522 82.7999V117.63C416.432 117.9 416.252 118.26 416.072 118.26ZM39.4219 118.71V139.86C39.4219 141.84 40.9519 143.37 42.9319 143.37H78.6619L86.6719 147.78V143.37H87.3919C89.3719 143.37 90.9019 141.84 90.9019 139.86V118.71C90.9019 116.73 89.3719 115.2 87.3919 115.2H42.9319C40.9519 115.11 39.4219 116.73 39.4219 118.71Z" fill="#060405"/>
<path d="M84.421 124.92C84.421 125.73 83.701 126.45 82.891 126.45H47.431C46.621 126.45 45.901 125.82 45.901 124.92C45.901 124.11 46.531 123.39 47.431 123.39H82.891C83.701 123.48 84.421 124.11 84.421 124.92ZM54.721 131.4C54.721 130.59 54.091 129.87 53.191 129.87H47.341C46.351 129.87 45.631 130.86 45.901 131.85C46.081 132.48 46.711 132.93 47.341 132.93H53.101C54.091 132.93 54.721 132.21 54.721 131.4ZM67.861 129.96H60.661C59.851 129.96 59.131 130.59 59.131 131.49C59.131 132.3 59.761 133.02 60.661 133.02H67.951C68.761 133.02 69.481 132.3 69.481 131.4C69.391 130.5 68.671 129.96 67.861 129.96Z" fill="white"/>
<path d="M476.189 86.0399V103.05C476.189 104.58 474.929 105.93 473.309 105.93H444.509L438.029 109.44V105.93H437.399C435.869 105.93 434.609 104.67 434.609 103.05V86.0399C434.609 84.5099 435.869 83.1599 437.399 83.1599H473.219C474.929 83.2499 476.189 84.5099 476.189 86.0399Z" fill="#060405"/>
<path d="M439.922 91.1701C439.922 91.8001 440.462 92.34 441.092 92.34H469.622C470.252 92.34 470.792 91.8001 470.792 91.1701C470.792 90.8101 470.702 90.54 470.432 90.36C470.252 90.18 469.892 90 469.622 90H441.092C440.462 89.91 439.922 90.4501 439.922 91.1701ZM463.772 96.3C463.772 95.67 464.312 95.13 464.942 95.13H469.622C470.432 95.13 470.972 95.85 470.792 96.66C470.612 97.2 470.162 97.4701 469.622 97.4701H464.942C464.312 97.5601 463.772 97.02 463.772 96.3ZM453.242 95.13H459.002C459.632 95.13 460.172 95.67 460.172 96.3C460.172 96.93 459.632 97.4701 459.002 97.4701H453.152C452.432 97.4701 451.892 96.8401 451.982 96.1201C452.072 95.5801 452.612 95.13 453.242 95.13Z" fill="white"/>
<path d="M118.98 77.3101H81.4497C81.2697 77.3101 81.0897 77.1301 81.0897 76.9501C81.0897 76.7701 81.2697 76.5901 81.4497 76.5901H118.98C119.16 76.5901 119.34 76.7701 119.34 76.9501C119.34 77.1301 119.16 77.3101 118.98 77.3101ZM118.98 95.9401H81.4497C81.2697 95.9401 81.0897 95.7601 81.0897 95.5801C81.0897 95.4001 81.2697 95.2201 81.4497 95.2201H118.98C119.16 95.2201 119.34 95.4001 119.34 95.5801C119.34 95.7601 119.16 95.9401 118.98 95.9401ZM112.14 86.5801H59.0397C58.8597 86.5801 58.6797 86.4001 58.6797 86.2201C58.6797 86.0401 58.8597 85.8601 59.0397 85.8601H112.14C112.32 85.8601 112.5 86.0401 112.5 86.2201C112.5 86.4001 112.32 86.5801 112.14 86.5801Z" fill="#25E498"/>
<path d="M89.1881 77.3099C89.0081 77.3099 88.8281 77.1299 88.8281 76.9499V69.0299C88.8281 68.8499 89.0081 68.6699 89.1881 68.6699C89.3681 68.6699 89.5481 68.8499 89.5481 69.0299V76.9499C89.5481 77.1299 89.3681 77.3099 89.1881 77.3099ZM102.328 86.5799C102.148 86.5799 101.968 86.3999 101.968 86.2199V76.9499C101.968 76.7699 102.148 76.5899 102.328 76.5899C102.508 76.5899 102.688 76.7699 102.688 76.9499V86.2199C102.688 86.4899 102.508 86.5799 102.328 86.5799ZM92.3381 95.5799C92.1581 95.5799 91.9781 95.3999 91.9781 95.2199V86.2199C91.9781 86.0399 92.1581 85.8599 92.3381 85.8599C92.5181 85.8599 92.6981 86.0399 92.6981 86.2199V95.2199C92.6981 95.4899 92.5181 95.5799 92.3381 95.5799ZM248.218 272.43H210.688C210.508 272.43 210.328 272.25 210.328 272.07C210.328 271.89 210.508 271.71 210.688 271.71H248.218C248.398 271.71 248.578 271.89 248.578 272.07C248.578 272.25 248.398 272.43 248.218 272.43ZM248.218 291.06H210.688C210.508 291.06 210.328 290.88 210.328 290.7C210.328 290.52 210.508 290.34 210.688 290.34H248.218C248.398 290.34 248.578 290.52 248.578 290.7C248.578 290.88 248.398 291.06 248.218 291.06ZM241.468 281.79H188.368C188.188 281.79 188.008 281.61 188.008 281.43C188.008 281.25 188.188 281.07 188.368 281.07H241.468C241.648 281.07 241.828 281.25 241.828 281.43C241.828 281.61 241.648 281.79 241.468 281.79Z" fill="#25E498"/>
<path d="M218.43 272.43C218.25 272.43 218.07 272.25 218.07 272.07V264.15C218.07 263.97 218.25 263.79 218.43 263.79C218.61 263.79 218.79 263.97 218.79 264.15V272.07C218.79 272.34 218.61 272.43 218.43 272.43ZM231.66 281.79C231.48 281.79 231.3 281.61 231.3 281.43V272.16C231.3 271.98 231.48 271.8 231.66 271.8C231.84 271.8 232.02 271.98 232.02 272.16V281.43C232.02 281.61 231.84 281.79 231.66 281.79ZM221.58 290.79C221.4 290.79 221.22 290.61 221.22 290.43V281.43C221.22 281.25 221.4 281.07 221.58 281.07C221.76 281.07 221.94 281.25 221.94 281.43V290.43C221.94 290.61 221.76 290.79 221.58 290.79ZM392.58 317.52H355.05C354.87 317.52 354.69 317.34 354.69 317.16C354.69 316.98 354.87 316.8 355.05 316.8H392.58C392.76 316.8 392.94 316.98 392.94 317.16C392.94 317.34 392.76 317.52 392.58 317.52ZM392.58 336.15H355.05C354.87 336.15 354.69 335.97 354.69 335.79C354.69 335.61 354.87 335.43 355.05 335.43H392.58C392.76 335.43 392.94 335.61 392.94 335.79C392.94 335.97 392.76 336.15 392.58 336.15ZM385.74 326.79H332.64C332.46 326.79 332.28 326.61 332.28 326.43C332.28 326.25 332.46 326.07 332.64 326.07H385.74C385.92 326.07 386.1 326.25 386.1 326.43C386.1 326.61 385.92 326.79 385.74 326.79Z" fill="#25E498"/>
<path d="M362.79 317.52C362.61 317.52 362.43 317.34 362.43 317.16V309.24C362.43 309.06 362.61 308.88 362.79 308.88C362.97 308.88 363.15 309.06 363.15 309.24V317.16C363.15 317.34 362.97 317.52 362.79 317.52ZM375.93 326.79C375.75 326.79 375.57 326.61 375.57 326.43V317.16C375.57 316.98 375.75 316.8 375.93 316.8C376.11 316.8 376.29 316.98 376.29 317.16V326.43C376.29 326.7 376.2 326.79 375.93 326.79ZM365.94 335.79C365.76 335.79 365.58 335.61 365.58 335.43V326.43C365.58 326.25 365.76 326.07 365.94 326.07C366.12 326.07 366.3 326.25 366.3 326.43V335.43C366.3 335.61 366.12 335.79 365.94 335.79Z" fill="#25E498"/>
</svg>
