<svg width="525" height="380" viewBox="0 0 525 380" fill="none" xmlns="http://www.w3.org/2000/svg">
<path opacity="0.3" d="M499.065 378.56C500.188 373.863 500.086 368.555 498.554 364.063C495.389 354.262 488.447 346.197 485.283 336.397C477.013 311.078 495.389 285.76 504.271 260.646C513.153 235.634 512.438 206.845 502.331 182.343C492.225 157.842 472.828 137.73 449.347 127.521C435.259 121.396 417.903 117.006 411.982 102.101C401.671 75.9661 437.709 47.6873 426.989 21.7566C423.008 12.2622 413.411 6.44313 403.713 5.01388C394.014 3.48254 384.112 5.62642 374.617 8.28074C342.153 17.0604 311.016 31.0467 278.449 39.4181C245.883 47.7894 210.457 50.2395 179.524 36.5595C154.819 25.636 133.584 4.70761 106.939 1.33865C83.9685 -1.51986 59.9775 10.6288 47.7267 31.353C35.476 52.0772 35.6802 80.2539 48.2372 100.672C53.5458 109.349 60.7942 116.598 65.4903 125.684C79.7829 153.35 66.307 187.754 48.9518 213.379C31.5966 239.003 9.54525 263.3 4.84913 294.336C1.58226 315.979 8.01391 339.051 21.6939 355.487C31.0861 366.717 43.8473 374.782 57.5273 378.457H499.065V378.56Z" fill="#86E9DC"/>
<path d="M424.017 247.375H382.365C382.16 247.375 381.956 247.17 381.956 246.966C381.956 246.762 382.16 246.558 382.365 246.558H424.017C424.221 246.558 424.425 246.762 424.425 246.966C424.425 247.17 424.221 247.375 424.017 247.375ZM424.017 267.997H382.365C382.16 267.997 381.956 267.792 381.956 267.588C381.956 267.384 382.16 267.18 382.365 267.18H424.017C424.221 267.18 424.425 267.384 424.425 267.588C424.425 267.792 424.221 267.997 424.017 267.997ZM416.462 257.686H357.557C357.353 257.686 357.148 257.481 357.148 257.277C357.148 257.073 357.353 256.869 357.557 256.869H416.462C416.667 256.869 416.871 257.073 416.871 257.277C416.871 257.481 416.667 257.686 416.462 257.686Z" fill="#25E498"/>
<path d="M390.957 247.375C390.753 247.375 390.549 247.171 390.549 246.966V238.187C390.549 237.983 390.753 237.778 390.957 237.778C391.161 237.778 391.366 237.983 391.366 238.187V246.966C391.366 247.171 391.161 247.375 390.957 247.375ZM405.556 257.686C405.352 257.686 405.148 257.482 405.148 257.277V246.966C405.148 246.762 405.352 246.558 405.556 246.558C405.76 246.558 405.964 246.762 405.964 246.966V257.277C405.964 257.482 405.76 257.686 405.556 257.686ZM394.428 267.691C394.224 267.691 394.02 267.486 394.02 267.282V257.277C394.02 257.073 394.224 256.869 394.428 256.869C394.633 256.869 394.837 257.073 394.837 257.277V267.282C394.837 267.486 394.633 267.691 394.428 267.691ZM440.369 113.842H398.716C398.512 113.842 398.308 113.637 398.308 113.433C398.308 113.229 398.512 113.025 398.716 113.025H440.369C440.573 113.025 440.777 113.229 440.777 113.433C440.777 113.637 440.573 113.842 440.369 113.842ZM440.369 134.464H398.716C398.512 134.464 398.308 134.26 398.308 134.055C398.308 133.851 398.512 133.647 398.716 133.647H440.369C440.573 133.647 440.777 133.851 440.777 134.055C440.777 134.26 440.573 134.464 440.369 134.464ZM432.814 124.153H373.908C373.704 124.153 373.5 123.948 373.5 123.744C373.5 123.54 373.704 123.336 373.908 123.336H432.814C433.018 123.336 433.222 123.54 433.222 123.744C433.222 123.948 433.018 124.153 432.814 124.153Z" fill="#25E498"/>
<path d="M407.283 113.841C407.079 113.841 406.875 113.637 406.875 113.433V104.653C406.875 104.449 407.079 104.245 407.283 104.245C407.488 104.245 407.692 104.449 407.692 104.653V113.433C407.692 113.637 407.488 113.841 407.283 113.841ZM421.882 124.152C421.678 124.152 421.474 123.948 421.474 123.744V113.433C421.474 113.229 421.678 113.025 421.882 113.025C422.086 113.025 422.291 113.229 422.291 113.433V123.744C422.291 124.05 422.086 124.152 421.882 124.152ZM410.754 134.157C410.55 134.157 410.346 133.953 410.346 133.749V123.744C410.346 123.54 410.55 123.336 410.754 123.336C410.959 123.336 411.163 123.54 411.163 123.744V133.749C411.163 133.953 410.959 134.157 410.754 134.157Z" fill="#25E498"/>
<path d="M398.693 29.6174V204.395C398.693 210.316 393.894 215.114 387.973 215.114H133.77C127.849 215.114 123.051 210.316 123.051 204.395V29.6174C123.051 23.6962 127.849 18.8979 133.77 18.8979H387.973C393.894 18.8979 398.693 23.6962 398.693 29.6174Z" fill="#E6D6F5"/>
<path d="M497.933 378.559L473.228 318.633L471.492 319.347L495.994 378.559H497.933Z" fill="#060405"/>
<path d="M437.615 313.222H415.972C415.258 306.076 423.731 303.013 423.731 303.013V298.215H437.003C436.901 298.215 437.411 313.222 437.615 313.222Z" fill="#9F28EE"/>
<path d="M416.173 310.16C415.866 311.078 415.764 312.099 415.866 313.222H437.509C437.509 313.222 437.407 311.895 437.305 310.16H416.173Z" fill="#060405"/>
<path d="M455.167 202.353L453.227 210.418C453.227 210.418 414.535 228.386 408.614 239.309C401.059 253.398 423.621 299.951 423.621 299.951H436.893L435.668 255.95L465.376 234.001L484.671 325.371H497.942L499.269 202.353H455.167Z" fill="#060405"/>
<path d="M498.545 338.438H476.902C476.188 331.292 484.661 328.229 484.661 328.229V323.329H497.933C497.83 323.329 498.341 338.438 498.545 338.438Z" fill="#9F28EE"/>
<path d="M477.098 335.274C476.792 336.193 476.69 337.214 476.792 338.336H498.435C498.435 338.336 498.333 337.009 498.231 335.274H477.098Z" fill="#060405"/>
<path d="M464.657 154.269C464.657 154.269 455.162 173.155 449.649 177.035C441.584 182.65 411.162 186.019 411.162 186.019L407.078 179.485L441.482 166.724L447.506 149.675L464.657 154.269Z" fill="white"/>
<path d="M410.965 186.529L406.371 179.179L441.184 166.316L447.207 149.063L465.379 153.963L465.073 154.473C464.664 155.29 455.476 173.462 449.861 177.444C441.694 183.058 412.394 186.427 411.169 186.529H410.965ZM407.902 179.689L411.476 185.407C414.742 184.998 441.898 181.731 449.351 176.525C454.251 173.156 462.316 157.638 463.95 154.575L447.922 150.288L442 167.132L407.902 179.689Z" fill="#060405"/>
<path d="M460.785 133.341C460.785 133.341 451.086 137.118 444.246 150.288L458.845 161.722L465.991 143.958L460.785 133.341Z" fill="#9F28EE"/>
<path d="M458.338 135.076C467.117 126.705 500.092 129.87 505.605 134.566C511.118 139.262 501.215 206.335 501.215 206.335C501.215 208.581 452.927 208.581 452.927 206.335C452.927 206.335 449.66 143.345 458.338 135.076Z" fill="#9F28EE"/>
<path d="M465.459 93.4238C463.213 96.3844 465.868 105.266 465.357 108.329C464.847 112.004 462.907 124.561 469.645 123.949C476.383 123.234 479.139 117.415 479.65 115.781C480.16 114.148 477.812 98.9367 477.812 98.9367L473.524 92.9134C473.626 92.9134 466.684 91.7904 465.459 93.4238Z" fill="#060405"/>
<path d="M476.385 120.783C476.385 120.783 479.346 128.44 478.529 129.767C477.713 130.992 464.237 141.916 471.791 144.162C479.346 146.408 492.107 130.686 492.107 130.686C492.107 130.686 487.105 118.844 486.084 115.373C485.063 111.902 476.385 120.783 476.385 120.783Z" fill="white"/>
<path d="M473.342 144.774C472.729 144.774 472.219 144.672 471.708 144.57C470.279 144.162 469.36 143.345 469.156 142.324C468.339 139.057 473.852 133.749 476.71 130.89C477.425 130.176 478.038 129.563 478.14 129.359C478.548 128.746 477.323 124.459 475.894 120.885L475.792 120.579L475.996 120.375C477.119 119.252 483.04 113.433 485.49 114.045C485.899 114.147 486.307 114.454 486.511 115.168C487.43 118.537 492.432 130.278 492.432 130.38L492.534 130.686L492.33 130.89C491.922 131.605 481.1 144.774 473.342 144.774ZM476.915 120.885C477.731 123.029 479.773 128.644 478.956 129.971C478.752 130.278 478.344 130.686 477.323 131.605C474.771 134.157 469.36 139.262 469.973 142.018C470.177 142.733 470.789 143.243 471.81 143.549C478.446 145.489 489.778 132.422 491.309 130.482C490.493 128.644 486.307 118.639 485.388 115.475C485.286 115.168 485.184 115.066 485.082 115.066C483.857 114.76 479.671 118.231 476.915 120.885Z" fill="#060405"/>
<path d="M488.036 116.088C488.036 116.088 477.623 125.276 473.029 122.928C468.333 120.682 465.474 101.489 468.027 94.9552C470.579 88.4214 481.298 84.7462 481.298 84.7462L490.282 91.8925L488.036 116.088Z" fill="white"/>
<path d="M474.659 123.846C473.944 123.846 473.331 123.744 472.719 123.438C467.717 120.988 464.756 101.591 467.512 94.8527C470.167 88.2169 480.58 84.4395 481.09 84.3374L481.397 84.2354L490.789 91.6879L488.645 116.394L488.543 116.496C487.93 116.802 479.967 123.846 474.659 123.846ZM481.09 85.3583C479.457 85.9709 470.677 89.544 468.431 95.261C465.777 101.897 469.044 120.579 473.127 122.519C476.7 124.254 484.561 118.435 487.42 115.883L489.462 92.1983L481.09 85.3583Z" fill="#060405"/>
<path d="M509.581 124.152C504.272 127.113 488.959 129.461 485.181 125.173C481.404 120.885 486.509 115.066 486.304 112.106C486.202 109.145 480.485 109.349 484.365 105.47C488.244 101.59 485.998 95.6693 481.812 95.6693C477.627 95.6693 462.007 99.6507 462.722 93.9337C463.436 88.1146 463.13 85.0519 469.97 81.4788C476.81 77.9057 481.2 82.806 482.629 83.0102C484.058 83.2143 496.922 79.1308 499.066 85.8687C501.209 92.6066 502.128 99.6508 503.864 102.407C505.701 105.164 515.196 121.09 509.581 124.152ZM421.375 378.559L435.158 319.245L433.422 318.837L419.538 378.559H421.375ZM395.138 378.559L408.921 319.245L407.185 318.837L393.301 378.559H395.138ZM473.441 378.559L448.633 318.633L447 319.347L471.501 378.559H473.441Z" fill="#060405"/>
<path d="M398.184 313.222H421.766V319.654H398.184V313.222Z" fill="#060405"/>
<path d="M421.773 313.222H475.064V319.654H421.773V313.222Z" fill="#1AC1C1"/>
<path d="M425.051 338.438H450.777V344.87H425.051V338.438Z" fill="#060405"/>
<path d="M450.762 338.438H506.401V344.87H450.762V338.438Z" fill="#1AC1C1"/>
<path d="M376.345 168.868L397.682 180.302C400.132 181.629 401.051 184.692 399.724 187.142C398.396 189.592 395.334 190.511 392.884 189.183L371.547 177.749L376.345 168.868Z" fill="#060405"/>
<path opacity="0.1" d="M371.768 177.954L377.485 181.016C378.403 179.689 379.322 178.158 380.139 176.729C380.956 175.197 381.67 173.666 382.283 172.135L376.566 169.072C374.422 168.766 372.176 169.889 371.155 171.93C370.44 173.258 370.338 174.789 370.747 176.116C370.951 176.626 371.257 177.341 371.768 177.954Z" fill="black"/>
<path d="M313.342 191.94C337.333 204.803 367.144 195.82 380.007 171.931C392.87 148.042 383.886 118.129 359.997 105.266C336.108 92.4029 306.196 101.387 293.333 125.276C280.47 149.165 289.351 179.077 313.342 191.94ZM318.549 182.14C299.969 172.135 293.027 149.063 303.031 130.482C313.036 111.902 336.108 104.96 354.689 114.965C373.269 124.969 380.211 148.042 370.206 166.622C360.304 185.202 337.129 192.144 318.549 182.14Z" fill="white"/>
<path d="M317.347 184.488C337.152 195.207 361.96 187.755 372.577 167.949C383.296 148.144 375.844 123.336 355.936 112.719C336.029 102.101 311.323 109.452 300.706 129.359C290.089 149.063 297.541 173.87 317.347 184.488ZM318.572 182.14C299.991 172.135 293.049 149.063 303.054 130.482C313.059 111.902 336.131 104.96 354.711 114.965C373.292 124.969 380.234 148.042 370.229 166.622C360.326 185.202 337.152 192.144 318.572 182.14Z" fill="#EAF4FE"/>
<path d="M388.602 191.736L427.498 212.664C431.99 215.115 437.707 213.379 440.157 208.887C442.608 204.395 440.872 198.678 436.38 196.228L397.484 175.3C392.992 172.85 387.275 174.585 384.825 179.077C383.6 181.323 383.396 183.875 384.11 186.223C384.723 188.469 386.254 190.511 388.602 191.736Z" fill="#060405"/>
<path d="M502.733 167.132C498.241 176.627 495.485 181.016 491.095 183.569C480.58 189.694 442.398 194.288 442.398 194.288C442.398 194.288 434.333 203.272 431.168 197.249C427.902 191.225 437.396 188.571 437.396 188.571C437.396 188.571 435.456 187.856 436.477 186.121C437.498 184.385 440.765 187.346 440.765 187.346C440.765 187.346 480.784 172.543 480.784 172.237C480.784 171.93 485.48 163.457 489.666 153.759L502.733 167.132Z" fill="white"/>
<path d="M434.332 199.801H433.821C432.494 199.597 431.473 198.882 430.759 197.453C429.942 195.922 429.84 194.39 430.452 192.961C431.575 190.409 434.638 188.979 436.271 188.367C436.067 188.163 435.863 187.856 435.761 187.55C435.557 186.938 435.659 186.325 436.067 185.713C436.374 185.304 436.68 184.998 437.19 184.998C438.517 184.794 440.253 186.121 440.865 186.733C455.975 181.119 478.434 172.849 480.374 171.828C480.476 171.522 480.782 171.012 481.395 169.685C483.028 166.418 486.193 160.292 489.154 153.452L489.46 152.738L503.344 167.03L503.242 167.336C498.954 176.422 496.096 181.323 491.4 183.977C481.191 189.898 445.97 194.288 442.703 194.696C441.886 195.615 437.803 199.801 434.332 199.801ZM437.394 186.019H437.292C437.088 186.019 436.986 186.121 436.884 186.325C436.68 186.733 436.578 187.04 436.68 187.244C436.884 187.754 437.497 188.061 437.497 188.061L438.926 188.571L437.497 188.979C437.497 188.979 432.596 190.409 431.269 193.267C430.759 194.39 430.861 195.615 431.575 196.84C432.188 197.963 432.903 198.576 433.923 198.678C437.292 199.086 441.988 193.88 441.988 193.88L442.091 193.778H442.295C442.703 193.778 480.578 189.184 490.787 183.16C495.075 180.608 497.934 176.014 502.017 167.234L489.766 154.575C486.908 161.109 483.947 167.03 482.314 170.195C481.803 171.216 481.293 172.135 481.293 172.339C480.987 172.849 477.822 174.279 440.968 187.856L440.661 187.959L440.457 187.754C439.64 187.04 438.211 186.019 437.394 186.019Z" fill="#060405"/>
<path d="M508.859 150.798C507.736 156.617 507.124 162.64 504.265 168.459C503.142 169.582 486.502 155.698 486.195 153.656C490.585 143.448 496.915 133.034 501.815 132.83C501.815 132.83 512.228 133.953 508.859 150.798Z" fill="#9F28EE"/>
<path d="M488.244 156.923C485.793 154.269 485.691 153.861 485.691 153.758V153.656L485.794 153.554C487.529 149.573 489.469 145.693 491.408 142.529L492.327 143.039C490.49 146.102 488.652 149.777 486.916 153.656C487.121 153.963 488.039 155.086 489.162 156.209L488.244 156.923Z" fill="#060405"/>
<path d="M481.611 102.474C481.645 101.572 481.17 100.823 480.55 100.799C479.93 100.776 479.4 101.488 479.366 102.389C479.332 103.291 479.807 104.04 480.427 104.064C481.047 104.087 481.577 103.375 481.611 102.474Z" fill="#060405"/>
<path d="M472.025 103.519C472.059 102.617 471.584 101.867 470.964 101.844C470.344 101.821 469.814 102.533 469.78 103.434C469.746 104.336 470.221 105.085 470.841 105.109C471.461 105.132 471.991 104.42 472.025 103.519Z" fill="#060405"/>
<path d="M475.086 109.86C474.882 109.86 474.677 109.758 474.473 109.656C473.861 109.145 474.065 108.329 474.167 108.022C474.575 106.593 474.575 105.062 474.371 103.632C474.371 103.326 474.473 103.122 474.78 103.02C475.086 103.02 475.29 103.122 475.392 103.428C475.698 104.96 475.596 106.695 475.188 108.226C475.086 108.635 475.086 108.839 475.086 108.839H475.188L475.596 108.431C475.8 108.226 476.107 108.226 476.311 108.329C476.515 108.431 476.515 108.839 476.413 109.043C476.209 109.247 476.005 109.452 475.698 109.656C475.494 109.86 475.29 109.86 475.086 109.86ZM476.923 117.21C476.311 117.21 475.596 117.108 474.984 116.802C474.78 116.7 474.575 116.394 474.78 116.087C474.882 115.883 475.188 115.679 475.494 115.883C477.128 116.598 479.272 115.985 480.19 114.454C480.292 114.25 480.599 114.148 480.905 114.25C481.109 114.352 481.211 114.658 481.109 114.964C480.19 116.394 478.557 117.21 476.923 117.21Z" fill="#060405"/>
<path opacity="0.05" d="M258.537 49.8309V112.82C258.537 117.21 254.964 120.783 250.574 120.783H121.941V41.7659H250.574C254.964 41.868 258.537 45.4411 258.537 49.8309Z" fill="black"/>
<path d="M255.371 46.0542V109.043C255.371 113.433 251.798 117.006 247.408 117.006H104.483C100.093 117.006 96.5195 113.433 96.5195 109.043V46.0542C96.5195 41.6644 100.093 38.0912 104.483 38.0912H247.306C251.798 37.9892 255.371 41.5623 255.371 46.0542Z" fill="#F6CC61"/>
<path d="M155.74 78.0078C155.74 91.4836 144.817 102.407 131.341 102.407C117.865 102.407 106.941 91.4836 106.941 78.0078C106.941 64.532 117.865 53.6084 131.341 53.6084C144.817 53.7105 155.74 64.6341 155.74 78.0078Z" fill="white"/>
<path d="M162.159 78.0081H131.328V47.177C148.377 47.177 162.159 61.0612 162.159 78.0081Z" fill="#9F28EE"/>
<path d="M137.34 103.734C123.149 107.103 108.959 98.2213 105.59 84.0308L131.316 78.0076L137.34 103.734Z" fill="#FA58E0"/>
<path d="M180.55 65.2469H171.566C170.851 65.2469 170.137 64.6344 170.137 63.8177V54.8338C170.137 54.1192 170.749 53.4045 171.566 53.4045H180.55C181.264 53.4045 181.979 54.0171 181.979 54.8338V63.8177C181.979 64.6344 181.367 65.2469 180.55 65.2469ZM249.256 57.2839C249.256 57.7944 248.848 58.2028 248.337 58.2028H188.104C187.594 58.2028 187.186 57.7944 187.186 57.2839C187.186 56.7735 187.594 56.3651 188.104 56.3651H248.337C248.848 56.3651 249.256 56.7735 249.256 57.2839ZM216.894 61.3675C216.894 61.878 216.485 62.2863 215.975 62.2863H188.207C187.696 62.2863 187.288 61.878 187.288 61.3675C187.288 60.8571 187.696 60.4487 188.207 60.4487H215.975C216.383 60.4487 216.894 60.8571 216.894 61.3675Z" fill="white"/>
<path d="M180.55 82.7047H171.566C170.851 82.7047 170.137 82.0921 170.137 81.2754V73.0062C170.137 72.2915 170.749 71.5769 171.566 71.5769H180.55C181.264 71.5769 181.979 72.1894 181.979 73.0062V81.2754C181.979 82.0921 181.367 82.7047 180.55 82.7047Z" fill="white"/>
<path d="M249.235 75.4554C249.235 75.9659 248.826 76.3742 248.316 76.3742H188.083C187.572 76.3742 187.164 75.9659 187.164 75.4554C187.164 74.945 187.572 74.5366 188.083 74.5366H248.316C248.826 74.5366 249.235 74.945 249.235 75.4554ZM216.872 79.539C216.872 80.0495 216.464 80.4578 215.953 80.4578H188.185C187.675 80.4578 187.266 80.0495 187.266 79.539C187.266 79.0286 187.675 78.6202 188.185 78.6202H215.953C216.362 78.6202 216.872 79.0286 216.872 79.539Z" fill="white"/>
<path d="M180.55 101.591H171.566C170.851 101.591 170.137 100.978 170.137 100.162V91.1777C170.137 90.463 170.749 89.7484 171.566 89.7484H180.55C181.264 89.7484 181.979 90.3609 181.979 91.1777V100.162C181.979 100.978 181.367 101.591 180.55 101.591Z" fill="white"/>
<path d="M249.235 93.6279C249.235 94.1384 248.826 94.5467 248.316 94.5467H188.083C187.572 94.5467 187.164 94.1384 187.164 93.6279C187.164 93.1175 187.572 92.7091 188.083 92.7091H248.316C248.826 92.7091 249.235 93.1175 249.235 93.6279ZM216.872 97.7115C216.872 98.222 216.464 98.6303 215.953 98.6303H188.185C187.675 98.6303 187.266 98.222 187.266 97.7115C187.266 97.2011 187.675 96.7927 188.185 96.7927H215.953C216.362 96.7927 216.872 97.2011 216.872 97.7115Z" fill="white"/>
<path d="M450.162 83.3167H278.448C274.875 83.3167 271.914 80.3561 271.914 76.7829V21.042C271.914 17.4689 274.875 14.5083 278.448 14.5083H450.162C453.736 14.5083 456.696 17.4689 456.696 21.042V76.885C456.696 80.3561 453.736 83.3167 450.162 83.3167Z" fill="#12A67C"/>
<path d="M305.103 69.6363C316.549 69.6363 325.827 60.3578 325.827 48.9122C325.827 37.4665 316.549 28.188 305.103 28.188C293.657 28.188 284.379 37.4665 284.379 48.9122C284.379 60.3578 293.657 69.6363 305.103 69.6363Z" fill="white"/>
<path d="M305.078 47.3812C307.616 47.3812 309.672 45.3244 309.672 42.7871C309.672 40.2499 307.616 38.1931 305.078 38.1931C302.541 38.1931 300.484 40.2499 300.484 42.7871C300.484 45.3244 302.541 47.3812 305.078 47.3812Z" fill="#FE6021"/>
<path d="M317.238 60.1424C316.319 54.3232 311.214 49.8313 305.191 49.8313C299.168 49.8313 294.063 54.3232 293.145 60.1424H317.238Z" fill="#FE6021"/>
<path d="M348.885 30.9444L350.62 34.5176C350.722 34.8238 351.029 35.028 351.335 35.028L355.316 35.6405C356.133 35.7426 356.439 36.7635 355.827 37.3761L352.968 40.1325C352.764 40.3367 352.662 40.6429 352.662 41.0513L353.377 45.0328C353.479 45.8495 352.662 46.462 351.948 46.0537L348.374 44.2161C348.068 44.0119 347.762 44.0119 347.456 44.2161L343.882 46.0537C343.168 46.462 342.249 45.8495 342.453 45.0328L343.168 41.0513C343.27 40.745 343.066 40.4387 342.862 40.1325L340.003 37.3761C339.391 36.7635 339.697 35.7426 340.514 35.6405L344.495 35.028C344.801 35.028 345.108 34.8238 345.21 34.5176L346.945 30.9444C347.456 30.2298 348.476 30.2298 348.885 30.9444ZM391.048 30.9444L392.783 34.5176C392.885 34.8238 393.192 35.028 393.498 35.028L397.479 35.6405C398.296 35.7426 398.602 36.7635 397.99 37.3761L395.131 40.1325C394.927 40.3367 394.825 40.6429 394.825 41.0513L395.54 45.0328C395.642 45.8495 394.825 46.462 394.111 46.0537L390.537 44.2161C390.231 44.0119 389.925 44.0119 389.619 44.2161L386.045 46.0537C385.331 46.462 384.412 45.8495 384.616 45.0328L385.331 41.0513C385.433 40.745 385.229 40.4387 385.025 40.1325L382.166 37.3761C381.553 36.7635 381.86 35.7426 382.676 35.6405L386.658 35.028C386.964 35.028 387.271 34.8238 387.373 34.5176L389.108 30.9444C389.619 30.2298 390.639 30.2298 391.048 30.9444ZM370.426 30.9444L372.161 34.5176C372.263 34.8238 372.57 35.028 372.876 35.028L376.857 35.6405C377.674 35.7426 377.98 36.7635 377.368 37.3761L374.509 40.1325C374.305 40.3367 374.203 40.6429 374.203 41.0513L374.918 45.0328C375.02 45.8495 374.203 46.462 373.488 46.0537L369.915 44.2161C369.609 44.0119 369.303 44.0119 368.996 44.2161L365.423 46.0537C364.709 46.462 363.79 45.8495 363.994 45.0328L364.709 41.0513C364.811 40.745 364.607 40.4387 364.402 40.1325L361.544 37.3761C360.931 36.7635 361.238 35.7426 362.054 35.6405L366.036 35.028C366.342 35.028 366.648 34.8238 366.751 34.5176L368.486 30.9444C368.996 30.2298 370.119 30.2298 370.426 30.9444ZM412.18 30.9444L413.916 34.5176C414.018 34.8238 414.324 35.028 414.631 35.028L418.612 35.6405C419.429 35.7426 419.735 36.7635 419.122 37.3761L416.264 40.1325C416.06 40.3367 415.958 40.6429 415.958 41.0513L416.672 45.0328C416.774 45.8495 415.958 46.462 415.243 46.0537L411.67 44.2161C411.364 44.0119 411.057 44.0119 410.751 44.2161L407.178 46.0537C406.463 46.462 405.545 45.8495 405.749 45.0328L406.463 41.0513C406.565 40.745 406.361 40.4387 406.157 40.1325L403.299 37.3761C402.686 36.7635 402.992 35.7426 403.809 35.6405L407.791 35.028C408.097 35.028 408.403 34.8238 408.505 34.5176L410.241 30.9444C410.751 30.2298 411.772 30.2298 412.18 30.9444ZM433.211 30.9444L434.946 34.5176C435.048 34.8238 435.355 35.028 435.661 35.028L439.642 35.6405C440.459 35.7426 440.765 36.7635 440.153 37.3761L437.294 40.1325C437.09 40.3367 436.988 40.6429 436.988 41.0513L437.703 45.0328C437.805 45.8495 436.988 46.462 436.273 46.0537L432.7 44.2161C432.394 44.0119 432.088 44.0119 431.782 44.2161L428.208 46.0537C427.494 46.462 426.575 45.8495 426.779 45.0328L427.494 41.0513C427.596 40.745 427.392 40.4387 427.188 40.1325L424.329 37.3761C423.716 36.7635 424.023 35.7426 424.839 35.6405L428.821 35.028C429.127 35.028 429.433 34.8238 429.536 34.5176L431.271 30.9444C431.782 30.2298 432.905 30.2298 433.211 30.9444ZM339.697 53.9146H444.441V58.2023H339.697V53.9146ZM339.697 63.1026H380.737V67.3904H339.697V63.1026Z" fill="white"/>
<path d="M30.164 365.696L44.4565 263.811L62.118 365.696H75.3896L80.392 228.284H14.8505C14.1359 229.815 11.7879 246.966 11.8899 263.198C11.992 298.011 15.5652 352.22 16.8923 365.9L30.164 365.696Z" fill="#060405"/>
<path d="M30.6837 367.943V365.594H16.9016C16.6974 370.086 16.3912 378.56 16.2891 378.56H38.7488C39.5655 371.209 30.6837 367.943 30.6837 367.943Z" fill="#FE6021"/>
<path d="M38.4425 375.395C38.7488 376.415 38.8509 377.436 38.7488 378.661H16.2891C16.2891 378.661 16.3912 377.334 16.4932 375.395H38.4425Z" fill="#060405"/>
<path d="M75.9069 367.943V365.594H62.0227C61.8185 370.086 61.5122 378.56 61.4102 378.56H83.972C84.6866 371.209 75.9069 367.943 75.9069 367.943Z" fill="#FE6021"/>
<path d="M83.5485 375.395C83.8548 376.416 83.9569 377.437 83.8548 378.662H61.293C61.293 378.662 61.3951 377.335 61.4972 375.395H83.5485Z" fill="#060405"/>
<path d="M137.975 129.767C137.057 132.728 130.421 135.178 130.421 135.178L106.94 168.868C104.082 173.155 98.8751 175.197 93.8727 173.972L67.8398 167.642L82.7449 146.306C82.7449 146.306 95.3019 152.329 95.404 151.819C95.5061 151.308 121.947 125.684 121.947 125.684C121.947 125.684 119.293 117.925 121.335 117.516C123.479 117.21 125.01 120.171 125.01 120.171C125.01 120.171 134.811 105.062 136.444 106.287C138.894 108.022 132.258 120.579 132.258 120.579C132.258 120.579 138.894 126.909 137.975 129.767Z" fill="white"/>
<path d="M96.7315 174.789C95.7106 174.789 94.7918 174.687 93.7709 174.483L67.0234 167.949L82.6431 145.591L83.0515 145.795C88.2581 148.245 94.0772 150.9 95.2002 151.206C96.2211 149.981 100.713 145.387 121.437 125.377C120.927 123.846 119.497 119.15 120.416 117.517C120.62 117.21 120.927 116.904 121.335 116.904C123.071 116.598 124.398 118.129 125.112 119.048C127.256 115.781 133.892 105.98 136.138 105.572C136.444 105.47 136.751 105.572 136.853 105.674C139.405 107.512 134.505 117.517 133.075 120.273C134.403 121.6 139.507 126.909 138.588 129.869C137.669 132.83 131.952 135.076 130.932 135.484L107.553 169.072C105.001 172.747 100.917 174.789 96.7315 174.789ZM68.6569 167.336L93.9751 173.462C98.7733 174.585 103.776 172.645 106.532 168.561L130.115 134.77L130.217 134.668C131.952 134.055 136.751 131.809 137.465 129.665C138.078 127.725 134.403 123.234 131.952 120.886L131.646 120.579L131.85 120.273C134.913 114.454 137.465 107.512 136.138 106.593C135.015 106.695 129.706 113.739 125.419 120.375L124.908 121.09L124.5 120.273C124.5 120.273 123.071 117.619 121.437 117.925C121.335 117.925 121.335 117.925 121.233 118.027C120.62 119.048 121.641 123.029 122.458 125.275L122.56 125.582L122.356 125.786C112.249 135.586 97.0378 150.389 95.9148 151.717V151.819L95.7106 151.921C95.4043 152.023 94.996 152.329 83.0515 146.612L68.6569 167.336ZM95.0981 151.41C94.996 151.512 94.8939 151.614 94.8939 151.717C94.8939 151.717 94.8939 151.614 95.0981 151.41Z" fill="#060405"/>
<path d="M67.8398 139.466C67.8398 139.466 86.6243 145.796 88.9724 148.348C88.0536 158.965 84.0721 166.928 78.253 173.258" fill="#FE6021"/>
<path d="M82.8344 239.208C82.8344 245.945 12.3926 245.027 10.9634 237.982C10.9634 237.982 11.7801 214.298 10.0446 191.532H3.20457C3.10248 185.406 3.10248 172.237 3.81711 167.336C5.34845 156.107 8.41114 153.452 11.1676 149.471C12.2905 147.837 20.2535 141.508 25.358 139.67C29.5437 138.139 38.3234 136.301 42.7132 136.199C48.9407 135.995 72.115 136.199 77.2195 145.796C84.9783 160.803 82.8344 239.208 82.8344 239.208Z" fill="#FE6021"/>
<path d="M72.5273 214.808C72.5273 214.808 76.5088 208.07 79.7757 210.214C82.9405 212.256 78.2444 215.625 78.0402 215.727" fill="white"/>
<path d="M78.3569 216.033L77.6423 215.318L77.7444 215.216C79.9903 213.481 80.2966 212.358 80.2966 211.745C80.2966 211.235 79.9903 210.928 79.4799 210.52C78.9694 210.214 78.459 210.112 77.9485 210.214C75.4984 210.724 73.0482 214.91 72.9462 214.91L72.0273 214.399C72.1294 214.195 74.7838 209.908 77.6423 209.193C78.459 208.989 79.2757 209.193 79.9903 209.601C80.807 210.112 81.2154 210.826 81.3175 211.643C81.3175 213.072 80.2966 214.502 78.3569 216.033Z" fill="#060405"/>
<path d="M102.129 243.699H74.5646C72.5228 243.699 71.0935 241.76 71.604 239.82L81.8129 200.413C82.2213 199.086 83.3443 198.167 84.7735 198.167H112.338C114.38 198.167 115.809 200.107 115.298 202.047L105.089 241.453C104.783 242.781 103.558 243.699 102.129 243.699Z" fill="white"/>
<path d="M102.148 244.21H74.5833C72.2353 244.21 70.4997 241.964 71.1123 239.718L81.3212 200.311C81.7296 198.78 83.1589 197.657 84.7923 197.657H112.356C114.705 197.657 116.44 199.903 115.828 202.149L105.619 241.556C105.21 243.189 103.781 244.21 102.148 244.21ZM84.8944 198.678C83.7714 198.678 82.7505 199.495 82.4442 200.516L72.2353 239.922C71.8269 241.556 73.052 243.189 74.6854 243.189H102.25C103.373 243.189 104.393 242.372 104.7 241.351L114.909 201.945C115.317 200.311 114.092 198.678 112.459 198.678H84.8944Z" fill="#060405"/>
<path d="M77.9434 215.727C78.4539 215.727 93.9715 214.297 93.461 224.813C93.1548 232.265 71.5118 227.977 71.5118 227.977C71.5118 227.977 12.1977 232.673 4.23475 223.792C1.37624 220.525 3.11176 186.121 3.11176 186.121L28.8383 186.325V205.109L72.5327 214.706" fill="white"/>
<path d="M39.6502 229.815C24.1326 229.815 8.00239 228.692 3.91881 224.2C0.958212 220.933 2.48955 189.694 2.59164 186.121V185.61L29.237 185.814V204.701L72.523 214.195L72.3188 215.216L28.3182 205.518V186.835L3.61254 186.631C2.89791 200.413 2.69373 221.239 4.63343 223.485C12.3922 232.163 70.8896 227.569 71.5021 227.467H71.7063C71.9105 227.467 87.326 230.427 91.8179 226.854C92.5326 226.242 92.9409 225.527 92.9409 224.71C93.043 222.567 92.4305 220.729 91.0012 219.402C87.6323 216.135 80.8944 216.033 78.1379 216.237H77.9338V215.216H78.1379C80.9964 215.012 88.1427 215.114 91.8179 218.687C93.4514 220.218 94.166 222.362 94.0639 224.813C93.9618 225.935 93.4514 226.956 92.5326 227.671C87.7344 231.448 72.9314 228.692 71.6042 228.488C69.8687 228.692 55.0657 229.815 39.6502 229.815Z" fill="#060405"/>
<path d="M30.8648 194.288C31.2732 186.223 29.3335 169.582 27.2917 164.069C23.106 152.431 11.0595 149.675 11.0595 149.675C11.0595 149.675 4.21947 156.719 2.68812 167.847C2.07559 172.645 1.05469 186.631 1.05469 192.757C8.50723 194.9 19.7371 196.126 30.8648 194.288Z" fill="#FE6021"/>
<path d="M19.5496 195.718C13.1179 195.718 6.5842 194.901 0.867188 193.267L1.17346 192.247C9.95316 194.799 20.8767 195.309 30.3711 193.88C30.6773 185.815 28.7376 169.685 26.7979 164.274L27.7167 163.968C29.7585 169.583 31.8003 186.427 31.392 194.39V194.799L30.9836 194.901C27.3084 195.411 23.429 195.718 19.5496 195.718Z" fill="#060405"/>
<path d="M49.152 124.357C49.152 124.357 51.2959 132.83 53.746 136.607C55.5837 139.466 52.1126 144.877 48.9478 146.51C43.8434 149.164 33.7365 137.016 33.7365 137.016L33.3281 105.98L49.152 124.357Z" fill="white"/>
<path d="M47.3092 147.531C41.6943 147.531 33.7313 137.935 33.3229 137.526L33.2209 137.424L32.8125 104.756L49.5552 124.255V124.357C49.5552 124.459 51.6991 132.83 54.1492 136.506C54.7618 137.526 54.8639 138.752 54.5576 140.283C53.843 142.937 51.597 145.898 49.2489 147.123C48.6364 147.327 48.0239 147.531 47.3092 147.531ZM34.2418 136.914C37.1003 140.283 44.8591 148.144 48.7385 146.102C50.7803 144.979 52.9242 142.325 53.5367 139.875C53.7409 139.058 53.9451 137.833 53.3325 136.914C50.9845 133.341 48.9427 125.684 48.6364 124.561L33.8334 107.41L34.2418 136.914Z" fill="#060405"/>
<path d="M33.9517 102.509C34.258 102.917 36.6061 127.827 51.6132 126.092C66.6204 124.356 62.741 93.4231 56.0031 86.5831C49.2652 79.7431 35.6873 85.8685 35.6873 85.8685L31.1953 96.69L33.9517 102.509Z" fill="white"/>
<path d="M50.2809 126.705C42.0116 126.705 36.1925 118.537 33.6403 103.428C33.5382 103.02 33.5382 102.816 33.5382 102.714L30.6797 96.6903L35.3758 85.4604L35.58 85.3583C36.1925 85.0521 49.6684 79.1309 56.5084 86.1751C61.5107 91.2795 64.6755 108.124 61.0003 118.333C59.2648 123.234 56.1 126.092 51.8122 126.603C51.1997 126.705 50.7913 126.705 50.2809 126.705ZM34.457 102.305C34.5591 102.407 34.5591 102.611 34.6612 103.326C37.3155 118.946 43.1346 126.603 51.608 125.684C55.4875 125.275 58.346 122.723 59.9794 118.129C63.4504 108.431 60.3878 91.8921 55.6916 86.9918C49.7704 80.8664 37.7239 85.6646 36.0904 86.2771L31.8027 96.6903L34.457 102.305Z" fill="#060405"/>
<path d="M46.5638 104.249C47.1272 104.228 47.5576 103.525 47.525 102.68C47.4925 101.835 47.0094 101.167 46.446 101.189C45.8825 101.211 45.4521 101.913 45.4847 102.758C45.5172 103.604 46.0003 104.271 46.5638 104.249Z" fill="#060405"/>
<path d="M56.4817 104.25C57.0452 104.228 57.4755 103.526 57.443 102.68C57.4105 101.835 56.9274 101.168 56.3639 101.189C55.8005 101.211 55.3701 101.914 55.4026 102.759C55.4352 103.604 55.9183 104.272 56.4817 104.25Z" fill="#060405"/>
<path d="M51.4901 112.208L50.8776 111.391C51.286 111.085 51.7964 110.983 52.3069 110.983C52.6131 110.983 52.8173 110.779 52.8173 110.677C52.8173 110.574 52.6131 110.268 52.409 110.064C50.8776 108.431 50.163 106.082 50.6734 103.939L51.6943 104.143C51.286 105.98 51.7964 108.022 53.1236 109.349C53.4298 109.656 53.9403 110.166 53.8382 110.881C53.7361 111.391 53.2257 111.8 52.511 112.004C52.0006 112.106 51.6943 112.106 51.4901 112.208ZM48.4275 119.66C47.6107 119.252 46.8961 118.639 46.5898 117.721L47.5087 117.312C47.7128 117.925 48.2233 118.435 48.8358 118.64C49.4484 118.844 50.0609 118.946 50.6734 118.64L51.0818 119.558C50.163 119.967 49.2442 119.967 48.4275 119.66Z" fill="#060405"/>
<path d="M64.6537 90.7692C64.0412 91.1776 63.3266 91.4838 62.6119 91.688C56.6907 93.6277 40.7648 89.9525 40.2543 92.3005C39.7439 94.5465 38.8251 107.92 37.8042 106.287C35.8645 103.224 35.1498 98.0176 35.0478 106.899C35.1498 110.166 34.1289 122.825 34.1289 122.825C33.6185 121.294 30.6579 118.129 28.7182 114.76C25.2471 108.839 27.2889 93.0152 27.2889 93.0152C27.2889 93.0152 23.2054 89.5441 24.8388 85.971C26.4722 82.3979 51.9946 67.9011 57.3033 68.4116C62.3057 69.0241 59.5492 77.1913 59.3451 77.8038C59.7534 77.2934 63.6328 72.6994 65.2663 75.9662C66.5934 79.0289 69.1457 88.0128 64.6537 90.7692Z" fill="#060405"/>
<path d="M79.8477 155.668L80.8654 155.587L81.9706 169.53L80.9529 169.611L79.8477 155.668Z" fill="#060405"/>
<path d="M163.798 161.211H143.176C140.624 161.211 138.582 159.169 138.582 156.617V135.995C138.582 133.443 140.624 131.401 143.176 131.401H163.798C166.35 131.401 168.392 133.443 168.392 135.995V156.617C168.392 159.169 166.35 161.211 163.798 161.211ZM176.355 136.097H251.595V139.67H176.355V136.097ZM176.355 144.57H251.595V148.143H176.355V144.57ZM176.355 153.044H218.212V156.617H176.355V153.044ZM163.798 197.555H143.176C140.624 197.555 138.582 195.513 138.582 192.961V172.339C138.582 169.786 140.624 167.745 143.176 167.745H163.798C166.35 167.745 168.392 169.786 168.392 172.339V193.063C168.392 195.513 166.35 197.555 163.798 197.555ZM176.355 172.441H251.595V176.014H176.355V172.441ZM176.355 180.914H251.595V184.487H176.355V180.914ZM176.355 189.49H218.212V193.063H176.355V189.49Z" fill="white"/>
<path d="M309.887 136.709H318.666V162.844H309.887V136.709Z" fill="#FE6021"/>
<path d="M309.887 165.397H318.666V168.255H309.887V165.397Z" fill="white"/>
<path d="M323.875 130.278H332.655V162.946H323.875V130.278Z" fill="#060405"/>
<path d="M323.875 165.397H332.655V168.255H323.875V165.397Z" fill="white"/>
<path d="M337.75 149.165H346.53V162.947H337.75V149.165Z" fill="#FE6021"/>
<path d="M337.75 165.397H346.53V168.255H337.75V165.397Z" fill="white"/>
<path d="M351.641 124.356H360.42V162.946H351.641V124.356Z" fill="#060405"/>
<path d="M351.641 165.396H360.42V168.255H351.641V165.396Z" fill="white"/>
<path d="M190.224 337.724C186.14 339.153 179.096 339.663 174.808 330.271C170.52 320.879 175.625 304.442 168.07 297.092C168.07 297.092 176.952 297.296 185.017 305.157C192.98 313.018 203.189 333.232 190.224 337.724Z" fill="#008080"/>
<path d="M214.647 315.877C214.545 316.081 214.545 316.285 214.443 316.591C212.503 323.942 208.215 329.25 200.354 328.332C194.841 327.617 186.266 324.248 186.674 310.772C186.776 307.914 187.491 304.851 188.614 301.788C188.716 301.584 188.818 301.38 188.818 301.176C193.004 290.15 201.375 278.206 197.802 268.303C198.108 268.507 208.113 273.918 212.911 287.394C213.013 287.598 213.013 287.802 213.115 288.006C215.668 295.357 216.791 306.995 214.647 315.877Z" fill="#12A67C"/>
<path d="M200.148 307.505H201.169V352.323H200.148V307.505Z" fill="#060405"/>
<path d="M234.529 297.092C231.16 300.359 230.344 305.362 230.037 310.67V311.385C229.731 318.021 230.139 325.167 227.791 330.169C227.383 330.986 226.975 331.701 226.566 332.415C226.464 332.619 226.362 332.824 226.158 333.028C221.87 339.459 215.847 338.949 212.274 337.724C202.984 334.457 205.638 323.125 210.845 314.039L211.151 313.427C213.091 310.16 215.336 307.199 217.48 305.157C225.648 297.296 234.529 297.092 234.529 297.092Z" fill="#008080"/>
<path d="M203.535 353.889L218.718 323.017L219.634 323.467L204.451 354.34L203.535 353.889Z" fill="#060405"/>
<path d="M183.012 323.453L183.928 323.002L199.13 353.865L198.214 354.316L183.012 323.453Z" fill="#060405"/>
<path d="M209.332 378.56H195.448C194.631 378.56 193.916 377.947 193.814 377.131L188.199 352.935C187.995 351.914 188.812 350.996 189.935 350.996L215.253 351.098C216.274 351.098 217.091 352.016 216.887 353.139L211.067 377.233C210.863 377.947 210.149 378.56 209.332 378.56Z" fill="white"/>
<path d="M209.318 379.07H195.433C194.31 379.07 193.392 378.253 193.289 377.233L187.675 353.139C187.47 351.71 188.491 350.485 189.818 350.485L215.137 350.587C216.464 350.587 217.587 351.812 217.28 353.139L211.461 377.335C211.257 378.253 210.338 379.07 209.318 379.07ZM209.318 378.049C209.93 378.049 210.44 377.641 210.543 377.028L216.362 352.833C216.464 352.119 215.953 351.506 215.137 351.506L189.818 351.404C189.104 351.404 188.491 352.016 188.593 352.833L194.208 376.926C194.31 377.539 194.821 377.947 195.433 377.947L209.318 378.049Z" fill="#060405"/>
<path d="M230.062 310.67V311.385L226.795 313.12L226.489 312.508L230.062 310.67ZM226.591 332.517C226.489 332.722 226.386 332.926 226.182 333.13L224.753 331.394L225.263 330.986L226.591 332.517ZM213.115 287.904L208.112 292.294L207.704 291.784L212.911 287.19C213.013 287.496 213.115 287.7 213.115 287.904ZM192.595 304.443L192.186 304.953L188.613 301.788C188.715 301.584 188.817 301.38 188.817 301.176L192.595 304.443ZM214.646 315.877C214.544 316.081 214.544 316.285 214.442 316.591C213.829 316.183 212.809 315.366 210.971 314.039L211.277 313.427C212.604 314.345 213.829 315.264 214.646 315.877Z" fill="white"/>
<path d="M495.078 19.0007C483.542 22.676 477.11 35.0288 480.888 46.5649C482.317 50.9548 484.971 54.63 488.442 57.2843L491.811 52.7924L492.628 53.4049L489.259 57.8969C494.67 61.6742 501.816 63.0013 508.554 60.8575C520.09 57.1822 526.522 44.8294 522.744 33.1912C518.967 21.6551 506.614 15.3255 495.078 19.0007Z" fill="#060405"/>
<path d="M479.863 67.084L480.68 67.6965L492.114 52.281L491.297 51.6685L479.863 67.084Z" fill="#060405"/>
<path d="M500.699 32.1697L498.862 35.8449C498.657 36.1512 498.351 36.4574 497.943 36.4574L493.859 37.07C492.94 37.172 492.532 38.3971 493.247 39.0097L496.207 41.8682C496.514 42.1744 496.616 42.4807 496.514 42.8891L495.799 46.8706C495.595 47.7894 496.616 48.504 497.432 48.0956L501.006 46.1559C501.312 45.9518 501.72 45.9518 502.129 46.1559L505.702 48.0956C506.518 48.504 507.539 47.7894 507.335 46.8706L506.62 42.8891C506.518 42.4807 506.723 42.1744 506.927 41.8682L509.887 39.0097C510.602 38.295 510.194 37.172 509.275 37.07L505.191 36.4574C504.783 36.3553 504.477 36.1512 504.272 35.8449L502.435 32.1697C502.333 31.3529 501.108 31.3529 500.699 32.1697Z" fill="white"/>
<path d="M91.629 26.7594C91.7311 37.3767 84.2786 46.2585 74.3759 48.6066L69.5777 55.0382L64.6774 48.6066C54.6726 46.4627 47.2201 37.5809 47.118 26.9636C47.0159 14.7129 56.9186 4.606 69.2714 4.606C81.5222 4.50391 91.5269 14.5087 91.629 26.7594Z" fill="#060405"/>
<path d="M79.9777 33.7015C79.9777 36.0496 77.8338 37.8872 75.4857 37.3767C71.9126 36.6621 67.4206 35.8454 67.4206 35.8454H64.1538L64.0517 22.9821L65.2768 23.0842C65.583 23.0842 65.9914 22.9821 66.1956 22.6759C66.9102 21.655 68.8499 19.3069 69.3603 18.1839C70.1771 16.4484 68.4415 12.569 70.7896 13.7941C73.1377 15.0191 74.0565 18.0818 73.0356 20.6341C72.423 22.0633 72.3209 22.4717 72.3209 22.4717L78.4463 22.7779C79.263 22.7779 79.9777 23.4926 79.9777 24.3093V33.7015ZM62.6224 22.88L62.7245 35.8454H59.4577C59.1514 35.8454 58.8451 35.6412 58.8451 35.2329L57.8242 22.9821C57.8242 22.5738 58.1305 22.2675 58.5389 22.3696L62.6224 22.88Z" fill="white"/>
<path d="M372.982 325.269H331.329C331.125 325.269 330.921 325.065 330.921 324.861C330.921 324.656 331.125 324.452 331.329 324.452H372.982C373.186 324.452 373.39 324.656 373.39 324.861C373.39 325.065 373.186 325.269 372.982 325.269ZM372.982 345.993H331.329C331.125 345.993 330.921 345.789 330.921 345.585C330.921 345.38 331.125 345.176 331.329 345.176H372.982C373.186 345.176 373.39 345.38 373.39 345.585C373.39 345.789 373.186 345.993 372.982 345.993ZM365.427 335.682H306.522C306.317 335.682 306.113 335.478 306.113 335.274C306.113 335.069 306.317 334.865 306.522 334.865H365.427C365.631 334.865 365.836 335.069 365.836 335.274C365.836 335.478 365.631 335.682 365.427 335.682Z" fill="#25E498"/>
<path d="M339.902 325.269C339.698 325.269 339.494 325.065 339.494 324.86V316.081C339.494 315.877 339.698 315.672 339.902 315.672C340.106 315.672 340.31 315.877 340.31 316.081V324.86C340.31 325.167 340.106 325.269 339.902 325.269ZM354.501 335.682C354.297 335.682 354.093 335.478 354.093 335.274V324.963C354.093 324.758 354.297 324.554 354.501 324.554C354.705 324.554 354.909 324.758 354.909 324.963V335.274C354.909 335.478 354.705 335.682 354.501 335.682ZM343.373 345.585C343.169 345.585 342.965 345.38 342.965 345.176V335.172C342.965 334.967 343.169 334.763 343.373 334.763C343.577 334.763 343.781 334.967 343.781 335.172V345.176C343.781 345.483 343.577 345.585 343.373 345.585ZM179.826 257.277H138.173C137.969 257.277 137.765 257.073 137.765 256.869C137.765 256.665 137.969 256.46 138.173 256.46H179.826C180.03 256.46 180.234 256.665 180.234 256.869C180.234 257.073 180.03 257.277 179.826 257.277ZM179.826 277.899H138.173C137.969 277.899 137.765 277.695 137.765 277.491C137.765 277.287 137.969 277.083 138.173 277.083H179.826C180.03 277.083 180.234 277.287 180.234 277.491C180.234 277.695 180.03 277.899 179.826 277.899ZM172.271 267.588H113.365C113.161 267.588 112.957 267.384 112.957 267.18C112.957 266.976 113.161 266.772 113.365 266.772H172.271C172.475 266.772 172.679 266.976 172.679 267.18C172.679 267.384 172.475 267.588 172.271 267.588Z" fill="#25E498"/>
<path d="M146.74 257.277C146.536 257.277 146.332 257.073 146.332 256.869V248.089C146.332 247.885 146.536 247.681 146.74 247.681C146.945 247.681 147.149 247.885 147.149 248.089V256.869C147.149 257.073 146.945 257.277 146.74 257.277ZM161.339 267.588C161.135 267.588 160.931 267.384 160.931 267.18V256.869C160.931 256.665 161.135 256.461 161.339 256.461C161.543 256.461 161.748 256.665 161.748 256.869V267.18C161.748 267.384 161.645 267.588 161.339 267.588ZM150.211 277.593C150.007 277.593 149.803 277.389 149.803 277.185V267.18C149.803 266.976 150.007 266.772 150.211 266.772C150.416 266.772 150.62 266.976 150.62 267.18V277.185C150.62 277.389 150.416 277.593 150.211 277.593Z" fill="#25E498"/>
</svg>
