<svg width="251" height="55" viewBox="0 0 251 55" fill="none" xmlns="http://www.w3.org/2000/svg">
<g clip-path="url(#clip0_374_159)">
<path d="M30.6788 28.1615C30.2779 29.6799 30.0875 30.9176 30.1075 31.8697C30.1276 32.8218 30.2829 33.5634 30.5735 34.1046C30.8642 34.6458 31.2701 35.0116 31.7912 35.202C32.3124 35.3924 32.8786 35.4876 33.5 35.4876C34.4822 35.4876 35.4092 35.207 36.2911 34.6458C37.1731 34.0846 37.9448 33.2928 38.6163 32.2756C39.2877 31.2533 39.8189 30.0306 40.2098 28.5975C40.6006 27.1693 40.7961 25.5808 40.7961 23.842C40.7961 21.0809 40.3551 18.6606 39.4782 16.581C38.5962 14.5014 37.3835 12.7676 35.8301 11.3746C34.2767 9.98149 32.4477 8.9442 30.338 8.25268C28.2284 7.56116 25.9534 7.22041 23.508 7.22041C20.8271 7.22041 18.3166 7.73153 15.9764 8.74877C13.6363 9.77102 11.5917 11.1791 9.85292 12.9781C8.11409 14.7821 6.73606 16.9117 5.72884 19.3722C4.71661 21.8326 4.2155 24.5135 4.2155 27.4149C4.2155 30.8174 4.75169 33.8039 5.81904 36.3746C6.8914 38.9453 8.34961 41.1 10.2037 42.8388C12.0528 44.5777 14.2276 45.8906 16.7281 46.7725C19.2286 47.6494 21.9095 48.0954 24.7708 48.0954C27.8125 48.0954 30.4984 47.7647 32.8285 47.1032C35.1586 46.4418 37.1731 45.6049 38.8768 44.5827C39.2777 44.3421 39.6285 44.267 39.9292 44.3572C40.2298 44.4474 40.4503 44.6729 40.5906 45.0337L41.3723 47.013C39.2126 48.4562 36.7672 49.5837 34.0362 50.4055C31.3052 51.2273 28.2184 51.6382 24.7808 51.6382C21.3432 51.6382 18.066 51.087 15.0895 49.9846C12.1079 48.8872 9.52219 47.2987 7.33237 45.2291C5.14255 43.1595 3.41875 40.624 2.171 37.6223C0.918243 34.6207 0.296875 31.2233 0.296875 27.4199C0.296875 25.2401 0.572482 23.1354 1.1237 21.116C1.67491 19.0966 2.45162 17.2074 3.44882 15.4585C4.45102 13.7097 5.64866 12.1112 7.05175 10.658C8.45484 9.20979 10.0133 7.96705 11.7321 6.93979C13.4508 5.90752 15.3099 5.11076 17.2993 4.5395C19.2887 3.96825 21.3683 3.68262 23.528 3.68262C25.3671 3.68262 27.1711 3.88306 28.9299 4.28394C30.6888 4.68482 32.3575 5.27111 33.9259 6.05284C35.4944 6.83456 36.9376 7.79668 38.2454 8.94921C39.5533 10.0967 40.6908 11.4197 41.6529 12.9129C42.6151 14.4012 43.3567 16.0649 43.8879 17.8939C44.419 19.7229 44.6846 21.7123 44.6846 23.852C44.6846 25.9917 44.379 28.0062 43.7676 29.8402C43.1563 31.6743 42.3194 33.2577 41.2471 34.5957C40.1747 35.9386 38.9119 36.9859 37.4487 37.7476C35.9855 38.5093 34.417 38.8851 32.7383 38.8851C31.22 38.8851 29.9622 38.5093 28.97 37.7627C27.9778 37.011 27.3464 35.8685 27.0658 34.3251C25.9233 35.9286 24.6756 37.0761 23.3126 37.7777C21.9496 38.4792 20.4813 38.83 18.9028 38.83C17.7202 38.83 16.688 38.6246 15.796 38.2137C14.904 37.8027 14.1724 37.2315 13.5912 36.4999C13.0099 35.7683 12.5739 34.9064 12.2883 33.9042C11.9976 32.902 11.8523 31.8246 11.8523 30.662C11.8523 28.9583 12.178 27.2445 12.8295 25.5157C13.4809 23.7869 14.443 22.2234 15.7259 20.8354C17.0037 19.4473 18.5972 18.3098 20.4964 17.4329C22.3955 16.551 24.5954 16.11 27.1009 16.11C28.4388 16.11 29.6215 16.2152 30.6437 16.4257C31.666 16.6361 32.6231 16.9418 33.525 17.3427L30.7038 28.1765L30.6788 28.1615ZM28.8197 19.7881C28.038 19.6077 27.1761 19.5175 26.239 19.5175C24.7407 19.5175 23.3627 19.8332 22.1149 20.4646C20.8622 21.096 19.7898 21.9178 18.8878 22.94C17.9858 23.9623 17.2843 25.1298 16.7732 26.4477C16.262 27.7656 16.0065 29.1186 16.0065 30.5017C16.0065 31.8847 16.3372 33.0974 16.9987 33.9643C17.6601 34.8362 18.6373 35.2672 19.9401 35.2672C20.5615 35.2672 21.1879 35.1669 21.8143 34.9665C22.4406 34.7661 23.057 34.4153 23.6433 33.9142C24.2346 33.4131 24.7808 32.7316 25.2769 31.8747C25.778 31.0128 26.1989 29.9354 26.5347 28.6326L28.8147 19.7781L28.8197 19.7881Z" fill="#B40000"/>
<path d="M69.2978 19.0666C69.0572 19.5075 68.6864 19.728 68.1853 19.728C67.8847 19.728 67.5439 19.6178 67.1681 19.3973C66.7872 19.1768 66.3212 18.9313 65.775 18.6607C65.2238 18.3901 64.5674 18.1395 63.8107 17.909C63.054 17.6785 62.152 17.5633 61.1097 17.5633C60.2078 17.5633 59.401 17.6785 58.6794 17.909C57.9578 18.1395 57.3414 18.4552 56.8353 18.8561C56.3242 19.257 55.9333 19.723 55.6678 20.2542C55.3972 20.7854 55.2619 21.3616 55.2619 21.978C55.2619 22.7597 55.4874 23.4111 55.9384 23.9273C56.3893 24.4484 56.9857 24.8994 57.7223 25.2802C58.4639 25.6611 59.3008 25.9968 60.2428 26.2875C61.1849 26.5781 62.147 26.8888 63.1392 27.2145C64.1314 27.5452 65.0935 27.911 66.0356 28.3119C66.9726 28.7128 67.8145 29.2139 68.5561 29.8102C69.2978 30.4065 69.8891 31.1482 70.3401 32.0151C70.7911 32.882 71.0166 33.9293 71.0166 35.152C71.0166 36.5501 70.766 37.8479 70.2649 39.0355C69.7638 40.2282 69.0222 41.2554 68.045 42.1273C67.0679 42.9993 65.8652 43.6858 64.4421 44.1819C63.0189 44.678 61.3803 44.9335 59.5212 44.9335C57.4016 44.9335 55.4823 44.5878 53.7586 43.8962C52.0348 43.2047 50.5765 42.3228 49.3789 41.2404L50.6367 39.2009C50.797 38.9403 50.9874 38.7399 51.2079 38.5996C51.4284 38.4593 51.709 38.3891 52.0498 38.3891C52.4106 38.3891 52.7914 38.5294 53.1923 38.81C53.5932 39.0907 54.0793 39.4013 54.6505 39.7371C55.2218 40.0778 55.9183 40.3885 56.7351 40.6691C57.5569 40.9498 58.5742 41.0901 59.7968 41.0901C60.8341 41.0901 61.7461 40.9548 62.5279 40.6842C63.3096 40.4136 63.956 40.0478 64.4772 39.5867C64.9983 39.1257 65.3842 38.5996 65.6347 37.9983C65.8853 37.3969 66.0105 36.7555 66.0105 36.074C66.0105 35.2322 65.785 34.5406 65.334 33.9894C64.8831 33.4382 64.2867 32.9672 63.5501 32.5763C62.8085 32.1855 61.9616 31.8447 61.0145 31.5591C60.0624 31.2684 59.0953 30.9628 58.1031 30.6421C57.1109 30.3213 56.1438 29.9555 55.1917 29.5446C54.2396 29.1337 53.3978 28.6226 52.6561 28.0012C51.9145 27.3799 51.3182 26.6132 50.8722 25.7062C50.4262 24.7992 50.1957 23.6918 50.1957 22.3889C50.1957 21.2263 50.4362 20.1139 50.9173 19.0415C51.3984 17.9742 52.0999 17.0321 53.0169 16.2203C53.9389 15.4085 55.0664 14.7671 56.4094 14.286C57.7473 13.805 59.2807 13.5645 60.9995 13.5645C62.9989 13.5645 64.7979 13.8801 66.3864 14.5115C67.9749 15.1429 69.3529 16.0048 70.5104 17.1073L69.3078 19.0565L69.2978 19.0666Z" fill="#383838"/>
<path d="M84.3612 4.50948C84.3612 5.03063 84.2559 5.5167 84.0455 5.96268C83.835 6.41367 83.5544 6.81455 83.2036 7.16533C82.8529 7.5161 82.4419 7.79171 81.9759 7.99215C81.5049 8.19259 81.0088 8.29281 80.4876 8.29281C79.9665 8.29281 79.4804 8.19259 79.0344 7.99215C78.5834 7.79171 78.1876 7.5161 77.8468 7.16533C77.5061 6.81455 77.2355 6.41367 77.035 5.96268C76.8346 5.51168 76.7344 5.03063 76.7344 4.50948C76.7344 3.98833 76.8346 3.49224 77.035 3.02621C77.2355 2.55518 77.5061 2.14427 77.8468 1.7935C78.1876 1.44273 78.5834 1.16712 79.0344 0.966678C79.4854 0.766236 79.9665 0.666016 80.4876 0.666016C81.0088 0.666016 81.5049 0.766236 81.9759 0.966678C82.447 1.16712 82.8579 1.44273 83.2036 1.7935C83.5494 2.14427 83.835 2.55518 84.0455 3.02621C84.2559 3.49725 84.3612 3.99334 84.3612 4.50948ZM83.2187 14.0555V44.4574H77.8769V14.0555H83.2187Z" fill="#383838"/>
<path d="M91.9883 44.4572V14.0553H95.2003C95.962 14.0553 96.4331 14.4261 96.6135 15.1677L97.0043 18.2896C98.1268 16.9116 99.3846 15.7791 100.788 14.8971C102.191 14.0202 103.809 13.5742 105.648 13.5742C107.688 13.5742 109.347 14.1455 110.614 15.288C111.887 16.4255 112.799 17.9689 113.36 19.9082C113.801 18.8057 114.368 17.8587 115.054 17.0569C115.741 16.2551 116.517 15.5987 117.379 15.0775C118.241 14.5564 119.153 14.1755 120.125 13.935C121.097 13.6945 122.08 13.5742 123.082 13.5742C124.68 13.5742 126.108 13.8298 127.361 14.3409C128.609 14.852 129.671 15.5987 130.543 16.5758C131.415 17.558 132.082 18.7606 132.538 20.1938C132.999 21.6269 133.229 23.2605 133.229 25.0996V44.4572H127.857V25.0996C127.857 22.7194 127.336 20.9154 126.299 19.6827C125.257 18.45 123.758 17.8386 121.799 17.8386C120.917 17.8386 120.085 17.9939 119.293 18.3046C118.502 18.6153 117.81 19.0713 117.209 19.6676C116.607 20.269 116.131 21.0256 115.786 21.9326C115.435 22.8446 115.26 23.8969 115.26 25.0996V44.4572H109.888V25.0996C109.888 22.6592 109.397 20.8402 108.419 19.6376C107.442 18.4349 106.009 17.8336 104.13 17.8336C102.807 17.8336 101.589 18.1894 100.467 18.9009C99.3445 19.6125 98.3172 20.5746 97.3751 21.7973V44.4572H92.0033H91.9883Z" fill="#383838"/>
<path d="M146.453 18.7657C147.731 17.1872 149.214 15.9144 150.893 14.9523C152.571 13.9902 154.496 13.5142 156.655 13.5142C158.419 13.5142 160.008 13.8499 161.426 14.5214C162.844 15.1929 164.057 16.18 165.059 17.4929C166.061 18.8008 166.828 20.4294 167.369 22.3687C167.905 24.3079 168.181 26.5428 168.181 29.0634C168.181 31.3033 167.88 33.3929 167.279 35.3222C166.677 37.2514 165.815 38.9201 164.683 40.3332C163.555 41.7413 162.172 42.8538 160.544 43.6655C158.915 44.4773 157.076 44.8832 155.037 44.8832C153.178 44.8832 151.584 44.5675 150.251 43.9361C148.918 43.3048 147.746 42.4278 146.723 41.3104V54.755H141.352V14.0554H144.564C145.325 14.0554 145.796 14.4262 145.977 15.1678L146.458 18.7707L146.453 18.7657ZM146.723 37.1312C147.706 38.4541 148.773 39.3811 149.935 39.9223C151.098 40.4635 152.396 40.7341 153.839 40.7341C156.68 40.7341 158.86 39.7219 160.383 37.7024C161.902 35.683 162.663 32.8016 162.663 29.0584C162.663 27.079 162.488 25.3803 162.137 23.9572C161.787 22.539 161.28 21.3715 160.619 20.4595C159.963 19.5474 159.151 18.886 158.189 18.4651C157.232 18.0441 156.139 17.8337 154.916 17.8337C153.178 17.8337 151.649 18.2346 150.341 19.0363C149.033 19.8381 147.826 20.9656 146.723 22.4288V37.1362V37.1312Z" fill="#383838"/>
<path d="M180.518 0.25V44.4573H175.176V0.25H180.518Z" fill="#383838"/>
<path d="M195.937 4.50948C195.937 5.03063 195.832 5.5167 195.622 5.96268C195.411 6.41367 195.131 6.81455 194.78 7.16533C194.434 7.5161 194.023 7.79171 193.552 7.99215C193.081 8.19259 192.585 8.29281 192.064 8.29281C191.543 8.29281 191.057 8.19259 190.611 7.99215C190.165 7.79171 189.764 7.5161 189.423 7.16533C189.082 6.81455 188.812 6.41367 188.611 5.96268C188.411 5.51168 188.311 5.03063 188.311 4.50948C188.311 3.98833 188.411 3.49224 188.611 3.02621C188.812 2.55518 189.082 2.14427 189.423 1.7935C189.764 1.44273 190.16 1.16712 190.611 0.966678C191.062 0.766236 191.543 0.666016 192.064 0.666016C192.585 0.666016 193.081 0.766236 193.552 0.966678C194.023 1.16712 194.434 1.44273 194.78 1.7935C195.131 2.14427 195.411 2.55518 195.622 3.02621C195.832 3.49725 195.937 3.99334 195.937 4.50948ZM194.8 14.0555V44.4574H189.458V14.0555H194.8Z" fill="#383838"/>
<path d="M205.542 44.4574V18.6205L202.18 18.2296C201.759 18.1294 201.413 17.9741 201.142 17.7636C200.872 17.5531 200.736 17.2475 200.736 16.8466V14.6568H205.537V11.7153C205.537 9.97645 205.782 8.42804 206.274 7.08007C206.765 5.72709 207.461 4.58959 208.373 3.65753C209.285 2.72548 210.378 2.02394 211.66 1.54288C212.938 1.06182 214.381 0.821289 215.98 0.821289C217.338 0.821289 218.591 1.02173 219.733 1.42261L219.613 4.09349C219.573 4.57455 219.307 4.83513 218.816 4.87521C218.325 4.9153 217.674 4.93535 216.852 4.93535C215.93 4.93535 215.098 5.05561 214.346 5.29614C213.595 5.53667 212.948 5.92753 212.412 6.46872C211.871 7.00992 211.455 7.71647 211.164 8.59841C210.874 9.48035 210.728 10.5677 210.728 11.8706V14.6618H219.493V18.5353H210.909V44.4624H205.537L205.542 44.4574Z" fill="#383838"/>
<path d="M250.827 14.0557L233.869 53.4274C233.689 53.8282 233.464 54.1489 233.193 54.3895C232.922 54.63 232.506 54.7503 231.95 54.7503H227.986L233.539 42.6887L220.996 14.0607H225.616C226.077 14.0607 226.443 14.1759 226.709 14.4064C226.979 14.6369 227.165 14.8925 227.265 15.1731L235.398 34.3203C235.719 35.1621 235.989 36.0441 236.21 36.9611C236.49 36.024 236.791 35.1321 237.112 34.2902L245.004 15.1731C245.124 14.8524 245.33 14.5868 245.62 14.3764C245.911 14.1659 246.232 14.0607 246.592 14.0607H250.827V14.0557Z" fill="#383838"/>
</g>
<defs>
<clipPath id="clip0_374_159">
<rect width="250.552" height="54.5" fill="white" transform="translate(0.275391 0.25)"/>
</clipPath>
</defs>
</svg>
