<svg width="668" height="142" viewBox="0 0 668 142" fill="none" xmlns="http://www.w3.org/2000/svg">
<g clip-path="url(#clip0_384_317)">
<path fill-rule="evenodd" clip-rule="evenodd" d="M55.6341 8.70181C54.4409 8.90588 51.1218 9.47558 48.2582 9.96791C41.6452 11.1047 28.8972 17.169 22.4837 22.2292C13.0374 29.6821 5.08718 42.1662 1.74377 54.7956C-0.428191 63.0036 -0.594798 77.3167 1.37671 86.4302C5.79352 106.849 20.6927 122.989 41.3527 129.733C48.8283 132.174 51.5149 132.612 61.2744 132.981C78.3108 133.625 88.9111 131.537 102.343 124.889C108.476 121.854 108.683 121.651 108.179 119.182C107.891 117.774 106.902 115.883 105.98 114.979C104.324 113.356 104.224 113.373 97.5408 116.446C86.845 121.362 78.6605 123.111 66.047 123.177C48.2739 123.269 36.0717 118.969 25.7724 108.984C15.8429 99.3582 11.0642 86.7201 11.1353 70.2745C11.1883 57.9341 13.6752 49.6012 20.126 40.1509C25.598 32.1335 30.7567 27.7255 39.5808 23.5267C53.797 16.7626 70.2104 16.738 84.8666 23.4579C104.366 32.3996 112.74 59.9357 102.147 80.28C97.2423 89.6979 87.8152 93.5914 81.9319 88.6282C79.8128 86.8409 79.5039 85.9855 79.5473 82.0384C79.5751 79.5436 81.4824 70.1112 83.7862 61.0785C86.701 49.6513 87.6989 44.3846 87.068 43.7664C86.5691 43.2775 83.8799 42.3515 81.0936 41.7087C58.9219 36.5975 37.021 48.8886 31.352 69.6249C29.9324 74.8151 30.5546 86.8128 32.4237 90.3084C34.4481 94.0939 38.9864 98.1507 42.4513 99.2714C46.4403 100.561 56.1729 99.825 59.9797 97.9449C61.6466 97.1219 64.6612 94.8881 66.6795 92.9809C68.6979 91.0728 70.4551 89.68 70.5844 89.8841C70.7137 90.089 71.6005 91.7514 72.555 93.5787C74.9891 98.2383 78.8618 100.035 86.4719 100.035C104.256 100.035 117.264 83.512 117.332 60.8328C117.378 45.5384 112.883 34.5177 102.453 24.3583C95.1754 17.2694 87.1236 12.8155 77.3276 10.461C71.4304 9.04278 59.3575 8.06408 55.6341 8.70181ZM74.5856 51.1904C75.1687 51.6793 67.6801 77.5854 65.9272 81.1388C61.2631 90.5975 48.5151 93.2266 44.0184 85.6573C42.7819 83.5749 42.3159 81.2986 42.3663 77.5794C42.5424 64.4253 51.809 53.2209 64.5432 50.7661C67.6931 50.159 73.6545 50.4107 74.5856 51.1904Z" fill="white"/>
<path fill-rule="evenodd" clip-rule="evenodd" d="M465.21 114.79H479.961V0H465.21V114.79ZM208.093 2.43441C203.892 5.14856 202.776 7.60253 203.055 13.5045C203.205 16.6676 208.719 21.2575 212.368 21.2575C218.584 21.2575 223.346 16.8096 223.346 11.0037C223.346 5.78034 218.391 0.861353 213.13 0.861353C211.699 0.861353 209.432 1.5688 208.093 2.43441ZM508.332 2.43441C504.131 5.14856 503.014 7.60253 503.294 13.5045C503.444 16.6676 508.958 21.2575 512.606 21.2575C518.823 21.2575 523.585 16.8096 523.585 11.0037C523.585 5.78034 518.63 0.861353 513.369 0.861353C511.937 0.861353 509.671 1.5688 508.332 2.43441ZM565.765 2.87486C554.039 6.98096 548.513 15.7773 548.513 30.3404V37.4132H535.497V41.1358C535.497 45.474 536.625 46.6746 541.277 47.2877C543.109 47.5292 545.487 47.9008 546.56 48.1133L548.513 48.4994V114.79H563.264V47.6168H585.826V37.4132H562.139L562.661 30.1593C563.566 17.6063 568.277 12.7545 579.562 12.7545C585.67 12.7545 586.694 11.8022 586.694 6.1145C586.694 3.04152 586.469 2.71926 583.982 2.23204C579.448 1.34347 569.095 1.70825 565.765 2.87486ZM154.002 34.9422C133.965 37.3758 123.926 58.3356 136.596 71.2874C140.108 74.8774 143.312 76.4564 154.124 79.9281C165.564 83.6014 169.03 85.3905 171.075 88.6777C173.203 92.0968 173.229 94.8654 171.171 98.6271C168.764 103.023 163.459 105.437 156.204 105.437C151.016 105.437 149.504 105.026 143.541 102C135.537 97.9375 133.819 98.0786 130.793 103.05L128.629 106.606L131.398 108.669C142.28 116.778 160.176 118.606 172.609 112.879C187.029 106.238 191.461 86.0724 180.496 76.9955C176.941 74.0517 171.71 71.7381 160.198 68.0163C153.349 65.8021 150.812 64.5207 148.155 61.9316C145.145 58.9989 144.842 58.3246 145.3 55.5628C146.797 46.5207 158.944 43.0073 171.213 48.0666C179.7 51.5664 180.07 51.5724 182.653 48.2536C183.905 46.6457 184.929 44.9553 184.929 44.4962C184.929 43.0064 181.133 40.1256 176.257 37.9157C172.016 35.9932 169.954 35.5221 161.5 34.5451C160.307 34.4074 156.933 34.5859 154.002 34.9422ZM276.34 34.9209C271.312 35.8631 266.612 38.3774 262.405 42.3781L258.818 45.7903L258.217 42.2395C257.183 36.1173 256.699 35.7126 250.413 35.7126H244.803V114.79H259.555V56.2881L263.627 52.3538C272.61 43.6756 285.598 44.389 289.957 53.7993C291.493 57.1146 291.625 59.6332 291.642 86.0928L291.661 114.79H307.28V87.1285C307.28 57.4768 307.501 55.755 311.878 51.1617C319.982 42.657 335.369 45.8005 338.425 56.5849C339.025 58.703 339.379 70.0859 339.382 87.3683L339.387 114.79H354.139V85.8981C354.139 58.5074 354.04 56.7124 352.248 51.3615C349.79 44.026 344.356 38.3196 337.795 36.1845C331.91 34.2688 322.709 34.2229 317.003 36.0799C311.868 37.7516 304.583 43.7343 302.935 47.6329L301.831 50.2442L300.166 46.5922C296.008 37.4744 286.797 32.9627 276.34 34.9209ZM407.939 35.3274C402.756 36.7406 398.44 39.2413 393.245 43.8397L389.916 46.7869L389.297 42.7378C388.284 36.1216 387.827 35.7126 381.442 35.7126H375.832V142H390.584V107.901L393.452 110.045C409.564 122.088 433.732 115.754 442.391 97.2198C445.908 89.6913 446.966 84.4118 446.964 74.4012C446.959 58.8169 443.24 48.0385 435.52 41.237C428.612 35.1505 417.399 32.7484 407.939 35.3274ZM205.755 114.79H220.506V35.7126H205.755V114.79ZM505.993 114.79H520.745V35.7126H505.993V114.79ZM588.429 36.1046C588.429 36.4515 617.915 102.59 620.483 108.004C621.393 109.922 620.724 111.781 614.075 125.792C609.992 134.398 606.652 141.565 606.652 141.719C606.652 141.874 609.58 142 613.16 142C618.234 142 620.007 141.668 621.207 140.492C622.648 139.08 626.69 130.125 656.415 62.497L668.001 36.1377L661.406 35.8818C655.411 35.6497 654.653 35.8061 653.076 37.6028C652.121 38.6895 646.284 51.6812 640.104 66.473L628.868 93.368L627.426 89.4115C624.33 80.9136 605.575 38.6053 604.282 37.2006C603.185 36.0093 601.467 35.7126 595.67 35.7126C591.687 35.7126 588.429 35.8886 588.429 36.1046ZM416.599 46.8353C424.753 48.6762 429.461 55.0152 431.39 66.7485C433.187 77.6808 431.085 89.4957 426.071 96.6365C419.334 106.234 402.749 107.373 393.838 98.8507L390.584 95.7386V57.7753L394.395 54.0408C401.491 47.087 408.148 44.9273 416.599 46.8353Z" fill="white"/>
</g>
<defs>
<clipPath id="clip0_384_317">
<rect width="668" height="142" fill="white"/>
</clipPath>
</defs>
</svg>
