<svg width="668" height="142" viewBox="0 0 668 142" fill="none" xmlns="http://www.w3.org/2000/svg">
<path fill-rule="evenodd" clip-rule="evenodd" d="M55.6341 8.70187C54.4409 8.90594 51.1218 9.47564 48.2582 9.96797C41.6452 11.1048 28.8972 17.1691 22.4837 22.2293C13.0374 29.6822 5.08718 42.1663 1.74377 54.7957C-0.428191 63.0037 -0.594798 77.3168 1.37671 86.4303C5.79352 106.849 20.6927 122.989 41.3527 129.733C48.8283 132.174 51.5149 132.612 61.2744 132.981C78.3108 133.625 88.9111 131.537 102.343 124.889C108.476 121.854 108.683 121.651 108.179 119.182C107.891 117.774 106.902 115.883 105.98 114.979C104.324 113.356 104.224 113.373 97.5408 116.446C86.845 121.362 78.6605 123.111 66.047 123.177C48.2739 123.269 36.0717 118.969 25.7724 108.984C15.8429 99.3583 11.0642 86.7202 11.1353 70.2746C11.1883 57.9342 13.6752 49.6013 20.126 40.151C25.598 32.1336 30.7567 27.7256 39.5808 23.5268C53.797 16.7627 70.2104 16.7381 84.8666 23.458C104.366 32.3997 112.74 59.9358 102.147 80.2801C97.2423 89.698 87.8152 93.5915 81.9319 88.6283C79.8128 86.841 79.5039 85.9856 79.5473 82.0385C79.5751 79.5437 81.4824 70.1113 83.7862 61.0786C86.701 49.6514 87.6989 44.3847 87.068 43.7665C86.5691 43.2776 83.8799 42.3516 81.0936 41.7088C58.9219 36.5976 37.021 48.8887 31.352 69.625C29.9324 74.8152 30.5546 86.8129 32.4237 90.3085C34.4481 94.094 38.9864 98.1508 42.4513 99.2715C46.4403 100.561 56.1729 99.8251 59.9797 97.945C61.6466 97.122 64.6612 94.8882 66.6795 92.981C68.6979 91.0729 70.4551 89.6801 70.5844 89.8842C70.7137 90.0891 71.6005 91.7515 72.555 93.5788C74.9891 98.2384 78.8618 100.035 86.4719 100.035C104.256 100.035 117.264 83.5121 117.332 60.8329C117.378 45.5385 112.883 34.5178 102.453 24.3584C95.1754 17.2695 87.1236 12.8156 77.3276 10.4611C71.4304 9.04284 59.3575 8.06414 55.6341 8.70187ZM74.5856 51.1905C75.1687 51.6794 67.6801 77.5855 65.9272 81.1389C61.2631 90.5976 48.5151 93.2267 44.0184 85.6574C42.7819 83.575 42.3159 81.2987 42.3663 77.5795C42.5424 64.4254 51.809 53.221 64.5432 50.7662C67.6931 50.1591 73.6545 50.4108 74.5856 51.1905Z" fill="#2999FF"/>
<path fill-rule="evenodd" clip-rule="evenodd" d="M465.209 114.79H479.96V0H465.209V114.79ZM208.092 2.43441C203.891 5.14856 202.775 7.60253 203.054 13.5045C203.204 16.6676 208.718 21.2575 212.367 21.2575C218.583 21.2575 223.345 16.8096 223.345 11.0037C223.345 5.78034 218.39 0.861353 213.129 0.861353C211.698 0.861353 209.431 1.5688 208.092 2.43441ZM508.331 2.43441C504.13 5.14856 503.013 7.60253 503.293 13.5045C503.443 16.6676 508.957 21.2575 512.605 21.2575C518.822 21.2575 523.584 16.8096 523.584 11.0037C523.584 5.78034 518.629 0.861353 513.368 0.861353C511.936 0.861353 509.67 1.5688 508.331 2.43441ZM565.764 2.87486C554.038 6.98096 548.512 15.7773 548.512 30.3404V37.4132H535.496V41.1358C535.496 45.474 536.624 46.6746 541.276 47.2877C543.108 47.5292 545.486 47.9008 546.559 48.1133L548.512 48.4994V114.79H563.263V47.6168H585.825V37.4132H562.138L562.66 30.1593C563.565 17.6063 568.276 12.7545 579.561 12.7545C585.669 12.7545 586.693 11.8022 586.693 6.1145C586.693 3.04152 586.468 2.71926 583.981 2.23204C579.447 1.34347 569.094 1.70825 565.764 2.87486ZM154.001 34.9422C133.964 37.3758 123.925 58.3356 136.595 71.2874C140.107 74.8774 143.311 76.4564 154.123 79.9281C165.563 83.6014 169.029 85.3905 171.074 88.6777C173.202 92.0968 173.228 94.8654 171.17 98.6271C168.763 103.023 163.458 105.437 156.203 105.437C151.015 105.437 149.503 105.026 143.54 102C135.536 97.9375 133.818 98.0786 130.792 103.05L128.628 106.606L131.397 108.669C142.279 116.778 160.175 118.606 172.608 112.879C187.028 106.238 191.46 86.0724 180.495 76.9955C176.94 74.0517 171.709 71.7381 160.197 68.0163C153.348 65.8021 150.811 64.5207 148.154 61.9316C145.144 58.9989 144.841 58.3246 145.299 55.5628C146.796 46.5207 158.943 43.0073 171.212 48.0666C179.699 51.5664 180.069 51.5724 182.652 48.2536C183.904 46.6457 184.928 44.9553 184.928 44.4962C184.928 43.0064 181.132 40.1256 176.256 37.9157C172.015 35.9932 169.953 35.5221 161.499 34.5451C160.306 34.4074 156.932 34.5859 154.001 34.9422ZM276.339 34.9209C271.311 35.8631 266.611 38.3774 262.404 42.3781L258.817 45.7903L258.216 42.2395C257.182 36.1173 256.698 35.7126 250.412 35.7126H244.802V114.79H259.554V56.2881L263.626 52.3538C272.609 43.6756 285.597 44.389 289.956 53.7993C291.492 57.1146 291.624 59.6332 291.641 86.0928L291.66 114.79H307.279V87.1285C307.279 57.4768 307.5 55.755 311.877 51.1617C319.981 42.657 335.368 45.8005 338.424 56.5849C339.024 58.703 339.378 70.0859 339.381 87.3683L339.386 114.79H354.138V85.8981C354.138 58.5074 354.039 56.7124 352.247 51.3615C349.789 44.026 344.355 38.3196 337.794 36.1845C331.909 34.2688 322.708 34.2229 317.002 36.0799C311.867 37.7516 304.582 43.7343 302.934 47.6329L301.83 50.2442L300.165 46.5922C296.007 37.4744 286.796 32.9627 276.339 34.9209ZM407.938 35.3274C402.755 36.7406 398.439 39.2413 393.244 43.8397L389.915 46.7869L389.296 42.7378C388.283 36.1216 387.826 35.7126 381.441 35.7126H375.831V142H390.583V107.901L393.451 110.045C409.563 122.088 433.731 115.754 442.39 97.2198C445.907 89.6913 446.965 84.4118 446.963 74.4012C446.958 58.8169 443.239 48.0385 435.519 41.237C428.611 35.1505 417.398 32.7484 407.938 35.3274ZM205.754 114.79H220.505V35.7126H205.754V114.79ZM505.992 114.79H520.744V35.7126H505.992V114.79ZM588.428 36.1046C588.428 36.4515 617.914 102.59 620.482 108.004C621.392 109.922 620.723 111.781 614.074 125.792C609.991 134.398 606.651 141.565 606.651 141.719C606.651 141.874 609.579 142 613.159 142C618.233 142 620.006 141.668 621.206 140.492C622.647 139.08 626.689 130.125 656.414 62.497L668 36.1377L661.405 35.8818C655.41 35.6497 654.652 35.8061 653.075 37.6028C652.12 38.6895 646.283 51.6812 640.103 66.473L628.867 93.368L627.425 89.4115C624.329 80.9136 605.574 38.6053 604.281 37.2006C603.184 36.0093 601.466 35.7126 595.669 35.7126C591.686 35.7126 588.428 35.8886 588.428 36.1046ZM416.598 46.8353C424.752 48.6762 429.46 55.0152 431.389 66.7485C433.186 77.6808 431.084 89.4957 426.07 96.6365C419.333 106.234 402.748 107.373 393.837 98.8507L390.583 95.7386V57.7753L394.394 54.0408C401.49 47.087 408.147 44.9273 416.598 46.8353Z" fill="white"/>
</svg>
