<svg width="404" height="443" viewBox="0 0 404 443" fill="none" xmlns="http://www.w3.org/2000/svg">
<ellipse cx="199.905" cy="233.096" rx="199.905" ry="199.905" fill="#F6FFF5"/>
<ellipse cx="200.011" cy="233.203" rx="124.914" ry="124.914" fill="#E3FFE1"/>
<path d="M324.662 227.566C324.718 228.817 324.755 230.074 324.774 231.335L324.202 231.343C324.212 231.971 324.216 232.6 324.216 233.229C324.216 233.859 324.212 234.488 324.202 235.116L324.774 235.124C324.755 236.385 324.718 237.642 324.662 238.893L324.091 238.868C324.035 240.124 323.96 241.376 323.867 242.623L324.437 242.665C324.343 243.922 324.231 245.173 324.1 246.419L323.532 246.359C323.4 247.61 323.251 248.855 323.083 250.094L323.649 250.171C323.48 251.42 323.292 252.664 323.086 253.902L322.522 253.808C322.316 255.045 322.091 256.277 321.849 257.502L322.41 257.613C322.165 258.851 321.902 260.082 321.621 261.307L321.063 261.179C320.783 262.401 320.484 263.616 320.168 264.824L320.721 264.969C320.402 266.189 320.064 267.402 319.709 268.607L319.16 268.446C318.806 269.649 318.433 270.845 318.044 272.033L318.587 272.211C318.194 273.408 317.784 274.596 317.357 275.777L316.819 275.582C316.392 276.762 315.947 277.934 315.485 279.097L316.017 279.308C315.552 280.478 315.07 281.64 314.571 282.793L314.047 282.566C313.549 283.717 313.034 284.859 312.503 285.991L313.02 286.234C312.485 287.375 311.933 288.506 311.365 289.627L310.855 289.369C310.289 290.486 309.706 291.594 309.107 292.692L309.609 292.966C309.006 294.072 308.387 295.168 307.751 296.253L307.258 295.964C306.625 297.046 305.976 298.117 305.311 299.178L305.796 299.481C305.127 300.548 304.443 301.604 303.744 302.648L303.269 302.33C302.571 303.372 301.859 304.402 301.131 305.421L301.597 305.753C300.865 306.778 300.119 307.79 299.358 308.791L298.902 308.445C298.144 309.442 297.371 310.428 296.583 311.401L297.028 311.761C296.236 312.739 295.43 313.706 294.61 314.659L294.176 314.286C293.359 315.236 292.529 316.173 291.684 317.098L292.106 317.483C291.257 318.412 290.395 319.328 289.518 320.231L289.108 319.833C288.236 320.732 287.35 321.618 286.451 322.49L286.85 322.9C285.947 323.776 285.031 324.639 284.102 325.488L283.716 325.066C282.791 325.91 281.854 326.741 280.905 327.558L281.278 327.992C280.324 328.812 279.358 329.618 278.379 330.41L278.02 329.965C277.046 330.753 276.061 331.526 275.063 332.284L275.41 332.739C274.409 333.501 273.396 334.247 272.372 334.978L272.039 334.513C271.02 335.241 269.99 335.953 268.948 336.65L269.267 337.126C268.222 337.825 267.166 338.509 266.099 339.178L265.796 338.693C264.735 339.357 263.664 340.006 262.583 340.64L262.871 341.133C261.786 341.768 260.69 342.388 259.584 342.991L259.31 342.489C258.212 343.088 257.105 343.671 255.987 344.237L256.245 344.747C255.124 345.315 253.993 345.867 252.853 346.402L252.61 345.884C251.477 346.416 250.335 346.93 249.184 347.428L249.411 347.953C248.258 348.452 247.097 348.934 245.926 349.398L245.715 348.867C244.552 349.329 243.38 349.773 242.2 350.201L242.395 350.738C241.215 351.166 240.026 351.576 238.829 351.969L238.651 351.425C237.463 351.815 236.267 352.187 235.064 352.542L235.226 353.091C234.02 353.446 232.807 353.783 231.587 354.103L231.442 353.55C230.234 353.866 229.019 354.165 227.797 354.445L227.925 355.003C226.701 355.284 225.469 355.547 224.231 355.792L224.12 355.231C222.895 355.473 221.664 355.698 220.426 355.904L220.52 356.468C219.282 356.674 218.039 356.862 216.789 357.031L216.712 356.464C215.473 356.632 214.228 356.782 212.977 356.913L213.037 357.482C211.791 357.613 210.54 357.725 209.284 357.819L209.241 357.249C207.995 357.342 206.743 357.417 205.486 357.473L205.512 358.044C204.26 358.1 203.004 358.137 201.743 358.156L201.734 357.584C201.106 357.593 200.478 357.598 199.848 357.598C199.218 357.598 198.589 357.593 197.961 357.584L197.953 358.156C196.692 358.137 195.436 358.1 194.184 358.044L194.209 357.473C192.953 357.417 191.701 357.342 190.454 357.249L190.412 357.819C189.155 357.725 187.904 357.613 186.658 357.482L186.718 356.913C185.468 356.782 184.223 356.632 182.983 356.464L182.906 357.031C181.657 356.862 180.413 356.674 179.176 356.468L179.269 355.904C178.032 355.698 176.8 355.473 175.575 355.231L175.464 355.792C174.226 355.547 172.995 355.284 171.77 355.003L171.898 354.445C170.676 354.165 169.461 353.866 168.253 353.55L168.109 354.103C166.888 353.783 165.675 353.446 164.47 353.091L164.631 352.542C163.428 352.187 162.232 351.815 161.045 351.425L160.866 351.969C159.67 351.576 158.481 351.166 157.3 350.738L157.495 350.201C156.315 349.773 155.143 349.329 153.98 348.867L153.769 349.398C152.599 348.934 151.437 348.452 150.284 347.953L150.511 347.428C149.36 346.931 148.218 346.416 147.086 345.884L146.843 346.402C145.702 345.867 144.571 345.315 143.45 344.747L143.709 344.237C142.591 343.671 141.483 343.088 140.385 342.489L140.111 342.991C139.005 342.388 137.909 341.768 136.824 341.133L137.113 340.64C136.031 340.006 134.96 339.357 133.9 338.693L133.596 339.178C132.529 338.509 131.474 337.825 130.429 337.126L130.747 336.65C129.705 335.953 128.675 335.241 127.656 334.513L127.324 334.978C126.3 334.247 125.287 333.501 124.286 332.739L124.632 332.284C123.635 331.526 122.649 330.753 121.676 329.965L121.316 330.41C120.338 329.618 119.372 328.812 118.418 327.992L118.791 327.558C117.841 326.741 116.904 325.91 115.98 325.066L115.594 325.488C114.665 324.639 113.749 323.776 112.846 322.9L113.244 322.49C112.345 321.618 111.46 320.732 110.587 319.833L110.177 320.231C109.301 319.328 108.438 318.412 107.589 317.483L108.011 317.098C107.167 316.173 106.336 315.236 105.519 314.286L105.086 314.659C104.265 313.706 103.459 312.739 102.668 311.761L103.112 311.401C102.325 310.428 101.551 309.442 100.793 308.445L100.338 308.791C99.5766 307.79 98.8302 306.778 98.0988 305.753L98.5642 305.421C97.8366 304.402 97.124 303.372 96.4267 302.33L95.9515 302.648C95.2521 301.604 94.5681 300.548 93.8997 299.481L94.3842 299.178C93.7197 298.117 93.0707 297.046 92.4376 295.964L91.9441 296.253C91.3088 295.168 90.6894 294.072 90.0862 292.966L90.5882 292.692C89.9894 291.594 89.4067 290.486 88.8403 289.369L88.3302 289.627C87.762 288.506 87.2102 287.375 86.6752 286.234L87.1928 285.991C86.6615 284.859 86.1467 283.717 85.6487 282.566L85.1239 282.793C84.6252 281.64 84.1434 280.478 83.6787 279.308L84.2102 279.097C83.7485 277.934 83.3038 276.762 82.8764 275.582L82.3388 275.777C81.9113 274.596 81.5011 273.408 81.1084 272.211L81.6517 272.033C81.262 270.845 80.8897 269.649 80.5351 268.446L79.9866 268.607C79.6314 267.402 79.2938 266.189 78.9743 264.969L79.5274 264.824C79.2111 263.616 78.9125 262.401 78.6319 261.179L78.0746 261.307C77.7934 260.082 77.5303 258.851 77.2853 257.613L77.8463 257.502C77.6039 256.277 77.3796 255.046 77.1735 253.808L76.6094 253.902C76.4034 252.664 76.2155 251.42 76.0461 250.171L76.6127 250.094C76.4447 248.855 76.295 247.61 76.1638 246.359L75.5951 246.419C75.4644 245.173 75.352 243.922 75.2582 242.666L75.8284 242.623C75.7353 241.376 75.6606 240.125 75.6046 238.868L75.0333 238.893C74.9775 237.642 74.9401 236.385 74.9213 235.124L75.493 235.116C75.4837 234.488 75.479 233.859 75.479 233.229C75.479 232.6 75.4837 231.971 75.493 231.343L74.9213 231.335C74.94 230.074 74.9775 228.817 75.0333 227.566L75.6046 227.591C75.6606 226.335 75.7353 225.083 75.8284 223.836L75.2582 223.794C75.352 222.537 75.4644 221.286 75.5951 220.04L76.1638 220.1C76.295 218.849 76.4447 217.604 76.6127 216.365L76.0461 216.288C76.2155 215.039 76.4034 213.795 76.6094 212.557L77.1735 212.651C77.3796 211.414 77.6039 210.182 77.8463 208.957L77.2853 208.846C77.5302 207.608 77.7934 206.377 78.0746 205.152L78.6319 205.28C78.9125 204.058 79.2111 202.843 79.5274 201.635L78.9742 201.49C79.2938 200.27 79.6313 199.057 79.9866 197.852L80.5351 198.013C80.8897 196.81 81.262 195.614 81.6517 194.426L81.1084 194.248C81.501 193.051 81.9112 191.863 82.3387 190.682L82.8764 190.877C83.3037 189.697 83.7484 188.525 84.2102 187.362L83.6787 187.151C84.1434 185.981 84.6252 184.819 85.1239 183.666L85.6487 183.893C86.1466 182.742 86.6614 181.6 87.1928 180.468L86.6752 180.225C87.2102 179.084 87.762 177.953 88.3302 176.832L88.8403 177.09C89.4066 175.973 89.9894 174.865 90.5882 173.767L90.0862 173.493C90.6894 172.387 91.3088 171.291 91.9441 170.206L92.4376 170.495C93.0707 169.413 93.7197 168.342 94.3842 167.281L93.8996 166.978C94.568 165.911 95.2521 164.855 95.9515 163.811L96.4267 164.129C97.1239 163.087 97.8365 162.057 98.5641 161.038L98.0988 160.706C98.8301 159.681 99.5766 158.669 100.338 157.668L100.793 158.014C101.551 157.017 102.325 156.031 103.112 155.058L102.668 154.698C103.459 153.72 104.265 152.753 105.086 151.8L105.519 152.173C106.336 151.223 107.167 150.286 108.011 149.361L107.589 148.976C108.438 148.047 109.301 147.131 110.177 146.228L110.587 146.626C111.46 145.727 112.345 144.841 113.244 143.969L112.846 143.559C113.749 142.683 114.665 141.82 115.594 140.971L115.98 141.393C116.904 140.549 117.841 139.718 118.791 138.901L118.418 138.467C119.372 137.647 120.338 136.841 121.316 136.049L121.676 136.494C122.649 135.706 123.635 134.933 124.632 134.175L124.286 133.72C125.287 132.958 126.299 132.212 127.324 131.481L127.656 131.946C128.675 131.218 129.705 130.506 130.747 129.809L130.429 129.333C131.473 128.634 132.529 127.95 133.596 127.281L133.9 127.766C134.96 127.102 136.031 126.453 137.113 125.819L136.824 125.326C137.909 124.691 139.005 124.071 140.111 123.468L140.385 123.97C141.483 123.371 142.591 122.788 143.709 122.222L143.45 121.712C144.571 121.144 145.702 120.592 146.843 120.057L147.086 120.575C148.218 120.043 149.36 119.528 150.511 119.031L150.284 118.506C151.437 118.007 152.599 117.525 153.769 117.061L153.98 117.592C155.143 117.13 156.315 116.686 157.495 116.258L157.3 115.721C158.481 115.293 159.67 114.883 160.866 114.49L161.044 115.034C162.232 114.644 163.428 114.272 164.631 113.917L164.47 113.368C165.675 113.013 166.888 112.676 168.108 112.356L168.253 112.909C169.461 112.593 170.676 112.294 171.898 112.014L171.77 111.456C172.995 111.175 174.226 110.912 175.464 110.667L175.575 111.228C176.8 110.986 178.032 110.761 179.269 110.555L179.175 109.991C180.413 109.785 181.657 109.597 182.906 109.428L182.983 109.995C184.222 109.827 185.467 109.677 186.718 109.546L186.658 108.977C187.904 108.846 189.155 108.734 190.412 108.64L190.454 109.21C191.701 109.117 192.953 109.042 194.209 108.986L194.184 108.415C195.435 108.359 196.692 108.322 197.953 108.303L197.961 108.875C198.589 108.866 199.218 108.861 199.848 108.861C200.478 108.861 201.106 108.866 201.734 108.875L201.742 108.303C203.003 108.322 204.26 108.359 205.512 108.415L205.486 108.986C206.743 109.042 207.994 109.117 209.241 109.21L209.284 108.64C210.54 108.734 211.791 108.846 213.037 108.977L212.977 109.546C214.228 109.677 215.473 109.827 216.712 109.995L216.789 109.428C218.039 109.597 219.282 109.785 220.52 109.991L220.426 110.555C221.664 110.761 222.895 110.986 224.12 111.228L224.231 110.667C225.469 110.912 226.701 111.175 227.925 111.456L227.797 112.014C229.019 112.294 230.234 112.593 231.442 112.909L231.587 112.356C232.807 112.676 234.02 113.013 235.226 113.368L235.064 113.917C236.267 114.272 237.463 114.644 238.651 115.034L238.829 114.49C240.026 114.883 241.214 115.293 242.395 115.721L242.2 116.258C243.38 116.686 244.552 117.13 245.715 117.592L245.926 117.061C247.097 117.525 248.258 118.007 249.411 118.506L249.184 119.031C250.335 119.528 251.477 120.043 252.61 120.575L252.852 120.057C253.993 120.592 255.124 121.144 256.245 121.712L255.987 122.222C257.104 122.788 258.212 123.371 259.31 123.97L259.584 123.468C260.69 124.071 261.786 124.691 262.871 125.326L262.583 125.819C263.664 126.453 264.735 127.101 265.796 127.766L266.099 127.281C267.166 127.95 268.222 128.634 269.267 129.333L268.948 129.808C269.99 130.506 271.02 131.218 272.039 131.946L272.372 131.481C273.396 132.212 274.409 132.958 275.409 133.72L275.063 134.175C276.061 134.933 277.046 135.706 278.02 136.494L278.379 136.049C279.358 136.841 280.324 137.647 281.277 138.467L280.905 138.901C281.854 139.718 282.791 140.549 283.716 141.393L284.102 140.971C285.03 141.82 285.947 142.683 286.849 143.559L286.451 143.969C287.35 144.841 288.236 145.727 289.108 146.626L289.518 146.228C290.395 147.131 291.257 148.047 292.106 148.976L291.684 149.361C292.529 150.286 293.359 151.223 294.176 152.173L294.61 151.8C295.43 152.753 296.236 153.72 297.028 154.698L296.583 155.058C297.371 156.031 298.144 157.017 298.902 158.014L299.358 157.668C300.119 158.669 300.865 159.681 301.597 160.706L301.131 161.038C301.859 162.057 302.571 163.087 303.269 164.129L303.744 163.811C304.443 164.855 305.127 165.911 305.796 166.978L305.311 167.281C305.976 168.342 306.625 169.413 307.258 170.495L307.751 170.206C308.387 171.291 309.006 172.387 309.609 173.493L309.107 173.767C309.706 174.865 310.289 175.973 310.855 177.09L311.365 176.832C311.933 177.953 312.485 179.084 313.02 180.225L312.503 180.468C313.034 181.6 313.549 182.742 314.047 183.893L314.571 183.666C315.07 184.819 315.552 185.981 316.017 187.151L315.485 187.362C315.947 188.525 316.392 189.697 316.819 190.877L317.357 190.682C317.784 191.863 318.194 193.051 318.587 194.248L318.044 194.426C318.433 195.614 318.806 196.81 319.16 198.013L319.709 197.852C320.064 199.057 320.402 200.27 320.721 201.49L320.168 201.635C320.484 202.843 320.783 204.058 321.063 205.28L321.621 205.152C321.902 206.377 322.165 207.608 322.41 208.846L321.849 208.957C322.091 210.182 322.316 211.413 322.522 212.651L323.086 212.557C323.292 213.795 323.48 215.039 323.649 216.288L323.083 216.365C323.251 217.604 323.4 218.849 323.532 220.1L324.1 220.04C324.231 221.286 324.343 222.537 324.437 223.793L323.867 223.836C323.96 225.083 324.035 226.334 324.091 227.591L324.662 227.566Z" stroke="#3A7126" stroke-opacity="0.56" stroke-width="1.14362" stroke-dasharray="3.81 3.81"/>
<path d="M399.804 227.183C399.84 228.459 399.865 229.737 399.877 231.019L399.305 231.024C399.311 231.663 399.314 232.303 399.314 232.943C399.314 233.583 399.311 234.223 399.305 234.862L399.877 234.867C399.865 236.149 399.84 237.427 399.804 238.703L399.233 238.686C399.197 239.958 399.149 241.227 399.089 242.493L399.66 242.52C399.6 243.8 399.528 245.078 399.443 246.352L398.873 246.314C398.788 247.587 398.692 248.856 398.584 250.123L399.154 250.171C399.045 251.443 398.925 252.712 398.793 253.976L398.224 253.917C398.091 255.188 397.946 256.456 397.789 257.72L398.357 257.791C398.2 259.059 398.031 260.323 397.85 261.583L397.284 261.502C397.103 262.764 396.91 264.023 396.705 265.277L397.27 265.369C397.064 266.633 396.846 267.892 396.616 269.147L396.054 269.044C395.825 270.296 395.584 271.543 395.332 272.787L395.892 272.9C395.638 274.156 395.371 275.407 395.093 276.653L394.535 276.529C394.258 277.773 393.969 279.012 393.668 280.247L394.224 280.383C393.922 281.624 393.608 282.86 393.283 284.092L392.73 283.947C392.405 285.18 392.068 286.41 391.719 287.634L392.269 287.791C391.92 289.019 391.559 290.242 391.186 291.46L390.64 291.293C390.267 292.513 389.883 293.728 389.487 294.937L390.031 295.115C389.634 296.33 389.225 297.54 388.805 298.745L388.265 298.556C387.847 299.759 387.417 300.956 386.976 302.147L387.512 302.346C387.068 303.546 386.612 304.74 386.146 305.929L385.614 305.72C385.149 306.905 384.673 308.085 384.186 309.26L384.714 309.479C384.224 310.659 383.724 311.834 383.212 313.004L382.688 312.774C382.178 313.942 381.656 315.104 381.124 316.259L381.643 316.499C381.109 317.658 380.564 318.812 380.008 319.959L379.494 319.71C378.938 320.858 378.372 321.999 377.795 323.134L378.305 323.393C377.726 324.532 377.137 325.664 376.538 326.79L376.033 326.521C375.434 327.646 374.825 328.764 374.205 329.875L374.705 330.154C374.082 331.27 373.45 332.379 372.807 333.482L372.313 333.194C371.672 334.294 371.021 335.387 370.359 336.473L370.848 336.771C370.183 337.862 369.508 338.947 368.823 340.025L368.341 339.719C367.658 340.793 366.965 341.861 366.262 342.922L366.739 343.238C366.033 344.303 365.318 345.36 364.593 346.41L364.122 346.086C363.398 347.134 362.665 348.175 361.922 349.208L362.386 349.542C361.641 350.579 360.886 351.608 360.121 352.629L359.663 352.287C358.9 353.307 358.127 354.319 357.345 355.324L357.796 355.675C357.011 356.683 356.217 357.682 355.414 358.674L354.97 358.315C354.169 359.304 353.358 360.286 352.538 361.26L352.976 361.628C352.153 362.605 351.322 363.574 350.481 364.535L350.05 364.159C349.212 365.117 348.365 366.067 347.509 367.009L347.932 367.394C347.073 368.338 346.205 369.275 345.328 370.203L344.912 369.811C344.038 370.737 343.155 371.654 342.263 372.563L342.672 372.963C341.777 373.874 340.874 374.777 339.963 375.672L339.563 375.263C338.654 376.155 337.737 377.038 336.811 377.912L337.204 378.328C336.275 379.205 335.339 380.073 334.394 380.932L334.009 380.509C333.067 381.365 332.117 382.212 331.159 383.05L331.535 383.481C330.574 384.321 329.605 385.153 328.628 385.976L328.26 385.538C327.286 386.358 326.304 387.168 325.315 387.97L325.674 388.414C324.682 389.217 323.683 390.011 322.675 390.796L322.324 390.345C321.319 391.127 320.307 391.9 319.287 392.663L319.629 393.121C318.608 393.886 317.579 394.641 316.542 395.386L316.208 394.922C315.175 395.665 314.134 396.398 313.086 397.122L313.41 397.593C312.36 398.318 311.303 399.033 310.238 399.739L309.922 399.262C308.861 399.965 307.793 400.658 306.719 401.341L307.025 401.823C305.947 402.508 304.862 403.183 303.771 403.848L303.473 403.359C302.387 404.021 301.294 404.672 300.194 405.313L300.482 405.807C299.379 406.45 298.27 407.082 297.154 407.705L296.875 407.205C295.764 407.825 294.646 408.434 293.521 409.033L293.79 409.537C292.664 410.137 291.532 410.726 290.393 411.305L290.134 410.795C288.999 411.372 287.858 411.938 286.71 412.494L286.959 413.008C285.812 413.564 284.658 414.109 283.499 414.643L283.259 414.124C282.104 414.656 280.942 415.177 279.774 415.688L280.003 416.212C278.834 416.724 277.659 417.224 276.479 417.714L276.26 417.186C275.085 417.673 273.905 418.149 272.72 418.614L272.929 419.146C271.74 419.612 270.546 420.068 269.346 420.512L269.147 419.975C267.956 420.417 266.759 420.847 265.556 421.265L265.744 421.805C264.54 422.225 263.33 422.633 262.115 423.031L261.937 422.487C260.727 422.883 259.513 423.267 258.293 423.639L258.46 424.186C257.242 424.559 256.019 424.92 254.791 425.269L254.634 424.719C253.41 425.068 252.18 425.405 250.946 425.73L251.092 426.283C249.86 426.608 248.624 426.922 247.382 427.224L247.247 426.668C246.012 426.969 244.773 427.258 243.529 427.535L243.653 428.093C242.406 428.371 241.155 428.638 239.9 428.892L239.786 428.332C238.543 428.584 237.296 428.825 236.044 429.054L236.147 429.616C234.892 429.846 233.632 430.064 232.369 430.27L232.277 429.705C231.023 429.91 229.764 430.103 228.502 430.284L228.583 430.85C227.323 431.031 226.058 431.2 224.791 431.357L224.72 430.789C223.456 430.946 222.188 431.091 220.917 431.224L220.976 431.793C219.711 431.925 218.443 432.045 217.171 432.154L217.123 431.584C215.856 431.692 214.587 431.788 213.314 431.873L213.351 432.443C212.077 432.527 210.8 432.6 209.52 432.66L209.493 432.089C208.227 432.149 206.958 432.197 205.686 432.233L205.702 432.804C204.427 432.84 203.148 432.864 201.867 432.877L201.862 432.305C201.223 432.311 200.583 432.314 199.943 432.314C199.302 432.314 198.663 432.311 198.024 432.305L198.018 432.877C196.737 432.864 195.459 432.84 194.183 432.804L194.199 432.233C192.927 432.197 191.659 432.149 190.393 432.089L190.366 432.66C189.085 432.6 187.808 432.527 186.534 432.443L186.572 431.873C185.299 431.788 184.029 431.692 182.763 431.584L182.714 432.154C181.443 432.045 180.174 431.925 178.909 431.792L178.969 431.224C177.697 431.091 176.429 430.946 175.165 430.789L175.095 431.357C173.827 431.2 172.563 431.031 171.303 430.85L171.384 430.284C170.121 430.103 168.863 429.91 167.608 429.705L167.516 430.27C166.253 430.064 164.994 429.846 163.739 429.616L163.841 429.054C162.59 428.825 161.342 428.584 160.099 428.332L159.985 428.892C158.73 428.638 157.479 428.371 156.232 428.093L156.357 427.535C155.113 427.258 153.873 426.969 152.638 426.668L152.503 427.224C151.262 426.922 150.025 426.608 148.793 426.283L148.939 425.73C147.705 425.405 146.476 425.068 145.251 424.719L145.095 425.269C143.867 424.92 142.644 424.559 141.426 424.186L141.593 423.639C140.373 423.267 139.158 422.883 137.948 422.487L137.771 423.031C136.556 422.633 135.346 422.225 134.141 421.805L134.329 421.265C133.127 420.847 131.93 420.417 130.738 419.975L130.54 420.512C129.34 420.068 128.146 419.612 126.957 419.146L127.166 418.614C125.98 418.149 124.8 417.673 123.626 417.186L123.407 417.714C122.226 417.224 121.051 416.724 119.882 416.212L120.111 415.688C118.944 415.177 117.782 414.656 116.626 414.123L116.387 414.643C115.228 414.109 114.074 413.564 112.927 413.008L113.176 412.494C112.028 411.938 110.887 411.372 109.751 410.795L109.492 411.305C108.354 410.726 107.221 410.137 106.095 409.537L106.364 409.033C105.24 408.434 104.122 407.825 103.01 407.205L102.732 407.704C101.616 407.082 100.506 406.45 99.4034 405.807L99.6914 405.313C98.5916 404.672 97.4985 404.021 96.4123 403.359L96.1149 403.848C95.0232 403.183 93.9383 402.508 92.8604 401.823L93.1671 401.341C92.0922 400.658 91.0244 399.965 89.9637 399.262L89.6479 399.739C88.5831 399.033 87.5255 398.318 86.4752 397.593L86.8001 397.122C85.7519 396.398 84.7109 395.665 83.6774 394.922L83.3435 395.386C82.307 394.641 81.2779 393.886 80.2563 393.121L80.599 392.663C79.579 391.9 78.5666 391.127 77.5619 390.345L77.2106 390.796C76.2031 390.011 75.2032 389.217 74.2112 388.414L74.571 387.97C73.5814 387.168 72.5996 386.358 71.6257 385.538L71.2575 385.976C70.2804 385.153 69.3114 384.321 68.3504 383.481L68.7269 383.05C67.7687 382.212 66.8186 381.365 65.8767 380.509L65.4921 380.932C64.5472 380.073 63.6105 379.205 62.6822 378.328L63.0748 377.912C62.1491 377.038 61.2318 376.155 60.323 375.263L59.9226 375.671C59.0112 374.777 58.1083 373.874 57.2141 372.963L57.6223 372.563C56.7306 371.654 55.8476 370.737 54.9734 369.811L54.5576 370.203C53.6809 369.275 52.813 368.338 51.9539 367.393L52.3771 367.009C51.5208 366.067 50.6735 365.117 49.8352 364.159L49.4049 364.535C48.5642 363.574 47.7325 362.605 46.9101 361.628L47.3475 361.26C46.5278 360.286 45.7172 359.304 44.9158 358.315L44.4714 358.674C43.6682 357.682 42.8742 356.683 42.0897 355.675L42.5409 355.324C41.7586 354.319 40.9857 353.307 40.2224 352.287L39.7646 352.629C39 351.608 38.245 350.579 37.4997 349.542L37.964 349.208C37.2208 348.175 36.4873 347.134 35.7635 346.086L35.293 346.41C34.5677 345.36 33.8523 344.302 33.1468 343.238L33.6235 342.922C32.9207 341.861 32.2277 340.793 31.5448 339.719L31.0622 340.025C30.3773 338.947 29.7024 337.862 29.0378 336.771L29.5262 336.473C28.8648 335.387 28.2136 334.294 27.5726 333.194L27.0786 333.482C26.4358 332.379 25.8033 331.27 25.1811 330.154L25.6806 329.875C25.061 328.764 24.4517 327.646 23.8529 326.521L23.3482 326.79C22.7486 325.664 22.1595 324.532 21.5809 323.393L22.0907 323.134C21.5138 321.999 20.9475 320.857 20.3919 319.71L19.8772 319.959C19.3217 318.812 18.7769 317.658 18.2428 316.499L18.7621 316.259C18.2298 315.104 17.7081 313.942 17.1974 312.774L16.6735 313.003C16.162 311.834 15.6614 310.659 15.1718 309.478L15.7 309.259C15.213 308.085 14.737 306.905 14.272 305.72L13.7397 305.929C13.2733 304.74 12.818 303.545 12.3739 302.346L12.9102 302.147C12.4691 300.956 12.0391 299.759 11.6202 298.556L11.0803 298.744C10.6606 297.54 10.2521 296.33 9.85498 295.115L10.3985 294.937C10.0031 293.727 9.61891 292.513 9.24613 291.293L8.69929 291.46C8.327 290.242 7.96603 289.019 7.6165 287.791L8.16646 287.634C7.81795 286.41 7.48084 285.18 7.15526 283.946L6.60237 284.092C6.2773 282.86 5.9637 281.624 5.66168 280.382L6.21727 280.247C5.91675 279.012 5.62772 277.773 5.35032 276.529L4.79222 276.653C4.5142 275.406 4.24783 274.155 3.99322 272.9L4.55362 272.786C4.30145 271.543 4.06085 270.296 3.83194 269.044L3.26946 269.147C3.03989 267.892 2.82204 266.632 2.61603 265.369L3.18038 265.277C2.97579 264.023 2.78291 262.764 2.60185 261.502L2.03583 261.583C1.85505 260.323 1.68602 259.058 1.52887 257.791L2.09633 257.72C1.93963 256.456 1.79475 255.188 1.66183 253.917L1.09312 253.976C0.960884 252.711 0.840441 251.443 0.731904 250.171L1.30164 250.123C1.19357 248.856 1.09734 247.587 1.01305 246.314L0.44249 246.351C0.35813 245.077 0.285704 243.8 0.225322 242.52L0.796497 242.493C0.736805 241.227 0.688917 239.958 0.65294 238.686L0.0813586 238.702C0.0452801 237.427 0.0211469 236.148 0.00906679 234.867L0.580851 234.862C0.574828 234.223 0.57181 233.583 0.57181 232.943C0.57181 232.302 0.574829 231.663 0.580854 231.024L0.00906938 231.018C0.0211511 229.737 0.0452859 228.459 0.0813657 227.183L0.652947 227.199C0.688925 225.927 0.736815 224.658 0.796509 223.393L0.225334 223.366C0.285717 222.085 0.358145 220.808 0.442506 219.534L1.01307 219.572C1.09736 218.299 1.19359 217.029 1.30166 215.763L0.731923 215.714C0.840462 214.442 0.960906 213.174 1.09314 211.909L1.66185 211.969C1.79478 210.697 1.93965 209.429 2.09636 208.165L1.52889 208.095C1.68605 206.827 1.85508 205.563 2.03586 204.302L2.60187 204.384C2.78294 203.121 2.97582 201.863 3.18041 200.608L2.61606 200.516C2.82207 199.253 3.03992 197.994 3.2695 196.739L3.83197 196.841C4.06089 195.59 4.30148 194.342 4.55365 193.099L3.99325 192.985C4.24787 191.73 4.51424 190.479 4.79226 189.232L5.35036 189.357C5.62776 188.113 5.91679 186.873 6.21732 185.638L5.66172 185.503C5.96374 184.262 6.27735 183.025 6.60242 181.793L7.15531 181.939C7.48088 180.705 7.81799 179.476 8.16651 178.251L7.61655 178.095C7.96607 176.867 8.32704 175.644 8.69933 174.426L9.24617 174.593C9.61895 173.373 10.0031 172.158 10.3985 170.948L9.85502 170.771C10.2522 169.556 10.6606 168.346 11.0803 167.141L11.6203 167.329C12.0391 166.127 12.4691 164.93 12.9102 163.738L12.3739 163.54C12.8181 162.34 13.2734 161.146 13.7397 159.957L14.272 160.166C14.737 158.98 15.2131 157.8 15.7 156.626L15.1718 156.407C15.6615 155.226 16.1621 154.051 16.6735 152.882L17.1974 153.111C17.7082 151.944 18.2298 150.782 18.7622 149.626L18.2428 149.387C18.7769 148.227 19.3218 147.074 19.8773 145.927L20.3919 146.176C20.9476 145.028 21.5139 143.886 22.0908 142.751L21.581 142.492C22.1595 141.354 22.7486 140.221 23.3482 139.095L23.8529 139.364C24.4517 138.24 25.061 137.122 25.6806 136.01L25.1812 135.732C25.8033 134.616 26.4358 133.506 27.0786 132.403L27.5726 132.691C28.2137 131.592 28.8649 130.499 29.5262 129.412L29.0378 129.115C29.7025 128.023 30.3773 126.938 31.0622 125.86L31.5449 126.167C32.2278 125.092 32.9207 124.024 33.6235 122.964L33.1469 122.648C33.8524 121.583 34.5678 120.525 35.293 119.475L35.7635 119.8C36.4873 118.752 37.2208 117.711 37.964 116.677L37.4997 116.344C38.2451 115.307 39 114.278 39.7646 113.256L40.2224 113.599C40.9857 112.579 41.7586 111.567 42.5409 110.562L42.0897 110.211C42.8743 109.203 43.6682 108.203 44.4715 107.211L44.9159 107.571C45.7172 106.581 46.5278 105.6 47.3476 104.626L46.9101 104.257C47.7326 103.28 48.5642 102.311 49.4049 101.35L49.8352 101.727C50.6735 100.769 51.5209 99.8186 52.3771 98.8767L51.954 98.4921C52.813 97.5471 53.6809 96.6104 54.5577 95.6821L54.9734 96.0748C55.8476 95.1491 56.7307 94.2318 57.6223 93.323L57.2142 92.9225C58.1084 92.0112 59.0112 91.1083 59.9226 90.2141L60.3231 90.6223C61.2318 89.7306 62.1491 88.8476 63.0748 87.9733L62.6822 87.5576C63.6105 86.6809 64.5472 85.8129 65.4921 84.9539L65.8768 85.377C66.8187 84.5208 67.7688 83.6735 68.727 82.8352L68.3505 82.4048C69.3114 81.5642 70.2805 80.7325 71.2575 79.9101L71.6257 80.3475C72.5996 79.5278 73.5814 78.7171 74.571 77.9158L74.2112 77.4714C75.2032 76.6682 76.2031 75.8742 77.2107 75.0897L77.562 75.5409C78.5667 74.7586 79.5791 73.9857 80.599 73.2223L80.2564 72.7645C81.2779 72 82.307 71.245 83.3436 70.4997L83.6774 70.9639C84.7109 70.2208 85.7519 69.4872 86.8001 68.7635L86.4752 68.2929C87.5256 67.5677 88.5832 66.8523 89.6479 66.1468L89.9638 66.6235C91.0245 65.9207 92.0923 65.2277 93.1671 64.5448L92.8605 64.0622C93.9383 63.3773 95.0232 62.7024 96.115 62.0378L96.4124 62.5262C97.4986 61.8648 98.5917 61.2136 99.6914 60.5726L99.4035 60.0786C100.506 59.4358 101.616 58.8033 102.732 58.1811L103.01 58.6805C104.122 58.0609 105.24 57.4517 106.364 56.8528L106.096 56.3481C107.221 55.7486 108.354 55.1595 109.492 54.5809L109.751 55.0907C110.887 54.5138 112.028 53.9475 113.176 53.3919L112.927 52.8772C114.074 52.3217 115.228 51.7768 116.387 51.2428L116.626 51.7621C117.782 51.2298 118.944 50.7081 120.111 50.1973L119.882 49.6735C121.051 49.162 122.226 48.6614 123.407 48.1718L123.626 48.7C124.8 48.213 125.98 47.737 127.166 47.272L126.957 46.7397C128.146 46.2733 129.34 45.818 130.54 45.3739L130.739 45.9101C131.93 45.4691 133.127 45.0391 134.329 44.6202L134.141 44.0802C135.346 43.6606 136.556 43.2521 137.771 42.855L137.948 43.3985C139.158 43.0031 140.373 42.6189 141.593 42.2461L141.426 41.6993C142.644 41.327 143.867 40.966 145.095 40.6165L145.252 41.1665C146.476 40.8179 147.705 40.4808 148.939 40.1553L148.793 39.6024C150.025 39.2773 151.262 38.9637 152.503 38.6617L152.638 39.2173C153.873 38.9167 155.113 38.6277 156.357 38.3503L156.233 37.7922C157.479 37.5142 158.73 37.2478 159.986 36.9932L160.099 37.5536C161.343 37.3014 162.59 37.0608 163.842 36.8319L163.739 36.2695C164.994 36.0399 166.253 35.822 167.517 35.616L167.609 36.1804C168.863 35.9758 170.122 35.7829 171.384 35.6018L171.303 35.0358C172.563 34.855 173.827 34.686 175.095 34.5289L175.165 35.0963C176.43 34.9396 177.698 34.7948 178.969 34.6618L178.91 34.0931C180.174 33.9609 181.443 33.8404 182.715 33.7319L182.763 34.3016C184.029 34.1936 185.299 34.0973 186.572 34.013L186.534 33.4425C187.808 33.3581 189.086 33.2857 190.366 33.2253L190.393 33.7965C191.659 33.7368 192.928 33.6889 194.2 33.6529L194.183 33.0814C195.459 33.0453 196.737 33.0211 198.019 33.0091L198.024 33.5809C198.663 33.5748 199.303 33.5718 199.943 33.5718C200.583 33.5718 201.223 33.5748 201.862 33.5809L201.867 33.0091C203.149 33.0212 204.427 33.0453 205.703 33.0814L205.686 33.6529C206.958 33.6889 208.227 33.7368 209.493 33.7965L209.52 33.2253C210.8 33.2857 212.078 33.3581 213.352 33.4425L213.314 34.0131C214.587 34.0974 215.857 34.1936 217.123 34.3017L217.171 33.7319C218.443 33.8405 219.712 33.9609 220.976 34.0931L220.917 34.6619C222.188 34.7948 223.456 34.9396 224.721 35.0964L224.791 34.5289C226.059 34.686 227.323 34.8551 228.583 35.0359L228.502 35.6019C229.764 35.7829 231.023 35.9758 232.277 36.1804L232.369 35.6161C233.633 35.8221 234.892 36.0399 236.147 36.2695L236.044 36.832C237.296 37.0609 238.543 37.3015 239.787 37.5537L239.9 36.9933C241.156 37.2479 242.407 37.5142 243.653 37.7923L243.529 38.3504C244.773 38.6278 246.012 38.9168 247.247 39.2173L247.383 38.6617C248.624 38.9637 249.861 39.2773 251.093 39.6024L250.947 40.1553C252.181 40.4809 253.41 40.818 254.634 41.1665L254.791 40.6165C256.019 40.9661 257.242 41.327 258.46 41.6993L258.293 42.2462C259.513 42.6189 260.728 43.0031 261.937 43.3985L262.115 42.855C263.33 43.2522 264.54 43.6606 265.745 44.0803L265.556 44.6203C266.759 45.0391 267.956 45.4691 269.147 45.9102L269.346 45.3739C270.546 45.8181 271.74 46.2733 272.929 46.7397L272.72 47.272C273.906 47.737 275.085 48.2131 276.26 48.7L276.479 48.1718C277.659 48.6614 278.834 49.1621 280.004 49.6735L279.774 50.1974C280.942 50.7082 282.104 51.2298 283.259 51.7622L283.499 51.2428C284.658 51.7769 285.812 52.3217 286.959 52.8772L286.71 53.3919C287.858 53.9475 288.999 54.5139 290.134 55.0907L290.393 54.581C291.532 55.1595 292.664 55.7486 293.79 56.3482L293.521 56.8529C294.646 57.4517 295.764 58.061 296.875 58.6806L297.154 58.1811C298.27 58.8033 299.38 59.4358 300.482 60.0786L300.194 60.5726C301.294 61.2136 302.387 61.8649 303.473 62.5262L303.771 62.0378C304.863 62.7025 305.947 63.3773 307.025 64.0622L306.719 64.5448C307.793 65.2278 308.861 65.9207 309.922 66.6235L310.238 66.1469C311.303 66.8523 312.36 67.5678 313.411 68.293L313.086 68.7635C314.134 69.4873 315.175 70.2208 316.208 70.964L316.542 70.4997C317.579 71.245 318.608 72 319.629 72.7646L319.287 73.2224C320.307 73.9857 321.319 74.7586 322.324 75.5409L322.675 75.0897C323.683 75.8742 324.683 76.6682 325.675 77.4715L325.315 77.9158C326.304 78.7172 327.286 79.5278 328.26 80.3475L328.628 79.9101C329.605 80.7325 330.574 81.5642 331.535 82.4049L331.159 82.8352C332.117 83.6735 333.067 84.5208 334.009 85.3771L334.394 84.954C335.339 85.813 336.275 86.6809 337.204 87.5577L336.811 87.9734C337.737 88.8476 338.654 89.7306 339.563 90.6223L339.963 90.2141C340.875 91.1083 341.777 92.0112 342.672 92.9226L342.263 93.323C343.155 94.2318 344.038 95.1491 344.912 96.0748L345.328 95.6822C346.205 96.6105 347.073 97.5472 347.932 98.4921L347.509 98.8768C348.365 99.8186 349.212 100.769 350.051 101.727L350.481 101.35C351.322 102.311 352.153 103.28 352.976 104.257L352.538 104.626C353.358 105.6 354.169 106.581 354.97 107.571L355.414 107.211C356.218 108.203 357.012 109.203 357.796 110.211L357.345 110.562C358.127 111.567 358.9 112.579 359.663 113.599L360.121 113.256C360.886 114.278 361.641 115.307 362.386 116.344L361.922 116.677C362.665 117.711 363.398 118.752 364.122 119.8L364.593 119.475C365.318 120.526 366.033 121.583 366.739 122.648L366.262 122.964C366.965 124.024 367.658 125.092 368.341 126.167L368.824 125.86C369.508 126.938 370.183 128.023 370.848 129.115L370.36 129.412C371.021 130.499 371.672 131.592 372.313 132.691L372.807 132.403C373.45 133.506 374.082 134.616 374.705 135.732L374.205 136.01C374.825 137.122 375.434 138.24 376.033 139.364L376.538 139.096C377.137 140.221 377.726 141.354 378.305 142.492L377.795 142.751C378.372 143.887 378.938 145.028 379.494 146.176L380.009 145.927C380.564 147.074 381.109 148.228 381.643 149.387L381.124 149.626C381.656 150.782 382.178 151.944 382.688 153.111L383.212 152.882C383.724 154.051 384.224 155.226 384.714 156.407L384.186 156.626C384.673 157.8 385.149 158.98 385.614 160.166L386.146 159.957C386.612 161.146 387.068 162.34 387.512 163.54L386.976 163.738C387.417 164.93 387.847 166.127 388.265 167.329L388.805 167.141C389.225 168.346 389.634 169.556 390.031 170.771L389.487 170.948C389.883 172.158 390.267 173.373 390.64 174.593L391.186 174.426C391.559 175.644 391.92 176.867 392.269 178.095L391.719 178.252C392.068 179.476 392.405 180.705 392.73 181.939L393.283 181.793C393.608 183.025 393.922 184.262 394.224 185.503L393.668 185.638C393.969 186.873 394.258 188.113 394.535 189.357L395.094 189.232C395.372 190.479 395.638 191.73 395.892 192.986L395.332 193.099C395.584 194.343 395.825 195.59 396.054 196.842L396.616 196.739C396.846 197.994 397.064 199.253 397.27 200.516L396.705 200.609C396.91 201.863 397.103 203.122 397.284 204.384L397.85 204.303C398.031 205.563 398.2 206.827 398.357 208.095L397.789 208.165C397.946 209.43 398.091 210.697 398.224 211.969L398.793 211.909C398.925 213.174 399.045 214.443 399.154 215.714L398.584 215.763C398.692 217.029 398.788 218.299 398.873 219.572L399.443 219.534C399.528 220.808 399.6 222.086 399.66 223.366L399.089 223.393C399.149 224.659 399.197 225.928 399.233 227.2L399.804 227.183Z" stroke="#3A7126" stroke-opacity="0.56" stroke-width="1.14362" stroke-dasharray="3.81 3.81"/>
<path d="M200 231L277 146" stroke="#3A7126" stroke-opacity="0.56" stroke-width="0.57181" stroke-dasharray="3.81 3.81"/>
<path d="M200 231L183 34" stroke="#3A7126" stroke-opacity="0.56" stroke-width="0.57181" stroke-dasharray="3.81 3.81"/>
<path d="M200.134 230.847L387.687 166.613" stroke="#3A7126" stroke-opacity="0.56" stroke-width="0.57181" stroke-dasharray="3.81 3.81"/>
<ellipse cx="243.24" cy="182.24" rx="3.24026" ry="3.24026" fill="#2684FF"/>
<ellipse cx="188.24" cy="88.2403" rx="3.24026" ry="3.24026" fill="black"/>
<ellipse cx="336.268" cy="184.24" rx="3.24026" ry="3.24026" fill="#00A82D"/>
<path d="M194.049 230.937L85.7706 215.334" stroke="#3A7126" stroke-opacity="0.56" stroke-width="0.57181" stroke-dasharray="3.81 3.81"/>
<path d="M194.05 230.937L49.1761 103.905" stroke="#3A7126" stroke-opacity="0.56" stroke-width="0.57181" stroke-dasharray="3.81 3.81"/>
<path d="M194.05 230.936L14.2957 315.474" stroke="#3A7126" stroke-opacity="0.56" stroke-width="0.57181" stroke-dasharray="3.81 3.81"/>
<path d="M200.07 233.134L167 348" stroke="#3A7126" stroke-opacity="0.56" stroke-width="0.57181" stroke-dasharray="3.81 3.81"/>
<path d="M200.07 233.135L240 434" stroke="#3A7126" stroke-opacity="0.56" stroke-width="0.57181" stroke-dasharray="3.81 3.81"/>
<path d="M200.07 233.133L357 353" stroke="#3A7126" stroke-opacity="0.56" stroke-width="0.57181" stroke-dasharray="3.81 3.81"/>
<g filter="url(#filter0_d_437_337)">
<ellipse cx="85.771" cy="218.267" rx="25.1596" ry="25.1596" fill="white"/>
</g>
<path d="M85.5252 230.117L90.2788 215.486H80.7715L85.5252 230.117Z" fill="#E24329"/>
<path d="M85.5264 230.117L80.7727 215.486H74.1104L85.5264 230.117Z" fill="#FC6D26"/>
<path d="M74.109 215.486L72.6643 219.933C72.6001 220.13 72.6002 220.343 72.6644 220.541C72.7286 220.739 72.8537 220.911 73.0218 221.033L85.525 230.117L74.109 215.486Z" fill="#FCA326"/>
<path d="M74.1104 215.486H80.7727L77.9095 206.674C77.7622 206.221 77.1208 206.221 76.9736 206.674L74.1104 215.486Z" fill="#E24329"/>
<path d="M85.5254 230.117L90.2791 215.486H96.9414L85.5254 230.117Z" fill="#FC6D26"/>
<path d="M96.9414 215.486L98.3861 219.933C98.4503 220.13 98.4502 220.343 98.386 220.541C98.3218 220.739 98.1967 220.911 98.0286 221.033L85.5254 230.117L96.9414 215.486V215.486Z" fill="#FCA326"/>
<path d="M96.9417 215.486H90.2793L93.1425 206.674C93.2898 206.221 93.9312 206.221 94.0785 206.674L96.9417 215.486V215.486Z" fill="#E24329"/>
<ellipse cx="136.24" cy="222.24" rx="3.24026" ry="3.24026" fill="#E24329"/>
<ellipse cx="64.2676" cy="291.24" rx="3.24026" ry="3.24026" fill="#FF3366"/>
<ellipse cx="314.24" cy="320.24" rx="3.24026" ry="3.24026" fill="#FFBE22"/>
<g filter="url(#filter1_d_437_337)">
<ellipse cx="280.16" cy="140.16" rx="24.16" ry="24.16" fill="white"/>
</g>
<path d="M275.672 136.255V136.255C275.617 136.19 275.547 136.14 275.468 136.109C275.39 136.077 275.305 136.065 275.221 136.073C275.15 136.086 275.083 136.116 275.027 136.161C274.97 136.207 274.926 136.265 274.898 136.332L269.577 146.968C269.541 147.039 269.524 147.118 269.528 147.198C269.531 147.277 269.555 147.354 269.597 147.422C269.639 147.49 269.697 147.546 269.766 147.584C269.836 147.623 269.914 147.643 269.994 147.643H277.403C277.49 147.645 277.575 147.622 277.649 147.576C277.722 147.53 277.781 147.464 277.818 147.385C279.375 144.173 278.411 139.181 275.672 136.255V136.255Z" fill="url(#paint0_linear_437_337)"/>
<path d="M290.847 146.972C290.747 146.772 280.877 127.024 280.634 126.533C280.602 126.464 280.553 126.405 280.49 126.362C280.428 126.319 280.355 126.294 280.279 126.289L280.262 126.289C280.176 126.294 280.092 126.32 280.019 126.366C279.945 126.412 279.885 126.475 279.843 126.551L279.842 126.552C277.167 130.79 276.864 135.907 279.032 140.24L282.603 147.383C282.641 147.462 282.7 147.529 282.774 147.575C282.848 147.622 282.934 147.647 283.021 147.647H290.43C290.509 147.647 290.587 147.627 290.657 147.588C290.726 147.549 290.785 147.494 290.826 147.426C290.868 147.358 290.892 147.281 290.896 147.202C290.899 147.122 290.882 147.043 290.847 146.972V146.972Z" fill="url(#paint1_linear_437_337)"/>
<g filter="url(#filter2_d_437_337)">
<ellipse cx="43.743" cy="103.428" rx="18.5838" ry="18.5838" fill="white"/>
</g>
<path fill-rule="evenodd" clip-rule="evenodd" d="M37.6701 106.191C37.6701 107.412 36.6846 108.398 35.4635 108.398C34.2424 108.398 33.2568 107.409 33.2568 106.191C33.2568 104.973 34.2424 103.984 35.4635 103.984H37.6701V106.191ZM38.7718 106.191C38.7718 104.97 39.7573 103.984 40.9785 103.984C42.1996 103.984 43.1851 104.97 43.1851 106.191V111.706C43.1851 112.927 42.1996 113.913 40.9785 113.913C39.7573 113.913 38.7718 112.927 38.7718 111.706V106.191Z" fill="#E01E5A"/>
<path fill-rule="evenodd" clip-rule="evenodd" d="M40.9775 97.3352C39.7564 97.3352 38.7708 96.3497 38.7708 95.1285C38.7708 93.9074 39.7564 92.9219 40.9775 92.9219C42.1986 92.9219 43.1842 93.9074 43.1842 95.1285V97.3352H40.9775ZM40.9775 98.4534C42.1986 98.4534 43.1842 99.439 43.1842 100.66C43.1842 101.881 42.1986 102.867 40.9775 102.867H35.4459C34.2248 102.867 33.2393 101.878 33.2393 100.66C33.2393 99.4423 34.2248 98.4534 35.4459 98.4534H40.9775Z" fill="#36C5F0"/>
<path fill-rule="evenodd" clip-rule="evenodd" d="M49.8167 100.66C49.8167 99.439 50.8023 98.4534 52.0234 98.4534C53.2445 98.4534 54.2301 99.439 54.2301 100.66C54.2301 101.881 53.2445 102.867 52.0234 102.867H49.8167V100.66ZM48.7151 100.66C48.7151 101.881 47.7295 102.867 46.5084 102.867C45.2873 102.867 44.3018 101.881 44.3018 100.66V95.1285C44.3018 93.9074 45.2873 92.9219 46.5084 92.9219C47.7295 92.9219 48.7151 93.9074 48.7151 95.1285V100.66Z" fill="#2EB67D"/>
<path fill-rule="evenodd" clip-rule="evenodd" d="M46.5084 109.499C47.7295 109.499 48.7151 110.485 48.7151 111.706C48.7151 112.927 47.7295 113.913 46.5084 113.913C45.2873 113.913 44.3018 112.927 44.3018 111.706V109.499H46.5084ZM46.5084 108.398C45.2873 108.398 44.3018 107.412 44.3018 106.191C44.3018 104.97 45.2873 103.984 46.5084 103.984H52.04C53.2611 103.984 54.2466 104.97 54.2466 106.191C54.2466 107.412 53.2611 108.398 52.04 108.398H46.5084Z" fill="#ECB22E"/>
<g filter="url(#filter3_d_437_337)">
<ellipse cx="199.943" cy="233.324" rx="39.8361" ry="39.8361" fill="#74AE6D"/>
</g>
<ellipse cx="94.2676" cy="143.24" rx="3.24026" ry="3.24026" fill="#36C5F0"/>
<ellipse cx="181.24" cy="300.24" rx="3.24026" ry="3.24026" fill="#253B80"/>
<ellipse cx="229.24" cy="382.24" rx="3.24026" ry="3.24026" fill="#95BF46"/>
<g filter="url(#filter4_d_437_337)">
<ellipse cx="356.778" cy="350.778" rx="24.7784" ry="24.7784" fill="white"/>
</g>
<path fill-rule="evenodd" clip-rule="evenodd" d="M343.183 356.367L339.59 352.356L350.587 348.359L352.299 353.055L343.183 356.367Z" fill="#F89920"/>
<path fill-rule="evenodd" clip-rule="evenodd" d="M343.159 356.295L342.989 361.674L353.986 357.677L352.275 352.982L343.159 356.295Z" fill="#FFBE22"/>
<path fill-rule="evenodd" clip-rule="evenodd" d="M373.717 345.281C375.286 349.82 370.23 355.784 362.366 358.642C354.5 361.499 346.788 360.175 345.067 355.692L373.717 345.281Z" fill="#F0670A"/>
<path fill-rule="evenodd" clip-rule="evenodd" d="M373.719 345.279C372.01 340.784 364.289 339.454 356.416 342.315C348.542 345.176 343.484 351.149 345.069 355.69L373.719 345.279Z" fill="#FFD00E"/>
<path fill-rule="evenodd" clip-rule="evenodd" d="M373.715 345.281C374.694 348.318 369.204 353.047 361.364 355.896C353.523 358.746 346.273 358.645 345.067 355.691L373.715 345.281Z" fill="#F89920"/>
<path fill-rule="evenodd" clip-rule="evenodd" d="M373.717 345.277C372.529 342.309 365.268 342.204 357.415 345.058C349.561 347.911 344.067 352.651 345.068 355.687L373.717 345.277Z" fill="#FFBE22"/>
<path d="M360.499 341.159C359.751 338.576 358.899 337.143 357.931 337.17C356.06 337.224 355.43 343.148 356.036 350.74C356.648 358.412 358.236 364.176 360.216 364.124C361.396 364.093 362.061 362.207 362.295 358.934C362.299 358.867 362.225 358.913 362.229 358.845C362.229 358.845 362.219 358.726 362.175 358.723L361.924 358.706C361.718 361.885 361.095 363.716 360.206 363.74C358.579 363.782 357.008 358.081 356.42 350.71C355.841 343.46 356.464 337.596 357.942 337.554C358.642 337.535 359.426 338.854 360.12 341.233C360.12 341.233 360.499 341.16 360.499 341.159L360.499 341.159Z" fill="#F0670A"/>
<path d="M351.226 339.317C349.632 340.298 352.054 345.743 356.381 352.015C360.753 358.354 365.015 362.553 366.703 361.519C367.647 360.942 367.382 359.189 366.167 356.543C366.157 356.519 366.142 356.497 366.124 356.479C366.105 356.461 366.083 356.447 366.059 356.437C366.035 356.428 366.009 356.423 365.983 356.424C365.958 356.425 365.932 356.431 365.909 356.441C365.885 356.452 365.864 356.468 365.847 356.487C365.829 356.506 365.816 356.528 365.807 356.553C365.799 356.577 365.795 356.603 365.797 356.629C365.799 356.654 365.806 356.68 365.817 356.703C366.947 359.163 367.189 360.771 366.502 361.192C365.114 362.041 360.899 357.888 356.698 351.797C352.566 345.807 350.169 340.419 351.428 339.645C352.096 339.233 353.687 340.226 355.788 342.369C355.812 342.393 355.946 342.532 355.976 342.541C356.041 342.561 356.008 342.423 356.06 342.372C356.079 342.354 356.093 342.333 356.103 342.31C356.113 342.287 356.118 342.262 356.118 342.236C356.119 342.211 356.114 342.186 356.104 342.163C356.095 342.139 356.081 342.118 356.063 342.1C353.818 339.81 352.134 338.759 351.226 339.317V339.317Z" fill="#F0670A"/>
<g filter="url(#filter5_d_437_337)">
<ellipse cx="390.356" cy="166.614" rx="12.3892" ry="12.3892" fill="white"/>
</g>
<path d="M387.866 162.238C387.866 162.393 387.853 162.652 387.698 162.82C387.53 162.976 387.271 162.989 387.115 162.989H385.459C384.98 162.989 384.695 162.989 384.501 163.015C384.397 163.028 384.268 163.079 384.203 163.105C384.177 163.118 384.177 163.105 384.19 163.092L387.97 159.248C387.983 159.235 387.996 159.235 387.983 159.261C387.957 159.326 387.905 159.455 387.892 159.559C387.866 159.753 387.866 160.038 387.866 160.517V162.238ZM391.387 173.861C390.947 173.576 390.714 173.201 390.623 172.968C390.532 172.748 390.481 172.502 390.481 172.256C390.481 171.182 391.361 170.301 392.448 170.301C392.772 170.301 393.03 170.56 393.03 170.884C393.03 171.104 392.914 171.285 392.733 171.389C392.668 171.428 392.577 171.453 392.513 171.466C392.448 171.479 392.202 171.505 392.086 171.609C391.956 171.712 391.853 171.881 391.853 172.062C391.853 172.256 391.93 172.437 392.06 172.566C392.293 172.799 392.603 172.929 392.94 172.929C393.82 172.929 394.532 172.217 394.532 171.337C394.532 170.547 394.001 169.848 393.302 169.538C393.199 169.486 393.03 169.447 392.875 169.408C392.681 169.37 392.5 169.344 392.487 169.344C391.943 169.279 390.584 168.852 390.494 167.648C390.494 167.648 390.092 169.46 389.29 169.952C389.212 169.991 389.109 170.03 388.992 170.056C388.876 170.081 388.746 170.094 388.707 170.094C387.4 170.172 386.015 169.758 385.058 168.774C385.058 168.774 384.41 168.244 384.074 166.755C383.996 166.393 383.841 165.746 383.75 165.137C383.711 164.917 383.698 164.749 383.686 164.594C383.686 163.959 384.074 163.532 384.566 163.468C384.579 163.468 384.617 163.468 384.643 163.468C384.941 163.468 387.206 163.468 387.206 163.468C387.659 163.468 387.918 163.351 388.086 163.196C388.306 162.989 388.358 162.691 388.358 162.342C388.358 162.342 388.358 159.986 388.358 159.688C388.358 159.675 388.358 159.624 388.358 159.611C388.423 159.132 388.85 158.73 389.484 158.73C389.484 158.73 389.678 158.73 389.795 158.73C389.924 158.73 390.079 158.743 390.222 158.756C390.325 158.769 390.416 158.795 390.571 158.834C391.361 159.028 391.529 159.831 391.529 159.831C391.529 159.831 393.017 160.089 393.768 160.219C394.48 160.348 396.24 160.465 396.577 162.238C397.366 166.457 396.887 170.547 396.849 170.547C396.292 174.534 392.979 174.34 392.979 174.34C392.267 174.34 391.736 174.107 391.387 173.861ZM394.363 165.383C393.936 165.344 393.574 165.513 393.445 165.836C393.419 165.901 393.393 165.979 393.406 166.017C393.419 166.056 393.445 166.069 393.47 166.082C393.626 166.16 393.885 166.199 394.26 166.237C394.635 166.276 394.894 166.302 395.062 166.276C395.088 166.276 395.114 166.263 395.14 166.224C395.166 166.186 395.153 166.108 395.153 166.043C395.101 165.681 394.791 165.435 394.363 165.383Z" fill="#00A82D"/>
<g filter="url(#filter6_d_437_337)">
<ellipse cx="158.16" cy="350.16" rx="25.1596" ry="25.1596" fill="white"/>
</g>
<path d="M166.66 344.432C166.637 344.576 166.611 344.724 166.582 344.876C165.584 350.002 162.168 351.773 157.805 351.773H155.584C155.051 351.773 154.601 352.16 154.518 352.686L153.381 359.899L153.059 361.943C153.046 362.024 153.051 362.107 153.073 362.186C153.095 362.265 153.135 362.339 153.188 362.401C153.241 362.463 153.307 362.514 153.382 362.548C153.456 362.582 153.538 362.6 153.62 362.6H157.559C158.026 362.6 158.422 362.261 158.496 361.801L158.534 361.601L159.276 356.894L159.324 356.635C159.396 356.174 159.793 355.835 160.26 355.835H160.849C164.666 355.835 167.654 354.285 168.527 349.801C168.892 347.927 168.703 346.363 167.738 345.263C167.432 344.923 167.067 344.641 166.66 344.432V344.432Z" fill="#179BD7"/>
<path d="M165.616 344.015C165.297 343.923 164.973 343.851 164.645 343.799C163.997 343.7 163.342 343.652 162.687 343.657H156.753C156.527 343.656 156.308 343.737 156.137 343.884C155.965 344.031 155.852 344.234 155.817 344.457L154.555 352.453L154.519 352.686C154.558 352.431 154.687 352.199 154.883 352.032C155.078 351.864 155.327 351.772 155.585 351.772H157.806C162.169 351.772 165.584 350.001 166.583 344.875C166.613 344.724 166.638 344.576 166.66 344.431C166.397 344.293 166.122 344.177 165.839 344.085C165.765 344.061 165.691 344.037 165.616 344.015V344.015Z" fill="#222D65"/>
<path d="M155.817 344.456C155.852 344.233 155.965 344.03 156.137 343.883C156.308 343.736 156.527 343.656 156.753 343.656H162.687C163.39 343.656 164.046 343.702 164.645 343.799C165.05 343.863 165.45 343.958 165.84 344.084C166.135 344.182 166.409 344.297 166.661 344.43C166.958 342.536 166.659 341.246 165.634 340.078C164.505 338.793 162.467 338.242 159.859 338.242H152.289C151.756 338.242 151.301 338.63 151.219 339.157L148.066 359.145C148.051 359.238 148.057 359.333 148.082 359.423C148.107 359.514 148.152 359.598 148.213 359.669C148.274 359.741 148.35 359.798 148.435 359.838C148.521 359.877 148.613 359.897 148.707 359.898H153.381L154.555 352.452L155.817 344.456Z" fill="#253B80"/>
<g filter="url(#filter7_d_437_337)">
<ellipse cx="241.389" cy="428.389" rx="12.3892" ry="12.3892" fill="white"/>
</g>
<path d="M246.828 422.827C246.817 422.744 246.745 422.698 246.685 422.693C246.625 422.688 245.359 422.594 245.359 422.594C245.359 422.594 244.48 421.722 244.384 421.625C244.287 421.529 244.099 421.558 244.026 421.58C244.015 421.583 243.834 421.639 243.534 421.732C243.24 420.887 242.722 420.11 241.811 420.11C241.785 420.11 241.76 420.111 241.734 420.113C241.474 419.77 241.153 419.621 240.876 419.621C238.752 419.621 237.738 422.276 237.42 423.625C236.595 423.88 236.009 424.062 235.934 424.085C235.473 424.23 235.459 424.244 235.398 424.678C235.353 425.007 234.147 434.327 234.147 434.327L243.538 436.086L248.626 434.985C248.626 434.985 246.84 422.91 246.828 422.827ZM243.015 421.892C242.779 421.965 242.511 422.048 242.22 422.138C242.221 422.082 242.221 422.027 242.221 421.967C242.221 421.442 242.148 421.019 242.031 420.684C242.501 420.743 242.814 421.277 243.015 421.892ZM241.448 420.788C241.579 421.115 241.664 421.585 241.664 422.218C241.664 422.251 241.664 422.28 241.663 422.31C241.147 422.47 240.585 422.644 240.022 422.819C240.338 421.599 240.931 421.01 241.448 420.788ZM240.818 420.191C240.909 420.191 241.002 420.222 241.09 420.283C240.409 420.603 239.68 421.409 239.372 423.02C238.922 423.159 238.482 423.296 238.075 423.422C238.436 422.193 239.292 420.191 240.818 420.191Z" fill="#95BF46"/>
<path d="M246.684 422.693C246.625 422.688 245.359 422.594 245.359 422.594C245.359 422.594 244.48 421.721 244.384 421.625C244.348 421.589 244.299 421.57 244.248 421.562L243.538 436.085L248.626 434.985C248.626 434.985 246.839 422.909 246.828 422.826C246.817 422.744 246.744 422.698 246.684 422.693Z" fill="#5E8E3E"/>
<path d="M241.81 425.504L241.183 427.37C241.183 427.37 240.633 427.076 239.96 427.076C238.972 427.076 238.922 427.696 238.922 427.853C238.922 428.705 241.144 429.032 241.144 431.028C241.144 432.599 240.148 433.61 238.804 433.61C237.192 433.61 236.368 432.607 236.368 432.607L236.8 431.181C236.8 431.181 237.647 431.908 238.362 431.908C238.829 431.908 239.019 431.54 239.019 431.272C239.019 430.16 237.197 430.11 237.197 428.283C237.197 426.746 238.3 425.258 240.528 425.258C241.386 425.258 241.81 425.504 241.81 425.504Z" fill="white"/>
<g filter="url(#filter8_d_437_337)">
<ellipse cx="17.1539" cy="315.475" rx="12.3892" ry="12.3892" fill="white"/>
</g>
<path d="M13.0062 311.791C13.2634 311.788 13.5137 311.709 13.7258 311.563C13.9379 311.418 14.1023 311.213 14.1983 310.974C14.2943 310.736 14.3176 310.474 14.2653 310.222C14.213 309.971 14.0874 309.74 13.9044 309.559C13.7213 309.379 13.489 309.256 13.2365 309.207C12.9841 309.158 12.7228 309.185 12.4855 309.285C12.2483 309.384 12.0457 309.551 11.9032 309.765C11.7606 309.979 11.6846 310.23 11.6846 310.487C11.685 310.66 11.7197 310.831 11.7865 310.99C11.8533 311.149 11.9509 311.294 12.0738 311.415C12.1967 311.536 12.3423 311.632 12.5024 311.696C12.6624 311.761 12.8337 311.793 13.0062 311.791V311.791Z" fill="#FF3366"/>
<path d="M10.2647 318.769C10.1898 319.09 10.1507 319.418 10.1479 319.748C10.1479 320.896 10.7689 321.659 12.0941 321.659C13.1911 321.659 14.0793 321.008 14.7198 319.955L14.3288 321.524H16.5068L17.7453 316.531C18.0567 315.266 18.6601 314.612 19.573 314.612C20.2931 314.612 20.7408 315.057 20.7408 315.797C20.7449 316.037 20.7121 316.275 20.6435 316.505L20.0012 318.805C19.9097 319.121 19.8639 319.448 19.865 319.776C19.865 320.866 20.5072 321.664 21.8484 321.664C22.9966 321.664 23.9114 320.924 24.4156 319.155L23.5664 318.812C23.1382 319.997 22.7684 320.211 22.4765 320.211C22.1845 320.211 22.0288 320.019 22.0288 319.629C22.0371 319.425 22.0698 319.223 22.1261 319.026L22.7489 316.79C22.889 316.331 22.9611 315.854 22.963 315.374C22.963 313.7 21.951 312.828 20.7266 312.828C19.5783 312.828 18.4124 313.863 17.8285 314.951L18.2567 312.994H14.9304L14.4633 314.718H16.0202L15.0595 318.554C14.3076 320.226 12.9257 320.254 12.7594 320.215C12.4745 320.15 12.2923 320.038 12.2923 319.672C12.3014 319.372 12.3471 319.075 12.4285 318.787L13.8865 313H10.1868L9.71973 314.723H11.2555L10.2647 318.769Z" fill="#FF3366"/>
<ellipse cx="199.944" cy="233.133" rx="30.4965" ry="30.4965" fill="white"/>
<g clip-path="url(#clip0_437_337)">
<path d="M204.276 233.46C204.015 234.45 203.891 235.256 203.904 235.877C203.917 236.498 204.018 236.981 204.207 237.334C204.396 237.687 204.66 237.925 204.999 238.049C205.339 238.173 205.707 238.235 206.111 238.235C206.751 238.235 207.354 238.052 207.928 237.687C208.502 237.321 209.004 236.805 209.441 236.142C209.878 235.475 210.223 234.678 210.478 233.744C210.732 232.813 210.859 231.778 210.859 230.644C210.859 228.845 210.572 227.267 210.002 225.911C209.428 224.556 208.639 223.426 207.628 222.518C206.617 221.61 205.427 220.934 204.054 220.483C202.681 220.032 201.201 219.81 199.609 219.81C197.865 219.81 196.231 220.143 194.708 220.806C193.185 221.473 191.855 222.39 190.723 223.563C189.592 224.739 188.695 226.127 188.04 227.731C187.381 229.335 187.055 231.082 187.055 232.973C187.055 235.191 187.404 237.138 188.098 238.814C188.796 240.489 189.745 241.894 190.952 243.027C192.155 244.161 193.57 245.016 195.197 245.591C196.824 246.163 198.569 246.454 200.431 246.454C202.41 246.454 204.158 246.238 205.674 245.807C207.191 245.376 208.502 244.83 209.61 244.164C209.871 244.007 210.099 243.958 210.295 244.017C210.491 244.076 210.634 244.223 210.726 244.458L211.234 245.748C209.829 246.689 208.238 247.424 206.46 247.959C204.683 248.495 202.674 248.763 200.437 248.763C198.201 248.763 196.068 248.404 194.131 247.685C192.191 246.97 190.508 245.934 189.083 244.585C187.658 243.236 186.536 241.583 185.724 239.627C184.909 237.67 184.505 235.456 184.505 232.977C184.505 231.556 184.684 230.184 185.043 228.868C185.402 227.551 185.907 226.32 186.556 225.18C187.208 224.04 187.987 222.998 188.901 222.051C189.814 221.107 190.828 220.297 191.946 219.627C193.065 218.954 194.274 218.435 195.569 218.062C196.864 217.69 198.217 217.504 199.622 217.504C200.819 217.504 201.993 217.635 203.138 217.896C204.282 218.157 205.368 218.539 206.389 219.049C207.409 219.558 208.348 220.186 209.199 220.937C210.051 221.685 210.791 222.547 211.417 223.521C212.043 224.491 212.526 225.575 212.871 226.767C213.217 227.959 213.39 229.256 213.39 230.651C213.39 232.046 213.191 233.359 212.793 234.554C212.395 235.75 211.851 236.782 211.153 237.654C210.455 238.529 209.633 239.212 208.681 239.709C207.729 240.205 206.708 240.45 205.616 240.45C204.628 240.45 203.809 240.205 203.164 239.718C202.518 239.228 202.107 238.484 201.924 237.478C201.181 238.523 200.369 239.271 199.482 239.728C198.595 240.185 197.64 240.414 196.612 240.414C195.843 240.414 195.171 240.28 194.591 240.012C194.01 239.744 193.534 239.372 193.156 238.895C192.778 238.418 192.494 237.857 192.308 237.203C192.119 236.55 192.024 235.848 192.024 235.09C192.024 233.979 192.236 232.862 192.66 231.735C193.084 230.608 193.71 229.589 194.545 228.685C195.377 227.78 196.414 227.038 197.649 226.467C198.885 225.892 200.317 225.604 201.947 225.604C202.818 225.604 203.588 225.673 204.253 225.81C204.918 225.947 205.541 226.147 206.128 226.408L204.292 233.47L204.276 233.46ZM203.066 228.002C202.557 227.884 201.996 227.826 201.386 227.826C200.411 227.826 199.515 228.031 198.703 228.443C197.887 228.854 197.19 229.39 196.603 230.056C196.016 230.723 195.559 231.484 195.227 232.343C194.894 233.202 194.728 234.084 194.728 234.985C194.728 235.887 194.943 236.677 195.373 237.242C195.804 237.811 196.44 238.092 197.287 238.092C197.692 238.092 198.099 238.026 198.507 237.896C198.915 237.765 199.316 237.536 199.697 237.21C200.082 236.883 200.437 236.439 200.76 235.88C201.086 235.319 201.36 234.616 201.579 233.767L203.063 227.995L203.066 228.002Z" fill="#B40000"/>
</g>
<g filter="url(#filter9_d_437_337)">
<circle cx="185.5" cy="25.5" r="25.5" fill="white"/>
</g>
<path fill-rule="evenodd" clip-rule="evenodd" d="M182.292 12.5537C178.055 12.8812 174.453 13.1677 174.289 13.1882C173.819 13.2905 173.389 13.5975 173.184 14.0274L173 14.3958L173.02 23.2785L173.041 32.1613L173.307 32.7139C173.471 33.0209 174.494 34.4536 175.62 35.9067C177.851 38.8131 178.014 38.9563 178.854 39.0587C179.099 39.0791 180.962 38.9973 182.947 38.8745C184.953 38.7517 188.187 38.547 190.111 38.4447C198.359 37.933 197.929 37.9739 198.42 37.5646C199.014 37.0734 198.952 37.8921 198.993 27.0854C199.014 17.9366 198.993 17.3226 198.85 17.0565C198.707 16.729 198.42 16.5243 194.654 13.8841C192.137 12.1034 191.953 12.0216 190.827 12.0011C190.356 11.9806 186.508 12.2467 182.292 12.5537Z" fill="white"/>
<path fill-rule="evenodd" clip-rule="evenodd" d="M182.292 12.5537C178.055 12.8812 174.453 13.1677 174.289 13.1882C173.819 13.2905 173.389 13.5975 173.184 14.0274L173 14.3958L173.02 23.2785L173.041 32.1613L173.307 32.7139C173.471 33.0209 174.494 34.4536 175.62 35.9067C177.851 38.8131 178.014 38.9563 178.854 39.0587C179.099 39.0791 180.962 38.9973 182.947 38.8745C184.953 38.7517 188.187 38.547 190.111 38.4447C198.359 37.933 197.929 37.9739 198.42 37.5646C199.014 37.0734 198.952 37.8921 198.993 27.0854C199.014 17.9366 198.993 17.3226 198.85 17.0565C198.707 16.729 198.42 16.5243 194.654 13.8841C192.137 12.1034 191.953 12.0216 190.827 12.0011C190.356 11.9806 186.508 12.2467 182.292 12.5537ZM191.809 13.7203C192.178 13.8841 194.777 15.6852 195.145 16.0331C195.248 16.1355 195.289 16.2378 195.227 16.2787C195.125 16.3811 179.017 17.343 178.547 17.2612C178.342 17.2407 178.035 17.1179 177.851 16.9951C177.114 16.4834 175.292 14.9893 175.292 14.887C175.292 14.6004 175.231 14.6004 182.394 14.0683C183.766 13.9864 186.038 13.8227 187.409 13.6999C190.377 13.4747 191.257 13.4747 191.809 13.7203ZM196.926 18.3459C197.049 18.4687 197.151 18.6939 197.192 18.919C197.213 19.1237 197.233 22.9306 197.213 27.3515C197.192 34.9243 197.172 35.4155 197.028 35.6202C196.947 35.7635 196.783 35.9067 196.64 35.9477C196.292 36.0909 179.427 37.0529 179.079 36.9506C178.915 36.9096 178.69 36.7664 178.588 36.6436L178.383 36.4389L178.362 28.252C178.342 22.5008 178.362 19.9628 178.424 19.7377C178.465 19.574 178.608 19.3693 178.71 19.2874C178.854 19.1851 179.856 19.1032 183.295 18.8985C185.71 18.7757 189.456 18.5506 191.584 18.4073C196.701 18.1003 196.68 18.1003 196.926 18.3459Z" fill="black"/>
<path fill-rule="evenodd" clip-rule="evenodd" d="M192.404 21.1492C191.483 21.2106 190.664 21.2925 190.582 21.3539C190.295 21.4972 190.132 21.7428 190.091 22.0089C190.07 22.2749 190.152 22.3159 191.073 22.4387L191.462 22.4796V26.1023C191.462 28.2513 191.442 29.6636 191.38 29.6226C191.339 29.5817 190.152 27.7397 188.719 25.5701C187.287 23.3597 186.1 21.5586 186.079 21.5586C186.059 21.5381 185.138 21.579 184.012 21.6609C182.641 21.7428 181.883 21.8451 181.74 21.927C181.495 22.0498 181.208 22.5001 181.208 22.7866C181.208 22.9708 181.535 23.0732 182.211 23.0732H182.579V33.4705L181.986 33.6547C181.556 33.7775 181.392 33.8593 181.31 34.0435C181.188 34.3301 181.188 34.5757 181.331 34.5757C181.372 34.5757 182.334 34.5348 183.439 34.4529C185.608 34.3301 185.854 34.2687 186.079 33.8184C186.161 33.6956 186.222 33.5523 186.222 33.4909C186.222 33.4705 185.915 33.3681 185.568 33.2863C185.199 33.2044 184.831 33.1021 184.749 33.1021C184.606 33.0611 184.606 32.795 184.606 29.1519V25.2427L187.184 29.2747C189.886 33.5114 190.214 34.0026 190.643 34.2073C191.155 34.4734 192.465 34.2891 193.12 33.8593L193.325 33.7365L193.345 27.9648L193.365 22.1726L193.816 22.0907C194.348 21.9884 194.594 21.7428 194.594 21.313C194.594 21.0469 194.573 21.0264 194.327 21.0469C194.184 21.0469 193.304 21.1083 192.404 21.1492Z" fill="black"/>
<defs>
<filter id="filter0_d_437_337" x="59.8489" y="193.107" width="51.8442" height="51.8432" filterUnits="userSpaceOnUse" color-interpolation-filters="sRGB">
<feFlood flood-opacity="0" result="BackgroundImageFix"/>
<feColorMatrix in="SourceAlpha" type="matrix" values="0 0 0 0 0 0 0 0 0 0 0 0 0 0 0 0 0 0 127 0" result="hardAlpha"/>
<feOffset dy="0.762413"/>
<feGaussianBlur stdDeviation="0.381207"/>
<feComposite in2="hardAlpha" operator="out"/>
<feColorMatrix type="matrix" values="0 0 0 0 0 0 0 0 0 0 0 0 0 0 0 0 0 0 0.25 0"/>
<feBlend mode="normal" in2="BackgroundImageFix" result="effect1_dropShadow_437_337"/>
<feBlend mode="normal" in="SourceGraphic" in2="effect1_dropShadow_437_337" result="shape"/>
</filter>
<filter id="filter1_d_437_337" x="255.238" y="116" width="49.8451" height="49.8451" filterUnits="userSpaceOnUse" color-interpolation-filters="sRGB">
<feFlood flood-opacity="0" result="BackgroundImageFix"/>
<feColorMatrix in="SourceAlpha" type="matrix" values="0 0 0 0 0 0 0 0 0 0 0 0 0 0 0 0 0 0 127 0" result="hardAlpha"/>
<feOffset dy="0.762413"/>
<feGaussianBlur stdDeviation="0.381207"/>
<feComposite in2="hardAlpha" operator="out"/>
<feColorMatrix type="matrix" values="0 0 0 0 0 0 0 0 0 0 0 0 0 0 0 0 0 0 0.25 0"/>
<feBlend mode="normal" in2="BackgroundImageFix" result="effect1_dropShadow_437_337"/>
<feBlend mode="normal" in="SourceGraphic" in2="effect1_dropShadow_437_337" result="shape"/>
</filter>
<filter id="filter2_d_437_337" x="24.0156" y="84.8438" width="39.4552" height="39.4552" filterUnits="userSpaceOnUse" color-interpolation-filters="sRGB">
<feFlood flood-opacity="0" result="BackgroundImageFix"/>
<feColorMatrix in="SourceAlpha" type="matrix" values="0 0 0 0 0 0 0 0 0 0 0 0 0 0 0 0 0 0 127 0" result="hardAlpha"/>
<feOffset dy="1.14362"/>
<feGaussianBlur stdDeviation="0.57181"/>
<feComposite in2="hardAlpha" operator="out"/>
<feColorMatrix type="matrix" values="0 0 0 0 0 0 0 0 0 0 0 0 0 0 0 0 0 0 0.25 0"/>
<feBlend mode="normal" in2="BackgroundImageFix" result="effect1_dropShadow_437_337"/>
<feBlend mode="normal" in="SourceGraphic" in2="effect1_dropShadow_437_337" result="shape"/>
</filter>
<filter id="filter3_d_437_337" x="143.106" y="178.488" width="117.672" height="117.672" filterUnits="userSpaceOnUse" color-interpolation-filters="sRGB">
<feFlood flood-opacity="0" result="BackgroundImageFix"/>
<feColorMatrix in="SourceAlpha" type="matrix" values="0 0 0 0 0 0 0 0 0 0 0 0 0 0 0 0 0 0 127 0" result="hardAlpha"/>
<feOffset dx="2" dy="4"/>
<feGaussianBlur stdDeviation="9.5"/>
<feComposite in2="hardAlpha" operator="out"/>
<feColorMatrix type="matrix" values="0 0 0 0 0.151809 0 0 0 0 0.651562 0 0 0 0 0.0984375 0 0 0 0.3 0"/>
<feBlend mode="normal" in2="BackgroundImageFix" result="effect1_dropShadow_437_337"/>
<feBlend mode="normal" in="SourceGraphic" in2="effect1_dropShadow_437_337" result="shape"/>
</filter>
<filter id="filter4_d_437_337" x="330.475" y="326" width="52.6063" height="52.6063" filterUnits="userSpaceOnUse" color-interpolation-filters="sRGB">
<feFlood flood-opacity="0" result="BackgroundImageFix"/>
<feColorMatrix in="SourceAlpha" type="matrix" values="0 0 0 0 0 0 0 0 0 0 0 0 0 0 0 0 0 0 127 0" result="hardAlpha"/>
<feOffset dy="1.52483"/>
<feGaussianBlur stdDeviation="0.762413"/>
<feComposite in2="hardAlpha" operator="out"/>
<feColorMatrix type="matrix" values="0 0 0 0 0 0 0 0 0 0 0 0 0 0 0 0 0 0 0.25 0"/>
<feBlend mode="normal" in2="BackgroundImageFix" result="effect1_dropShadow_437_337"/>
<feBlend mode="normal" in="SourceGraphic" in2="effect1_dropShadow_437_337" result="shape"/>
</filter>
<filter id="filter5_d_437_337" x="377.204" y="154.225" width="26.3031" height="26.3041" filterUnits="userSpaceOnUse" color-interpolation-filters="sRGB">
<feFlood flood-opacity="0" result="BackgroundImageFix"/>
<feColorMatrix in="SourceAlpha" type="matrix" values="0 0 0 0 0 0 0 0 0 0 0 0 0 0 0 0 0 0 127 0" result="hardAlpha"/>
<feOffset dy="0.762413"/>
<feGaussianBlur stdDeviation="0.381207"/>
<feComposite in2="hardAlpha" operator="out"/>
<feColorMatrix type="matrix" values="0 0 0 0 0 0 0 0 0 0 0 0 0 0 0 0 0 0 0.25 0"/>
<feBlend mode="normal" in2="BackgroundImageFix" result="effect1_dropShadow_437_337"/>
<feBlend mode="normal" in="SourceGraphic" in2="effect1_dropShadow_437_337" result="shape"/>
</filter>
<filter id="filter6_d_437_337" x="132.238" y="325" width="51.8442" height="51.8432" filterUnits="userSpaceOnUse" color-interpolation-filters="sRGB">
<feFlood flood-opacity="0" result="BackgroundImageFix"/>
<feColorMatrix in="SourceAlpha" type="matrix" values="0 0 0 0 0 0 0 0 0 0 0 0 0 0 0 0 0 0 127 0" result="hardAlpha"/>
<feOffset dy="0.762413"/>
<feGaussianBlur stdDeviation="0.381207"/>
<feComposite in2="hardAlpha" operator="out"/>
<feColorMatrix type="matrix" values="0 0 0 0 0 0 0 0 0 0 0 0 0 0 0 0 0 0 0.25 0"/>
<feBlend mode="normal" in2="BackgroundImageFix" result="effect1_dropShadow_437_337"/>
<feBlend mode="normal" in="SourceGraphic" in2="effect1_dropShadow_437_337" result="shape"/>
</filter>
<filter id="filter7_d_437_337" x="228.238" y="416" width="26.3031" height="26.3041" filterUnits="userSpaceOnUse" color-interpolation-filters="sRGB">
<feFlood flood-opacity="0" result="BackgroundImageFix"/>
<feColorMatrix in="SourceAlpha" type="matrix" values="0 0 0 0 0 0 0 0 0 0 0 0 0 0 0 0 0 0 127 0" result="hardAlpha"/>
<feOffset dy="0.762413"/>
<feGaussianBlur stdDeviation="0.381207"/>
<feComposite in2="hardAlpha" operator="out"/>
<feColorMatrix type="matrix" values="0 0 0 0 0 0 0 0 0 0 0 0 0 0 0 0 0 0 0.25 0"/>
<feBlend mode="normal" in2="BackgroundImageFix" result="effect1_dropShadow_437_337"/>
<feBlend mode="normal" in="SourceGraphic" in2="effect1_dropShadow_437_337" result="shape"/>
</filter>
<filter id="filter8_d_437_337" x="4.00224" y="303.086" width="26.3031" height="26.3041" filterUnits="userSpaceOnUse" color-interpolation-filters="sRGB">
<feFlood flood-opacity="0" result="BackgroundImageFix"/>
<feColorMatrix in="SourceAlpha" type="matrix" values="0 0 0 0 0 0 0 0 0 0 0 0 0 0 0 0 0 0 127 0" result="hardAlpha"/>
<feOffset dy="0.762413"/>
<feGaussianBlur stdDeviation="0.381207"/>
<feComposite in2="hardAlpha" operator="out"/>
<feColorMatrix type="matrix" values="0 0 0 0 0 0 0 0 0 0 0 0 0 0 0 0 0 0 0.25 0"/>
<feBlend mode="normal" in2="BackgroundImageFix" result="effect1_dropShadow_437_337"/>
<feBlend mode="normal" in="SourceGraphic" in2="effect1_dropShadow_437_337" result="shape"/>
</filter>
<filter id="filter9_d_437_337" x="159.24" y="0" width="52.52" height="52.52" filterUnits="userSpaceOnUse" color-interpolation-filters="sRGB">
<feFlood flood-opacity="0" result="BackgroundImageFix"/>
<feColorMatrix in="SourceAlpha" type="matrix" values="0 0 0 0 0 0 0 0 0 0 0 0 0 0 0 0 0 0 127 0" result="hardAlpha"/>
<feOffset dy="0.76"/>
<feGaussianBlur stdDeviation="0.38"/>
<feComposite in2="hardAlpha" operator="out"/>
<feColorMatrix type="matrix" values="0 0 0 0 0 0 0 0 0 0 0 0 0 0 0 0 0 0 0.25 0"/>
<feBlend mode="normal" in2="BackgroundImageFix" result="effect1_dropShadow_437_337"/>
<feBlend mode="normal" in="SourceGraphic" in2="effect1_dropShadow_437_337" result="shape"/>
</filter>
<linearGradient id="paint0_linear_437_337" x1="278.627" y1="137.928" x2="272.231" y2="149.007" gradientUnits="userSpaceOnUse">
<stop stop-color="#075BD5"/>
<stop offset="0.92" stop-color="#2684FF"/>
</linearGradient>
<linearGradient id="paint1_linear_437_337" x1="284.246" y1="126.289" x2="284.246" y2="147.647" gradientUnits="userSpaceOnUse">
<stop stop-color="#2684FF"/>
<stop offset="1" stop-color="#2684FF"/>
</linearGradient>
<clipPath id="clip0_437_337">
<rect width="28.9717" height="31.2589" fill="white" transform="translate(184.505 217.504)"/>
</clipPath>
</defs>
</svg>
