<svg width="524" height="376" viewBox="0 0 524 376" fill="none" xmlns="http://www.w3.org/2000/svg">
<path d="M424.017 243.375H382.365C382.16 243.375 381.956 243.17 381.956 242.966C381.956 242.762 382.16 242.558 382.365 242.558H424.017C424.221 242.558 424.425 242.762 424.425 242.966C424.425 243.17 424.221 243.375 424.017 243.375ZM424.017 263.997H382.365C382.16 263.997 381.956 263.792 381.956 263.588C381.956 263.384 382.16 263.18 382.365 263.18H424.017C424.221 263.18 424.425 263.384 424.425 263.588C424.425 263.792 424.221 263.997 424.017 263.997ZM416.462 253.686H357.557C357.353 253.686 357.148 253.481 357.148 253.277C357.148 253.073 357.353 252.869 357.557 252.869H416.462C416.667 252.869 416.871 253.073 416.871 253.277C416.871 253.481 416.667 253.686 416.462 253.686Z" fill="#25E498"/>
<path d="M390.957 243.375C390.753 243.375 390.549 243.171 390.549 242.966V234.187C390.549 233.983 390.753 233.778 390.957 233.778C391.161 233.778 391.366 233.983 391.366 234.187V242.966C391.366 243.171 391.161 243.375 390.957 243.375ZM405.556 253.686C405.352 253.686 405.148 253.482 405.148 253.277V242.966C405.148 242.762 405.352 242.558 405.556 242.558C405.76 242.558 405.964 242.762 405.964 242.966V253.277C405.964 253.482 405.76 253.686 405.556 253.686ZM394.428 263.691C394.224 263.691 394.02 263.486 394.02 263.282V253.277C394.02 253.073 394.224 252.869 394.428 252.869C394.633 252.869 394.837 253.073 394.837 253.277V263.282C394.837 263.486 394.633 263.691 394.428 263.691ZM440.369 109.842H398.716C398.512 109.842 398.308 109.637 398.308 109.433C398.308 109.229 398.512 109.025 398.716 109.025H440.369C440.573 109.025 440.777 109.229 440.777 109.433C440.777 109.637 440.573 109.842 440.369 109.842ZM440.369 130.464H398.716C398.512 130.464 398.308 130.26 398.308 130.055C398.308 129.851 398.512 129.647 398.716 129.647H440.369C440.573 129.647 440.777 129.851 440.777 130.055C440.777 130.26 440.573 130.464 440.369 130.464ZM432.814 120.153H373.908C373.704 120.153 373.5 119.948 373.5 119.744C373.5 119.54 373.704 119.336 373.908 119.336H432.814C433.018 119.336 433.222 119.54 433.222 119.744C433.222 119.948 433.018 120.153 432.814 120.153Z" fill="#25E498"/>
<path d="M407.283 109.841C407.079 109.841 406.875 109.637 406.875 109.433V100.653C406.875 100.449 407.079 100.245 407.283 100.245C407.488 100.245 407.692 100.449 407.692 100.653V109.433C407.692 109.637 407.488 109.841 407.283 109.841ZM421.882 120.152C421.678 120.152 421.474 119.948 421.474 119.744V109.433C421.474 109.229 421.678 109.025 421.882 109.025C422.086 109.025 422.291 109.229 422.291 109.433V119.744C422.291 120.05 422.086 120.152 421.882 120.152ZM410.754 130.157C410.55 130.157 410.346 129.953 410.346 129.749V119.744C410.346 119.54 410.55 119.336 410.754 119.336C410.959 119.336 411.163 119.54 411.163 119.744V129.749C411.163 129.953 410.959 130.157 410.754 130.157Z" fill="#25E498"/>
<path d="M398.693 25.6174V200.395C398.693 206.316 393.894 211.114 387.973 211.114H133.77C127.849 211.114 123.051 206.316 123.051 200.395V25.6174C123.051 19.6962 127.849 14.8979 133.77 14.8979H387.973C393.894 14.8979 398.693 19.6962 398.693 25.6174Z" fill="#E6D6F5"/>
<path d="M497.933 374.559L473.228 314.633L471.492 315.347L495.994 374.559H497.933Z" fill="#060405"/>
<path d="M437.615 309.222H415.972C415.258 302.076 423.731 299.013 423.731 299.013V294.215H437.003C436.901 294.215 437.411 309.222 437.615 309.222Z" fill="#9F28EE"/>
<path d="M416.173 306.16C415.866 307.078 415.764 308.099 415.866 309.222H437.509C437.509 309.222 437.407 307.895 437.305 306.16H416.173Z" fill="#060405"/>
<path d="M455.167 198.353L453.227 206.418C453.227 206.418 414.535 224.386 408.614 235.309C401.059 249.398 423.621 295.951 423.621 295.951H436.893L435.668 251.95L465.376 230.001L484.671 321.371H497.942L499.269 198.353H455.167Z" fill="#060405"/>
<path d="M498.545 334.438H476.902C476.188 327.292 484.661 324.229 484.661 324.229V319.329H497.933C497.83 319.329 498.341 334.438 498.545 334.438Z" fill="#9F28EE"/>
<path d="M477.098 331.274C476.792 332.193 476.69 333.214 476.792 334.336H498.435C498.435 334.336 498.333 333.009 498.231 331.274H477.098Z" fill="#060405"/>
<path d="M464.657 150.269C464.657 150.269 455.162 169.155 449.649 173.035C441.584 178.65 411.162 182.019 411.162 182.019L407.078 175.485L441.482 162.724L447.506 145.675L464.657 150.269Z" fill="white"/>
<path d="M410.965 182.529L406.371 175.179L441.184 162.316L447.207 145.063L465.379 149.963L465.073 150.473C464.664 151.29 455.476 169.462 449.861 173.444C441.694 179.058 412.394 182.427 411.169 182.529H410.965ZM407.902 175.689L411.476 181.407C414.742 180.998 441.898 177.731 449.351 172.525C454.251 169.156 462.316 153.638 463.95 150.575L447.922 146.288L442 163.132L407.902 175.689Z" fill="#060405"/>
<path d="M460.785 129.341C460.785 129.341 451.086 133.118 444.246 146.288L458.845 157.722L465.991 139.958L460.785 129.341Z" fill="#9F28EE"/>
<path d="M458.338 131.076C467.117 122.705 500.092 125.87 505.605 130.566C511.118 135.262 501.215 202.335 501.215 202.335C501.215 204.581 452.927 204.581 452.927 202.335C452.927 202.335 449.66 139.345 458.338 131.076Z" fill="#9F28EE"/>
<path d="M465.459 89.4237C463.213 92.3843 465.868 101.266 465.357 104.329C464.847 108.004 462.907 120.561 469.645 119.948C476.383 119.234 479.139 113.415 479.65 111.781C480.16 110.148 477.812 94.9366 477.812 94.9366L473.524 88.9133C473.626 88.9133 466.684 87.7903 465.459 89.4237Z" fill="#060405"/>
<path d="M476.385 116.783C476.385 116.783 479.346 124.44 478.529 125.767C477.713 126.992 464.237 137.916 471.791 140.162C479.346 142.408 492.107 126.686 492.107 126.686C492.107 126.686 487.105 114.844 486.084 111.373C485.063 107.902 476.385 116.783 476.385 116.783Z" fill="white"/>
<path d="M473.342 140.774C472.729 140.774 472.219 140.672 471.708 140.57C470.279 140.162 469.36 139.345 469.156 138.324C468.339 135.057 473.852 129.749 476.71 126.89C477.425 126.176 478.038 125.563 478.14 125.359C478.548 124.746 477.323 120.459 475.894 116.885L475.792 116.579L475.996 116.375C477.119 115.252 483.04 109.433 485.49 110.045C485.899 110.147 486.307 110.454 486.511 111.168C487.43 114.537 492.432 126.278 492.432 126.38L492.534 126.686L492.33 126.89C491.922 127.605 481.1 140.774 473.342 140.774ZM476.915 116.885C477.731 119.029 479.773 124.644 478.956 125.971C478.752 126.278 478.344 126.686 477.323 127.605C474.771 130.157 469.36 135.262 469.973 138.018C470.177 138.733 470.789 139.243 471.81 139.549C478.446 141.489 489.778 128.422 491.309 126.482C490.493 124.644 486.307 114.639 485.388 111.475C485.286 111.168 485.184 111.066 485.082 111.066C483.857 110.76 479.671 114.231 476.915 116.885Z" fill="#060405"/>
<path d="M488.036 112.088C488.036 112.088 477.623 121.276 473.029 118.928C468.333 116.682 465.474 97.4888 468.027 90.955C470.579 84.4213 481.298 80.7461 481.298 80.7461L490.282 87.8924L488.036 112.088Z" fill="white"/>
<path d="M474.659 119.846C473.944 119.846 473.331 119.744 472.719 119.438C467.717 116.988 464.756 97.5906 467.512 90.8527C470.167 84.2169 480.58 80.4395 481.09 80.3374L481.397 80.2354L490.789 87.6879L488.645 112.394L488.543 112.496C487.93 112.802 479.967 119.846 474.659 119.846ZM481.09 81.3583C479.457 81.9709 470.677 85.544 468.431 91.261C465.777 97.8968 469.044 116.579 473.127 118.519C476.7 120.254 484.561 114.435 487.42 111.883L489.462 88.1983L481.09 81.3583Z" fill="#060405"/>
<path d="M509.581 120.152C504.272 123.113 488.959 125.461 485.181 121.173C481.404 116.885 486.509 111.066 486.304 108.106C486.202 105.145 480.485 105.349 484.365 101.47C488.244 97.5905 485.998 91.6693 481.812 91.6693C477.627 91.6693 462.007 95.6507 462.722 89.9337C463.436 84.1146 463.13 81.0519 469.97 77.4788C476.81 73.9057 481.2 78.806 482.629 79.0102C484.058 79.2143 496.922 75.1308 499.066 81.8687C501.209 88.6066 502.128 95.6508 503.864 98.4072C505.701 101.164 515.196 117.09 509.581 120.152ZM421.375 374.559L435.158 315.245L433.422 314.837L419.538 374.559H421.375ZM395.138 374.559L408.921 315.245L407.185 314.837L393.301 374.559H395.138ZM473.441 374.559L448.633 314.633L447 315.347L471.501 374.559H473.441Z" fill="#060405"/>
<path d="M398.184 309.222H421.766V315.654H398.184V309.222Z" fill="#060405"/>
<path d="M421.773 309.222H475.064V315.654H421.773V309.222Z" fill="#1AC1C1"/>
<path d="M425.051 334.438H450.777V340.87H425.051V334.438Z" fill="#060405"/>
<path d="M450.762 334.438H506.401V340.87H450.762V334.438Z" fill="#1AC1C1"/>
<path d="M376.345 164.868L397.682 176.302C400.132 177.629 401.051 180.692 399.724 183.142C398.396 185.592 395.334 186.511 392.884 185.183L371.547 173.749L376.345 164.868Z" fill="#060405"/>
<path opacity="0.1" d="M371.768 173.954L377.485 177.016C378.403 175.689 379.322 174.158 380.139 172.729C380.956 171.197 381.67 169.666 382.283 168.135L376.566 165.072C374.422 164.766 372.176 165.889 371.155 167.93C370.44 169.258 370.338 170.789 370.747 172.116C370.951 172.626 371.257 173.341 371.768 173.954Z" fill="black"/>
<path d="M313.342 187.94C337.333 200.803 367.144 191.82 380.007 167.931C392.87 144.042 383.886 114.129 359.997 101.266C336.108 88.4029 306.196 97.3868 293.333 121.276C280.47 145.165 289.351 175.077 313.342 187.94ZM318.549 178.14C299.969 168.135 293.027 145.063 303.031 126.482C313.036 107.902 336.108 100.96 354.689 110.965C373.269 120.969 380.211 144.042 370.206 162.622C360.304 181.202 337.129 188.144 318.549 178.14Z" fill="white"/>
<path d="M317.347 180.488C337.152 191.207 361.96 183.755 372.577 163.949C383.296 144.144 375.844 119.336 355.936 108.719C336.029 98.1014 311.323 105.452 300.706 125.359C290.089 145.063 297.541 169.87 317.347 180.488ZM318.572 178.14C299.991 168.135 293.049 145.063 303.054 126.482C313.059 107.902 336.131 100.96 354.711 110.965C373.292 120.969 380.234 144.042 370.229 162.622C360.326 181.202 337.152 188.144 318.572 178.14Z" fill="#EAF4FE"/>
<path d="M388.602 187.736L427.498 208.664C431.99 211.115 437.707 209.379 440.157 204.887C442.608 200.395 440.872 194.678 436.38 192.228L397.484 171.3C392.992 168.85 387.275 170.585 384.825 175.077C383.6 177.323 383.396 179.875 384.11 182.223C384.723 184.469 386.254 186.511 388.602 187.736Z" fill="#060405"/>
<path d="M502.733 163.132C498.241 172.627 495.485 177.016 491.095 179.569C480.58 185.694 442.398 190.288 442.398 190.288C442.398 190.288 434.333 199.272 431.168 193.249C427.902 187.225 437.396 184.571 437.396 184.571C437.396 184.571 435.456 183.856 436.477 182.121C437.498 180.385 440.765 183.346 440.765 183.346C440.765 183.346 480.784 168.543 480.784 168.237C480.784 167.93 485.48 159.457 489.666 149.759L502.733 163.132Z" fill="white"/>
<path d="M434.332 195.801H433.821C432.494 195.597 431.473 194.882 430.759 193.453C429.942 191.922 429.84 190.39 430.452 188.961C431.575 186.409 434.638 184.979 436.271 184.367C436.067 184.163 435.863 183.856 435.761 183.55C435.557 182.938 435.659 182.325 436.067 181.713C436.374 181.304 436.68 180.998 437.19 180.998C438.517 180.794 440.253 182.121 440.865 182.733C455.975 177.119 478.434 168.849 480.374 167.828C480.476 167.522 480.782 167.012 481.395 165.685C483.028 162.418 486.193 156.292 489.154 149.452L489.46 148.738L503.344 163.03L503.242 163.336C498.954 172.422 496.096 177.323 491.4 179.977C481.191 185.898 445.97 190.288 442.703 190.696C441.886 191.615 437.803 195.801 434.332 195.801ZM437.394 182.019H437.292C437.088 182.019 436.986 182.121 436.884 182.325C436.68 182.733 436.578 183.04 436.68 183.244C436.884 183.754 437.497 184.061 437.497 184.061L438.926 184.571L437.497 184.979C437.497 184.979 432.596 186.409 431.269 189.267C430.759 190.39 430.861 191.615 431.575 192.84C432.188 193.963 432.903 194.576 433.923 194.678C437.292 195.086 441.988 189.88 441.988 189.88L442.091 189.778H442.295C442.703 189.778 480.578 185.184 490.787 179.16C495.075 176.608 497.934 172.014 502.017 163.234L489.766 150.575C486.908 157.109 483.947 163.03 482.314 166.195C481.803 167.216 481.293 168.135 481.293 168.339C480.987 168.849 477.822 170.279 440.968 183.856L440.661 183.959L440.457 183.754C439.64 183.04 438.211 182.019 437.394 182.019Z" fill="#060405"/>
<path d="M508.859 146.798C507.736 152.617 507.124 158.64 504.265 164.459C503.142 165.582 486.502 151.698 486.195 149.656C490.585 139.448 496.915 129.034 501.815 128.83C501.815 128.83 512.228 129.953 508.859 146.798Z" fill="#9F28EE"/>
<path d="M488.244 152.923C485.793 150.269 485.691 149.861 485.691 149.758V149.656L485.794 149.554C487.529 145.573 489.469 141.693 491.408 138.529L492.327 139.039C490.49 142.102 488.652 145.777 486.916 149.656C487.121 149.963 488.039 151.086 489.162 152.209L488.244 152.923Z" fill="#060405"/>
<path d="M481.611 98.4737C481.645 97.5722 481.17 96.8225 480.55 96.7992C479.93 96.7758 479.4 97.4877 479.366 98.3892C479.332 99.2906 479.807 100.04 480.427 100.064C481.047 100.087 481.577 99.3752 481.611 98.4737Z" fill="#060405"/>
<path d="M472.025 99.5187C472.059 98.6172 471.584 97.8675 470.964 97.8441C470.344 97.8208 469.814 98.5327 469.78 99.4341C469.746 100.336 470.221 101.085 470.841 101.109C471.461 101.132 471.991 100.42 472.025 99.5187Z" fill="#060405"/>
<path d="M475.086 105.86C474.882 105.86 474.677 105.758 474.473 105.656C473.861 105.145 474.065 104.328 474.167 104.022C474.575 102.593 474.575 101.062 474.371 99.6323C474.371 99.326 474.473 99.1219 474.78 99.0198C475.086 99.0198 475.29 99.1219 475.392 99.4281C475.698 100.959 475.596 102.695 475.188 104.226C475.086 104.635 475.086 104.839 475.086 104.839H475.188L475.596 104.431C475.8 104.226 476.107 104.226 476.311 104.328C476.515 104.431 476.515 104.839 476.413 105.043C476.209 105.247 476.005 105.451 475.698 105.656C475.494 105.86 475.29 105.86 475.086 105.86ZM476.923 113.21C476.311 113.21 475.596 113.108 474.984 112.802C474.78 112.7 474.575 112.394 474.78 112.087C474.882 111.883 475.188 111.679 475.494 111.883C477.128 112.598 479.272 111.985 480.19 110.454C480.292 110.25 480.599 110.148 480.905 110.25C481.109 110.352 481.211 110.658 481.109 110.964C480.19 112.394 478.557 113.21 476.923 113.21Z" fill="#060405"/>
<path opacity="0.05" d="M258.537 45.8309V108.82C258.537 113.21 254.964 116.783 250.574 116.783H121.941V37.7659H250.574C254.964 37.868 258.537 41.4411 258.537 45.8309Z" fill="black"/>
<path d="M255.371 42.0542V105.043C255.371 109.433 251.798 113.006 247.408 113.006H104.483C100.093 113.006 96.5195 109.433 96.5195 105.043V42.0542C96.5195 37.6644 100.093 34.0912 104.483 34.0912H247.306C251.798 33.9892 255.371 37.5623 255.371 42.0542Z" fill="#F6CC61"/>
<path d="M155.74 74.0078C155.74 87.4836 144.817 98.4072 131.341 98.4072C117.865 98.4072 106.941 87.4836 106.941 74.0078C106.941 60.532 117.865 49.6084 131.341 49.6084C144.817 49.7105 155.74 60.6341 155.74 74.0078Z" fill="white"/>
<path d="M162.159 74.0081H131.328V43.177C148.377 43.177 162.159 57.0612 162.159 74.0081Z" fill="#9F28EE"/>
<path d="M137.34 99.7341C123.149 103.103 108.959 94.2213 105.59 80.0308L131.316 74.0076L137.34 99.7341Z" fill="#FA58E0"/>
<path d="M180.55 61.2469H171.566C170.851 61.2469 170.137 60.6344 170.137 59.8177V50.8338C170.137 50.1192 170.749 49.4045 171.566 49.4045H180.55C181.264 49.4045 181.979 50.0171 181.979 50.8338V59.8177C181.979 60.6344 181.367 61.2469 180.55 61.2469ZM249.256 53.2839C249.256 53.7944 248.848 54.2028 248.337 54.2028H188.104C187.594 54.2028 187.186 53.7944 187.186 53.2839C187.186 52.7735 187.594 52.3651 188.104 52.3651H248.337C248.848 52.3651 249.256 52.7735 249.256 53.2839ZM216.894 57.3675C216.894 57.878 216.485 58.2863 215.975 58.2863H188.207C187.696 58.2863 187.288 57.878 187.288 57.3675C187.288 56.8571 187.696 56.4487 188.207 56.4487H215.975C216.383 56.4487 216.894 56.8571 216.894 57.3675Z" fill="white"/>
<path d="M180.55 78.7047H171.566C170.851 78.7047 170.137 78.0921 170.137 77.2754V69.0062C170.137 68.2915 170.749 67.5769 171.566 67.5769H180.55C181.264 67.5769 181.979 68.1894 181.979 69.0062V77.2754C181.979 78.0921 181.367 78.7047 180.55 78.7047Z" fill="white"/>
<path d="M249.235 71.4554C249.235 71.9659 248.826 72.3742 248.316 72.3742H188.083C187.572 72.3742 187.164 71.9659 187.164 71.4554C187.164 70.945 187.572 70.5366 188.083 70.5366H248.316C248.826 70.5366 249.235 70.945 249.235 71.4554ZM216.872 75.539C216.872 76.0495 216.464 76.4578 215.953 76.4578H188.185C187.675 76.4578 187.266 76.0495 187.266 75.539C187.266 75.0286 187.675 74.6202 188.185 74.6202H215.953C216.362 74.6202 216.872 75.0286 216.872 75.539Z" fill="white"/>
<path d="M180.55 97.5909H171.566C170.851 97.5909 170.137 96.9784 170.137 96.1617V87.1778C170.137 86.4632 170.749 85.7485 171.566 85.7485H180.55C181.264 85.7485 181.979 86.3611 181.979 87.1778V96.1617C181.979 96.9784 181.367 97.5909 180.55 97.5909Z" fill="white"/>
<path d="M249.235 89.628C249.235 90.1385 248.826 90.5468 248.316 90.5468H188.083C187.572 90.5468 187.164 90.1385 187.164 89.628C187.164 89.1176 187.572 88.7092 188.083 88.7092H248.316C248.826 88.7092 249.235 89.1176 249.235 89.628ZM216.872 93.7116C216.872 94.2221 216.464 94.6304 215.953 94.6304H188.185C187.675 94.6304 187.266 94.2221 187.266 93.7116C187.266 93.2012 187.675 92.7928 188.185 92.7928H215.953C216.362 92.7928 216.872 93.2012 216.872 93.7116Z" fill="white"/>
<path d="M450.162 79.3167H278.448C274.875 79.3167 271.914 76.3561 271.914 72.7829V17.042C271.914 13.4689 274.875 10.5083 278.448 10.5083H450.162C453.736 10.5083 456.696 13.4689 456.696 17.042V72.885C456.696 76.3561 453.736 79.3167 450.162 79.3167Z" fill="#12A67C"/>
<path d="M305.103 65.6363C316.549 65.6363 325.827 56.3578 325.827 44.9122C325.827 33.4665 316.549 24.188 305.103 24.188C293.657 24.188 284.379 33.4665 284.379 44.9122C284.379 56.3578 293.657 65.6363 305.103 65.6363Z" fill="white"/>
<path d="M305.078 43.3812C307.616 43.3812 309.672 41.3244 309.672 38.7871C309.672 36.2499 307.616 34.1931 305.078 34.1931C302.541 34.1931 300.484 36.2499 300.484 38.7871C300.484 41.3244 302.541 43.3812 305.078 43.3812Z" fill="#FE6021"/>
<path d="M317.238 56.1424C316.319 50.3232 311.214 45.8313 305.191 45.8313C299.168 45.8313 294.063 50.3232 293.145 56.1424H317.238Z" fill="#FE6021"/>
<path d="M348.885 26.9444L350.62 30.5176C350.722 30.8238 351.029 31.028 351.335 31.028L355.316 31.6405C356.133 31.7426 356.439 32.7635 355.827 33.3761L352.968 36.1325C352.764 36.3367 352.662 36.6429 352.662 37.0513L353.377 41.0328C353.479 41.8495 352.662 42.462 351.948 42.0537L348.374 40.2161C348.068 40.0119 347.762 40.0119 347.456 40.2161L343.882 42.0537C343.168 42.462 342.249 41.8495 342.453 41.0328L343.168 37.0513C343.27 36.745 343.066 36.4387 342.862 36.1325L340.003 33.3761C339.391 32.7635 339.697 31.7426 340.514 31.6405L344.495 31.028C344.801 31.028 345.108 30.8238 345.21 30.5176L346.945 26.9444C347.456 26.2298 348.476 26.2298 348.885 26.9444ZM391.048 26.9444L392.783 30.5176C392.885 30.8238 393.192 31.028 393.498 31.028L397.479 31.6405C398.296 31.7426 398.602 32.7635 397.99 33.3761L395.131 36.1325C394.927 36.3367 394.825 36.6429 394.825 37.0513L395.54 41.0328C395.642 41.8495 394.825 42.462 394.111 42.0537L390.537 40.2161C390.231 40.0119 389.925 40.0119 389.619 40.2161L386.045 42.0537C385.331 42.462 384.412 41.8495 384.616 41.0328L385.331 37.0513C385.433 36.745 385.229 36.4387 385.025 36.1325L382.166 33.3761C381.553 32.7635 381.86 31.7426 382.676 31.6405L386.658 31.028C386.964 31.028 387.271 30.8238 387.373 30.5176L389.108 26.9444C389.619 26.2298 390.639 26.2298 391.048 26.9444ZM370.426 26.9444L372.161 30.5176C372.263 30.8238 372.57 31.028 372.876 31.028L376.857 31.6405C377.674 31.7426 377.98 32.7635 377.368 33.3761L374.509 36.1325C374.305 36.3367 374.203 36.6429 374.203 37.0513L374.918 41.0328C375.02 41.8495 374.203 42.462 373.488 42.0537L369.915 40.2161C369.609 40.0119 369.303 40.0119 368.996 40.2161L365.423 42.0537C364.709 42.462 363.79 41.8495 363.994 41.0328L364.709 37.0513C364.811 36.745 364.607 36.4387 364.402 36.1325L361.544 33.3761C360.931 32.7635 361.238 31.7426 362.054 31.6405L366.036 31.028C366.342 31.028 366.648 30.8238 366.751 30.5176L368.486 26.9444C368.996 26.2298 370.119 26.2298 370.426 26.9444ZM412.18 26.9444L413.916 30.5176C414.018 30.8238 414.324 31.028 414.631 31.028L418.612 31.6405C419.429 31.7426 419.735 32.7635 419.122 33.3761L416.264 36.1325C416.06 36.3367 415.958 36.6429 415.958 37.0513L416.672 41.0328C416.774 41.8495 415.958 42.462 415.243 42.0537L411.67 40.2161C411.364 40.0119 411.057 40.0119 410.751 40.2161L407.178 42.0537C406.463 42.462 405.545 41.8495 405.749 41.0328L406.463 37.0513C406.565 36.745 406.361 36.4387 406.157 36.1325L403.299 33.3761C402.686 32.7635 402.992 31.7426 403.809 31.6405L407.791 31.028C408.097 31.028 408.403 30.8238 408.505 30.5176L410.241 26.9444C410.751 26.2298 411.772 26.2298 412.18 26.9444ZM433.211 26.9444L434.946 30.5176C435.048 30.8238 435.355 31.028 435.661 31.028L439.642 31.6405C440.459 31.7426 440.765 32.7635 440.153 33.3761L437.294 36.1325C437.09 36.3367 436.988 36.6429 436.988 37.0513L437.703 41.0328C437.805 41.8495 436.988 42.462 436.273 42.0537L432.7 40.2161C432.394 40.0119 432.088 40.0119 431.782 40.2161L428.208 42.0537C427.494 42.462 426.575 41.8495 426.779 41.0328L427.494 37.0513C427.596 36.745 427.392 36.4387 427.188 36.1325L424.329 33.3761C423.716 32.7635 424.023 31.7426 424.839 31.6405L428.821 31.028C429.127 31.028 429.433 30.8238 429.536 30.5176L431.271 26.9444C431.782 26.2298 432.905 26.2298 433.211 26.9444ZM339.697 49.9146H444.441V54.2023H339.697V49.9146ZM339.697 59.1026H380.737V63.3904H339.697V59.1026Z" fill="white"/>
<path d="M30.164 361.696L44.4565 259.811L62.118 361.696H75.3896L80.392 224.284H14.8505C14.1359 225.815 11.7879 242.966 11.8899 259.198C11.992 294.011 15.5652 348.22 16.8923 361.9L30.164 361.696Z" fill="#060405"/>
<path d="M30.6837 363.943V361.594H16.9016C16.6974 366.086 16.3912 374.56 16.2891 374.56H38.7488C39.5655 367.209 30.6837 363.943 30.6837 363.943Z" fill="#FE6021"/>
<path d="M38.4425 371.395C38.7488 372.415 38.8509 373.436 38.7488 374.661H16.2891C16.2891 374.661 16.3912 373.334 16.4932 371.395H38.4425Z" fill="#060405"/>
<path d="M75.9069 363.943V361.594H62.0227C61.8185 366.086 61.5122 374.56 61.4102 374.56H83.972C84.6866 367.209 75.9069 363.943 75.9069 363.943Z" fill="#FE6021"/>
<path d="M83.5485 371.395C83.8548 372.416 83.9569 373.437 83.8548 374.662H61.293C61.293 374.662 61.3951 373.335 61.4972 371.395H83.5485Z" fill="#060405"/>
<path d="M137.975 125.767C137.057 128.728 130.421 131.178 130.421 131.178L106.94 164.868C104.082 169.155 98.8751 171.197 93.8727 169.972L67.8398 163.643L82.7449 142.306C82.7449 142.306 95.3019 148.329 95.404 147.819C95.5061 147.308 121.947 121.684 121.947 121.684C121.947 121.684 119.293 113.925 121.335 113.517C123.479 113.21 125.01 116.171 125.01 116.171C125.01 116.171 134.811 101.062 136.444 102.287C138.894 104.022 132.258 116.579 132.258 116.579C132.258 116.579 138.894 122.909 137.975 125.767Z" fill="white"/>
<path d="M96.7315 170.789C95.7106 170.789 94.7918 170.687 93.7709 170.483L67.0234 163.949L82.6431 141.591L83.0515 141.795C88.2581 144.245 94.0772 146.9 95.2002 147.206C96.2211 145.981 100.713 141.387 121.437 121.377C120.927 119.846 119.497 115.15 120.416 113.517C120.62 113.21 120.927 112.904 121.335 112.904C123.071 112.598 124.398 114.129 125.112 115.048C127.256 111.781 133.892 101.98 136.138 101.572C136.444 101.47 136.751 101.572 136.853 101.674C139.405 103.512 134.505 113.517 133.075 116.273C134.403 117.6 139.507 122.909 138.588 125.869C137.669 128.83 131.952 131.076 130.932 131.484L107.553 165.072C105.001 168.747 100.917 170.789 96.7315 170.789ZM68.6569 163.336L93.9751 169.462C98.7733 170.585 103.776 168.645 106.532 164.561L130.115 130.77L130.217 130.668C131.952 130.055 136.751 127.809 137.465 125.665C138.078 123.725 134.403 119.234 131.952 116.886L131.646 116.579L131.85 116.273C134.913 110.454 137.465 103.512 136.138 102.593C135.015 102.695 129.706 109.739 125.419 116.375L124.908 117.09L124.5 116.273C124.5 116.273 123.071 113.619 121.437 113.925C121.335 113.925 121.335 113.925 121.233 114.027C120.62 115.048 121.641 119.029 122.458 121.275L122.56 121.582L122.356 121.786C112.249 131.586 97.0378 146.389 95.9148 147.717V147.819L95.7106 147.921C95.4043 148.023 94.996 148.329 83.0515 142.612L68.6569 163.336ZM95.0981 147.41C94.996 147.512 94.8939 147.614 94.8939 147.717C94.8939 147.717 94.8939 147.614 95.0981 147.41Z" fill="#060405"/>
<path d="M67.8398 135.466C67.8398 135.466 86.6243 141.796 88.9724 144.348C88.0536 154.965 84.0721 162.928 78.253 169.258" fill="#FE6021"/>
<path d="M82.8344 235.208C82.8344 241.945 12.3926 241.027 10.9634 233.982C10.9634 233.982 11.7801 210.298 10.0446 187.532H3.20457C3.10248 181.406 3.10248 168.237 3.81711 163.336C5.34845 152.107 8.41114 149.452 11.1676 145.471C12.2905 143.837 20.2535 137.508 25.358 135.67C29.5437 134.139 38.3234 132.301 42.7132 132.199C48.9407 131.995 72.115 132.199 77.2195 141.796C84.9783 156.803 82.8344 235.208 82.8344 235.208Z" fill="#FE6021"/>
<path d="M72.5273 210.808C72.5273 210.808 76.5088 204.07 79.7757 206.214C82.9405 208.256 78.2444 211.625 78.0402 211.727" fill="white"/>
<path d="M78.3569 212.033L77.6423 211.318L77.7444 211.216C79.9903 209.481 80.2966 208.358 80.2966 207.745C80.2966 207.235 79.9903 206.928 79.4799 206.52C78.9694 206.214 78.459 206.112 77.9485 206.214C75.4984 206.724 73.0482 210.91 72.9462 210.91L72.0273 210.399C72.1294 210.195 74.7838 205.908 77.6423 205.193C78.459 204.989 79.2757 205.193 79.9903 205.601C80.807 206.112 81.2154 206.826 81.3175 207.643C81.3175 209.072 80.2966 210.502 78.3569 212.033Z" fill="#060405"/>
<path d="M102.129 239.699H74.5646C72.5228 239.699 71.0935 237.76 71.604 235.82L81.8129 196.413C82.2213 195.086 83.3443 194.167 84.7735 194.167H112.338C114.38 194.167 115.809 196.107 115.298 198.047L105.089 237.453C104.783 238.781 103.558 239.699 102.129 239.699Z" fill="white"/>
<path d="M102.148 240.21H74.5833C72.2353 240.21 70.4997 237.964 71.1123 235.718L81.3212 196.311C81.7296 194.78 83.1589 193.657 84.7923 193.657H112.356C114.705 193.657 116.44 195.903 115.828 198.149L105.619 237.556C105.21 239.189 103.781 240.21 102.148 240.21ZM84.8944 194.678C83.7714 194.678 82.7505 195.495 82.4442 196.516L72.2353 235.922C71.8269 237.556 73.052 239.189 74.6854 239.189H102.25C103.373 239.189 104.393 238.372 104.7 237.351L114.909 197.945C115.317 196.311 114.092 194.678 112.459 194.678H84.8944Z" fill="#060405"/>
<path d="M77.9434 211.727C78.4539 211.727 93.9715 210.297 93.461 220.813C93.1548 228.265 71.5118 223.977 71.5118 223.977C71.5118 223.977 12.1977 228.673 4.23475 219.792C1.37624 216.525 3.11176 182.121 3.11176 182.121L28.8383 182.325V201.109L72.5327 210.706" fill="white"/>
<path d="M39.6502 225.815C24.1326 225.815 8.00239 224.692 3.91881 220.2C0.958212 216.933 2.48955 185.694 2.59164 182.121V181.61L29.237 181.814V200.701L72.523 210.195L72.3188 211.216L28.3182 201.518V182.835L3.61254 182.631C2.89791 196.413 2.69373 217.239 4.63343 219.485C12.3922 228.163 70.8896 223.569 71.5021 223.467H71.7063C71.9105 223.467 87.326 226.427 91.8179 222.854C92.5326 222.242 92.9409 221.527 92.9409 220.71C93.043 218.567 92.4305 216.729 91.0012 215.402C87.6323 212.135 80.8944 212.033 78.1379 212.237H77.9338V211.216H78.1379C80.9964 211.012 88.1427 211.114 91.8179 214.687C93.4514 216.218 94.166 218.362 94.0639 220.813C93.9618 221.935 93.4514 222.956 92.5326 223.671C87.7344 227.448 72.9314 224.692 71.6042 224.488C69.8687 224.692 55.0657 225.815 39.6502 225.815Z" fill="#060405"/>
<path d="M30.8648 190.288C31.2732 182.223 29.3335 165.582 27.2917 160.069C23.106 148.431 11.0595 145.675 11.0595 145.675C11.0595 145.675 4.21947 152.719 2.68812 163.847C2.07559 168.645 1.05469 182.631 1.05469 188.757C8.50723 190.9 19.7371 192.126 30.8648 190.288Z" fill="#FE6021"/>
<path d="M19.5496 191.718C13.1179 191.718 6.5842 190.901 0.867188 189.267L1.17346 188.247C9.95316 190.799 20.8767 191.309 30.3711 189.88C30.6773 181.815 28.7376 165.685 26.7979 160.274L27.7167 159.968C29.7585 165.583 31.8003 182.427 31.392 190.39V190.799L30.9836 190.901C27.3084 191.411 23.429 191.718 19.5496 191.718Z" fill="#060405"/>
<path d="M49.152 120.357C49.152 120.357 51.2959 128.83 53.746 132.607C55.5837 135.466 52.1126 140.877 48.9478 142.51C43.8434 145.164 33.7365 133.016 33.7365 133.016L33.3281 101.98L49.152 120.357Z" fill="white"/>
<path d="M47.3092 143.531C41.6943 143.531 33.7313 133.935 33.3229 133.526L33.2209 133.424L32.8125 100.756L49.5552 120.255V120.357C49.5552 120.459 51.6991 128.83 54.1492 132.505C54.7618 133.526 54.8639 134.751 54.5576 136.283C53.843 138.937 51.597 141.898 49.2489 143.123C48.6364 143.327 48.0239 143.531 47.3092 143.531ZM34.2418 132.914C37.1003 136.283 44.8591 144.144 48.7385 142.102C50.7803 140.979 52.9242 138.325 53.5367 135.874C53.7409 135.058 53.9451 133.833 53.3325 132.914C50.9845 129.341 48.9427 121.684 48.6364 120.561L33.8334 103.41L34.2418 132.914Z" fill="#060405"/>
<path d="M33.9517 98.5092C34.258 98.9175 36.6061 123.827 51.6132 122.092C66.6204 120.356 62.741 89.4232 56.0031 82.5832C49.2652 75.7432 35.6873 81.8686 35.6873 81.8686L31.1953 92.6901L33.9517 98.5092Z" fill="white"/>
<path d="M50.2809 122.705C42.0116 122.705 36.1925 114.537 33.6403 99.4282C33.5382 99.0198 33.5382 98.8157 33.5382 98.7136L30.6797 92.6903L35.3758 81.4604L35.58 81.3583C36.1925 81.0521 49.6684 75.1309 56.5084 82.1751C61.5107 87.2795 64.6755 104.124 61.0003 114.333C59.2648 119.234 56.1 122.092 51.8122 122.603C51.1997 122.705 50.7913 122.705 50.2809 122.705ZM34.457 98.3052C34.5591 98.4073 34.5591 98.6115 34.6612 99.3261C37.3155 114.946 43.1346 122.603 51.608 121.684C55.4875 121.275 58.346 118.723 59.9794 114.129C63.4504 104.431 60.3878 87.8921 55.6916 82.9918C49.7704 76.8664 37.7239 81.6646 36.0904 82.2771L31.8027 92.6903L34.457 98.3052Z" fill="#060405"/>
<path d="M46.5638 100.249C47.1272 100.228 47.5576 99.5249 47.525 98.6798C47.4925 97.8346 47.0094 97.1671 46.446 97.1888C45.8825 97.2104 45.4521 97.9132 45.4847 98.7583C45.5172 99.6034 46.0003 100.271 46.5638 100.249Z" fill="#060405"/>
<path d="M56.4817 100.25C57.0452 100.228 57.4755 99.5257 57.443 98.6805C57.4105 97.8354 56.9274 97.1678 56.3639 97.1895C55.8005 97.2112 55.3701 97.9139 55.4026 98.759C55.4352 99.6042 55.9183 100.272 56.4817 100.25Z" fill="#060405"/>
<path d="M51.4901 108.208L50.8776 107.391C51.286 107.085 51.7964 106.983 52.3069 106.983C52.6131 106.983 52.8173 106.779 52.8173 106.677C52.8173 106.575 52.6131 106.268 52.409 106.064C50.8776 104.431 50.163 102.083 50.6734 99.9387L51.6943 100.143C51.286 101.981 51.7964 104.022 53.1236 105.349C53.4298 105.656 53.9403 106.166 53.8382 106.881C53.7361 107.391 53.2257 107.8 52.511 108.004C52.0006 108.106 51.6943 108.106 51.4901 108.208ZM48.4275 115.661C47.6107 115.252 46.8961 114.64 46.5898 113.721L47.5087 113.312C47.7128 113.925 48.2233 114.435 48.8358 114.64C49.4484 114.844 50.0609 114.946 50.6734 114.64L51.0818 115.558C50.163 115.967 49.2442 115.967 48.4275 115.661Z" fill="#060405"/>
<path d="M64.6537 86.7692C64.0412 87.1776 63.3266 87.4838 62.6119 87.688C56.6907 89.6277 40.7648 85.9525 40.2543 88.3005C39.7439 90.5465 38.8251 103.92 37.8042 102.287C35.8645 99.2241 35.1498 94.0176 35.0478 102.899C35.1498 106.166 34.1289 118.825 34.1289 118.825C33.6185 117.294 30.6579 114.129 28.7182 110.76C25.2471 104.839 27.2889 89.0152 27.2889 89.0152C27.2889 89.0152 23.2054 85.5441 24.8388 81.971C26.4722 78.3979 51.9946 63.9011 57.3033 64.4116C62.3057 65.0241 59.5492 73.1913 59.3451 73.8038C59.7534 73.2934 63.6328 68.6994 65.2663 71.9662C66.5934 75.0289 69.1457 84.0128 64.6537 86.7692Z" fill="#060405"/>
<path d="M79.8477 151.668L80.8654 151.587L81.9706 165.53L80.9529 165.611L79.8477 151.668Z" fill="#060405"/>
<path d="M163.798 157.211H143.176C140.624 157.211 138.582 155.169 138.582 152.617V131.995C138.582 129.443 140.624 127.401 143.176 127.401H163.798C166.35 127.401 168.392 129.443 168.392 131.995V152.617C168.392 155.169 166.35 157.211 163.798 157.211ZM176.355 132.097H251.595V135.67H176.355V132.097ZM176.355 140.57H251.595V144.143H176.355V140.57ZM176.355 149.044H218.212V152.617H176.355V149.044ZM163.798 193.555H143.176C140.624 193.555 138.582 191.513 138.582 188.961V168.339C138.582 165.786 140.624 163.745 143.176 163.745H163.798C166.35 163.745 168.392 165.786 168.392 168.339V189.063C168.392 191.513 166.35 193.555 163.798 193.555ZM176.355 168.441H251.595V172.014H176.355V168.441ZM176.355 176.914H251.595V180.487H176.355V176.914ZM176.355 185.49H218.212V189.063H176.355V185.49Z" fill="white"/>
<path d="M309.887 132.709H318.666V158.844H309.887V132.709Z" fill="#FE6021"/>
<path d="M309.887 161.397H318.666V164.255H309.887V161.397Z" fill="white"/>
<path d="M323.875 126.278H332.655V158.946H323.875V126.278Z" fill="#060405"/>
<path d="M323.875 161.397H332.655V164.255H323.875V161.397Z" fill="white"/>
<path d="M337.75 145.165H346.53V158.947H337.75V145.165Z" fill="#FE6021"/>
<path d="M337.75 161.397H346.53V164.255H337.75V161.397Z" fill="white"/>
<path d="M351.641 120.356H360.42V158.946H351.641V120.356Z" fill="#060405"/>
<path d="M351.641 161.396H360.42V164.255H351.641V161.396Z" fill="white"/>
<path d="M190.224 333.724C186.14 335.153 179.096 335.663 174.808 326.271C170.52 316.879 175.625 300.442 168.07 293.092C168.07 293.092 176.952 293.296 185.017 301.157C192.98 309.018 203.189 329.232 190.224 333.724Z" fill="#008080"/>
<path d="M214.647 311.877C214.545 312.081 214.545 312.285 214.443 312.591C212.503 319.942 208.215 325.25 200.354 324.332C194.841 323.617 186.266 320.248 186.674 306.772C186.776 303.914 187.491 300.851 188.614 297.788C188.716 297.584 188.818 297.38 188.818 297.176C193.004 286.15 201.375 274.206 197.802 264.303C198.108 264.507 208.113 269.918 212.911 283.394C213.013 283.598 213.013 283.802 213.115 284.006C215.668 291.357 216.791 302.995 214.647 311.877Z" fill="#12A67C"/>
<path d="M200.148 303.505H201.169V348.323H200.148V303.505Z" fill="#060405"/>
<path d="M234.529 293.092C231.16 296.359 230.344 301.362 230.037 306.67V307.385C229.731 314.021 230.139 321.167 227.791 326.169C227.383 326.986 226.975 327.701 226.566 328.415C226.464 328.619 226.362 328.824 226.158 329.028C221.87 335.459 215.847 334.949 212.274 333.724C202.984 330.457 205.638 319.125 210.845 310.039L211.151 309.427C213.091 306.16 215.336 303.199 217.48 301.157C225.648 293.296 234.529 293.092 234.529 293.092Z" fill="#008080"/>
<path d="M203.535 349.889L218.718 319.017L219.634 319.467L204.451 350.34L203.535 349.889Z" fill="#060405"/>
<path d="M183.012 319.453L183.928 319.002L199.13 349.865L198.214 350.316L183.012 319.453Z" fill="#060405"/>
<path d="M209.332 374.56H195.448C194.631 374.56 193.916 373.947 193.814 373.131L188.199 348.935C187.995 347.914 188.812 346.996 189.935 346.996L215.253 347.098C216.274 347.098 217.091 348.016 216.887 349.139L211.067 373.233C210.863 373.947 210.149 374.56 209.332 374.56Z" fill="white"/>
<path d="M209.318 375.07H195.433C194.31 375.07 193.392 374.253 193.289 373.233L187.675 349.139C187.47 347.71 188.491 346.485 189.818 346.485L215.137 346.587C216.464 346.587 217.587 347.812 217.28 349.139L211.461 373.335C211.257 374.253 210.338 375.07 209.318 375.07ZM209.318 374.049C209.93 374.049 210.44 373.641 210.543 373.028L216.362 348.833C216.464 348.119 215.953 347.506 215.137 347.506L189.818 347.404C189.104 347.404 188.491 348.016 188.593 348.833L194.208 372.926C194.31 373.539 194.821 373.947 195.433 373.947L209.318 374.049Z" fill="#060405"/>
<path d="M230.062 306.67V307.385L226.795 309.12L226.489 308.508L230.062 306.67ZM226.591 328.517C226.489 328.722 226.386 328.926 226.182 329.13L224.753 327.394L225.263 326.986L226.591 328.517ZM213.115 283.904L208.112 288.294L207.704 287.784L212.911 283.19C213.013 283.496 213.115 283.7 213.115 283.904ZM192.595 300.443L192.186 300.953L188.613 297.788C188.715 297.584 188.817 297.38 188.817 297.176L192.595 300.443ZM214.646 311.877C214.544 312.081 214.544 312.285 214.442 312.591C213.829 312.183 212.809 311.366 210.971 310.039L211.277 309.427C212.604 310.345 213.829 311.264 214.646 311.877Z" fill="white"/>
<path d="M495.078 15.0007C483.542 18.676 477.11 31.0288 480.888 42.5649C482.317 46.9548 484.971 50.63 488.442 53.2843L491.811 48.7924L492.628 49.4049L489.259 53.8969C494.67 57.6742 501.816 59.0013 508.554 56.8575C520.09 53.1822 526.522 40.8294 522.744 29.1912C518.967 17.6551 506.614 11.3255 495.078 15.0007Z" fill="#060405"/>
<path d="M479.863 63.084L480.68 63.6965L492.114 48.281L491.297 47.6685L479.863 63.084Z" fill="#060405"/>
<path d="M500.699 28.1697L498.862 31.8449C498.657 32.1512 498.351 32.4574 497.943 32.4574L493.859 33.07C492.94 33.172 492.532 34.3971 493.247 35.0097L496.207 37.8682C496.514 38.1744 496.616 38.4807 496.514 38.8891L495.799 42.8706C495.595 43.7894 496.616 44.504 497.432 44.0956L501.006 42.1559C501.312 41.9518 501.72 41.9518 502.129 42.1559L505.702 44.0956C506.518 44.504 507.539 43.7894 507.335 42.8706L506.62 38.8891C506.518 38.4807 506.723 38.1744 506.927 37.8682L509.887 35.0097C510.602 34.295 510.194 33.172 509.275 33.07L505.191 32.4574C504.783 32.3553 504.477 32.1512 504.272 31.8449L502.435 28.1697C502.333 27.3529 501.108 27.3529 500.699 28.1697Z" fill="white"/>
<path d="M91.629 22.7594C91.7311 33.3767 84.2786 42.2585 74.3759 44.6066L69.5777 51.0382L64.6774 44.6066C54.6726 42.4627 47.2201 33.5809 47.118 22.9636C47.0159 10.7129 56.9186 0.605999 69.2714 0.605999C81.5222 0.503909 91.5269 10.5087 91.629 22.7594Z" fill="#060405"/>
<path d="M79.9777 29.7015C79.9777 32.0496 77.8338 33.8872 75.4857 33.3767C71.9126 32.6621 67.4206 31.8454 67.4206 31.8454H64.1538L64.0517 18.9821L65.2768 19.0842C65.583 19.0842 65.9914 18.9821 66.1956 18.6759C66.9102 17.655 68.8499 15.3069 69.3603 14.1839C70.1771 12.4484 68.4415 8.56899 70.7896 9.79406C73.1377 11.0191 74.0565 14.0818 73.0356 16.6341C72.423 18.0633 72.3209 18.4717 72.3209 18.4717L78.4463 18.7779C79.263 18.7779 79.9777 19.4926 79.9777 20.3093V29.7015ZM62.6224 18.88L62.7245 31.8454H59.4577C59.1514 31.8454 58.8451 31.6412 58.8451 31.2329L57.8242 18.9821C57.8242 18.5738 58.1305 18.2675 58.5389 18.3696L62.6224 18.88Z" fill="white"/>
<path d="M372.982 321.269H331.329C331.125 321.269 330.921 321.065 330.921 320.861C330.921 320.656 331.125 320.452 331.329 320.452H372.982C373.186 320.452 373.39 320.656 373.39 320.861C373.39 321.065 373.186 321.269 372.982 321.269ZM372.982 341.993H331.329C331.125 341.993 330.921 341.789 330.921 341.585C330.921 341.38 331.125 341.176 331.329 341.176H372.982C373.186 341.176 373.39 341.38 373.39 341.585C373.39 341.789 373.186 341.993 372.982 341.993ZM365.427 331.682H306.522C306.317 331.682 306.113 331.478 306.113 331.274C306.113 331.069 306.317 330.865 306.522 330.865H365.427C365.631 330.865 365.836 331.069 365.836 331.274C365.836 331.478 365.631 331.682 365.427 331.682Z" fill="#25E498"/>
<path d="M339.902 321.269C339.698 321.269 339.494 321.065 339.494 320.86V312.081C339.494 311.877 339.698 311.672 339.902 311.672C340.106 311.672 340.31 311.877 340.31 312.081V320.86C340.31 321.167 340.106 321.269 339.902 321.269ZM354.501 331.682C354.297 331.682 354.093 331.478 354.093 331.274V320.963C354.093 320.758 354.297 320.554 354.501 320.554C354.705 320.554 354.909 320.758 354.909 320.963V331.274C354.909 331.478 354.705 331.682 354.501 331.682ZM343.373 341.585C343.169 341.585 342.965 341.38 342.965 341.176V331.172C342.965 330.967 343.169 330.763 343.373 330.763C343.577 330.763 343.781 330.967 343.781 331.172V341.176C343.781 341.483 343.577 341.585 343.373 341.585ZM179.826 253.277H138.173C137.969 253.277 137.765 253.073 137.765 252.869C137.765 252.665 137.969 252.46 138.173 252.46H179.826C180.03 252.46 180.234 252.665 180.234 252.869C180.234 253.073 180.03 253.277 179.826 253.277ZM179.826 273.899H138.173C137.969 273.899 137.765 273.695 137.765 273.491C137.765 273.287 137.969 273.083 138.173 273.083H179.826C180.03 273.083 180.234 273.287 180.234 273.491C180.234 273.695 180.03 273.899 179.826 273.899ZM172.271 263.588H113.365C113.161 263.588 112.957 263.384 112.957 263.18C112.957 262.976 113.161 262.772 113.365 262.772H172.271C172.475 262.772 172.679 262.976 172.679 263.18C172.679 263.384 172.475 263.588 172.271 263.588Z" fill="#25E498"/>
<path d="M146.74 253.277C146.536 253.277 146.332 253.073 146.332 252.869V244.089C146.332 243.885 146.536 243.681 146.74 243.681C146.945 243.681 147.149 243.885 147.149 244.089V252.869C147.149 253.073 146.945 253.277 146.74 253.277ZM161.339 263.588C161.135 263.588 160.931 263.384 160.931 263.18V252.869C160.931 252.665 161.135 252.461 161.339 252.461C161.543 252.461 161.748 252.665 161.748 252.869V263.18C161.748 263.384 161.645 263.588 161.339 263.588ZM150.211 273.593C150.007 273.593 149.803 273.389 149.803 273.185V263.18C149.803 262.976 150.007 262.772 150.211 262.772C150.416 262.772 150.62 262.976 150.62 263.18V273.185C150.62 273.389 150.416 273.593 150.211 273.593Z" fill="#25E498"/>
</svg>
