<svg width="540" height="450" viewBox="0 0 540 450" fill="none" xmlns="http://www.w3.org/2000/svg">
<path opacity="0.3" d="M500.671 395.64C496.801 384.84 497.521 371.43 488.611 364.32C484.111 360.81 478.081 359.73 473.761 356.04C464.131 347.94 467.281 332.46 472.141 320.76C476.821 309.42 482.131 298.44 488.161 287.73C492.391 280.26 497.071 271.8 494.821 263.52C493.111 257.13 487.621 252.54 483.751 247.14C472.411 231.12 476.191 209.34 480.421 190.17C484.921 169.83 489.511 149.4 494.011 129.06C495.091 124.29 496.081 119.07 494.101 114.57C490.501 106.38 479.251 105.03 470.701 107.37C462.151 109.71 453.871 114.39 444.961 113.85C442.711 113.67 440.461 113.13 438.841 111.6C437.041 109.89 436.411 107.28 436.141 104.76C435.241 96.21 437.851 87.57 438.121 78.93C438.391 70.29 435.421 60.39 427.501 56.97C424.171 55.53 420.481 55.44 416.971 55.71C393.661 57.24 372.871 71.55 349.831 75.42C328.501 78.93 306.721 73.17 285.121 73.98C263.791 74.79 241.021 81.63 222.121 71.73C215.371 68.13 209.791 62.73 203.311 58.68C196.831 54.63 188.641 52.11 181.621 55.08C177.031 57.06 173.701 61.11 170.011 64.53C156.421 77.49 137.521 82.98 121.231 92.43C90.5412 110.07 69.8412 140.85 51.4812 171.09C45.6312 180.81 39.6912 191.25 40.1412 202.59C40.6812 216.09 50.1312 227.34 55.8012 239.67C67.5012 265.05 62.7312 294.84 54.7212 321.66C50.2212 336.6 45.1812 353.88 53.9112 366.75C57.2412 371.61 62.1012 375.12 67.1412 378.27C78.0312 385.2 89.7312 390.96 101.881 395.55H500.671V395.64Z" fill="#86E9DC"/>
<path d="M419.58 355.95H383.76C383.58 355.95 383.4 355.77 383.4 355.59C383.4 355.41 383.58 355.23 383.76 355.23H419.58C419.76 355.23 419.94 355.41 419.94 355.59C419.94 355.77 419.76 355.95 419.58 355.95ZM419.58 373.77H383.76C383.58 373.77 383.4 373.59 383.4 373.41C383.4 373.23 383.58 373.05 383.76 373.05H419.58C419.76 373.05 419.94 373.23 419.94 373.41C419.94 373.59 419.76 373.77 419.58 373.77ZM413.01 364.86H362.34C362.16 364.86 361.98 364.68 361.98 364.5C361.98 364.32 362.16 364.14 362.34 364.14H413.01C413.19 364.14 413.37 364.32 413.37 364.5C413.37 364.68 413.28 364.86 413.01 364.86Z" fill="#25E498"/>
<path d="M391.139 355.95C390.959 355.95 390.779 355.77 390.779 355.59V348.03C390.779 347.85 390.959 347.67 391.139 347.67C391.319 347.67 391.499 347.85 391.499 348.03V355.59C391.409 355.86 391.319 355.95 391.139 355.95ZM403.739 364.86C403.559 364.86 403.379 364.68 403.379 364.5V355.59C403.379 355.41 403.559 355.23 403.739 355.23C403.919 355.23 404.099 355.41 404.099 355.59V364.5C404.009 364.68 403.919 364.86 403.739 364.86ZM394.109 373.41C393.929 373.41 393.749 373.23 393.749 373.05V364.5C393.749 364.32 393.929 364.14 394.109 364.14C394.289 364.14 394.469 364.32 394.469 364.5V373.05C394.469 373.32 394.289 373.41 394.109 373.41ZM433.619 139.14H397.799C397.619 139.14 397.439 138.96 397.439 138.78C397.439 138.6 397.619 138.42 397.799 138.42H433.619C433.799 138.42 433.979 138.6 433.979 138.78C433.979 138.96 433.799 139.14 433.619 139.14ZM433.619 156.87H397.799C397.619 156.87 397.439 156.69 397.439 156.51C397.439 156.33 397.619 156.15 397.799 156.15H433.619C433.799 156.15 433.979 156.33 433.979 156.51C433.979 156.69 433.799 156.87 433.619 156.87ZM427.139 147.96H376.469C376.289 147.96 376.109 147.78 376.109 147.6C376.109 147.42 376.289 147.24 376.469 147.24H427.139C427.319 147.24 427.499 147.42 427.499 147.6C427.499 147.78 427.319 147.96 427.139 147.96Z" fill="#25E498"/>
<path d="M405.182 139.14C405.002 139.14 404.822 138.96 404.822 138.78V131.22C404.822 131.04 405.002 130.86 405.182 130.86C405.362 130.86 405.542 131.04 405.542 131.22V138.78C405.452 138.96 405.362 139.14 405.182 139.14ZM417.782 147.96C417.602 147.96 417.422 147.78 417.422 147.6V138.69C417.422 138.51 417.602 138.33 417.782 138.33C417.962 138.33 418.142 138.51 418.142 138.69V147.6C418.052 147.87 417.962 147.96 417.782 147.96ZM408.152 156.6C407.972 156.6 407.792 156.42 407.792 156.24V147.69C407.792 147.51 407.972 147.33 408.152 147.33C408.332 147.33 408.512 147.51 408.512 147.69V156.24C408.512 156.42 408.332 156.6 408.152 156.6ZM173.612 227.25H137.792C137.612 227.25 137.432 227.07 137.432 226.89C137.432 226.71 137.612 226.53 137.792 226.53H173.612C173.792 226.53 173.972 226.71 173.972 226.89C173.972 227.07 173.792 227.25 173.612 227.25ZM173.612 245.07H137.792C137.612 245.07 137.432 244.89 137.432 244.71C137.432 244.53 137.612 244.35 137.792 244.35H173.612C173.792 244.35 173.972 244.53 173.972 244.71C173.972 244.89 173.792 245.07 173.612 245.07ZM167.132 236.16H116.462C116.282 236.16 116.102 235.98 116.102 235.8C116.102 235.62 116.282 235.44 116.462 235.44H167.132C167.312 235.44 167.492 235.62 167.492 235.8C167.492 235.98 167.312 236.16 167.132 236.16Z" fill="#25E498"/>
<path d="M145.169 227.25C144.989 227.25 144.809 227.07 144.809 226.89V219.33C144.809 219.15 144.989 218.97 145.169 218.97C145.349 218.97 145.529 219.15 145.529 219.33V226.89C145.529 227.16 145.349 227.25 145.169 227.25ZM157.769 236.16C157.589 236.16 157.409 235.98 157.409 235.8V226.89C157.409 226.71 157.589 226.53 157.769 226.53C157.949 226.53 158.129 226.71 158.129 226.89V235.8C158.129 235.98 157.949 236.16 157.769 236.16ZM148.139 244.71C147.959 244.71 147.779 244.53 147.779 244.35V235.8C147.779 235.62 147.959 235.44 148.139 235.44C148.319 235.44 148.499 235.62 148.499 235.8V244.35C148.499 244.62 148.409 244.71 148.139 244.71Z" fill="#25E498"/>
<path d="M174.781 135.54H176.581V136.44H174.781V135.54ZM171.271 136.44H167.761V135.54H171.271V136.44ZM164.341 136.44H160.831V135.54H164.341V136.44ZM157.411 136.44H153.901V135.54H157.411V136.44ZM150.481 136.44H146.971V135.54H150.481V136.44ZM143.551 136.44H140.761C140.491 136.44 140.221 136.44 139.951 136.35L140.131 135.45C140.311 135.45 140.581 135.54 140.761 135.54H143.551V136.44ZM136.981 134.19C136.621 133.56 136.441 132.84 136.441 132.12V130.59H137.341V132.12C137.341 132.66 137.521 133.29 137.791 133.74L136.981 134.19ZM137.341 127.08H136.441V123.57H137.341V127.08ZM137.341 120.15H136.441V116.64H137.341V120.15ZM137.341 113.22H136.441V109.8H137.341V113.22ZM137.341 106.29H136.441V102.78H137.341V106.29ZM137.341 99.3599H136.441V95.8499H137.341V99.3599ZM136.441 90.6299H137.341V92.4299H136.441V90.6299Z" fill="black"/>
<path d="M398.341 89.1901V266.4C398.341 271.71 394.021 276.03 388.711 276.03H177.661C172.351 276.03 168.031 271.71 168.031 266.4V89.1901C168.031 83.8801 172.351 79.5601 177.661 79.5601H388.711C394.111 79.5601 398.341 83.9701 398.341 89.1901ZM388.711 79.5601C390.421 79.5601 392.581 79.5601 388.711 79.5601V79.5601Z" fill="#E6D6F5"/>
<path d="M182.428 90.6299C182.428 92.2499 181.078 93.5999 179.458 93.5999C177.838 93.5999 176.488 92.2499 176.488 90.6299C176.488 89.0099 177.838 87.6599 179.458 87.6599C181.168 87.6599 182.428 89.0099 182.428 90.6299ZM199.078 90.6299C199.078 92.2499 197.728 93.5999 196.108 93.5999C194.488 93.5999 193.138 92.2499 193.138 90.6299C193.138 89.0099 194.488 87.6599 196.108 87.6599C197.728 87.6599 199.078 89.0099 199.078 90.6299ZM190.798 90.6299C190.798 92.2499 189.448 93.5999 187.828 93.5999C186.208 93.5999 184.858 92.2499 184.858 90.6299C184.858 89.0099 186.208 87.6599 187.828 87.6599C189.448 87.6599 190.798 89.0099 190.798 90.6299ZM381.328 258.66H279.988C277.378 258.66 275.218 256.5 275.218 253.89V193.77C275.218 191.16 277.378 189 279.988 189H381.328C383.938 189 386.098 191.16 386.098 193.77V253.89C386.098 256.5 383.938 258.66 381.328 258.66Z" fill="white"/>
<path d="M318.512 226.17C322.562 226.53 327.422 226.98 331.652 227.43C330.752 232.83 328.052 237.51 324.092 240.84L316.262 230.22C317.252 229.14 318.062 227.7 318.512 226.17Z" fill="#FE6021"/>
<path d="M302.488 217.53L291.148 210.6C294.928 205.38 300.958 201.87 307.708 201.42V214.65C305.728 214.92 303.838 216 302.488 217.53Z" fill="#F81F8B"/>
<path d="M331.919 223.83V224.19C326.249 223.65 321.929 223.2 318.779 222.93C318.419 218.7 315.179 215.37 311.129 214.65V201.42C322.739 202.23 331.919 211.95 331.919 223.83Z" fill="#0FAC15"/>
<path d="M313.562 232.2L321.392 242.82C317.882 244.98 313.832 246.33 309.422 246.33C297.002 246.33 286.922 236.25 286.922 223.83C286.922 220.05 287.822 216.54 289.442 213.39L300.692 220.23C300.242 221.31 299.972 222.48 299.972 223.74C299.972 228.87 304.202 233.1 309.332 233.1C310.952 233.1 312.302 232.83 313.562 232.2Z" fill="#C7FAC9"/>
<path d="M342.181 202.77H378.001V213.3H342.181V202.77ZM341.641 219.24H378.001V221.4H341.641V219.24ZM341.641 225.09H378.001V227.25H341.641V225.09ZM341.641 230.85H378.001V233.01H341.641V230.85ZM341.641 236.7H358.651V238.86H341.641V236.7ZM365.401 236.7H369.271V238.86H365.401V236.7Z" fill="#FFC2C2"/>
<path d="M366.749 165.51L388.079 207.09C389.609 210.06 388.529 213.75 385.469 215.37C382.499 216.9 378.809 215.82 377.189 212.76L355.859 171.18L366.749 165.51Z" fill="#060405"/>
<path d="M371.879 172.17L358.559 179.19C357.929 179.55 357.029 179.28 356.669 178.65L352.439 170.64C352.079 170.01 352.349 169.11 352.979 168.75L366.299 161.73C366.929 161.37 367.829 161.64 368.189 162.27L372.419 170.28C372.779 171 372.599 171.81 371.879 172.17Z" fill="#060405"/>
<path d="M458.821 178.47C458.821 178.47 461.251 171.9 461.611 166.32C461.611 166.32 456.841 167.85 454.861 163.89C453.151 160.38 462.331 128.7 468.631 128.79C474.931 128.88 479.791 150.3 479.791 150.3L474.211 167.58C474.211 167.58 473.761 175.32 477.451 179.1C481.141 182.88 467.281 182.52 467.281 182.52L458.821 178.47Z" fill="white"/>
<path d="M467.278 182.88C454.858 177.12 459.178 179.1 458.278 178.65L458.458 178.29C458.458 178.2 460.708 172.17 461.158 166.86C459.718 167.13 456.118 167.4 454.498 164.07C452.968 161.01 458.458 141.03 463.858 132.48C465.658 129.69 467.188 128.34 468.718 128.34C475.288 128.43 480.148 149.31 480.328 150.21V150.3L474.748 167.58C474.748 168.3 474.478 175.23 477.898 178.65C478.618 179.37 478.798 180 478.528 180.63C477.448 182.88 469.708 182.97 467.278 182.88ZM467.458 181.98C471.418 182.07 477.088 181.62 477.628 180.27C477.718 180 477.448 179.55 477.178 179.28C473.398 175.41 473.758 167.76 473.848 167.49V167.4L479.428 150.3C478.078 144.36 473.578 129.33 468.718 129.33C467.638 129.33 466.198 130.59 464.668 133.11C459.358 141.57 454.138 161.37 455.398 163.8C457.198 167.4 461.428 166.05 461.608 165.96L462.238 165.78C462.238 165.96 462.148 170.73 459.538 178.38L467.458 181.98Z" fill="#060405"/>
<path d="M461.52 143.64C462.06 143.64 462.78 142.92 463.14 142.02C463.5 141.12 463.41 140.4 462.87 140.4C462.33 140.4 461.61 141.12 461.25 142.02C460.89 142.83 460.98 143.64 461.52 143.64ZM455.67 154.17L456.48 153.81C456.75 154.35 457.38 154.71 458.01 154.62L458.1 155.52C457.2 155.7 456.12 155.16 455.67 154.17ZM429.39 380.79C429.03 371.07 429.93 255.06 429.93 255.06L458.28 262.8L445.32 380.79H429.39Z" fill="#060405"/>
<path d="M475.65 381.33L459.72 380.79C453.69 364.05 434.34 256.05 434.34 256.05C434.34 256.05 477.27 252 477.9 257.04C478.62 262.8 473.85 299.16 473.67 330.66C473.49 358.11 475.83 375.66 475.65 381.33Z" fill="#060405"/>
<path d="M446.672 182.7C450.902 178.56 475.292 173.61 489.152 184.32C502.112 194.31 481.682 260.55 481.682 260.55C481.592 266.04 426.872 264.87 427.052 259.47C426.962 259.38 432.362 196.38 446.672 182.7Z" fill="#F81F8B"/>
<path d="M443.431 219.15C442.891 219.24 424.351 234.45 413.011 235.08C401.761 235.71 385.561 211.32 380.521 206.37C380.521 206.37 372.601 205.83 371.071 197.46C369.541 189.27 381.241 195.12 381.691 195.39C381.511 195.12 376.831 191.16 379.081 189.54C381.421 187.92 384.391 198.18 384.391 198.18L412.921 214.47L428.131 203.76L443.431 219.15Z" fill="white"/>
<path d="M385.471 212.76C383.311 210.06 381.601 207.99 380.341 206.82C379.171 206.64 372.151 205.47 370.621 197.55C370.261 195.57 370.621 194.13 371.611 193.32C373.501 191.88 377.281 193.05 379.711 194.04C378.721 192.87 377.911 191.61 378.001 190.53C378.001 189.99 378.361 189.54 378.811 189.18C379.171 188.91 379.621 188.82 380.071 189C382.231 189.72 384.391 196.47 384.841 197.82L413.011 213.84L428.041 203.22C428.221 203.13 428.491 203.13 428.581 203.31L443.791 218.79C443.881 218.88 443.971 219.06 443.881 219.24C443.881 219.33 443.701 219.51 443.611 219.51C442.441 220.23 424.351 234.81 413.101 235.44C403.831 235.98 391.501 220.23 385.471 212.76ZM374.131 193.59C373.321 193.59 372.691 193.77 372.241 194.13C371.521 194.67 371.251 195.84 371.611 197.46C373.141 205.38 380.341 205.92 380.701 206.01C380.791 206.01 380.881 206.1 380.971 206.1C382.231 207.27 383.941 209.52 386.281 212.31C393.211 220.86 404.821 235.17 413.191 234.72C422.551 234.18 436.051 224.1 442.891 219.24L428.131 204.3L413.191 214.83C413.011 214.92 412.831 214.92 412.741 214.83L384.211 198.54C384.121 198.45 384.031 198.36 384.031 198.27C383.131 195.3 381.151 190.35 379.801 189.81C379.621 189.72 379.531 189.81 379.351 189.9C379.081 190.08 378.991 190.26 378.901 190.62C378.811 191.97 380.971 194.04 381.691 194.76C381.961 195.03 382.051 195.12 382.051 195.21C382.141 195.39 382.141 195.57 381.961 195.75C381.781 195.93 381.601 195.93 381.421 195.84C379.531 194.85 376.381 193.59 374.131 193.59Z" fill="#060405"/>
<path d="M449.099 181.08C443.519 183.96 433.799 189.45 424.439 202.41C422.819 204.48 437.759 226.35 441.539 224.28L462.059 207.63L449.099 181.08Z" fill="#F81F8B"/>
<path d="M477.72 168.75C477.72 168.75 467.19 165.06 468.72 156.69C470.25 148.32 474.66 144.36 473.13 142.29C471.6 140.22 469.44 141.48 468.54 143.73C467.64 145.98 467.19 149.76 467.19 149.76H464.31C464.31 149.76 465.21 138.96 467.91 137.79C467.91 137.79 457.83 127.08 465.12 121.77C470.25 118.08 472.5 122.76 472.5 122.76C472.5 122.76 478.35 113.76 483.84 117.99C489.33 122.22 484.29 132.75 484.29 132.75C484.29 132.75 491.13 132.93 492.12 139.23C493.11 145.44 480.51 152.28 479.79 157.41C478.89 164.34 477.72 168.75 477.72 168.75Z" fill="#060405"/>
<path d="M459.719 383.4V380.7H475.649C475.829 385.83 476.279 395.55 476.369 395.55H450.449C449.639 387.18 459.719 383.4 459.719 383.4Z" fill="#F81F8B"/>
<path d="M450.81 391.95C450.45 393.03 450.27 394.29 450.45 395.64H476.37C476.28 395.64 476.19 394.11 476.1 391.95H450.81Z" fill="#060405"/>
<path d="M429.391 383.4V380.7H445.321C445.501 385.83 445.951 395.55 446.041 395.55H420.121C419.311 387.18 429.391 383.4 429.391 383.4Z" fill="#F81F8B"/>
<path d="M420.481 391.95C420.121 393.03 419.941 394.29 420.121 395.64H446.041C445.951 395.64 445.861 394.11 445.771 391.95H420.481Z" fill="#060405"/>
<path d="M343.711 93.78C321.211 93.78 303.031 112.05 303.031 134.46C303.031 156.96 321.211 175.14 343.711 175.14C366.211 175.14 384.391 156.96 384.391 134.46C384.391 111.96 366.211 93.78 343.711 93.78ZM343.711 166.86C325.801 166.86 311.311 152.37 311.311 134.46C311.311 116.55 325.801 102.06 343.711 102.06C361.621 102.06 376.111 116.55 376.111 134.46C376.111 152.37 361.621 166.86 343.711 166.86Z" fill="white"/>
<path d="M437.49 223.47C435.33 221.67 433.71 219.33 432.18 217.08C425.34 207 423.18 205.02 423.99 202.14L424.89 202.41C424.17 204.84 426.15 206.64 432.99 216.63C434.52 218.88 436.05 221.13 438.12 222.84C438.84 223.47 439.38 223.74 440.82 222.48C445.23 218.7 449.55 214.65 453.42 210.33L454.05 210.96C450.09 215.28 445.77 219.42 441.36 223.2C439.65 224.64 438.66 224.46 437.49 223.47Z" fill="#060405"/>
<path d="M376.109 134.73C376.109 147.24 368.999 158.13 358.559 163.53C354.059 165.87 349.019 167.13 343.709 167.13C338.309 167.13 333.269 165.87 328.859 163.53C318.419 158.13 311.309 147.24 311.309 134.73C311.309 116.82 325.799 102.33 343.709 102.33C361.619 102.33 376.109 116.82 376.109 134.73Z" fill="#FED8DF"/>
<path d="M358.559 163.53C354.059 165.87 349.019 167.13 343.709 167.13C338.309 167.13 333.269 165.87 328.859 163.53C332.369 159.21 337.769 156.51 343.709 156.51C349.739 156.51 355.049 159.21 358.559 163.53Z" fill="#F81F8B"/>
<path d="M346.502 157.68C346.502 158.67 338.672 158.67 338.672 157.68V150.57H346.502V157.68Z" fill="white"/>
<path d="M329.309 136.08C328.049 139.05 326.699 142.29 323.909 144C323.279 144.36 322.559 144.81 322.739 145.53C322.829 146.25 323.549 146.43 329.129 148.95C331.019 149.85 332.999 150.66 335.159 151.02C337.229 151.38 339.569 151.02 341.189 149.76C342.719 148.59 343.619 146.7 344.249 144.81C344.879 142.83 345.329 140.76 345.149 138.69C344.699 133.92 341.099 130.41 337.229 127.71C336.419 127.17 334.349 125.19 333.539 126.27C331.199 129.24 330.029 134.37 329.309 136.08Z" fill="#060405"/>
<path d="M356.849 136.08C358.109 139.05 359.459 142.29 362.249 144C362.879 144.36 363.599 144.81 363.419 145.53C363.329 146.25 362.609 146.43 357.029 148.95C355.139 149.85 353.159 150.66 350.999 151.02C348.929 151.38 346.589 151.02 344.969 149.76C343.439 148.59 342.539 146.7 341.909 144.81C341.279 142.83 340.829 140.76 341.009 138.69C341.459 133.92 345.059 130.41 348.929 127.71C349.739 127.17 351.809 125.19 352.619 126.27C354.959 129.15 356.129 134.37 356.849 136.08Z" fill="#060405"/>
<path d="M353.161 138.78C353.161 146.07 348.481 153.54 342.811 153.54C337.141 153.54 332.461 146.07 332.461 138.78C332.371 123.3 353.161 123.3 353.161 138.78Z" fill="white"/>
<path d="M347.041 140.4C347.637 140.4 348.121 139.715 348.121 138.87C348.121 138.025 347.637 137.34 347.041 137.34C346.444 137.34 345.961 138.025 345.961 138.87C345.961 139.715 346.444 140.4 347.041 140.4Z" fill="#060405"/>
<path d="M338.4 140.4C338.997 140.4 339.48 139.715 339.48 138.87C339.48 138.025 338.997 137.34 338.4 137.34C337.804 137.34 337.32 138.025 337.32 138.87C337.32 139.715 337.804 140.4 338.4 140.4Z" fill="#060405"/>
<path d="M340.02 148.41C339.84 148.23 339.75 147.96 339.93 147.78C340.11 147.6 340.38 147.51 340.56 147.69C341.28 148.14 342.09 148.41 342.9 148.32C343.71 148.23 344.52 147.96 345.15 147.42C345.33 147.24 345.6 147.24 345.78 147.42C345.96 147.6 345.96 147.87 345.78 148.05C344.97 148.68 343.98 149.13 342.99 149.22C341.91 149.31 340.92 149.04 340.02 148.41ZM351.72 138.33C350.82 136.89 350.19 135.18 349.2 133.74C348.21 132.3 346.86 130.95 345.15 130.68C345.15 131.67 345.78 132.57 346.14 133.47C346.5 134.37 346.5 135.63 345.6 136.17C345.15 136.44 344.52 136.44 343.98 136.44C335.61 136.08 334.62 136.17 333.09 135.45C331.83 134.91 330.75 133.83 330.66 132.48C330.57 131.49 331.02 130.59 331.47 129.69C333 126.81 334.71 123.84 337.23 121.77C339.75 119.7 343.26 118.53 346.41 119.43C351.81 121.05 357.39 129.69 355.95 138.87C355.86 139.41 354.87 140.4 354.42 140.85C353.43 141.84 352.17 139.05 351.72 138.33ZM342.36 145.62C342 145.62 341.55 145.35 341.46 144.99C341.28 144.63 341.28 144.27 341.37 144L341.55 140.22C341.55 139.95 341.73 139.77 342 139.77C342.27 139.77 342.45 140.04 342.45 140.22L342.27 144V144.54C342.27 144.63 342.36 144.63 342.36 144.63C342.63 144.54 342.81 144.72 342.9 144.9C342.99 145.17 342.81 145.35 342.63 145.44C342.54 145.62 342.45 145.62 342.36 145.62Z" fill="#060405"/>
<path opacity="0.15" d="M376.108 134.73C376.108 147.24 368.998 158.13 358.558 163.53C354.058 165.87 349.018 167.13 343.708 167.13C342.808 167.13 341.998 167.13 341.098 167.04C339.748 166.95 338.398 166.77 337.138 166.5C334.348 165.96 331.648 164.97 329.128 163.71C329.038 163.71 328.948 163.62 328.858 163.53C325.078 161.55 321.658 158.85 318.958 155.61C317.158 153.54 315.718 151.2 314.548 148.68C313.648 146.79 312.928 144.81 312.388 142.74C311.758 140.22 311.398 137.52 311.398 134.73C311.398 117.54 324.808 103.5 341.728 102.42C342.448 102.42 343.168 102.33 343.888 102.33C345.328 102.33 346.678 102.42 348.118 102.6C350.908 102.96 353.518 103.68 356.038 104.67C360.178 106.29 363.778 108.81 366.928 111.87C368.908 113.85 370.618 116.19 372.058 118.62C372.688 119.79 373.318 120.96 373.858 122.22C375.208 126.09 376.108 130.32 376.108 134.73Z" fill="#9B0D27"/>
<path opacity="0.1" d="M347.941 102.6L314.461 148.68C313.561 146.79 312.841 144.81 312.301 142.74L341.551 102.42C342.271 102.42 342.991 102.33 343.711 102.33C345.151 102.33 346.501 102.42 347.941 102.6ZM373.681 122.31L341.101 167.04C339.751 166.95 338.401 166.77 337.141 166.5L371.881 118.71C372.511 119.79 373.141 121.05 373.681 122.31ZM366.751 111.87L329.131 163.62C329.041 163.62 328.951 163.53 328.861 163.44C325.081 161.46 321.661 158.76 318.961 155.52L355.951 104.58C360.001 106.29 363.691 108.81 366.751 111.87Z" fill="white"/>
<path d="M261.99 262.89H184.86C183.51 262.89 182.43 261.81 182.43 260.46V184.68C182.43 183.33 183.51 182.25 184.86 182.25H261.99C263.34 182.25 264.42 183.33 264.42 184.68V260.46C264.42 261.81 263.34 262.89 261.99 262.89ZM291.15 171.36H185.04C183.69 171.36 182.61 170.28 182.61 168.93V104.67C182.61 103.32 183.69 102.24 185.04 102.24H291.06C292.41 102.24 293.49 103.32 293.49 104.67V168.93C293.58 170.28 292.5 171.36 291.15 171.36Z" fill="white"/>
<path d="M256.771 254.43C256.771 242.28 256.861 213.03 256.861 213.03C256.861 213.03 253.621 214.38 251.821 217.35C250.021 220.32 247.681 222.12 242.551 221.67C237.511 221.22 234.001 218.16 228.061 219.87C219.961 222.21 219.421 229.59 213.121 229.23C206.821 228.96 197.281 226.08 191.071 237.33C190.261 238.86 190.531 248.31 190.801 254.34H256.771V254.43Z" fill="#FE6021"/>
<path d="M214.289 195.39C214.289 196.83 213.749 198.09 212.759 198.99C211.859 199.89 210.599 200.52 209.159 200.52H194.759C191.969 200.52 189.719 198.27 189.719 195.48C189.719 194.04 190.259 192.78 191.249 191.88C192.149 190.98 193.409 190.35 194.849 190.35H209.249C212.039 190.35 214.289 192.6 214.289 195.39Z" fill="#C7FAC9"/>
<path d="M247.23 200.16H223.83C223.38 200.16 222.93 199.8 222.93 199.26C222.93 198.81 223.29 198.36 223.83 198.36H247.23C247.68 198.36 248.13 198.72 248.13 199.26C248.13 199.8 247.68 200.16 247.23 200.16ZM234.45 202.95H223.92C223.47 202.95 223.02 203.31 223.02 203.85C223.02 204.3 223.38 204.75 223.92 204.75H234.45C234.9 204.75 235.35 204.39 235.35 203.85C235.35 203.31 234.9 202.95 234.45 202.95Z" fill="#FFC2C2"/>
<path d="M154.622 57.7801V91.2601H98.1016V57.7801C98.1016 55.6201 99.9016 53.8201 102.062 53.8201H150.752C152.822 53.8201 154.622 55.6201 154.622 57.7801Z" fill="#FA58E0"/>
<path d="M154.622 91.26V98.46C154.622 100.62 152.822 102.42 150.662 102.42H101.972C99.8117 102.42 98.0117 100.62 98.0117 98.46V91.26H154.622Z" fill="black"/>
<path d="M103.051 83.6099H102.871C102.601 83.5199 102.511 83.2499 102.691 82.9799C104.401 79.3799 108.361 77.7599 111.601 79.2899C112.231 79.5599 112.861 80.0099 113.491 80.3699C114.841 81.2699 116.011 82.0799 117.271 81.7199C118.801 81.2699 119.701 79.2899 120.421 77.4899L120.601 77.0399C121.771 74.3399 124.471 69.6599 128.971 68.3099C131.491 67.5899 134.191 68.0399 136.891 68.5799L137.161 68.6699C139.501 69.2099 142.021 69.7499 144.361 69.2999C145.891 69.0299 147.331 68.1299 148.321 66.9599C148.501 66.7799 148.771 66.7799 148.951 66.8699C149.131 67.0499 149.131 67.3199 149.041 67.4999C147.871 68.8499 146.251 69.7499 144.541 70.1099C142.021 70.6499 139.411 70.1099 136.981 69.4799L136.711 69.3899C134.101 68.8499 131.581 68.3999 129.241 69.0299C126.181 69.9299 123.301 72.8999 121.411 77.3099L121.231 77.7599C120.421 79.7399 119.431 81.8999 117.541 82.5299C115.921 82.9799 114.391 82.0799 112.951 81.0899C112.411 80.7299 111.781 80.2799 111.241 80.0099C108.451 78.6599 104.941 80.1899 103.501 83.2499C103.321 83.5199 103.231 83.6099 103.051 83.6099ZM103.051 94.4099H128.881V95.7599H103.051V94.4099ZM111.781 97.1099H114.481V98.4599H111.781V97.1099ZM103.051 97.1099H109.531V98.4599H103.051V97.1099Z" fill="white"/>
<path d="M148.95 70.11C150.292 70.11 151.38 69.022 151.38 67.68C151.38 66.3379 150.292 65.25 148.95 65.25C147.607 65.25 146.52 66.3379 146.52 67.68C146.52 69.022 147.607 70.11 148.95 70.11Z" fill="white"/>
<path d="M103.051 85.59C104.393 85.59 105.481 84.502 105.481 83.16C105.481 81.8179 104.393 80.73 103.051 80.73C101.709 80.73 100.621 81.8179 100.621 83.16C100.621 84.502 101.709 85.59 103.051 85.59Z" fill="white"/>
<path d="M196.922 160.11H279.362V162.9H196.922V160.11Z" fill="#060405"/>
<path d="M202.141 138.6H213.661V160.11H202.141V138.6Z" fill="#FDCCFF"/>
<path d="M202.141 138.6H213.661V144.18H202.141V138.6Z" fill="#FE6021"/>
<path d="M217.262 133.02H228.782V160.2H217.262V133.02Z" fill="#FDCCFF"/>
<path d="M217.262 133.02H228.782V140.04H217.262V133.02Z" fill="#F81F8B"/>
<path d="M232.379 125.91H243.899V160.11H232.379V125.91Z" fill="#FDCCFF"/>
<path d="M232.379 125.91H243.899V134.19H232.379V125.91Z" fill="#FE6021"/>
<path d="M247.41 138.6H258.93V160.11H247.41V138.6Z" fill="#FDCCFF"/>
<path d="M247.41 138.6H258.93V142.2H247.41V138.6Z" fill="#F81F8B"/>
<path d="M262.531 129.78H274.051V160.11H262.531V129.78Z" fill="#FDCCFF"/>
<path d="M262.531 129.78H274.051V142.2H262.531V129.78Z" fill="#FE6021"/>
<path d="M205.828 133.11C205.468 132.75 205.468 132.21 205.828 131.85L216.628 121.05C216.988 120.69 217.528 120.69 217.888 121.05L223.018 125.73L237.508 111.78C237.868 111.42 238.408 111.42 238.768 111.78L253.168 125.19L267.658 110.34C268.018 109.98 268.558 109.98 268.918 110.34C269.278 110.7 269.278 111.24 268.918 111.6L253.798 126.9C253.438 127.26 252.898 127.26 252.538 126.9L238.048 113.49L223.558 127.44C223.198 127.8 222.658 127.8 222.298 127.44L217.168 122.85L206.998 133.02C206.728 133.38 206.188 133.38 205.828 133.11ZM113.758 126.54C109.078 119.34 100.078 115.02 91.7083 116.64C83.3383 118.26 76.3183 126.09 76.3183 134.64C76.3183 139.05 78.0283 143.28 77.8483 147.69C77.5783 153.63 73.8883 158.94 69.7483 163.35C65.6083 167.76 60.9283 171.63 57.9583 176.85C54.8983 181.98 53.9083 189 57.5083 193.77C59.8483 197.01 64.0783 199.08 65.0683 203.04C65.8783 206.46 63.8083 209.88 61.5583 212.49C59.3083 215.19 56.6083 217.71 55.8883 221.13C54.7183 226.08 58.0483 231.21 62.5483 233.55C67.0483 235.89 72.3583 235.98 77.3983 235.62C86.1283 234.9 94.9483 232.74 101.788 227.34C111.508 219.6 115.468 205.38 111.238 193.68C110.428 191.34 109.258 189.18 108.628 186.84C107.998 184.5 107.998 181.8 109.258 179.73C111.688 175.59 118.258 174.87 119.788 170.37C121.138 166.23 117.808 161.55 116.278 157.95C114.838 154.62 114.838 152.73 116.008 149.4C118.618 141.93 118.168 133.38 113.758 126.54Z" fill="#060405"/>
<path d="M136.712 382.59V379.62H119.072C118.802 385.38 118.352 396.09 118.262 396.09H146.972C147.962 386.73 136.712 382.59 136.712 382.59Z" fill="#FE6021"/>
<path d="M146.612 392.04C146.972 393.3 147.152 394.65 146.972 396.18H118.262C118.352 396.18 118.442 394.47 118.532 392.04H146.612Z" fill="#060405"/>
<path d="M93.6883 382.59V379.62H76.0483C75.7783 385.38 75.3283 396.09 75.2383 396.09H103.948C104.938 386.73 93.6883 382.59 93.6883 382.59Z" fill="#FE6021"/>
<path d="M103.498 392.04C103.858 393.3 104.038 394.65 103.858 396.18H75.1484C75.2384 396.18 75.3284 394.47 75.4184 392.04H103.498ZM138.598 381.6L128.878 241.11L94.3184 247.86L117.988 381.6C117.988 383.04 138.598 383.04 138.598 381.6Z" fill="#060405"/>
<path d="M95.8489 382.68L110.969 243.09L74.8789 244.8L75.1489 382.68C75.1489 384.03 95.8489 384.03 95.8489 382.68Z" fill="#060405"/>
<path d="M70.3811 180.09C74.2511 173.52 110.611 169.56 120.421 177.57C127.801 183.6 131.041 256.68 131.041 256.68C131.581 263.88 68.4911 264.42 67.9511 257.13C68.0411 257.13 66.3311 186.84 70.3811 180.09Z" fill="#FE6021"/>
<path d="M81.4499 275.4C72.1799 280.89 69.6599 267.03 69.6599 267.03C69.6599 267.03 36.9899 237.42 40.0499 221.67C41.3999 214.83 50.3099 205.11 50.3099 205.11L63.5399 221.76L58.4099 227.43L76.4999 259.65C76.4999 259.65 82.1699 257.76 83.7899 260.19C85.4099 262.53 80.8199 262.35 80.8199 262.35C80.8199 262.35 90.6299 270 81.4499 275.4Z" fill="white"/>
<path d="M77.3996 277.11C76.5896 277.11 75.7796 276.93 75.0596 276.57C70.9196 274.68 69.4796 268.29 69.2996 267.21C66.8696 264.96 36.6296 237.06 39.5996 221.49C40.9496 214.56 49.5896 205.11 49.9496 204.75C50.0396 204.66 50.1296 204.57 50.3096 204.57C50.3996 204.57 50.5796 204.66 50.6696 204.75L63.8996 221.4C64.0796 221.58 63.9896 221.85 63.8996 221.94L58.9496 227.43L76.7696 259.02C78.1196 258.66 82.7096 257.58 84.2396 259.83C84.7796 260.64 84.6896 261.27 84.5096 261.54C84.0596 262.26 82.9796 262.53 81.9896 262.62C83.4296 263.97 86.0396 266.85 85.8596 270.09C85.6796 272.25 84.3296 274.14 81.7196 275.67C80.1896 276.66 78.7496 277.11 77.3996 277.11ZM50.2196 205.83C48.5996 207.72 41.5796 215.82 40.4096 221.76C37.4396 237.06 69.5696 266.4 69.9296 266.67C70.0196 266.76 70.0196 266.85 70.1096 266.94C70.1096 267.03 71.4596 273.96 75.4196 275.85C77.1296 276.57 79.0196 276.39 81.1796 275.04C83.5196 273.69 84.7796 271.98 84.8696 270.18C85.1396 266.31 80.4596 262.71 80.4596 262.71C80.2796 262.62 80.2796 262.35 80.2796 262.17C80.3696 261.99 80.5496 261.9 80.7296 261.9C81.7196 261.9 83.2496 261.72 83.6096 261.27C83.6996 261.09 83.5196 260.73 83.4296 260.46C82.2596 258.75 78.1196 259.65 76.6796 260.1C76.4996 260.19 76.2296 260.1 76.1396 259.92L57.9596 227.7C57.8696 227.52 57.8696 227.34 58.0496 227.16L62.9096 221.76L50.2196 205.83Z" fill="#060405"/>
<path d="M75.4216 176.76C75.4216 176.76 66.3316 180.27 61.2016 185.49C57.1516 189.54 47.4316 204.57 47.4316 204.57C45.8116 206.1 62.3716 226.8 64.7116 224.37C64.7116 224.37 81.9016 206.1 83.0716 198.63C84.4216 188.91 75.4216 176.76 75.4216 176.76Z" fill="#FE6021"/>
<path d="M64.17 225H63.9C60.21 224.37 49.5 211.05 47.34 206.46C47.25 206.28 47.34 206.01 47.52 205.83C47.79 205.74 47.97 205.83 48.15 206.01C50.4 210.69 60.93 223.56 63.99 224.01C64.17 224.01 64.26 224.01 64.26 223.92C64.44 223.74 81.36 205.65 82.44 198.36C82.44 198.09 82.71 197.91 82.98 198C83.25 198 83.43 198.27 83.34 198.54C82.26 206.1 65.61 223.83 64.89 224.55C64.8 224.82 64.53 225 64.17 225Z" fill="#060405"/>
<path d="M182.969 192.87C182.969 192.87 165.419 223.47 154.799 225.09C147.329 226.26 128.789 209.34 128.789 209.34L140.579 192.06L154.709 201.87L175.949 185.76C175.859 185.49 174.329 178.2 176.309 178.29C178.289 178.38 178.649 182.43 178.649 182.43C178.649 182.43 185.129 170.91 187.559 171.99C189.989 173.07 184.769 181.35 184.769 181.35C184.769 181.35 189.629 184.32 190.169 187.83C190.709 191.25 182.969 192.87 182.969 192.87Z" fill="white"/>
<path d="M153.99 225.63C145.98 225.63 129.15 210.42 128.43 209.7C128.25 209.52 128.25 209.34 128.34 209.07L140.13 191.79C140.22 191.7 140.31 191.61 140.4 191.61C140.49 191.61 140.67 191.61 140.76 191.7L154.62 201.33L175.41 185.58C175.14 184.41 174.24 179.64 175.32 178.29C175.59 178.02 175.86 177.84 176.22 177.84C177.75 177.93 178.47 179.73 178.74 181.08C180.81 177.57 185.22 170.46 187.56 171.54C187.92 171.72 188.28 172.08 188.37 172.53C189 174.69 186.12 179.64 185.22 181.17C186.39 181.98 189.9 184.59 190.44 187.65C191.07 191.16 184.41 192.96 183.06 193.23C181.53 195.93 165.06 223.92 154.71 225.54C154.62 225.63 154.35 225.63 153.99 225.63ZM129.33 209.34C131.58 211.41 146.88 224.73 153.99 224.73C154.26 224.73 154.53 224.73 154.71 224.64C164.97 223.02 182.34 192.96 182.52 192.6C182.61 192.51 182.7 192.42 182.79 192.42C184.86 191.97 190.08 190.26 189.63 187.83C189.09 184.59 184.5 181.71 184.41 181.71C184.32 181.62 184.23 181.53 184.23 181.44C184.23 181.35 184.23 181.17 184.32 181.08C185.4 179.37 188.1 174.51 187.65 172.8C187.56 172.53 187.38 172.44 187.29 172.35C186.03 171.81 181.98 177.21 179.01 182.61C178.92 182.79 178.74 182.88 178.56 182.79C178.38 182.79 178.2 182.61 178.2 182.43C178.11 181.44 177.57 178.83 176.31 178.74C176.22 178.74 176.22 178.74 176.13 178.83C175.41 179.73 176.04 183.96 176.49 185.58V185.67C176.49 185.85 176.4 185.94 176.31 186.03L155.07 202.14C154.89 202.23 154.71 202.23 154.53 202.14L140.76 192.6L129.33 209.34Z" fill="#060405"/>
<path d="M113.488 174.42C113.488 174.42 121.678 176.76 129.598 181.35C136.078 185.13 146.518 194.58 146.518 194.58C146.608 198.72 134.098 216.36 132.658 215.64L116.098 204.12L113.488 174.42Z" fill="#FE6021"/>
<path d="M127.89 213.12C127.62 213.12 127.44 212.94 127.44 212.76L125.82 198.81C125.82 198.54 126 198.36 126.18 198.27C126.45 198.27 126.63 198.45 126.72 198.63L128.34 212.58C128.34 212.85 128.16 213.12 127.89 213.12Z" fill="#060405"/>
<path d="M101.61 163.44C101.61 163.44 101.52 170.01 105.57 173.25C106.92 176.4 103.05 188.37 85.4102 174.69C85.4102 174.69 86.7602 155.07 88.4702 151.56C90.1802 148.14 101.61 163.44 101.61 163.44Z" fill="white"/>
<path d="M99.1809 181.53C96.1209 181.53 91.6209 180.09 85.1409 175.05L84.9609 174.87V174.6C85.0509 173.79 86.3109 154.89 88.1109 151.29C88.3809 150.84 88.7409 150.57 89.1909 150.48H89.2809C92.4309 150.48 100.171 160.56 102.061 163.08C102.061 166.32 103.141 170.55 105.841 172.71L105.931 172.8V172.89C106.651 174.51 106.111 177.93 103.591 179.91C102.691 180.9 101.251 181.53 99.1809 181.53ZM85.8609 174.51C96.2109 182.43 101.071 180.99 103.051 179.37C105.301 177.66 105.571 174.69 105.121 173.52C101.341 170.46 101.161 164.61 101.071 163.53C97.4709 158.76 91.0809 151.29 89.1009 151.47C89.0109 151.47 88.8309 151.56 88.7409 151.74C87.3009 155.07 86.0409 172.26 85.8609 174.51Z" fill="#060405"/>
<path d="M87.0283 155.43C89.0983 160.38 98.8183 168.39 106.468 164.43C116.368 159.3 119.608 130.59 106.918 125.01C98.6383 121.41 82.9783 145.98 87.0283 155.43Z" fill="white"/>
<path d="M102.059 165.96C100.619 165.96 99.1794 165.69 97.6494 165.15C92.5194 163.35 88.1094 158.85 86.6694 155.61C83.8794 149.04 89.9994 135.72 97.1994 128.61C100.979 124.92 104.489 123.48 107.099 124.65C112.229 126.9 115.379 133.11 115.649 141.66C115.919 150.48 112.949 161.64 106.649 164.88C105.299 165.51 103.679 165.96 102.059 165.96ZM87.4794 155.25C88.7394 158.22 93.1494 162.54 97.9194 164.25C100.979 165.33 103.859 165.24 106.289 163.98C111.419 161.28 115.109 151.47 114.749 141.57C114.479 133.38 111.509 127.53 106.739 125.37C104.489 124.38 101.339 125.73 97.8294 129.15C90.9894 135.99 84.8694 149.13 87.4794 155.25Z" fill="#060405"/>
<path d="M87.5717 156.51C87.5717 156.51 88.2917 143.37 96.0317 140.76C103.772 138.15 105.662 133.29 105.662 129.69C105.302 131.31 114.482 135.9 115.202 144.09C115.202 144.09 120.242 135.72 113.672 125.91C109.082 119.16 102.872 119.61 102.872 119.61C102.872 119.61 91.7117 112.23 81.1817 124.65C72.1817 135.27 84.9617 153.99 87.5717 156.51Z" fill="#060405"/>
<path d="M99.7527 148.385C100.493 148.293 100.998 147.459 100.882 146.522C100.766 145.585 100.072 144.899 99.3319 144.991C98.592 145.083 98.0864 145.917 98.2026 146.854C98.3188 147.791 99.0128 148.477 99.7527 148.385Z" fill="#060405"/>
<path d="M109.202 146.856C109.942 146.764 110.448 145.93 110.331 144.993C110.215 144.055 109.521 143.37 108.781 143.462C108.041 143.554 107.536 144.388 107.652 145.325C107.768 146.262 108.462 146.948 109.202 146.856Z" fill="#060405"/>
<path d="M104.761 153.81L104.131 153.09C104.491 152.73 104.941 152.37 105.211 151.92C105.391 151.56 105.481 151.11 105.211 150.75C105.031 150.57 104.581 150.3 104.221 150.03C103.771 149.58 103.681 148.95 103.591 148.41L103.141 144.99L104.041 144.9L104.491 148.32C104.581 148.77 104.581 149.22 104.851 149.4C105.031 149.67 105.481 149.76 105.841 150.12C106.381 150.75 106.291 151.65 106.021 152.28C105.751 153 105.211 153.45 104.761 153.81ZM100.531 159.12L101.161 158.49C101.881 159.3 103.141 159.57 104.131 159.12L104.491 159.93C103.141 160.47 101.521 160.11 100.531 159.12Z" fill="#060405"/>
<path d="M334.44 364.32C331.38 365.4 325.89 365.76 322.56 358.65C319.23 351.45 323.19 338.85 317.43 333.18C317.43 333.18 324.27 333.36 330.39 339.39C336.51 345.42 344.34 360.9 334.44 364.32Z" fill="#008080"/>
<path d="M353.159 347.58C353.159 347.76 353.069 347.94 353.069 348.12C351.539 353.79 348.299 357.84 342.269 357.12C338.039 356.58 331.469 353.97 331.739 343.71C331.829 341.46 332.369 339.21 333.269 336.78C333.359 336.6 333.359 336.42 333.449 336.24C336.689 327.78 343.079 318.6 340.379 311.04C344.249 313.11 349.649 318.78 352.169 326.16C353.879 331.83 354.779 340.74 353.159 347.58Z" fill="#12A67C"/>
<path d="M342 341.1H342.9V375.48H342V341.1Z" fill="#060405"/>
<path d="M368.462 333.18C362.162 339.21 367.472 352.89 362.072 360.72C358.742 365.67 354.152 365.22 351.452 364.32C341.912 360.99 348.842 345.87 355.502 339.39C361.622 333.36 368.462 333.18 368.462 333.18Z" fill="#008080"/>
<path d="M344.594 376.64L356.291 352.906L357.099 353.304L345.401 377.038L344.594 376.64Z" fill="#060405"/>
<path d="M328.828 353.462L329.636 353.064L341.326 376.801L340.519 377.199L328.828 353.462Z" fill="#060405"/>
<path d="M364.948 343.62V344.16L362.428 345.42L362.158 344.97L364.948 343.62ZM362.338 360.27C362.248 360.45 362.158 360.54 362.068 360.72L360.988 359.37L361.348 359.01L362.338 360.27ZM353.158 347.58C353.158 347.76 353.068 347.94 353.068 348.12C352.618 347.76 351.808 347.22 350.368 346.14C350.458 345.96 350.548 345.87 350.638 345.69C351.538 346.41 352.528 347.13 353.158 347.58ZM349.018 395.64H338.398C337.768 395.64 337.228 395.19 337.138 394.56L332.818 376.02C332.728 375.21 333.268 374.49 334.078 374.49L353.428 374.58C354.238 374.58 354.868 375.3 354.688 376.11L350.278 394.65C350.278 395.19 349.648 395.64 349.018 395.64Z" fill="white"/>
<path d="M349.021 396.09H338.401C337.501 396.09 336.781 395.46 336.691 394.65L332.371 376.11C332.191 374.94 333.091 374.04 334.081 374.04L353.431 374.13C354.511 374.13 355.321 375.12 355.141 376.2L350.731 394.74C350.641 395.46 349.921 396.09 349.021 396.09ZM334.081 374.94C333.541 374.94 333.181 375.39 333.271 375.93L337.591 394.47C337.681 394.92 338.041 395.19 338.401 395.19H349.021C349.471 395.19 349.831 394.92 349.831 394.47L354.241 375.93C354.331 375.48 353.971 374.94 353.431 374.94H334.081Z" fill="#060405"/>
<path d="M258.209 313.65H222.389C222.209 313.65 222.029 313.47 222.029 313.29C222.029 313.11 222.209 312.93 222.389 312.93H258.209C258.389 312.93 258.569 313.11 258.569 313.29C258.569 313.47 258.389 313.65 258.209 313.65ZM258.209 331.38H222.389C222.209 331.38 222.029 331.2 222.029 331.02C222.029 330.84 222.209 330.66 222.389 330.66H258.209C258.389 330.66 258.569 330.84 258.569 331.02C258.569 331.2 258.389 331.38 258.209 331.38ZM251.639 322.56H200.969C200.789 322.56 200.609 322.38 200.609 322.2C200.609 322.02 200.789 321.84 200.969 321.84H251.639C251.819 321.84 251.999 322.02 251.999 322.2C251.999 322.38 251.909 322.56 251.639 322.56Z" fill="#25E498"/>
<path d="M229.77 313.65C229.59 313.65 229.41 313.47 229.41 313.29V305.73C229.41 305.55 229.59 305.37 229.77 305.37C229.95 305.37 230.13 305.55 230.13 305.73V313.29C230.04 313.47 229.95 313.65 229.77 313.65ZM242.37 322.56C242.19 322.56 242.01 322.38 242.01 322.2V313.29C242.01 313.11 242.19 312.93 242.37 312.93C242.55 312.93 242.73 313.11 242.73 313.29V322.2C242.64 322.38 242.55 322.56 242.37 322.56ZM232.74 331.11C232.56 331.11 232.38 330.93 232.38 330.75V322.2C232.38 322.02 232.56 321.84 232.74 321.84C232.92 321.84 233.1 322.02 233.1 322.2V330.75C233.1 330.93 232.92 331.11 232.74 331.11Z" fill="#25E498"/>
</svg>
