<svg width="540" height="450" viewBox="0 0 540 450" fill="none" xmlns="http://www.w3.org/2000/svg">
<path opacity="0.3" d="M63.7181 282.6C60.5681 303.21 50.1281 320.31 44.1881 339.66C38.2481 358.83 38.3381 384.84 51.1181 396.18H470.698C483.838 376.2 515.608 282.06 489.238 246.78C471.688 223.29 440.458 218.07 431.278 187.11C424.708 164.97 435.148 140.13 433.528 116.37C431.728 89.19 413.548 67.59 393.748 61.56C373.858 55.53 352.978 62.28 334.348 73.17C315.628 83.97 194.938 87.3 121.678 56.34C101.518 47.79 77.5781 58.95 61.6481 78.3C45.7181 97.65 37.3481 127.62 39.7781 156.33C43.4681 199.98 70.2881 239.49 63.7181 282.6Z" fill="#86E9DC"/>
<path d="M135 61.8299V122.85C135 126.72 131.85 129.78 128.07 129.78H47.1605C43.2905 129.78 40.2305 126.72 40.2305 122.85V61.8299C40.2305 57.9599 43.3805 54.8999 47.1605 54.8999H127.98C131.85 54.8999 135 57.9599 135 61.8299Z" fill="#FFCCCC"/>
<path d="M50.2219 63.9C51.216 63.9 52.0219 63.0942 52.0219 62.1C52.0219 61.1059 51.216 60.3 50.2219 60.3C49.2278 60.3 48.4219 61.1059 48.4219 62.1C48.4219 63.0942 49.2278 63.9 50.2219 63.9Z" fill="white"/>
<path d="M55.8 63.9C56.7941 63.9 57.6 63.0942 57.6 62.1C57.6 61.1059 56.7941 60.3 55.8 60.3C54.8059 60.3 54 61.1059 54 62.1C54 63.0942 54.8059 63.9 55.8 63.9Z" fill="white"/>
<path d="M61.4719 63.9C62.466 63.9 63.2719 63.0942 63.2719 62.1C63.2719 61.1059 62.466 60.3 61.4719 60.3C60.4778 60.3 59.6719 61.1059 59.6719 62.1C59.6719 63.0942 60.4778 63.9 61.4719 63.9Z" fill="white"/>
<path d="M80.8191 72.72H70.6491C70.2891 72.72 69.9291 72.36 69.9291 72C69.9291 71.64 70.2891 71.28 70.6491 71.28H80.7291C81.0891 71.28 81.4491 71.64 81.4491 72C81.5391 72.36 81.1791 72.72 80.8191 72.72ZM66.1491 72.72H53.0091C52.6491 72.72 52.2891 72.36 52.2891 72C52.2891 71.64 52.6491 71.28 53.0091 71.28H66.1491C66.5091 71.28 66.8691 71.64 66.8691 72C66.8691 72.36 66.5091 72.72 66.1491 72.72ZM102.059 78.57H92.5191C92.1591 78.57 91.7991 78.21 91.7991 77.85C91.7991 77.49 92.1591 77.13 92.5191 77.13H102.059C102.419 77.13 102.779 77.49 102.779 77.85C102.779 78.21 102.509 78.57 102.059 78.57ZM88.4691 78.57H78.1191C77.7591 78.57 77.3991 78.21 77.3991 77.85C77.3991 77.49 77.7591 77.13 78.1191 77.13H88.4691C88.8291 77.13 89.1891 77.49 89.1891 77.85C89.1891 78.21 88.9191 78.57 88.4691 78.57ZM73.9791 78.57H58.0491C57.6891 78.57 57.3291 78.21 57.3291 77.85C57.3291 77.49 57.6891 77.13 58.0491 77.13H73.9791C74.3391 77.13 74.6991 77.49 74.6991 77.85C74.6991 78.21 74.4291 78.57 73.9791 78.57ZM119.969 84.42H100.889C100.529 84.42 100.169 84.06 100.169 83.7C100.169 83.34 100.529 82.98 100.889 82.98H119.969C120.329 82.98 120.689 83.34 120.689 83.7C120.689 84.15 120.329 84.42 119.969 84.42ZM97.5591 84.42H84.6891C84.3291 84.42 83.9691 84.06 83.9691 83.7C83.9691 83.34 84.3291 82.98 84.6891 82.98H97.6491C98.0091 82.98 98.3691 83.34 98.3691 83.7C98.2791 84.15 98.0091 84.42 97.5591 84.42ZM79.9191 84.42H58.0491C57.6891 84.42 57.3291 84.06 57.3291 83.7C57.3291 83.34 57.6891 82.98 58.0491 82.98H79.9191C80.2791 82.98 80.6391 83.34 80.6391 83.7C80.6391 84.15 80.3691 84.42 79.9191 84.42ZM97.2891 90.36H58.0491C57.6891 90.36 57.3291 90 57.3291 89.64C57.3291 89.28 57.6891 88.92 58.0491 88.92H97.2891C97.6491 88.92 98.0091 89.28 98.0091 89.64C98.0091 90 97.7391 90.36 97.2891 90.36ZM119.969 96.21H98.4591C98.0991 96.21 97.7391 95.85 97.7391 95.49C97.7391 95.13 98.0991 94.77 98.4591 94.77H119.969C120.329 94.77 120.689 95.13 120.689 95.49C120.689 95.85 120.329 96.21 119.969 96.21ZM91.8891 96.21H79.9191C79.5591 96.21 79.1991 95.85 79.1991 95.49C79.1991 95.13 79.5591 94.77 79.9191 94.77H91.7991C92.1591 94.77 92.5191 95.13 92.5191 95.49C92.5191 95.85 92.2491 96.21 91.8891 96.21ZM76.2291 96.21H58.0491C57.6891 96.21 57.3291 95.85 57.3291 95.49C57.3291 95.13 57.6891 94.77 58.0491 94.77H76.2291C76.5891 94.77 76.9491 95.13 76.9491 95.49C76.9491 95.85 76.6791 96.21 76.2291 96.21ZM92.8791 102.15H85.1391C84.7791 102.15 84.4191 101.79 84.4191 101.43C84.4191 101.07 84.7791 100.71 85.1391 100.71H92.8791C93.2391 100.71 93.5991 101.07 93.5991 101.43C93.5991 101.79 93.2391 102.15 92.8791 102.15ZM81.1791 102.15H58.0491C57.6891 102.15 57.3291 101.79 57.3291 101.43C57.3291 101.07 57.6891 100.71 58.0491 100.71H81.1791C81.5391 100.71 81.8991 101.07 81.8991 101.43C81.8991 101.79 81.6291 102.15 81.1791 102.15ZM84.6891 108H71.7291C71.3691 108 71.0091 107.64 71.0091 107.28C71.0091 106.92 71.3691 106.56 71.7291 106.56H84.6891C85.0491 106.56 85.4091 106.92 85.4091 107.28C85.4091 107.64 85.0491 108 84.6891 108ZM68.0391 108H53.0091C52.6491 108 52.2891 107.64 52.2891 107.28C52.2891 106.92 52.6491 106.56 53.0091 106.56H68.0391C68.3991 106.56 68.7591 106.92 68.7591 107.28C68.7591 107.64 68.3991 108 68.0391 108ZM103.139 113.85H87.8391C87.4791 113.85 87.1191 113.49 87.1191 113.13C87.1191 112.77 87.4791 112.41 87.8391 112.41H103.139C103.499 112.41 103.859 112.77 103.859 113.13C103.859 113.58 103.589 113.85 103.139 113.85ZM83.3391 113.85H57.5991C57.2391 113.85 56.8791 113.49 56.8791 113.13C56.8791 112.77 57.2391 112.41 57.5991 112.41H83.3391C83.6991 112.41 84.0591 112.77 84.0591 113.13C84.0591 113.58 83.6991 113.85 83.3391 113.85ZM99.0891 119.79H76.7691C76.4091 119.79 76.0491 119.43 76.0491 119.07C76.0491 118.71 76.4091 118.35 76.7691 118.35H99.1791C99.5391 118.35 99.8991 118.71 99.8991 119.07C99.8991 119.43 99.5391 119.79 99.0891 119.79ZM71.9991 119.79H57.5991C57.2391 119.79 56.8791 119.43 56.8791 119.07C56.8791 118.71 57.2391 118.35 57.5991 118.35H71.9991C72.3591 118.35 72.7191 118.71 72.7191 119.07C72.7191 119.43 72.3591 119.79 71.9991 119.79Z" fill="white"/>
<path d="M303.751 77.76C303.661 240.21 303.931 230.22 303.571 231.84C302.851 235.35 299.701 238.05 296.011 238.05H112.951C108.631 238.05 105.211 234.54 105.211 230.31V77.76C105.211 73.44 108.631 70.02 112.951 70.02H296.011C300.241 70.02 303.751 73.44 303.751 77.76Z" fill="white"/>
<path opacity="0.08" d="M215.641 114.3C215.641 117.81 217.081 120.96 219.331 123.21C221.581 125.46 224.731 126.9 228.241 126.9C231.031 126.9 233.551 126 235.621 124.47H303.931V103.95H235.621C233.551 102.42 230.941 101.52 228.241 101.52C224.731 101.52 221.581 102.96 219.331 105.21C217.081 107.64 215.641 110.79 215.641 114.3Z" fill="black"/>
<path d="M303.751 85.59V77.76C303.751 73.44 300.241 70.02 296.011 70.02H112.951C108.631 70.02 105.211 73.53 105.211 77.76V85.59H303.751Z" fill="#060405"/>
<path d="M116.371 78.8399C116.371 80.0099 115.381 80.9999 114.211 80.9999C113.041 80.9999 112.051 80.0099 112.051 78.8399C112.051 77.6699 113.041 76.6799 114.211 76.6799C115.381 76.6799 116.371 77.6699 116.371 78.8399ZM122.491 78.8399C122.491 80.0099 121.501 80.9999 120.331 80.9999C119.161 80.9999 118.171 80.0099 118.171 78.8399C118.171 77.6699 119.161 76.6799 120.331 76.6799C121.501 76.6799 122.491 77.6699 122.491 78.8399ZM128.521 78.8399C128.521 80.0099 127.531 80.9999 126.361 80.9999C125.191 80.9999 124.201 80.0099 124.201 78.8399C124.201 77.6699 125.191 76.6799 126.361 76.6799C127.531 76.6799 128.521 77.6699 128.521 78.8399Z" fill="white"/>
<path d="M233.281 101.61H314.461C320.131 101.61 324.721 106.2 324.721 111.87C324.721 117.54 320.131 122.13 314.461 122.13H233.281V101.61Z" fill="#25E498"/>
<path d="M217.891 111.87C217.891 115.38 219.331 118.53 221.581 120.78C223.831 123.03 226.981 124.47 230.491 124.47C237.511 124.47 243.181 118.8 243.181 111.78C243.181 108.27 241.741 105.12 239.491 102.87C237.241 100.62 234.001 99.1799 230.581 99.1799C227.071 99.1799 223.921 100.62 221.671 102.87C219.331 105.21 217.891 108.36 217.891 111.87Z" fill="#060405"/>
<path d="M225.9 114.66C223.83 112.59 223.83 109.26 225.9 107.28C227.97 105.21 231.3 105.21 233.28 107.28C235.35 109.35 235.35 112.68 233.28 114.66C231.3 116.64 227.97 116.64 225.9 114.66ZM227.79 109.08C226.8 110.07 226.8 111.69 227.79 112.68C228.78 113.67 230.4 113.67 231.39 112.68C232.38 111.69 232.38 110.07 231.39 109.08C230.4 108.09 228.78 108.09 227.79 109.08Z" fill="white"/>
<path d="M236.429 117.72C236.969 117.18 236.969 116.37 236.429 115.83L233.279 112.68C232.739 112.14 231.929 112.14 231.389 112.68C230.849 113.22 230.849 114.03 231.389 114.57L234.539 117.72C235.079 118.26 235.889 118.26 236.429 117.72Z" fill="white"/>
<path d="M201.509 171.99H124.379C120.779 171.99 117.809 169.02 117.809 165.42V102.87C117.809 99.2701 120.779 96.3 124.379 96.3H201.509C205.109 96.3 208.079 99.2701 208.079 102.87V165.42C208.079 169.02 205.109 171.99 201.509 171.99Z" fill="#F6CC61"/>
<path d="M469.621 314.91C469.621 315.45 492.661 396.18 492.661 396.18L469.621 314.91Z" fill="white"/>
<path d="M492.028 396.36C481.498 359.46 468.988 315.36 468.988 314.91H470.338H469.618L470.248 314.82C470.518 316.17 485.458 368.55 493.288 396L492.028 396.36Z" fill="#060405"/>
<path d="M442.169 314.91C442.169 315.45 419.129 396.18 419.129 396.18L442.169 314.91Z" fill="white"/>
<path d="M419.76 396.36L418.5 396C426.33 368.46 441.27 316.08 441.54 314.82L442.08 314.91H442.89C442.89 315.36 430.29 359.46 419.76 396.36Z" fill="#060405"/>
<path d="M499.68 242.19C500.58 237.78 502.11 226.62 487.08 229.32C478.08 230.94 463.32 248.49 463.32 248.49H458.55L432.27 298.53V317.7" fill="white"/>
<path d="M385.021 380.61V377.28H404.731C405.001 383.67 405.541 395.73 405.631 395.73H373.501C372.511 385.29 385.021 380.61 385.021 380.61Z" fill="#9F28EE"/>
<path d="M374.039 391.23C373.589 392.58 373.409 394.11 373.589 395.82H405.718C405.628 395.82 405.539 393.93 405.449 391.23H374.039Z" fill="#060405"/>
<path d="M336.422 380.61V377.28H356.132C356.402 383.67 356.942 395.73 357.032 395.73H324.902C323.822 385.29 336.422 380.61 336.422 380.61Z" fill="#9F28EE"/>
<path d="M325.351 391.23C324.901 392.58 324.721 394.11 324.901 395.82H357.031C356.941 395.82 356.851 393.93 356.761 391.23H325.351ZM416.161 272.7C416.161 272.7 373.951 277.92 366.121 284.85C346.501 302.22 333.541 380.52 333.541 380.52C333.541 381.51 356.941 381.51 356.941 380.52L394.921 301.32L454.681 309.87L445.591 265.14" fill="#060405"/>
<path d="M475.29 279.9L467.73 317.61H417.15L405.181 379.17C405.181 380.25 384.75 380.07 384.75 378.99C384.75 378.99 373.5 303.03 388.44 284.76C400.86 269.55 457.74 272.61 457.74 272.61L475.29 279.9Z" fill="#060405"/>
<path d="M432.27 317.7H476.1C478.62 317.7 480.87 315.99 481.41 313.56L499.59 242.19" fill="white"/>
<path d="M432.72 317.7H431.82V298.35L431.91 298.26L458.28 247.95H463.14C464.76 246.06 478.26 230.4 486.99 228.78C491.4 227.97 494.73 228.33 497.07 229.77L496.62 230.49C494.55 229.14 491.31 228.87 487.17 229.59C478.44 231.12 463.86 248.4 463.68 248.58L463.59 248.76H458.82L432.72 298.44V317.7Z" fill="#060405"/>
<path d="M407.702 223.38L397.892 242.19L332.012 255.96L336.062 271.71L413.912 270.27L425.882 250.74L423.992 231.84" fill="white"/>
<path d="M335.699 272.16L331.469 255.6L397.619 241.74L407.339 223.2L408.149 223.65L398.159 242.55L397.979 242.64L332.549 256.32L336.419 271.26L413.639 269.82L425.429 250.65L423.539 231.84L424.439 231.75L426.419 250.83L414.179 270.72L335.699 272.16Z" fill="#060405"/>
<path d="M415.982 205.92L401.762 223.38L415.892 231.84L415.982 205.92Z" fill="#9F28EE"/>
<path d="M489.511 206.73C487.441 200.25 465.751 187.2 465.751 187.2L443.701 186.57C443.701 186.57 421.741 197.37 416.071 205.74C413.281 209.97 406.801 279.9 406.801 279.9H475.291C475.291 279.9 492.391 215.82 489.511 206.73Z" fill="#9F28EE"/>
<path d="M444.329 177.48C444.329 177.48 445.769 182.7 443.609 186.66C441.989 189.63 442.619 194.76 446.759 195.84C453.419 197.64 465.209 187.2 465.209 187.2L459.719 157.95L444.329 177.48Z" fill="white"/>
<path d="M446.581 196.29C444.871 195.84 443.611 194.67 442.891 193.05C441.991 191.07 442.171 188.37 443.251 186.48C445.321 182.79 443.971 177.66 443.971 177.66L443.881 177.48L444.061 177.3L460.081 156.96L465.751 187.47L465.571 187.65C461.251 191.25 452.161 197.73 446.581 196.29ZM444.781 177.66C445.051 178.74 445.951 183.33 443.971 186.93C443.071 188.55 442.891 190.89 443.701 192.69C444.151 193.68 445.051 194.94 446.851 195.48C452.791 197.01 463.141 188.37 464.671 187.11L459.451 159.12L444.781 177.66ZM438.481 154.71C433.081 155.25 433.531 142.83 433.441 142.65V140.58C433.441 140.58 438.121 137.88 438.661 137.79C439.111 137.7 446.221 141.03 446.311 141.03C446.401 141.12 443.881 154.17 438.481 154.71Z" fill="#060405"/>
<path d="M462.601 155.25C463.591 167.94 454.141 182.7 441.811 180.72C427.591 178.47 435.781 144.9 442.531 138.78C449.281 132.66 461.881 139.32 461.881 139.32L465.481 149.85L462.601 155.25Z" fill="white"/>
<path d="M444.06 181.35C443.25 181.35 442.53 181.26 441.72 181.17C438.12 180.63 435.69 178.11 434.43 173.88C431.19 162.99 437.22 143.01 442.26 138.42C449.19 132.21 461.61 138.69 462.15 138.96L462.33 139.05L466.02 149.94L462.96 155.43C463.5 163.17 460.17 171.81 454.68 176.94C451.53 179.82 447.93 181.35 444.06 181.35ZM450.09 136.62C447.48 136.62 444.87 137.25 442.89 139.05C438.03 143.46 432.18 162.9 435.33 173.61C436.5 177.48 438.66 179.73 441.9 180.27C447.39 181.17 451.62 178.56 454.14 176.22C459.54 171.27 462.69 162.9 462.15 155.34V155.25L465.12 149.94L461.61 139.77C460.62 139.14 455.31 136.62 450.09 136.62Z" fill="#060405"/>
<path d="M462.15 173.7C462.15 173.7 482.22 144 469.98 139.95C465.75 124.56 447.57 126.9 443.61 121.05C443.61 121.05 433.98 124.47 438.93 133.29C438.93 133.29 434.7 134.55 431.37 130.14C431.37 130.14 429.39 135.09 431.82 140.31C436.32 149.85 460.17 151.47 462.33 152.37C460.26 158.04 460.89 167.94 460.89 167.94L462.15 173.7Z" fill="#060405"/>
<path d="M432.27 317.7C432.27 317.7 434.61 294.93 442.98 287.19C455.31 275.67 476.37 276.3 482.13 269.01C485.91 263.7 487.71 257.31 490.77 245.43L495.54 255.42C495.54 255.42 483.21 286.2 482.94 286.74C482.67 287.28 455.04 311.85 455.04 311.85L432.27 317.7Z" fill="white"/>
<path d="M432.72 317.7L431.82 317.61C431.91 316.71 434.34 294.57 442.62 286.83C449.37 280.53 458.64 277.83 466.74 275.49C473.4 273.6 479.16 271.89 481.68 268.65C484.74 264.42 486.45 259.2 488.52 251.82L489.42 252.09C487.35 259.65 485.55 264.87 482.4 269.28C479.7 272.7 473.76 274.41 467.01 276.39C459 278.73 449.82 281.34 443.25 287.46C435.15 295.02 432.72 317.52 432.72 317.7Z" fill="#060405"/>
<path d="M476.1 318.15H432.27V317.25H476.1C478.44 317.25 480.42 315.72 481.05 313.47L499.23 242.1C500.4 236.34 499.5 232.47 496.62 230.58L497.07 229.86C500.4 231.93 501.39 236.07 500.13 242.28L481.95 313.65C481.23 316.26 478.8 318.15 476.1 318.15Z" fill="#060405"/>
<path d="M296.82 274.68H356.58V282.42H296.82V274.68Z" fill="white"/>
<path d="M357.031 282.96H296.371V274.32H357.031V282.96ZM297.271 282.06H356.131V275.22H297.271V282.06Z" fill="#060405"/>
<path d="M356.578 274.68H482.668V282.42H356.578V274.68Z" fill="#FFCCCC"/>
<path d="M483.119 282.96H356.129V274.32H483.119V282.96ZM357.029 282.06H482.219V275.22H357.029V282.06Z" fill="#060405"/>
<path d="M412.059 229.034L413.493 215.882L414.387 215.98L412.953 229.132L412.059 229.034Z" fill="#060405"/>
<path d="M449.551 282.51L470.881 396.18L449.551 282.51Z" fill="white"/>
<path d="M448.926 282.619L450.253 282.371L471.521 396.048L470.194 396.296L448.926 282.619Z" fill="#060405"/>
<path d="M324.81 282.51L303.57 396.18L324.81 282.51Z" fill="white"/>
<path d="M302.957 396.015L324.191 282.331L325.518 282.579L304.284 396.263L302.957 396.015Z" fill="#060405"/>
<path d="M451.731 154.801C451.813 154.01 451.439 153.323 450.895 153.266C450.351 153.21 449.844 153.806 449.762 154.597C449.68 155.388 450.054 156.075 450.598 156.131C451.142 156.187 451.649 155.592 451.731 154.801Z" fill="#060405"/>
<path d="M442.286 154.148C442.368 153.357 441.993 152.67 441.449 152.614C440.905 152.558 440.398 153.153 440.316 153.944C440.234 154.735 440.609 155.422 441.153 155.479C441.697 155.535 442.204 154.939 442.286 154.148Z" fill="#060405"/>
<path d="M445.408 163.35C445.318 163.26 445.228 163.17 444.508 163.08C443.788 162.9 443.338 162.54 443.338 162C443.248 161.37 443.788 160.92 444.058 160.65C445.408 159.39 446.038 157.5 445.768 155.79L446.668 155.61C447.028 157.68 446.218 159.93 444.688 161.28C444.508 161.46 444.238 161.73 444.238 161.91C444.238 162 444.508 162.18 444.778 162.27C445.228 162.36 445.768 162.45 446.128 162.72L445.408 163.35ZM445.318 170.46L445.678 169.65C446.218 169.92 446.938 169.92 447.478 169.74C448.018 169.56 448.558 169.11 448.828 168.57L449.638 168.93C449.278 169.74 448.648 170.28 447.838 170.64C447.028 170.82 446.128 170.82 445.318 170.46Z" fill="#060405"/>
<path d="M493.472 229.77L478.802 270.09C477.812 272.79 475.022 274.41 472.232 273.87L412.832 263.43C412.832 263.43 397.802 269.1 394.202 259.65C390.602 250.2 408.152 252.54 408.152 252.54C408.152 252.54 406.712 249.57 407.522 247.77C408.332 245.97 412.472 252.54 412.472 252.54L461.162 250.29L473.402 221.58L493.472 229.77Z" fill="white"/>
<path d="M473.22 274.41C472.86 274.41 472.5 274.41 472.14 274.32L412.92 263.88C411.48 264.42 397.44 269.1 393.84 259.83C393.03 257.76 393.12 256.05 394.2 254.7C396.9 251.28 405 251.73 407.52 252C407.16 250.92 406.53 249.03 407.16 247.59C407.34 247.14 407.7 247.05 407.88 247.05C409.23 246.96 411.57 250.38 412.74 252.09L460.89 249.84L473.22 220.95L494.01 229.59L479.16 270.36C478.26 272.79 475.83 274.41 473.22 274.41ZM412.83 262.98L472.32 273.51C474.93 273.96 477.45 272.52 478.35 270L492.93 230.04L473.76 222.03L461.52 250.65L412.2 252.9L412.02 252.72C410.4 250.11 408.42 247.86 407.88 247.86C407.34 249.21 408.15 251.55 408.51 252.27L408.87 252.99L408.06 252.9C407.97 252.9 397.62 251.55 394.74 255.15C393.93 256.23 393.84 257.67 394.47 259.38C397.89 268.29 412.38 262.98 412.56 262.89L412.83 262.98Z" fill="#060405"/>
<path d="M488.789 205.56C488.789 205.56 493.199 211.86 494.009 214.29C496.529 221.4 494.369 243.63 494.369 243.63L463.859 238.59L469.259 225" fill="#9F28EE"/>
<path d="M494.28 243.45L463.23 238.32L467.46 228.69L468.27 229.05L464.49 237.6L494.46 242.55L494.28 243.45Z" fill="#060405"/>
<path d="M384.93 268.65H316.53C314.28 268.65 312.21 267.3 311.31 265.05L299.79 232.11C298.44 228.51 301.14 224.55 305.01 224.55H365.31C367.65 224.55 369.72 225.99 370.53 228.15L384.93 268.65Z" fill="white"/>
<path d="M385.56 269.1H316.53C314.1 269.1 311.85 267.57 310.95 265.23L299.43 232.29C297.99 228.42 300.78 224.19 305.01 224.19H365.31C367.83 224.19 370.08 225.72 370.89 228.06L385.56 269.1ZM305.01 225C301.41 225 298.98 228.6 300.24 231.93L311.76 264.87C312.48 266.85 314.46 268.11 316.53 268.11H384.3L370.17 228.24C369.45 226.26 367.47 224.91 365.4 224.91H305.01V225Z" fill="#060405"/>
<path d="M360.719 227.61C362.789 227.61 364.589 228.87 365.399 230.85L376.289 261.54" fill="white"/>
<path d="M375.748 261.63L364.858 230.94C364.228 229.23 362.518 228.06 360.628 228.06V227.16C362.878 227.16 364.858 228.6 365.668 230.67L376.558 261.36L375.748 261.63ZM416.158 271.62V272.7C416.158 273.78 415.258 274.77 414.088 274.77H319.048C317.338 274.77 315.988 273.42 315.988 271.71C315.988 270.9 316.348 270.09 316.888 269.55C317.428 269.01 318.238 268.65 319.048 268.65H413.188C414.808 268.65 416.158 270 416.158 271.62Z" fill="#060405"/>
<path d="M340.835 253.128C342.455 252.157 342.587 249.4 341.129 246.97C339.672 244.54 337.178 243.358 335.558 244.329C333.938 245.301 333.806 248.058 335.263 250.488C336.721 252.918 339.215 254.1 340.835 253.128Z" fill="#FFCCCC"/>
<path d="M444.691 174.6L444.781 173.7C448.471 174.15 451.081 174.06 452.071 173.52C454.771 172.17 459.451 163.26 459.451 163.17L460.261 163.62C460.081 163.98 455.491 172.89 452.431 174.33C450.811 175.23 446.581 174.78 444.691 174.6Z" fill="#060405"/>
<path d="M460.71 165.15C464.14 165.15 466.92 162.37 466.92 158.94C466.92 155.51 464.14 152.73 460.71 152.73C457.28 152.73 454.5 155.51 454.5 158.94C454.5 162.37 457.28 165.15 460.71 165.15Z" fill="white"/>
<path d="M460.711 165.6C457.021 165.6 454.051 162.63 454.051 158.94C454.051 155.25 457.021 152.28 460.711 152.28C464.401 152.28 467.371 155.25 467.371 158.94C467.371 162.63 464.401 165.6 460.711 165.6ZM460.711 153.09C457.561 153.09 454.951 155.7 454.951 158.85C454.951 162 457.561 164.61 460.711 164.61C463.861 164.61 466.471 162 466.471 158.85C466.471 155.7 463.861 153.09 460.711 153.09Z" fill="#060405"/>
<path d="M460.712 161.73C462.253 161.73 463.502 160.481 463.502 158.94C463.502 157.399 462.253 156.15 460.712 156.15C459.171 156.15 457.922 157.399 457.922 158.94C457.922 160.481 459.171 161.73 460.712 161.73Z" fill="#FFCCCC"/>
<path d="M444.511 175.59C445.405 175.59 446.131 174.865 446.131 173.97C446.131 173.075 445.405 172.35 444.511 172.35C443.616 172.35 442.891 173.075 442.891 173.97C442.891 174.865 443.616 175.59 444.511 175.59Z" fill="#060405"/>
<path d="M186.841 140.04C186.211 142.47 185.311 144.72 184.051 146.79L187.561 152.91L181.711 158.76L175.591 155.25C173.521 156.51 171.271 157.5 168.841 158.04L167.041 164.79H158.761L156.961 158.04C154.531 157.41 152.281 156.51 150.211 155.25L144.091 158.76L138.241 152.91L141.751 146.79C140.491 144.72 139.501 142.47 138.961 140.04L132.211 138.24V129.96L138.961 128.16C139.591 125.73 140.491 123.48 141.751 121.41L138.241 115.29L144.091 109.44L150.211 112.95C152.281 111.69 154.531 110.7 156.961 110.16L158.761 103.41H167.041L168.841 110.16C171.271 110.79 173.521 111.69 175.591 112.95L181.711 109.44L187.561 115.29L184.051 121.41C185.311 123.48 186.211 125.73 186.841 128.16L193.591 129.96V138.24L186.841 140.04Z" fill="white"/>
<path d="M162.901 148.95C171.102 148.95 177.751 142.301 177.751 134.1C177.751 125.899 171.102 119.25 162.901 119.25C154.699 119.25 148.051 125.899 148.051 134.1C148.051 142.301 154.699 148.95 162.901 148.95Z" fill="#F6CC61"/>
<path opacity="0.05" d="M304.021 139.41V188.46H222.481C219.781 188.46 217.711 186.3 217.711 183.69V144.27C217.711 141.66 219.871 139.5 222.481 139.5H304.021V139.41Z" fill="#060405"/>
<path d="M311.762 186.21H224.282C221.582 186.21 219.422 184.05 219.422 181.35V141.93C219.422 139.23 221.582 137.07 224.282 137.07H311.762C314.462 137.07 316.622 139.23 316.622 141.93V181.35C316.622 184.05 314.462 186.21 311.762 186.21Z" fill="#F81F8B"/>
<path d="M263.428 175.32H231.118C229.588 175.32 228.328 174.06 228.328 172.53V150.75C228.328 149.22 229.588 147.96 231.118 147.96H263.428C264.958 147.96 266.218 149.22 266.218 150.75V172.53C266.128 174.06 264.958 175.32 263.428 175.32ZM231.028 149.85C230.488 149.85 230.038 150.3 230.038 150.84V172.62C230.038 173.16 230.488 173.61 231.028 173.61H263.338C263.878 173.61 264.328 173.16 264.328 172.62V150.84C264.328 150.3 263.878 149.85 263.338 149.85H231.028Z" fill="white"/>
<path d="M245.159 164.07L229.499 150.39C229.139 150.03 229.049 149.49 229.409 149.13C229.769 148.77 230.309 148.68 230.669 149.04L246.419 162.81C246.869 163.26 247.679 163.26 248.129 162.81L263.879 149.04C264.239 148.68 264.779 148.77 265.139 149.13C265.499 149.49 265.409 150.03 265.049 150.39L249.299 164.16C248.129 165.15 246.329 165.15 245.159 164.07Z" fill="white"/>
<path d="M260.279 169.2L251.819 160.65C251.459 160.29 251.459 159.75 251.819 159.39C252.179 159.03 252.719 159.03 253.079 159.39L261.539 167.94C261.899 168.3 261.899 168.84 261.539 169.2C261.269 169.56 260.639 169.56 260.279 169.2ZM232.829 169.29C232.469 168.93 232.469 168.39 232.829 168.03L241.289 159.48C241.649 159.12 242.189 159.12 242.549 159.48C242.909 159.84 242.909 160.38 242.549 160.74L234.089 169.29C233.819 169.56 233.189 169.56 232.829 169.29ZM274.049 151.83H310.229V157.77H274.049V151.83ZM293.129 161.64H304.649V163.26H293.129V161.64ZM306.899 161.64H310.229V163.26H306.899V161.64ZM274.049 161.64H288.809V163.26H274.049V161.64ZM274.049 165.78H282.869V167.4H274.049V165.78ZM286.559 165.78H300.059V167.4H286.559V165.78ZM302.849 165.78H310.319V167.4H302.849V165.78ZM274.049 169.83H283.859V171.45H274.049V169.83Z" fill="white"/>
<path d="M150.749 222.12H123.299C120.239 222.12 117.719 219.6 117.719 216.54V191.7C117.719 188.64 120.239 186.12 123.299 186.12H150.839C153.899 186.12 156.419 188.64 156.419 191.7V216.54C156.329 219.6 153.809 222.12 150.749 222.12Z" fill="#25E498"/>
<path d="M168.66 195.03H286.65V198.72H168.66V195.03ZM168.66 204.12H286.65V207.81H168.66V204.12ZM168.66 213.3H200.88V216.99H168.66V213.3ZM219.6 213.3H238.14V216.99H219.6V213.3Z" fill="#FFC2C2"/>
<path d="M354.779 145.71C361.979 148.05 369.449 146.79 375.389 143.01L371.699 138.06C371.789 137.97 373.499 136.71 373.409 136.8L377.099 141.84L385.649 153.36L387.269 152.1L378.629 140.49C381.689 137.7 384.029 134.1 385.379 129.96C389.519 117.09 382.409 103.41 369.539 99.27C356.669 95.13 342.989 102.24 338.849 115.11C334.889 127.89 341.909 141.66 354.779 145.71Z" fill="#060405"/>
<path d="M349.921 125.28C350.731 124.74 351.361 124.29 351.811 123.93C352.351 123.48 352.801 123.03 353.161 122.49C353.521 121.95 353.791 121.32 353.791 120.6C353.791 119.88 353.611 119.34 353.251 118.8C352.891 118.26 352.441 117.9 351.811 117.63C351.271 117.36 350.551 117.18 349.921 117.18C348.661 117.18 347.491 117.45 346.411 117.99C346.051 118.17 345.871 118.53 345.871 118.89C345.871 119.16 345.961 119.43 346.141 119.61C346.411 119.88 346.861 119.97 347.221 119.79C348.031 119.43 348.841 119.25 349.651 119.25C350.371 119.25 350.911 119.43 351.271 119.7C351.541 119.97 351.721 120.33 351.721 120.78C351.721 121.05 351.631 121.32 351.451 121.59C351.271 121.86 350.911 122.13 350.641 122.4C350.281 122.67 349.831 123.03 349.201 123.39C348.481 123.84 347.851 124.29 347.401 124.65C346.951 125.01 346.501 125.46 346.231 125.91C345.871 126.45 345.691 126.99 345.691 127.62C345.691 127.98 345.781 128.25 346.051 128.43C346.231 128.61 346.591 128.79 346.861 128.79H352.711C352.981 128.79 353.251 128.7 353.431 128.52C353.611 128.34 353.701 128.07 353.701 127.8C353.701 127.53 353.611 127.26 353.431 127.08C353.251 126.9 352.981 126.81 352.711 126.81H348.121L348.391 126.54C348.661 126.09 349.201 125.73 349.921 125.28ZM362.881 124.02H362.071V118.53C362.071 118.17 361.981 117.9 361.711 117.63C361.441 117.36 361.171 117.27 360.811 117.27H360.541C360.361 117.27 360.091 117.36 359.911 117.45C359.731 117.54 359.551 117.63 359.461 117.81L354.691 123.93C354.511 124.11 354.421 124.38 354.421 124.74V124.92C354.421 125.28 354.511 125.55 354.781 125.82C355.051 126.09 355.321 126.18 355.681 126.18H359.911V127.89C359.911 128.16 360.001 128.43 360.181 128.61C360.361 128.79 360.631 128.88 360.901 128.88C361.171 128.88 361.441 128.79 361.621 128.61C361.801 128.43 361.981 128.16 361.981 127.89V126.18H362.791C363.061 126.18 363.331 126.09 363.511 125.91C363.691 125.73 363.781 125.46 363.781 125.19C363.781 124.92 363.691 124.65 363.511 124.47C363.421 124.11 363.151 124.02 362.881 124.02ZM360.001 120.24V124.02H357.121L360.001 120.24ZM368.821 116.46C368.641 116.55 368.551 116.73 368.461 116.91L364.411 128.7C364.411 128.79 364.321 128.97 364.321 129.06C364.321 129.33 364.411 129.6 364.591 129.78C364.771 129.96 365.041 130.05 365.311 130.05C365.581 130.05 365.761 129.96 365.941 129.87C366.121 129.78 366.211 129.6 366.301 129.42L370.351 117.63C370.351 117.54 370.441 117.36 370.441 117.27C370.441 117 370.351 116.73 370.171 116.55C369.811 116.19 369.181 116.19 368.821 116.46ZM379.531 117.63C379.261 117.45 378.991 117.27 378.631 117.27H372.421C372.151 117.27 371.881 117.36 371.701 117.54C371.521 117.72 371.431 117.99 371.431 118.26C371.431 118.53 371.521 118.8 371.701 118.98C371.881 119.16 372.151 119.25 372.421 119.25H377.371L373.501 126.99C373.411 127.17 373.411 127.35 373.411 127.53C373.411 127.8 373.501 128.07 373.681 128.25C373.861 128.43 374.131 128.52 374.401 128.52C374.581 128.52 374.761 128.43 374.941 128.34C375.121 128.25 375.301 128.07 375.391 127.89L379.711 119.07C379.801 118.8 379.891 118.53 379.891 118.26C379.891 118.17 379.711 117.81 379.531 117.63Z" fill="white"/>
<path d="M135.721 368.46C135.541 365.67 136.171 362.79 137.611 360.27C138.151 359.28 139.141 357.39 140.221 356.94C141.211 356.49 143.641 358.2 144.631 358.65C144.631 356.76 144.631 354.96 145.081 353.16C147.871 351.63 149.941 349.74 151.741 347.13C153.541 350.37 154.981 353.88 155.881 357.48C156.331 359.37 156.691 361.35 156.241 363.24C155.791 365.04 154.711 366.57 153.361 367.83C152.011 369.09 150.481 370.08 148.951 371.07C146.161 372.78 142.201 370.62 139.321 369.18C137.971 368.64 137.161 368.46 135.721 368.46Z" fill="#008080"/>
<path d="M183.33 296.91C185.31 304.2 182.07 313.56 176.67 319.77C166.05 332.19 148.68 336.42 139.41 350.37C134.91 356.94 132.39 364.95 132.21 373.05C131.58 364.95 133.83 356.58 138.15 349.56C142.47 342.45 149.4 337.41 156.24 333C167.4 326.07 177.3 320.31 181.8 308.61C183.33 305.01 184.05 300.96 183.33 296.91Z" fill="#008080"/>
<path d="M183.328 296.91C183.328 296.91 191.248 313.74 181.618 326.52L178.648 325.62V328.68C178.648 328.68 172.888 331.92 164.158 330.39V329.31L168.208 326.7L171.988 324.18L176.578 318.87L179.908 314.37L182.248 310.68L184.048 302.76L183.328 296.91ZM190.078 355.95C190.078 355.95 185.668 359.01 178.108 357.75C170.548 356.49 155.158 340.65 142.828 345.33C143.098 345.06 147.598 340.56 147.328 340.92C147.328 340.92 165.418 330.84 178.018 335.07C190.528 339.21 190.078 355.95 190.078 355.95Z" fill="#12A67C"/>
<path opacity="0.1" d="M190.078 355.95C190.078 355.95 185.668 359.01 178.108 357.75C170.548 356.49 155.158 340.65 142.828 345.33C145.798 343.44 152.278 339.75 155.788 339.84C162.898 340.02 167.038 343.53 175.228 350.46C183.508 357.39 190.078 355.95 190.078 355.95Z" fill="black"/>
<path d="M138.059 330.75C138.059 330.75 162.899 331.92 169.469 309.78L160.649 307.8L170.009 302.49C170.009 302.49 170.819 287.46 174.599 282.42C174.599 282.51 122.129 288.72 138.059 330.75ZM128.609 367.11C129.059 362.97 128.879 358.83 128.249 354.78C127.619 350.73 126.539 346.77 124.739 343.08C121.139 335.43 115.019 330.3 106.559 327.87C109.619 328.77 119.339 330.48 125.369 342.81C127.169 346.59 128.249 350.64 128.789 354.69C129.329 358.83 129.239 362.97 128.609 367.11Z" fill="#12A67C"/>
<path d="M120.329 335.79C97.6492 341.82 97.1992 319.32 97.1992 319.32C102.059 323.91 109.439 321.93 115.289 325.26C121.229 328.59 120.329 335.79 120.329 335.79ZM130.139 366.66C129.869 363.06 129.689 359.37 129.419 355.77C129.059 352.17 128.699 348.48 128.159 344.88C126.989 337.05 125.279 330.12 122.939 323.73C127.349 333.63 129.329 344.97 129.959 355.68C130.049 357.48 130.139 359.37 130.139 361.17V366.66Z" fill="#008080"/>
<path d="M123.931 326.97C120.601 319.14 99.9913 309.33 95.0413 304.11C90.0913 298.98 91.5312 290.79 91.5312 290.79C96.1212 295.38 106.921 295.83 119.431 304.2C131.941 312.57 123.931 326.97 123.931 326.97ZM125.641 361.53C125.641 361.53 126.091 343.71 116.461 341.46C106.741 339.21 102.511 341.46 102.511 341.46L102.871 344.25L99.3613 341.64C99.3613 341.64 92.1612 343.62 89.2812 343.08C89.2812 343.08 90.9013 348.3 99.5413 350.37C108.181 352.44 119.791 352.98 125.641 361.53Z" fill="#12A67C"/>
<path d="M124.922 359.46C125.552 360.81 125.912 362.25 126.002 363.78C126.092 365.22 126.002 366.75 125.642 368.19L125.552 366.03L125.372 363.87L125.192 361.71C125.102 360.9 125.012 360.18 124.922 359.46Z" fill="#1AC1C1"/>
<path opacity="0.1" d="M123.931 326.97C120.601 319.14 99.9908 309.33 95.0408 304.11C90.0908 298.98 91.5308 290.79 91.5308 290.79C91.5308 290.79 91.3508 299.43 98.6408 301.41C105.931 303.48 121.771 313.11 123.931 326.97Z" fill="#12A67C"/>
<path d="M132.931 366.66C132.481 359.37 133.021 351.99 134.191 344.7C137.971 322.2 148.501 302.13 167.761 289.89C157.951 297.18 157.861 298.53 155.431 300.78C154.261 302.13 153.001 303.48 151.921 305.01C140.851 319.23 135.091 337.59 133.381 355.68C133.111 359.37 132.931 362.97 132.931 366.66Z" fill="#008080"/>
<path d="M144.99 396.18H124.65C123.48 396.18 122.49 395.37 122.22 394.2L116.91 370.08H152.73L147.42 394.2C147.15 395.37 146.16 396.18 144.99 396.18Z" fill="white"/>
<path d="M147.78 392.76L147.42 394.2C147.15 395.37 146.16 396.18 144.99 396.18H124.65C123.48 396.18 122.49 395.37 122.22 394.2L116.91 370.08H120.33L121.68 376.11C123.84 385.74 132.39 392.67 142.29 392.67H147.78V392.76Z" fill="#25E498"/>
<path d="M144.991 396.63H124.651C123.301 396.63 122.041 395.64 121.771 394.29L116.371 369.63H153.271L147.871 394.29C147.601 395.64 146.341 396.63 144.991 396.63ZM117.451 370.53L122.581 394.11C122.761 395.01 123.661 395.73 124.561 395.73H144.901C145.891 395.73 146.701 395.01 146.881 394.11L152.011 370.53H117.451Z" fill="#060405"/>
<path d="M155.251 371.43H114.391C113.851 371.43 113.401 371.07 113.221 370.53L112.051 364.5C111.871 363.78 112.501 363.15 113.221 363.15H156.511C157.231 363.15 157.771 363.78 157.681 364.5L156.511 370.53C156.241 370.98 155.791 371.43 155.251 371.43Z" fill="white"/>
<path d="M155.252 371.88H114.392C113.672 371.88 112.952 371.34 112.862 370.62L111.602 364.5C111.422 363.51 112.142 362.61 113.132 362.61H156.422C157.412 362.61 158.222 363.51 157.952 364.5L156.782 370.53C156.692 371.25 155.972 371.88 155.252 371.88ZM113.132 363.51C112.682 363.51 112.322 363.96 112.412 364.32L113.582 370.35C113.672 370.71 113.942 370.89 114.302 370.89H155.162C155.522 370.89 155.792 370.62 155.882 370.35L157.052 364.32C157.142 363.87 156.782 363.51 156.332 363.51H113.132Z" fill="#060405"/>
<path d="M248.942 324.81H223.652C223.472 324.81 223.292 324.63 223.292 324.45C223.292 324.27 223.472 324.09 223.652 324.09H248.942C249.122 324.09 249.302 324.27 249.302 324.45C249.302 324.63 249.122 324.81 248.942 324.81ZM248.942 337.32H223.652C223.472 337.32 223.292 337.14 223.292 336.96C223.292 336.78 223.472 336.6 223.652 336.6H248.942C249.122 336.6 249.302 336.78 249.302 336.96C249.302 337.14 249.122 337.32 248.942 337.32ZM244.352 331.02H208.622C208.442 331.02 208.262 330.84 208.262 330.66C208.262 330.48 208.442 330.3 208.622 330.3H244.352C244.532 330.3 244.712 330.48 244.712 330.66C244.712 330.84 244.532 331.02 244.352 331.02Z" fill="#25E498"/>
<path d="M228.868 324.81C228.688 324.81 228.508 324.63 228.508 324.45V319.14C228.508 318.96 228.688 318.78 228.868 318.78C229.048 318.78 229.228 318.96 229.228 319.14V324.45C229.228 324.63 229.048 324.81 228.868 324.81ZM237.778 331.02C237.598 331.02 237.418 330.84 237.418 330.66V324.36C237.418 324.18 237.598 324 237.778 324C237.958 324 238.138 324.18 238.138 324.36V330.66C238.138 330.93 237.958 331.02 237.778 331.02ZM231.028 337.14C230.848 337.14 230.668 336.96 230.668 336.78V330.75C230.668 330.57 230.848 330.39 231.028 330.39C231.208 330.39 231.388 330.57 231.388 330.75V336.78C231.388 336.96 231.208 337.14 231.028 337.14ZM91.1683 191.79H65.9683C65.7883 191.79 65.6083 191.61 65.6083 191.43C65.6083 191.25 65.7883 191.07 65.9683 191.07H91.2583C91.4383 191.07 91.6183 191.25 91.6183 191.43C91.6183 191.61 91.3483 191.79 91.1683 191.79ZM91.1683 204.3H65.9683C65.7883 204.3 65.6083 204.12 65.6083 203.94C65.6083 203.76 65.7883 203.58 65.9683 203.58H91.2583C91.4383 203.58 91.6183 203.76 91.6183 203.94C91.6183 204.12 91.3483 204.3 91.1683 204.3ZM86.5783 198H50.8483C50.6683 198 50.4883 197.82 50.4883 197.64C50.4883 197.46 50.6683 197.28 50.8483 197.28H86.5783C86.7583 197.28 86.9383 197.46 86.9383 197.64C86.9383 197.82 86.7583 198 86.5783 198Z" fill="#25E498"/>
<path d="M71.0983 191.79C70.9183 191.79 70.7383 191.61 70.7383 191.43V186.12C70.7383 185.94 70.9183 185.76 71.0983 185.76C71.2783 185.76 71.4583 185.94 71.4583 186.12V191.43C71.4583 191.61 71.2783 191.79 71.0983 191.79ZM80.0083 198C79.8283 198 79.6483 197.82 79.6483 197.64V191.34C79.6483 191.16 79.8283 190.98 80.0083 190.98C80.1883 190.98 80.3683 191.16 80.3683 191.34V197.64C80.3683 197.91 80.1883 198 80.0083 198ZM73.2583 204.12C73.0783 204.12 72.8983 203.94 72.8983 203.76V197.73C72.8983 197.55 73.0783 197.37 73.2583 197.37C73.4383 197.37 73.6183 197.55 73.6183 197.73V203.76C73.6183 203.94 73.4383 204.12 73.2583 204.12ZM371.248 184.32H345.958C345.778 184.32 345.598 184.14 345.598 183.96C345.598 183.78 345.778 183.6 345.958 183.6H371.248C371.428 183.6 371.608 183.78 371.608 183.96C371.608 184.14 371.428 184.32 371.248 184.32ZM371.248 196.92H345.958C345.778 196.92 345.598 196.74 345.598 196.56C345.598 196.38 345.778 196.2 345.958 196.2H371.248C371.428 196.2 371.608 196.38 371.608 196.56C371.608 196.74 371.428 196.92 371.248 196.92ZM366.658 190.62H330.928C330.748 190.62 330.568 190.44 330.568 190.26C330.568 190.08 330.748 189.9 330.928 189.9H366.658C366.838 189.9 367.018 190.08 367.018 190.26C367.018 190.44 366.838 190.62 366.658 190.62Z" fill="#25E498"/>
<path d="M351.27 184.32C351.09 184.32 350.91 184.14 350.91 183.96V178.65C350.91 178.47 351.09 178.29 351.27 178.29C351.45 178.29 351.63 178.47 351.63 178.65V183.96C351.54 184.23 351.45 184.32 351.27 184.32ZM360.09 190.62C359.91 190.62 359.73 190.44 359.73 190.26V183.96C359.73 183.78 359.91 183.6 360.09 183.6C360.27 183.6 360.45 183.78 360.45 183.96V190.26C360.45 190.44 360.27 190.62 360.09 190.62ZM353.34 196.65C353.16 196.65 352.98 196.47 352.98 196.29V190.26C352.98 190.08 353.16 189.9 353.34 189.9C353.52 189.9 353.7 190.08 353.7 190.26V196.29C353.7 196.56 353.52 196.65 353.34 196.65ZM351.09 70.8301H325.8C325.62 70.8301 325.44 70.6501 325.44 70.4701C325.44 70.2901 325.62 70.1101 325.8 70.1101H351.09C351.27 70.1101 351.45 70.2901 351.45 70.4701C351.45 70.6501 351.36 70.8301 351.09 70.8301ZM351.09 83.3401H325.8C325.62 83.3401 325.44 83.1601 325.44 82.9801C325.44 82.8001 325.62 82.6201 325.8 82.6201H351.09C351.27 82.6201 351.45 82.8001 351.45 82.9801C351.45 83.1601 351.36 83.3401 351.09 83.3401ZM346.5 77.1301H310.77C310.59 77.1301 310.41 76.9501 310.41 76.7701C310.41 76.5901 310.59 76.4101 310.77 76.4101H346.5C346.68 76.4101 346.86 76.5901 346.86 76.7701C346.86 76.9501 346.77 77.1301 346.5 77.1301Z" fill="#25E498"/>
<path d="M331.11 70.83C330.93 70.83 330.75 70.6501 330.75 70.4701V65.1601C330.75 64.9801 330.93 64.8 331.11 64.8C331.29 64.8 331.47 64.9801 331.47 65.1601V70.4701C331.38 70.6501 331.29 70.83 331.11 70.83ZM339.93 77.13C339.75 77.13 339.57 76.9501 339.57 76.7701V70.4701C339.57 70.2901 339.75 70.1101 339.93 70.1101C340.11 70.1101 340.29 70.2901 340.29 70.4701V76.7701C340.29 76.9501 340.11 77.13 339.93 77.13ZM333.18 83.16C333 83.16 332.82 82.98 332.82 82.8V76.7701C332.82 76.5901 333 76.41 333.18 76.41C333.36 76.41 333.54 76.5901 333.54 76.7701V82.8C333.54 82.98 333.36 83.16 333.18 83.16Z" fill="#25E498"/>
</svg>
