<svg width="540" height="450" viewBox="0 0 540 450" fill="none" xmlns="http://www.w3.org/2000/svg">
<path opacity="0.3" d="M490.229 391.77C491.309 387.72 491.129 383.13 489.779 379.26C486.899 370.8 480.599 363.87 477.719 355.41C470.159 333.54 486.899 311.67 494.999 289.98C503.099 268.29 502.469 243.54 493.289 222.3C484.109 201.06 466.469 183.69 445.139 174.87C432.269 169.56 416.519 165.78 411.209 152.91C401.849 130.32 434.609 105.84 424.799 83.52C421.199 75.33 412.469 70.29 403.559 69.03C394.739 67.77 385.739 69.57 377.099 71.82C347.579 79.47 319.229 91.44 289.529 98.73C259.829 105.93 227.699 108.09 199.529 96.3C177.029 86.85 157.679 68.76 133.469 65.88C112.589 63.36 90.7193 73.89 79.6493 91.8C68.4893 109.71 68.7593 134.01 80.0993 151.74C84.9593 159.21 91.5293 165.51 95.7593 173.34C108.719 197.19 96.4793 226.98 80.7293 249.12C64.8893 271.26 44.8193 292.23 40.5893 319.14C37.6193 337.86 43.4693 357.84 55.8893 372.06C64.4393 381.78 76.0493 388.71 88.4693 391.95H490.229V391.77Z" fill="#86E9DC"/>
<path d="M131.489 391.86C131.489 391.05 130.319 312.21 111.239 296.28C108.539 294.03 105.569 293.13 102.329 293.67C85.9487 296.37 75.7787 330.3 73.7087 389.25C73.6187 391.59 73.6187 391.77 73.5287 391.86L72.7188 391.59L73.1687 391.77L72.7188 391.68C72.7188 391.5 72.8087 390.51 72.8087 389.25C73.9787 354.87 79.3787 296.55 102.149 292.77C105.569 292.23 108.809 293.13 111.779 295.65C131.219 311.94 132.389 388.71 132.389 391.95L131.489 391.86Z" fill="#060405"/>
<path d="M168.478 375.84V372.24H148.228C147.958 378.72 147.418 391.41 147.238 391.41H180.178C181.348 380.52 168.478 375.84 168.478 375.84Z" fill="#0461FD"/>
<path d="M179.728 386.64C180.178 388.08 180.358 389.61 180.178 391.32H147.238C147.328 391.32 147.418 389.34 147.598 386.64H179.728Z" fill="#060405"/>
<path d="M230.76 376.2V372.6H210.51C210.24 379.08 209.7 391.77 209.52 391.77H242.46C243.63 380.97 230.76 376.2 230.76 376.2Z" fill="#9F28EE"/>
<path d="M242.099 387.09C242.549 388.53 242.729 390.06 242.549 391.77H209.609C209.699 391.77 209.789 389.79 209.969 387.09H242.099Z" fill="#060405"/>
<path d="M134.639 225.81C135.899 226.44 153.539 258.12 143.189 264.51C134.099 270.09 119.879 238.59 119.879 238.59L127.349 226.35L134.639 225.81Z" fill="white"/>
<path d="M119.52 238.77L119.43 238.59L127.08 225.9L134.73 225.36L134.82 225.45C136.35 226.17 154.26 258.3 143.46 264.96C135.27 269.91 123.39 247.41 119.52 238.77ZM120.42 238.59C124.02 246.42 135.63 268.56 142.92 264.06C144.72 262.98 145.71 260.91 145.89 258.03C146.61 246.96 135.81 227.79 134.37 226.26L127.53 226.71L120.42 238.59Z" fill="#060405"/>
<path d="M120.241 204.39C121.321 204.75 134.461 216.27 137.341 227.16C138.511 229.23 119.611 239.85 118.441 237.87L111.961 223.83L120.241 204.39Z" fill="#9F28EE"/>
<path d="M131.131 328.23C73.1706 349.38 41.7606 306 39.9606 266.22C38.2506 226.17 49.8606 203.85 63.9906 202.68C76.5006 201.6 87.1206 219.51 89.0106 228.78C90.9006 238.14 104.401 291.24 121.771 298.98C139.321 306.72 131.131 328.23 131.131 328.23Z" fill="white"/>
<path d="M102.24 334.17C90.2698 334.17 79.2898 331.02 69.8398 324.63C52.1998 312.84 40.6798 290.52 39.5998 266.22C37.7998 223.56 50.5798 203.4 64.0798 202.23C76.8598 201.15 87.6598 219.15 89.5498 228.69C91.9798 240.75 105.48 291.15 122.04 298.53C139.68 306.27 131.58 328.05 131.49 328.32L131.4 328.5L131.22 328.59C121.14 332.37 111.33 334.17 102.24 334.17ZM65.1598 203.13H64.0798C51.3898 204.21 38.6098 224.37 40.4098 266.22C41.4898 290.25 52.9198 312.3 70.2898 323.91C86.7598 334.89 107.64 336.24 130.77 327.87C131.49 325.71 137.7 306.54 121.68 299.43C104.67 291.96 91.0798 241.11 88.6498 228.96C86.8498 219.96 76.9498 203.13 65.1598 203.13Z" fill="#060405"/>
<path d="M116.55 274.41C116.55 274.41 168.39 263.88 183.24 272.25C192.78 277.65 233.01 373.41 233.01 373.41C233.19 376.02 206.37 377.64 206.19 375.03L159.66 305.19L125.01 315.9L105.48 292.23L116.55 274.41Z" fill="#060405"/>
<path d="M80.3698 196.83C74.7898 198.54 64.7998 204.21 60.7498 209.88C51.9298 231.3 81.7198 304.92 81.7198 304.92L138.33 281.16C138.33 281.16 128.88 261.09 127.53 253.89C125.46 242.64 128.07 218.34 123.39 208.26C120.78 202.59 110.34 198 104.22 196.56C99.2698 195.39 86.2198 195.12 80.3698 196.83Z" fill="#9F28EE"/>
<path d="M125.731 253.62H114.031C112.501 253.62 111.511 252.18 111.961 250.74L121.051 227.88C121.321 226.98 122.221 226.35 123.121 226.35H134.821C136.351 226.35 137.341 227.79 136.891 229.23L127.801 252.09C127.531 252.99 126.721 253.62 125.731 253.62Z" fill="#060405"/>
<path d="M106.652 260.73C106.652 260.73 57.9615 285.57 49.2315 272.7C44.8215 266.13 49.7715 244.08 49.7715 244.08L70.2015 243L69.8415 250.56L106.652 250.29C106.652 250.29 110.162 242.1 111.512 242.28C112.862 242.46 112.142 245.79 112.142 245.79C112.142 245.79 121.322 237.6 123.032 246.15C124.742 254.7 115.832 257.04 106.652 260.73Z" fill="white"/>
<path d="M58.9489 276.84C54.3589 276.84 50.7589 275.76 48.8689 272.97C44.3689 266.31 49.1389 244.89 49.4089 243.99L49.4989 243.63L70.7389 242.46L70.3789 250.02L106.469 249.75C107.909 246.51 110.339 241.56 111.689 241.74C112.049 241.83 112.319 242.01 112.499 242.28C112.949 242.91 112.949 243.9 112.859 244.71C114.479 243.45 118.079 241.11 120.779 242.01C122.219 242.46 123.209 243.9 123.659 246.06C125.189 254.07 118.079 256.86 109.799 260.1C108.899 260.46 107.909 260.82 107.009 261.18C105.029 262.08 75.6889 276.84 58.9489 276.84ZM50.2189 244.53C49.5889 247.32 45.7189 266.58 49.6789 272.52C58.0489 284.85 106.019 260.64 106.469 260.37C107.369 260.01 108.359 259.65 109.259 259.29C117.179 256.23 124.019 253.53 122.579 246.24C122.219 244.35 121.499 243.27 120.329 242.91C117.359 241.92 112.499 246.15 112.409 246.15L111.419 247.05L111.689 245.7C111.869 244.89 111.959 243.36 111.599 242.82L111.419 242.64C110.699 242.82 108.629 246.78 107.009 250.38L106.919 250.65L69.2989 251.01L69.6589 243.45L50.2189 244.53Z" fill="#060405"/>
<path d="M62.2805 208.08C62.2805 208.08 70.6505 210.24 72.3605 221.85C74.1605 234 72.4505 246.6 72.4505 246.6C71.4605 248.94 46.9805 248.76 46.9805 246.6C46.9805 246.33 49.6805 220.05 62.2805 208.08Z" fill="#9F28EE"/>
<path d="M60.2113 248.76C55.5313 248.76 50.8512 248.49 48.7812 248.04C47.2512 247.68 46.5312 247.32 46.5312 246.69H47.4312C48.0612 247.5 56.9712 248.31 65.2512 247.77C70.1112 247.5 71.7312 246.87 72.0012 246.6C72.1812 245.43 73.6213 233.46 71.9112 222.03L72.8113 221.94C74.6112 234 72.9012 246.69 72.9012 246.87V246.96C72.1812 248.22 66.1513 248.76 60.2113 248.76Z" fill="#060405"/>
<path d="M168.478 376.2V372.6H148.228C147.958 379.08 147.418 391.77 147.238 391.77H180.178C181.348 380.97 168.478 376.2 168.478 376.2Z" fill="#9F28EE"/>
<path d="M179.729 387.09C180.179 388.53 180.359 390.06 180.179 391.77H147.239C147.329 391.77 147.419 389.79 147.599 387.09H179.729ZM80.3687 301.41C80.2787 302.04 84.3287 314.55 94.8587 317.79C105.389 321.03 122.579 312.66 122.579 312.66L146.789 375.12C147.059 376.92 170.189 374.85 169.829 372.96C169.829 372.96 167.309 282.6 150.389 273.24C132.389 263.25 84.8687 287.01 80.3687 301.41Z" fill="#060405"/>
<path d="M141.12 266.13C133.83 267.39 131.76 257.22 130.77 252.9C128.7 249.48 130.95 247.14 130.95 247.14C130.95 247.14 128.34 240.84 130.05 238.23C131.76 235.71 136.08 237.42 138.69 240.57C139.59 241.74 138.6 245.25 138.87 248.04C140.76 249.21 144.99 249.66 146.52 252.81C149.94 260.01 144.54 265.59 141.12 266.13Z" fill="white"/>
<path d="M139.861 266.67C133.381 266.67 131.401 257.76 130.411 253.35L130.321 252.99C128.521 250.02 129.871 247.68 130.411 247.05C129.961 245.79 127.981 240.39 129.691 237.96C131.761 234.9 136.531 237.24 139.051 240.3C140.131 241.56 139.141 244.98 139.321 247.77C141.211 248.85 145.351 249.39 146.971 252.63C148.861 256.59 148.141 259.83 147.061 261.81C145.621 264.6 143.011 266.22 141.301 266.58C140.761 266.67 140.311 266.67 139.861 266.67ZM132.301 237.51C128.521 237.69 129.871 243.54 131.311 247.05L131.401 247.32L131.221 247.5C131.131 247.59 129.241 249.66 131.131 252.72L131.221 252.9L131.311 253.35C132.301 257.76 134.461 267.03 141.121 265.86C142.651 265.59 144.901 264.15 146.251 261.54C147.151 259.74 147.871 256.86 146.071 253.17C145.081 251.1 142.831 250.29 140.941 249.57C138.601 248.67 138.691 248.58 138.421 248.4V248.22C138.241 245.52 139.051 241.92 138.331 241.02C136.891 239.22 134.461 237.42 132.301 237.51ZM100.891 391.5C100.891 390.78 99.7211 323.46 81.4511 307.98C78.4811 305.46 75.1511 304.38 71.6411 304.92C55.2611 307.26 45.0911 337.23 43.1111 389.16C43.0211 391.32 43.0211 391.41 42.9311 391.5L42.1211 391.14L42.5711 391.32L42.1211 391.23C42.1211 391.05 42.2111 390.24 42.2111 389.07C43.3811 358.74 48.7811 307.26 71.5511 304.02C75.3311 303.48 78.9311 304.56 82.0811 307.26C100.621 323.1 101.791 388.71 101.791 391.5H100.891Z" fill="#060405"/>
<path d="M125.57 219.17L126.47 219.141L126.973 234.883L126.073 234.912L125.57 219.17Z" fill="#060405"/>
<path d="M95.3084 208.08C89.9984 210.87 77.8484 198 77.8484 198L77.3984 166.23L93.5084 184.95C93.5084 184.95 95.3084 191.7 97.8284 195.57C99.7184 198.54 98.5484 206.37 95.3084 208.08Z" fill="white"/>
<path d="M93.5992 208.89C87.6592 208.89 77.9392 198.81 77.4892 198.27L77.3992 198.18L76.9492 164.97L93.9592 184.86C93.9592 184.95 95.7592 191.61 98.1892 195.39C99.2692 197.1 99.4492 200.43 98.6392 203.58C98.0092 206.01 96.8392 207.81 95.4892 208.53C94.9492 208.8 94.3192 208.89 93.5992 208.89ZM78.2992 197.82C81.7192 201.42 91.0792 209.79 95.1292 207.72C96.2992 207.09 97.2892 205.56 97.8292 203.4C98.5492 200.52 98.4592 197.46 97.4692 195.93C95.1292 192.24 93.4192 186.12 93.1492 185.22L77.8492 167.4L78.2992 197.82Z" fill="#060405"/>
<path d="M78.0284 166.68C78.2984 167.04 80.8184 192.51 96.1184 190.8C111.508 189.09 107.458 157.32 100.618 150.3C93.7784 143.28 79.7384 149.58 79.7384 149.58L75.1484 160.65L78.0284 166.68Z" fill="white"/>
<path d="M77.7591 167.58C77.6691 167.22 77.6691 166.95 77.6691 166.86L74.7891 160.65L79.5591 149.22L79.7391 149.13C80.2791 148.86 94.1391 142.74 101.069 149.94C106.199 155.16 109.439 172.35 105.659 182.79C103.859 187.83 100.619 190.71 96.2991 191.16C84.6891 192.51 79.6491 179.01 77.7591 167.58ZM78.3891 166.41C78.4791 166.5 78.4791 166.68 78.5691 167.4C81.2691 183.33 87.2991 191.34 96.0291 190.35C100.079 189.9 102.959 187.29 104.669 182.52C108.179 172.62 105.119 155.61 100.259 150.66C94.0491 144.36 81.6291 149.31 80.0991 149.94L75.6891 160.65L78.3891 166.41Z" fill="#060405"/>
<path d="M90.8727 168.395C91.4688 168.372 91.9256 167.669 91.8931 166.825C91.8606 165.98 91.3511 165.314 90.755 165.337C90.159 165.36 89.7021 166.063 89.7346 166.908C89.7671 167.752 90.2767 168.418 90.8727 168.395Z" fill="#060405"/>
<path d="M101.045 168.304C101.641 168.281 102.097 167.578 102.065 166.734C102.032 165.89 101.523 165.224 100.927 165.247C100.331 165.269 99.874 165.973 99.9065 166.817C99.939 167.661 100.449 168.327 101.045 168.304Z" fill="#060405"/>
<path d="M95.9381 176.49L95.3981 175.77C95.8481 175.41 96.2981 175.41 96.8381 175.32C97.1981 175.23 97.3781 175.14 97.4681 174.96C97.4681 174.78 97.1981 174.51 97.0181 174.24C95.4881 172.62 94.7681 170.19 95.3081 168.03L96.2081 168.21C95.7581 170.1 96.2981 172.17 97.6481 173.61C98.0081 173.97 98.4581 174.42 98.3681 175.14C98.2781 175.68 97.7381 176.04 97.0181 176.22C96.5681 176.31 96.1181 176.31 95.9381 176.49ZM92.8781 184.05C92.0681 183.69 91.3481 182.97 91.0781 182.16L91.8881 181.8C92.1581 182.43 92.6081 182.97 93.2381 183.24C93.8681 183.51 94.5881 183.51 95.2181 183.24L95.5781 184.05C94.5881 184.41 93.5981 184.41 92.8781 184.05Z" fill="#060405"/>
<path d="M109.439 154.53C108.809 154.89 108.089 155.25 107.369 155.52C101.339 157.5 84.9591 153.81 84.5091 156.06C84.0591 158.31 83.0691 171.99 81.9891 170.37C80.0091 167.22 79.2891 161.91 79.1091 171C79.1991 174.42 78.1191 187.29 78.1191 187.29C77.5791 185.67 74.6091 182.43 72.5391 179.01C68.9391 172.89 71.0991 156.78 71.0991 156.78C71.0991 156.78 66.9591 153.27 68.5791 149.58C70.1991 145.89 96.3891 131.04 101.789 131.67C106.919 132.21 104.129 140.58 103.859 141.3C104.309 140.76 108.269 136.08 109.889 139.41C111.419 142.56 113.939 151.74 109.439 154.53Z" fill="#060405"/>
<path d="M432.001 88.92V248.49C432.001 255.15 426.601 260.55 419.941 260.55H184.591C177.931 260.55 172.531 255.15 172.531 248.49V88.92C172.531 82.26 177.931 76.95 184.591 76.95H420.031C426.601 76.95 432.001 82.26 432.001 88.92Z" fill="#E6D6F5"/>
<path opacity="0.15" d="M432 154.08V202.5H353.07C349.65 202.5 346.86 199.71 346.86 196.29V160.2C346.86 156.78 349.65 153.99 353.07 153.99H432V154.08ZM322.29 151.83H195.75C193.32 151.83 191.34 149.85 191.34 147.42V100.44C191.34 98.01 193.32 96.03 195.75 96.03H322.29C324.72 96.03 326.7 98.01 326.7 100.44V147.42C326.7 149.85 324.72 151.83 322.29 151.83Z" fill="black"/>
<path d="M223.65 220.5H151.83C150.12 220.5 148.77 219.15 148.77 217.44V177.66C148.77 175.95 150.12 174.6 151.83 174.6H223.65C225.36 174.6 226.71 175.95 226.71 177.66V217.44C226.71 219.15 225.36 220.5 223.65 220.5Z" fill="white"/>
<path d="M206.099 176.13C206.099 179.28 203.489 181.8 200.429 181.8H175.049C171.899 181.8 169.379 179.28 169.379 176.13C169.379 173.07 171.809 170.46 175.049 170.46H200.429C203.579 170.46 206.099 172.98 206.099 176.13Z" fill="#060405"/>
<path d="M166.051 210.33C172.314 210.33 177.391 205.253 177.391 198.99C177.391 192.727 172.314 187.65 166.051 187.65C159.788 187.65 154.711 192.727 154.711 198.99C154.711 205.253 159.788 210.33 166.051 210.33Z" fill="#060405"/>
<path d="M162.9 203.76L160.47 201.33C160.02 200.88 160.02 200.16 160.47 199.8C160.92 199.35 161.64 199.35 162 199.8L163.62 201.42L170.91 194.13C171.36 193.68 172.08 193.68 172.44 194.13C172.89 194.58 172.89 195.3 172.44 195.66L164.34 203.76C164.07 204.21 163.35 204.21 162.9 203.76Z" fill="white"/>
<path d="M216.629 196.65H186.569C185.759 196.65 185.039 195.93 185.039 195.12V194.4C185.039 193.59 185.759 192.87 186.569 192.87H216.629C217.439 192.87 218.159 193.59 218.159 194.4V195.12C218.249 195.93 217.529 196.65 216.629 196.65ZM199.079 204.66H186.569C185.759 204.66 185.039 203.94 185.039 203.13V202.41C185.039 201.6 185.759 200.88 186.569 200.88H199.079C199.889 200.88 200.609 201.6 200.609 202.41V203.13C200.699 203.94 199.979 204.66 199.079 204.66Z" fill="#25E498"/>
<path d="M461.161 173.61H458.461V172.71H461.161C461.971 172.71 462.781 172.53 463.591 172.17L463.951 172.98C463.051 173.34 462.151 173.61 461.161 173.61ZM453.061 173.61H447.661V172.71H453.061V173.61ZM442.261 173.61H436.861V172.71H442.261V173.61ZM467.371 168.48L466.471 168.3C466.561 167.94 466.561 167.58 466.561 167.22V162.99H467.461V167.22C467.461 167.67 467.461 168.12 467.371 168.48ZM467.461 157.59H466.561V152.19H467.461V157.59ZM467.461 146.79H466.561V141.39H467.461V146.79ZM467.461 135.99H466.561V130.59H467.461V135.99ZM466.381 125.37C465.931 123.75 464.761 122.4 463.231 121.77L463.591 120.96C465.391 121.68 466.741 123.3 467.281 125.19L466.381 125.37ZM458.101 121.32H452.701V120.42H458.101V121.32ZM447.301 121.32H441.901V120.42H447.301V121.32ZM436.501 121.32H431.101V120.42H436.501V121.32ZM425.701 121.32H420.301V120.42H425.701V121.32Z" fill="#060405"/>
<path d="M449.192 157.05V193.14C449.192 196.56 446.402 199.35 442.982 199.35H356.222C352.802 199.35 350.012 196.56 350.012 193.14V157.05C350.012 153.63 352.802 150.84 356.222 150.84H442.982C446.402 150.84 449.192 153.63 449.192 157.05Z" fill="#12A67C"/>
<path d="M370.081 187.83C377.139 187.83 382.861 182.108 382.861 175.05C382.861 167.992 377.139 162.27 370.081 162.27C363.023 162.27 357.301 167.992 357.301 175.05C357.301 182.108 363.023 187.83 370.081 187.83Z" fill="#060405"/>
<path d="M370.349 174.24C372.039 174.24 373.409 172.87 373.409 171.18C373.409 169.49 372.039 168.12 370.349 168.12C368.659 168.12 367.289 169.49 367.289 171.18C367.289 172.87 368.659 174.24 370.349 174.24Z" fill="white"/>
<path d="M364.05 181.8H376.02C376.38 181.8 376.65 181.44 376.56 181.08C375.75 178.2 373.14 176.13 370.08 176.13C367.02 176.13 364.32 178.2 363.51 181.08C363.42 181.44 363.69 181.8 364.05 181.8ZM389.52 167.67H442.26V170.1H389.52V167.67ZM389.52 173.88H442.26V176.31H389.52V173.88ZM389.52 180H408.15V182.43H389.52V180Z" fill="white"/>
<path d="M402.659 139.5C423.386 139.5 440.189 122.697 440.189 101.97C440.189 81.2427 423.386 64.4399 402.659 64.4399C381.932 64.4399 365.129 81.2427 365.129 101.97C365.129 122.697 381.932 139.5 402.659 139.5Z" fill="#EF1103"/>
<path d="M402.661 131.67C419.064 131.67 432.361 118.373 432.361 101.97C432.361 85.5672 419.064 72.27 402.661 72.27C386.258 72.27 372.961 85.5672 372.961 101.97C372.961 118.373 386.258 131.67 402.661 131.67Z" fill="white"/>
<path d="M402.66 124.2C414.937 124.2 424.89 114.247 424.89 101.97C424.89 89.6927 414.937 79.74 402.66 79.74C390.382 79.74 380.43 89.6927 380.43 101.97C380.43 114.247 390.382 124.2 402.66 124.2Z" fill="#EF1103"/>
<path d="M402.659 114.75C409.717 114.75 415.439 109.028 415.439 101.97C415.439 94.9117 409.717 89.1899 402.659 89.1899C395.601 89.1899 389.879 94.9117 389.879 101.97C389.879 109.028 395.601 114.75 402.659 114.75Z" fill="white"/>
<path d="M399.625 103.292L436.153 66.7617L437.745 68.3527L401.216 104.882L399.625 103.292Z" fill="#060405"/>
<path d="M402.391 92.6101L411.931 102.15C412.471 102.69 412.201 103.59 411.481 103.68L399.961 105.66C399.331 105.75 398.791 105.21 398.881 104.58L400.861 93.0601C400.951 92.3401 401.851 92.0701 402.391 92.6101ZM440.461 57.0601L440.641 63.9001L447.391 63.9901L438.211 73.2601L431.371 73.1701L431.281 66.3301L440.461 57.0601Z" fill="#060405"/>
<path d="M325.438 147.87H198.898C196.468 147.87 194.488 145.89 194.488 143.46V96.4801C194.488 94.0501 196.468 92.0701 198.898 92.0701H325.438C327.868 92.0701 329.848 94.0501 329.848 96.4801V143.46C329.848 145.89 327.868 147.87 325.438 147.87Z" fill="white"/>
<path d="M203.761 130.95C203.221 130.95 202.861 130.5 202.951 130.05C203.401 123.21 207.991 116.46 214.651 112.95C220.591 109.8 227.971 108.99 235.441 110.61C241.561 111.96 247.771 114.84 254.521 119.43C259.831 123.12 265.231 127.62 271.621 128.25C279.991 129.15 287.371 123.39 293.491 118.53C296.551 116.1 299.791 113.49 303.391 111.6C310.051 108 316.801 107.46 322.021 109.98C322.471 110.16 322.651 110.7 322.381 111.15C322.201 111.6 321.661 111.78 321.211 111.51C316.621 109.17 310.231 109.8 304.201 113.04C300.781 114.93 297.631 117.45 294.571 119.79C288.091 124.92 280.351 130.77 271.441 129.87C264.601 129.15 259.111 124.56 253.531 120.78C247.051 116.28 241.021 113.49 235.081 112.23C227.971 110.7 220.951 111.51 215.461 114.48C209.341 117.72 205.111 123.93 204.661 130.23C204.571 130.59 204.211 130.95 203.761 130.95Z" fill="#060405"/>
<path d="M324.179 111.15C323.369 113.04 321.209 114.03 319.319 113.22C317.429 112.41 316.439 110.25 317.249 108.36C318.059 106.47 320.219 105.48 322.109 106.29C323.999 107.01 324.989 109.17 324.179 111.15Z" fill="#0461FD"/>
<path d="M285.84 129.06C285.03 130.95 282.87 131.94 280.98 131.13C279.09 130.32 278.1 128.16 278.91 126.27C279.72 124.38 281.88 123.39 283.77 124.2C285.66 125.01 286.56 127.17 285.84 129.06Z" fill="#FE6021"/>
<path d="M241.738 113.49C240.928 115.38 238.768 116.37 236.878 115.56C234.988 114.75 233.998 112.59 234.808 110.7C235.618 108.81 237.778 107.82 239.668 108.63C241.648 109.35 242.548 111.51 241.738 113.49Z" fill="#0461FD"/>
<path d="M207.269 131.13C206.459 133.02 204.299 134.01 202.409 133.2C200.519 132.39 199.529 130.23 200.339 128.34C201.149 126.45 203.309 125.46 205.199 126.27C207.089 127.08 207.989 129.24 207.269 131.13Z" fill="#FE6021"/>
<path d="M328.862 242.37H255.242C251.552 242.37 248.672 239.4 248.672 235.8V171.45C248.672 167.76 251.642 164.88 255.242 164.88H328.862C332.552 164.88 335.432 167.85 335.432 171.45V235.8C335.522 239.4 332.552 242.37 328.862 242.37Z" fill="white"/>
<path d="M282.959 206.82C282.959 214.02 277.109 219.87 269.909 219.87C262.709 219.87 256.859 214.02 256.859 206.82H269.909V193.77C277.109 193.86 282.959 199.62 282.959 206.82Z" fill="#25E498"/>
<path d="M291.328 197.1H297.538V215.73H291.328V197.1Z" fill="#FE6021"/>
<path d="M291.328 217.53H297.538V219.51H291.328V217.53ZM301.228 192.51H307.438V215.73H301.228V192.51ZM301.228 217.53H307.438V219.51H301.228V217.53Z" fill="#060405"/>
<path d="M311.039 205.92H317.249V215.73H311.039V205.92Z" fill="#FE6021"/>
<path d="M311.039 217.53H317.249V219.51H311.039V217.53ZM320.939 188.28H327.149V215.64H320.939V188.28ZM320.939 217.53H327.149V219.51H320.939V217.53Z" fill="#060405"/>
<path d="M434.431 341.1C429.301 342.9 420.481 343.53 414.991 331.74C409.501 319.95 416.071 299.25 406.531 289.98C406.531 289.98 417.691 290.25 427.771 300.15C437.851 309.96 450.631 335.43 434.431 341.1Z" fill="#008080"/>
<path d="M465.031 313.65C462.691 323.55 457.111 330.48 447.031 329.22C440.101 328.41 429.391 324 429.751 307.17C430.201 290.25 449.641 269.82 443.881 253.62C444.241 253.8 456.841 260.64 462.871 277.65L463.141 278.46C466.291 287.82 467.731 302.49 465.031 313.65Z" fill="#12A67C"/>
<path d="M447.031 303.03H447.931V359.37H447.031V303.03Z" fill="#060405"/>
<path d="M490.14 289.98C485.64 294.3 484.56 301.68 484.47 308.07C484.02 318.87 484.92 327.6 479.7 335.25C474.21 343.35 466.74 342.72 462.24 341.1C450.54 337.05 453.87 322.65 460.44 311.31C460.53 311.04 460.71 310.86 460.89 310.59C463.32 306.45 466.2 302.76 468.9 300.15C478.98 290.25 490.14 289.98 490.14 289.98Z" fill="#008080"/>
<path d="M451.355 361.585L470.46 322.739L471.268 323.136L452.163 361.982L451.355 361.585Z" fill="#060405"/>
<path d="M425.367 323.081L426.175 322.683L445.304 361.517L444.496 361.915L425.367 323.081Z" fill="#060405"/>
<path d="M458.368 392.49L440.908 392.4C439.828 392.4 438.928 391.59 438.748 390.6L431.728 360.18C431.548 358.83 432.538 357.66 433.888 357.66L465.658 357.75C467.008 357.75 467.998 358.92 467.818 360.27L460.528 390.69C460.258 391.68 459.358 392.49 458.368 392.49Z" fill="white"/>
<path d="M458.369 392.94H440.909C439.649 392.94 438.569 392.04 438.389 390.78L431.369 360.36C431.099 358.74 432.359 357.3 433.889 357.3L465.659 357.39C467.279 357.39 468.449 358.83 468.179 360.45L460.889 390.87C460.709 392.04 459.629 392.94 458.369 392.94ZM458.369 392.04C459.179 392.04 459.899 391.41 460.079 390.6L467.369 360.18C467.549 359.19 466.739 358.2 465.659 358.2H433.799C432.719 358.2 431.909 359.1 432.089 360.18L439.109 390.6C439.289 391.5 439.919 392.04 440.819 392.04H458.369Z" fill="#060405"/>
<path d="M484.469 307.08V307.98L480.329 310.14L479.969 309.42L484.469 307.08ZM480.149 334.53C479.969 334.8 479.879 334.98 479.699 335.25L477.899 333.09L478.529 332.55L480.149 334.53ZM463.139 278.46L456.839 284.04L456.299 283.41L462.869 277.65L463.139 278.46ZM437.309 299.25L436.769 299.88L432.359 295.83L432.629 295.02L437.309 299.25ZM465.029 313.65C464.939 313.92 464.939 314.19 464.849 314.46C464.039 313.92 462.689 312.93 460.439 311.31C460.529 311.04 460.709 310.86 460.889 310.59C462.419 311.76 464.039 312.93 465.029 313.65Z" fill="white"/>
<path d="M408.872 225.54V264.42C408.872 268.74 405.362 272.25 401.042 272.25H373.502C369.182 272.25 365.672 268.74 365.672 264.42V225.54C365.672 221.22 369.182 217.71 373.502 217.71H401.042C405.452 217.71 408.872 221.22 408.872 225.54Z" fill="#060405"/>
<path d="M390.78 260.28C387.54 260.28 384.93 257.67 384.93 254.43V246.78C384.93 245.79 385.74 244.98 386.73 244.98C387.72 244.98 388.53 245.79 388.53 246.78V254.43C388.53 255.69 389.52 256.68 390.78 256.68C392.04 256.68 393.03 255.69 393.03 254.43V238.86C393.03 235.71 390.51 233.19 387.36 233.19C384.21 233.19 381.69 235.71 381.69 238.86V245.79C381.69 246.78 380.88 247.59 379.89 247.59C378.9 247.59 378.09 246.78 378.09 245.79V238.86C378.09 233.73 382.23 229.59 387.36 229.59C392.49 229.59 396.63 233.73 396.63 238.86V254.43C396.63 257.67 394.02 260.28 390.78 260.28Z" fill="white"/>
</svg>
