<svg width="40" height="40" viewBox="0 0 40 40" fill="none" xmlns="http://www.w3.org/2000/svg">
<g id="Bold Duotone / School / Diploma">
<path id="Vector" opacity="0.5" d="M3.33203 13.3334V20C3.33203 24.7141 3.33203 27.0711 4.7965 28.5356C5.59041 29.3295 6.64665 29.693 8.19853 29.8595C8.32186 29.6929 8.43861 29.5618 8.52189 29.4702C8.71551 29.2573 8.96101 29.0152 9.19902 28.7806L11.6872 26.327L12.6061 25.3961C13.21 21.8586 16.2897 19.1667 19.9988 19.1667C23.7079 19.1667 26.7876 21.8586 27.3915 25.3961L28.3104 26.327L30.7987 28.7807C31.0367 29.0153 31.2821 29.2573 31.4757 29.4702C31.559 29.5618 31.6757 29.6929 31.7991 29.8594C33.3508 29.693 34.407 29.3295 35.2009 28.5356C36.6654 27.0711 36.6654 24.7141 36.6654 20V13.3334C36.6654 8.61933 36.6654 6.26231 35.2009 4.79784C33.7364 3.33337 31.3794 3.33337 26.6654 3.33337H13.332C8.61799 3.33337 6.26096 3.33337 4.7965 4.79784C3.33203 6.26231 3.33203 8.61933 3.33203 13.3334Z" fill="#0071E3"/>
<g id="Vector_2">
<path d="M11.668 14.5833C10.9776 14.5833 10.418 15.143 10.418 15.8333C10.418 16.5237 10.9776 17.0833 11.668 17.0833H28.3346C29.025 17.0833 29.5846 16.5237 29.5846 15.8333C29.5846 15.143 29.025 14.5833 28.3346 14.5833H11.668Z" fill="#0071E3"/>
<path d="M13.7513 10C13.7513 9.30964 14.3109 8.75 15.0013 8.75H25.0013C25.6917 8.75 26.2513 9.30964 26.2513 10C26.2513 10.6904 25.6917 11.25 25.0013 11.25H15.0013C14.3109 11.25 13.7513 10.6904 13.7513 10Z" fill="#0071E3"/>
</g>
<g id="Vector_3">
<path d="M15.0019 26.529C15.0006 26.5747 15 26.6206 15 26.6666C15 29.428 17.2386 31.6666 20 31.6666C22.7614 31.6666 25 29.428 25 26.6666C25 26.6206 24.9994 26.5747 24.9981 26.529C24.9252 23.8312 22.7154 21.6666 20 21.6666C17.4112 21.6666 15.2819 23.6341 15.0258 26.1554C15.0133 26.2787 15.0053 26.4033 15.0019 26.529Z" fill="#0071E3"/>
<path d="M12.7928 28.7489L10.9921 30.5246C10.4519 31.0573 10.1819 31.3236 10.0884 31.5491C9.87548 32.063 10.0577 32.6331 10.5214 32.9034C10.7249 33.022 11.0919 33.059 11.8259 33.1329C12.2403 33.1747 12.4475 33.1955 12.6211 33.2589C13.0097 33.4007 13.3119 33.6988 13.4558 34.0819C13.52 34.2531 13.5412 34.4574 13.5835 34.8661C13.6585 35.5899 13.696 35.9518 13.8163 36.1525C14.0904 36.6097 14.6685 36.7894 15.1897 36.5794C15.4184 36.4873 15.6884 36.221 16.2285 35.6884L18.0292 33.905C15.5084 33.2203 13.5153 31.2539 12.7928 28.7489Z" fill="#0071E3"/>
<path d="M21.9708 33.905L23.7715 35.6884C24.3116 36.221 24.5816 36.4873 24.8103 36.5794C25.3315 36.7894 25.9096 36.6097 26.1837 36.1525C26.304 35.9518 26.3415 35.5899 26.4165 34.8661C26.4588 34.4574 26.48 34.2531 26.5442 34.0819C26.6881 33.6988 26.9903 33.4007 27.3789 33.2589C27.5525 33.1955 27.7597 33.1747 28.1741 33.1329C28.9081 33.059 29.2751 33.022 29.4786 32.9034C29.9423 32.6331 30.1245 32.063 29.9116 31.5491C29.8181 31.3236 29.5481 31.0573 29.0079 30.5246L27.2072 28.7489C26.4847 31.2539 24.4916 33.2203 21.9708 33.905Z" fill="#0071E3"/>
</g>
</g>
</svg>
