<svg width="496" height="413" viewBox="0 0 496 413" fill="none" xmlns="http://www.w3.org/2000/svg">
<path opacity="0.3" d="M58.5266 259.364C55.6333 278.279 46.0439 293.973 40.5879 311.732C35.1319 329.326 35.2146 353.198 46.9532 363.605H432.345C444.415 345.268 473.596 258.868 449.375 226.489C433.255 204.931 404.569 200.14 396.137 171.725C390.103 151.406 399.692 128.608 398.204 106.802C396.551 81.8566 379.852 62.0326 361.665 56.4984C343.396 50.9642 324.217 57.1592 307.105 67.1538C289.911 77.0658 179.055 80.122 111.764 51.7076C93.2466 43.8606 71.2573 54.103 56.6252 71.862C41.9932 89.621 34.3052 117.127 36.5372 143.476C39.9266 183.537 64.5613 219.799 58.5266 259.364Z" fill="#86E9DC"/>
<path d="M124.001 56.7462V112.749C124.001 116.301 121.108 119.109 117.636 119.109H43.3185C39.7638 119.109 36.9531 116.301 36.9531 112.749V56.7462C36.9531 53.1944 39.8465 50.386 43.3185 50.386H117.553C121.108 50.386 124.001 53.1944 124.001 56.7462Z" fill="#FFCCCC"/>
<path d="M46.1299 58.646C47.043 58.646 47.7832 57.9064 47.7832 56.994C47.7832 56.0816 47.043 55.342 46.1299 55.342C45.2168 55.342 44.4766 56.0816 44.4766 56.994C44.4766 57.9064 45.2168 58.646 46.1299 58.646Z" fill="white"/>
<path d="M51.2549 58.646C52.168 58.646 52.9082 57.9064 52.9082 56.994C52.9082 56.0816 52.168 55.342 51.2549 55.342C50.3418 55.342 49.6016 56.0816 49.6016 56.994C49.6016 57.9064 50.3418 58.646 51.2549 58.646Z" fill="white"/>
<path d="M56.4619 58.646C57.375 58.646 58.1153 57.9064 58.1153 56.994C58.1153 56.0816 57.375 55.342 56.4619 55.342C55.5488 55.342 54.8086 56.0816 54.8086 56.994C54.8086 57.9064 55.5488 58.646 56.4619 58.646Z" fill="white"/>
<path d="M74.2366 66.7408H64.8953C64.5646 66.7408 64.2339 66.4104 64.2339 66.08C64.2339 65.7496 64.5646 65.4192 64.8953 65.4192H74.1539C74.4846 65.4192 74.8153 65.7496 74.8153 66.08C74.8979 66.4104 74.5673 66.7408 74.2366 66.7408ZM60.7619 66.7408H48.6926C48.3619 66.7408 48.0312 66.4104 48.0312 66.08C48.0312 65.7496 48.3619 65.4192 48.6926 65.4192H60.7619C61.0926 65.4192 61.4233 65.7496 61.4233 66.08C61.4233 66.4104 61.0926 66.7408 60.7619 66.7408ZM93.7459 72.1098H84.9833C84.6526 72.1098 84.3219 71.7794 84.3219 71.449C84.3219 71.1186 84.6526 70.7882 84.9833 70.7882H93.7459C94.0766 70.7882 94.4072 71.1186 94.4072 71.449C94.4072 71.7794 94.1593 72.1098 93.7459 72.1098ZM81.2633 72.1098H71.7566C71.4259 72.1098 71.0953 71.7794 71.0953 71.449C71.0953 71.1186 71.4259 70.7882 71.7566 70.7882H81.2633C81.5939 70.7882 81.9246 71.1186 81.9246 71.449C81.9246 71.7794 81.6766 72.1098 81.2633 72.1098ZM67.9539 72.1098H53.3219C52.9913 72.1098 52.6606 71.7794 52.6606 71.449C52.6606 71.1186 52.9913 70.7882 53.3219 70.7882H67.9539C68.2846 70.7882 68.6153 71.1186 68.6153 71.449C68.6153 71.7794 68.3673 72.1098 67.9539 72.1098ZM110.197 77.4788H92.6713C92.3406 77.4788 92.0099 77.1484 92.0099 76.818C92.0099 76.4876 92.3406 76.1572 92.6713 76.1572H110.197C110.527 76.1572 110.858 76.4876 110.858 76.818C110.858 77.231 110.527 77.4788 110.197 77.4788ZM89.6126 77.4788H77.7913C77.4606 77.4788 77.1299 77.1484 77.1299 76.818C77.1299 76.4876 77.4606 76.1572 77.7913 76.1572H89.6953C90.0259 76.1572 90.3566 76.4876 90.3566 76.818C90.2739 77.231 90.0259 77.4788 89.6126 77.4788ZM73.4099 77.4788H53.3219C52.9913 77.4788 52.6606 77.1484 52.6606 76.818C52.6606 76.4876 52.9913 76.1572 53.3219 76.1572H73.4099C73.7406 76.1572 74.0713 76.4876 74.0713 76.818C74.0713 77.231 73.8233 77.4788 73.4099 77.4788ZM89.3646 82.9304H53.3219C52.9913 82.9304 52.6606 82.6 52.6606 82.2696C52.6606 81.9392 52.9913 81.6088 53.3219 81.6088H89.3646C89.6953 81.6088 90.0259 81.9392 90.0259 82.2696C90.0259 82.6 89.7779 82.9304 89.3646 82.9304ZM110.197 88.2994H90.4393C90.1086 88.2994 89.7779 87.969 89.7779 87.6386C89.7779 87.3082 90.1086 86.9778 90.4393 86.9778H110.197C110.527 86.9778 110.858 87.3082 110.858 87.6386C110.858 87.969 110.527 88.2994 110.197 88.2994ZM84.4046 88.2994H73.4099C73.0793 88.2994 72.7486 87.969 72.7486 87.6386C72.7486 87.3082 73.0793 86.9778 73.4099 86.9778H84.3219C84.6526 86.9778 84.9833 87.3082 84.9833 87.6386C84.9833 87.969 84.7353 88.2994 84.4046 88.2994ZM70.0206 88.2994H53.3219C52.9913 88.2994 52.6606 87.969 52.6606 87.6386C52.6606 87.3082 52.9913 86.9778 53.3219 86.9778H70.0206C70.3512 86.9778 70.6819 87.3082 70.6819 87.6386C70.6819 87.969 70.4339 88.2994 70.0206 88.2994ZM85.3139 93.751H78.2046C77.8739 93.751 77.5433 93.4206 77.5433 93.0902C77.5433 92.7598 77.8739 92.4294 78.2046 92.4294H85.3139C85.6446 92.4294 85.9753 92.7598 85.9753 93.0902C85.9753 93.4206 85.6446 93.751 85.3139 93.751ZM74.5672 93.751H53.3219C52.9913 93.751 52.6606 93.4206 52.6606 93.0902C52.6606 92.7598 52.9913 92.4294 53.3219 92.4294H74.5672C74.8979 92.4294 75.2286 92.7598 75.2286 93.0902C75.2286 93.4206 74.9806 93.751 74.5672 93.751ZM77.7913 99.12H65.8872C65.5566 99.12 65.2259 98.7896 65.2259 98.4592C65.2259 98.1288 65.5566 97.7984 65.8872 97.7984H77.7913C78.1219 97.7984 78.4526 98.1288 78.4526 98.4592C78.4526 98.7896 78.1219 99.12 77.7913 99.12ZM62.4979 99.12H48.6926C48.3619 99.12 48.0312 98.7896 48.0312 98.4592C48.0312 98.1288 48.3619 97.7984 48.6926 97.7984H62.4979C62.8286 97.7984 63.1593 98.1288 63.1593 98.4592C63.1593 98.7896 62.8286 99.12 62.4979 99.12ZM94.7379 104.489H80.6846C80.3539 104.489 80.0233 104.159 80.0233 103.828C80.0233 103.498 80.3539 103.167 80.6846 103.167H94.7379C95.0686 103.167 95.3993 103.498 95.3993 103.828C95.3993 104.241 95.1513 104.489 94.7379 104.489ZM76.5513 104.489H52.9086C52.5779 104.489 52.2473 104.159 52.2473 103.828C52.2473 103.498 52.5779 103.167 52.9086 103.167H76.5513C76.8819 103.167 77.2126 103.498 77.2126 103.828C77.2126 104.241 76.8819 104.489 76.5513 104.489ZM91.0179 109.941H70.5166C70.1859 109.941 69.8553 109.61 69.8553 109.28C69.8553 108.949 70.1859 108.619 70.5166 108.619H91.1006C91.4313 108.619 91.7619 108.949 91.7619 109.28C91.7619 109.61 91.4313 109.941 91.0179 109.941ZM66.1353 109.941H52.9086C52.5779 109.941 52.2473 109.61 52.2473 109.28C52.2473 108.949 52.5779 108.619 52.9086 108.619H66.1353C66.4659 108.619 66.7966 108.949 66.7966 109.28C66.7966 109.61 66.4659 109.941 66.1353 109.941Z" fill="white"/>
<path d="M278.999 71.3664C278.917 220.459 279.165 211.291 278.834 212.778C278.173 215.999 275.279 218.477 271.89 218.477H103.746C99.7781 218.477 96.6367 215.256 96.6367 211.373V71.3664C96.6367 67.4016 99.7781 64.2628 103.746 64.2628H271.89C275.775 64.2628 278.999 67.4016 278.999 71.3664Z" fill="white"/>
<path opacity="0.08" d="M198.07 104.902C198.07 108.123 199.393 111.014 201.46 113.079C203.526 115.144 206.42 116.466 209.644 116.466C212.206 116.466 214.521 115.64 216.422 114.236H279.166V95.403H216.422C214.521 93.9988 212.124 93.1728 209.644 93.1728C206.42 93.1728 203.526 94.4944 201.46 96.5594C199.393 98.7896 198.07 101.681 198.07 104.902Z" fill="black"/>
<path d="M278.999 78.5526V71.3664C278.999 67.4016 275.775 64.2628 271.89 64.2628H103.746C99.7781 64.2628 96.6367 67.4842 96.6367 71.3664V78.5526H278.999Z" fill="#060405"/>
<path d="M106.89 72.3576C106.89 73.4314 105.981 74.34 104.906 74.34C103.831 74.34 102.922 73.4314 102.922 72.3576C102.922 71.2838 103.831 70.3752 104.906 70.3752C105.981 70.3752 106.89 71.2838 106.89 72.3576ZM112.511 72.3576C112.511 73.4314 111.602 74.34 110.527 74.34C109.453 74.34 108.543 73.4314 108.543 72.3576C108.543 71.2838 109.453 70.3752 110.527 70.3752C111.602 70.3752 112.511 71.2838 112.511 72.3576ZM118.05 72.3576C118.05 73.4314 117.141 74.34 116.066 74.34C114.991 74.34 114.082 73.4314 114.082 72.3576C114.082 71.2838 114.991 70.3752 116.066 70.3752C117.141 70.3752 118.05 71.2838 118.05 72.3576Z" fill="white"/>
<path d="M214.273 93.2554H288.839C294.047 93.2554 298.263 97.468 298.263 102.672C298.263 107.876 294.047 112.088 288.839 112.088H214.273V93.2554Z" fill="#25E498"/>
<path d="M200.137 102.672C200.137 105.893 201.459 108.784 203.526 110.849C205.593 112.914 208.486 114.236 211.71 114.236C218.158 114.236 223.366 109.032 223.366 102.589C223.366 99.3678 222.043 96.4768 219.977 94.4118C217.91 92.3468 214.934 91.0252 211.793 91.0252C208.569 91.0252 205.675 92.3468 203.609 94.4118C201.459 96.5594 200.137 99.4504 200.137 102.672Z" fill="#060405"/>
<path d="M207.492 105.232C205.591 103.333 205.591 100.276 207.492 98.4592C209.394 96.5594 212.452 96.5594 214.271 98.4592C216.172 100.359 216.172 103.415 214.271 105.232C212.452 107.05 209.394 107.05 207.492 105.232ZM209.228 100.111C208.319 101.02 208.319 102.507 209.228 103.415C210.138 104.324 211.626 104.324 212.535 103.415C213.444 102.507 213.444 101.02 212.535 100.111C211.626 99.2026 210.138 99.2026 209.228 100.111Z" fill="white"/>
<path d="M217.165 108.041C217.661 107.545 217.661 106.802 217.165 106.306L214.272 103.415C213.776 102.92 213.032 102.92 212.536 103.415C212.04 103.911 212.04 104.654 212.536 105.15L215.429 108.041C215.925 108.536 216.669 108.536 217.165 108.041Z" fill="white"/>
<path d="M185.091 157.849H114.246C110.939 157.849 108.211 155.123 108.211 151.819V94.4118C108.211 91.1078 110.939 88.382 114.246 88.382H185.091C188.398 88.382 191.126 91.1078 191.126 94.4118V151.819C191.126 155.123 188.398 157.849 185.091 157.849Z" fill="#F6CC61"/>
<path d="M431.355 289.017C431.355 289.513 452.518 363.605 452.518 363.605L431.355 289.017Z" fill="white"/>
<path d="M451.94 363.77C442.268 329.904 430.777 289.43 430.777 289.017H432.017H431.356L431.935 288.935C432.183 290.174 445.905 338.247 453.097 363.44L451.94 363.77Z" fill="#060405"/>
<path d="M406.143 289.017C406.143 289.513 384.98 363.605 384.98 363.605L406.143 289.017Z" fill="white"/>
<path d="M385.556 363.77L384.398 363.44C391.59 338.164 405.313 290.091 405.561 288.935L406.057 289.017H406.801C406.801 289.43 395.228 329.904 385.556 363.77Z" fill="#060405"/>
<path d="M458.964 222.277C459.791 218.229 461.196 207.987 447.391 210.465C439.124 211.952 425.567 228.059 425.567 228.059H421.186L397.047 273.984V291.578" fill="white"/>
<path d="M353.648 349.315V346.259H371.752C372 352.124 372.496 363.192 372.579 363.192H343.067C342.158 353.611 353.648 349.315 353.648 349.315Z" fill="#9F28EE"/>
<path d="M343.563 359.062C343.149 360.301 342.984 361.705 343.149 363.275H372.661C372.579 363.275 372.496 361.54 372.413 359.062H343.563Z" fill="#060405"/>
<path d="M309.009 349.315V346.259H327.113C327.361 352.124 327.857 363.192 327.94 363.192H298.428C297.436 353.611 309.009 349.315 309.009 349.315Z" fill="#9F28EE"/>
<path d="M298.84 359.062C298.427 360.301 298.261 361.705 298.427 363.275H327.939C327.856 363.275 327.773 361.54 327.691 359.062H298.84ZM382.251 250.278C382.251 250.278 343.48 255.069 336.288 261.429C318.267 277.371 306.363 349.233 306.363 349.233C306.363 350.141 327.856 350.141 327.856 349.233L362.741 276.545L417.632 284.392L409.283 243.34" fill="#060405"/>
<path d="M436.563 256.886L429.619 291.495H383.16L372.165 347.994C372.165 348.985 353.4 348.82 353.4 347.829C353.4 347.829 343.067 278.114 356.789 261.346C368.197 247.387 420.443 250.195 420.443 250.195L436.563 256.886Z" fill="#060405"/>
<path d="M397.047 291.578H437.306C439.62 291.578 441.687 290.009 442.183 287.778L458.882 222.277" fill="white"/>
<path d="M397.459 291.578H396.633V273.819L396.715 273.736L420.937 227.563H425.401C426.889 225.828 439.289 211.456 447.307 209.969C451.358 209.226 454.417 209.556 456.566 210.878L456.153 211.539C454.251 210.3 451.275 210.052 447.473 210.713C439.454 212.117 426.062 227.976 425.897 228.141L425.814 228.306H421.433L397.459 273.902V291.578Z" fill="#060405"/>
<path d="M374.48 205.013L365.469 222.277L304.957 234.914L308.677 249.369L380.184 248.048L391.178 230.124L389.442 212.778" fill="white"/>
<path d="M308.346 249.782L304.461 234.584L365.221 221.864L374.149 204.848L374.893 205.261L365.717 222.607L365.552 222.69L305.453 235.245L309.008 248.956L379.936 247.635L390.765 230.041L389.029 212.778L389.856 212.695L391.674 230.206L380.432 248.461L308.346 249.782Z" fill="#060405"/>
<path d="M382.085 188.989L369.023 205.013L382.002 212.778L382.085 188.989Z" fill="#9F28EE"/>
<path d="M449.623 189.732C447.722 183.785 427.799 171.808 427.799 171.808L407.546 171.23C407.546 171.23 387.375 181.142 382.167 188.824C379.604 192.706 373.652 256.886 373.652 256.886H436.562C436.562 256.886 452.268 198.075 449.623 189.732Z" fill="#9F28EE"/>
<path d="M408.125 162.887C408.125 162.887 409.447 167.678 407.463 171.312C405.975 174.038 406.554 178.746 410.357 179.738C416.474 181.39 427.303 171.808 427.303 171.808L422.261 144.963L408.125 162.887Z" fill="white"/>
<path d="M410.19 180.151C408.62 179.738 407.462 178.664 406.801 177.177C405.974 175.36 406.14 172.882 407.132 171.147C409.033 167.761 407.793 163.052 407.793 163.052L407.71 162.887L407.876 162.722L422.59 144.054L427.798 172.056L427.633 172.221C423.665 175.525 415.316 181.472 410.19 180.151ZM408.537 163.052C408.785 164.044 409.612 168.256 407.793 171.56C406.966 173.047 406.801 175.195 407.545 176.847C407.958 177.755 408.785 178.912 410.438 179.407C415.894 180.811 425.401 172.882 426.806 171.725L422.012 146.037L408.537 163.052ZM402.75 141.989C397.79 142.485 398.204 131.086 398.121 130.921V129.021C398.121 129.021 402.42 126.543 402.916 126.461C403.329 126.378 409.86 129.434 409.942 129.434C410.025 129.517 407.71 141.494 402.75 141.989Z" fill="#060405"/>
<path d="M424.905 142.485C425.815 154.132 417.135 167.678 405.809 165.861C392.748 163.796 400.271 132.986 406.471 127.369C412.671 121.752 424.244 127.865 424.244 127.865L427.551 137.529L424.905 142.485Z" fill="white"/>
<path d="M407.876 166.439C407.132 166.439 406.471 166.356 405.727 166.274C402.42 165.778 400.188 163.465 399.031 159.583C396.055 149.589 401.594 131.251 406.223 127.039C412.588 121.339 423.996 127.287 424.492 127.534L424.658 127.617L428.047 137.612L425.236 142.65C425.732 149.754 422.674 157.683 417.631 162.392C414.738 165.035 411.431 166.439 407.876 166.439ZM413.415 125.387C411.018 125.387 408.62 125.965 406.802 127.617C402.338 131.664 396.964 149.506 399.858 159.335C400.932 162.887 402.916 164.952 405.892 165.448C410.935 166.274 414.82 163.878 417.135 161.731C422.095 157.188 424.988 149.506 424.492 142.568V142.485L427.22 137.612L423.996 128.278C423.087 127.7 418.21 125.387 413.415 125.387Z" fill="#060405"/>
<path d="M424.494 159.418C424.494 159.418 442.929 132.16 431.686 128.443C427.801 114.318 411.102 116.466 407.465 111.097C407.465 111.097 398.619 114.236 403.166 122.331C403.166 122.331 399.281 123.487 396.222 119.44C396.222 119.44 394.403 123.983 396.635 128.773C400.769 137.529 422.675 139.016 424.659 139.842C422.758 145.046 423.337 154.132 423.337 154.132L424.494 159.418Z" fill="#060405"/>
<path d="M397.047 291.578C397.047 291.578 399.196 270.68 406.884 263.577C418.21 253.004 437.554 253.582 442.844 246.891C446.316 242.018 447.97 236.153 450.78 225.25L455.162 234.419C455.162 234.419 443.836 262.668 443.588 263.164C443.34 263.659 417.962 286.209 417.962 286.209L397.047 291.578Z" fill="white"/>
<path d="M397.459 291.578L396.633 291.495C396.715 290.669 398.947 270.35 406.553 263.246C412.753 257.464 421.267 254.986 428.707 252.839C434.825 251.104 440.115 249.535 442.43 246.561C445.241 242.679 446.811 237.888 448.713 231.115L449.539 231.363C447.638 238.301 445.985 243.092 443.091 247.139C440.611 250.278 435.156 251.847 428.956 253.665C421.598 255.812 413.166 258.208 407.131 263.824C399.691 270.763 397.459 291.413 397.459 291.578Z" fill="#060405"/>
<path d="M437.306 291.991H397.047V291.165H437.306C439.455 291.165 441.274 289.761 441.852 287.696L458.551 222.194C459.626 216.908 458.799 213.356 456.154 211.621L456.567 210.96C459.626 212.86 460.535 216.66 459.378 222.359L442.679 287.861C442.018 290.256 439.786 291.991 437.306 291.991Z" fill="#060405"/>
<path d="M272.633 252.095H327.523V259.199H272.633V252.095Z" fill="white"/>
<path d="M327.94 259.694H272.223V251.765H327.94V259.694ZM273.049 258.868H327.113V252.591H273.049V258.868Z" fill="#060405"/>
<path d="M327.523 252.095H443.339V259.199H327.523V252.095Z" fill="#FFCCCC"/>
<path d="M443.756 259.694H327.113V251.765H443.756V259.694ZM327.94 258.868H442.929V252.591H327.94V258.868Z" fill="#060405"/>
<path d="M378.484 210.203L379.802 198.132L380.623 198.222L379.306 210.292L378.484 210.203Z" fill="#060405"/>
<path d="M412.922 259.281L432.514 363.605L412.922 259.281Z" fill="white"/>
<path d="M412.348 259.381L413.566 259.153L433.102 363.484L431.883 363.712L412.348 259.381Z" fill="#060405"/>
<path d="M298.345 259.281L278.836 363.605L298.345 259.281Z" fill="white"/>
<path d="M278.273 363.454L297.778 259.117L298.996 259.345L279.492 363.681L278.273 363.454Z" fill="#060405"/>
<path d="M414.926 142.073C415.001 141.347 414.657 140.716 414.157 140.664C413.658 140.613 413.192 141.159 413.117 141.885C413.041 142.611 413.385 143.242 413.885 143.294C414.384 143.345 414.85 142.799 414.926 142.073Z" fill="#060405"/>
<path d="M406.246 141.474C406.321 140.748 405.977 140.117 405.478 140.066C404.978 140.014 404.512 140.561 404.437 141.287C404.362 142.013 404.706 142.643 405.205 142.695C405.705 142.746 406.171 142.2 406.246 141.474Z" fill="#060405"/>
<path d="M409.118 149.919C409.035 149.836 408.952 149.754 408.291 149.671C407.63 149.506 407.216 149.176 407.216 148.68C407.134 148.102 407.63 147.689 407.878 147.441C409.118 146.285 409.696 144.55 409.448 142.981L410.275 142.815C410.606 144.715 409.862 146.78 408.456 148.019C408.291 148.184 408.043 148.432 408.043 148.597C408.043 148.68 408.291 148.845 408.539 148.928C408.952 149.01 409.448 149.093 409.779 149.341L409.118 149.919ZM409.035 156.444L409.366 155.701C409.862 155.949 410.523 155.949 411.019 155.784C411.515 155.618 412.011 155.205 412.259 154.71L413.003 155.04C412.672 155.784 412.094 156.279 411.35 156.61C410.606 156.775 409.779 156.775 409.035 156.444Z" fill="#060405"/>
<path d="M453.261 210.878L439.787 247.883C438.877 250.361 436.315 251.847 433.752 251.352L379.192 241.77C379.192 241.77 365.387 246.974 362.08 238.301C358.773 229.628 374.893 231.776 374.893 231.776C374.893 231.776 373.571 229.05 374.315 227.398C375.059 225.746 378.861 231.776 378.861 231.776L423.584 229.711L434.827 203.361L453.261 210.878Z" fill="white"/>
<path d="M434.661 251.847C434.33 251.847 433.999 251.847 433.669 251.765L379.274 242.183C377.951 242.679 365.055 246.974 361.749 238.466C361.005 236.566 361.087 234.997 362.079 233.758C364.559 230.619 371.999 231.032 374.314 231.28C373.983 230.289 373.405 228.554 373.983 227.233C374.149 226.82 374.479 226.737 374.645 226.737C375.885 226.654 378.034 229.793 379.109 231.363L423.335 229.298L434.661 202.783L453.757 210.713L440.117 248.13C439.29 250.361 437.058 251.847 434.661 251.847ZM379.191 241.357L433.834 251.021C436.231 251.434 438.546 250.113 439.373 247.8L452.765 211.126L435.157 203.774L423.914 230.041L378.613 232.106L378.447 231.941C376.959 229.545 375.141 227.48 374.645 227.48C374.149 228.719 374.893 230.867 375.223 231.528L375.554 232.189L374.81 232.106C374.727 232.106 365.221 230.867 362.575 234.171C361.831 235.162 361.749 236.484 362.327 238.053C365.469 246.231 378.778 241.357 378.943 241.275L379.191 241.357Z" fill="#060405"/>
<path d="M448.961 188.658C448.961 188.658 453.012 194.44 453.756 196.671C456.07 203.196 454.086 223.598 454.086 223.598L426.062 218.973L431.022 206.5" fill="#9F28EE"/>
<path d="M454.004 223.433L425.484 218.725L429.37 209.887L430.114 210.217L426.642 218.064L454.17 222.607L454.004 223.433Z" fill="#060405"/>
<path d="M353.565 246.561H290.739C288.672 246.561 286.771 245.322 285.944 243.257L275.363 213.025C274.123 209.721 276.603 206.087 280.157 206.087H335.544C337.693 206.087 339.595 207.409 340.339 209.391L353.565 246.561Z" fill="white"/>
<path d="M354.143 246.974H290.738C288.506 246.974 286.439 245.57 285.613 243.422L275.031 213.191C273.709 209.639 276.271 205.757 280.157 205.757H335.543C337.858 205.757 339.925 207.161 340.669 209.308L354.143 246.974ZM280.157 206.5C276.85 206.5 274.618 209.804 275.775 212.86L286.357 243.092C287.018 244.909 288.837 246.065 290.738 246.065H352.986L340.007 209.474C339.346 207.656 337.527 206.417 335.626 206.417H280.157V206.5Z" fill="#060405"/>
<path d="M331.328 208.895C333.229 208.895 334.883 210.052 335.627 211.869L345.629 240.036" fill="white"/>
<path d="M345.133 240.118L335.13 211.952C334.552 210.382 332.981 209.308 331.245 209.308V208.482C333.312 208.482 335.13 209.804 335.874 211.704L345.877 239.87L345.133 240.118ZM382.25 249.287V250.278C382.25 251.269 381.424 252.178 380.349 252.178H293.053C291.482 252.178 290.242 250.939 290.242 249.369C290.242 248.626 290.573 247.883 291.069 247.387C291.565 246.891 292.309 246.561 293.053 246.561H379.522C381.01 246.561 382.25 247.8 382.25 249.287Z" fill="#060405"/>
<path d="M313.064 232.316C314.552 231.424 314.673 228.894 313.335 226.664C311.996 224.434 309.705 223.349 308.217 224.24C306.73 225.132 306.608 227.662 307.947 229.892C309.285 232.122 311.577 233.207 313.064 232.316Z" fill="#FFCCCC"/>
<path d="M408.457 160.244L408.54 159.418C411.929 159.831 414.326 159.748 415.236 159.253C417.716 158.014 422.014 149.836 422.014 149.754L422.758 150.167C422.593 150.497 418.377 158.675 415.566 159.996C414.078 160.822 410.193 160.409 408.457 160.244Z" fill="#060405"/>
<path d="M423.169 151.571C426.319 151.571 428.873 149.019 428.873 145.872C428.873 142.724 426.319 140.172 423.169 140.172C420.019 140.172 417.465 142.724 417.465 145.872C417.465 149.019 420.019 151.571 423.169 151.571Z" fill="white"/>
<path d="M423.172 151.984C419.783 151.984 417.055 149.258 417.055 145.872C417.055 142.485 419.783 139.759 423.172 139.759C426.561 139.759 429.289 142.485 429.289 145.872C429.289 149.258 426.561 151.984 423.172 151.984ZM423.172 140.503C420.279 140.503 417.881 142.898 417.881 145.789C417.881 148.68 420.279 151.075 423.172 151.075C426.065 151.075 428.463 148.68 428.463 145.789C428.463 142.898 426.065 140.503 423.172 140.503Z" fill="#060405"/>
<path d="M423.172 148.432C424.587 148.432 425.735 147.286 425.735 145.872C425.735 144.457 424.587 143.311 423.172 143.311C421.757 143.311 420.609 144.457 420.609 145.872C420.609 147.286 421.757 148.432 423.172 148.432Z" fill="#FFCCCC"/>
<path d="M408.289 161.153C409.111 161.153 409.777 160.487 409.777 159.666C409.777 158.845 409.111 158.179 408.289 158.179C407.467 158.179 406.801 158.845 406.801 159.666C406.801 160.487 407.467 161.153 408.289 161.153Z" fill="#060405"/>
<path d="M171.616 128.526C171.038 130.756 170.211 132.821 169.054 134.721L172.278 140.337L166.904 145.706L161.283 142.485C159.382 143.641 157.315 144.55 155.083 145.046L153.43 151.241H145.824L144.171 145.046C141.939 144.467 139.872 143.641 137.971 142.485L132.35 145.706L126.976 140.337L130.2 134.721C129.043 132.821 128.134 130.756 127.638 128.526L121.438 126.874V119.274L127.638 117.622C128.216 115.392 129.043 113.327 130.2 111.427L126.976 105.811L132.35 100.442L137.971 103.663C139.872 102.507 141.939 101.598 144.171 101.102L145.824 94.9074H153.43L155.083 101.102C157.315 101.681 159.382 102.507 161.283 103.663L166.904 100.442L172.278 105.811L169.054 111.427C170.211 113.327 171.038 115.392 171.616 117.622L177.816 119.274V126.874L171.616 128.526Z" fill="white"/>
<path d="M149.628 136.703C157.161 136.703 163.268 130.601 163.268 123.074C163.268 115.547 157.161 109.445 149.628 109.445C142.095 109.445 135.988 115.547 135.988 123.074C135.988 130.601 142.095 136.703 149.628 136.703Z" fill="#F6CC61"/>
<path opacity="0.05" d="M279.246 127.947V172.964H204.35C201.87 172.964 199.969 170.982 199.969 168.587V132.408C199.969 130.012 201.953 128.03 204.35 128.03H279.246V127.947Z" fill="#060405"/>
<path d="M286.359 170.899H206.007C203.527 170.899 201.543 168.917 201.543 166.439V130.26C201.543 127.782 203.527 125.8 206.007 125.8H286.359C288.839 125.8 290.823 127.782 290.823 130.26V166.439C290.823 168.917 288.839 170.899 286.359 170.899Z" fill="#F81F8B"/>
<path d="M241.967 160.905H212.289C210.884 160.905 209.727 159.748 209.727 158.344V138.355C209.727 136.951 210.884 135.794 212.289 135.794H241.967C243.372 135.794 244.529 136.951 244.529 138.355V158.344C244.447 159.748 243.372 160.905 241.967 160.905ZM212.207 137.529C211.711 137.529 211.297 137.942 211.297 138.438V158.427C211.297 158.922 211.711 159.335 212.207 159.335H241.884C242.38 159.335 242.793 158.922 242.793 158.427V138.438C242.793 137.942 242.38 137.529 241.884 137.529H212.207Z" fill="white"/>
<path d="M225.185 150.58L210.801 138.025C210.47 137.694 210.388 137.199 210.718 136.868C211.049 136.538 211.545 136.455 211.876 136.786L226.342 149.423C226.756 149.836 227.5 149.836 227.913 149.423L242.38 136.786C242.71 136.455 243.206 136.538 243.537 136.868C243.868 137.199 243.785 137.694 243.454 138.025L228.988 150.662C227.913 151.571 226.26 151.571 225.185 150.58Z" fill="white"/>
<path d="M239.071 155.288L231.3 147.441C230.969 147.111 230.969 146.615 231.3 146.285C231.631 145.954 232.127 145.954 232.457 146.285L240.228 154.132C240.559 154.462 240.559 154.958 240.228 155.288C239.98 155.618 239.401 155.618 239.071 155.288ZM213.857 155.371C213.527 155.04 213.527 154.545 213.857 154.214L221.628 146.367C221.959 146.037 222.455 146.037 222.785 146.367C223.116 146.698 223.116 147.193 222.785 147.524L215.015 155.371C214.767 155.618 214.188 155.618 213.857 155.371ZM251.719 139.346H284.951V144.798H251.719V139.346ZM269.244 148.35H279.825V149.836H269.244V148.35ZM281.892 148.35H284.951V149.836H281.892V148.35ZM251.719 148.35H265.276V149.836H251.719V148.35ZM251.719 152.149H259.82V153.636H251.719V152.149ZM263.209 152.149H275.609V153.636H263.209V152.149ZM278.172 152.149H285.033V153.636H278.172V152.149ZM251.719 155.866H260.729V157.353H251.719V155.866Z" fill="white"/>
<path d="M138.468 203.857H113.254C110.444 203.857 108.129 201.544 108.129 198.736V175.938C108.129 173.13 110.444 170.817 113.254 170.817H138.55C141.361 170.817 143.676 173.13 143.676 175.938V198.736C143.593 201.544 141.278 203.857 138.468 203.857Z" fill="#25E498"/>
<path d="M154.918 178.994H263.294V182.381H154.918V178.994ZM154.918 187.337H263.294V190.723H154.918V187.337ZM154.918 195.762H184.513V199.149H154.918V195.762ZM201.707 195.762H218.737V199.149H201.707V195.762Z" fill="#FFC2C2"/>
<path d="M325.872 133.729C332.485 135.877 339.347 134.721 344.803 131.251L341.413 126.708C341.496 126.626 343.067 125.469 342.984 125.552L346.373 130.178L354.227 140.75L355.715 139.594L347.779 128.939C350.589 126.378 352.739 123.074 353.979 119.274C357.781 107.463 351.251 94.9074 339.429 91.1078C327.608 87.3082 315.043 93.8336 311.24 105.645C307.603 117.375 314.051 130.012 325.872 133.729Z" fill="#060405"/>
<path d="M321.409 114.979C322.153 114.484 322.731 114.071 323.145 113.74C323.641 113.327 324.054 112.914 324.385 112.419C324.715 111.923 324.963 111.345 324.963 110.684C324.963 110.023 324.798 109.528 324.467 109.032C324.137 108.536 323.723 108.206 323.145 107.958C322.649 107.71 321.987 107.545 321.409 107.545C320.251 107.545 319.177 107.793 318.185 108.289C317.854 108.454 317.689 108.784 317.689 109.115C317.689 109.362 317.771 109.61 317.937 109.775C318.185 110.023 318.598 110.106 318.929 109.941C319.673 109.61 320.417 109.445 321.161 109.445C321.822 109.445 322.318 109.61 322.649 109.858C322.897 110.106 323.062 110.436 323.062 110.849C323.062 111.097 322.979 111.345 322.814 111.593C322.649 111.84 322.318 112.088 322.07 112.336C321.739 112.584 321.326 112.914 320.747 113.245C320.086 113.658 319.507 114.071 319.094 114.401C318.681 114.731 318.267 115.144 318.019 115.557C317.689 116.053 317.523 116.549 317.523 117.127C317.523 117.457 317.606 117.705 317.854 117.87C318.019 118.035 318.35 118.201 318.598 118.201H323.971C324.219 118.201 324.467 118.118 324.633 117.953C324.798 117.788 324.881 117.54 324.881 117.292C324.881 117.044 324.798 116.796 324.633 116.631C324.467 116.466 324.219 116.383 323.971 116.383H319.755L320.003 116.136C320.251 115.723 320.747 115.392 321.409 114.979ZM333.313 113.823H332.569V108.784C332.569 108.454 332.486 108.206 332.238 107.958C331.99 107.71 331.742 107.628 331.411 107.628H331.163C330.998 107.628 330.75 107.71 330.585 107.793C330.419 107.876 330.254 107.958 330.171 108.123L325.79 113.74C325.625 113.905 325.542 114.153 325.542 114.484V114.649C325.542 114.979 325.625 115.227 325.873 115.475C326.121 115.723 326.369 115.805 326.699 115.805H330.585V117.375C330.585 117.622 330.667 117.87 330.833 118.035C330.998 118.201 331.246 118.283 331.494 118.283C331.742 118.283 331.99 118.201 332.155 118.035C332.321 117.87 332.486 117.622 332.486 117.375V115.805H333.23C333.478 115.805 333.726 115.723 333.891 115.557C334.057 115.392 334.139 115.144 334.139 114.897C334.139 114.649 334.057 114.401 333.891 114.236C333.809 113.905 333.561 113.823 333.313 113.823ZM330.667 110.354V113.823H328.022L330.667 110.354ZM338.769 106.884C338.603 106.967 338.521 107.132 338.438 107.297L334.718 118.118C334.718 118.201 334.635 118.366 334.635 118.448C334.635 118.696 334.718 118.944 334.883 119.109C335.049 119.274 335.297 119.357 335.545 119.357C335.793 119.357 335.958 119.274 336.123 119.192C336.289 119.109 336.371 118.944 336.454 118.779L340.174 107.958C340.174 107.876 340.257 107.71 340.257 107.628C340.257 107.38 340.174 107.132 340.009 106.967C339.678 106.637 339.099 106.637 338.769 106.884ZM348.606 107.958C348.358 107.793 348.11 107.628 347.779 107.628H342.075C341.827 107.628 341.579 107.71 341.414 107.876C341.249 108.041 341.166 108.289 341.166 108.536C341.166 108.784 341.249 109.032 341.414 109.197C341.579 109.362 341.827 109.445 342.075 109.445H346.622L343.067 116.549C342.985 116.714 342.985 116.879 342.985 117.044C342.985 117.292 343.067 117.54 343.233 117.705C343.398 117.87 343.646 117.953 343.894 117.953C344.059 117.953 344.225 117.87 344.39 117.788C344.555 117.705 344.721 117.54 344.803 117.375L348.771 109.28C348.854 109.032 348.937 108.784 348.937 108.536C348.937 108.454 348.771 108.123 348.606 107.958Z" fill="white"/>
<path d="M124.66 338.164C124.495 335.604 125.074 332.961 126.396 330.648C126.892 329.739 127.802 328.005 128.794 327.592C129.703 327.179 131.935 328.748 132.844 329.161C132.844 327.426 132.844 325.774 133.258 324.122C135.82 322.718 137.722 320.984 139.375 318.588C141.028 321.562 142.351 324.783 143.178 328.087C143.591 329.822 143.922 331.639 143.508 333.374C143.095 335.026 142.103 336.43 140.863 337.586C139.623 338.743 138.218 339.651 136.812 340.56C134.25 342.129 130.612 340.147 127.967 338.825C126.727 338.33 125.983 338.164 124.66 338.164Z" fill="#008080"/>
<path d="M168.39 272.497C170.209 279.188 167.233 287.778 162.273 293.478C152.518 304.877 136.564 308.759 128.049 321.562C123.916 327.592 121.601 334.943 121.436 342.377C120.857 334.943 122.924 327.261 126.892 320.818C130.86 314.293 137.225 309.667 143.508 305.62C153.758 299.26 162.852 293.973 166.985 283.235C168.39 279.931 169.052 276.214 168.39 272.497Z" fill="#008080"/>
<path d="M168.391 272.497C168.391 272.497 175.666 287.944 166.821 299.673L164.093 298.847V301.655C164.093 301.655 158.802 304.629 150.783 303.225V302.233L154.503 299.838L157.975 297.525L162.191 292.652L165.25 288.522L167.399 285.135L169.053 277.866L168.391 272.497ZM174.591 326.683C174.591 326.683 170.541 329.491 163.597 328.335C156.653 327.179 142.517 312.641 131.191 316.936C131.439 316.688 135.573 312.558 135.325 312.889C135.325 312.889 151.941 303.638 163.514 307.52C175.005 311.319 174.591 326.683 174.591 326.683Z" fill="#12A67C"/>
<path opacity="0.1" d="M174.591 326.683C174.591 326.683 170.541 329.491 163.597 328.335C156.653 327.179 142.517 312.641 131.191 316.936C133.919 315.202 139.871 311.815 143.095 311.898C149.626 312.063 153.429 315.284 160.951 321.644C168.557 328.005 174.591 326.683 174.591 326.683Z" fill="black"/>
<path d="M126.812 303.555C126.812 303.555 149.628 304.629 155.663 284.309L147.562 282.492L156.159 277.619C156.159 277.619 156.903 263.824 160.375 259.199C160.375 259.281 112.18 264.981 126.812 303.555ZM118.132 336.925C118.546 333.126 118.38 329.326 117.802 325.609C117.223 321.892 116.231 318.258 114.578 314.871C111.271 307.85 105.65 303.142 97.8789 300.912C100.69 301.738 109.618 303.307 115.156 314.623C116.81 318.093 117.802 321.81 118.298 325.527C118.794 329.326 118.711 333.126 118.132 336.925Z" fill="#12A67C"/>
<path d="M110.527 308.181C89.6946 313.715 89.2812 293.065 89.2812 293.065C93.7453 297.277 100.524 295.46 105.897 298.516C111.353 301.573 110.527 308.181 110.527 308.181ZM119.537 336.512C119.289 333.208 119.124 329.822 118.876 326.518C118.545 323.214 118.215 319.827 117.719 316.523C116.644 309.337 115.073 302.977 112.924 297.112C116.975 306.198 118.793 316.606 119.372 326.435C119.455 328.087 119.537 329.822 119.537 331.474V336.512Z" fill="#008080"/>
<path d="M113.831 300.086C110.772 292.9 91.8412 283.896 87.2946 279.105C82.7479 274.397 84.0706 266.881 84.0706 266.881C88.2866 271.093 98.2066 271.506 109.697 279.188C121.188 286.87 113.831 300.086 113.831 300.086ZM115.401 331.804C115.401 331.804 115.815 315.449 106.969 313.384C98.0412 311.319 94.1559 313.384 94.1559 313.384L94.4866 315.945L91.2626 313.55C91.2626 313.55 84.6492 315.367 82.0039 314.871C82.0039 314.871 83.4919 319.662 91.4279 321.562C99.3639 323.462 110.028 323.957 115.401 331.804Z" fill="#12A67C"/>
<path d="M114.742 329.904C115.321 331.143 115.652 332.465 115.734 333.869C115.817 335.191 115.734 336.595 115.404 337.917L115.321 335.934L115.156 333.952L114.99 331.969C114.908 331.226 114.825 330.565 114.742 329.904Z" fill="#1AC1C1"/>
<path opacity="0.1" d="M113.833 300.086C110.775 292.9 91.8441 283.896 87.2975 279.105C82.7508 274.397 84.0735 266.881 84.0735 266.881C84.0735 266.881 83.9081 274.81 90.6041 276.627C97.3001 278.527 111.849 287.365 113.833 300.086Z" fill="#12A67C"/>
<path d="M122.098 336.512C121.685 329.822 122.181 323.049 123.256 316.358C126.728 295.708 136.4 277.288 154.09 266.055C145.08 272.745 144.997 273.984 142.765 276.049C141.69 277.288 140.533 278.527 139.541 279.931C129.373 292.982 124.082 309.833 122.512 326.435C122.264 329.822 122.098 333.126 122.098 336.512Z" fill="#008080"/>
<path d="M133.175 363.605H114.492C113.417 363.605 112.508 362.862 112.26 361.788L107.383 339.651H140.284L135.407 361.788C135.159 362.862 134.249 363.605 133.175 363.605Z" fill="white"/>
<path d="M135.737 360.466L135.407 361.788C135.159 362.862 134.249 363.605 133.175 363.605H114.492C113.417 363.605 112.508 362.862 112.26 361.788L107.383 339.651H110.524L111.764 345.185C113.748 354.024 121.601 360.384 130.695 360.384H135.737V360.466Z" fill="#FFCCCC"/>
<path d="M133.175 364.018H114.492C113.252 364.018 112.095 363.11 111.847 361.871L106.887 339.238H140.78L135.82 361.871C135.572 363.11 134.415 364.018 133.175 364.018ZM107.879 340.064L112.591 361.705C112.756 362.531 113.583 363.192 114.409 363.192H133.092C134.001 363.192 134.745 362.531 134.911 361.705L139.623 340.064H107.879Z" fill="#060405"/>
<path d="M142.599 340.89H105.068C104.572 340.89 104.159 340.56 103.994 340.064L102.919 334.53C102.754 333.869 103.332 333.291 103.994 333.291H143.756C144.418 333.291 144.914 333.869 144.831 334.53L143.756 340.064C143.508 340.477 143.095 340.89 142.599 340.89Z" fill="white"/>
<path d="M142.599 341.303H105.069C104.407 341.303 103.746 340.808 103.663 340.147L102.506 334.53C102.341 333.621 103.002 332.795 103.911 332.795H143.674C144.583 332.795 145.327 333.621 145.079 334.53L144.005 340.064C143.922 340.725 143.261 341.303 142.599 341.303ZM103.911 333.621C103.498 333.621 103.167 334.034 103.25 334.365L104.325 339.899C104.407 340.229 104.655 340.395 104.986 340.395H142.517C142.847 340.395 143.095 340.147 143.178 339.899L144.253 334.365C144.335 333.952 144.005 333.621 143.591 333.621H103.911Z" fill="#060405"/>
<path d="M228.654 298.103H205.425C205.26 298.103 205.094 297.938 205.094 297.773C205.094 297.608 205.26 297.443 205.425 297.443H228.654C228.82 297.443 228.985 297.608 228.985 297.773C228.985 297.938 228.82 298.103 228.654 298.103ZM228.654 309.585H205.425C205.26 309.585 205.094 309.42 205.094 309.254C205.094 309.089 205.26 308.924 205.425 308.924H228.654C228.82 308.924 228.985 309.089 228.985 309.254C228.985 309.42 228.82 309.585 228.654 309.585ZM224.438 303.803H191.62C191.454 303.803 191.289 303.638 191.289 303.472C191.289 303.307 191.454 303.142 191.62 303.142H224.438C224.604 303.142 224.769 303.307 224.769 303.472C224.769 303.638 224.604 303.803 224.438 303.803Z" fill="#25E498"/>
<path d="M210.22 298.103C210.055 298.103 209.89 297.938 209.89 297.773V292.9C209.89 292.734 210.055 292.569 210.22 292.569C210.386 292.569 210.551 292.734 210.551 292.9V297.773C210.551 297.938 210.386 298.103 210.22 298.103ZM218.404 303.803C218.239 303.803 218.074 303.638 218.074 303.472V297.69C218.074 297.525 218.239 297.36 218.404 297.36C218.57 297.36 218.735 297.525 218.735 297.69V303.472C218.735 303.72 218.57 303.803 218.404 303.803ZM212.204 309.42C212.039 309.42 211.874 309.254 211.874 309.089V303.555C211.874 303.39 212.039 303.225 212.204 303.225C212.37 303.225 212.535 303.39 212.535 303.555V309.089C212.535 309.254 212.37 309.42 212.204 309.42ZM83.7403 176.021H60.5937C60.4283 176.021 60.263 175.855 60.263 175.69C60.263 175.525 60.4283 175.36 60.5937 175.36H83.823C83.9883 175.36 84.1537 175.525 84.1537 175.69C84.1537 175.855 83.9057 176.021 83.7403 176.021ZM83.7403 187.502H60.5937C60.4283 187.502 60.263 187.337 60.263 187.172C60.263 187.006 60.4283 186.841 60.5937 186.841H83.823C83.9883 186.841 84.1537 187.006 84.1537 187.172C84.1537 187.337 83.9057 187.502 83.7403 187.502ZM79.5243 181.72H46.7057C46.5403 181.72 46.375 181.555 46.375 181.39C46.375 181.224 46.5403 181.059 46.7057 181.059H79.5243C79.6897 181.059 79.855 181.224 79.855 181.39C79.855 181.555 79.6897 181.72 79.5243 181.72Z" fill="#25E498"/>
<path d="M65.3072 176.021C65.1419 176.021 64.9766 175.855 64.9766 175.69V170.817C64.9766 170.652 65.1419 170.486 65.3072 170.486C65.4726 170.486 65.6379 170.652 65.6379 170.817V175.69C65.6379 175.855 65.4726 176.021 65.3072 176.021ZM73.4912 181.72C73.3259 181.72 73.1606 181.555 73.1606 181.39V175.608C73.1606 175.442 73.3259 175.277 73.4912 175.277C73.6566 175.277 73.8219 175.442 73.8219 175.608V181.39C73.8219 181.637 73.6566 181.72 73.4912 181.72ZM67.2912 187.337C67.1259 187.337 66.9606 187.172 66.9606 187.006V181.472C66.9606 181.307 67.1259 181.142 67.2912 181.142C67.4566 181.142 67.6219 181.307 67.6219 181.472V187.006C67.6219 187.172 67.4566 187.337 67.2912 187.337ZM341.001 169.165H317.771C317.606 169.165 317.441 169 317.441 168.834C317.441 168.669 317.606 168.504 317.771 168.504H341.001C341.166 168.504 341.331 168.669 341.331 168.834C341.331 169 341.166 169.165 341.001 169.165ZM341.001 180.729H317.771C317.606 180.729 317.441 180.564 317.441 180.398C317.441 180.233 317.606 180.068 317.771 180.068H341.001C341.166 180.068 341.331 180.233 341.331 180.398C341.331 180.564 341.166 180.729 341.001 180.729ZM336.785 174.947H303.966C303.801 174.947 303.635 174.782 303.635 174.616C303.635 174.451 303.801 174.286 303.966 174.286H336.785C336.95 174.286 337.115 174.451 337.115 174.616C337.115 174.782 336.95 174.947 336.785 174.947Z" fill="#25E498"/>
<path d="M322.648 169.165C322.483 169.165 322.317 169 322.317 168.834V163.961C322.317 163.796 322.483 163.631 322.648 163.631C322.813 163.631 322.979 163.796 322.979 163.961V168.834C322.896 169.082 322.813 169.165 322.648 169.165ZM330.749 174.947C330.584 174.947 330.419 174.782 330.419 174.616V168.834C330.419 168.669 330.584 168.504 330.749 168.504C330.915 168.504 331.08 168.669 331.08 168.834V174.616C331.08 174.782 330.915 174.947 330.749 174.947ZM324.549 180.481C324.384 180.481 324.219 180.316 324.219 180.151V174.616C324.219 174.451 324.384 174.286 324.549 174.286C324.715 174.286 324.88 174.451 324.88 174.616V180.151C324.88 180.398 324.715 180.481 324.549 180.481ZM322.483 65.0062H299.253C299.088 65.0062 298.923 64.841 298.923 64.6758C298.923 64.5106 299.088 64.3454 299.253 64.3454H322.483C322.648 64.3454 322.813 64.5106 322.813 64.6758C322.813 64.841 322.731 65.0062 322.483 65.0062ZM322.483 76.4876H299.253C299.088 76.4876 298.923 76.3224 298.923 76.1572C298.923 75.992 299.088 75.8268 299.253 75.8268H322.483C322.648 75.8268 322.813 75.992 322.813 76.1572C322.813 76.3224 322.731 76.4876 322.483 76.4876ZM318.267 70.7882H285.448C285.283 70.7882 285.117 70.623 285.117 70.4578C285.117 70.2926 285.283 70.1274 285.448 70.1274H318.267C318.432 70.1274 318.597 70.2926 318.597 70.4578C318.597 70.623 318.515 70.7882 318.267 70.7882Z" fill="#25E498"/>
<path d="M304.131 65.0062C303.966 65.0062 303.801 64.841 303.801 64.6758V59.8024C303.801 59.6372 303.966 59.472 304.131 59.472C304.297 59.472 304.462 59.6372 304.462 59.8024V64.6758C304.379 64.841 304.297 65.0062 304.131 65.0062ZM312.233 70.7882C312.067 70.7882 311.902 70.623 311.902 70.4578V64.6758C311.902 64.5106 312.067 64.3454 312.233 64.3454C312.398 64.3454 312.563 64.5106 312.563 64.6758V70.4578C312.563 70.623 312.398 70.7882 312.233 70.7882ZM306.033 76.3224C305.867 76.3224 305.702 76.1572 305.702 75.992V70.4578C305.702 70.2926 305.867 70.1274 306.033 70.1274C306.198 70.1274 306.363 70.2926 306.363 70.4578V75.992C306.363 76.1572 306.198 76.3224 306.033 76.3224Z" fill="#25E498"/>
</svg>
